<?xml version="1.0" encoding="utf-8"?>
<!-- Generator: Adobe Illustrator 21.1.0, SVG Export Plug-In . SVG Version: 6.00 Build 0)  -->
<svg version="1.1"
	 id="svg6331" inkscape:version="0.91 r13725" sodipodi:docname="Puls_4_Logo.svg" xmlns:cc="http://creativecommons.org/ns#" xmlns:dc="http://purl.org/dc/elements/1.1/" xmlns:inkscape="http://www.inkscape.org/namespaces/inkscape" xmlns:rdf="http://www.w3.org/1999/02/22-rdf-syntax-ns#" xmlns:sodipodi="http://sodipodi.sourceforge.net/DTD/sodipodi-0.dtd" xmlns:svg="http://www.w3.org/2000/svg"
	 xmlns="http://www.w3.org/2000/svg" xmlns:xlink="http://www.w3.org/1999/xlink" x="0px" y="0px" viewBox="0 0 512 117.5"
	 style="enable-background:new 0 0 512 117.5;" xml:space="preserve">
<style type="text/css">
	.st0{fill:#ED008C;}
	.st1{fill:#FFFFFF;}
</style>
<sodipodi:namedview  bordercolor="#666666" borderopacity="1" gridtolerance="10" guidetolerance="10" id="namedview9" inkscape:current-layer="svg6331" inkscape:cx="301.18109" inkscape:cy="82.753937" inkscape:pageopacity="0" inkscape:pageshadow="2" inkscape:window-height="912" inkscape:window-maximized="0" inkscape:window-width="1592" inkscape:window-x="0" inkscape:window-y="0" inkscape:zoom="0.60096734" objecttolerance="10" pagecolor="#ffffff" showgrid="false">
	</sodipodi:namedview>
<g id="layer1" transform="matrix(0.9031111,0,0,0.9031111,-688.65225,-166.06653)">
	<g id="g6378">
		<path id="path1093" inkscape:connector-curvature="0" class="st0" d="M1329.5,294.4c0,10.8-8.8,19.6-19.6,19.6h-113.3
			c-10.8,0-19.6-8.8-19.6-19.6v-90.9c0-10.8,8.8-19.6,19.6-19.6h113.3c10.8,0,19.6,8.8,19.6,19.6V294.4z"/>
		<path id="path1095" inkscape:connector-curvature="0" class="st1" d="M1293.9,240.6h-65.5c-3,0-4.5-1.5-4.5-4.5v-20.7
			c0-3-2.4-5.4-5.4-5.4h-5.9c-3,0-5.4,2.4-5.4,5.4v36.4c0,3,2.4,5.4,5.4,5.4h65.5c3,0,4.5,1.5,4.5,4.5v20.7c0,3,2.4,5.4,5.4,5.4h5.9
			c3,0,5.4-2.4,5.4-5.4V246C1299.3,243,1296.9,240.6,1293.9,240.6"/>
		<path id="path1099" inkscape:connector-curvature="0" d="M767.9,210c-3,0-5.4,2.4-5.4,5.4v67.1c0,3,2.4,5.4,5.4,5.4h5.8
			c3,0,5.4-2.4,5.4-5.4v-20.7h55.6c21.1,0,31.6-8.6,31.6-21.7v-8.6c0-12.9-10.5-21.5-31.6-21.5H767.9z M880.1,210
			c-3,0-5.4,2.4-5.4,5.4v50.8c0,13.3,10.5,21.7,31.6,21.7h30c21.1,0,31.7-8.4,31.7-21.7v-50.8c0-3-2.6-5.4-5.5-5.4h-5.8
			c-3,0-5.4,2.4-5.4,5.4v47.6c0,6.9-7.2,8.1-15,8.1h-29.8c-7.8,0-15.1-1.3-15.1-8.1v-47.6c0-3-2.4-5.4-5.4-5.4H880.1z M987,210
			c-3,0-5.4,2.4-5.4,5.4v50.9c0,13.3,10.6,21.5,31.7,21.5h106.6c21.1,0,31.7-8.6,31.7-21.5v-4.2c0-13-10.6-21.5-31.7-21.5h-32.7
			c-8.8,0-12.5-2-12.5-7c0-4.9,3.7-6.8,12.5-6.8h56.1c3,0,5.4-2.6,5.4-5.5v-5.8c0-3-2.4-5.4-5.4-5.4h-53.8
			c-21.1,0-31.6,8.6-31.6,21.5v4.2c0,13,10.5,21.5,31.6,21.5h32.9c8.8,0,12.5,2,12.5,7c0,4.9-3.7,7-12.5,7l-109.1-0.1
			c-7.8,0-15-1.3-15-8.1v-47.6c0-3-2.4-5.4-5.4-5.4L987,210L987,210z M779.1,226.6h55.4c8.7,0,15,0.8,15,8.3v2c0,7.4-6.4,8.3-15,8.3
			h-55.4C779.1,239.2,779.1,232.4,779.1,226.6L779.1,226.6z"/>
	</g>
</g>
</svg>
