<?xml version="1.0" encoding="utf-8"?>
<!-- Generator: Adobe Illustrator 21.1.0, SVG Export Plug-In . SVG Version: 6.00 Build 0)  -->
<svg version="1.1"
	 id="svg11358" inkscape:version="0.91 r13725" sodipodi:docname="ORF2_logo_n.svg" xmlns:cc="http://creativecommons.org/ns#" xmlns:dc="http://purl.org/dc/elements/1.1/" xmlns:inkscape="http://www.inkscape.org/namespaces/inkscape" xmlns:rdf="http://www.w3.org/1999/02/22-rdf-syntax-ns#" xmlns:sodipodi="http://sodipodi.sourceforge.net/DTD/sodipodi-0.dtd" xmlns:svg="http://www.w3.org/2000/svg"
	 xmlns="http://www.w3.org/2000/svg" xmlns:xlink="http://www.w3.org/1999/xlink" x="0px" y="0px" viewBox="0 0 512 153.4"
	 style="enable-background:new 0 0 512 153.4;" xml:space="preserve">
<style type="text/css">
	.st0{fill:#FFFFFF;}
	.st1{fill:#EC1B24;}
	.st2{fill:url(#path3601_1_);}
	.st3{fill:#E2001A;}
</style>
<sodipodi:namedview  bordercolor="#666666" borderopacity="1" gridtolerance="10" guidetolerance="10" id="namedview22" inkscape:current-layer="svg11358" inkscape:cx="340.5715" inkscape:cy="102.042" inkscape:pageopacity="0" inkscape:pageshadow="2" inkscape:window-height="773" inkscape:window-maximized="0" inkscape:window-width="1354" inkscape:window-x="0" inkscape:window-y="0" inkscape:zoom="0.53145962" objecttolerance="10" pagecolor="#ffffff" showgrid="false">
	</sodipodi:namedview>
<g id="layer1" transform="matrix(0.75165893,0,0,0.75165893,-63.813588,130.23522)">
	<g id="g13505">
		<path id="path3589" inkscape:connector-curvature="0" class="st0" d="M562-173.3h204.1V30.8H562V-173.3z"/>
		<path id="path3591" inkscape:connector-curvature="0" class="st1" d="M84.9-173.3h476.7V30.8H84.9L84.9-173.3L84.9-173.3z"/>
		<path id="path3593" inkscape:connector-curvature="0" class="st0" d="M244.2-71.2c0-33.3-27-59-60.7-59c-33.7,0-60.7,25.7-60.7,59
			c0,33.3,27,59,60.7,59C217.2-12.2,244.2-37.9,244.2-71.2 M215.4-71.2c0,17.9-15.4,32.2-31.9,32.2c-16.7,0-31.9-14.3-31.9-32.2
			c0-17.9,15.2-32.2,31.9-32.2C200-103.5,215.4-89.1,215.4-71.2"/>
		<path id="path3595" inkscape:connector-curvature="0" class="st0" d="M284.4-14.4h27.9v-33.1h20.8l21.9,33.1h34.8l-28.1-39.8
			c13.2-5.8,22.5-18.3,22.5-33.7c0-22.6-16.7-40.2-42-40.2h-57.8V-14.4z M340.6-74.3h-28.3v-27h28.3c12.1,0,15.8,6,15.8,13.4
			C356.3-80.3,352.7-74.3,340.6-74.3"/>
		<path id="path3597" inkscape:connector-curvature="0" class="st0" d="M431.2-14.4h27.9v-38.3h52.7v-26.8h-52.7v-21.8h64.7v-26.8
			h-92.5L431.2-14.4L431.2-14.4z"/>
		<path id="path3599" inkscape:connector-curvature="0" class="st0" d="M706-94.5c0-20.6-16.9-38.2-43.6-38.2
			c-20.2,0-35.8,7.8-48.2,28L639-92.9c5.4-9.6,13-14.5,22.3-14.5s16.2,6.1,16.2,12.4c0,4.3-1.9,8.3-7.7,12.8l-53,41.9v26.1h88.8
			v-26.5h-47.1l27.7-20.9C698-70.4,706-81.4,706-94.5"/>
		
			<linearGradient id="path3601_1_" gradientUnits="userSpaceOnUse" x1="837.0957" y1="333.269" x2="662.2858" y2="333.269" gradientTransform="matrix(0.7517 0 0 -0.7517 -2.6913 179.2829)">
			<stop  offset="0" style="stop-color:#FFFFFF"/>
			<stop  offset="1" style="stop-color:#000000"/>
		</linearGradient>
		<path id="path3601" inkscape:connector-curvature="0" class="st2" d="M561.6-173.3h71.7V30.8h-71.7V-173.3z"/>
		<path id="path3603" inkscape:connector-curvature="0" class="st3" d="M84.9-173.3h476.7V30.8H84.9L84.9-173.3L84.9-173.3z"/>
		<path id="path3605" inkscape:connector-curvature="0" class="st0" d="M244.2-71.2c0-33.3-27-59-60.7-59c-33.7,0-60.7,25.7-60.7,59
			c0,33.3,27,59,60.7,59C217.2-12.2,244.2-37.9,244.2-71.2 M215.4-71.2c0,17.9-15.4,32.2-31.9,32.2c-16.7,0-31.9-14.3-31.9-32.2
			c0-17.9,15.2-32.2,31.9-32.2C200-103.5,215.4-89.1,215.4-71.2"/>
		<path id="path3607" inkscape:connector-curvature="0" class="st0" d="M284.4-14.4h27.9v-33.1h20.8l21.9,33.1h34.8l-28.1-39.8
			c13.2-5.8,22.5-18.3,22.5-33.7c0-22.6-16.7-40.2-42-40.2h-57.8V-14.4z M340.6-74.3h-28.3v-27h28.3c12.1,0,15.8,6,15.8,13.4
			C356.3-80.3,352.7-74.3,340.6-74.3"/>
		<path id="path3609" inkscape:connector-curvature="0" class="st0" d="M431.2-14.4h27.9v-38.3h52.7v-26.8h-52.7v-21.8h64.7v-26.8
			h-92.5L431.2-14.4L431.2-14.4z"/>
		<path id="path3611" inkscape:connector-curvature="0" class="st3" d="M706-94.5c0-20.6-16.9-38.2-43.6-38.2
			c-20.2,0-35.8,7.8-48.2,28L639-92.9c5.4-9.6,13-14.5,22.3-14.5s16.2,6.1,16.2,12.4c0,4.3-1.9,8.3-7.7,12.8l-53,41.9v26.1h88.8
			v-26.5h-47.1l27.7-20.9C698-70.4,706-81.4,706-94.5"/>
	</g>
</g>
</svg>
