<?xml version="1.0" encoding="utf-8"?>
<!-- Generator: Adobe Illustrator 21.1.0, SVG Export Plug-In . SVG Version: 6.00 Build 0)  -->
<svg version="1.1" id="Art" xmlns="http://www.w3.org/2000/svg" xmlns:xlink="http://www.w3.org/1999/xlink" x="0px" y="0px"
	 viewBox="0 0 713.5 108.7" style="enable-background:new 0 0 713.5 108.7;" xml:space="preserve">
<style type="text/css">
	.st0{fill:#A1A2A2;}
	.st1{opacity:0.8;fill:#FFFFFF;}
	.st2{fill:url(#SVGID_1_);}
	.st3{fill:url(#SVGID_2_);}
	.st4{fill:#FFFFFF;}
	.st5{fill:#AE2C3F;}
	.st6{opacity:0.4;}
</style>
<g>
	<path class="st0" d="M16.2,107.7c-8.1,0-13.5-4.8-13.5-12.7V13.7C2.7,5.8,8.1,1,16.2,1h681.2c8.1,0,13.5,4.8,13.5,12.7v81.4
		c0,7.9-5.5,12.7-13.5,12.7H16.2z M697.9,108.7c12,0,15.6-7.4,15.6-14.9v-79c0-7.4-3.6-14.9-15.6-14.9L15.6,0C3.6,0,0,7.4,0,14.9
		l0,79c0,7.4,3.6,14.9,15.6,14.9H697.9z"/>
	
		<linearGradient id="SVGID_1_" gradientUnits="userSpaceOnUse" x1="-3739.1467" y1="2.2904" x2="-3739.1467" y2="106.3062" gradientTransform="matrix(-1 0 0 1 -3382.3735 0)">
		<stop  offset="0" style="stop-color:#868685"/>
		<stop  offset="2.044802e-02" style="stop-color:#D8D9D9"/>
		<stop  offset="5.240445e-02" style="stop-color:#F5F5F5"/>
		<stop  offset="0.4877" style="stop-color:#EDEEEE"/>
		<stop  offset="0.8955" style="stop-color:#F5F5F5"/>
		<stop  offset="0.9294" style="stop-color:#EBEBEC"/>
		<stop  offset="0.9643" style="stop-color:#D8D9D9"/>
		<stop  offset="1" style="stop-color:#868685"/>
	</linearGradient>
	<path class="st2" d="M15,105.5C6.9,105.5,4,100.7,4,92.8V15.9C4,7.9,6.9,3.2,15,3.2h683.6c8.1,0,10.9,4.8,10.9,12.7v76.9
		c0,7.9-2.9,12.7-10.9,12.7H15z"/>
	<g>
		<linearGradient id="SVGID_2_" gradientUnits="userSpaceOnUse" x1="378.4506" y1="105.5169" x2="378.4506" y2="3.2173">
			<stop  offset="0" style="stop-color:#820021"/>
			<stop  offset="0.1044" style="stop-color:#AE2C3F"/>
			<stop  offset="0.9017" style="stop-color:#AE2C3F"/>
			<stop  offset="1" style="stop-color:#BA3C4C"/>
		</linearGradient>
		<rect x="192.3" y="3.2" class="st3" width="372.3" height="102.3"/>
	</g>
	<g>
		<path class="st4" d="M242.8,86.7c-4.5,0-8.7-0.8-12.6-2.4c-3.8-1.6-7.2-3.9-10-6.8c-2.8-2.9-5-6.3-6.6-10.3
			c-1.6-4-2.4-8.3-2.4-12.9c0-4.5,0.8-8.7,2.4-12.6c1.6-3.9,3.8-7.3,6.6-10.2c2.8-2.9,6.1-5.1,10-6.8c3.8-1.6,8-2.4,12.6-2.4
			c3.3,0,6.4,0.4,9.5,1.1c3.1,0.7,5.9,1.6,8.5,2.7c0.6,8.5-1.5,12.8-6.2,12.8c-0.8,0-1.6-0.1-2.3-0.3c-0.7-0.2-1.5-0.4-2.3-0.6
			c-0.8-0.2-1.8-0.4-2.8-0.6c-1-0.2-2.2-0.3-3.6-0.3c-2.2,0-4.3,0.4-6.3,1.2c-2,0.8-3.7,2-5.1,3.5c-1.4,1.5-2.6,3.3-3.4,5.4
			c-0.8,2.1-1.2,4.5-1.2,7.1c0,2.8,0.4,5.2,1.2,7.4c0.8,2.2,2,4,3.4,5.5c1.4,1.5,3.1,2.7,5.1,3.5c2,0.8,4.1,1.2,6.3,1.2
			c1.4,0,2.6-0.1,3.7-0.3c1.1-0.2,2.1-0.4,2.9-0.6s1.7-0.4,2.4-0.6s1.6-0.3,2.4-0.3c4.7,0,6.7,4.3,6.2,12.8c-2.6,1.1-5.5,2-8.8,2.7
			C249.3,86.3,246.1,86.7,242.8,86.7z"/>
		<path class="st4" d="M275.9,85.9c-1.3,0-2.7-0.1-4-0.2c-1.3-0.1-2.4-0.3-3.3-0.5V29.6c0-1.9,0.6-3.4,1.7-4.8c1.1-1.3,3.3-2,6.5-2
			c1.3,0,2.7,0.1,4,0.2c1.3,0.1,2.4,0.3,3.3,0.5v55.6c0,1.9-0.6,3.4-1.7,4.8C281.2,85.3,279,85.9,275.9,85.9z"/>
		<path class="st4" d="M302.1,85.9c-1.3,0-2.5-0.1-3.7-0.2c-1.2-0.1-2.2-0.3-3.1-0.5V24.1c1-0.3,2.2-0.6,3.7-0.8
			c1.5-0.2,2.8-0.3,3.9-0.3c3.5,0,6.1,0.4,7.7,1.3c1.6,0.9,2.9,2.2,4,3.9l21.7,34.3V29.1c0-0.8,0.1-1.6,0.3-2.4
			c0.2-0.7,0.6-1.4,1.1-2c0.5-0.6,1.3-1,2.3-1.3c1-0.3,2.2-0.5,3.6-0.5c1.3,0,2.5,0.1,3.7,0.2c1.2,0.1,2.2,0.3,3,0.4v61.3
			c-0.9,0.4-2,0.8-3.3,0.9c-1.3,0.2-2.5,0.2-3.7,0.2c-3,0-5.2-0.4-6.7-1.2c-1.5-0.8-2.7-2-3.6-3.5L309.8,44v35.6
			c0,1.8-0.5,3.3-1.6,4.5C307.1,85.3,305.1,85.9,302.1,85.9z"/>
		<path class="st4" d="M370.1,85.5c-1.8,0-3.2-0.2-4.4-0.6c-1.1-0.4-2-0.9-2.6-1.6c-0.6-0.7-1-1.5-1.2-2.4c-0.2-1-0.3-2-0.3-3.1
			V30.8c0-1.1,0.1-2.1,0.3-3.1c0.2-1,0.6-1.8,1.2-2.4c0.6-0.7,1.5-1.2,2.6-1.6c1.1-0.4,2.6-0.6,4.4-0.6h31.7
			c0.1,0.7,0.3,1.7,0.4,2.9c0.1,1.2,0.2,2.5,0.2,3.7c0,2.7-0.5,4.6-1.6,5.7c-1.1,1.1-2.5,1.7-4.1,1.7h-19.5v11h22.5
			c0.1,0.6,0.3,1.5,0.4,2.5c0.1,1.1,0.2,2.2,0.2,3.4c0,2.6-0.5,4.3-1.5,5.2c-1,0.9-2.3,1.4-3.8,1.4h-17.7v10.9h25.7
			c0.1,0.7,0.3,1.7,0.4,2.9c0.1,1.3,0.2,2.5,0.2,3.7c0,2.8-0.5,4.7-1.6,5.8c-1.1,1.1-2.5,1.6-4.1,1.6H370.1z"/>
		<path class="st4" d="M416.2,85.9c-1.5,0-2.8-0.1-3.9-0.4c-1.1-0.3-2.1-0.6-2.9-1l5.9-59.8c1.2-0.5,2.8-0.9,4.8-1.2
			c2-0.3,3.7-0.5,5.1-0.5c2,0,3.7,0.1,5.1,0.4c1.4,0.3,2.7,0.7,3.7,1.3c1,0.6,1.8,1.5,2.4,2.5c0.6,1.1,1.1,2.4,1.4,4l2.5,11.6
			c0.7,3.2,1.5,6.7,2.3,10.6c0.8,3.9,1.5,7.9,2.2,12h0.4c0.7-4.1,1.4-8.1,2.2-11.9c0.8-3.8,1.6-7.4,2.4-10.6l3.1-12.2
			c0.8-3,2-5.1,3.7-6.1c1.7-1.1,4.3-1.6,7.9-1.6c1.8,0,3.6,0.1,5.4,0.4s3.3,0.6,4.5,0.9l5.6,60.2c-0.9,0.3-2,0.6-3.2,1
			c-1.2,0.3-2.6,0.5-4.1,0.5c-2,0-3.8-0.4-5.2-1.1c-1.4-0.7-2.2-2-2.3-3.9l-1.4-20.7c-0.3-3.7-0.6-7.5-0.8-11.5
			c-0.2-4-0.4-7.8-0.4-11.4h-0.2c-0.8,3.3-1.7,6.9-2.5,10.8c-0.9,3.9-1.7,7.4-2.6,10.7l-3.9,16.3c-1,3.8-4,5.8-9.1,5.8
			c-1.3,0-2.6-0.1-3.9-0.4c-1.3-0.3-2.5-0.5-3.4-0.9l-4.9-20.4c-1-3.8-1.9-7.5-2.7-11.1c-0.8-3.6-1.6-7.3-2.3-10.9h-0.3
			c-0.2,5.1-0.4,9.8-0.8,14.1c-0.3,4.3-0.6,7.9-0.9,11L423.3,81c-0.1,1.9-0.8,3.1-2.1,3.8C419.9,85.6,418.2,85.9,416.2,85.9z"/>
		<path class="st4" d="M491.6,86.1c-1.2,0-2.6-0.1-4.2-0.3c-1.6-0.2-2.9-0.5-3.9-0.9L503.5,24c1.7-0.4,3.5-0.8,5.2-1
			c1.8-0.2,3.4-0.3,4.9-0.3c2.1,0,3.9,0.2,5.4,0.5c1.5,0.3,2.8,0.8,3.8,1.4c1,0.6,1.9,1.5,2.5,2.5c0.7,1.1,1.2,2.3,1.7,3.7l17,53.9
			c-1.1,0.4-2.4,0.8-3.9,1c-1.5,0.2-3,0.3-4.5,0.3c-1.7,0-3.3-0.3-4.8-0.8c-1.6-0.5-2.7-1.8-3.4-3.7l-3.3-9.9h-20.9l-2.8,9.3
			c-0.7,2.2-1.9,3.7-3.5,4.2C495.2,85.8,493.5,86.1,491.6,86.1z M506.6,59.7h14.3l-7.1-23.5L506.6,59.7z"/>
	</g>
	<path class="st5" d="M125.3,97.7c1.2,0.6,3.7,1.4,6.8,1.4c5.3,0.1,8.2-1.9,10.4-6.7L171,28.7c-1.2-0.6-3.8-1.3-5.9-1.4
		c-3.7-0.1-8.6,0.7-11.8,8.2L144,57.3l-18.1-29.6c-1.2-0.4-4-0.9-6.1-0.9c-6.4,0-10,2.4-13.7,6.4L88.4,52.6l14.2,22.3
		c2.6,4.1,6.1,6.1,11.7,6.1c3.7,0,6.7-0.8,8.1-1.5l-17.1-25.8L117.5,41l19.9,31.2L125.3,97.7z M87.8,73.6c0,4.7-1.8,7.4-11,7.4
		c-1.2,0-2.3-0.1-3.3-0.2V18.4c0-4.7,1.6-9.7,10.9-9.7c1.2,0,2.3,0.1,3.4,0.3V73.6z M68.8,64.2c0,8.8-5.7,15.2-17.4,16.4
		c-8.4,0.9-20.6-0.2-26.4-0.8c-0.2-0.9-0.4-2.1-0.4-3c0-7.7,4.1-9.4,8-9.4c4,0,10.4,0.7,15.1,0.7c5.2,0,6.8-1.8,6.8-3.4
		c0-2.2-2.1-3.1-6.1-3.9l-11-2.1c-9.2-1.8-14.1-8.1-14.1-14.8c0-8.2,5.8-15.1,17.2-16.3c8.6-0.9,19.1,0.1,24.9,0.8
		c0.2,1,0.3,1.9,0.3,3c0,7.6-4,9.3-7.9,9.3c-3,0-7.6-0.6-12.9-0.6c-5.4,0-7.6,1.5-7.6,3.3c0,1.9,2.1,2.7,5.5,3.3l10.5,2
		C64.2,50.4,68.8,56.6,68.8,64.2z"/>
	<g>
		<path class="st5" d="M609.5,80.4c-1.1,0-2.1,0-3.1-0.1c-1-0.1-1.9-0.2-2.6-0.3l0-18.9l-17.5,0c-0.1-0.6-0.3-1.4-0.4-2.3
			c-0.1-0.9-0.2-1.9-0.2-3c0-2.5,0.5-4.2,1.5-5.1c1-1,2.3-1.5,3.8-1.5l12.8,0l0-13.5c0-1.5,0.4-2.7,1.3-3.7c0.9-1,2.6-1.5,5-1.5
			c1.1,0,2.1,0,3.1,0.1c1,0.1,1.9,0.2,2.6,0.3l0,18.2l17.7,0c0.1,0.6,0.3,1.4,0.4,2.3c0.1,0.9,0.2,1.9,0.2,3c0,2.5-0.5,4.2-1.5,5.1
			c-1,1-2.3,1.5-3.8,1.5l-13,0l0,14.1c0,1.5-0.4,2.7-1.3,3.7C613.7,79.9,612,80.4,609.5,80.4z"/>
		<path class="st5" d="M661.7,87.3c-1.4,0-2.8-0.1-4.2-0.2c-1.4-0.1-2.5-0.3-3.5-0.5l-0.1-47.3l-11,5c-0.5-0.7-1.1-1.4-1.7-2.2
			c-0.6-0.8-1.1-1.8-1.6-3c-0.5-1.2-0.7-2.4-0.7-3.6c0-1.6,0.4-3,1.3-4.1c0.9-1.1,2.1-2.1,3.6-2.8l14.7-7l11.8,0l0.1,58.7
			c0,1.9-0.6,3.6-1.8,5C667.3,86.6,665,87.3,661.7,87.3z"/>
	</g>
	<g class="st6">
		<g>
			<path class="st4" d="M699.7,81.5c6.9,6.9,7.9,13.3,8.1,14.8c0.7,0,0.9-3,0.9-7.6l0-72.6c0-8.4-2.7-11.3-9.9-11.3
				c-2.4,0-4.8,1.3-8,1.3H22.7c-3.2,0-5.6-1.3-8-1.3c-7.1,0-9.9,2.8-9.9,11.3l0,72.6c0,4.5,0.3,7.6,0.9,7.6
				c0.2-1.4,0.5-8.4,8.1-14.8C75.1,34.3,633.6,19.8,699.7,81.5z"/>
		</g>
	</g>
</g>
</svg>
