<?xml version="1.0" encoding="utf-8"?>
<!-- Generator: Adobe Illustrator 21.1.0, SVG Export Plug-In . SVG Version: 6.00 Build 0)  -->
<svg version="1.1"
	 id="svg6746" xmlns:cc="http://creativecommons.org/ns#" xmlns:dc="http://purl.org/dc/elements/1.1/" xmlns:rdf="http://www.w3.org/1999/02/22-rdf-syntax-ns#" xmlns:svg="http://www.w3.org/2000/svg"
	 xmlns="http://www.w3.org/2000/svg" xmlns:xlink="http://www.w3.org/1999/xlink" x="0px" y="0px" viewBox="0 0 487.5 91.9"
	 style="enable-background:new 0 0 487.5 91.9;" xml:space="preserve">
<style type="text/css">
	.st0{fill:#0082E6;}
	.st1{fill:#232323;}
</style>
<g id="layer1" transform="translate(-82.249009,-83.642204)">
	<g id="g6776" transform="matrix(3.2317023,0,0,3.2317023,-183.55528,-258.9884)">
		<path id="path6396" class="st0" d="M211.1,124.6c0,2.8-2.3,5.2-5.2,5.2c-2.8,0-5.2-2.3-5.2-5.2c0-2.8,2.3-5.2,5.2-5.2
			C208.7,119.5,211.1,121.8,211.1,124.6"/>
		<path id="path6400" class="st1" d="M226.8,116l4.9-6.1v-3.1h-16.5v4.7h8.9l-4.9,5.8v3.4c1-0.5,2.2-0.8,3.3-0.8c3,0,5.4,2.1,5.4,5
			c0,2.9-2.5,4.9-5.1,4.9c-2.1,0-3.9-1.1-5.1-2.7l-3.8,3.2c2.4,2.7,5.6,4.2,9,4.2c5.6,0,10.2-3.9,10.2-9.6
			C233.1,120.7,230.5,117.4,226.8,116"/>
		<path id="path6404" class="st1" d="M136.4,134.1v-18.9h4.9v1.5c1.4-1.2,3.2-1.9,5.3-1.9c2.6,0,5,1.2,6.5,3
			c1.2,1.5,1.9,3.4,1.9,6.6v9.6H150v-10c0-1.9-0.4-2.8-1.1-3.5c-0.7-0.7-1.7-1.1-2.8-1.1c-2.1,0-3.9,1.4-4.6,2.3v12.3H136.4z"/>
		<path id="path6408" class="st1" d="M190.8,122.2c-0.2-1.7-1.7-3.3-3.7-3.3c-2.1,0-3.8,1.6-4,3.3H190.8z M195.5,131.1
			c-1.8,2.2-4.8,3.4-7.7,3.4c-5.6,0-9.9-3.9-9.9-9.8c0-5.3,3.6-9.9,9.2-9.9c5.2,0,8.9,4.4,8.9,9.7c0,0.5,0,1-0.1,1.4h-13.1
			c0.3,2.6,2.4,4.5,5.1,4.5c2.1,0,3.9-1.2,4.8-2.2L195.5,131.1z"/>
		<path id="path6412" class="st1" d="M127.2,121.8c-1.1-1.4-2.7-2.3-4.7-2.3c-3,0-4.9,2.5-4.9,5.2c0,3,2.1,5.1,5,5.1
			c1.9,0,3.6-0.9,4.6-2.3V121.8z M132.3,134.1h-4.9v-1.5c-1.6,1.3-3.3,1.9-5.3,1.9c-2.8,0-5.5-1.2-7.1-3.2c-1.5-1.7-2.4-4-2.4-6.6
			c0-5.6,4.1-9.9,9.3-9.9c2.1,0,4,0.7,5.5,1.9v-1.5h4.9V134.1z"/>
		<path id="path6416" class="st1" d="M176.7,130.2c-2.2,3-5,4.2-8.6,4.2c-5.8,0-10.1-4.4-10.1-9.8c0-5.5,4.4-9.9,10.2-9.9
			c3.3,0,6.2,1.5,7.9,3.8l-3.6,3.2c-1-1.3-2.5-2.3-4.4-2.3c-2.9,0-5.1,2.3-5.1,5.2c0,3,2.1,5.1,5.2,5.1c2.1,0,3.7-1.2,4.5-2.5
			L176.7,130.2z"/>
		<path id="path6420" class="st1" d="M111.8,119.7c-0.4-0.1-1.1-0.2-1.8-0.2c-2.2,0-4,1.6-4.6,2.7v11.9h-5.1v-18.9h4.9v1.9
			c1.1-1.4,3.2-2.3,5.5-2.3c0.7,0,1.2,0.1,1.7,0.2L111.8,119.7z"/>
		<path id="path6424" class="st1" d="M97.2,110.7c-0.4-0.1-1.1-0.2-1.5-0.2c-1.2,0-2.2,0.4-2.8,1.1c-0.4,0.5-0.7,1.2-0.7,3v0.6H98
			v4.3h-5.8v14.6h-5.1v-14.6h-4.9v-4.3h4.9v-0.8c0-3,0.7-4.9,2-6.2c1.3-1.3,3.3-2.2,5.9-2.2c1,0,1.9,0.1,3,0.4L97.2,110.7z"/>
	</g>
</g>
</svg>
