<?xml version="1.0" encoding="utf-8"?>
<!-- Generator: Adobe Illustrator 21.1.0, SVG Export Plug-In . SVG Version: 6.00 Build 0)  -->
<svg version="1.1"
	 id="svg2" inkscape:output_extension="org.inkscape.output.svg.inkscape" inkscape:version="0.91 r13725" sodipodi:docname="TV-2.svg" sodipodi:version="0.32" xmlns:cc="http://creativecommons.org/ns#" xmlns:dc="http://purl.org/dc/elements/1.1/" xmlns:inkscape="http://www.inkscape.org/namespaces/inkscape" xmlns:rdf="http://www.w3.org/1999/02/22-rdf-syntax-ns#" xmlns:sodipodi="http://sodipodi.sourceforge.net/DTD/sodipodi-0.dtd" xmlns:svg="http://www.w3.org/2000/svg"
	 xmlns="http://www.w3.org/2000/svg" xmlns:xlink="http://www.w3.org/1999/xlink" x="0px" y="0px" viewBox="0 0 512 217.2"
	 style="enable-background:new 0 0 512 217.2;" xml:space="preserve">
<style type="text/css">
	.st0{fill:#00455E;}
	.st1{fill:#FFFFFF;}
</style>
<sodipodi:namedview  bordercolor="#666666" borderopacity="1.0" gridtolerance="10000" guidetolerance="10" id="base" inkscape:current-layer="layer1" inkscape:cx="15.558754" inkscape:cy="46.97738" inkscape:document-units="px" inkscape:pageopacity="0.0" inkscape:pageshadow="2" inkscape:window-height="723" inkscape:window-maximized="0" inkscape:window-width="1446" inkscape:window-x="23" inkscape:window-y="19" inkscape:zoom="1" objecttolerance="10" pagecolor="#ffffff" showgrid="false">
	</sodipodi:namedview>
<g id="layer1" transform="translate(-14.7162,-745.53)" inkscape:groupmode="layer" inkscape:label="Layer 1">
	<path id="path7751" inkscape:connector-curvature="0" class="st0" d="M14.7,962.7h512V745.5h-512L14.7,962.7L14.7,962.7z"/>
	<g id="g7753" transform="matrix(15.482314,0,0,-15.482314,253.37645,960.1966)">
		<path id="path7755" inkscape:connector-curvature="0" class="st1" d="M0,2.2h8.1c0.2,0,0.4,0.1,0.6,0.3l1.3,1.9l-8,0
			c-0.2,0-0.5-0.1-0.6-0.3L0,2.2"/>
	</g>
	<g id="g7757" transform="matrix(15.482314,0,0,-15.482314,257.47874,812.95468)">
		<path id="path7759" inkscape:connector-curvature="0" class="st1" d="M0,2.2l-8.4,0c-0.2,0-0.5-0.1-0.6-0.3L-10.4,0h8.4
			c0.2,0,0.4,0.1,0.6,0.3L0,2.2"/>
	</g>
	<g id="g7761" transform="matrix(15.482314,0,0,-15.482314,367.7442,904.1857)">
		<path id="path7763" inkscape:connector-curvature="0" class="st1" d="M0,2.2c1.6,0,3.4,1.3,3.7,3c0.3,1.6-1,2.9-2.6,3l-6.1,0
			c-0.2,0-0.5-0.1-0.6-0.3l-1.3-1.9c0.1,0,7.6,0,7.6,0c0.4,0,0.5-0.3,0.5-0.7C1.1,4.8,0.7,4.5,0.4,4.5l-3.3,0
			c-0.2,0-0.5-0.1-0.6-0.4l-1.3-1.9L0,2.2"/>
	</g>
	<g id="g7765" transform="matrix(15.482314,0,0,-15.482314,289.12413,869.1207)">
		<path id="path7767" inkscape:connector-curvature="0" class="st1" d="M0,2.2l-2.4,0c-0.3,0-0.5-0.1-0.6-0.3L-6.3-3l0.6,5.3h-2.5
			l-0.6-5.1c0-0.1,0-0.2,0-0.2c0,0,0,0,0,0c0-0.2,0.1-0.4,0.3-0.5c0.1,0,0.1-0.1,0.2-0.1c0.1,0,0.1,0,0.2,0h3.8
			c0.3,0,0.5,0.1,0.6,0.3L0,2.2"/>
	</g>
</g>
</svg>
