<?xml version="1.0" encoding="utf-8"?>
<!-- Generator: Adobe Illustrator 21.1.0, SVG Export Plug-In . SVG Version: 6.00 Build 0)  -->
<svg version="1.1"
	 id="svg1883" inkscape:version="0.91 r13725" sodipodi:docname="Axn_logo.svg" xmlns:cc="http://creativecommons.org/ns#" xmlns:dc="http://purl.org/dc/elements/1.1/" xmlns:inkscape="http://www.inkscape.org/namespaces/inkscape" xmlns:rdf="http://www.w3.org/1999/02/22-rdf-syntax-ns#" xmlns:sodipodi="http://sodipodi.sourceforge.net/DTD/sodipodi-0.dtd" xmlns:svg="http://www.w3.org/2000/svg"
	 xmlns="http://www.w3.org/2000/svg" xmlns:xlink="http://www.w3.org/1999/xlink" x="0px" y="0px" viewBox="0 0 512 119.2"
	 style="enable-background:new 0 0 512 119.2;" xml:space="preserve">
<style type="text/css">
	.st0{fill:#FFFFFF;}
	.st1{fill:#EC1B2C;}
	.st2{fill:none;stroke:#FFFFFF;stroke-width:4.6954;}
</style>
<g>
	
		<sodipodi:namedview  bordercolor="#666666" borderopacity="1" gridtolerance="10" guidetolerance="10" id="namedview9008" inkscape:current-layer="svg1883" inkscape:cx="8.4416948" inkscape:cy="64.700867" inkscape:pageopacity="0" inkscape:pageshadow="2" inkscape:window-height="809" inkscape:window-maximized="0" inkscape:window-width="1190" inkscape:window-x="0" inkscape:window-y="0" inkscape:zoom="0.65152794" objecttolerance="10" pagecolor="#ffffff" showgrid="false">
		</sodipodi:namedview>
	<g id="layer1" transform="matrix(0.92149805,0,0,0.92149805,585.43764,-321.19561)">
		<g id="g6000">
			<path id="path5860" inkscape:connector-curvature="0" class="st0" d="M-112.7,357.8c0,8.4,0,102.6,0,110.7
				c-9.2,0-504.2,0-513.4,0c0-8.1,0-102.3,0-110.7C-616.9,357.8-121.9,357.8-112.7,357.8L-112.7,357.8z M-107.9,348.6h-527.4V478
				h531.9V348.6L-107.9,348.6"/>
			<path id="path5870" inkscape:connector-curvature="0" class="st1" d="M-370.4,389.4l36.3-36.1l-296.5-0.3v120.2h157.1l81.1-66.5"
				/>
			<path id="path5872" inkscape:connector-curvature="0" class="st1" d="M-134.8,450l-99.5-50.6v47.5h-25.4v-80.5l100.3,52.8v-47.5
				h24.6L-134.8,450L-134.8,450z M-370.4,424.9l-50.9,48.4h313.3V353.3h-175.8l-66,53.4"/>
			<path id="path5874" inkscape:connector-curvature="0" class="st0" d="M-395,365h-42.8l45.3,41.6l-73.8,63.7l46.7,1.1l49.2-46.7
				l23.2,22.1h42.8l-45.3-40.2l59-50.9h-42.5l-37.2,33.5L-395,365"/>
			<path id="path5882" inkscape:connector-curvature="0" class="st2" d="M-395,365h-42.8l45.3,41.6l-73.8,63.7l46.7,1.1l49.2-46.7
				l23.2,22.1h42.8l-45.3-40.2l59-50.9h-42.5l-37.2,33.5L-395,365L-395,365z"/>
			<path id="path5884" inkscape:connector-curvature="0" class="st0" d="M-259.7,366.4v80.5h25.4v-47.5l99.5,50.6v-78.3h-24.6v47.5
				L-259.7,366.4"/>
			<path id="path5886" inkscape:connector-curvature="0" class="st2" d="M-259.7,366.4v80.5h25.4v-47.5l99.5,50.6v-78.3h-24.6v47.5
				L-259.7,366.4L-259.7,366.4z"/>
			<path id="path5888" inkscape:connector-curvature="0" class="st0" d="M-535.8,365l-71.5,81.6h25.2l15.4-16.2h62.3l13.4,16.5h24.9
				L-535.8,365"/>
			<path id="path5890" inkscape:connector-curvature="0" class="st2" d="M-535.8,365l-71.5,81.6h25.2l15.4-16.2h62.3l13.4,16.5h24.9
				L-535.8,365z"/>
			<path id="path5898" inkscape:connector-curvature="0" class="st1" d="M-536.1,391l-21.8,24.3h43L-536.1,391"/>
			<path id="path5900" inkscape:connector-curvature="0" d="M-79.7,464.3v8.7h-1.1v-7.5c0,0.3,0,0.3,0,0.3l0,0l-0.3,0.3l-2.8,7H-85
				l-3.1-7l0,0l-0.3-0.3l0,0v7.3h-1.1v-8.7h2l2.2,5.6l0.6,0.8v0.6v0.3c0.3-0.3,0.3-0.3,0.3-0.3l0.3-0.6l0.3-0.8l2.2-5.6H-79.7z
				 M-93.1,465.4v7.5h-1.1v-7.5H-97v-1.1h6.7v1.1H-93.1"/>
		</g>
	</g>
</g>
</svg>
