<?xml version="1.0" encoding="utf-8"?>
<!-- Generator: Adobe Illustrator 21.1.0, SVG Export Plug-In . SVG Version: 6.00 Build 0)  -->
<svg version="1.1"
	 id="svg21005" inkscape:version="0.91 r13725" sodipodi:docname="Logo_Classica_2014.svg" xmlns:cc="http://creativecommons.org/ns#" xmlns:dc="http://purl.org/dc/elements/1.1/" xmlns:inkscape="http://www.inkscape.org/namespaces/inkscape" xmlns:rdf="http://www.w3.org/1999/02/22-rdf-syntax-ns#" xmlns:sodipodi="http://sodipodi.sourceforge.net/DTD/sodipodi-0.dtd" xmlns:svg="http://www.w3.org/2000/svg"
	 xmlns="http://www.w3.org/2000/svg" xmlns:xlink="http://www.w3.org/1999/xlink" x="0px" y="0px" viewBox="0 0 512 83"
	 style="enable-background:new 0 0 512 83;" xml:space="preserve">
<style type="text/css">
	.st0{fill:#00ADEF;}
</style>
<sodipodi:namedview  bordercolor="#666666" borderopacity="1" gridtolerance="10" guidetolerance="10" id="namedview24" inkscape:current-layer="svg21005" inkscape:cx="266.74805" inkscape:cy="44.0965" inkscape:pageopacity="0" inkscape:pageshadow="2" inkscape:window-height="691" inkscape:window-maximized="0" inkscape:window-width="1161" inkscape:window-x="0" inkscape:window-y="0" inkscape:zoom="0.5" objecttolerance="10" pagecolor="#ffffff" showgrid="false">
	</sodipodi:namedview>
<g id="layer1" transform="matrix(0.96331851,0,0,0.96331851,-185.17798,-254.91185)">
	<g id="g2999" transform="matrix(9.1405188,0,0,-9.1405188,328.64465,436.15625)">
		<path id="path3001" inkscape:connector-curvature="0" class="st0" d="M0,11.7L0,11.7L0,11.7L0,11.7"/>
	</g>
	<g id="g3003" transform="matrix(9.1405188,0,0,-9.1405188,363.46089,371.63333)">
		<path id="path3005" inkscape:connector-curvature="0" class="st0" d="M0,11.7h-0.5l-3-6.4l0.3-0.7l2.9,6.1l3.9-8.5h0.6L0,11.7"/>
	</g>
	<g id="g3007" transform="matrix(9.1405188,0,0,-9.1405188,426.96007,381.9804)">
		<path id="path3009" inkscape:connector-curvature="0" class="st0" d="M0,11.7c0.4,0.3,0.9,0.5,1.5,0.5h0c0.6,0,1.2-0.2,1.8-0.6
			l0,0l-0.4,0.9c-0.4,0.2-0.9,0.3-1.4,0.3h0c-1.6,0-2.7-1-2.7-2.5c0-1.3,1.2-1.9,2.3-2.4c1-0.5,2-1,2-2.1c0-0.5-0.2-1-0.5-1.3
			C2.2,4.2,1.7,4,1,4h0C0,4-0.9,4.4-1.4,4.8l-0.1,0l0,0l0.4-1c0.6-0.3,1.3-0.5,2-0.5h0c0.8,0,1.6,0.3,2.1,0.8C3.6,4.7,3.8,5.3,3.8,6
			c0,1.3-1.2,1.9-2.3,2.5c-1,0.5-2,1-2,2C-0.5,10.9-0.3,11.4,0,11.7"/>
	</g>
	<g id="g3011" transform="matrix(9.1405188,0,0,-9.1405188,234.18653,452.29841)">
		<path id="path3013" inkscape:connector-curvature="0" class="st0" d="M0,11.7c-2.1,0.1-3.9,1.8-4,3.9C-4.1,18-2.2,19.9,0.1,20
			c1.4,0,2.7-0.7,3.4-1.8l0.3,0.6c-0.9,1.1-2.3,1.8-3.8,1.8c-2.5-0.1-4.6-2.1-4.6-4.7c0-2.6,2.1-4.8,4.7-4.8c1.3,0,2.5,0.6,3.4,1.4
			v0.9C2.7,12.4,1.5,11.7,0,11.7"/>
	</g>
	<g id="g3015" transform="matrix(9.1405188,0,0,-9.1405188,343.89104,457.70046)">
		<path id="path3017" inkscape:connector-curvature="0" class="st0" d="M0,11.7l-0.3,0.6h-5.2v8.5l-0.6,0.3l0-9.4H0"/>
	</g>
	<g id="g3019" transform="matrix(9.1405188,0,0,-9.1405188,549.06826,457.70046)">
		<path id="path3021" inkscape:connector-curvature="0" class="st0" d="M0,11.7h0.6v9.1L0,21.1V11.7"/>
	</g>
	<g id="g3023" transform="matrix(9.1405188,0,0,-9.1405188,490.01137,381.9804)">
		<path id="path3025" inkscape:connector-curvature="0" class="st0" d="M0,11.7c0.4,0.3,0.9,0.5,1.5,0.5h0c0.6,0,1.2-0.2,1.8-0.6
			l0,0l-0.4,0.9c-0.4,0.2-0.9,0.3-1.4,0.3h0c-1.6,0-2.7-1-2.7-2.5c0-1.3,1.2-1.9,2.3-2.4c1-0.5,2-1,2-2.1c0-0.5-0.2-1-0.5-1.3
			C2.2,4.2,1.7,4,1,4h0C0,4-0.9,4.4-1.4,4.8l-0.1,0l0,0l0.4-1c0.6-0.3,1.3-0.5,2-0.5h0c0.8,0,1.6,0.3,2.1,0.8C3.6,4.7,3.8,5.3,3.8,6
			c0,1.3-1.2,1.9-2.3,2.5c-1,0.5-2,1-2,2C-0.5,10.9-0.3,11.4,0,11.7"/>
	</g>
	<g id="g3027" transform="matrix(9.1405188,0,0,-9.1405188,717.93021,457.70046)">
		<path id="path3029" inkscape:connector-curvature="0" class="st0" d="M0,11.7h0.6l-4.3,9.4h-0.5l-2.2-4.7l0.3-0.7l2.1,4.5L0,11.7"
			/>
	</g>
	<g id="g3031" transform="matrix(9.1405188,0,0,-9.1405188,618.98409,452.43552)">
		<path id="path3033" inkscape:connector-curvature="0" class="st0" d="M0,11.7c-2.3,0-4.1,1.8-4.2,4.1c0,2.3,1.8,4.1,4.1,4.2
			c1.4,0,2.7-0.7,3.4-1.8l0.3,0.6c-0.9,1.1-2.2,1.8-3.7,1.8c-2.6,0-4.7-2.1-4.7-4.7c0-2.6,2.1-4.7,4.7-4.7c1.5,0,2.8,0.7,3.6,1.8
			l-0.3,0.6C2.6,12.4,1.4,11.7,0,11.7"/>
	</g>
</g>
</svg>
