<?xml version="1.0" encoding="utf-8"?>
<!-- Generator: Adobe Illustrator 21.1.0, SVG Export Plug-In . SVG Version: 6.00 Build 0)  -->
<svg version="1.1"
	 id="svg2" inkscape:version="0.91 r13725" sodipodi:docname="WDR_Fernsehen_2013.svg" xmlns:cc="http://creativecommons.org/ns#" xmlns:dc="http://purl.org/dc/elements/1.1/" xmlns:inkscape="http://www.inkscape.org/namespaces/inkscape" xmlns:rdf="http://www.w3.org/1999/02/22-rdf-syntax-ns#" xmlns:sodipodi="http://sodipodi.sourceforge.net/DTD/sodipodi-0.dtd" xmlns:svg="http://www.w3.org/2000/svg"
	 xmlns="http://www.w3.org/2000/svg" xmlns:xlink="http://www.w3.org/1999/xlink" x="0px" y="0px" viewBox="0 0 512 201"
	 style="enable-background:new 0 0 512 201;" xml:space="preserve">
<style type="text/css">
	.st0{fill:#D40055;}
	.st1{fill:#034B7A;}
</style>
<sodipodi:namedview  bordercolor="#666666" borderopacity="1" gridtolerance="10" guidetolerance="10" id="namedview8" inkscape:current-layer="svg2" inkscape:cx="200.21483" inkscape:cy="78.59153" inkscape:pageopacity="0" inkscape:pageshadow="2" inkscape:window-height="703" inkscape:window-maximized="0" inkscape:window-width="1328" inkscape:window-x="0" inkscape:window-y="0" inkscape:zoom="0.90402894" objecttolerance="10" pagecolor="#ffffff" showgrid="false" showguides="false">
	</sodipodi:namedview>
<g id="layer1" transform="matrix(1.2786266,0,0,1.2786266,66.144585,-181.7413)">
	<polygon id="rect3112" class="st0" points="268.6,142.1 348.7,142.1 305.1,299.3 224.9,299.3 	"/>
	<path id="path3491" inkscape:connector-curvature="0" class="st1" d="M149.6,263.2h24.1v-30.8h1.8c2.7,0,9.7-0.2,13.4,5.9
		l14.8,24.9h25.9l-13.5-22.6c-4.5-7.6-8.1-11.7-11-13.7v-0.3c8.1-2.9,17-9.8,17-24c0-17.5-12.6-26.6-34.8-26.6h-37.8v30.3h-0.2
		c-4.6-18.3-20-30.3-48.1-30.3H48l-8.1,35.6c-1.7,7.3-3.1,16.6-3.1,16.6h-0.3c0,0-1.8-10.3-3.5-17.7L26,176H-3.3l-6.9,34.6
		c-1.7,7.3-3.5,17.7-3.5,17.7H-14c0,0-1.4-9.3-3.1-16.6l-8.1-35.6h-26.4l23.3,87.2h26.6l13.2-55.9h0.1h0.1l13.2,55.9h26.2l19.4-72.4
		h0.3v6.8v65.6h29.7c28.5,0,44.3-13.1,48.9-31.8h0.2L149.6,263.2L149.6,263.2z M102.4,243.4h-7.3v-47.7h6.7c16,0,23.2,7.1,23.2,23.3
		C124.9,235,117.7,243.4,102.4,243.4 M186.8,214h-13.2v-19.5H186c8.3,0,11.7,3.3,11.7,9.8C197.7,210.3,194.2,214,186.8,214"/>
</g>
</svg>
