<?xml version="1.0" encoding="UTF-8" standalone="no"?>
<svg
   xmlns:dc="http://purl.org/dc/elements/1.1/"
   xmlns:cc="http://creativecommons.org/ns#"
   xmlns:rdf="http://www.w3.org/1999/02/22-rdf-syntax-ns#"
   xmlns:svg="http://www.w3.org/2000/svg"
   xmlns="http://www.w3.org/2000/svg"
   viewBox="0 0 425.95999 425.95999"
   height="425.95999"
   width="425.95999"
   xml:space="preserve"
   id="svg2"
   version="1.1"><metadata
     id="metadata8"><rdf:RDF><cc:Work
         rdf:about=""><dc:format>image/svg+xml</dc:format><dc:type
           rdf:resource="http://purl.org/dc/dcmitype/StillImage" /></cc:Work></rdf:RDF></metadata><defs
     id="defs6" /><g
     transform="matrix(1.3333333,0,0,-1.3333333,0,425.96)"
     id="g10"><g
       transform="scale(0.1)"
       id="g12"><path
         id="path14"
         style="fill:#baa880;fill-opacity:1;fill-rule:nonzero;stroke:none"
         d="M 3194.71,1597.36 C 3194.71,715.16 2479.55,0 1597.35,0 715.16,0 0,715.16 0,1597.36 c 0,882.19 715.16,1597.35 1597.35,1597.35 882.2,0 1597.36,-715.16 1597.36,-1597.35" /><path
         id="path16"
         style="fill:#ffffff;fill-opacity:1;fill-rule:nonzero;stroke:none"
         d="m 1543.21,1547.06 v 100.49 h -50.28 v -28.71 h 18.7 v -71.78 z m 352.91,425.25 h -100.49 v -749.43 h 525.53 v 100.49 h -425.04 z m -540.25,10.74 c -195.99,0 -357.718,-146.23 -382.331,-335.51 h 101.721 c 23.72,133.51 140.29,234.92 280.61,234.92 140.33,0 256.88,-101.41 280.6,-234.92 h 101.73 c -24.61,189.28 -186.34,335.51 -382.33,335.51 z M 630.867,1647.54 v -100.49 h 181.969 c -23.773,-133.45 -140.309,-234.8 -280.586,-234.8 -157.457,0 -285.102,127.65 -285.102,285.11 0,157.45 127.645,285.1 285.102,285.1 102.113,0 191.605,-53.74 241.93,-134.43 h 113.203 c -58.684,138.13 -195.586,235.02 -355.133,235.02 -213.012,0 -385.687,-172.69 -385.687,-385.69 0,-213.02 172.675,-385.69 385.687,-385.69 213.008,0 385.688,172.67 385.688,385.69 0,17.01 -1.219,33.74 -3.36,50.18 z M 2947.54,1597.6 c 0,151.14 -122.96,274.11 -274.11,274.11 l -190.45,0.04 v -548.38 h 190.45 v 0.11 c 151.15,0 274.11,122.97 274.11,274.12 z m 100.6,0 c 0,-204.31 -163.51,-370.42 -366.82,-374.62 v -0.1 h -298.83 v 749.43 h 290.94 v 0 c 206.95,0 374.71,-167.76 374.71,-374.71 z m -1710.82,-11.78 -9.91,28 -9.91,-28 z m 7.46,61.73 40.77,-99.05 v -1.44 h -34.45 l -4.6,12.92 h -38.18 l -4.6,-12.92 h -34.45 v 1.44 l 40.77,99.05 z m -124.21,-75.51 c -14.07,0 -26.14,3.45 -36.9,12.06 l -12.78,-26.12 c 13.49,-8.62 28.57,-13.22 47.23,-13.22 28.57,0 48.53,11.21 48.53,34.31 0,23.69 -20.39,28.43 -42.07,31.73 -16.36,2.44 -19.52,3.59 -19.52,6.46 0,3.16 2.44,5.89 13.21,5.89 8.61,0 17.22,-1.73 19.95,-9.19 l 24.98,12.49 c -5.89,13.21 -20.67,23.4 -44.65,23.4 -26.27,0 -45.07,-12.92 -45.07,-35.6 0,-23.69 19.81,-27 41.91,-30.58 16.37,-2.59 19.67,-3.45 19.67,-6.46 0,-4.16 -5.31,-5.17 -14.49,-5.17 z m 135.3,-259.79 c -140.28,0 -256.81,101.35 -280.59,234.8 H 973.555 c 24.668,-189.22 186.375,-335.38 382.315,-335.38 195.95,0 357.64,146.16 382.31,335.38 h -101.73 c -23.77,-133.45 -140.3,-234.8 -280.58,-234.8 z m 18.17,306.59 h 30.14 v -71.78 h 31.58 v 71.78 h 30.15 v 28.71 h -91.87 z m 100.29,-39.62 c 10.04,0 17.65,-7.61 17.65,-17.23 0,-9.62 -7.61,-17.23 -17.65,-17.23 -10.05,0 -17.67,7.61 -17.67,17.23 0,9.62 7.62,17.23 17.67,17.23" /></g></g></svg>