<?xml version="1.0" encoding="utf-8"?>
<!-- Generator: Adobe Illustrator 21.1.0, SVG Export Plug-In . SVG Version: 6.00 Build 0)  -->
<svg version="1.1"
	 id="svg2" inkscape:version="0.91 r13725" sodipodi:docname="ZDFneo.svg" xmlns:cc="http://creativecommons.org/ns#" xmlns:dc="http://purl.org/dc/elements/1.1/" xmlns:inkscape="http://www.inkscape.org/namespaces/inkscape" xmlns:rdf="http://www.w3.org/1999/02/22-rdf-syntax-ns#" xmlns:sodipodi="http://sodipodi.sourceforge.net/DTD/sodipodi-0.dtd" xmlns:svg="http://www.w3.org/2000/svg"
	 xmlns="http://www.w3.org/2000/svg" xmlns:xlink="http://www.w3.org/1999/xlink" x="0px" y="0px" viewBox="0 0 512 136.5"
	 style="enable-background:new 0 0 512 136.5;" xml:space="preserve">
<style type="text/css">
	.st0{fill:#FA7D19;}
</style>
<sodipodi:namedview  bordercolor="#666666" borderopacity="1" gridtolerance="10" guidetolerance="10" id="namedview18" inkscape:current-layer="svg2" inkscape:cx="400.01635" inkscape:cy="-48.654397" inkscape:pageopacity="0" inkscape:pageshadow="2" inkscape:window-height="852" inkscape:window-maximized="0" inkscape:window-width="1489" inkscape:window-x="0" inkscape:window-y="0" inkscape:zoom="0.65247333" objecttolerance="10" pagecolor="#ffffff" showgrid="false">
	</sodipodi:namedview>
<g id="g3192" transform="matrix(0.9228352,0,0,0.9228352,-6.6185741e-7,75.50164)">
	<path id="path2492" inkscape:connector-curvature="0" class="st0" d="M219.9,56.5h66.2v9.6h-66.2V56.5z"/>
	<g id="g2494" transform="matrix(3.0481156,0,0,-3.0481156,0.192032,42.6657)">
		<path id="path2496" inkscape:connector-curvature="0" class="st0" d="M0,26.8h23.5v-7L10.6,2.7h13.3v-7h-24v7l12.8,17.1H0V26.8z"
			/>
	</g>
	<g id="g2506" transform="matrix(3.0481156,0,0,-3.0481156,77.718716,75.7914)">
		<path id="path2508" inkscape:connector-curvature="0" class="st0" d="M0,26.8c0,7.4,3.2,11.5,10.5,11.5c2.6,0,5.8-0.4,7.9-0.9v13
			l9.2,1.3V6.6h-7.2l-1,2.5c-2.2-1.4-6.2-3.1-9.6-3.1C3.5,5.9,0,9.8,0,17.4V26.8z M18.4,29.6c-1.6,0.4-4,0.8-5.9,0.8
			c-2.4,0-3.3-1.5-3.3-3.5v-9.4c0-2.2,0.9-3.5,3.3-3.5c2.1,0,4.5,1.3,5.9,2.4C18.4,16.4,18.4,29.6,18.4,29.6z"/>
	</g>
	<g id="g2510" transform="matrix(3.0481156,0,0,-3.0481156,233.57346,24.74217)">
		<path id="path2512" inkscape:connector-curvature="0" class="st0" d="M0,26.8c-1.3,0.3-3,0.4-4.1,0.4C-7,27.3-7.2,26-7.2,24v-3.6
			h7.3l-0.6-7.5h-6.7v-22.9h-9.2v22.9h-4.7v7.5h4.7V25c0,6.4,3,10,10.5,10c2.6,0,4.5-0.4,7-0.9L0,26.8z"/>
	</g>
	<g id="g2514" transform="matrix(3.0481156,0,0,-3.0481156,348.34413,137.5468)">
		<path id="path2516" inkscape:connector-curvature="0" d="M0,26.8v20.6c0,1.4-0.6,2.2-2.2,2.2c-1.7,0-4.7-1.2-6.7-2.2V26.8h-9.2V58
			h6.8l1-2.4c3.8,1.9,8.8,3,12.4,3c5.3,0,7.2-4,7.2-10l0-21.8H0z"/>
	</g>
	<g id="g2518" transform="matrix(3.0481156,0,0,-3.0481156,411.8407,99.94223)">
		<path id="path2520" inkscape:connector-curvature="0" d="M0,26.8v-0.9c0-3.6,1.4-4.5,5.6-4.5c2.9,0,6.7,0.5,9.5,1.3l1.3-6.9
			c-2.8-1-7.3-2-11.7-2c-10.1,0-13.9,5-13.9,12.7v7.3c0,6.7,3,12.5,13.4,12.5c10.4,0,12.6-6.1,12.6-12.9v-6.5H0z M8.1,35.1
			c0,2.2-0.6,4-3.8,4S0,37.3,0,35.1v-1.3h8.1V35.1z"/>
	</g>
	<g id="g2522" transform="matrix(3.0481156,0,0,-3.0481156,469.0837,101.11729)">
		<path id="path2524" inkscape:connector-curvature="0" d="M0,26.8v7.2c0,6.4,3,12.6,14.1,12.6c11.1,0,14.1-6.2,14.1-12.6v-7.2
			c0-6.4-3-12.6-14.1-12.6C3,14.2,0,20.5,0,26.8 M18.9,26.6v7.7c0,2.9-1.5,4.6-4.9,4.6c-3.3,0-4.9-1.7-4.9-4.6v-7.7
			c0-2.9,1.5-4.6,4.9-4.6C17.4,22,18.9,23.6,18.9,26.6"/>
	</g>
</g>
</svg>
