<?xml version="1.0" encoding="utf-8"?>
<!-- Generator: Adobe Illustrator 21.1.0, SVG Export Plug-In . SVG Version: 6.00 Build 0)  -->
<svg version="1.1"
	 id="svg7835" inkscape:version="0.91 r13725" sodipodi:docname="beate_uhse_tv.svg" xmlns:cc="http://creativecommons.org/ns#" xmlns:dc="http://purl.org/dc/elements/1.1/" xmlns:inkscape="http://www.inkscape.org/namespaces/inkscape" xmlns:rdf="http://www.w3.org/1999/02/22-rdf-syntax-ns#" xmlns:sodipodi="http://sodipodi.sourceforge.net/DTD/sodipodi-0.dtd" xmlns:svg="http://www.w3.org/2000/svg"
	 xmlns="http://www.w3.org/2000/svg" xmlns:xlink="http://www.w3.org/1999/xlink" x="0px" y="0px" viewBox="0 0 512 107.5"
	 style="enable-background:new 0 0 512 107.5;" xml:space="preserve">
<style type="text/css">
	.st0{clip-path:url(#SVGID_2_);}
	.st1{fill:#E60672;}
</style>
<sodipodi:namedview  bordercolor="#666666" borderopacity="1" gridtolerance="10" guidetolerance="10" id="namedview7837" inkscape:current-layer="g7843" inkscape:cx="366.53635" inkscape:cy="262.89107" inkscape:pageopacity="0" inkscape:pageshadow="2" inkscape:window-height="864" inkscape:window-maximized="0" inkscape:window-width="1490" inkscape:window-x="0" inkscape:window-y="0" inkscape:zoom="1.0993146" objecttolerance="10" pagecolor="#ffffff" showgrid="false">
	</sodipodi:namedview>
<g id="g7843" transform="matrix(1.25,0,0,-1.25,0,288.00002)" inkscape:groupmode="layer" inkscape:label="butv-logo-final-web">
	<g id="g7845" transform="matrix(0.6749448,0,0,0.6749448,-79.211958,-95.73556)">
		<g>
			<defs>
				<rect id="SVGID_1_" x="65.8" y="152" width="710.3" height="502.2"/>
			</defs>
			<clipPath id="SVGID_2_">
				<use xlink:href="#SVGID_1_"  style="overflow:visible;"/>
			</clipPath>
			<g id="g7847" class="st0">
				<g id="g7853" transform="translate(271.2573,264.375)">
					<path id="path7855" inkscape:connector-curvature="0" class="st1" d="M0,105.5c-0.6,1.1-1.4,1.7-2.8,1.7c-1.4,0-2.7-1-2.7-2.5
						c0-1.4,1.4-2,2.5-2.5l1.1-0.5c2.1-0.9,3.9-2,3.9-4.5c0-2.8-2.3-5-5.1-5c-2.6,0-4.5,1.7-5,4.2l1.8,0.5c0.2-1.6,1.5-3,3.2-3
						s3.3,1.3,3.3,3.1c0,1.9-1.5,2.5-3,3.2l-1,0.4c-1.9,0.9-3.5,1.8-3.5,4.1c0,2.5,2.1,4.1,4.5,4.1c1.8,0,3.3-0.9,4.2-2.5L0,105.5z"
						/>
				</g>
				<g id="g7857" transform="translate(293.4985,263.9902)">
					<path id="path7859" inkscape:connector-curvature="0" class="st1" d="M0,105.5c-1.3,1.3-3.1,2.1-4.9,2.1
						c-3.6,0-6.5-3.1-6.5-6.7s2.9-6.7,6.5-6.7c1.8,0,3.6,0.9,4.9,2.1v-2.2c-1.4-1-3.1-1.6-4.8-1.6c-4.5,0-8.4,3.7-8.4,8.3
						c0,4.6,3.8,8.4,8.4,8.4c1.8,0,3.4-0.5,4.8-1.6V105.5z"/>
				</g>
				<g id="g7861" transform="translate(311.9824,260.9805)">
					<path id="path7863" inkscape:connector-curvature="0" class="st1" d="M0,105.5v6.5h1.8V95.9H0v7.9h-8.2v-7.9H-10V112h1.8v-6.5
						H0z"/>
				</g>
				<g id="g7865" transform="translate(331.5332,270.8428)">
					<path id="path7867" inkscape:connector-curvature="0" class="st1" d="M0,105.5c0-0.6-0.5-1.2-1.2-1.2c-0.6,0-1.2,0.5-1.2,1.2
						s0.5,1.2,1.2,1.2C-0.5,106.6,0,106.1,0,105.5 M-3.2,98.7L-6,92.3h5.4C-0.5,92.3-3.2,98.7-3.2,98.7z M-4.2,105.5
						c0-0.6-0.5-1.2-1.2-1.2c-0.6,0-1.2,0.5-1.2,1.2s0.5,1.2,1.2,1.2C-4.7,106.6-4.2,106.1-4.2,105.5 M-6.7,90.6l-1.9-4.6h-2
						l7.4,16.9l7.2-16.9h-2l-1.9,4.6C0.2,90.6-6.7,90.6-6.7,90.6z"/>
				</g>
				<g id="g7869" transform="translate(344.4883,260.0625)">
					<path id="path7871" inkscape:connector-curvature="0" class="st1" d="M0,105.5h0.6c2,0,4.1,0.4,4.1,2.9c0,2.6-1.9,2.9-4.1,2.9
						H0V105.5z M0,96.8h-1.8v16.1h2.3c3.1,0,5.9-0.8,5.9-4.4c0-2.5-1.6-4.2-4-4.4l5.1-7.2H5.3l-4.9,7.1H0C0,103.9,0,96.8,0,96.8z"/>
				</g>
				<g id="g7873" transform="translate(361.3926,265.8477)">
					<path id="path7875" inkscape:connector-curvature="0" class="st1" d="M0,105.5v-4.8h5.4V99H0v-8h-1.8v16.1h7.3l0-1.7H0z"/>
				</g>
				<g id="g7877" transform="translate(375.1382,267.5127)">
					<path id="path7879" inkscape:connector-curvature="0" class="st1" d="M0,105.5h8.3v-1.7H1.8V99h6.4v-1.7H1.8v-6.3h6.6v-1.7H0
						V105.5z"/>
				</g>
				<g id="g7881" transform="translate(393.665,260.0625)">
					<path id="path7883" inkscape:connector-curvature="0" class="st1" d="M0,105.5h0.6c2,0,4.1,0.4,4.1,2.9c0,2.6-1.9,2.9-4.1,2.9
						H0V105.5z M0,96.8h-1.8v16.1h2.3c3.1,0,5.9-0.8,5.9-4.4c0-2.5-1.6-4.2-4-4.4l5.1-7.2H5.3l-4.9,7.1H0C0,103.9,0,96.8,0,96.8z"/>
				</g>
				<g id="g7885" transform="translate(422.4795,265.8477)">
					<path id="path7887" inkscape:connector-curvature="0" class="st1" d="M0,105.5v-4.8h5.4V99H0v-8h-1.8v16.1h7.3v-1.7H0z"/>
				</g>
				<g id="g7889" transform="translate(436.2246,267.5127)">
					<path id="path7891" inkscape:connector-curvature="0" class="st1" d="M0,105.5h8.3v-1.7H1.8V99h6.4v-1.7H1.8v-6.3h6.6v-1.7H0
						V105.5z"/>
				</g>
				<g id="g7893" transform="translate(454.752,260.0625)">
					<path id="path7895" inkscape:connector-curvature="0" class="st1" d="M0,105.5h0.6c2,0,4.1,0.4,4.1,2.9c0,2.6-1.9,2.9-4.1,2.9
						H0V105.5z M0,96.8h-1.8v16.1h2.3c3.1,0,5.9-0.8,5.9-4.4c0-2.5-1.6-4.2-4-4.4l5.1-7.2H5.3l-4.9,7.1H0C0,103.9,0,96.8,0,96.8z"/>
				</g>
				<g id="g7897" transform="translate(469.9697,268.1953)">
					<path id="path7899" inkscape:connector-curvature="0" class="st1" d="M0,105.5l12.6-13.1v12.5h1.8V88L1.8,101.1V88.7H0L0,105.5
						z"/>
				</g>
				<g id="g7901" transform="translate(500.3008,264.375)">
					<path id="path7903" inkscape:connector-curvature="0" class="st1" d="M0,105.5c-0.6,1.1-1.4,1.7-2.8,1.7c-1.4,0-2.7-1-2.7-2.5
						c0-1.4,1.4-2,2.5-2.5l1.1-0.5c2.1-0.9,3.9-2,3.9-4.5c0-2.8-2.3-5-5.1-5c-2.6,0-4.5,1.7-5,4.2l1.8,0.5c0.2-1.6,1.5-3,3.2-3
						s3.3,1.3,3.3,3.1c0,1.9-1.5,2.5-3,3.2l-1,0.4c-1.9,0.9-3.5,1.8-3.5,4.1c0,2.5,2.1,4.1,4.5,4.1c1.8,0,3.3-0.9,4.2-2.5L0,105.5z"
						/>
				</g>
				<g id="g7905" transform="translate(510.2666,267.5127)">
					<path id="path7907" inkscape:connector-curvature="0" class="st1" d="M0,105.5h8.3v-1.7H1.8V99h6.4v-1.7H1.8v-6.3h6.6v-1.7H0
						V105.5z"/>
				</g>
				<g id="g7909" transform="translate(537.1201,260.9805)">
					<path id="path7911" inkscape:connector-curvature="0" class="st1" d="M0,105.5v6.5h1.8V95.9H0v7.9h-8.2v-7.9H-10V112h1.8v-6.5
						H0z"/>
				</g>
				<g id="g7913" transform="translate(547.5762,267.5127)">
					<path id="path7915" inkscape:connector-curvature="0" class="st1" d="M0,105.5h8.3v-1.7H1.8V99h6.4v-1.7H1.8v-6.3h6.6v-1.7H0
						V105.5z"/>
				</g>
				<g id="g7917" transform="translate(564.418,268.1953)">
					<path id="path7919" inkscape:connector-curvature="0" class="st1" d="M0,105.5l12.6-13.1v12.5h1.8V88L1.8,101.1V88.7H0L0,105.5
						z"/>
				</g>
				<g id="g7921" transform="translate(411.9062,318.1875)">
					<path id="path7923" inkscape:connector-curvature="0" class="st1" d="M0,105.5c0,0.4,0,0.7,0,1.1c0,3.8,0.5,9.1,1.1,15.2l0,0
						c0.6,6.9,1.4,14.7,1.5,21.9c0,0.8,0,1.4,0.1,2l0,0.7c0,0.5,0.1,1,0.2,1.2c0.2-0.4,0.5-1.1,0.9-2.2c1.4-3.8,2-8.1,2-12.9
						c0-0.5,0-1,0-1.6C5.5,123,3.5,114.1,0,105.5 M-35.7,97.7c1.4,3.5,3.4,7.3,5.4,11.2c1.7,3.4,3.6,7,5.3,10.7
						c0.2,0.5,0.5,1,0.7,1.5c0.1,0.2,0.1,0.3,0.2,0.5c0.8,1.7,1.5,3.5,2.1,5.2c0.3,0.9,0.7,1.8,1,2.8c1.8-1.9,3-4.3,3.5-7.1
						c0.2-1,0.3-2.1,0.3-3.2c0-2-0.3-4-0.8-6c-2.2-8.4-8.8-16.7-17.9-18.8c-0.4-0.1-0.7-0.2-1.1-0.2C-36.6,95.5-36.1,96.6-35.7,97.7
						 M-26,134c0.8,1,1.2,2.3,1.2,3.6c0,3-1.9,6.3-5.3,9.1c0.7,0.4,1.4,0.7,2.1,0.8c0.1,0,0.3,0,0.4,0c1.1,0,2.2-0.3,3.2-0.7
						c2.3-1.2,3.7-3.6,3.7-6.6c0-0.7-0.1-1.5-0.2-2.3c-0.3-1.7-0.8-3.5-1.3-5.3C-23.4,133.1-24.7,133.6-26,134 M-28.4,133.3
						c-0.6-0.7-1.4-1.2-2.4-1.5l-0.2-0.1l-0.1,0v0c-0.4-0.1-0.9-0.3-1.3-0.3c-0.3-0.1-0.6-0.1-0.9-0.1h-0.1c-0.1,0-0.2,0-0.3,0
						c-1.1,0-1.7,0.2-2,0.4c-0.3,0.2-0.5,0.4-0.5,0.7c0,0.4,0.3,0.8,0.8,1.2c0.6,0.4,1.3,0.7,2.1,0.8l0.2,0h0c1,0,2.5-0.1,4.3-0.5
						c0.2,0,0.5-0.1,0.7-0.2C-28.2,133.5-28.3,133.4-28.4,133.3 M-35.9,143.1c-0.4-0.7-0.9-1.4-1.3-2.2c-1.3-2.4-2.8-5.2-4.3-8.2
						c-1.4-2.8-2.9-5.7-4.4-8.4c-0.2-0.3-0.4-0.7-0.6-1c-2.8-5-6.7-11.1-10.7-12.8c-0.1-0.1-0.3-0.1-0.4-0.2l-0.2,0l-0.1,0v0
						c-0.1,0-0.3-0.1-0.4-0.1c-0.4-0.1-0.8-0.1-1.2-0.1l0,0c-3,0.7-5.5,4.2-8.2,10.3c-1.3,2.8-1.9,5.7-1.9,8.6c0,6,2.3,12,7.2,16.7
						c0.6,0.5,1.1,1.1,1.7,1.5c4.1,3.4,8.8,5.4,13.1,5.4c0.6,0,1.1,0,1.7-0.1c1-0.2,1.9-0.4,2.9-0.7l0,0l0.2-0.1
						c0.2,0,0.3-0.1,0.5-0.1c3.7-1.1,7.1-2.8,9.7-5.1C-33.9,145.7-35,144.6-35.9,143.1 M-54.7,98.9L-54.7,98.9
						c-4.3,3-9.4,9.4-13.3,16.5c-4.7,8.5-7.2,17.1-7.2,24.3c0,2,0.2,4,0.6,5.8c2.3,10.6,11.5,17.7,23.3,18c4.9-0.1,10-1.5,14.8-3.9
						c0.3-0.2,0.6-0.3,1-0.5c2.2-1.2,4.1-2.4,5-3.3l0,0c0,0,0.1,0,0.1,0l0.3,0.3c0,0,0,0,0,0c0,0,0,0,0,0l0,0
						c-0.9,0.9-2.7,2.3-5,3.6l0,0l0,0l0,0l-0.1,0c0,0-0.1,0-0.1,0c0,0-0.1,0-0.1,0.1l0,0c-0.3,0.1-0.5,0.3-0.8,0.4
						c-4.8,2.4-9.7,3.7-14.7,3.9l0,0l-0.2,0c-0.1,0-0.2,0-0.2,0l0,0c-0.2,0-0.5,0-0.8,0c-5.9,0-11.4-1.7-15.7-4.9
						c-4.5-3.3-7.5-8.1-8.7-13.7c-0.4-1.8-0.6-3.7-0.6-5.6c0-7.4,2.8-16.3,7.8-25c4.2-7.3,9.6-13.8,14.1-16.9
						c0.2-0.1,0.4-0.3,0.6-0.4c4.7-3,9.4-4.5,14.1-4.5c0.3,0,0.5,0,0.8,0c0.1,0,0.1,0,0.2,0c-0.6-2-0.9-3.8-0.9-5.4
						c0-2.2,0.5-4.2,1.6-5.8c1.9-2.9,4.7-4.7,7.9-5.2c0.6-0.1,1.3-0.2,2-0.2c5.3,0,11.3,3.1,17.1,8.6c3.9,3.8,7.8,9.7,11,16.7
						c0.1-0.4,0.3-0.7,0.5-1c0.4-0.6,0.8-0.8,1.4-0.8l0.2,0c0,0,0,0,0,0c0.9,0,1.9,0.7,3.2,2.1l0,0l0.2,0.2c0.9,1,2,2.5,3.3,4.3
						c8.7,12.8,13.4,24.6,13.4,34.1c0,8.5-3.6,15.1-10.7,19.8c-3.9,2.6-8.5,3.9-13.5,3.9c-0.2,0-0.5,0-0.7,0c-0.2,0-0.5,0-0.7,0
						l-0.2,0v0c-4.2-0.2-8.7-1.4-12.8-3.2c-3.4-1.4-6.6-3.4-8.1-4.9l0,0c0,0,0,0,0,0c0,0,0,0,0,0l0.3-0.3c0,0,0.1,0,0.1,0l0,0
						c1.4,1.1,5.2,3.5,9.4,5.3c4,1.6,8.2,2.5,12.1,2.6c4.6-0.1,8.7-1.4,12.3-3.7c7.2-4.7,10.8-11.3,10.8-19.6
						c0-10-5.2-22.6-15.4-37.5c-1.6-1.8-2.4-2-2.8-2c-0.1,0-0.1,0-0.1,0c-0.3,0.1-0.5,0.3-0.7,0.8c-0.2,0.5-0.4,1.2-0.5,2.1
						c4.2,9.7,6.4,19.8,6.4,28.7c0,4.9-0.7,9.4-2.1,13.2c-0.3,0.9-0.6,1.5-0.8,1.9v0c-0.4,1-1,1.6-1.7,1.6c-0.8,0-1.4-0.7-1.4-1.6
						c-0.1-0.7-0.2-1.8-0.2-3.9c-0.1-6.1-0.5-12.6-0.9-18.8c-0.4-5.9-0.7-11.6-0.7-15.9c0-2.6,0.1-4.5,0.4-5.9
						c-3.2-7.3-7.2-13.5-11.2-17.4c-5.6-5.4-11.4-8.4-16.5-8.4c-0.6,0-1.2,0-1.7,0.1l-0.1,0c-2.3,0.6-4.1,2-6.1,4.9
						c-1,1.5-1.5,3.3-1.5,5.4c0,1.6,0.3,3.4,0.9,5.5c6.1,0.5,11.8,3.7,16.1,9.1c3.9,4.9,6.2,11.2,6.2,16.9c0,1.1-0.1,2.3-0.3,3.3
						c-0.6,3.6-2.4,6.5-5.2,8.6c0.7,2.2,1.2,4.3,1.6,6.4c0.1,0.7,0.2,1.5,0.2,2.1c0,3.4-1.9,5.9-5.6,7.6l-0.1,0
						c-1,0.5-2.2,0.8-3.4,0.8c0,0-0.1,0-0.1,0l-0.2,0c0,0-0.1,0-0.1,0c-1-0.1-2.1-0.3-3.1-0.8c-3,2.2-6.8,3.9-11,5
						c-1.2,0.4-2.4,0.6-3.7,0.9l-0.2,0c-0.4,0.1-0.8,0.1-1.2,0.2c-0.6,0.1-1.2,0.1-1.8,0.1c-5,0-10.7-2.7-15.2-7.2
						c-2.3-2.3-4.2-5-5.5-7.8c-1.4-3.1-1.8-6.3-1.8-9.5c0-3.1,0.7-6.1,2-9c3.2-7.2,6.2-10.8,9.9-10.9l0,0h0.1c0.7,0,1.4,0.1,2.1,0.4
						c5.4,1.4,9.9,8.3,13.3,14.1c1.8,3.2,3.5,6.4,5.1,9.6c1.8,3.6,3.6,6.9,5.1,9.4c0.8,1.2,1.5,2.1,2.3,2.9c2.8-2.7,4.5-5.8,4.5-8.6
						c0-1-0.2-1.9-0.7-2.7c-0.3,0.1-0.7,0.1-1.1,0.2c-1.8,0.4-3.4,0.5-4.4,0.5c-0.1,0-0.2,0-0.2,0c-0.4,0-0.9,0-1.3-0.1
						c-0.9-0.1-1.8-0.4-2.5-1c-0.7-0.5-1.1-1.2-1.1-1.8c0-0.5,0.3-1,0.8-1.3c0.5-0.3,1.3-0.5,2.3-0.5c0.5,0,1,0,1.6,0.1
						c0.3,0,0.7,0.1,1.1,0.2c0.6,0.1,1.2,0.3,1.7,0.5c1.7,0.4,3,1.2,4,2.1c1.5-0.5,2.8-1.2,4-2c-2.5-7.9-6.3-15.3-9.6-21.9
						c-2.8-5.5-5.4-10.7-6.9-15.2c-0.2,0-0.3,0-0.4,0l-0.5,0v0c-0.1,0-0.2,0-0.3,0c-4.5,0-9,1.5-13.6,4.4h0l-0.5,0.4"/>
				</g>
				<g id="g7925" transform="translate(122.1992,323.1279)">
					<path id="path7927" inkscape:connector-curvature="0" class="st1" d="M0,105.5h4.4c4.9,0,10.1,1.2,10.1,7.2c0,6.1-5.9,7-10.7,7
						H0V105.5z M0,123.5h1.7c5,0,9.2,0.6,9.2,6.7c0,6-3.8,6.6-9.2,6.6H0V123.5z M-4.4,140.9h6.5c7.2,0,13.2-2.6,13.2-10.7
						c0-3.2-1.2-5.9-3.9-7.7c4.7-1.2,7.5-5.4,7.5-10.1c0-7.9-6.3-11-14.2-11h-9.2C-4.4,101.4-4.4,140.9-4.4,140.9z"/>
				</g>
				<g id="g7929" transform="translate(160.6685,358.5596)">
					<path id="path7931" inkscape:connector-curvature="0" class="st1" d="M0,105.5h20.5v-4.1H4.4V89.7H20v-4.1H4.4V70.1h16.1V66H0
						V105.5z"/>
				</g>
				<g id="g7933" transform="translate(216.2256,350.1733)">
					<path id="path7935" inkscape:connector-curvature="0" class="st1" d="M0,105.5l-6.8-15.8H6.6L0,105.5z M-8.5,85.6l-4.8-11.2
						h-4.8l18.2,41.4l17.8-41.4H13L8.3,85.6C8.3,85.6-8.5,85.6-8.5,85.6z"/>
				</g>
				<g id="g7937" transform="translate(257.7881,319.0396)">
					<path id="path7939" inkscape:connector-curvature="0" class="st1" d="M0,105.5h-4.4v35.4h-9.5v4.1H9.6v-4.1H0V105.5z"/>
				</g>
				<g id="g7941" transform="translate(285.0405,358.5596)">
					<path id="path7943" inkscape:connector-curvature="0" class="st1" d="M0,105.5h20.5v-4.1H4.4V89.7H20v-4.1H4.4V70.1h16.1V66H0
						V105.5z"/>
				</g>
				<g id="g7945" transform="translate(463.6523,335.0259)">
					<path id="path7947" inkscape:connector-curvature="0" class="st1" d="M0,105.5c0-2.9-0.1-6.3,1.7-8.8c1.7-2.4,5.1-3.8,8-3.8
						c2.8,0,5.9,1.3,7.8,3.5c2.1,2.5,1.9,6,1.9,9.1V129h4.4v-24.7c0-4.3-0.3-7.7-3.5-11c-2.7-2.9-6.7-4.5-10.6-4.5
						c-3.7,0-7.5,1.4-10.2,4c-3.5,3.3-3.9,6.9-3.9,11.4V129H0L0,105.5z"/>
				</g>
				<g id="g7949" transform="translate(533.2051,342.521)">
					<path id="path7951" inkscape:connector-curvature="0" class="st1" d="M0,105.5v16h4.4V82H0v19.4h-20.2V82h-4.4v39.5h4.4v-16H0z
						"/>
				</g>
				<g id="g7953" transform="translate(576.8105,350.855)">
					<path id="path7955" inkscape:connector-curvature="0" class="st1" d="M0,105.5c-1.6,2.7-3.5,4.3-6.8,4.3
						c-3.5,0-6.6-2.5-6.6-6.1c0-3.4,3.5-5,6.2-6.2l2.6-1.2c5.1-2.3,9.5-4.8,9.5-11.1C4.9,78.3-0.6,73-7.5,73
						c-6.3,0-11.1,4.1-12.3,10.2l4.3,1.2c0.6-4,3.7-7.3,7.9-7.3c4.2,0,8.1,3.3,8.1,7.7c0,4.6-3.6,6.2-7.3,7.9l-2.4,1
						c-4.6,2.1-8.6,4.5-8.6,10.1c0,6.1,5.2,10.1,11.1,10.1c4.4,0,8.1-2.3,10.2-6.1L0,105.5z"/>
				</g>
				<g id="g7957" transform="translate(601.2852,358.5596)">
					<path id="path7959" inkscape:connector-curvature="0" class="st1" d="M0,105.5h20.5v-4.1H4.4V89.7H20v-4.1H4.4V70.1h16.1V66H0
						V105.5z"/>
				</g>
				<g id="g7961" transform="translate(669,319.0396)">
					<path id="path7963" inkscape:connector-curvature="0" class="st1" d="M0,105.5h-4.4v35.4h-9.5v4.1H9.6v-4.1H0V105.5z"/>
				</g>
				<g id="g7965" transform="translate(708.623,328.4219)">
					<path id="path7967" inkscape:connector-curvature="0" class="st1" d="M0,105.5l11.3,30.1H16L0,93.7l-16,41.9h4.8L0,105.5z"/>
				</g>
				<path id="path7969" inkscape:connector-curvature="0" class="st1" d="M354,397.8H167v2h187V397.8z"/>
				<path id="path7971" inkscape:connector-curvature="0" class="st1" d="M674,397.8H415v2h259V397.8z"/>
			</g>
		</g>
	</g>
</g>
</svg>
