<?xml version="1.0" encoding="utf-8"?>
<!-- Generator: Adobe Illustrator 21.1.0, SVG Export Plug-In . SVG Version: 6.00 Build 0)  -->
<svg version="1.1"
	 id="svg2552" inkscape:version="0.91 r13725" sodipodi:docname="ZDF.svg" xmlns:cc="http://creativecommons.org/ns#" xmlns:dc="http://purl.org/dc/elements/1.1/" xmlns:inkscape="http://www.inkscape.org/namespaces/inkscape" xmlns:rdf="http://www.w3.org/1999/02/22-rdf-syntax-ns#" xmlns:sodipodi="http://sodipodi.sourceforge.net/DTD/sodipodi-0.dtd" xmlns:svg="http://www.w3.org/2000/svg"
	 xmlns="http://www.w3.org/2000/svg" xmlns:xlink="http://www.w3.org/1999/xlink" x="0px" y="0px" viewBox="0 0 492.8 288"
	 style="enable-background:new 0 0 492.8 288;" xml:space="preserve">
<style type="text/css">
	.st0{fill:#FA7D19;}
	.st1{fill:#FFFFFF;}
</style>
<sodipodi:namedview  bordercolor="#666666" borderopacity="1" gridtolerance="10" guidetolerance="10" id="namedview3606" inkscape:current-layer="svg2552" inkscape:cx="208.76428" inkscape:cy="306.5" inkscape:pageopacity="0" inkscape:pageshadow="2" inkscape:window-height="950" inkscape:window-maximized="0" inkscape:window-width="1686" inkscape:window-x="0" inkscape:window-y="0" inkscape:zoom="0.57875767" objecttolerance="10" pagecolor="#ffffff" showgrid="false">
	</sodipodi:namedview>
<path id="path2482" inkscape:connector-curvature="0" class="st0" d="M331.1,186.3h-30.3v-83.7h30.3c23.8,0,32.3,10.2,32.3,41.8
	C363.4,176.2,354.9,186.3,331.1,186.3 M444.7,102.6h48.1V79.9h-57.9c-31.1,0-43.9,17.4-43.9,44.7l0,2.7
	c-5.2-32.2-24.3-47.4-59.3-47.4H273C249.4,32.5,200.5,0,144,0C64.5,0,0,64.5,0,144c0,79.5,64.5,144,144,144
	c56.2,0,104.7-32.1,128.5-78.9h59.8c14.3,0,27.2-0.9,40.3-11.3c9.5-7.5,15.4-18.1,18.1-32V209h27.4l0-50.8H483v-22.6h-64.8l0.4-9.1
	C418.6,111.6,423.1,102.6,444.7,102.6"/>
<path id="path2486" inkscape:connector-curvature="0" class="st1" d="M206.1,135h17.9c14.2,0,22.6-2.9,22.6-14.9
	c0-12.4-8.4-15.8-23-15.8h-60.6V81.5h70.6c35.8,0,40.9,25.1,40.9,39c0,14.9-6.1,38.5-40.9,38.5h-17.3c-21.7,0-26.3,7.8-26.3,22.6
	v6.9h81v22.1H162.2v-32.1C162.2,151.2,175,135,206.1,135"/>
</svg>
