<?xml version="1.0" encoding="utf-8"?>
<!-- Generator: Adobe Illustrator 21.1.0, SVG Export Plug-In . SVG Version: 6.00 Build 0)  -->
<svg version="1.1"
	 id="svg2" inkscape:version="0.91 r13725" sodipodi:docname="Motorvisiontv_logo.svg" xmlns:cc="http://creativecommons.org/ns#" xmlns:dc="http://purl.org/dc/elements/1.1/" xmlns:inkscape="http://www.inkscape.org/namespaces/inkscape" xmlns:rdf="http://www.w3.org/1999/02/22-rdf-syntax-ns#" xmlns:sodipodi="http://sodipodi.sourceforge.net/DTD/sodipodi-0.dtd" xmlns:svg="http://www.w3.org/2000/svg"
	 xmlns="http://www.w3.org/2000/svg" xmlns:xlink="http://www.w3.org/1999/xlink" x="0px" y="0px" viewBox="0 0 504.9 123.4"
	 style="enable-background:new 0 0 504.9 123.4;" xml:space="preserve">
<style type="text/css">
	.st0{filter:url(#filter4155);}
	.st1{fill:url(#SVGID_1_);}
	.st2{fill:url(#path3790_1_);stroke:#E6C535;stroke-linejoin:round;}
	.st3{fill:#FDFBA3;stroke:#E6C535;stroke-width:0.7158;stroke-linejoin:round;}
</style>
<filter  id="filter4155" inkscape:collect="always" style="color-interpolation-filters:sRGB">
	<feGaussianBlur  id="feGaussianBlur4157" inkscape:collect="always" stdDeviation="3.2264243"></feGaussianBlur>
</filter>
<sodipodi:namedview  bordercolor="#666666" borderopacity="1.0" fit-margin-bottom="0" fit-margin-left="0" fit-margin-right="0" fit-margin-top="0" id="base" inkscape:current-layer="layer1" inkscape:cx="366.4686" inkscape:cy="172.48419" inkscape:document-units="px" inkscape:pageopacity="0.0" inkscape:pageshadow="2" inkscape:window-height="984" inkscape:window-maximized="1" inkscape:window-width="1920" inkscape:window-x="0" inkscape:window-y="0" inkscape:zoom="0.5" pagecolor="#ffffff" showgrid="false">
	</sodipodi:namedview>
<g id="layer1" transform="translate(-8.0442769,-268.4607)" inkscape:groupmode="layer" inkscape:label="Ebene 1">
	<g id="path4117" inkscape:connector-curvature="0" sodipodi:nodetypes="ccccccccccccccccccccccccccc" class="st0">
		
			<radialGradient id="SVGID_1_" cx="-203.1436" cy="750.569" r="111.4807" gradientTransform="matrix(0.3613 -6.306046e-03 -3.843688e-03 -0.2202 144.5389 501.0459)" gradientUnits="userSpaceOnUse">
			<stop  offset="0" style="stop-color:#FFFFFF;stop-opacity:0"/>
			<stop  offset="1" style="stop-color:#000000;stop-opacity:0.6667"/>
		</radialGradient>
		<path class="st1" d="M120.4,298.2l3.8,9.3c0.5,1.7-1,3.4-2.4,5.2l-19.1,19.3c-1.7,0.9-3.4,2-4.7,1c-5.2-8.3-3.7-9-5.6-13.5
			c-0.3-1-0.3-2.2-2.4-1.6c-1.8,1-3.4,2-4.5,3l-12.8,12.5c-2.3,1-3.9,0.5-5.2-0.5L64,316.4c-1.8,0.9-3.4,2.3-5.1,3.7l-16.7,14.7
			l1.5,13.8l6.4-8.2c2.6-7.4,8.5-1.2,8.3,0.4l5.4,21.6L79.2,338c1.2-2.5,8.4,1.9,8.7,8l0.3,17.6l-32.8,15.5l-30.6-23.7l-12.6-17.2
			l7.5-25.6l34.7-16.7l44.7-0.9L120.4,298.2z"/>
	</g>
	<g id="g3991" transform="matrix(0.50512906,0,0,0.50512906,10.795284,193.37653)">
		
			<linearGradient id="path3790_1_" gradientUnits="userSpaceOnUse" x1="-423.5327" y1="-0.9033" x2="-174.4081" y2="271.9538" gradientTransform="matrix(0.5051 0 0 -0.5051 183.9941 431.3521)">
			<stop  offset="0" style="stop-color:#C79333"/>
			<stop  offset="1" style="stop-color:#FCE119"/>
		</linearGradient>
		<path id="path3790" inkscape:connector-curvature="0" sodipodi:nodetypes="ccssscccccccccccccccc" class="st2" d="M195.6,236.2
			l27.7-27.4c-27.5-45.8-81.7-69-133.8-57c-65.9,15.2-107,80.8-91.8,146.5s81,106.7,146.9,91.5s107-80.8,91.6-146.6l-94.4,92.2
			c-1.7,1.1-7.7,3-8.2-3.3l-0.7-53.8l-18.4,18.2c-0.8,0.8-2.1,1.1-5.8,1.1H79.6c-4-0.1-5-5.1-5-7l-0.1-14.2l-19.9,18.7
			c-1.7,1.6-3.8,2.4-5.2,2.5l-29.8-0.3c-2.9-0.3-4.3-2.6-4.4-3.8c-0.1-1.5,1.4-3.1,2.8-4.4l37.6-38.2
			C108.7,174.7,153.6,164.5,195.6,236.2z"/>
		<path id="path3773" inkscape:connector-curvature="0" sodipodi:nodetypes="cccccccsscc" class="st3" d="M96.9,208.5
			c2.5-2.4,8.2-0.1,8.3,4.3l0.5,46l51.1-50.4c2.5-2.3,8.2-1.8,8.7,3.6l0.7,53.8l29.1-29.6c17.5-23.3,10.7-50-16.3-67.4
			c-34.5-22.3-90.1-22.1-124.3,0.4s-35.4,60.5,0.6,81.6L96.9,208.5z"/>
	</g>
	<path id="path3997" inkscape:connector-curvature="0" sodipodi:nodetypes="ccccccccccccc" d="M153.2,347.4l7.3-27.4l7.6-0.2
		l3.7,10.9l9.6-10.8h8.3l-7.3,27.2h-7.3l3.8-15.4l-9.9,10.5l-4-10.5l-4.2,15.7L153.2,347.4z"/>
	<path id="path4002" inkscape:connector-curvature="0" d="M206.8,319.1c-0.8,0-1.5,0.1-2.3,0.2c-8.9,1.6-13.7,6.7-14.4,14.5
		c-0.8,8.5,4.7,14.2,12.9,14.1c7.9-0.1,14.4-6.2,15.9-14.1C220.4,325.8,214.2,319.2,206.8,319.1z M205.4,326.2
		c3.7,0,6.5,2.9,6.1,7.7c-0.3,4.2-4.7,7.3-8.5,7.3s-5.7-3.8-5.2-7.3c0.6-4.2,3.1-7.2,6.9-7.6C204.9,326.2,205.2,326.2,205.4,326.2
		L205.4,326.2z"/>
	<path id="path4002-9" inkscape:connector-curvature="0" d="M262,319.2c-0.8,0-1.5,0.1-2.3,0.2c-8.9,1.6-13.7,6.7-14.4,14.5
		c-0.8,8.5,4.7,14.2,12.9,14.1c7.9-0.1,14.4-6.2,15.9-14.1C275.5,325.9,269.4,319.3,262,319.2z M260.6,326.3c3.7,0,6.5,2.9,6.1,7.7
		c-0.3,4.2-4.7,7.3-8.5,7.3c-3.8,0-5.7-3.8-5.2-7.3c0.6-4.2,3.1-7.2,6.9-7.6C260.1,326.3,260.3,326.3,260.6,326.3L260.6,326.3z"/>
	<path id="path4002-4" inkscape:connector-curvature="0" d="M401.4,319.2c-0.8,0-1.5,0.1-2.3,0.2c-8.9,1.6-13.7,6.7-14.4,14.5
		c-0.8,8.5,4.7,14.2,12.9,14.1c7.9-0.1,14.4-6.2,15.9-14.1C415,325.9,408.8,319.3,401.4,319.2L401.4,319.2z M400,326.3
		c3.7,0,6.5,2.9,6.1,7.7c-0.3,4.2-4.7,7.3-8.5,7.3s-5.7-3.8-5.2-7.3c0.6-4.2,3.1-7.2,6.9-7.6C399.5,326.3,399.8,326.3,400,326.3
		L400,326.3z"/>
	<path id="path4035" inkscape:connector-curvature="0" sodipodi:nodetypes="ccccccccc" d="M223.8,347.2l5.4-20.7h-8.4l1.9-6.5
		l24.1,0l-1.8,6.5h-8.3l-5.6,20.7L223.8,347.2z"/>
	<path id="path4037" inkscape:connector-curvature="0" d="M281.8,320.1l-7.1,27.2l7.3,0l2.2-8.3l3.7,0l3.8,8.4l7.9,0l-4.2-9.2
		c3.9-2,8.8-5,8.4-9.6c-0.8-4.4-2-7.9-9.2-8.5L281.8,320.1L281.8,320.1z M287.7,326.3h5.4c1.8,0.3,2.9,1.3,2.8,3.2
		c-0.1,2.9-3.2,3.7-3.8,3.7h-6.4L287.7,326.3z"/>
	<path id="path4042" inkscape:connector-curvature="0" sodipodi:nodetypes="cccccccc" d="M306.8,319.9l3.5,27.7h6.9l18.5-27.7h-8.5
		l-11,17.7l-1.5-17.7H306.8z"/>
	<path id="path4044" inkscape:connector-curvature="0" sodipodi:nodetypes="ccccc" d="M331.3,347.2l7.2-27.3l7.5,0l-7.4,27.3
		L331.3,347.2z"/>
	<path id="path4044-9" inkscape:connector-curvature="0" sodipodi:nodetypes="ccccc" d="M369.7,347.2l7.2-27.3l7.5,0l-7.4,27.3
		L369.7,347.2z"/>
	<path id="path4035-9" inkscape:connector-curvature="0" sodipodi:nodetypes="cccccccccccccc" d="M462.4,319.7l-1.9,6.8h8.4
		l-5.4,20.8l7.3-0.1l5.6-20.7l8.3,0l2.8,20.9h6.9l18.5-27.7h-8.5l-11,17.7l-1.5-17.7C482.1,319.9,472.3,319.6,462.4,319.7
		L462.4,319.7z"/>
	<path id="path4101" inkscape:connector-curvature="0" sodipodi:nodetypes="cccccccccccccccccc" d="M343.6,342.9l4.8-4.8
		c4.1,3.1,4.3,3.8,8.7,3.4c0.8-0.1,3.1-0.9,2.9-1.9c-0.4-1.5-2.5-2.5-5.7-3.6c-3.7-1.7-6.3-3.8-6.2-7.2c0.4-3.6,2.6-8.7,9.9-9l3.9,0
		c4.6,0.2,6.9,2.2,8.9,3.8l-5,5c-3.2-2.6-5-2.6-5.9-2.6l-2.2,0.1c-1.8,0.1-1.8,1-2.1,1.8c-0.3,2,3.1,2.2,7.4,4.4
		c2.3,1,4.3,2.5,4.4,5.8l0.1,1.4c-0.6,7-8.4,8.7-11.2,8.5C349.3,348.3,344.2,343.8,343.6,342.9L343.6,342.9z"/>
	<path id="path4103" inkscape:connector-curvature="0" sodipodi:nodetypes="ccccccccccc" d="M414.2,347.2l7.4-27.5h7l7.1,15.7
		l4.1-15.6l7.5,0l-7.4,27.3h-6.6l-7.5-16.2l-4.1,16.4L414.2,347.2z"/>
	<path id="path4105" inkscape:connector-curvature="0" d="M446.9,347.3l1.8-6.5h5.9l-1.8,6.5L446.9,347.3z"/>
</g>
</svg>
