<?xml version="1.0" encoding="utf-8"?>
<!-- Generator: Adobe Illustrator 22.1.0, SVG Export Plug-In . SVG Version: 6.00 Build 0)  -->
<svg version="1.1" id="Ebene_1" xmlns="http://www.w3.org/2000/svg" xmlns:xlink="http://www.w3.org/1999/xlink" x="0px" y="0px"
	 viewBox="0 0 1700 772" style="enable-background:new 0 0 1700 772;" xml:space="preserve">
<style type="text/css">
	.st0{fill:#821346;}
</style>
<path id="RomanceTV_x5F_Logo" class="st0" d="M0,621c0-4.9,4-9,8.8-9h58.9c19.3,0,34.8,5.8,44.7,15.7c7.6,7.6,12.1,18.7,12.1,31v0.4
	c0,25.8-17.5,40.9-42,45.6l39.1,50.3c1.8,2,2.9,4,2.9,6.5c0,4.7-4.5,8.8-9,8.8c-3.6,0-6.3-2-8.3-4.7l-44.3-57.5H17.8v53.3
	c0,4.9-4,9-9,9c-4.7,0-8.8-4-8.8-9V621z M66.1,692.2c23.6,0,40.5-12.1,40.5-32.4v-0.4c0-19.3-14.8-31-40.2-31H17.8v63.8H66.1z
	 M167.6,691.1v-0.4c0-43.4,32.6-81.4,80.5-81.4s80,37.5,80,80.9v0.5c0,43.4-32.6,81.4-80.5,81.4C199.7,772,167.6,734.5,167.6,691.1z
	 M309.6,691.1v-0.4c0-35.7-26.1-65-62-65c-36,0-61.6,28.8-61.6,64.5v0.5c0,35.7,26.1,65,62,65C284,755.6,309.6,726.8,309.6,691.1z
	 M380.4,620.1c0-4.7,4-8.8,8.8-8.8h2c3.8,0,6.5,2,8.3,4.7l56.2,84.5l56.2-84.5c1.8-2.9,4.7-4.7,8.3-4.7h2c4.7,0,8.8,4,8.8,8.8v141.4
	c0,4.9-4,9-8.8,9c-4.9,0-9-4.3-9-9V644.1l-50.3,73.9c-2,2.9-4.3,4.5-7.4,4.5c-3.1,0-5.6-1.6-7.6-4.5l-50.1-73.7v117.3
	c0,4.9-3.8,8.8-8.8,8.8c-4.7,0-8.5-3.8-8.5-8.8V620.1z M578,757.6L641.8,618c2.3-4.9,5.6-7.9,11.2-7.9h0.9c5.4,0,9,2.9,11,7.9
	l63.8,139.3c0.7,1.6,1.1,3.1,1.1,4.5c0,4.7-3.8,8.5-8.5,8.5c-4.3,0-7.2-2.9-8.8-6.5l-16.4-36.2h-86.3l-16.4,36.6
	c-1.6,3.8-4.5,6.1-8.5,6.1c-4.5,0-8.1-3.6-8.1-8.1C576.8,761,577.1,759.4,578,757.6z M689.2,711.5L653,631.1l-36.2,80.5H689.2z
	 M775.9,620.1c0-4.7,4-8.8,8.8-8.8h2.5c4,0,6.5,2,9,5.2l95.5,121.8V619.6c0-4.7,3.8-8.8,8.8-8.8c4.7,0,8.5,4,8.5,8.8v142
	c0,4.7-3.4,8.3-8.1,8.3h-0.9c-3.8,0-6.5-2.2-9.2-5.4l-97.5-124.7v121.8c0,4.7-3.8,8.8-8.8,8.8c-4.7,0-8.5-4-8.5-8.8V620.1z
	 M961.7,691.1v-0.4c0-44.5,33.3-81.4,79.6-81.4c25.4,0,41.6,8.3,56.2,20.5c1.8,1.6,3.6,4,3.6,7.2c0,4.7-4.3,8.8-9,8.8
	c-2.5,0-4.5-1.1-5.8-2c-12.1-10.8-25.8-18-45.2-18c-34.8,0-60.9,28.3-60.9,64.5v0.5c0,36.4,26.3,65,60.9,65
	c19.6,0,33.3-6.7,46.7-19.1c1.4-1.4,3.4-2.5,5.6-2.5c4.5,0,8.5,4,8.5,8.5c0,2.7-1.4,4.9-2.9,6.3c-15.5,14.2-32.6,23.1-58.4,23.1
	C995.2,772,961.7,736.3,961.7,691.1z M1150.3,760.3V621c0-4.9,4-9,8.8-9l97.4,0c4.4,0,8.3,3.3,8.5,7.7c0.2,4.7-3.5,8.5-8.1,8.5H1168
	v53.7h78.7c6,0,10.3,6.7,6.9,12.3c-1.6,2.5-4.4,3.9-7.4,3.9l-78.1,0v55.1h89.5c4.4,0,8.3,3.3,8.5,7.7c0.2,4.7-3.5,8.5-8.1,8.5H1159
	C1154.3,769.3,1150.3,765.3,1150.3,760.3z M1443.5,628.4h-45.6c-4.5,0-8.3-3.6-8.3-8.1c0-4.5,3.8-8.3,8.3-8.3h109.2
	c4.5,0,8.3,3.8,8.3,8.3c0,4.5-3.8,8.1-8.3,8.1h-45.6v133.1c0,4.9-4,9-9,9c-4.9,0-9-4-9-9V628.4z M1616.8,763.7l-60.7-140
	c-0.7-1.4-0.9-2.5-0.9-4c0-4.5,4-8.8,9-8.8c4.5,0,7.6,2.9,9.2,6.7l54.4,130.4l54.6-130.8c1.6-3.1,4.7-6.3,8.8-6.3
	c4.9,0,8.8,4,8.8,8.5c0,1.4-0.2,2.5-0.7,3.6l-60.9,140.7c-2,4.5-5.2,7.4-10.3,7.4h-0.9C1622,771.1,1618.6,768.2,1616.8,763.7z
	 M583.2,184.4C549.1,21.2,720.9-54.7,832.8,44.2c5,4.4,9.9,9.2,14.7,14.4c4.8-5.2,9.7-10,14.7-14.4c111.9-98.9,283.6-23,249.6,140.2
	c-15.8,75.6-68.9,137-129,191.5c-6.2-5-12.4-10.3-18.8-16.2c-35.1-31.6-73.5-72.7-96.8-100.2c17.8-5.9,35.7-14.1,50.2-22.9
	c18.2-11.2,36.5-27.8,48.9-44.4c16.7-22.3,23.5-44.6,19.6-64.6c-3.2-16.6-13.5-30.3-28.1-37.6c-30-15-73.1-9.4-107.3-2.9
	c-29.8,5.7-60,14.6-85.2,25.1c-28.9,12.2-58.8,31-81.3,48.8c-7.1,5.6-8.2,6.5-9.2,16c-0.2,1.7-2.9,26.9-3,28.1
	c-0.1,1.5,0.1,2.7,0.2,3.3c1.2,6.2,7.5,10.4,13.7,9.2c5-1,8.8-5.2,9.8-10.9c4-14.6,14.1-29.6,27.8-41.2
	c20.5-17.2,43.1-29.9,64.1-36.4c-8.6,31.6-24.2,77.6-39.6,116.8c-15,38.3-31.5,82.1-45.9,120.5C646.1,314.3,598.1,255.7,583.2,184.4
	z M888.8,361.3c-15.6-16.4-34.9-38.8-51.9-58.5c-9.1-10.6-17.7-20.5-25.1-28.8c-2.8-2.9-4.7-6.3-5.4-9.4
	c-1.3-6.9,3.4-13.7,10.6-15.3c2.8-0.8,6.2-1.8,9.9-2.8c6.9-2,14.6-4.2,21.4-6c35.1-10.3,59.1-26.7,73.3-49.9
	c8.8-14.3,11.8-31.6,8.4-48.7c-2-10.3-8.6-20.4-16-24.6l-0.2-0.1l-0.2-0.1c-8.9-5.5-21.8-8.6-34.5-8.4c-4.7,0.2-12,1-17,1.9
	c-8.3,1.6-13.8,4.7-16.7,9.5c-17.5,30-37.6,86-56.6,142.1c-4.8,14.3-9.9,29-14.8,43.3c-9.3,26.8-22,63.6-33,95.6
	c31,26.5,62.6,51.5,91,76.1c5.3,4.6,10.8,9.5,10.8,9.5c2.5,2.3,6.7,2.3,9.2,0c0,0,5.6-5,10.8-9.5c24.8-21.5,52.1-43.4,79.3-66.2
	C925,397.2,907.4,380.8,888.8,361.3z"/>
</svg>
