<?xml version="1.0" encoding="utf-8"?>
<!-- Generator: Adobe Illustrator 21.1.0, SVG Export Plug-In . SVG Version: 6.00 Build 0)  -->
<svg version="1.1"
	 id="svg1877" inkscape:version="0.91 r13725" sodipodi:docname="BloombergTV.svg" xmlns:cc="http://creativecommons.org/ns#" xmlns:dc="http://purl.org/dc/elements/1.1/" xmlns:inkscape="http://www.inkscape.org/namespaces/inkscape" xmlns:rdf="http://www.w3.org/1999/02/22-rdf-syntax-ns#" xmlns:sodipodi="http://sodipodi.sourceforge.net/DTD/sodipodi-0.dtd" xmlns:svg="http://www.w3.org/2000/svg"
	 xmlns="http://www.w3.org/2000/svg" xmlns:xlink="http://www.w3.org/1999/xlink" x="0px" y="0px" viewBox="0 0 512 121"
	 style="enable-background:new 0 0 512 121;" xml:space="preserve">
<style type="text/css">
	.st0{fill:#6F8780;}
</style>
<sodipodi:namedview  bordercolor="#666666" borderopacity="1" gridtolerance="10" guidetolerance="10" id="namedview3940" inkscape:current-layer="svg1877" inkscape:cx="460.62991" inkscape:cy="124.01575" inkscape:pageopacity="0" inkscape:pageshadow="2" inkscape:window-height="914" inkscape:window-maximized="0" inkscape:window-width="1505" inkscape:window-x="0" inkscape:window-y="0" inkscape:zoom="0.5" objecttolerance="10" pagecolor="#ffffff" showgrid="false">
	</sodipodi:namedview>
<g id="layer1" transform="matrix(0.57798877,0,0,0.57798877,-10.23996,71.83429)">
	<g id="Ebene_x0020_1" transform="matrix(3.543307,0,0,3.543307,0.00142065,2.070312e-6)">
		<path id="path10" inkscape:connector-curvature="0" class="st0" d="M103.8,23.7h2.2v-9.3h0l6,9.3h2.8V11.5h-2.2v9.1h0l-5.9-9.1
			h-2.9L103.8,23.7L103.8,23.7L103.8,23.7z M87.8,17.6c0,3.8,2.7,6.4,6.4,6.4c3.8-0.1,6.5-2.6,6.5-6.4c0-3.9-2.7-6.5-6.5-6.4
			C90.4,11.2,87.8,13.7,87.8,17.6L87.8,17.6z M90,17.5c0-2.4,1.7-4.4,4.2-4.4c2.5,0,4.2,1.9,4.2,4.4c0,2.6-1.7,4.5-4.2,4.5
			C91.7,22,90,20.1,90,17.5z M82.2,23.7h2.2V11.5h-2.2V23.7z M78.5,12.4c-0.9-0.9-2.2-1.3-3.5-1.3c-2.3,0-4.5,1.2-4.5,3.7
			c0,4.4,5.8,2.8,5.8,5.5c0,1.1-1.1,1.7-2.1,1.7c-1,0-1.9-0.5-2.4-1.3l-1.6,1.6c1,1.2,2.5,1.7,4,1.7c2.4,0,4.5-1.3,4.5-3.9
			c0-4.3-5.8-2.9-5.8-5.4c0-1.1,1-1.6,2-1.6c0.8,0,1.7,0.3,2.1,1L78.5,12.4L78.5,12.4L78.5,12.4z M64.1,23.7h2.2V11.5h-2.2V23.7z
			 M55,23.7h1.9l4.9-12.2h-2.3L56,20.7l-3.3-9.2h-2.5C50.2,11.5,55,23.7,55,23.7z M39.7,23.7h8.4v-2h-6.2v-3.3h5.6v-2h-5.6v-3h5.9
			v-2h-8.1V23.7L39.7,23.7z M29.1,23.7h7.4v-2h-5.2V11.5h-2.2L29.1,23.7C29.1,23.7,29.1,23.7,29.1,23.7z M17.2,23.7h8.4v-2h-6.2
			v-3.3h5.6v-2h-5.6v-3h5.9v-2h-8.1V23.7z M8.7,23.7h2.2V13.5h3.7v-2H5v2h3.7C8.7,13.5,8.7,23.7,8.7,23.7z M249-22.1v3.8h-0.1
			c-1.8-3-5.1-4.4-8.6-4.4c-7.7,0-12.4,5.7-12.4,13.2c0,7.1,5,12.8,12.5,12.8c3.1,0,6.4-1.2,8.2-3.7h0.1v1.8c0,5-1.9,8.4-7.9,8.4
			c-3.5,0-6.1-1.3-8.6-3.6l-3.8,5.1c3.5,3.1,7.8,4.1,12.4,4.1c9.8,0,14.1-5.7,14.1-14.8v-22.8L249-22.1L249-22.1L249-22.1z
			 M241.6-17.1c4.5,0,7.4,3,7.4,7.4c0,4.2-2.8,7.4-7.5,7.4c-4.2,0-7.4-3.3-7.4-7.3C234.2-14.1,237.3-17.1,241.6-17.1
			C241.6-17.1,241.6-17.1,241.6-17.1z M211.7,2.9h6.3v-13.4c0-1.4,0.8-6.3,6.7-6.3c1,0,2,0.2,3,0.5v-6.1c-0.7-0.2-1.5-0.4-2.2-0.4
			c-3.3,0-6.1,1.7-7.4,4.6h-0.1v-4h-6.3L211.7,2.9L211.7,2.9L211.7,2.9z M207.5-7.4v-1.7c0-8.7-4.7-13.6-11.7-13.6
			c-7.6,0-13.6,5.3-13.6,13.2s6.1,13.2,13.6,13.2c4,0,7.7-1.4,10.6-5l-4.5-3.4c-1.6,1.9-3.6,3.4-6.7,3.4c-3.5,0-6.3-2.2-6.7-6H207.5
			L207.5-7.4L207.5-7.4z M188.4-12.1c0.5-3.6,2.8-6,6.5-6c3.9,0,6.3,2.3,6.4,6H188.4L188.4-12.1z M152.3,2.9h6v-3.8h0.1
			c1.8,3,5.1,4.4,8.6,4.4c7.7,0,12.4-5.8,12.4-13.2c0-7.4-5-13.2-12.1-13.2c-4.7,0-7.2,2.2-8.5,3.8h-0.2v-15.9h-6.3V2.9L152.3,2.9z
			 M173-9.6c0,3.9-2.8,7.5-7.4,7.5c-4.6,0-7.4-3.6-7.4-7.5s2.8-7.5,7.4-7.5C170.3-17.1,173-13.5,173-9.6z M108.2,2.9h6.3v-13.7
			c0-3.3,1.6-6.4,5.7-6.4c3,0,4.3,2,4.3,5.1V2.9h6.3v-13.6c0-3.2,1.5-6.5,5.4-6.5c3.7,0,4.6,2.7,4.6,5.8V2.9h6.3V-12
			c0-6-2.3-10.8-9-10.8c-3.8,0-6.4,1.5-8.2,4.6c-1.3-3.1-4-4.6-7.8-4.6c-4.2,0-6.6,2.2-7.7,4.5h-0.1v-3.9h-6L108.2,2.9L108.2,2.9
			L108.2,2.9z M47-9.6c0,7.9,6.1,13.2,13.6,13.2c7.6,0,13.6-5.3,13.6-13.2s-6.1-13.2-13.6-13.2C53.1-22.8,47-17.5,47-9.6
			C47-9.6,47-9.6,47-9.6z M53.3-9.6c0-3.9,2.8-7.5,7.4-7.5S68-13.5,68-9.6s-2.8,7.5-7.4,7.5S53.3-5.7,53.3-9.6L53.3-9.6L53.3-9.6z
			 M36.5,2.9h6.3v-38h-6.3V2.9z M5,2.9h13.3c7,0,14-2.5,14-10.5c0-4.7-3.3-8.4-8-8.9v-0.1c3.8-1.1,6.4-3.9,6.4-8.1
			c0-6.7-5.7-9.3-11.3-9.3H5C5-34,5,2.9,5,2.9z M11.6-13.4h6.3c5.3,0,7.8,1.4,7.8,5.2c0,4.9-4.7,5.4-8.1,5.4h-6.1L11.6-13.4
			C11.6-13.4,11.6-13.4,11.6-13.4z M11.6-28.4H17c5,0,7.2,1.6,7.2,4.7c0,2.8-2.2,4.6-6.6,4.6h-6V-28.4
			C11.6-28.4,11.6-28.4,11.6-28.4z M77.2-9.6c0,7.9,6.1,13.2,13.6,13.2c7.6,0,13.6-5.3,13.6-13.2s-6.1-13.2-13.6-13.2
			C83.2-22.8,77.2-17.5,77.2-9.6L77.2-9.6z M83.4-9.6c0-3.9,2.8-7.5,7.4-7.5c4.6,0,7.4,3.6,7.4,7.5s-2.8,7.5-7.4,7.5
			C86.2-2.1,83.4-5.7,83.4-9.6L83.4-9.6z"/>
	</g>
</g>
</svg>
