<svg xmlns="http://www.w3.org/2000/svg" xmlns:xlink="http://www.w3.org/1999/xlink" viewBox="0 0 569.45 173.47"><defs><style>.cls-1{fill:url(#Background_Gradient);}.cls-2{fill:#a1a2a2;}.cls-3{fill:url(#Red_Gradient);}.cls-4{fill:#fff;}.cls-5{fill:#ae2c3f;}.cls-6{opacity:0.4;}</style><linearGradient id="Background_Gradient" x1="-3667.1" y1="2.33" x2="-3667.1" y2="106.34" gradientTransform="matrix(-1, 0, 0, 1, -3382.37, 0)" gradientUnits="userSpaceOnUse"><stop offset="0" stop-color="#868685"/><stop offset="0.02" stop-color="#d8d9d9"/><stop offset="0.05" stop-color="#f5f5f5"/><stop offset="0.49" stop-color="#edeeee"/><stop offset="0.9" stop-color="#f5f5f5"/><stop offset="0.93" stop-color="#ebebec"/><stop offset="0.96" stop-color="#d8d9d9"/><stop offset="1" stop-color="#868685"/></linearGradient><linearGradient id="Red_Gradient" x1="378.87" y1="105.52" x2="378.87" y2="3.22" gradientUnits="userSpaceOnUse"><stop offset="0" stop-color="#820021"/><stop offset="0.1" stop-color="#ae2c3f"/><stop offset="0.9" stop-color="#ae2c3f"/><stop offset="1" stop-color="#ba3c4c"/></linearGradient></defs><title>skyc_emotion</title><g id="Art"><path class="cls-1" d="M15,105.52C6.89,105.52,4,100.76,4,92.84V15.9C4,8,6.89,3.22,15,3.22H554.5c8.06,0,10.93,4.76,10.93,12.68V92.84c0,7.92-2.87,12.68-10.93,12.68Z"/><path class="cls-2" d="M16.18,107.73c-8.06,0-13.52-4.76-13.52-12.68V13.68C2.66,5.76,8.11,1,16.18,1h537.1c8.06,0,13.52,4.76,13.52,12.68V95.05c0,7.92-5.45,12.68-13.52,12.68Zm537.65,1c12,0,15.62-7.44,15.62-14.89v-79C569.45,7.44,565.8,0,553.83,0H15.62C3.65,0,0,7.44,0,14.89v79c0,7.44,3.65,14.89,15.62,14.89Z"/><path class="cls-3" d="M554.5,3.22H192.32v102.3H554.5c8.06,0,10.93-4.76,10.93-12.68V15.9C565.43,8,562.56,3.22,554.5,3.22Z"/><path class="cls-4" d="M242.81,86.62a31.69,31.69,0,0,1-12.55-2.45,30.39,30.39,0,0,1-10-6.77,31.17,31.17,0,0,1-6.61-10.28,34.17,34.17,0,0,1-2.39-12.87,32.93,32.93,0,0,1,2.39-12.58,31.44,31.44,0,0,1,6.61-10.18,30.39,30.39,0,0,1,10-6.77,31.69,31.69,0,0,1,12.55-2.45,42.27,42.27,0,0,1,9.49,1.06A53.5,53.5,0,0,1,260.82,26q.86,12.77-6.23,12.77a8.7,8.7,0,0,1-2.3-.29q-1.06-.29-2.3-.58t-2.78-.58a20,20,0,0,0-3.64-.29,16.72,16.72,0,0,0-6.32,1.2,14.55,14.55,0,0,0-5.13,3.46,16.48,16.48,0,0,0-3.4,5.43,19.28,19.28,0,0,0-1.25,7.11,20.61,20.61,0,0,0,1.25,7.4,16.26,16.26,0,0,0,3.4,5.52,14.51,14.51,0,0,0,5.13,3.46,16.69,16.69,0,0,0,6.32,1.2,21.66,21.66,0,0,0,3.74-.29q1.63-.29,2.92-.58t2.44-.58a9.83,9.83,0,0,1,2.4-.29q7,0,6.23,12.77a51.4,51.4,0,0,1-8.77,2.69A45.51,45.51,0,0,1,242.81,86.62Z"/><path class="cls-4" d="M275.87,85.86q-2,0-4-.19a30.23,30.23,0,0,1-3.31-.48V29.57a7,7,0,0,1,1.72-4.75q1.72-2,6.51-2,2,0,4,.19a30.19,30.19,0,0,1,3.3.48V79.13a7,7,0,0,1-1.72,4.75Q280.66,85.86,275.87,85.86Z"/><path class="cls-4" d="M302.07,85.86a35.59,35.59,0,0,1-3.74-.19,26.16,26.16,0,0,1-3.07-.48V24a22.5,22.5,0,0,1,3.74-.82,27.86,27.86,0,0,1,3.93-.34q5.27,0,7.66,1.34a11.28,11.28,0,0,1,4,3.94l21.75,34.29V29a8,8,0,0,1,.34-2.35,4.91,4.91,0,0,1,1.15-2,5.36,5.36,0,0,1,2.25-1.34,11.69,11.69,0,0,1,3.64-.48,34.41,34.41,0,0,1,3.69.19q1.77.19,3,.38V84.7a10,10,0,0,1-3.26.91,30.24,30.24,0,0,1-3.74.24q-4.5,0-6.71-1.25a10.42,10.42,0,0,1-3.64-3.46L309.83,43.88V79.52A6.53,6.53,0,0,1,308.2,84Q306.57,85.86,302.07,85.86Z"/><path class="cls-4" d="M370.13,85.47a13.68,13.68,0,0,1-4.36-.58,6,6,0,0,1-2.59-1.58,5.4,5.4,0,0,1-1.25-2.45,13.46,13.46,0,0,1-.34-3.07V30.72a13.47,13.47,0,0,1,.34-3.07,5.4,5.4,0,0,1,1.25-2.45,6,6,0,0,1,2.59-1.58,13.69,13.69,0,0,1,4.36-.58h31.71q.19,1.06.38,2.88a36.1,36.1,0,0,1,.19,3.75q0,4-1.63,5.71a5.49,5.49,0,0,1-4.12,1.68H377.12V48h22.51q.19,1,.38,2.54a28.44,28.44,0,0,1,.19,3.41q0,3.84-1.53,5.23a5.48,5.48,0,0,1-3.83,1.39H377.12V71.45H402.8q.19,1.06.38,2.93a36.57,36.57,0,0,1,.19,3.7q0,4.13-1.63,5.76a5.57,5.57,0,0,1-4.12,1.63Z"/><path class="cls-4" d="M416.18,85.86a15.62,15.62,0,0,1-3.88-.43,17.17,17.17,0,0,1-2.92-1l5.86-59.84A21.44,21.44,0,0,1,420,23.33a32.64,32.64,0,0,1,5.08-.48,29.67,29.67,0,0,1,5.12.38,10.9,10.9,0,0,1,3.69,1.3,6.69,6.69,0,0,1,2.44,2.55,13.91,13.91,0,0,1,1.39,4l2.49,11.62q1.05,4.8,2.25,10.61t2.16,12H445q1.05-6.15,2.2-11.91t2.39-10.56l3.06-12.2q1.15-4.51,3.68-6.15t7.89-1.63a34.48,34.48,0,0,1,5.4.43q2.73.43,4.54.91l5.6,60.22q-1.34.48-3.21,1a16.34,16.34,0,0,1-4.07.48,11.46,11.46,0,0,1-5.17-1.06,4.34,4.34,0,0,1-2.3-3.94l-1.44-20.75q-.48-5.47-.81-11.48t-.43-11.38h-.19q-1.25,5-2.54,10.81T457,58.77L453.07,75.1q-1.44,5.76-9.1,5.76a20.85,20.85,0,0,1-3.93-.38,26.61,26.61,0,0,1-3.45-.86L431.7,59.25q-1.44-5.67-2.68-11.14t-2.3-10.95h-.29q-.29,7.69-.77,14.07t-.86,11L423.27,81a4.37,4.37,0,0,1-2.11,3.84A10.28,10.28,0,0,1,416.18,85.86Z"/><path class="cls-4" d="M491.64,86a29.82,29.82,0,0,1-4.17-.34,18.81,18.81,0,0,1-3.88-.91L503.47,23.9a36.85,36.85,0,0,1,5.24-1,45.06,45.06,0,0,1,4.85-.29,26.5,26.5,0,0,1,5.43.48,11.79,11.79,0,0,1,3.79,1.44,8.08,8.08,0,0,1,2.55,2.55,15.84,15.84,0,0,1,1.68,3.7L544,84.7a16.72,16.72,0,0,1-3.93,1,31.19,31.19,0,0,1-4.5.34,14.64,14.64,0,0,1-4.84-.82,5.64,5.64,0,0,1-3.4-3.7l-3.26-9.89H503.22L500.45,81q-1.05,3.36-3.54,4.23A16,16,0,0,1,491.64,86Zm14.94-26.41h14.33L513.77,36.1Z"/><path class="cls-5" d="M125.53,97.68a17,17,0,0,0,6.78,1.44c5.32.12,8.23-1.93,10.38-6.69L171.26,28.7a15.65,15.65,0,0,0-5.93-1.39c-3.67-.07-8.6.69-11.75,8.2l-9.25,21.84L126.19,27.79a26,26,0,0,0-6.13-.87c-6.39,0-10,2.36-13.69,6.39L88.73,52.6l14.19,22.33c2.62,4.07,6.08,6.14,11.69,6.14a20.66,20.66,0,0,0,8.14-1.51L105.66,53.81,117.77,41l19.86,31.17ZM88,73.57C88,78.27,86.2,81,77,81a22.68,22.68,0,0,1-3.3-.24V18.42c0-4.73,1.61-9.67,10.87-9.67A17,17,0,0,1,88,9.1Zm-18.92-9.4c0,8.76-5.73,15.16-17.35,16.42-8.43.9-20.62-.16-26.41-.83a14.9,14.9,0,0,1-.38-3c0-7.66,4.14-9.41,8-9.41,4,0,10.38.7,15.1.7,5.19,0,6.77-1.76,6.77-3.44,0-2.2-2.1-3.11-6.13-3.88l-11-2.12c-9.18-1.76-14.08-8.11-14.08-14.85,0-8.19,5.8-15.05,17.2-16.31,8.62-.93,19.11.12,24.87.83a13.67,13.67,0,0,1,.32,3c0,7.64-4,9.29-7.91,9.29-3,0-7.61-.56-12.89-.56s-7.61,1.49-7.61,3.3,2.13,2.7,5.49,3.29l10.54,2C64.49,50.44,69.13,56.59,69.13,64.17Z"/><g class="cls-6"><path class="cls-4" d="M555.23,81.53c6.94,6.87,7.88,13.35,8.12,14.77.68,0,.93-3,.93-7.56l0-72.62c0-8.41-2.74-11.25-9.86-11.25-2.41,0-4.82,1.29-8,1.29H22.72c-3.21,0-5.62-1.29-8-1.29-7.12,0-9.86,2.84-9.86,11.25l0,72.62c0,4.53.25,7.56.93,7.56.25-1.42.46-8.4,8.12-14.77C75.08,34.28,489.21,19.78,555.23,81.53Z"/></g></g><g id="EMOTION"><path d="M170.19,172.7q-2.2,0-2.83-.86a3.72,3.72,0,0,1-.62-2.23V137.12a3.72,3.72,0,0,1,.62-2.23q.63-.86,2.83-.86h20a10,10,0,0,1,.21,1.31,15.64,15.64,0,0,1,.09,1.67,3.18,3.18,0,0,1-.74,2.41,2.58,2.58,0,0,1-1.81.68H173.41v10.35h15.35l.15,1.22a13.23,13.23,0,0,1,.09,1.58,3.15,3.15,0,0,1-.68,2.32,2.36,2.36,0,0,1-1.7.65H173.41v10.41h17.31l.15,1.22a13.27,13.27,0,0,1,.09,1.58,3.6,3.6,0,0,1-.71,2.53,2.37,2.37,0,0,1-1.79.74Z"/><path d="M198.34,173a6.57,6.57,0,0,1-1.76-.21,9.25,9.25,0,0,1-1.28-.45l3.94-37.66a9.19,9.19,0,0,1,2.16-.57,15.17,15.17,0,0,1,2.28-.21,8.28,8.28,0,0,1,4.06.8,4.15,4.15,0,0,1,1.87,2.83l6.54,25.88,6.61-25.7a4.44,4.44,0,0,1,1.9-2.92,7.38,7.38,0,0,1,3.92-.89,17.18,17.18,0,0,1,2.44.18,16.11,16.11,0,0,1,2.08.42l3.73,37.84a11.38,11.38,0,0,1-1.4.45,7.24,7.24,0,0,1-1.81.21,4.77,4.77,0,0,1-2.26-.48,2.06,2.06,0,0,1-1-1.79l-2.53-30.58-7.26,27.07a3.54,3.54,0,0,1-1.64,2.29,6.18,6.18,0,0,1-2.95.63,15.46,15.46,0,0,1-1.88-.12,7.53,7.53,0,0,1-1.64-.36l-8.2-29.51-2.77,30.64a2,2,0,0,1-1,1.73A4.5,4.5,0,0,1,198.34,173Z"/><path d="M259.68,173.47a18.67,18.67,0,0,1-7.74-1.58,17.83,17.83,0,0,1-6-4.34,20.28,20.28,0,0,1-3.9-6.43,22.75,22.75,0,0,1,0-15.71,19.22,19.22,0,0,1,3.9-6.34,18.1,18.1,0,0,1,6-4.22,20.11,20.11,0,0,1,15.47,0,18.11,18.11,0,0,1,6,4.22,19.32,19.32,0,0,1,3.9,6.31,21.68,21.68,0,0,1,1.4,7.85,21.92,21.92,0,0,1-1.4,7.88,20.3,20.3,0,0,1-3.9,6.43,17.84,17.84,0,0,1-6,4.34A18.67,18.67,0,0,1,259.68,173.47Zm-.06-6a10.36,10.36,0,0,0,4.7-1.1,12.56,12.56,0,0,0,3.87-3,14.13,14.13,0,0,0,2.62-4.52,16.26,16.26,0,0,0,1-5.59,16.47,16.47,0,0,0-.92-5.56,13.7,13.7,0,0,0-2.56-4.46,12.06,12.06,0,0,0-3.84-2.95,10.74,10.74,0,0,0-4.76-1.07,10.86,10.86,0,0,0-4.7,1,11.68,11.68,0,0,0-3.84,2.92,14.18,14.18,0,0,0-2.59,4.43,15.92,15.92,0,0,0-1,5.59,17.07,17.07,0,0,0,.92,5.71,14,14,0,0,0,2.56,4.52,11.86,11.86,0,0,0,3.84,3A10.6,10.6,0,0,0,259.62,167.52Z"/><path d="M294.73,173.06q-1,0-1.87-.09a10.31,10.31,0,0,1-1.4-.21V140.09h-11.9a7.85,7.85,0,0,1-.18-1.28q-.06-.8-.06-1.7a3.07,3.07,0,0,1,.77-2.5,3.13,3.13,0,0,1,2-.59H309.9a11.55,11.55,0,0,1,.24,2.74q0,3.33-2.74,3.33h-9.28v30.17a2.82,2.82,0,0,1-.74,2A3.52,3.52,0,0,1,294.73,173.06Z"/><path d="M317.51,173.06q-1,0-1.87-.09a10.31,10.31,0,0,1-1.4-.21V136.7a2.82,2.82,0,0,1,.74-2,3.52,3.52,0,0,1,2.65-.8q1,0,1.87.09a10.28,10.28,0,0,1,1.4.21v36.06a2.82,2.82,0,0,1-.74,2A3.53,3.53,0,0,1,317.51,173.06Z"/><path d="M344.29,173.47a18.67,18.67,0,0,1-7.74-1.58,17.83,17.83,0,0,1-6-4.34,20.28,20.28,0,0,1-3.9-6.43,22.75,22.75,0,0,1,0-15.71,19.22,19.22,0,0,1,3.9-6.34,18.1,18.1,0,0,1,6-4.22,20.11,20.11,0,0,1,15.47,0,18.11,18.11,0,0,1,6,4.22,19.32,19.32,0,0,1,3.9,6.31,21.68,21.68,0,0,1,1.4,7.85,21.92,21.92,0,0,1-1.4,7.88,20.3,20.3,0,0,1-3.9,6.43,17.84,17.84,0,0,1-6,4.34A18.67,18.67,0,0,1,344.29,173.47Zm-.06-6a10.36,10.36,0,0,0,4.7-1.1,12.56,12.56,0,0,0,3.87-3,14.13,14.13,0,0,0,2.62-4.52,16.26,16.26,0,0,0,1-5.59,16.47,16.47,0,0,0-.92-5.56,13.7,13.7,0,0,0-2.56-4.46,12.06,12.06,0,0,0-3.84-2.95,10.74,10.74,0,0,0-4.76-1.07,10.86,10.86,0,0,0-4.7,1,11.68,11.68,0,0,0-3.84,2.92,14.18,14.18,0,0,0-2.59,4.43,15.92,15.92,0,0,0-1,5.59,17.07,17.07,0,0,0,.92,5.71,14,14,0,0,0,2.56,4.52,11.86,11.86,0,0,0,3.84,3A10.6,10.6,0,0,0,344.23,167.52Z"/><path d="M372,173.06q-.89,0-1.76-.06a8.2,8.2,0,0,1-1.34-.18V134.5a6.28,6.28,0,0,1,1.66-.45,12.82,12.82,0,0,1,1.84-.15,7,7,0,0,1,3.42.63,5.65,5.65,0,0,1,1.81,1.81l17.33,26.78-.36-26.6a2.69,2.69,0,0,1,.68-1.84,3.2,3.2,0,0,1,2.47-.77,16.47,16.47,0,0,1,1.7.09,10.23,10.23,0,0,1,1.34.21v38.32a8.79,8.79,0,0,1-3.21.54,6.18,6.18,0,0,1-3.15-.62,5.25,5.25,0,0,1-1.67-1.64l-17.91-27.91.36,27.55a2.66,2.66,0,0,1-.68,1.87A3.38,3.38,0,0,1,372,173.06Z"/></g></svg>