<?xml version="1.0" encoding="utf-8"?>
<!-- Generator: Adobe Illustrator 21.1.0, SVG Export Plug-In . SVG Version: 6.00 Build 0)  -->
<svg version="1.1"
	 id="svg2" inkscape:version="0.91 r13725" sodipodi:docname="das_erste.svg" xmlns:cc="http://creativecommons.org/ns#" xmlns:dc="http://purl.org/dc/elements/1.1/" xmlns:inkscape="http://www.inkscape.org/namespaces/inkscape" xmlns:rdf="http://www.w3.org/1999/02/22-rdf-syntax-ns#" xmlns:sodipodi="http://sodipodi.sourceforge.net/DTD/sodipodi-0.dtd" xmlns:svg="http://www.w3.org/2000/svg"
	 xmlns="http://www.w3.org/2000/svg" xmlns:xlink="http://www.w3.org/1999/xlink" x="0px" y="0px" viewBox="0 0 512 143.7"
	 style="enable-background:new 0 0 512 143.7;" xml:space="preserve">
<style type="text/css">
	.st0{fill:#001A4B;}
</style>
<sodipodi:namedview  bordercolor="#666666" borderopacity="1" gridtolerance="10" guidetolerance="10" id="namedview3562" inkscape:current-layer="svg2" inkscape:cx="109.24038" inkscape:cy="24.060499" inkscape:pageopacity="0" inkscape:pageshadow="2" inkscape:window-height="924" inkscape:window-maximized="0" inkscape:window-width="1730" inkscape:window-x="0" inkscape:window-y="0" inkscape:zoom="1.21" objecttolerance="10" pagecolor="#ffffff" showgrid="false">
	</sodipodi:namedview>
<g id="layer1" transform="matrix(3.1165331,0,0,3.1165331,-240.32865,-163.23035)">
	<path id="path3054" inkscape:connector-curvature="0" class="st0" d="M99.7,52.4c-12.6,0.4-22.6,10.7-22.6,23.3
		c0.3,12.9,10.9,23.1,23.8,22.8c12.5-0.3,22.5-10.3,22.8-22.8c0-12.9-10.4-23.3-23.3-23.3C100.2,52.4,99.9,52.4,99.7,52.4L99.7,52.4
		z M109.7,61.9v23.1l-15.5,5.7V73.2l-7.6,2.7v-5.7L109.7,61.9L109.7,61.9z M223.8,65.9l-3.7,1v4.4h-2.4v2.8h2.5v7.3
		c0,3.3,1,4.5,4.2,4.5c1,0,2.1-0.1,3-0.4v-3c-0.5,0.1-1.2,0.3-1.8,0.3c-1.3,0-1.7-0.5-1.7-2.4v-6.3h3.5v-2.8h-3.5L223.8,65.9
		L223.8,65.9z M141.1,66.1c-2.4,0-4.7,0.1-6.3,0.2v19.3c1.6,0.1,3.4,0.1,5.4,0.1c6.3,0,10.7-3.5,10.7-10.1
		C150.9,68.7,147.1,66.1,141.1,66.1L141.1,66.1z M185,66.2v19.4h10.5v-3.2h-6.8v-5.3h6.4v-3h-6.4v-4.8h6.8v-3.1L185,66.2L185,66.2z
		 M139.6,69.2c0.4,0,0.8,0,1.3,0c4.4,0,6,2.5,6,6.6c0,4.6-2.6,6.6-6.3,6.6c-0.7,0-1.5,0-2-0.1V69.3
		C138.9,69.3,139.2,69.2,139.6,69.2L139.6,69.2z M158.5,71c-1.8,0-3.7,0.4-5.1,0.9l0.3,3.1c1.2-0.7,2.9-1.1,4.2-1.1
		c2.1,0,2.8,0.8,2.8,2.3v0.8c-4.8,0-8.2,1.8-8.2,5.2c0,2.3,1.5,3.8,4.1,3.8c2.1,0,3.9-1.1,4.6-2.7l0,0c-0.1,0.7-0.1,1.6-0.1,2.4h3.5
		c-0.1-1.2-0.1-2.5-0.1-3.7v-5.9C164.4,72.9,163.1,71,158.5,71L158.5,71z M173.1,71c-4,0-6.1,2.1-6.1,4.6c0,4.8,5.8,3.4,5.8,5.9
		c0,0.9-0.9,1.5-2.3,1.5c-1.1,0-2.2-0.2-3.1-0.4l-0.1,3c0.9,0.1,2,0.3,3,0.3c3.9,0,6.3-1.9,6.3-4.7c0-4.6-5.8-3.6-5.8-5.9
		c0-0.9,0.7-1.5,2.1-1.5c0.9,0,1.8,0.1,2.6,0.4l0.1-2.9C174.8,71.1,173.9,71,173.1,71L173.1,71z M206.3,71c-2.5-0.2-3.8,1.4-4.5,3.2
		h-0.1c0.2-1,0.3-2.1,0.3-2.8h-3.5v14.3h3.7v-5.8c0-4,1.3-5.7,4-5.1L206.3,71L206.3,71z M213.4,71c-4,0-6.1,2.1-6.1,4.6
		c0,4.8,5.8,3.4,5.8,5.9c0,0.9-0.9,1.5-2.3,1.5c-1.1,0-2.2-0.2-3.1-0.4l-0.1,3c0.9,0.1,2,0.3,3,0.3c3.9,0,6.4-1.9,6.4-4.7
		c0-4.6-5.9-3.6-5.9-5.9c0-0.9,0.7-1.5,2.1-1.5c0.9,0,1.9,0.1,2.7,0.4l0.1-2.9C215.1,71.1,214.2,71,213.4,71L213.4,71z M235.4,71
		c-4.3,0-6.7,3.2-6.7,7.6c0,5,2.5,7.3,7.1,7.3c1.8,0,3.6-0.3,5.1-0.9l-0.3-2.8c-1.2,0.6-2.8,0.9-4.2,0.9c-2.6,0-4-1.3-3.9-4h8.8
		c0.1-0.6,0.1-1.2,0.1-1.7C241.4,73.8,239.6,71,235.4,71L235.4,71z M235.3,73.7c1.5,0,2.5,1.1,2.5,2.8h-5.3
		C232.7,74.8,233.8,73.7,235.3,73.7L235.3,73.7z M160.7,79.3v0.3c0,1.7-1.2,3.4-3,3.4c-1.1,0-1.7-0.6-1.7-1.5
		C156,80.4,156.8,79.3,160.7,79.3L160.7,79.3z"/>
</g>
</svg>
