<?xml version="1.0" encoding="utf-8"?>
<!-- Generator: Adobe Illustrator 21.1.0, SVG Export Plug-In . SVG Version: 6.00 Build 0)  -->
<svg version="1.1"
	 id="svg3317" inkscape:output_extension="org.inkscape.output.svg.inkscape" inkscape:version="0.91 r13725" sodipodi:docname="Goldstar_TV_Logo.svg" sodipodi:version="0.32" xmlns:cc="http://creativecommons.org/ns#" xmlns:dc="http://purl.org/dc/elements/1.1/" xmlns:inkscape="http://www.inkscape.org/namespaces/inkscape" xmlns:rdf="http://www.w3.org/1999/02/22-rdf-syntax-ns#" xmlns:sodipodi="http://sodipodi.sourceforge.net/DTD/sodipodi-0.dtd" xmlns:svg="http://www.w3.org/2000/svg"
	 xmlns="http://www.w3.org/2000/svg" xmlns:xlink="http://www.w3.org/1999/xlink" x="0px" y="0px" viewBox="0 0 487.5 288"
	 style="enable-background:new 0 0 487.5 288;" xml:space="preserve">
<style type="text/css">
	.st0{fill:#0F4083;}
	.st1{fill:url(#path3265_1_);}
</style>
<defs>
	
	
		<inkscape:perspective  id="perspective3325" inkscape:persp3d-origin="372.04724 : 350.78739 : 1" inkscape:vp_x="0 : 526.18109 : 1" inkscape:vp_y="0 : 1000 : 0" inkscape:vp_z="744.09448 : 526.18109 : 1" sodipodi:type="inkscape:persp3d">
		</inkscape:perspective>
</defs>
<sodipodi:namedview  bordercolor="#666666" borderopacity="1.0" id="base" inkscape:current-layer="layer1" inkscape:cx="293.28005" inkscape:cy="300" inkscape:document-units="px" inkscape:pageopacity="0.0" inkscape:pageshadow="2" inkscape:window-height="1005" inkscape:window-maximized="0" inkscape:window-width="1280" inkscape:window-x="-4" inkscape:window-y="0" inkscape:zoom="0.82892518" pagecolor="#ffffff" showgrid="false">
	</sodipodi:namedview>
<g id="layer1" transform="translate(117.88845,-494.23151)" inkscape:groupmode="layer" inkscape:label="Ebene 1">
	<g id="g3289" transform="matrix(0.4867415,0,0,0.4867415,-890.61244,1261.3352)">
		<g id="g3238" transform="translate(-220.30275,-284.36117)">
			<path id="path2485" inkscape:connector-curvature="0" sodipodi:nodetypes="ccsssccccccsc" class="st0" d="M1900.6-891.6v-23.6
				c0,0-92.7-24.8-92.7,49.2c0,10.9,3.9,19.8,7.5,27.2c13.6,28.2,46.6,32.9,65.6,32.9c6.9,0,23.1,0,23.1,0v-71.4h-37v23.5h14v22.6
				c0,0-45.7,2.7-45.7-34.7C1835.2-910,1900.6-891.6,1900.6-891.6L1900.6-891.6z"/>
			<rect id="rect2487" x="2011.2" y="-919.1" class="st0" width="26.1" height="113.3"/>
			<path id="path3259" inkscape:connector-curvature="0" sodipodi:nodetypes="csssccsssc" class="st0" d="M1957.8-888.6
				c-22.9,0-41.5,18.6-41.5,41.5c0,22.9,18.6,41.5,41.5,41.5c22.9,0,41.5-18.6,41.5-41.5C1999.3-870,1980.7-888.6,1957.8-888.6z
				 M1957.6-864.3c9.7,0,17.5,7.9,17.5,17.5c0,9.7-7.9,17.5-17.5,17.5c-9.7,0-17.5-7.8-17.5-17.5S1947.9-864.3,1957.6-864.3z"/>
			<path id="path3266" inkscape:connector-curvature="0" sodipodi:nodetypes="cccsccccccsssc" class="st0" d="M2110.1-918.6v36.8
				c-26.5-15.1-59.1,7.7-58.9,31.2c0,4.4-0.1,8.5,0.5,12.3c5.4,30.8,33,38.2,58.4,29.2v3.5h25.4v-112.9H2110.1z M2093.2-863.4
				c10.7,0,19.3,8,19.3,18c0,9.9-8.7,18-19.3,18s-19.3-8-19.3-18C2073.8-855.4,2082.5-863.4,2093.2-863.4z"/>
			<path id="path3271" inkscape:connector-curvature="0" sodipodi:nodetypes="ccsssccsssc" class="st0" d="M2210.6-894.7v-22.2
				c0,0-55.9-12.1-55.5,24.9c0,5.3,0.2,12.1,2.4,16.4c8.7,16.7,30.9,22.8,31.1,36.5c0.1,12.7-33.5,4.5-33.5,4.5v24.5
				c0,0,13.3,5.5,27,4.2c16.6-1.6,34-15,34-30.4c0-34.6-34.2-37.3-34.7-53.4C2181-900.8,2210.6-894.7,2210.6-894.7L2210.6-894.7z"/>
			<path id="path3281" inkscape:connector-curvature="0" sodipodi:nodetypes="ccccccsssccscccccc" class="st0" d="M2255.4-905.3
				h-23.9v19.7h-6.4v21.4h6.4c0,0,0,29.9,0,42.3c0,3.3,1.2,7.9,3.1,10.6c1.7,2.3,5,5.6,12.1,5.6c6.5,0,18.1,0,18.1,0v-23.1
				c0,0-4.8,0.2-6.4-0.5c-3-1.3-3-3.8-3-3.8v-31.1h12v-21.4h-12L2255.4-905.3L2255.4-905.3z"/>
			<path id="path3283" inkscape:connector-curvature="0" class="st0" d="M2320.8-887.3c-20,0-31.7,7.5-31.7,7.5v20.9
				c0,0,16.3-7.2,23.7-7.1c6.1,0.1,17.9,0.5,19.3,6.5c0.3,1.3-1.9,3.5-3.2,3.2c-26.2-5.8-45.4,6.3-46.2,23.4
				c-1.3,27.1,23.3,33.9,48.2,23.4l1.6,3.7h21.5c0,0,0-46.3,0-62.7C2354.1-880,2334.9-887.3,2320.8-887.3z M2318.5-839.3
				c6.8,0,12.4,3.5,12.4,7.8c0,4.3-5.6,7.8-12.4,7.8s-12.4-3.5-12.4-7.8C2306.1-835.8,2311.7-839.3,2318.5-839.3z"/>
			<path id="path3172" inkscape:connector-curvature="0" sodipodi:nodetypes="ccccscssccc" class="st0" d="M2375.5-887.3v81.5h24.2
				v-36.5c0,0,0-7.2,7.1-12c4-2.7,15.6-3.2,15.6-3.2s0-24.2,0-25.3c0-0.5,0-4.5-6.9-4.5c-7.1,0-15.7,10.1-15.7,10.1v-10.1H2375.5z"
				/>
			<path id="path3176" inkscape:connector-curvature="0" sodipodi:nodetypes="cccccccccccsscc" class="st0" d="M2430.4-919v26.1
				h26.1v87.2h27.3v-87.2h42.7l20.1,87.2h37.2l24.8-113.2h-25.7c0,0-12.3,58.7-15.6,72.8c-0.2,0.9-2.6,0.9-2.9,0
				c-6.5-17.8-16.6-72.8-16.6-72.8H2430.4L2430.4-919z"/>
		</g>
		<g id="g3249" transform="translate(-219.044,-283.69243)">
			<path id="path3182" inkscape:connector-curvature="0" sodipodi:nodetypes="cccccccsscccc" class="st0" d="M2187.9-736.5
				c-8.5,11-25.6,35.8-25.6,35.8h9.7l6-8.9h24.7l6.3,8.9h9.2c0,0-18.7-26.4-25.7-35.7C2191.7-737.4,2188.8-737.5,2187.9-736.5z
				 M2190.1-727.5l7.7,10.9h-15L2190.1-727.5z"/>
			<path id="path3195" inkscape:connector-curvature="0" sodipodi:nodetypes="csssccssscc" class="st0" d="M2220.2-736.9
				c0,0,0.1,17.7,0.1,26c0,1.7-0.2,5.1,3.2,7.9c2.7,2.3,7.6,2.4,9.1,2.4c9,0,25.5,0,25.5,0v-7.1c0,0-17.1,0-24.5,0
				c-1.3,0-2.6-0.4-3.7-1.2c-0.8-0.5-1.7-1.7-1.7-2.6c0.1-7.2,0-25.4,0-25.4H2220.2L2220.2-736.9z"/>
			<path id="path3197" inkscape:connector-curvature="0" sodipodi:nodetypes="csssccssscc" class="st0" d="M2261.9-736.9
				c0,0,0.1,17.7,0.1,26c0,1.7-0.2,5.1,3.2,7.9c2.7,2.3,7.6,2.4,9.1,2.4c9,0,25.5,0,25.5,0v-7.1c0,0-17.1,0-24.5,0
				c-1.3,0-2.6-0.4-3.7-1.2c-0.8-0.5-1.7-1.7-1.7-2.6c0.1-7.2,0-25.4,0-25.4H2261.9L2261.9-736.9z"/>
			<path id="path3209" inkscape:connector-curvature="0" sodipodi:nodetypes="ccsssssscccsccccssc" class="st0" d="M2344.6-730.1
				v-6.8c0,0-17.7,0-26.2,0c-5.5,0-8,1.3-9.9,2.6c-2.5,1.8-4.1,4.2-4.1,7.6c0,8.3,0,12,0,17.3c0,1.6,1.6,4.9,3.8,6.5
				c2.6,1.9,7.6,2.3,10.1,2.3c8.7,0,26.2,0,26.2,0v-7.1h-26.9c0,0-4,0.3-5.2-0.9c-1.4-1.4-0.9-6.5-0.9-6.5h32.9v-6.8h-32.9
				c0,0-0.6-6.4,0.7-7.4c1.1-0.9,2.2-0.8,5-0.8C2326.7-730.1,2344.6-730.1,2344.6-730.1z"/>
			<path id="path3211" inkscape:connector-curvature="0" sodipodi:nodetypes="cssssssccsssssscc" class="st0" d="M2390-736.9
				c0,0-18.1,0-25.9,0c-5.3,0-14.9,2.1-14.9,11.5c0,6.6,7.5,10,12.2,10c4.5,0,9.1,0,13.3,0c2.2,0,7.5,0,7.6,4.2
				c0,3.9-5.6,3.9-7.6,3.9c-7.9,0-25.5,0-25.5,0v6.6c0,0,19.7,0,27.4,0c7.5,0,13.3-2.4,13.3-10.7c0-5-4.4-10.6-12.7-10.6
				c-4.4,0-10.1,0-14.6,0c-2.8,0-5.6-1.2-5.6-4.1c0-2.8,2.8-4.1,5.8-4.1c7.9,0,27.2,0,27.2,0L2390-736.9L2390-736.9z"/>
			<path id="path3213" inkscape:connector-curvature="0" sodipodi:nodetypes="cssssssccsssssscc" class="st0" d="M2458.1-736.9
				c0,0-18.1,0-25.9,0c-5.3,0-14.9,2.1-14.9,11.5c0,6.6,7.5,10,12.2,10c4.5,0,9.1,0,13.3,0c2.2,0,7.5,0,7.6,4.2
				c0,3.9-5.6,3.9-7.6,3.9c-7.9,0-25.5,0-25.5,0v6.6c0,0,19.7,0,27.4,0c7.5,0,13.3-2.4,13.3-10.7c0-5-4.4-10.6-12.7-10.6
				c-4.4,0-10.1,0-14.6,0c-2.8,0-5.6-1.2-5.6-4.1c0-2.8,2.8-4.1,5.8-4.1c7.9,0,27.2,0,27.2,0L2458.1-736.9L2458.1-736.9z"/>
			<path id="path3219" inkscape:connector-curvature="0" sodipodi:nodetypes="ccssssssccssssssc" class="st0" d="M2502.6-730.1v-6.8
				c0,0-19.4,0-27.6,0c-4.8,0-7.1,1.1-9,2.9c-2.3,2-3.3,4.4-3.3,6.6c0,5,0,12.3,0,17.2c0,3.5,1.6,5.4,3.3,6.9
				c1.9,1.6,4.4,2.6,7.9,2.6c8.7,0,28.7,0,28.7,0v-6.6c0,0-19.1,0-27.4,0c-1.1,0-2.5-0.4-3.4-1.1c-0.7-0.5-1.5-1.6-1.5-2.5
				c0.1-4.7,0.1-11.2,0-15.9c0-0.8,0.6-1.8,1.2-2.4c0.6-0.6,1.8-1,2.6-1C2482.5-730.1,2502.6-730.1,2502.6-730.1L2502.6-730.1z"/>
			<path id="path2425" inkscape:connector-curvature="0" class="st0" d="M2516-736.9h-8v36.3h8v-14.5h29.2v14.5h7.3v-36.3h-7.3v14.8
				H2516V-736.9z"/>
			<path id="path3198" inkscape:connector-curvature="0" sodipodi:nodetypes="csssccssscc" class="st0" d="M2558.2-736.9
				c0,0,0.1,17.7,0.1,26c0,1.7-0.2,5.1,3.2,7.9c2.7,2.3,7.6,2.4,9.1,2.4c9,0,25.5,0,25.5,0v-7.1c0,0-17.1,0-24.5,0
				c-1.3,0-2.6-0.4-3.7-1.2c-0.8-0.5-1.7-1.7-1.7-2.6c0.1-7.2,0-25.4,0-25.4H2558.2L2558.2-736.9z"/>
			<path id="path3200" inkscape:connector-curvature="0" sodipodi:nodetypes="cccccccsscccc" class="st0" d="M2623.3-736.5
				c-8.5,11-25.6,35.8-25.6,35.8h9.7l6-8.9h24.7l6.3,8.9h9.2c0,0-18.7-26.4-25.7-35.7C2627.1-737.4,2624.2-737.5,2623.3-736.5z
				 M2625.5-727.5l7.7,10.9h-15L2625.5-727.5z"/>
			<path id="path3202" inkscape:connector-curvature="0" sodipodi:nodetypes="ccsssssscccsccccssc" class="st0" d="M2744.6-730.1
				v-6.8c0,0-17.7,0-26.2,0c-5.5,0-8,1.3-9.9,2.6c-2.5,1.8-4.1,4.2-4.1,7.6c0,8.3,0,12,0,17.3c0,1.6,1.6,4.9,3.8,6.5
				c2.6,1.9,7.6,2.3,10.1,2.3c8.7,0,26.2,0,26.2,0v-7.1h-26.9c0,0-4,0.3-5.2-0.9c-1.4-1.4-0.9-6.5-0.9-6.5h32.9v-6.8h-32.9
				c0,0-0.6-6.4,0.7-7.4c1.1-0.9,2.2-0.8,5-0.8C2726.6-730.1,2744.6-730.1,2744.6-730.1z"/>
			<path id="path3214" inkscape:connector-curvature="0" sodipodi:nodetypes="csssssssssccssssssscc" class="st0" d="M2699.5-737
				c0,0-22.8,0-32.3,0c-2.5,0-6,1.3-7.9,3c-1.7,1.6-3.4,4.7-3.4,7.1c0,4.9,0,11.6,0,16.4c0,2.4,1.8,5.6,3.6,7.1
				c2,1.7,5.8,2.7,8.5,2.7c5.7,0,13.1,0,18.7,0c2.7,0,6.6-0.8,8.7-2.6c2.1-1.8,4-2.9,4-8.9c0-3.2,0-9.8,0-9.8h-7.6
				c0,0,0.1,6.8,0.1,9.6c0,1-0.9,2.2-1.6,2.9c-0.9,0.9-2.6,1.7-3.9,1.7c-5.9,0-11.7,0-18.3,0c-2,0-4.4-1.1-4.4-3.7
				c0-4.6,0-9.9,0-14.9c0-1.8,1.3-3.6,4.3-3.6c9.3,0,31.4,0,31.4,0L2699.5-737L2699.5-737z"/>
			<path id="path3226" inkscape:connector-curvature="0" class="st0" d="M2749.4-736.9v36.2h7.3v-12.8l21.3,12.8h14.7l-22.4-13.2
				c4.6,0,7.6,0,10.2,0c5.9,0,12.2-3.3,12.2-11.3s-6.5-11.7-13.7-11.7S2749.4-736.9,2749.4-736.9z M2756.7-729.9c0,0,16.2,0,23.1,0
				c3,0,5.6,0.8,5.6,4.7c0,3.9-2.7,4.5-5.7,4.5c-6.6,0-22.9,0-22.9,0V-729.9z"/>
			<ellipse id="path3234" class="st0" cx="2802.8" cy="-705" rx="5.2" ry="4.4"/>
		</g>
		
			<radialGradient id="path3265_1_" cx="7222.481" cy="1437.7139" r="103.367" gradientTransform="matrix(-2.0048 -1.0937 -0.7544 1.3829 17642.6895 4440.7295)" gradientUnits="userSpaceOnUse">
			<stop  offset="0" style="stop-color:#F7DF25"/>
			<stop  offset="1" style="stop-color:#DFA014"/>
		</radialGradient>
		
			<path id="path3265" inkscape:flatsided="false" inkscape:randomized="0" inkscape:rounded="0" sodipodi:arg1="0.59475926" sodipodi:arg2="0.93227132" sodipodi:cx="2455.8193" sodipodi:cy="-1239.0181" sodipodi:r1="105.22789" sodipodi:r2="40.588844" sodipodi:sides="9" sodipodi:type="star" class="st1" d="
			M2136.7-1292.5l-108.9-45.6l8.1,118.6l-54.1-104.9l-70.1,96.1l26-115.2l-115.4,28.6l93.9-71.5l-106.8-52.3l117.9,5.6l-48.2-108.7
			l86.7,80.1l33-114.3l15,117.1l98.7-66.3l-63.8,99.3l118.2,12.6l-112.7,35.1L2136.7-1292.5z"/>
	</g>
</g>
</svg>
