<?xml version="1.0" encoding="utf-8"?>
<!-- Generator: Adobe Illustrator 21.1.0, SVG Export Plug-In . SVG Version: 6.00 Build 0)  -->
<svg version="1.1"
	 id="svg3544" inkscape:version="0.91 r13725" sodipodi:docname="Hamburg-1-Logo.svg" xmlns:cc="http://creativecommons.org/ns#" xmlns:dc="http://purl.org/dc/elements/1.1/" xmlns:inkscape="http://www.inkscape.org/namespaces/inkscape" xmlns:rdf="http://www.w3.org/1999/02/22-rdf-syntax-ns#" xmlns:sodipodi="http://sodipodi.sourceforge.net/DTD/sodipodi-0.dtd" xmlns:svg="http://www.w3.org/2000/svg"
	 xmlns="http://www.w3.org/2000/svg" xmlns:xlink="http://www.w3.org/1999/xlink" x="0px" y="0px" viewBox="0 0 384.8 288"
	 style="enable-background:new 0 0 384.8 288;" xml:space="preserve">
<style type="text/css">
	.st0{fill:#9A181E;}
	.st1{fill:#E3E4E4;}
	.st2{fill:#092950;}
	.st3{fill:#002458;}
</style>
<sodipodi:namedview  bordercolor="#666666" borderopacity="1.0" fit-margin-bottom="0" fit-margin-left="0" fit-margin-right="0" fit-margin-top="0" id="base" inkscape:current-layer="layer1" inkscape:cx="208.07593" inkscape:cy="164.3276" inkscape:document-units="px" inkscape:pageopacity="0.0" inkscape:pageshadow="2" inkscape:window-height="984" inkscape:window-maximized="1" inkscape:window-width="1920" inkscape:window-x="0" inkscape:window-y="0" inkscape:zoom="1.8567357" pagecolor="#ffffff" showgrid="false">
	</sodipodi:namedview>
<g id="layer1" transform="translate(-242.23103,-243.02976)" inkscape:groupmode="layer" inkscape:label="Ebene 1">
	<g id="g454" transform="matrix(5.2882081,0,0,-5.2882081,654.42939,242.65811)">
		<path id="path456" inkscape:connector-curvature="0" class="st0" d="M-12-0.1l-65.9-7.8v-30.3h56.3L-12-0.1z"/>
	</g>
	<g id="g458" transform="matrix(5.2882081,0,0,-5.2882081,690.43891,283.98435)">
		<path id="path460" inkscape:connector-curvature="0" class="st1" d="M-12-0.1l-72.8,0v-46.6h61L-12-0.1z"/>
	</g>
	<path id="path462" inkscape:connector-curvature="0" class="st0" d="M427.1,350.1h47.3v150.2h-47.3L427.1,350.1L427.1,350.1z"/>
	<g id="g464" transform="matrix(5.2882081,0,0,-5.2882081,364.67159,344.70148)">
		<path id="path466" inkscape:connector-curvature="0" class="st2" d="M-12-0.1v6.6h-1.6V4.1h-1.3v2.5h-1.6v-6.6h1.6v2.8h1.3v-2.8
			H-12z"/>
	</g>
	<g id="g468" transform="matrix(5.2882081,0,0,-5.2882081,85.8344,2818.5648)">
		<g>
			<g id="g470">
				<g id="g476" transform="translate(56.3,470.3264)">
					<path id="path478" inkscape:connector-curvature="0" class="st2" d="M-12-0.1h-0.8l0,0.2c0.2,0.9,0.3,1.6,0.4,2.2
						c0.1-0.6,0.2-1.3,0.4-2.2L-12-0.1z M-9.9-2.6L-11.6,4h-1.6l-1.7-6.6h1.6l0.2,1.2h1.3l0.2-1.2H-9.9z"/>
				</g>
				<g id="g480" transform="translate(64.4012,467.8075)">
					<path id="path482" inkscape:connector-curvature="0" class="st2" d="M-12-0.1v6.6h-1.4L-14,4.9c-0.3-0.8-0.5-1.3-0.6-1.8
						c-0.2,0.4-0.3,1-0.6,1.8l-0.6,1.6h-1.4v-6.6h1.4v1.5c0,0.7,0,1.4,0,1.9c0.1-0.5,0.4-1.1,0.6-1.7l0.6-1.5l0.6,1.5
						c0.2,0.6,0.5,1.1,0.6,1.7c0-0.6,0-1.2,0-1.9v-1.5H-12z"/>
				</g>
				<g id="g484" transform="translate(68.2302,469.8138)">
					<path id="path486" inkscape:connector-curvature="0" class="st2" d="M-12-0.1c0-0.5-0.2-0.8-0.6-0.8h-0.8v1.6h0.7
						C-12.2,0.8-12,0.5-12-0.1 M-12.1,2.7c0-0.5-0.2-0.7-0.5-0.7h-0.7v1.4h0.7C-12.3,3.3-12.1,3.1-12.1,2.7 M-10.4,0
						c0,0.8-0.3,1.2-0.9,1.5c0.5,0.3,0.8,0.6,0.8,1.4c0,1.2-0.6,1.8-1.9,1.8h-2.4v-6.6h2.3C-11.1-2.1-10.4-1.3-10.4,0"/>
				</g>
				<g id="g488" transform="translate(75.0908,470.1281)">
					<path id="path490" inkscape:connector-curvature="0" class="st2" d="M-12-0.1v4.3h-1.6v-4.4c0-0.6-0.2-1-0.7-1
						c-0.5,0-0.7,0.3-0.7,1v4.4h-1.6v-4.3c0-1.6,0.9-2.4,2.3-2.4C-12.9-2.5-12-1.7-12-0.1"/>
				</g>
				<g id="g492" transform="translate(78.8241,472.3725)">
					<path id="path494" inkscape:connector-curvature="0" class="st2" d="M-12-0.1c0-0.5-0.2-0.8-0.6-0.8h-0.6v1.6h0.6
						C-12.2,0.7-12,0.5-12-0.1 M-10.3-4.6l-1,2.9c0.5,0.3,0.9,0.9,0.9,1.7c0,1.5-0.9,2-2.1,2h-2.3v-6.6h1.6v2.5h0.4l0.8-2.5H-10.3z"
						/>
				</g>
				<g id="g496" transform="translate(85.6363,470.3157)">
					<path id="path498" inkscape:connector-curvature="0" class="st2" d="M-12-0.1v1h-2.3v-1.2h0.8v-0.3c0-0.5-0.2-0.8-0.7-0.8
						c-0.6,0-0.8,0.4-0.8,2.1c0,1.5,0.2,2.1,0.7,2.1c0.4,0,0.5-0.3,0.7-1.1l1.5,0.4c-0.3,1.3-0.8,2-2.2,2c-1.6,0-2.4-1.2-2.4-3.4
						c0-2.3,0.9-3.4,2.4-3.4C-12.7-2.7-12-1.7-12-0.1"/>
				</g>
				<g id="g500" transform="translate(48.1892,466.8047)">
					<path id="path502" inkscape:connector-curvature="0" class="st3" d="M-12-0.1H9L-2.9-8.4l4.2-6.1l6.1,4.3v-18.1H-12V-0.1z"/>
				</g>
				<g id="g504" transform="translate(76.5268,466.8492)">
					<path id="path506" inkscape:connector-curvature="0" class="st1" d="M-12-0.1v-28.4h-8.9v18.1l-6.1-4.3l-4.2,6.1l11.9,8.4H-12z
						"/>
				</g>
			</g>
		</g>
	</g>
</g>
</svg>
