<?xml version="1.0" encoding="utf-8"?>
<!-- Generator: Adobe Illustrator 21.1.0, SVG Export Plug-In . SVG Version: 6.00 Build 0)  -->
<svg version="1.1"
	 id="svg3707" inkscape:output_extension="org.inkscape.output.svg.inkscape" inkscape:version="0.91 r13725" sodipodi:docname="Heimatkanal_Logo.svg" sodipodi:version="0.32" xmlns:cc="http://creativecommons.org/ns#" xmlns:dc="http://purl.org/dc/elements/1.1/" xmlns:inkscape="http://www.inkscape.org/namespaces/inkscape" xmlns:rdf="http://www.w3.org/1999/02/22-rdf-syntax-ns#" xmlns:sodipodi="http://sodipodi.sourceforge.net/DTD/sodipodi-0.dtd" xmlns:svg="http://www.w3.org/2000/svg"
	 xmlns="http://www.w3.org/2000/svg" xmlns:xlink="http://www.w3.org/1999/xlink" x="0px" y="0px" viewBox="0 0 341.3 288"
	 style="enable-background:new 0 0 341.3 288;" xml:space="preserve">
<style type="text/css">
	.st0{fill:#F4E11A;}
	.st1{fill:url(#path3643_1_);}
	.st2{fill:url(#path3639_1_);}
	.st3{fill:url(#path3627_1_);}
	.st4{fill:#E6BB18;}
	.st5{fill:url(#path3537_1_);}
	.st6{fill:url(#path3539_1_);}
	.st7{fill:url(#path3541_1_);}
	.st8{fill:url(#path3604_1_);}
	.st9{fill:url(#path3624_1_);}
	.st10{fill:url(#path2462_1_);}
	.st11{fill:url(#path2464_1_);}
	.st12{fill:url(#path2449_1_);}
	.st13{fill:url(#path3291_1_);}
	.st14{fill:url(#path2522_1_);}
	.st15{fill:url(#path3280_1_);}
	.st16{fill:url(#path3298_1_);}
	.st17{fill:url(#path3312_1_);}
	.st18{fill:url(#path3361_1_);}
	.st19{fill:url(#path3372_1_);}
	.st20{fill:url(#path3377_1_);}
	.st21{fill:url(#path3379_1_);}
	.st22{fill:url(#path3381_1_);}
	.st23{fill:url(#path3383_1_);}
	.st24{fill:url(#path3388_1_);}
	.st25{fill:url(#path3390_1_);}
	.st26{fill:url(#path3392_1_);}
	.st27{fill:url(#path3394_1_);}
	.st28{fill:url(#path3396_1_);}
	.st29{fill:url(#path3398_1_);}
</style>
<defs>
	
	
		<inkscape:perspective  id="perspective3715" inkscape:persp3d-origin="372.04724 : 350.78739 : 1" inkscape:vp_x="0 : 526.18109 : 1" inkscape:vp_y="0 : 1000 : 0" inkscape:vp_z="744.09448 : 526.18109 : 1" sodipodi:type="inkscape:persp3d">
		</inkscape:perspective>
</defs>
<sodipodi:namedview  bordercolor="#666666" borderopacity="1.0" id="base" inkscape:current-layer="layer1" inkscape:cx="298.94536" inkscape:cy="531.55383" inkscape:document-units="px" inkscape:pageopacity="0.0" inkscape:pageshadow="2" inkscape:window-height="1005" inkscape:window-maximized="0" inkscape:window-width="1280" inkscape:window-x="-4" inkscape:window-y="0" inkscape:zoom="0.53011009" pagecolor="#ffffff" showgrid="false" showguides="false">
	</sodipodi:namedview>
<g id="layer1" transform="translate(410.00864,-860.10805)" inkscape:groupmode="layer" inkscape:label="Ebene 1">
	<g id="g3653" transform="matrix(0.37450782,0,0,0.37450782,-440.5052,768.16822)">
		<path id="path3612" inkscape:connector-curvature="0" class="st0" d="M552.7,245.5c-202.8,0-367.4,164.6-367.4,367.4
			c0,75.8,23,146.4,62.5,204.9L426.3,745l251.8-4l180.3,75.4c38.8-58.3,61.5-128.2,61.5-203.5C920,410.1,755.5,245.5,552.7,245.5
			L552.7,245.5z"/>
		
			<radialGradient id="path3643_1_" cx="-111.0722" cy="-162.5586" r="367.3907" gradientTransform="matrix(0.2647 0 0 -0.2697 582.0416 541.6712)" gradientUnits="userSpaceOnUse">
			<stop  offset="0" style="stop-color:#B2241E"/>
			<stop  offset="1" style="stop-color:#B2241E;stop-opacity:0"/>
		</radialGradient>
		<path id="path3643" inkscape:connector-curvature="0" class="st1" d="M552.7,245.5c-202.8,0-367.4,164.6-367.4,367.4
			c0,75.8,23,146.4,62.5,204.9L426.3,745l251.8-4l180.3,75.4c38.8-58.3,61.5-128.2,61.5-203.5C920,410.1,755.5,245.5,552.7,245.5
			L552.7,245.5z"/>
		
			<radialGradient id="path3639_1_" cx="-468.2759" cy="-70.9665" r="367.2222" gradientTransform="matrix(0.2345 2.745584e-03 2.675941e-03 -0.2285 662.956 570.59)" gradientUnits="userSpaceOnUse">
			<stop  offset="0" style="stop-color:#B2241E"/>
			<stop  offset="1" style="stop-color:#B2241E;stop-opacity:0"/>
		</radialGradient>
		<path id="path3639" inkscape:connector-curvature="0" class="st2" d="M552.7,245.5c-202.8,0-367.4,164.6-367.4,367.4
			c0,75.8,23,146.4,62.5,204.9L426.3,745l251.8-4l180.3,75.4c38.8-58.3,61.5-128.2,61.5-203.5C920,410.1,755.5,245.5,552.7,245.5
			L552.7,245.5z"/>
		
			<radialGradient id="path3627_1_" cx="-598.8852" cy="40.9223" r="367.3906" gradientTransform="matrix(0.2243 0 0 -0.1951 686.9977 606.9713)" gradientUnits="userSpaceOnUse">
			<stop  offset="0" style="stop-color:#B2241E"/>
			<stop  offset="1" style="stop-color:#B2241E;stop-opacity:0"/>
		</radialGradient>
		<path id="path3627" inkscape:connector-curvature="0" class="st3" d="M552.7,245.5c-202.8,0-367.4,164.6-367.4,367.4
			c0,75.8,23,146.4,62.5,204.9L426.3,745l251.8-4l180.3,75.4c38.8-58.3,61.5-128.2,61.5-203.5C920,410.1,755.5,245.5,552.7,245.5
			L552.7,245.5z"/>
		<g id="g2526" transform="translate(-800.95157,1168.9322)">
			<path id="path2518" inkscape:connector-curvature="0" d="M1363.3-155.1c-3.3-1.3-2.9-5.6,1.7-16.6c4.5-10.8,3.9-11.7-3.5-5.2
				c-3.5,3.1-5.9,6.5-8.7,12.6c-3.6,7.6-4.1,8.3-6.8,8.3c-1.9,0-3-0.5-3-1.4c0-0.8,1.9-6.2,4.1-12.1c2.3-5.9,3.9-11,3.5-11.3
				c-0.9-0.9-7.2,4.2-9.8,7.9c-1.2,1.7-3.4,6.1-4.9,9.7c-2.2,5.4-3.2,6.7-5.6,7.4c-1.6,0.4-3.2,0.5-3.5,0.1
				c-0.3-0.4,1.6-7.1,4.3-14.8c4.6-13.1,5.2-14.2,8.1-15.3c3.8-1.4,5.4-0.3,3.8,2.6c-1.8,3.4-1.3,3.4,4-0.3c7.9-5.4,14.7-4.3,12.3,2
				c-0.5,1.2,0.9,0.7,4.6-1.9c6.1-4.2,11.5-4.9,12.6-1.7c0.4,1.2-1,6.1-3.6,12.5c-2.3,5.8-3.9,11.2-3.6,12.1
				c0.4,1.1,1.9,1.6,4.7,1.6c6,0,5.5,2.7-0.7,3.5c-2.6,0.4-5.4,0.8-6.3,1C1366.2-154.3,1364.5-154.6,1363.3-155.1L1363.3-155.1z
				 M1408.2-155.3c-3.7-1.9-3.7-6.2-0.1-15.5c1.7-4.3,3.1-8.2,3.1-8.6c0-0.4-1.3-0.8-3-0.8c-3.5,0-3.6-0.2-1.4-3.6
				c1.1-1.6,2.6-2.5,4.4-2.5c2.5,0,3-0.7,5.2-6.7c2.2-6,2.8-6.8,5.8-7.6c1.8-0.5,3.6-0.6,3.9-0.3c0.3,0.3-0.4,3.4-1.7,6.8
				c-3.1,8.4-3.1,8.2,0.6,8.6c1.8,0.2,3.2,0.6,3.2,1c-0.1,2-3,4.1-5.9,4.4c-3.2,0.3-3.5,0.7-6.2,7.9c-4.5,12-4.1,13.1,5.2,13.1
				c6.4,0,6.9,2.5,0.7,3.5C1412-154.1,1410.6-154.1,1408.2-155.3L1408.2-155.3z M1493.6-155.1c-12.6-2.2-25.2-9.2-36.4-20.2
				c-7.9-7.7-9.6-10.9-5.9-10.9c1.1,0,2.5-0.9,3.3-1.9c1.3-1.8,1.8-1.8,12.9-0.5c16.9,2,60,4,61.1,2.9c1.9-2.1,10.5-30,9.3-30.4
				c-1.8-0.6-1.4-2.2,1.8-6.2c3-3.8,12.5-8.8,13.6-7.1c0.3,0.5-0.8,3.8-2.5,7.5c-2.6,5.7-13.1,35-13.1,36.4c0,0.3,1.4,0.3,3.2,0.2
				c2.9-0.3,3.3-0.8,5.4-6.8c7.5-22.2,19-37.6,28.3-37.6c5.9,0,7.7,3.2,7,12.2c-1.2,15.9-9.9,27.7-24.8,33.1l-5.5,2l-1.8,6.9
				c-3.5,13.9-2.7,14.9,11.6,14.9c12.9,0,16.2-1.2,17-6.5c0.8-5.3,6.2-12.8,12-17c3.7-2.6,6.2-3.6,10.3-3.9c5-0.4,5.5-0.3,6.5,2.1
				c1,2.2,0.8,3.3-1.1,6.9c-2.6,5-7.8,10.7-13.3,14.5c-2.1,1.4-3.5,3.1-3.2,3.6c0.3,0.5,4.4,0.8,9.2,0.7c10.6-0.4,11.9,1.2,2.8,3.5
				c-9.4,2.4-15.6,2.1-19.8-0.7l-3.4-2.3l-7.5,2.4c-9.6,3-23,3.5-27.7,1c-5.1-2.7-5.5-6.1-2.5-17.7l1.9-7.3l-3.1,0.3
				c-2.6,0.3-3.6,1.2-6.3,6.3C1524.7-159,1510.8-152.1,1493.6-155.1L1493.6-155.1z M1517.2-162.3c3.3-2.9,9.4-13.6,9.4-16.4
				c0-0.8-8.2-1.3-26.8-1.8c-14.8-0.4-29.1-0.9-31.9-1.2l-5-0.5l6.1,5.8c11.4,10.8,25.4,17.3,37.8,17.3
				C1512.9-159.1,1513.8-159.3,1517.2-162.3L1517.2-162.3z M1593-169.9c3.7-4.1,6.4-10.4,5.3-12.2c-3-4.9-12.6,6.6-12.6,15
				c0,2.7,0.2,3,1.8,2.1C1588.7-165.5,1591.1-167.8,1593-169.9z M1561.2-190.1c3.9-2.2,9.2-9.2,10.6-14c1.5-5.1,2.3-18.5,1.1-20.2
				c-2.4-3.5-7.2,2.8-13.3,17.5c-2.1,5-4.5,11.5-5.3,14.4l-1.6,5.4l2.7-0.7C1557-188,1559.6-189.1,1561.2-190.1L1561.2-190.1z
				 M1383.3-156.3c-2-2-1.5-4.7,3-16.8c3.9-10.4,4.6-11.6,7.7-12.9c2-0.8,3.8-1.1,4.3-0.5c0.5,0.5-0.5,4-2.5,8.4
				c-7,15.3-6.9,19.4,0.7,18.9c2.4-0.2,4.2,0.2,4.4,0.9C1401.8-155.7,1385.8-153.8,1383.3-156.3L1383.3-156.3z M1614.9-156.3
				c-5.5-2.9-3.9-7.8,5.2-16.8c6.7-6.6,7-7.1,4.5-7.1c-1.5,0-2.7,0.4-2.7,0.9c0,1.6-3.1,4.1-5.1,4.1c-1.6,0-1.8-0.6-1.5-3.8
				c0.6-6.5,3.2-11.1,7.6-13.3c4.6-2.4,5.8-1.4,3.6,3l-1.6,3h5.4c3,0,5.7,0.3,6,0.6c0.4,0.4-2,3.6-5.2,7.3
				c-8.6,9.8-10.2,12.2-10.2,14.8c0,3.4,3.3,4.8,9.7,4c4.2-0.5,5.4-0.3,5.4,0.8c0,2-2.5,2.7-11,3.3
				C1619.8-155.1,1616.6-155.4,1614.9-156.3L1614.9-156.3z M1649.2-156.6c-3.9-1.7-7.8-1.9-8.7-0.5c-0.9,1.5-3.5,1.2-3.5-0.4
				c0-0.8,2.3-3.4,5-6c2.8-2.5,5-4.8,5-5.1c0-0.3-1.1-0.6-2.5-0.6s-2.5-0.4-2.5-0.8c0-2,3.9-4.2,7.7-4.2c2.8,0,4.6-0.6,5.9-2
				c1-1.1,1.6-2.2,1.4-2.4c-1.2-1.2-5.8-0.8-7.9,0.7c-2.6,1.9-6,2.3-6,0.8c0-0.5,1-3.4,2.1-6.4c1.4-3.8,2.8-5.7,4.3-6.1
				c3.9-1.1,4.7-0.7,4.1,1.7c-0.5,2.1-0.2,2.3,5.1,2.5c3.3,0.2,6.3-0.2,7.1-0.9c1.1-0.9,1.7-0.9,2.6,0c0.9,0.9-0.1,2.5-4.3,6.7
				l-5.4,5.5h4.4h4.4l-2.9,3.1c-2.5,2.6-3.6,3-7.1,2.8c-2.5-0.2-5.1,0.4-6.5,1.3c-2.3,1.5-2.3,1.6,3.6,3.8c5.7,2.1,8,2.2,13.3,0.6
				c1.7-0.5,2.3-0.3,2.3,1c0,2.2-9.4,6.6-14,6.6C1654.1-155.1,1651-155.8,1649.2-156.6L1649.2-156.6z M1676.9-156.1
				c-3.9-2.3-0.5-8,3.5-5.8c2,1.1,2.3,3.9,0.6,5.7C1679.5-154.8,1679.1-154.8,1676.9-156.1L1676.9-156.1z M1395.7-194.8
				c-1.8-1.9-1.9-2.9-0.5-5.5c2-3.8,8-1.8,8,2.6C1403.2-193.5,1398.8-191.8,1395.7-194.8z M1194.9-206c4.7-12.2,10.6-28.5,11.1-30.7
				l0.7-2.8h-6.7c-3.7,0-9.6,0.7-13.2,1.6c-3.6,0.9-6.8,1.3-7.2,1s1.3-2.7,3.8-5.2c3.9-3.9,4.9-4.5,8.7-4.5c5.8,0,5.4-1.4-1-3.5
				c-23.8-7.7-37.4-24.5-26.3-32.3c1.5-1,4.6-3.5,7.1-5.6s6.1-4.2,8.2-4.8c6.7-1.8,23.5-2.3,39.4-1.2c14.8,1.1,33.9,3.5,34.8,4.4
				c0.2,0.2-0.9,1.9-2.6,3.7l-3,3.3l-8.5-1.3c-4.7-0.7-8.7-1.1-8.9-0.9c-0.7,0.8-12.6,34.2-12.6,35.5c0,1.5,5.3,2.3,23,3.4
				c6.7,0.4,12.4,1.1,12.8,1.4c0.4,0.4-0.1,1.6-1.1,2.7c-1.7,1.9-3.1,2-20.1,2h-18.3l-5,13.8c-2.8,7.6-5.3,14.7-5.7,15.9
				c-0.3,1.1-2.2,2.8-4.2,3.8C1195.5-203.8,1194.1-203.8,1194.9-206L1194.9-206z M1211.7-254.2c0.9-2.6,3.5-10.2,5.8-16.9
				c3.6-10.5,4.5-12.3,6.8-13.1c2.2-0.8,0.1-1.2-10.3-1.8c-24-1.5-42.4,0.7-44.1,5.2c-0.3,0.8-0.1,3.3,0.5,5.6
				c2.1,7.9,13.9,16.7,31.2,23.4c3.5,1.3,6.8,2.5,7.3,2.5S1210.8-251.6,1211.7-254.2L1211.7-254.2z M1257-221.3
				c-2.9-1.2-5.4-4.9-5.4-8c0-7,9.5-19.3,17.3-22.6c5.5-2.3,10.5-2,11.9,0.6c2.4,4.6-4.7,15.3-14.4,21.8c-2.1,1.4-3.8,2.8-3.8,3.3
				c0,1,8.2,2.2,11.2,1.6c1.3-0.3,3.6-0.8,5.2-1.1c2.3-0.5,2.8-0.3,2.5,1.1C1281-221.5,1262.8-219,1257-221.3z M1266.1-233.7
				c6.5-6.5,8.6-14.7,3.7-14.7c-3.9,0-10.1,10.4-10.1,16.9C1259.7-228.3,1261.3-228.9,1266.1-233.7L1266.1-233.7z M1287.8-222.3
				c-3.8-3.8-1.9-8.3,7-16.3c3.3-3,6.1-5.8,6.1-6.1c0-1.6-3.6-0.4-5.5,1.7c-1.1,1.3-3.3,2.7-4.9,3c-2.6,0.6-2.7,0.5-1.7-1.4
				c0.6-1.1,1-2.6,0.8-3.3c-0.6-2.8,3.4-10.9,6.3-12.3c4-2.1,6.4-2,5.5,0.3c-2,4.8-1.9,5.3,1.6,5.4c1.9,0.1,4.1,0,5,0
				c3.7-0.4,2.6,2.4-3.7,9.2c-12.1,13.1-12.4,17.3-1.3,17.3c3.5,0,6.7,0.4,7.1,1c0.9,1.2,2.7-3,7-15.9c2.7-8.3,3.7-10.1,6.2-11.4
				c1.6-0.8,3.6-1.3,4.4-1c1.3,0.5,1.2,1-0.1,3.5c-2.3,4.4-2,4.4,3.2,0.5c2.6-2,5.9-4,7.2-4.6c3.1-1.2,7.1,0.4,7.1,2.7
				c0,0.9-1.8,5.9-4,11.2c-2.2,5.3-4,10.4-4,11.4c0,2.3,2.5,3.2,6.7,2.4c2.6-0.5,3.4-0.3,3.4,0.9c0,3.2-14.7,5-17.5,2.2
				c-1.9-1.9-1.5-4.1,3.1-14.8c4-9.3,4.2-11.3,1.3-9.7c-4.2,2.3-9.4,8.6-12.2,15c-1.6,3.6-3.3,7.3-3.7,8.1c-0.8,1.5-8.1,3.3-8.1,2
				c0-0.4-1.7-0.3-3.8,0.1s-6.6,0.9-10,0.9C1291.1-220.3,1289.4-220.8,1287.8-222.3L1287.8-222.3z M1349-221.7
				c0-0.7,1.1-1.9,2.5-2.5s2.5-1.7,2.5-2.3c0-0.8,1.8-1,5.5-0.7c3,0.3,5.5,0.4,5.5,0.2s-1.6-2.1-3.5-4.4c-5-6-4.9-10,0.8-15.6
				c5.1-5.1,11.4-7.4,15.3-5.7c1.5,0.7,2.5,2,2.5,3.2c0,2.7-6.3,9.6-7.9,8.6c-0.9-0.6-0.9-1.3,0.3-3.1c2.1-3.2,2-3.5-1.2-3.5
				c-3.3,0-7.2,2.5-7.2,4.6c0,0.8,1.6,3.6,3.5,6.1c4.2,5.5,4,7.2-1.6,12.6c-3.7,3.6-4.2,3.8-10.5,3.8
				C1350.7-220.3,1349-220.7,1349-221.7z M1383.1-221c-6.7-2.7-7.9-9.7-3.1-18.1c4.7-8.1,13.6-14.4,20.7-14.4
				c10.8-0.1,5.2,13.8-10.1,24.8c-1.7,1.2-2.7,2.5-2.3,2.9c0.9,0.9,8.7,1.1,14.2,0.4c5.3-0.6,5.9,1.5,0.9,3
				C1399-221,1385.3-220.1,1383.1-221z M1392-234.7c3.5-3.6,6.4-10.2,5.5-12.5c-2.2-5.6-12.3,6.1-12.3,14.3c0,3.1,0.2,3.5,1.8,2.6
				C1387.8-230.8,1390.1-232.8,1392-234.7L1392-234.7z M1428.5-220.9c-2.2-1-1.3-7.2,2.3-16c2-4.7,3.4-9.1,3.2-9.6
				c-0.6-1.8-8.8,5.1-11.8,9.9c-1.6,2.5-3.6,6.8-4.5,9.4c-1.1,3.3-2.3,5-3.8,5.4c-3.2,0.9-4.7,0.8-4.7-0.3
				c0-1.2,18.8-55.3,19.9-57.2c1-1.8,8-4.3,8.7-3.2c0.3,0.5-2.6,8.8-6.5,18.5c-3.9,9.7-7,18-7,18.2c0,0.3,2.1-0.9,4.6-2.6
				c5.8-4,11-5.6,13-3.9c2.1,1.8,1.8,3.6-2.6,13.5c-2.2,4.9-4,10-4,11.3c0,2.1,0.5,2.3,4.5,2.3c3.2,0,4.5,0.4,4.5,1.4
				c0,0.8-0.8,1.7-1.7,2C1440.2-221,1430-220.3,1428.5-220.9L1428.5-220.9z M1453.4-221c-3.7-1.5-6-4.8-6-8.3
				c0.1-11,13.3-24.1,24.3-24.2c4.6,0,6,2.5,4.4,8c-1.1,3.5-10.7,14.2-15.7,17.3c-1.4,0.9-2.2,1.9-1.8,2.3c0.9,0.9,8.6,1.1,14.2,0.5
				c5.3-0.6,5.9,1.5,0.9,3C1469.2-221,1455.5-220.1,1453.4-221L1453.4-221z M1463.9-236.4c4.8-7,5.6-12.1,1.8-12.1
				c-4.1,0-10.3,9.6-10.3,16.1v3.1l3-1.8C1460.1-232,1462.5-234.4,1463.9-236.4L1463.9-236.4z M1478.8-221.7
				c2.3-5.2,6.9-17.7,8.2-22.2c1.4-4.7,2.2-5.9,5-7.2c4.1-2,5.2-1.2,3.7,2.8c-1.4,3.6-1.1,3.7,3,0.6c6-4.5,9.8-5.9,12.4-4.8
				c1.3,0.6,2.4,1.8,2.4,2.7c0,0.9-1.8,5.9-4,11.2c-2.2,5.3-4,10.4-4,11.4c0,2.3,2.5,3.2,6.7,2.4c2.6-0.5,3.4-0.3,3.4,0.9
				c0,2-2.1,2.7-9.6,3.4c-4.9,0.5-6.4,0.2-7.8-1.1c-2.1-2.1-1.7-4.1,3-15c3.8-8.8,3.9-9.7,2-9.7c-2.8,0-9.9,8.3-12.8,14.9
				c-1.6,3.7-3.3,7.4-3.8,8.2C1485.6-221.6,1478.1-220,1478.8-221.7z"/>
			<path id="path2516" inkscape:connector-curvature="0" class="st4" d="M1361-156c-3.3-1.3-2.9-5.6,1.7-16.6
				c4.5-10.8,3.9-11.7-3.5-5.2c-3.5,3.1-5.9,6.5-8.7,12.6c-3.6,7.6-4.1,8.3-6.8,8.3c-1.9,0-3-0.5-3-1.4c0-0.8,1.9-6.2,4.1-12.1
				c2.3-5.9,3.9-11,3.5-11.3c-0.9-0.9-7.2,4.2-9.8,7.9c-1.2,1.7-3.4,6.1-4.9,9.7c-2.2,5.4-3.2,6.7-5.6,7.4c-1.6,0.4-3.2,0.5-3.5,0.1
				c-0.3-0.4,1.6-7.1,4.3-14.8c4.6-13.1,5.2-14.2,8.1-15.3c3.8-1.4,5.4-0.3,3.8,2.6c-1.8,3.4-1.3,3.4,4-0.3c7.9-5.4,14.7-4.3,12.3,2
				c-0.5,1.2,0.9,0.7,4.6-1.9c6.1-4.2,11.5-4.9,12.6-1.7c0.4,1.2-1,6.1-3.6,12.5c-2.3,5.8-3.9,11.2-3.6,12.1
				c0.4,1.1,1.9,1.6,4.7,1.6c6,0,5.5,2.7-0.7,3.5c-2.6,0.4-5.4,0.8-6.3,1C1363.9-155.3,1362.2-155.5,1361-156L1361-156z
				 M1405.9-156.3c-3.7-1.9-3.7-6.2-0.1-15.5c1.7-4.3,3.1-8.2,3.1-8.6c0-0.4-1.3-0.8-3-0.8c-3.5,0-3.6-0.2-1.4-3.6
				c1.1-1.6,2.6-2.5,4.4-2.5c2.5,0,3-0.7,5.2-6.7c2.2-6,2.8-6.8,5.8-7.6c1.8-0.5,3.6-0.6,3.9-0.3c0.3,0.3-0.4,3.4-1.7,6.8
				c-3.1,8.4-3.1,8.2,0.6,8.6c1.8,0.2,3.2,0.6,3.2,1c-0.1,2-3,4.1-5.9,4.4c-3.2,0.3-3.5,0.7-6.2,7.9c-4.5,12-4.1,13.1,5.2,13.1
				c6.4,0,6.9,2.5,0.7,3.5C1409.7-155.1,1408.3-155,1405.9-156.3L1405.9-156.3z M1491.3-156.1c-12.6-2.2-25.2-9.2-36.4-20.2
				c-7.9-7.7-9.6-10.9-5.9-10.9c1.1,0,2.5-0.9,3.3-1.9c1.3-1.8,1.8-1.8,12.9-0.5c16.9,2,60,4,61.1,2.9c1.9-2.1,10.5-30,9.3-30.4
				c-1.8-0.6-1.4-2.2,1.8-6.2c3-3.8,12.5-8.8,13.6-7.1c0.3,0.5-0.8,3.8-2.5,7.5c-2.6,5.7-13.1,35-13.1,36.4c0,0.3,1.4,0.3,3.2,0.2
				c2.9-0.3,3.3-0.8,5.4-6.8c7.5-22.2,19-37.6,28.3-37.6c5.9,0,7.7,3.2,7,12.2c-1.2,15.9-9.9,27.7-24.8,33.1l-5.5,2l-1.8,6.9
				c-3.5,13.9-2.7,14.9,11.6,14.9c12.9,0,16.2-1.2,17-6.5c0.8-5.3,6.2-12.8,12-17c3.7-2.6,6.2-3.6,10.3-3.9c5-0.4,5.5-0.3,6.5,2.1
				c1,2.2,0.8,3.3-1.1,6.9c-2.6,5-7.8,10.7-13.3,14.5c-2.1,1.4-3.5,3.1-3.2,3.6c0.3,0.5,4.4,0.8,9.2,0.7c10.6-0.4,11.9,1.2,2.8,3.5
				c-9.4,2.4-15.6,2.1-19.8-0.7l-3.4-2.3l-7.5,2.4c-9.6,3-23,3.5-27.7,1c-5.1-2.7-5.5-6.1-2.5-17.7l1.9-7.3l-3.1,0.3
				c-2.6,0.3-3.6,1.2-6.3,6.3C1522.4-159.9,1508.5-153.1,1491.3-156.1L1491.3-156.1z M1514.9-163.3c3.3-2.9,9.4-13.6,9.4-16.4
				c0-0.8-8.2-1.3-26.8-1.8c-14.8-0.4-29.1-0.9-31.9-1.2l-5-0.5l6.1,5.8c11.4,10.8,25.4,17.3,37.8,17.3
				C1510.6-160,1511.5-160.3,1514.9-163.3L1514.9-163.3z M1590.7-170.9c3.7-4.1,6.4-10.4,5.3-12.2c-3-4.9-12.6,6.6-12.6,15
				c0,2.7,0.2,3,1.8,2.1C1586.3-166.5,1588.8-168.7,1590.7-170.9z M1558.9-191c3.9-2.2,9.2-9.2,10.6-14c1.5-5.1,2.3-18.5,1.1-20.2
				c-2.4-3.5-7.2,2.8-13.3,17.5c-2.1,5-4.5,11.5-5.3,14.4l-1.6,5.4l2.7-0.7C1554.6-189,1557.2-190.1,1558.9-191L1558.9-191z
				 M1381-157.2c-2-2-1.5-4.7,3-16.8c3.9-10.4,4.6-11.6,7.7-12.9c2-0.8,3.8-1.1,4.3-0.5c0.5,0.5-0.5,4-2.5,8.4
				c-7,15.3-6.9,19.4,0.7,18.9c2.4-0.2,4.2,0.2,4.4,0.9C1399.5-156.7,1383.4-154.7,1381-157.2L1381-157.2z M1612.6-157.2
				c-5.5-2.9-3.9-7.8,5.2-16.8c6.7-6.6,7-7.1,4.5-7.1c-1.5,0-2.7,0.4-2.7,0.9c0,1.6-3.1,4.1-5.1,4.1c-1.6,0-1.8-0.6-1.5-3.8
				c0.6-6.5,3.2-11.1,7.6-13.3c4.6-2.4,5.8-1.4,3.6,3l-1.6,3h5.4c3,0,5.7,0.3,6,0.6c0.4,0.4-2,3.6-5.2,7.3
				c-8.6,9.8-10.2,12.2-10.2,14.8c0,3.4,3.3,4.8,9.7,4c4.2-0.5,5.4-0.3,5.4,0.8c0,2-2.5,2.7-11,3.3
				C1617.5-156,1614.3-156.3,1612.6-157.2L1612.6-157.2z M1646.8-157.5c-3.9-1.7-7.8-1.9-8.7-0.5c-0.9,1.5-3.5,1.2-3.5-0.4
				c0-0.8,2.3-3.4,5-6c2.8-2.5,5-4.8,5-5.1c0-0.3-1.1-0.6-2.5-0.6s-2.5-0.4-2.5-0.8c0-2,3.9-4.2,7.7-4.2c2.8,0,4.6-0.6,5.9-2
				c1-1.1,1.6-2.2,1.4-2.4c-1.2-1.2-5.8-0.8-7.9,0.7c-2.6,1.9-6,2.3-6,0.8c0-0.5,1-3.4,2.1-6.4c1.4-3.8,2.8-5.7,4.3-6.1
				c3.9-1.1,4.7-0.7,4.1,1.7c-0.5,2.1-0.2,2.3,5.1,2.5c3.3,0.2,6.3-0.2,7.1-0.9c1.1-0.9,1.7-0.9,2.6,0c0.9,0.9-0.1,2.5-4.3,6.7
				l-5.4,5.5h4.4h4.4l-2.9,3.1c-2.5,2.6-3.6,3-7.1,2.8c-2.5-0.2-5.1,0.4-6.5,1.3c-2.3,1.5-2.3,1.6,3.6,3.8c5.7,2.1,8,2.2,13.3,0.6
				c1.7-0.5,2.3-0.3,2.3,1c0,2.2-9.4,6.6-14,6.6C1651.8-156.1,1648.7-156.7,1646.8-157.5L1646.8-157.5z M1674.5-157.1
				c-3.9-2.3-0.5-8,3.5-5.8c2,1.1,2.3,3.9,0.6,5.7C1677.2-155.8,1676.8-155.8,1674.5-157.1L1674.5-157.1z M1393.4-195.7
				c-1.8-1.9-1.9-2.9-0.5-5.5c2-3.8,8-1.8,8,2.6C1400.9-194.5,1396.4-192.7,1393.4-195.7z M1192.6-206.9
				c4.7-12.2,10.6-28.5,11.1-30.7l0.7-2.8h-6.7c-3.7,0-9.6,0.7-13.2,1.6c-3.6,0.9-6.8,1.3-7.2,1s1.3-2.7,3.8-5.2
				c3.9-3.9,4.9-4.5,8.7-4.5c5.8,0,5.4-1.4-1-3.5c-23.8-7.7-37.4-24.5-26.3-32.3c1.5-1,4.6-3.5,7.1-5.6s6.1-4.2,8.2-4.8
				c6.7-1.8,23.5-2.3,39.4-1.2c14.8,1.1,33.9,3.5,34.8,4.4c0.2,0.2-0.9,1.9-2.6,3.7l-3,3.3l-8.5-1.3c-4.7-0.7-8.7-1.1-8.9-0.9
				c-0.7,0.8-12.6,34.2-12.6,35.5c0,1.5,5.3,2.3,23,3.4c6.7,0.4,12.4,1.1,12.8,1.4c0.4,0.4-0.1,1.6-1.1,2.7c-1.7,1.9-3.1,2-20.1,2
				h-18.3l-5,13.8c-2.8,7.6-5.3,14.7-5.7,15.9c-0.3,1.1-2.2,2.8-4.2,3.8C1193.1-204.8,1191.8-204.8,1192.6-206.9L1192.6-206.9z
				 M1209.4-255.2c0.9-2.6,3.5-10.2,5.8-16.9c3.6-10.5,4.5-12.3,6.8-13.1c2.2-0.8,0.1-1.2-10.3-1.8c-24-1.5-42.4,0.7-44.1,5.2
				c-0.3,0.8-0.1,3.3,0.5,5.6c2.1,7.9,13.9,16.7,31.2,23.4c3.5,1.3,6.8,2.5,7.3,2.5S1208.5-252.6,1209.4-255.2L1209.4-255.2z
				 M1254.7-222.3c-2.9-1.2-5.4-4.9-5.4-8c0-7,9.5-19.3,17.3-22.6c5.5-2.3,10.5-2,11.9,0.6c2.4,4.6-4.7,15.3-14.4,21.8
				c-2.1,1.4-3.8,2.8-3.8,3.3c0,1,8.2,2.2,11.2,1.6c1.3-0.3,3.6-0.8,5.2-1.1c2.3-0.5,2.8-0.3,2.5,1.1
				C1278.6-222.4,1260.5-219.9,1254.7-222.3z M1263.8-234.7c6.5-6.5,8.6-14.7,3.7-14.7c-3.9,0-10.1,10.4-10.1,16.9
				C1257.4-229.3,1258.9-229.8,1263.8-234.7L1263.8-234.7z M1285.5-223.3c-3.8-3.8-1.9-8.3,7-16.3c3.3-3,6.1-5.8,6.1-6.1
				c0-1.6-3.6-0.4-5.5,1.7c-1.1,1.3-3.3,2.7-4.9,3c-2.6,0.6-2.7,0.5-1.7-1.4c0.6-1.1,1-2.6,0.8-3.3c-0.6-2.8,3.4-10.9,6.3-12.3
				c4-2.1,6.4-2,5.5,0.3c-2,4.8-1.9,5.3,1.6,5.4c1.9,0.1,4.1,0,5,0c3.7-0.4,2.6,2.4-3.7,9.2c-12.1,13.1-12.4,17.3-1.3,17.3
				c3.5,0,6.7,0.4,7.1,1c0.9,1.2,2.7-3,7-15.9c2.7-8.3,3.7-10.1,6.2-11.4c1.6-0.8,3.6-1.3,4.4-1c1.3,0.5,1.2,1-0.1,3.5
				c-2.3,4.4-2,4.4,3.2,0.5c2.6-2,5.9-4,7.2-4.6c3.1-1.2,7.1,0.4,7.1,2.7c0,0.9-1.8,5.9-4,11.2c-2.2,5.3-4,10.4-4,11.4
				c0,2.3,2.5,3.2,6.7,2.4c2.6-0.5,3.4-0.3,3.4,0.9c0,3.2-14.7,5-17.5,2.2c-1.9-1.9-1.5-4.1,3.1-14.8c4-9.3,4.2-11.3,1.3-9.7
				c-4.2,2.3-9.4,8.6-12.2,15c-1.6,3.6-3.3,7.3-3.7,8.1c-0.8,1.5-8.1,3.3-8.1,2c0-0.4-1.7-0.3-3.8,0.1s-6.6,0.9-10,0.9
				C1288.8-221.3,1287-221.7,1285.5-223.3L1285.5-223.3z M1346.7-222.6c0-0.7,1.1-1.9,2.5-2.5c1.4-0.6,2.5-1.7,2.5-2.3
				c0-0.8,1.8-1,5.5-0.7c3,0.3,5.5,0.4,5.5,0.2s-1.6-2.1-3.5-4.4c-5-6-4.9-10,0.8-15.6c5.1-5.1,11.4-7.4,15.3-5.7
				c1.5,0.7,2.5,2,2.5,3.2c0,2.7-6.3,9.6-7.9,8.6c-0.9-0.6-0.9-1.3,0.3-3.1c2.1-3.2,2-3.5-1.2-3.5c-3.3,0-7.2,2.5-7.2,4.6
				c0,0.8,1.6,3.6,3.5,6.1c4.2,5.5,4,7.2-1.6,12.6c-3.7,3.6-4.2,3.8-10.5,3.8C1348.4-221.3,1346.7-221.6,1346.7-222.6z
				 M1380.8-221.9c-6.7-2.7-7.9-9.7-3.1-18.1c4.7-8.1,13.6-14.4,20.7-14.4c10.8-0.1,5.2,13.8-10.1,24.8c-1.7,1.2-2.7,2.5-2.3,2.9
				c0.9,0.9,8.7,1.1,14.2,0.4c5.3-0.6,5.9,1.5,0.9,3C1396.6-222,1382.9-221.1,1380.8-221.9z M1389.6-235.6
				c3.5-3.6,6.4-10.2,5.5-12.5c-2.2-5.6-12.3,6.1-12.3,14.3c0,3.1,0.2,3.5,1.8,2.6C1385.5-231.7,1387.8-233.7,1389.6-235.6
				L1389.6-235.6z M1426.2-221.9c-2.2-1-1.3-7.2,2.3-16c2-4.7,3.4-9.1,3.2-9.6c-0.6-1.8-8.8,5.1-11.8,9.9c-1.6,2.5-3.6,6.8-4.5,9.4
				c-1.1,3.3-2.3,5-3.8,5.4c-3.2,0.9-4.7,0.8-4.7-0.3c0-1.2,18.8-55.3,19.9-57.2c1-1.8,8-4.3,8.7-3.2c0.3,0.5-2.6,8.8-6.5,18.5
				c-3.9,9.7-7,18-7,18.2c0,0.3,2.1-0.9,4.6-2.6c5.8-4,11-5.6,13-3.9c2.1,1.8,1.8,3.6-2.6,13.5c-2.2,4.9-4,10-4,11.3
				c0,2.1,0.5,2.3,4.5,2.3c3.2,0,4.5,0.4,4.5,1.4c0,0.8-0.8,1.7-1.7,2C1437.9-221.9,1427.7-221.2,1426.2-221.9L1426.2-221.9z
				 M1451-221.9c-3.7-1.5-6-4.8-6-8.3c0.1-11,13.3-24.1,24.3-24.2c4.6,0,6,2.5,4.4,8c-1.1,3.5-10.7,14.2-15.7,17.3
				c-1.4,0.9-2.2,1.9-1.8,2.3c0.9,0.9,8.6,1.1,14.2,0.5c5.3-0.6,5.9,1.5,0.9,3C1466.9-222,1453.2-221.1,1451-221.9L1451-221.9z
				 M1461.5-237.3c4.8-7,5.6-12.1,1.8-12.1c-4.1,0-10.3,9.6-10.3,16.1v3.1l3-1.8C1457.7-233,1460.2-235.4,1461.5-237.3L1461.5-237.3
				z M1476.5-222.7c2.3-5.2,6.9-17.7,8.2-22.2c1.4-4.7,2.2-5.9,5-7.2c4.1-2,5.2-1.2,3.7,2.8c-1.4,3.6-1.1,3.7,3,0.6
				c6-4.5,9.8-5.9,12.4-4.8c1.3,0.6,2.4,1.8,2.4,2.7c0,0.9-1.8,5.9-4,11.2c-2.2,5.3-4,10.4-4,11.4c0,2.3,2.5,3.2,6.7,2.4
				c2.6-0.5,3.4-0.3,3.4,0.9c0,2-2.1,2.7-9.6,3.4c-4.9,0.5-6.4,0.2-7.8-1.1c-2.1-2.1-1.7-4.1,3-15c3.8-8.8,3.9-9.7,2-9.7
				c-2.8,0-9.9,8.3-12.8,14.9c-1.6,3.7-3.3,7.4-3.8,8.2C1483.3-222.5,1475.7-221,1476.5-222.7z"/>
		</g>
		
			<linearGradient id="path3537_1_" gradientUnits="userSpaceOnUse" x1="663.4078" y1="808.2356" x2="651.3073" y2="1081.7831" gradientTransform="matrix(0.3745 0 0 -0.3745 283.6465 991.1392)">
			<stop  offset="0" style="stop-color:#343273"/>
			<stop  offset="1" style="stop-color:#C9C9E3"/>
		</linearGradient>
		
			<path id="path3537" inkscape:connector-curvature="0" sodipodi:nodetypes="cssssssscssssssscssssssssscsssssssscc" class="st5" d="
			M235,732.9c0,0,22-47,31.7-59.5c17.1-21.9,15.3-7.7,25.6-14.1c10.1-6.3,31.5-54.7,47.1-76.8c10.9-15.3,29.2-32.9,39.7-48.5
			c7.6-11.3,14.5-39.9,20.8-39.5c6.4,0.4,18.9,42.2,34.2,60.8c12.5,15.1,15.4,28.2,43.3,49c3.2,2.4,8.8,10.1,8.8,10.1
			s42.4-58.1,60.3-83.5c5.8-8.3,14.6-18.8,18.9-27.9c1.6-3.3,2.1-8.8,4-12c1.3-2.1,4-3.5,5.4-5.6c1.4-2.1,0.9-6.4,3-7.7
			c1.1-0.7,3.3-0.5,4.4,0.3c2.4,1.9,1.7,7.4,3.7,9.8c7.1,8.4,15.2,21.5,15.2,21.5s9.2-19.5,12.1-28.6c1.5-4.6,2.2-11.2,3.7-15.8
			c1.7-5.5,5.4-12.3,7.1-17.8c0.7-2.2,0.1-6.7,1.3-8.6c1.7-2.7,4.7-4.6,7.9-4.9c6.3-0.6,19.5,49.4,28.3,66.7c2,4,10.2-0.2,14,2.4
			c5.2,3.5,4.8,12.5,11.1,17.8c5.5,4.7,12.4,12.1,14.8,18.9c6.6,18.4,16.5,36.7,16.5,36.7s5.2-5,8.1-6.1c1.5-0.6,4.8-1.8,5.4-0.3
			c5.8,14.3,13.9,27.6,20.5,39.1c7.6,13.2,17.5,29.7,27.3,42.8c2.2,3,8.4,2.7,11.4,4.7c2.3,1.5,4.9,4.1,6.4,6.4
			c3.7,5.5,4,15.4,8.4,20.2c2.5,2.8,9.3,2.4,11.1,5.7c7.1,12.8,16.5,37.7,16.5,37.7L235,732.9L235,732.9z"/>
		<g id="g3571" transform="translate(17.839647,-26.933922)">
			
				<linearGradient id="path3539_1_" gradientUnits="userSpaceOnUse" x1="196.3727" y1="-236.9096" x2="200.1817" y2="-158.7193" gradientTransform="matrix(0.3745 0 0 -0.3745 285.1661 508.0089)">
				<stop  offset="0" style="stop-color:#D0CEE6"/>
				<stop  offset="1" style="stop-color:#FFFFFF"/>
			</linearGradient>
			
				<path id="path3539" inkscape:connector-curvature="0" sodipodi:nodetypes="cssssscsscscsssssssssssssssssssssssssssscc" class="st6" d="
				M252.1,724.8c-0.7-2.7,4-16.9,10.1-18.5c2.4-0.6,4.6,4.6,7.1,4.4c1.9-0.2,3.5-2.9,4.7-4.4c8.6-10.1,16.9-26,24.2-37
				c5.6-8.5,13.5-19.6,18.9-28.3c5-8.1,11.9-18.9,15.8-27.6c0.6-5.2,4.8-9,4.4-12.4c-1.4-11,4-16,13.9-26.8c2.1-2.2-1,7,8.2-2
				c3.7-2.8,8.3-6.3,10.9-10c2.7-4,3.3-8.3,6.5-10.3c1.7-0.4,3.9,1.7,5.1,3c4.8,5.4,7.1,15.3,10.1,21.9c3.8,8.3,8.1,19.6,12.9,27.3
				c2.8,4.4,5.8,10.9,10,9.4c3.3-1.3-3.6-7.3-0.2-8c2.9-0.6,17.5,22.2,25.4,32c4.7,5.9,15.5,15.2,16.2,18.8c0.3,1.9-1.5,5.4-3.4,5.4
				c-3.5,0-3.3-8.2-6.4-9.8c-1.6-0.8-4.6,1.5-6.1,0.3c-8.9-7.1-18.8-28.2-20.9-27.6c-3.1,0.9-3.3,8.1-2.7,11.2
				c1.7,9.1,14.7,20.1,15.2,27.5c0.1,1.8-0.2,5.6-2,5.7c-2.8,0.2-11.4-22.3-18.9-27.9c-4.9-3.7-7.2,4.5-7.2,2.8
				c0-1.7-9.1-31.2-16.1-43.5c-1.1-1.9-1.6-7.3-3.6-6.4c-4.6,2,0.5,22.8,0.8,26.3c0.2,2.1-6.5-1.2-6.5,0.9
				c0.2,6.6,10.3,54.4,8.1,56.2c-3.6,2.8-10.1-12.5-10.4-11.1c-0.1,0.5-2.8,5.7-3.6,11.8c-1.2,9.4-1.3,20.9-6,18.7
				c-11.3-5.3-3.2-37.8-7.2-39.3c-5.9-2.1-9.6,7.9-13.8,17.6c-4.2,9.6-9,19-9.5,17.7c-1.1-2.7-3-19.7-4.4-20.2
				c-4.9-1.9-14.9,25.5-24.6,33.3C289.9,713.8,283.8,708.4,252.1,724.8L252.1,724.8z"/>
			
				<linearGradient id="path3541_1_" gradientUnits="userSpaceOnUse" x1="886.9395" y1="-270.5504" x2="890.7485" y2="-192.3602" gradientTransform="matrix(0.3745 0 0 -0.3745 285.1661 508.0089)">
				<stop  offset="0" style="stop-color:#D0CEE6"/>
				<stop  offset="1" style="stop-color:#FFFFFF"/>
			</linearGradient>
			
				<path id="path3541" inkscape:connector-curvature="0" sodipodi:nodetypes="ccscscscsssssssssssssssssssssssssssssssssssssssssssssssssssssssssssssssssssssssssssssssssssssssssssssssssssssssssssssssssss" class="st7" d="
				M452.3,683.7c-5.5-5.6,28.3-36.8,38.1-55.7c14.2-24.9,25.5-42.4,37.3-59.8c0.9-1.3,0.1-4.2,0.6-6.1c0.3-0.6-1.1-1.9-0.8-2.5
				c2-3.4,5.2-7.2,9.6-13c0-0.6,1.6,3.8,1.9,3.3c3.8-4.9,8.5-8.4,12.5-13.2c3.5-4.2,6.1-9.4,9.9-8.5c3.5,0.9,3.5,6.8,5.4,9.9
				c2.4,4,9.1,9.8,9.2,10.8s2.6,9.1,5.9,9.4c2.3,0.2,4.6-3.5,5.4-5.7c1-2.7-1.4-6.9-0.3-9.6c0.6-1.6,3.3-2.5,4-4
				c1.1-2.1,0.6-5.6,1.3-7.9c3-9.5,8.8-21.8,14-32.2c2.7-5.5,2.3-13.8,7.6-13.7c3.1,0,3.5,6.5,4.2,9.6c0.9,4.1-0.8,10,0.2,14.1
				c1.6,6.7,6.6,15.2,10,22.8c2.6,5.7,2.9,11.1,7.7,13c1.8,0.7,4.2-2.3,6.1-2c2.8,0.4,4.9,4.7,7.6,5.5c1.3,0.4,3.3-0.8,4.5-0.2
				c6,2.8,9.8,15.9,13.3,21.4c10.1,15.6,28.6,48.8,29.5,50.5s7.1,5.8,10.2,4.5c2.5-1,0.9-8.7,3.6-8.3c2.1,0.3,3.5,4.7,5.3,8.7
				c2.5,5.7,6.5,11.7,8.9,16c4.9,8.5,10,19.2,15.8,27.1c7.2,10,17,23.4,27.8,31.6c3.3,2.5,6.9,8.6,5.7,12.6
				c-0.6,1.9-3.6,3.8-5.6,3.7c-4.9-0.2-9.4-6.7-12.8-10.3c-3.4-3.5-6.1-6.6-9.6-9.9c-2.6-2.6-7.8-7.3-10.1-10.1
				c-8.2-9.9-11.4-27.9-18-38.9c-2.5-4.2-6.5-9.3-9.8-13c-0.6-0.7-1.4-2.3-2.4-2.2c-1.2,0.2-1.7,2.4-2,3.5c-0.6,2.4,0,5.8,0.2,8.2
				c0.3,3.2,4.5,9.4,1.5,10.6c-3.4,1.4-5.2-6.7-7.2-9.8c-3.6-5.3-7.7-12.7-11.1-18.2c-1.6-2.5-4.7-5.1-6.3-8.3
				c-1.2-2.3-0.6-5.6-2.7-6c-0.9-0.2-1.9,1.1-2.4,1.9c-1.3,2.1,1,7.5-1.4,8.1c-1.8,0.5-2.9-3.2-3.8-4.8c-3.2-5.6-4.6-14.3-7.6-20
				c-3.7-7.1-8.8-16.9-15-21.9c-0.6-0.5-1.7-1.3-2.4-1c-1.1,0.6-0.8,3-0.7,4.3c0.6,9.5,5.7,21.5,8.8,30.5c2.1,6.2,7.9,19.3,8.1,20.2
				c0.2,1,5.5,7.8,5.2,11.7c-0.1,1.8-1.4,4.5-3.1,5c-4,1.1-8.6-4.3-12.1-6.4c-2.1-1.2-4.4-4.9-6.7-4.3c-1.3,0.4-1.7,2.7-1.9,4
				c-1,7.4,8.4,18.3,4.3,24.5c-0.5,0.7-2,0.9-2.9,0.7c-2.6-0.6-5.3-3.5-6.9-5.7c-6.6-9.3-7.4-25.8-13.3-35.5c-0.6-1-1.5-3.2-2.6-2.9
				c-3.4,1.1,0.8,10.3-2.4,11.7c-2.2,0.9-3.8-3.1-5.2-5c-5.7-7.8-7.5-21.3-11.6-30.1c-1.5-3.1-4.5-6.8-5.7-10.1
				c-1-2.6-0.1-6.8-1.9-8.9c-0.8-1-2.6-1.9-3.9-1.7c-1.3,0.3-2.5,2-3,3.2c-1.4,3.5-0.3,7.9-0.3,12.3c0,5.9-0.6,11.9,0.2,16.8
				c1.4,9.1,10.7,20.2,9.3,29.3c-0.2,1.2-1.5,3.7-2.4,3.4s-2.4-5.5-4.5-5.7c-0.7-0.1-1.5,0.9-1.7,1.5c-0.9,2.8,1.3,6.6,2,9.4
				c0.9,3.4,2.3,7.8,3.5,11.1c1.4,3.7,2.4,9.2,5.1,12.1c0.9,1,2.9,2.7,4,2c3.7-2.3-3.9-12.5,0-14.3c1.2-0.6,2.6,1.8,3.4,2.9
				c2.6,3.6,3.5,9.8,5.6,13.7c1.6,3,7.2,7.9,6.5,9.5c-0.7,1.6-2.9,6.3-3.2,6c-0.3-0.3-12.8-4-16.6-8.1c-3.4-3.6-4.3-10.8-6.1-15.4
				c-1.7-4.2-3.6-10-5.8-13.9c-0.9-1.5-1.8-4.8-3.5-4.5c-1.6,0.2-1.7,3.4-2,5c-1.1,5.4,1.6,13.1,0,18.3c-0.9,2.9-2.7,7.9-5.7,8.5
				c-2.6,0.5-5.3-3.4-7.4-5.1c-0.6-0.5-1.1-1.8-1.9-1.8c-6,0.3-7.7,17.2-13.3,15.1c-2.8-1-0.6-4.6-0.5-8.3c0.1-5.5-0.8-12,0-16.3
				c0.5-2.5,3.4-5.2,3.3-7.7c0-2.2-3.4-4.5-3.1-6.7c0.3-2.2,4.8-3.5,4.9-5.7c0.3-8.8,5-29.4,2.3-29.9c-4-0.6-6.1,6.7-8,10.3
				c-2.8,5.2-5.4,18-5.7,18.8c-0.4,0.8-6.7,13.2-11.2,11.5c-4.8-1.8,4.2-16.3-0.8-17c-4.2-0.6-12.3,20.4-16.4,29.7
				c-2.2,5-3,15.6-7.1,16.1c-3.3,0.5-3-5.4-4.5-8.4c-1.1-2-2.5-7.2-3.2-6.7c-0.7,0.5-7.7,4.4-9.3,2c-1.8-2.7,5.3-5.9,6.2-9.1
				c0.4-1.5-1.2-3.9-0.2-5.2s4.4-4.4,4.2-5.1s-0.8-4.8-2.5-5.1c-2.2-0.3-2.3,2.5-4,4.1c-5.6,4.8-10.9,12.9-16.5,17.3
				c-1.9,1.5-5.7,4-7.6,5.6c-2.1,1.8-3.3,5.7-5.6,7.2C464,681.7,454.3,685.8,452.3,683.7L452.3,683.7z"/>
		</g>
		<g id="g3326" transform="translate(1.679294,-9.4268726)">
			<g id="g3666" transform="translate(182.68831,349.20858)">
				
					<linearGradient id="path3604_1_" gradientUnits="userSpaceOnUse" x1="-1738.7113" y1="-1972.4659" x2="-1490.9548" y2="-1625.3247" gradientTransform="matrix(0.3745 0 0 -0.3745 586.5206 -73.3682)">
					<stop  offset="0" style="stop-color:#B1D92A"/>
					<stop  offset="0.1503" style="stop-color:#77A521"/>
					<stop  offset="0.1503" style="stop-color:#3D7219"/>
					<stop  offset="1" style="stop-color:#090B08"/>
				</linearGradient>
				<path id="path3604" inkscape:connector-curvature="0" sodipodi:nodetypes="czzsscscssscssscc" class="st8" d="M139.1,494.2
					c0,0,3.3,16.5,7.6,25.8c4.3,9.3,13.6,16.6,13.6,28.1c0,11.5-16.7,20.9-27.8,21.9c-51.7,4.4-61.4,5.2-88.6,11.1
					c-23.7,5.2-65.8,34.9-65.8,34.9s-7.7-20.5-1-49.2c3.1-13.3,22.9-39.9,22.9-39.9s-11.2,1.7-15.3,0.6
					c-13.2-3.4-27.2-11.3-40.2-13.1c-7.5-1-24.6,4.5-35.1,5.4c-9.2,0.8-12.4-3-12.4-3s12.8-18.5,28.1-28.2
					c5.3-3.4,14.5-9.8,24.6-15.1c14.5-7.6,30.8-14.2,40.2-16.9c36.1-10.4,120.9-33,120.9-33L139.1,494.2L139.1,494.2z"/>
				
					<linearGradient id="path3624_1_" gradientUnits="userSpaceOnUse" x1="-677.8339" y1="-1002.2819" x2="-553.5878" y2="-814.0779" gradientTransform="matrix(0.3745 0 0 -0.3745 208.8224 270.342)">
					<stop  offset="0" style="stop-color:#B1D92A"/>
					<stop  offset="0.25" style="stop-color:#77A521"/>
					<stop  offset="0.4874" style="stop-color:#3D7219"/>
					<stop  offset="1" style="stop-color:#090B08"/>
				</linearGradient>
				<path id="path3624" inkscape:connector-curvature="0" sodipodi:nodetypes="csscssssscssssccs" class="st9" d="M13,459.2
					c-13.3,2.6-31.3,6.2-43.8,11.4c-12.7,5.3-28.2,15.5-39.4,23.6c-7.4,5.3-22.9,19.9-22.9,19.9s19.4-6,27.9-6.4
					c7.7-0.3,18.1,1.9,25.6,3.7c8.3,2,18.5,7.9,26.9,9.4c6.9,1.2,21.5-2.8,21.6,0.6c0.2,11-17,22.5-21.9,37.9c-5.2,16-4.8,47-4.8,47
					s32.1-23.2,49.8-28.8c23.3-7.3,58.3-9.4,82.6-11.9c15.9-1.6,40.7-6.8,38-19.8c-3.2-15.5-36-8.7-52.5-5.1
					c-10.9,2.4-35.3,8-35.3,8l-31-92.2C33.9,456.5,19.2,458,13,459.2L13,459.2z"/>
			</g>
			<g id="g3268" transform="translate(-219.37412,246.7277)">
				
					<linearGradient id="path2462_1_" gradientUnits="userSpaceOnUse" x1="2577.4895" y1="-783.1469" x2="2446.0781" y2="-660.3056" gradientTransform="matrix(0.3745 0 0 -0.3745 196.9567 409.0508)">
					<stop  offset="0" style="stop-color:#324C1C"/>
					<stop  offset="1" style="stop-color:#193116"/>
				</linearGradient>
				<path id="path2462" inkscape:connector-curvature="0" sodipodi:nodetypes="cssssscssssssssss" class="st10" d="M1055.6,559.5
					c17.7-3.8,42.8-1.9,60.3,3c16.3,4.6,34.1,20,49.5,26.9c12.8,5.8,29.1,14.7,44.1,16.2c1.6,0.2,1.4,4.7,0,5.4
					c-17.5,8.8-27.4,14.2-40.1,17.5c-16.9,4.4-58.7,5.2-58.7,5.2s18.6,6.8,23.4,13.3c12.8,17.4,10.1,30.7,9.8,44.4
					c-0.2,9.4-1.7,22.1,4,31c1.2,1.9-3.1,5.1-5.4,5.4c-6,0.8-12.2-6.9-17.5-9.8c-27.2-15-40.4-22.6-92.6-33.7
					c-23-4.9-67.6-11.2-70.2-34.5c-0.6-5.5,4.2-9.8,6.9-14c13.9-21.6,10.4-32.3,20.2-42.4C1004.8,577.5,1033.7,564.2,1055.6,559.5
					L1055.6,559.5z"/>
				
					<linearGradient id="path2464_1_" gradientUnits="userSpaceOnUse" x1="2506.9226" y1="-789.4099" x2="2463.7698" y2="-727.8162" gradientTransform="matrix(0.3745 0 0 -0.3745 196.9567 409.0508)">
					<stop  offset="0" style="stop-color:#658F23"/>
					<stop  offset="1" style="stop-color:#183217"/>
				</linearGradient>
				<path id="path2464" inkscape:connector-curvature="0" sodipodi:nodetypes="csssssscccccccccc" class="st11" d="M1074.1,563.5
					c-29.6,1.2-18.3,25.2-16.9,51.8c0.7,13.7-4,19.9-8,26.1c-3,4.6-4.2,11.6-9.9,9.2c-6.8-2.9-18.9-5.9-29.5-7.5
					c-6.2-0.9-12.3-0.6-20.5-0.9c-6.2-0.2-17.4,1.4-16.8,7.5c1.1,11.4,14.3,14.9,23.7,18.6c29.5,9.7,58.5,12.1,87.6,23.5
					c20.3,7.2,38.2,13.9,55.6,26.4c-9-21.2,4.6-42.5-7.9-62.8c-6.8-12.2-21.3-13.9-32.1-21c-7.9-3.6-8.2-5.7,0.9-5.7
					c30.3-3.3,59.9-1.4,90.5-15.2c1.4-1.4,8.5-3.5,4.7-4.5c-24.5-7-44.3-20.7-65.9-33.9C1112.8,565.2,1093.4,563.4,1074.1,563.5
					L1074.1,563.5z"/>
			</g>
			<g id="g3596" transform="translate(714.12138,473.71747)">
				
					<linearGradient id="path2449_1_" gradientUnits="userSpaceOnUse" x1="-2933.282" y1="-45.0129" x2="-2478.9646" y2="-20.7724" gradientTransform="matrix(0.3745 0 0 -0.3745 546.5576 324.0412)">
					<stop  offset="0" style="stop-color:#222612"/>
					<stop  offset="0.246" style="stop-color:#383F2B"/>
					<stop  offset="0.5886" style="stop-color:#52AA17"/>
					<stop  offset="0.716" style="stop-color:#77B34F"/>
					<stop  offset="1" style="stop-color:#2E4323"/>
				</linearGradient>
				<path id="path2449" inkscape:connector-curvature="0" sodipodi:nodetypes="cccccsccccsccccc" class="st12" d="M-194.6,206.8
					c-109,1.7-219.4,18.5-319.3,63.7c-13.4,6.7-28.8,16.5-31.2,32.6c-1.3,14.2,10,24.6,19.6,33.2c18.6,18.8,28.5,44.2,39.2,68
					c2.9,6.8,8,20,12.3,16.3c19.1-16.4,53.8-30.5,85.5-40c63.3-17.5,128.5-28.5,194.2-31.6c75.5-2.3,151.2,7.7,223.9,27.6
					c24.3,6.4,49.4,14.8,67.7,32.9c5.3,4.9,14.3,14.5,16.7,11.1c18.1-26.5,37.2-58.1,62.8-84.7c7.3-9.1,16.1-18.8,17.1-30.8
					c-2.8-14.4-18-20.8-29.3-27.6C88.7,237.2,3.1,218.8-81.9,211C-119.4,207.7-157,206.6-194.6,206.8z"/>
				
					<radialGradient id="path3291_1_" cx="-1837.5872" cy="-1986.7222" r="362.0561" gradientTransform="matrix(0.3268 0.2927 0.2237 -0.2498 819.7092 282.7729)" gradientUnits="userSpaceOnUse">
					<stop  offset="0" style="stop-color:#B1D92A"/>
					<stop  offset="0.25" style="stop-color:#77A521"/>
					<stop  offset="0.5" style="stop-color:#3D7219"/>
					<stop  offset="1" style="stop-color:#090B08"/>
				</radialGradient>
				<path id="path3291" inkscape:connector-curvature="0" sodipodi:nodetypes="cssszsssczzzc" class="st13" d="M-476.1,411.1
					c0,0-10.6-27.2-26.4-55.7c-16.4-29.5-39.4-35-35.2-53.3c4.6-20.2,55.6-35.9,59.3-37.4c93.1-37.5,216.8-51.4,312.8-49.3
					s191.1,12.2,284.5,50.5c12.2,5,71.8,29.7,65.6,43.2c-8.9,19.4-30.4,38-42.6,54.7c-12.6,17.1-32,48.8-32,48.8
					s-18.1-21.7-45.8-32.5c-29.1-11.4-122.1-36.9-228.1-38.9c-106-2-233.2,30.7-267.7,45.2C-466.6,400.9-476.1,411.1-476.1,411.1
					L-476.1,411.1z"/>
			</g>
			
				<linearGradient id="path2522_1_" gradientUnits="userSpaceOnUse" x1="-76.9544" y1="-750.9803" x2="-39.9203" y2="-738.8601" gradientTransform="matrix(0.3745 0 0 -0.3745 300.661 604.389)">
				<stop  offset="0" style="stop-color:#112D17"/>
				<stop  offset="0.5" style="stop-color:#3F6220"/>
				<stop  offset="1" style="stop-color:#112D17"/>
			</linearGradient>
			<path id="path2522" inkscape:connector-curvature="0" sodipodi:nodetypes="cscsssssc" class="st14" d="M316.2,857.1
				c0,0,5.4,11.2,6.8,14.6c1.6,3.9,5.3,9.6,5.3,9.6s-14.4-4-32-0.2c-10.6,2.3-24.6,4.8-37.2,9.7c-3.3,1.3-13.7,2.7-14.2,0.7
				c-0.8-2.9,5.4-5.8,8-7.4c9.7-6.2,22.9-12.7,33.1-16.8C295.2,863.6,316.2,857.1,316.2,857.1z"/>
			
				<linearGradient id="path3280_1_" gradientUnits="userSpaceOnUse" x1="1332.4608" y1="-738.5459" x2="1302.1602" y2="-732.1049" gradientTransform="matrix(0.3745 0 0 -0.3745 301.6133 601.5323)">
				<stop  offset="0" style="stop-color:#3D5C20"/>
				<stop  offset="1" style="stop-color:#152B16"/>
			</linearGradient>
			<path id="path3280" inkscape:connector-curvature="0" sodipodi:nodetypes="cscscsc" class="st15" d="M814.1,886
				c0,0-11.8-12.1-20.7-17c-9-4.9-23.1-10.2-23.1-10.2s-2.5,8.2-3.8,11.4c-1.6,3.8-6.7,12.1-6.7,12.1s16.2-1.6,23.1-1.2
				C792.2,881.7,814.1,886,814.1,886z"/>
			
				<linearGradient id="path3298_1_" gradientUnits="userSpaceOnUse" x1="-55.0877" y1="-1049.8593" x2="-70.8725" y2="-1047.3596" gradientTransform="matrix(0.3745 0 0 -0.3745 279.1139 501.4524)">
				<stop  offset="0" style="stop-color:#2C5113"/>
				<stop  offset="1" style="stop-color:#2F3521"/>
			</linearGradient>
			<path id="path3298" inkscape:connector-curvature="0" sodipodi:nodetypes="csccscc" class="st16" d="M262.3,894.6
				c0,0-7.6,3.3-15,2.8c-6.9-0.5-10.4-3.3-10.5-3.4l3-5.8c0,0,5.2,3.1,13.6,3.2c3.9,0.1,7.2-1,7.2-1L262.3,894.6L262.3,894.6z"/>
			
				<linearGradient id="path3312_1_" gradientUnits="userSpaceOnUse" x1="1404.1388" y1="-1044.2059" x2="1428.285" y2="-1041.8492" gradientTransform="matrix(0.3745 0 0 -0.3745 279.1139 501.4524)">
				<stop  offset="0" style="stop-color:#1D3517"/>
				<stop  offset="1" style="stop-color:#2E4323"/>
			</linearGradient>
			<path id="path3312" inkscape:connector-curvature="0" sodipodi:nodetypes="ccsccssscc" class="st17" d="M830.8,890.2
				c-2.1,4.4-4.1,7.5-9.1,7.3c-2.7-0.3-7.1-2.1-9.8-2.9c-1.3-0.4-4.2-1.2-4.2-1.2l1.9-7.7c0,0,3.4,1.2,5.9,1.3
				c1.7,0.1,6,1.1,7.4,0.2c1-0.7,2.4-3.4,3-3.4c0.7,0,6.6,2.9,6.6,2.9S831.4,889.1,830.8,890.2L830.8,890.2z"/>
		</g>
		<g id="g3483" transform="translate(1009.008,-10.160353)">
			<g id="g3457" transform="translate(-976.92115,364.71479)">
				<path id="path3459" inkscape:connector-curvature="0" sodipodi:nodetypes="csccscccccccscsccssccsccscssccsccccsscsc" d="
					M331.8,357.4c-7.4,0.4-12.8,13.3-15.8,22c-4.3,12.4-5.1,43.4-5.1,43.4l-4.8,2.7c0.1-6.4-0.2-13.8-0.2-21.1
					c-0.1-19-0.1-37.6-0.1-37.6l-11.2,6.9l-0.3,10l-6.4,11.4l2.6,2.1l3.8-5.5l0.3,37.6c0,0-25.7,8.2-36.1,11.1
					c-13.2,3.7-42.4,10.5-42.4,10.5s-1.1,2.8-3.3,5.7c-2.2,2.9-4.8,4.5-4.8,4.5s21.5,18,41.7,19.5c13.8,1,31.8-5.8,41.8-15.2
					c6.6-6.2,11.5-18.4,13.6-28.8c0.3-1.5,0.5-3.2,0.7-5.1l5.8-2.7c0,0-2,28.5,11.8,29.6c9.8,0.8,31-15.5,30.4-15l-2.3-4.3
					c0,0-17.9,8.9-23.5,5c-6-4-4.5-23.6-4.5-23.6s16.5-11.1,18.2-32.7c0.8-9.5,1.1-28.7-8.3-30.6
					C332.8,357.5,332.3,357.4,331.8,357.4L331.8,357.4z M327.8,368c3.7-0.1,5,14.3,5.3,21.6c0.8,18.7-10.2,25.8-10.2,25.8
					s-0.5-15.9-0.2-22.8C323.1,384.2,322.9,368.1,327.8,368z M294.9,436.7c0,0,2.1,18.8-10.6,29c-6.7,5.3-23.5,4.6-35.9,1.3
					c-11.4-3.1-19.3-7.7-19.3-7.7s24.4-5.9,34.5-9.4C273.3,446.5,294.9,436.7,294.9,436.7z"/>
				<path id="path3461" inkscape:connector-curvature="0" sodipodi:nodetypes="cscccscssccsscsc" d="M378.8,397
					c-10.5,0.4-27.2,17.5-28.5,29.1c-0.9,7.9-1.4,21.6,13.3,22.4c11.6,0.6,28.8-12.3,28.8-12.3l-0.2-4.4c0,0-8,5.3-14.1,6
					c-5.6,0.6-10.8-2.2-10.8-2.2s9.5-7.9,14.8-13.5c1.8-1.9,16.4-21.4-1.3-24.9C380.2,397,379.5,396.9,378.8,397z M371.3,404.5
					c0.3,0,0.6,0,0.9,0c3.5,0.5,2.8,7.4,2.4,10.9c-0.6,6.3-9.9,17.5-9.9,17.5s-2.9-8.3-2-15.9C363.2,412.3,366.9,404.9,371.3,404.5
					L371.3,404.5z"/>
				<path id="path3463" inkscape:connector-curvature="0" sodipodi:nodetypes="ccssccssc" d="M409.1,393.4l-13,7.2
					c0,0-2.7,18.5-3.6,26.3c-0.8,6.7-2.7,15.9,8.6,15.3c6.4-0.3,18.1-10.7,18.1-10.7l1-4.7c0,0-8.7,6.2-12,4.6
					c-4.2-2-3.1-11.5-2.4-16.2C406.7,408.2,409.1,393.4,409.1,393.4z"/>
				<ellipse id="path3465" cx="404.2" cy="375.5" rx="7.6" ry="8.7"/>
				<path id="path3467" inkscape:connector-curvature="0" sodipodi:nodetypes="ccccsssccssccccssssscssccc" d="M440.3,388.7
					l-12.5,4.8l-10.1,42.9l11.9-3.6c0,0,4.2-17.7,8.2-24.4c2.2-3.6,5.6-9.9,9.6-9.8c1.3,0,2.1,1.6,1.9,2.9
					c-2.5,13.6-7.9,33.1-7.9,33.1l12.9-4.8c0,0,3.4-13.1,6.5-21.8c1.4-4,9.8-13.6,12.9-10.6c3.6,3.4-10.9,30.7,0.7,34.8
					c4.6,1.4,15.1-5.5,15.1-5.5l6.9-5.2l0.7-4.9c0,0-7.9,6.3-11.2,5.1c-2.9-1.1-4-6.2-3.6-9.3c0.9-6.2,4.4-14.4,5.8-23
					c0.3-2-1.1-4.2-3-4.8c-4.5-1.4-10.8,2.9-14.5,5.7c-3.4,2.6-9.4,11-9.4,11s2.7-12.1-1.4-14.2c-4.5-2.3-11.7,3.9-15.6,7
					c-3.1,2.5-8.7,9.9-8.7,9.9l2.5-8.2L440.3,388.7L440.3,388.7z"/>
				<path id="path3469" inkscape:connector-curvature="0" d="M538.6,385.2c-4.8,0-10.3,0.9-13.6,2.1c-10.8,4-24,15.3-27.5,26.3
					c-1.6,5.3-3.2,15.2,3.3,17.8c6.5,2.6,20-10.5,20-10.5s-1.1,8.4,3.5,11.1c3.2,1.8,22.4-7.1,22.4-7.1l0.2-3.3c0,0-5.5,2.4-7.6,1.3
					c-2.1-1.1-2.4-4.8-2.4-7.2c0.1-7,12.9-21.8,11.3-27.2C547.6,386.1,543.4,385.2,538.6,385.2z M528.5,393.6c1.4,0,2.5,0.4,3,1
					c1.2,1.5-3.4,11.3-6.2,15.5c-2.9,4.3-9.4,13.3-12.4,12c-3.8-1.7-2-12.6,0.1-17.3C517,396.2,524.3,393.4,528.5,393.6z"/>
				<path id="path3471" inkscape:connector-curvature="0" sodipodi:nodetypes="ccccccssccssccccc" d="M580.7,369.1l-13.1,1.2
					l-7.5,18.8l-7.6-0.1l-3.5,6.7l8,0.1c0,0-7.7,15.5-10.3,24.8c-1.1,4.1-1.3,10.6,6,12.9c3.5,1.1,18.4-4.3,18.4-4.3l1.2-3.3
					c0,0-8.5,0.2-10.5-2.5c-1.5-2-0.9-5.8-0.1-8.1c1.9-5.6,7.2-18.6,7.2-18.6l7.7,0l3.3-7l-7.9-0.1L580.7,369.1L580.7,369.1z"/>
				<path id="path3473" inkscape:connector-curvature="0" sodipodi:nodetypes="cccccsccssccsscc" d="M616.9,348.8l-15,3.5l-32.9,80
					l13-1.7L589,415c0,0-0.3,17.2,5.1,21.1c5,3.6,20.8-1,20.8-1l-0.3-4.2c0,0-8.4,0.9-13.7-9.4c-2.6-5.1-3.4-17,1.5-19.3
					c7.7-3.6,8.7,4.4,6.4,10.6l2.2,1.9c0,0,13.8-12.6,10.9-17.8c-2.3-4.3-8.7-4.8-12.9-4c-6,1.1-16.4,12.6-16.4,12.6L616.9,348.8
					L616.9,348.8z"/>
				<path id="path3475" inkscape:connector-curvature="0" sodipodi:nodetypes="cssscsccsssccssssc" d="M661.8,399.6
					c-4.7-0.7-10.3-0.6-13.7,0.2c-11.2,2.5-26,11.7-30.9,22.1c-2.4,5-5.3,14.5,0.7,18.1c6,3.5,21.3-7.5,21.3-7.5s-2.3,8.1,1.9,11.5
					c2.9,2.3,23.2-3.8,23.2-3.8l1.2-3.3c0,0-6.4,1.6-8.3,0.2c-1.9-1.4-1.7-5.1-1.3-7.5c1.1-6.9,15.9-19.7,15-25.3
					C670.5,401.8,666.5,400.3,661.8,399.6L661.8,399.6z M650.6,406.4c1.4,0.2,2.4,0.8,2.8,1.4c1,1.6-5,10.7-8.3,14.4
					c-3.5,3.8-11.2,11.9-14,10.1c-3.5-2.2-0.2-12.7,2.6-17.1C638.8,407.4,646.4,405.7,650.6,406.4z"/>
				<path id="path3477" inkscape:connector-curvature="0" sodipodi:nodetypes="cccssscccssccc" d="M679.3,408.9l-20,38h12.1
					c0,0,7-12.2,11.3-18.3c3-4.2,13.8-11.2,16-8.4c4.3,5.6-20.5,26-9.8,33.5c4.7,3.3,24.6-1.3,24.6-1.3l1.1-4.5
					c0,0-12.1,2.4-12.4-1.8c-1.9-10.1,22.2-29.9,13.3-35.5c-2.9-1.8-11.2,0.3-15.7,2c-5.1,2-15,10.4-15,10.4l7.4-15L679.3,408.9
					L679.3,408.9z"/>
				<path id="path3479" inkscape:connector-curvature="0" sodipodi:nodetypes="cssscsccsssccssssc" d="M763.8,423.5
					c-4.6-1.2-10.1-1.7-13.7-1.3c-11.4,1.3-27.1,8.8-33.1,18.6c-2.9,4.7-6.8,13.9-1.2,18c5.6,4.2,22-5.2,22-5.2s-3.1,7.8,0.7,11.6
					c2.6,2.6,26.2-1.5,26.2-1.5l0.9-3.3c0,0-8.7,1.3-10.4-0.3c-1.8-1.6-1.2-5.2-0.5-7.6c1.8-6.7,17.9-17.9,17.7-23.5
					C772.2,426.6,768.5,424.7,763.8,423.5L763.8,423.5z M751.9,429c1.4,0.4,2.3,1,2.6,1.7c0.8,1.7-6.1,10.1-9.8,13.5
					c-3.9,3.5-12.4,10.6-15,8.6c-3.2-2.5,1.1-12.7,4.4-16.7C740.1,428.8,747.9,427.9,751.9,429z"/>
				<path id="path3481" inkscape:connector-curvature="0" d="M813.6,404c0,0-26.9,25.4-37.2,38.4c-25.5,32.1-11,37.3,20.2,36.7
					l0.5-2.2c0,0-7.9-1.7-11-3.1c-2.7-1.2-8.2-5.5-8.2-5.5s22.2-9.3,31.8-22.7c7.8-10.9,18.3-40.7,18.3-40.7L813.6,404z
					 M815.1,415.1c0,0-8.5,21.9-14.3,29.4c-5.8,7.5-23.4,19.4-23.4,19.4s7.6-15.3,16-23.9C800.6,432.6,815.1,415.1,815.1,415.1z"/>
			</g>
			<g id="g3403" transform="translate(-980.82567,363.76253)">
				
					<linearGradient id="path3361_1_" gradientUnits="userSpaceOnUse" x1="-216.2124" y1="-143.3669" x2="403.7876" y2="-143.3669" gradientTransform="matrix(0.3745 0 0 -0.3745 289.0395 365.495)">
					<stop  offset="0" style="stop-color:#E3BB30"/>
					<stop  offset="0.5" style="stop-color:#FEFDDF"/>
					<stop  offset="1" style="stop-color:#E3BB30"/>
				</linearGradient>
				
					<path id="path3361" inkscape:connector-curvature="0" sodipodi:nodetypes="csccscccccccscsccssccsccscssccsccccsscsc" class="st18" d="
					M331.8,357.4c-7.4,0.4-12.8,13.3-15.8,22c-4.3,12.4-5.1,43.4-5.1,43.4l-4.8,2.7c0.1-6.4-0.2-13.8-0.2-21.1
					c-0.1-19-0.1-37.6-0.1-37.6l-11.2,6.9l-0.3,10l-6.4,11.4l2.6,2.1l3.8-5.5l0.3,37.6c0,0-25.7,8.2-36.1,11.1
					c-13.2,3.7-42.4,10.5-42.4,10.5s-1.1,2.8-3.3,5.7c-2.2,2.9-4.8,4.5-4.8,4.5s21.5,18,41.7,19.5c13.8,1,31.8-5.8,41.8-15.2
					c6.6-6.2,11.5-18.4,13.6-28.8c0.3-1.5,0.5-3.2,0.7-5.1l5.7-2.7c0,0-2,28.5,11.8,29.6c9.8,0.8,31-15.5,30.4-15l-2.3-4.3
					c0,0-17.9,8.9-23.5,5c-6-4-4.5-23.6-4.5-23.6s16.5-11.1,18.2-32.7c0.8-9.5,1.1-28.7-8.3-30.6
					C332.8,357.5,332.3,357.4,331.8,357.4L331.8,357.4z M327.8,368c3.7-0.1,5,14.3,5.3,21.6c0.8,18.7-10.2,25.8-10.2,25.8
					s-0.5-15.9-0.2-22.8C323.1,384.2,322.9,368.1,327.8,368z M294.9,436.7c0,0,2.1,18.8-10.6,29c-6.7,5.3-23.5,4.6-35.9,1.3
					c-11.4-3.1-19.3-7.7-19.3-7.7s24.4-5.9,34.5-9.4C273.3,446.5,294.9,436.7,294.9,436.7z"/>
				
					<linearGradient id="path3372_1_" gradientUnits="userSpaceOnUse" x1="-216.2124" y1="-152.7719" x2="403.7876" y2="-152.7719" gradientTransform="matrix(0.3745 0 0 -0.3745 289.0395 365.495)">
					<stop  offset="0" style="stop-color:#E3BB30"/>
					<stop  offset="0.5" style="stop-color:#FEFDDF"/>
					<stop  offset="1" style="stop-color:#E3BB30"/>
				</linearGradient>
				<path id="path3372" inkscape:connector-curvature="0" sodipodi:nodetypes="cscccscssccsscsc" class="st19" d="M378.8,397
					c-10.5,0.4-27.2,17.5-28.5,29.1c-0.9,7.9-1.4,21.6,13.3,22.4c11.6,0.6,28.8-12.3,28.8-12.3l-0.2-4.4c0,0-8,5.3-14.1,6
					c-5.6,0.6-10.8-2.2-10.8-2.2s9.5-7.9,14.8-13.5c1.8-1.9,16.4-21.4-1.3-24.9C380.2,397,379.5,396.9,378.8,397z M371.3,404.5
					c0.3,0,0.6,0,0.9,0c3.5,0.5,2.8,7.4,2.4,10.9c-0.6,6.3-9.9,17.5-9.9,17.5s-2.9-8.3-2-15.9C363.2,412.3,366.9,404.9,371.3,404.5
					L371.3,404.5z"/>
				
					<linearGradient id="path3377_1_" gradientUnits="userSpaceOnUse" x1="-216.2124" y1="-139.8419" x2="403.7876" y2="-139.8419" gradientTransform="matrix(0.3745 0 0 -0.3745 289.0395 365.495)">
					<stop  offset="0" style="stop-color:#E3BB30"/>
					<stop  offset="0.5" style="stop-color:#FEFDDF"/>
					<stop  offset="1" style="stop-color:#E3BB30"/>
				</linearGradient>
				<path id="path3377" inkscape:connector-curvature="0" sodipodi:nodetypes="ccssccssc" class="st20" d="M409.1,393.4l-13,7.2
					c0,0-2.7,18.5-3.6,26.3c-0.8,6.7-2.7,15.9,8.6,15.3c6.4-0.3,18.1-10.7,18.1-10.7l1-4.7c0,0-8.7,6.2-12,4.6
					c-4.2-2-3.1-11.5-2.4-16.2C406.7,408.2,409.1,393.4,409.1,393.4z"/>
				
					<linearGradient id="path3379_1_" gradientUnits="userSpaceOnUse" x1="-216.2124" y1="-32.1518" x2="403.7876" y2="-32.1518" gradientTransform="matrix(0.3745 0 0 -0.3745 287.254 363.4714)">
					<stop  offset="0" style="stop-color:#E3BB30"/>
					<stop  offset="0.5" style="stop-color:#FEFDDF"/>
					<stop  offset="1" style="stop-color:#E3BB30"/>
				</linearGradient>
				<ellipse id="path3379" class="st21" cx="404.2" cy="375.5" rx="7.6" ry="8.7"/>
				
					<linearGradient id="path3381_1_" gradientUnits="userSpaceOnUse" x1="-216.2124" y1="-119.8283" x2="403.7876" y2="-119.8283" gradientTransform="matrix(0.3745 0 0 -0.3745 289.0395 365.495)">
					<stop  offset="0" style="stop-color:#E3BB30"/>
					<stop  offset="0.5" style="stop-color:#FEFDDF"/>
					<stop  offset="1" style="stop-color:#E3BB30"/>
				</linearGradient>
				<path id="path3381" inkscape:connector-curvature="0" sodipodi:nodetypes="ccccsssccssccccssssscssccc" class="st22" d="
					M440.3,388.7l-12.5,4.8l-10.1,42.9l11.9-3.6c0,0,4.2-17.7,8.2-24.4c2.2-3.6,5.6-9.9,9.6-9.8c1.3,0,2.1,1.6,1.9,2.9
					c-2.5,13.6-7.9,33.1-7.9,33.1l12.9-4.8c0,0,3.4-13.1,6.5-21.8c1.4-4,9.8-13.6,12.9-10.6c3.6,3.4-10.9,30.7,0.7,34.8
					c4.6,1.4,15.1-5.5,15.1-5.5l6.9-5.2l0.7-4.9c0,0-7.9,6.3-11.2,5.1c-2.9-1.1-4-6.2-3.6-9.3c0.9-6.2,4.4-14.4,5.8-23
					c0.3-2-1.1-4.2-3-4.8c-4.5-1.4-10.8,2.9-14.5,5.7c-3.4,2.6-9.4,11-9.4,11s2.7-12.1-1.4-14.2c-4.5-2.3-11.7,3.9-15.6,7
					c-3.1,2.5-8.7,9.9-8.7,9.9l2.5-8.2L440.3,388.7L440.3,388.7z"/>
				
					<linearGradient id="path3383_1_" gradientUnits="userSpaceOnUse" x1="-216.2124" y1="-115.3749" x2="403.7876" y2="-115.3749" gradientTransform="matrix(0.3745 0 0 -0.3745 289.0395 365.495)">
					<stop  offset="0" style="stop-color:#E3BB30"/>
					<stop  offset="0.5" style="stop-color:#FEFDDF"/>
					<stop  offset="1" style="stop-color:#E3BB30"/>
				</linearGradient>
				<path id="path3383" inkscape:connector-curvature="0" class="st23" d="M538.6,385.2c-4.8,0-10.3,0.9-13.6,2.1
					c-10.8,4-24,15.3-27.5,26.3c-1.6,5.3-3.2,15.2,3.3,17.8c6.5,2.6,20-10.5,20-10.5s-1.1,8.4,3.5,11.1c3.2,1.8,22.4-7.1,22.4-7.1
					l0.2-3.3c0,0-5.5,2.4-7.6,1.3c-2.1-1.1-2.4-4.8-2.4-7.2c0.1-7,12.9-21.8,11.3-27.2C547.6,386.1,543.4,385.2,538.6,385.2z
					 M528.5,393.6c1.4,0,2.5,0.4,3,1c1.2,1.5-3.4,11.3-6.2,15.5c-2.9,4.3-9.4,13.3-12.4,12c-3.8-1.7-2-12.6,0.1-17.3
					C517,396.2,524.3,393.4,528.5,393.6z"/>
				
					<linearGradient id="path3388_1_" gradientUnits="userSpaceOnUse" x1="-216.2124" y1="-95.6484" x2="403.7876" y2="-95.6484" gradientTransform="matrix(0.3745 0 0 -0.3745 289.0395 365.495)">
					<stop  offset="0" style="stop-color:#E3BB30"/>
					<stop  offset="0.5" style="stop-color:#FEFDDF"/>
					<stop  offset="1" style="stop-color:#E3BB30"/>
				</linearGradient>
				<path id="path3388" inkscape:connector-curvature="0" sodipodi:nodetypes="ccccccssccssccccc" class="st24" d="M580.7,369.1
					l-13.1,1.2l-7.5,18.8l-7.6-0.1l-3.5,6.7l8,0.1c0,0-7.7,15.5-10.3,24.8c-1.1,4.1-1.3,10.6,6,12.9c3.5,1.1,18.4-4.3,18.4-4.3
					l1.2-3.3c0,0-8.5,0.2-10.5-2.5c-1.5-2-0.9-5.8-0.1-8.1c1.9-5.6,7.2-18.6,7.2-18.6l7.7,0l3.3-7l-7.9-0.1L580.7,369.1L580.7,369.1
					z"/>
				
					<linearGradient id="path3390_1_" gradientUnits="userSpaceOnUse" x1="-216.2124" y1="-73.7747" x2="403.7876" y2="-73.7747" gradientTransform="matrix(0.3745 0 0 -0.3745 289.0395 365.495)">
					<stop  offset="0" style="stop-color:#E3BB30"/>
					<stop  offset="0.5" style="stop-color:#FEFDDF"/>
					<stop  offset="1" style="stop-color:#E3BB30"/>
				</linearGradient>
				<path id="path3390" inkscape:connector-curvature="0" sodipodi:nodetypes="cccccsccssccsscc" class="st25" d="M616.9,348.8
					l-15,3.5l-32.9,80l13-1.7L589,415c0,0-0.3,17.2,5.1,21.1c5,3.6,20.8-1,20.8-1l-0.3-4.2c0,0-8.4,0.9-13.7-9.4
					c-2.6-5.1-3.4-17,1.5-19.3c7.7-3.6,8.7,4.4,6.4,10.6l2.2,1.9c0,0,13.8-12.6,10.9-17.8c-2.3-4.3-8.7-4.8-12.9-4
					c-6,1.1-16.4,12.6-16.4,12.6L616.9,348.8L616.9,348.8z"/>
				
					<linearGradient id="path3392_1_" gradientUnits="userSpaceOnUse" x1="-216.2124" y1="-150.1661" x2="403.7876" y2="-150.1661" gradientTransform="matrix(0.3745 0 0 -0.3745 289.0395 365.495)">
					<stop  offset="0" style="stop-color:#E3BB30"/>
					<stop  offset="0.5" style="stop-color:#FEFDDF"/>
					<stop  offset="1" style="stop-color:#E3BB30"/>
				</linearGradient>
				<path id="path3392" inkscape:connector-curvature="0" sodipodi:nodetypes="cssscsccsssccssssc" class="st26" d="M661.8,399.6
					c-4.7-0.7-10.3-0.6-13.7,0.2c-11.2,2.5-26,11.7-30.9,22.1c-2.4,5-5.3,14.5,0.7,18.1c6,3.5,21.3-7.5,21.3-7.5s-2.3,8.1,1.9,11.5
					c2.9,2.3,23.2-3.8,23.2-3.8l1.2-3.3c0,0-6.4,1.6-8.3,0.2c-1.9-1.4-1.7-5.1-1.3-7.5c1.1-6.9,15.9-19.7,15-25.3
					C670.5,401.8,666.5,400.3,661.8,399.6L661.8,399.6z M650.6,406.4c1.4,0.2,2.4,0.8,2.8,1.4c1,1.6-5,10.7-8.3,14.4
					c-3.5,3.8-11.2,11.9-14,10.1c-3.5-2.2-0.2-12.7,2.6-17.1C638.8,407.4,646.4,405.7,650.6,406.4z"/>
				
					<linearGradient id="path3394_1_" gradientUnits="userSpaceOnUse" x1="-216.2124" y1="-176.127" x2="403.7876" y2="-176.127" gradientTransform="matrix(0.3745 0 0 -0.3745 289.0395 365.495)">
					<stop  offset="0" style="stop-color:#E3BB30"/>
					<stop  offset="0.5" style="stop-color:#FEFDDF"/>
					<stop  offset="1" style="stop-color:#E3BB30"/>
				</linearGradient>
				<path id="path3394" inkscape:connector-curvature="0" sodipodi:nodetypes="cccssscccssccc" class="st27" d="M679.3,408.9l-20,38
					h12.1c0,0,7-12.2,11.3-18.3c3-4.2,13.8-11.2,16-8.4c4.3,5.6-20.5,26-9.8,33.5c4.7,3.3,24.6-1.3,24.6-1.3l1.1-4.5
					c0,0-12.1,2.4-12.4-1.8c-1.9-10.1,22.2-29.9,13.3-35.5c-2.9-1.8-11.2,0.3-15.7,2c-5.1,2-15,10.4-15,10.4l7.4-15L679.3,408.9
					L679.3,408.9z"/>
				
					<linearGradient id="path3396_1_" gradientUnits="userSpaceOnUse" x1="-216.2124" y1="-209.7255" x2="403.7876" y2="-209.7255" gradientTransform="matrix(0.3745 0 0 -0.3745 289.0395 365.495)">
					<stop  offset="0" style="stop-color:#E3BB30"/>
					<stop  offset="0.5" style="stop-color:#FEFDDF"/>
					<stop  offset="1" style="stop-color:#E3BB30"/>
				</linearGradient>
				<path id="path3396" inkscape:connector-curvature="0" sodipodi:nodetypes="cssscsccsssccssssc" class="st28" d="M763.8,423.5
					c-4.6-1.2-10.1-1.7-13.7-1.3c-11.4,1.3-27.1,8.8-33.1,18.6c-2.9,4.7-6.8,13.9-1.2,18c5.6,4.2,22-5.2,22-5.2s-3.1,7.8,0.7,11.6
					c2.6,2.6,26.2-1.5,26.2-1.5l0.9-3.3c0,0-8.7,1.3-10.4-0.3c-1.8-1.6-1.2-5.2-0.5-7.6c1.8-6.7,17.9-17.9,17.7-23.5
					C772.2,426.6,768.5,424.7,763.8,423.5L763.8,423.5z M751.9,429c1.4,0.4,2.3,1,2.6,1.7c0.8,1.7-6.1,10.1-9.8,13.5
					c-3.9,3.5-12.4,10.6-15,8.6c-3.2-2.5,1.1-12.7,4.4-16.7C740.1,428.8,747.9,427.9,751.9,429z"/>
				
					<linearGradient id="path3398_1_" gradientUnits="userSpaceOnUse" x1="-216.2124" y1="-203.1241" x2="403.7876" y2="-203.1241" gradientTransform="matrix(0.3745 0 0 -0.3745 289.0395 365.495)">
					<stop  offset="0" style="stop-color:#E3BB30"/>
					<stop  offset="0.5" style="stop-color:#FEFDDF"/>
					<stop  offset="1" style="stop-color:#E3BB30"/>
				</linearGradient>
				<path id="path3398" inkscape:connector-curvature="0" class="st29" d="M813.6,404c0,0-26.9,25.4-37.2,38.4
					c-25.5,32.1-11,37.3,20.2,36.7l0.5-2.2c0,0-7.9-1.7-11-3.1c-2.7-1.2-8.2-5.5-8.2-5.5s22.2-9.3,31.8-22.7
					c7.8-10.9,18.3-40.7,18.3-40.7L813.6,404z M815.1,415.1c0,0-8.5,21.9-14.3,29.4c-5.8,7.5-23.4,19.4-23.4,19.4s7.6-15.3,16-23.9
					C800.6,432.6,815.1,415.1,815.1,415.1z"/>
			</g>
		</g>
	</g>
</g>
</svg>
