<?xml version="1.0" encoding="utf-8"?>
<!-- Generator: Adobe Illustrator 21.1.0, SVG Export Plug-In . SVG Version: 6.00 Build 0)  -->
<svg version="1.1"
	 id="svg81437" inkscape:version="0.91 r13725" sodipodi:docname="Logo_Sport1+_2013.svg" xmlns:cc="http://creativecommons.org/ns#" xmlns:dc="http://purl.org/dc/elements/1.1/" xmlns:inkscape="http://www.inkscape.org/namespaces/inkscape" xmlns:rdf="http://www.w3.org/1999/02/22-rdf-syntax-ns#" xmlns:sodipodi="http://sodipodi.sourceforge.net/DTD/sodipodi-0.dtd" xmlns:svg="http://www.w3.org/2000/svg"
	 xmlns="http://www.w3.org/2000/svg" xmlns:xlink="http://www.w3.org/1999/xlink" x="0px" y="0px" viewBox="0 0 512 113.5"
	 style="enable-background:new 0 0 512 113.5;" xml:space="preserve">
<style type="text/css">
	.st0{fill:#232933;}
	.st1{fill:#F9AE0C;}
</style>
<g id="layer1" transform="translate(-186.28041,-94.272921)" inkscape:groupmode="layer" inkscape:label="Layer 1">
	<g id="g81388" transform="matrix(13.434477,0,0,-13.434477,-14561.706,6098.0418)">
		<g id="g75807" transform="translate(1097.7715,433.4787)">
			<path id="path75809" inkscape:connector-curvature="0" class="st0" d="M0,6.6l0.3,1.2h4.3C4.8,7.8,5,8,5,8.2c0,0.1,0,0.2-0.1,0.3
				c0,0,0,0.1-0.1,0.1H2C1.6,8.6,1.2,8.7,1,9s-0.3,0.7-0.3,1.1c0.2,1,1,1.6,1.9,1.6h4.5l-0.3-1.2H2.4c-0.2,0-0.4-0.2-0.4-0.4
				C2,10,2,9.9,2.1,9.8c-0.1,0,0-0.1,0.1-0.1H5c0.4,0,0.8-0.2,1-0.5c0.3-0.2,0.4-0.6,0.3-1c-0.2-1-0.9-1.6-1.9-1.6H0"/>
		</g>
		<g id="g75811" transform="translate(1121.0475,438.5927)">
			<path id="path75813" inkscape:connector-curvature="0" class="st0" d="M0,6.6c-1.5,0-2.2-0.8-2.6-2.3l-0.7-2.8H-2l0.7,2.8
				C-1.1,4.8-0.7,5.4,0,5.4h1.5l0.3,1.2L0,6.6"/>
		</g>
		<g id="g75815" transform="translate(1126.7885,438.5927)">
			<path id="path75817" inkscape:connector-curvature="0" class="st0" d="M0,6.6h-2l0.5,1.7h-1.3l-1.8-6.8h1.3l1,3.9h2L0,6.6z"/>
		</g>
		<g id="g75819" transform="translate(1109.7334,436.3537)">
			<path id="path75821" inkscape:connector-curvature="0" class="st0" d="M0,6.6l-0.2-0.7C-0.3,5.4-0.8,5-1.4,5h-2.5l0.7,2.7h2.4
				C0.2,7.6,0.1,6.8,0,6.6 M-0.7,8.8h-2.1h-1.3l-1.8-6.7h1.3l0.4,1.6h2.8c1.2,0,2.1,0.8,2.4,1.8l0.2,0.7C1.5,7.3,1.2,8.8-0.7,8.8"/>
		</g>
		<g id="g75823" transform="translate(1116.6484,436.3537)">
			<path id="path75825" inkscape:connector-curvature="0" class="st0" d="M0,6.6l-0.2-0.7C-0.3,5.4-0.8,5-1.4,5h-1.9
				C-4.2,5-4.1,5.8-4,6l0.2,0.7c0.1,0.5,0.6,0.9,1.2,0.9h1.9C0.2,7.6,0.1,6.8,0,6.6 M-0.7,8.8h-1.9C-3.7,8.8-4.7,8.1-5,7l-0.2-0.7
				c-0.3-1.1,0-2.6,1.9-2.6h1.9c1.2,0,2.1,0.8,2.4,1.8l0.2,0.7C1.5,7.3,1.2,8.8-0.7,8.8"/>
		</g>
		<g id="g75827" transform="translate(1129.6785,440.3067)">
			<path id="path75829" inkscape:connector-curvature="0" class="st1" d="M0,6.6c-0.3-1-1.3-1.7-2.4-1.7l-0.3-1.2h1.5l-1-3.9h1.7
				l1.9,6.8L0,6.6"/>
		</g>
		<g id="g75831" transform="translate(1135.8824,436.6447)">
			<path id="path75833" inkscape:connector-curvature="0" class="st1" d="M0,6.6h-2l0.5,1.9h-1.3l-0.5-1.9h-1.9l-0.3-1.2h1.9
				l-0.5-1.9h1.3l0.5,1.9h2L0,6.6z"/>
		</g>
	</g>
</g>
</svg>
