<?xml version="1.0" encoding="utf-8"?>
<!-- Generator: Adobe Illustrator 21.1.0, SVG Export Plug-In . SVG Version: 6.00 Build 0)  -->
<svg version="1.1"
	 id="svg32633" inkscape:version="0.91 r13725" sodipodi:docname="Blue-Movie-Logo.svg" xmlns:cc="http://creativecommons.org/ns#" xmlns:dc="http://purl.org/dc/elements/1.1/" xmlns:inkscape="http://www.inkscape.org/namespaces/inkscape" xmlns:rdf="http://www.w3.org/1999/02/22-rdf-syntax-ns#" xmlns:sodipodi="http://sodipodi.sourceforge.net/DTD/sodipodi-0.dtd" xmlns:svg="http://www.w3.org/2000/svg"
	 xmlns="http://www.w3.org/2000/svg" xmlns:xlink="http://www.w3.org/1999/xlink" x="0px" y="0px" viewBox="0 0 512 275.2"
	 style="enable-background:new 0 0 512 275.2;" xml:space="preserve">
<style type="text/css">
	.st0{fill:#004A91;}
	.st1{fill:#ED145A;}
</style>
<sodipodi:namedview  bordercolor="#666666" borderopacity="1.0" fit-margin-bottom="0" fit-margin-left="0" fit-margin-right="0" fit-margin-top="0" id="base" inkscape:current-layer="layer1" inkscape:cx="356.66121" inkscape:cy="255" inkscape:document-units="px" inkscape:pageopacity="0.0" inkscape:pageshadow="2" inkscape:window-height="984" inkscape:window-maximized="1" inkscape:window-width="1920" inkscape:window-x="0" inkscape:window-y="0" inkscape:zoom="0.5" pagecolor="#ffffff" showgrid="false">
	</sodipodi:namedview>
<g id="layer1" transform="translate(-170.64241,-226.7479)" inkscape:groupmode="layer" inkscape:label="Ebene 1">
	<path id="path1518" inkscape:connector-curvature="0" class="st0" d="M386.4,309.8v42.6c5.6-0.2,9.2-1.1,10.7-2.6
		c1.5-1.6,2.3-5.4,2.3-11.6V324c0-6.5-0.7-10.5-2.1-11.9C395.9,310.8,392.3,310,386.4,309.8z M386.4,252.4V286c1.7-0.1,3-0.1,4-0.1
		c3.9,0,6.4-1,7.4-2.8c1.1-1.9,1.6-7.3,1.6-16.3c0-4.7-0.4-8-1.3-9.9c-0.9-1.9-2-3.1-3.4-3.6C393.2,252.7,390.5,252.4,386.4,252.4
		L386.4,252.4z M346.1,226.7h40.1c12.7,0,22.3,1,28.8,2.9c6.5,1.9,11.8,5.4,15.8,11.3c4,5.9,6,15.4,6,28.5c0,8.9-1.4,15.1-4.2,18.6
		c-2.8,3.5-8.5,6.2-16.8,8.1c9.3,2.1,15.6,5.5,18.9,10.3c3.3,4.8,5,12.2,5,22.1v14.1c0,10.3-1.2,17.9-3.6,22.9
		c-2.4,5-6.2,8.3-11.4,10.2c-5.2,1.8-15.9,2.7-32,2.7h-46.5L346.1,226.7"/>
	<path id="path1520" inkscape:connector-curvature="0" class="st0" d="M485.7,226.7v121.1h24.2v30.6h-64.5V226.7H485.7"/>
	<path id="path1522" inkscape:connector-curvature="0" class="st0" d="M605.2,226.7V328c0,11.5-0.4,19.6-1.1,24.3
		c-0.7,4.7-3,9.5-6.8,14.4c-3.8,4.9-8.7,8.6-14.8,11.2c-6.2,2.5-13.4,3.8-21.7,3.8c-9.3,0-17.4-1.5-24.5-4.5
		c-7.1-3-12.4-6.9-15.9-11.7c-3.5-4.8-5.6-9.9-6.2-15.3c-0.6-5.4-1-16.6-1-33.8v-89.6h40.3v113.7c0,6.6,0.4,10.9,1.1,12.8
		c0.7,1.8,2.2,2.8,4.4,2.8c2.5,0,4.2-1,4.9-3.1c0.7-2,1.1-6.8,1.1-14.4V226.7L605.2,226.7"/>
	<path id="path1524" inkscape:connector-curvature="0" class="st0" d="M613.3,226.7h66.8v30.1h-28.6v28.6h26.8v29.1h-26.8v33.3h31.1
		v30.6h-69.3V226.7"/>
	<path id="path1526" inkscape:connector-curvature="0" class="st0" d="M435.5,389.6v110.1h-25.3l-0.1-74.3l-10.1,74.3H382
		l-10.6-72.8l-0.1,72.8h-25.3V389.6h37.5c1,6.6,2.2,14.4,3.5,23.4l4.1,28l6.6-51.4H435.5"/>
	<path id="path1528" inkscape:connector-curvature="0" class="st0" d="M481.3,417.9c0-5.1-0.3-8.4-0.8-9.8c-0.6-1.4-1.7-2.1-3.5-2.1
		c-1.5,0-2.6,0.6-3.4,1.7c-0.8,1.1-1.2,4.6-1.2,10.2v51.3c0,6.4,0.3,10.3,0.8,11.8c0.5,1.5,1.7,2.3,3.6,2.3c2,0,3.2-0.9,3.7-2.6
		c0.6-1.7,0.8-5.8,0.8-12.3L481.3,417.9L481.3,417.9z M510.5,454c0,11.1-0.3,18.9-0.8,23.5c-0.5,4.6-2.2,8.8-5,12.6
		c-2.8,3.8-6.5,6.7-11.3,8.7c-4.7,2-10.3,3.1-16.6,3.1c-6,0-11.4-1-16.1-2.9c-4.8-1.9-8.6-4.8-11.5-8.7c-2.9-3.8-4.6-8-5.2-12.6
		c-0.6-4.5-0.8-12.5-0.8-23.8v-18.8c0-11,0.3-18.9,0.8-23.5c0.5-4.6,2.2-8.8,5-12.6c2.8-3.8,6.5-6.7,11.3-8.8c4.7-2,10.3-3,16.6-3
		c6,0,11.4,1,16.1,2.9c4.8,1.9,8.6,4.8,11.5,8.6c2.9,3.8,4.6,8,5.2,12.6c0.6,4.5,0.8,12.5,0.8,23.8V454"/>
	<path id="path1530" inkscape:connector-curvature="0" class="st0" d="M589.2,389.6l-14.9,110.1h-43.9l-17-110.1h30.7
		c3.5,30.3,6,56,7.5,77.2c1.5-21.4,3.2-40.2,5-56.7l1.8-20.5L589.2,389.6"/>
	<path id="path1532" inkscape:connector-curvature="0" class="st0" d="M595.7,499.6h29.2V389.6h-29.2V499.6z"/>
	<path id="path1534" inkscape:connector-curvature="0" class="st0" d="M632.2,389.6h48.6v21.9h-19.4v20.9h18.2v20.9h-18.2v24.4h21.2
		v21.9h-50.4V389.6"/>
	<path id="path1536" inkscape:connector-curvature="0" class="st1" d="M170.6,226.8h71c2.2,31.2,16.5,52.1,29.5,66.9
		c1.4,1.6,3,2.1,4.9,3.2l-0.1,6.2c4.4,19.2-7.6,44.5-38.3,49.8c-18.3,46.7,15.7,60.4,14.1,99.5c-0.9,21.7-4.5,32.3-9.1,47.8h-72.1
		L170.6,226.8L170.6,226.8z M260.1,226.8h72.8v273.5h-80.5c3.9-8.6,7.5-17.4,10.3-25.6c16.5-48.7-21.8-64.5,13.5-121.7
		c30.6-5.3,42.7-30.6,38.3-49.8l0.1-6.2c-2-1.2-3.3-1.8-4.9-3.2C292.2,277.7,271.9,263.9,260.1,226.8"/>
</g>
</svg>
