<?xml version="1.0" encoding="utf-8"?>
<!-- Generator: Adobe Illustrator 21.1.0, SVG Export Plug-In . SVG Version: 6.00 Build 0)  -->
<svg version="1.1"
	 id="svg2" inkscape:version="0.91 r13725" sodipodi:docname="Kika_2012.svg" xmlns:cc="http://creativecommons.org/ns#" xmlns:dc="http://purl.org/dc/elements/1.1/" xmlns:inkscape="http://www.inkscape.org/namespaces/inkscape" xmlns:rdf="http://www.w3.org/1999/02/22-rdf-syntax-ns#" xmlns:sodipodi="http://sodipodi.sourceforge.net/DTD/sodipodi-0.dtd" xmlns:svg="http://www.w3.org/2000/svg"
	 xmlns="http://www.w3.org/2000/svg" xmlns:xlink="http://www.w3.org/1999/xlink" x="0px" y="0px" viewBox="0 0 512.1 253.5"
	 style="enable-background:new 0 0 512.1 253.5;" xml:space="preserve">
<style type="text/css">
	.st0{fill:#176563;}
	.st1{fill:#F5FC1F;}
</style>
<sodipodi:namedview  bordercolor="#666666" borderopacity="1" gridtolerance="10" guidetolerance="10" id="namedview46" inkscape:current-layer="svg2" inkscape:cx="377.50218" inkscape:cy="16.454774" inkscape:pageopacity="0" inkscape:pageshadow="2" inkscape:window-height="883" inkscape:window-maximized="0" inkscape:window-width="1523" inkscape:window-x="0" inkscape:window-y="0" inkscape:zoom="0.58542708" objecttolerance="10" pagecolor="#ffffff" showgrid="false">
	</sodipodi:namedview>
<g id="g4" transform="matrix(5.7971834,0,0,-5.7960514,-3779.8679,2100.9453)">
	<path id="path6" inkscape:connector-curvature="0" class="st0" d="M729,350h-4.2v4h4.2V350z M705.5,347.1l8,6.5v-12.9L705.5,347.1z
		 M669.7,347.1l8,6.5v-12.9L669.7,347.1z M737.4,362.5h-15.3l-7.4-5.9v3c0,1.6-1.3,2.9-2.9,3h-4c-0.6,0-1.2-0.2-1.7-0.5l-6.8-5.9
		v3.4c0,1.6-1.3,3-3,3H689h-1.1h-7.2c-1,0-1.9-0.5-2.5-1.2c-0.5,0.7-1.4,1.2-2.3,1.2h-4c-0.6,0-1.2-0.2-1.7-0.5l-6.8-5.9v6.4H655
		c-1.6,0-3-1.3-3-3v-24.8c0-1.6,1.3-3,3-3h8.3v6.4l6.8-5.9c0.5-0.4,1.1-0.5,1.7-0.5h4c1,0,1.8,0.5,2.4,1.3c0.5-0.8,1.4-1.3,2.4-1.3
		h3c0.5,0.1,0.9,0.2,1.3,0.5c0.2,0.1,1.8,1.4,2.9,2.4v-2.8h8.3c1.6,0,3,1.3,3,3v3.4l6.8-5.9c0.5-0.4,1.1-0.5,1.7-0.5h4
		c1,0,1.8,0.5,2.4,1.2c0.5-0.8,1.4-1.2,2.4-1.2h8.3v9.1h4.2v-9.1h8.3c1.6,0,3,1.3,3,3v24.8C740.3,361.1,739,362.5,737.4,362.5"/>
	<g id="g8">
		<path id="path10" inkscape:connector-curvature="0" class="st1" d="M677.7,334.7v4.5l-9.8,7.9l9.8,7.9v4.5c0,1-0.8,1.8-1.8,1.8h-4
			c-0.4,0-0.7-0.1-1.1-0.3l-8.6-7.4v7.7H655c-1,0-1.9-0.8-1.9-1.9v-24.8c0-1,0.8-1.9,1.9-1.9h7.2v7.8l8.6-7.4
			c0.3-0.2,0.7-0.3,1.1-0.3h4C676.9,332.9,677.7,333.7,677.7,334.7"/>
		<path id="path12" inkscape:connector-curvature="0" class="st1" d="M687.9,336v16.1c0,1-0.8,1.9-1.9,1.9h-7.2v-19.2
			c0-1,0.8-1.9,1.9-1.9h2.9c0.3,0,0.5,0.1,0.7,0.3C684.5,333.3,686.5,334.9,687.9,336"/>
		<path id="path14" inkscape:connector-curvature="0" class="st1" d="M680.7,361.3c-1,0-1.9-0.8-1.9-1.5v-4.7h9v6.3H680.7z"/>
		<path id="path16" inkscape:connector-curvature="0" class="st1" d="M713.5,334.7v4.5l-9.8,7.9l9.8,7.9v4.5c0,1-0.8,1.8-1.8,1.8h-4
			c-0.4,0-0.7-0.1-1.1-0.3l-8.6-7.4v5.9c0,1-0.8,1.8-1.9,1.8H689v-28.5h7.2c1,0,1.9,0.8,1.9,1.9v5.9l8.6-7.4
			c0.3-0.2,0.7-0.3,1.1-0.3h4C712.7,332.9,713.5,333.7,713.5,334.7"/>
		<path id="path18" inkscape:connector-curvature="0" class="st1" d="M739.2,359.5c0,1-0.8,1.8-1.9,1.8h-14.9l-7.8-6.3v-20.4
			c0-1,0.8-1.9,1.9-1.9h7.2v9.1h6.5v-9.1h7.2c1,0,1.9,0.8,1.9,1.9V359.5z M730.2,348.8h-6.5v6.3h6.5V348.8z"/>
	</g>
	<g id="g20">
		<path id="path22" inkscape:connector-curvature="0" class="st0" d="M657,326.1l-1.7-6.9c0-0.2-0.1-0.3-0.3-0.3h-1.1
			c-0.2,0-0.3,0.1-0.3,0.3l-1.6,6.9c0,0.1,0,0.2,0.1,0.3c0.1,0.1,0.2,0.1,0.3,0.1h0.8c0.1,0,0.1,0,0.2-0.1c0.1-0.1,0.1-0.1,0.1-0.2
			l0.9-4.4c0-0.1,0-0.2,0.1-0.2c0,0,0.1,0,0.1,0.1l1,4.4c0,0.2,0.2,0.3,0.3,0.3h0.8C656.9,326.5,657.1,326.4,657,326.1
			C657.1,326.1,657.1,326.1,657,326.1"/>
		<path id="path24" inkscape:connector-curvature="0" class="st0" d="M661.3,320.8v3.8c0,0.2-0.1,0.3-0.2,0.5
			c-0.1,0.1-0.3,0.2-0.4,0.2h-0.3c-0.2,0-0.3-0.1-0.5-0.2c-0.1-0.1-0.2-0.3-0.2-0.5v-3.8c0-0.2,0.1-0.3,0.2-0.5
			c0.1-0.1,0.3-0.2,0.5-0.2h0.3c0.2,0,0.3,0.1,0.4,0.2S661.3,320.6,661.3,320.8 M662.8,320.8c0-0.6-0.2-1-0.6-1.4
			c-0.4-0.4-0.9-0.6-1.4-0.6h-0.5c-0.6,0-1,0.2-1.4,0.6c-0.4,0.4-0.6,0.9-0.6,1.4v3.9c0,0.6,0.2,1,0.6,1.4c0.4,0.4,0.9,0.6,1.4,0.6
			h0.5c0.6,0,1-0.2,1.4-0.6s0.6-0.9,0.6-1.4V320.8z"/>
		<path id="path26" inkscape:connector-curvature="0" class="st0" d="M669.1,319.2c0-0.2-0.1-0.3-0.3-0.3h-0.9
			c-0.2,0-0.3,0.1-0.3,0.3v5.4c0,0.4-0.2,0.6-0.5,0.6c-0.2,0-0.5-0.1-0.7-0.3c-0.2-0.2-0.4-0.3-0.4-0.5v-5.2c0-0.2-0.1-0.3-0.3-0.3
			h-0.9c-0.2,0-0.3,0.1-0.3,0.3v6.9c0,0.2,0.1,0.3,0.3,0.3h0.9c0.2,0,0.3-0.1,0.3-0.3V326c0-0.1,0-0.1,0.1-0.1c0.1,0,0.1,0,0.2,0.1
			c0.4,0.4,0.9,0.6,1.5,0.6c0.4,0,0.7-0.1,1-0.4c0.3-0.3,0.4-0.6,0.4-1L669.1,319.2L669.1,319.2z"/>
		<path id="path28" inkscape:connector-curvature="0" class="st0" d="M677.7,323l-0.6,3.3c0,0.2-0.1,0.3-0.1,0.3
			c-0.1,0-0.1-0.1-0.1-0.3l-0.5-3.3c0-0.2,0-0.4,0.3-0.4h0.8c0.1,0,0.2,0,0.2,0.1C677.7,322.9,677.7,322.9,677.7,323 M680.2,319.2
			c0-0.1,0-0.2-0.1-0.3c-0.1-0.1-0.1-0.1-0.2-0.1h-1.1c-0.2,0-0.3,0.1-0.3,0.4l-0.3,1.5c0,0.2-0.2,0.3-0.3,0.3h-1.5
			c-0.2,0-0.3-0.1-0.4-0.3l-0.3-1.5c0-0.2-0.2-0.4-0.4-0.4h-1.1c-0.1,0-0.2,0-0.2,0.1c-0.1,0.1-0.1,0.2-0.1,0.3l1.8,9.3
			c0,0.2,0.2,0.4,0.3,0.4h1.8c0.2,0,0.3-0.1,0.3-0.4L680.2,319.2L680.2,319.2z"/>
		<path id="path30" inkscape:connector-curvature="0" class="st0" d="M685.4,325.5v0.8c0,0.3-0.1,0.5-0.3,0.7
			c-0.2,0.2-0.4,0.3-0.7,0.3h-1c-0.2,0-0.3-0.1-0.3-0.3v-2.1c0-0.2,0.1-0.3,0.3-0.3h0.9c0.3,0,0.5,0.1,0.7,0.3
			S685.4,325.3,685.4,325.5 M687.2,319.2C687.2,319.2,687.3,319.1,687.2,319.2c0-0.3-0.1-0.3-0.2-0.3h-1.1c-0.1,0-0.3,0.1-0.3,0.3
			l-1.3,3.6c-0.1,0.2-0.1,0.2-0.3,0.2h-0.5c-0.2,0-0.3-0.1-0.3-0.3v-3.5c0-0.1,0-0.2-0.1-0.2c-0.1-0.1-0.1-0.1-0.2-0.1h-1
			c-0.2,0-0.3,0.1-0.3,0.3v9.3c0,0.2,0.1,0.3,0.3,0.3h2.6c0.7,0,1.4-0.2,1.9-0.7c0.5-0.5,0.8-1.1,0.8-1.9v-0.5c0-1-0.4-1.7-1.3-2.3
			c0,0,0-0.1,0-0.2L687.2,319.2L687.2,319.2z"/>
		<path id="path32" inkscape:connector-curvature="0" class="st0" d="M692.5,321.8v4.1c0,0.4-0.1,0.7-0.4,1c-0.3,0.3-0.6,0.4-1,0.4
			h-0.4c-0.2,0-0.4-0.1-0.4-0.3v-6.2c0-0.1,0-0.2,0.1-0.3c0.1-0.1,0.2-0.1,0.3-0.1h0.4c0.4,0,0.7,0.1,1,0.4
			C692.3,321.1,692.5,321.4,692.5,321.8 M694.2,321.7c0-0.8-0.3-1.4-0.8-2c-0.5-0.5-1.2-0.8-2-0.8h-2.5c-0.1,0-0.2,0-0.2,0.1
			c-0.1,0.1-0.1,0.2-0.1,0.3v9.3c0,0.2,0.1,0.4,0.3,0.4h2.5c0.8,0,1.4-0.3,2-0.8c0.5-0.5,0.8-1.2,0.8-2V321.7L694.2,321.7z"/>
		<path id="path34" inkscape:connector-curvature="0" class="st0" d="M704.1,319.2c0-0.2-0.1-0.3-0.3-0.3h-0.9
			c-0.1,0-0.3,0.1-0.3,0.3c-0.1,0.2-0.2,0.3-0.3,0.3c-0.1,0-0.2-0.1-0.5-0.4c-0.2-0.2-0.5-0.4-0.7-0.4h-0.5c-0.3,0-0.6,0.1-0.8,0.4
			c-0.3,0.3-0.4,0.6-0.4,0.9v6c0,0.2,0.1,0.3,0.3,0.3h0.9c0.2,0,0.3-0.1,0.3-0.3v-5.1c0-0.5,0.2-0.7,0.7-0.7c0.2,0,0.4,0.1,0.6,0.2
			c0.2,0.2,0.3,0.3,0.3,0.5v5.1c0,0.2,0.1,0.3,0.3,0.3h0.9c0.2,0,0.3-0.1,0.3-0.3L704.1,319.2L704.1,319.2z"/>
		<path id="path36" inkscape:connector-curvature="0" class="st0" d="M710.3,319.2c0-0.2-0.1-0.3-0.3-0.3h-0.9
			c-0.2,0-0.3,0.1-0.3,0.3v5.4c0,0.4-0.2,0.6-0.5,0.6c-0.2,0-0.5-0.1-0.7-0.3c-0.2-0.2-0.4-0.3-0.4-0.5v-5.2c0-0.2-0.1-0.3-0.3-0.3
			h-0.9c-0.2,0-0.3,0.1-0.3,0.3v6.9c0,0.2,0.1,0.3,0.3,0.3h0.9c0.2,0,0.3-0.1,0.3-0.3V326c0-0.1,0-0.1,0.1-0.1c0.1,0,0.1,0,0.2,0.1
			c0.4,0.4,0.9,0.6,1.5,0.6c0.4,0,0.7-0.1,1-0.4c0.3-0.3,0.4-0.6,0.4-1L710.3,319.2L710.3,319.2z"/>
		<path id="path38" inkscape:connector-curvature="0" class="st0" d="M715,320.8v3.8c0,0.1-0.1,0.2-0.2,0.4
			c-0.1,0.1-0.3,0.2-0.4,0.2H714c-0.2,0-0.3-0.1-0.4-0.2c-0.1-0.1-0.2-0.2-0.2-0.4v-3.8c0-0.2,0.1-0.3,0.2-0.4
			c0.1-0.1,0.3-0.2,0.4-0.2h0.5c0.1,0,0.3,0.1,0.4,0.2S715,320.7,715,320.8 M716.6,319.2c0-0.2-0.1-0.3-0.3-0.3h-0.9
			c-0.2,0-0.3,0.1-0.3,0.3c0,0.1,0,0.1-0.1,0.1c-0.1,0-0.1,0-0.2-0.1c-0.2-0.2-0.3-0.3-0.4-0.4c-0.2-0.1-0.4-0.1-0.7-0.1h-0.4
			c-0.4,0-0.7,0.1-1,0.4c-0.3,0.3-0.4,0.6-0.4,1v5c0,0.4,0.1,0.7,0.4,1c0.3,0.3,0.6,0.4,1,0.4h0.4c0.4,0,0.6,0,0.8-0.1
			c0,0,0.1-0.1,0.3-0.4c0.1-0.1,0.1-0.1,0.2-0.1c0.1,0,0.1,0.1,0.1,0.2v2.4c0,0.2,0.1,0.3,0.3,0.3h0.9c0.2,0,0.3-0.1,0.3-0.3V319.2
			L716.6,319.2z"/>
		<path id="path40" inkscape:connector-curvature="0" class="st0" d="M727.1,319.2c0-0.2-0.1-0.3-0.3-0.3h-4.8
			c-0.2,0-0.3,0.1-0.3,0.3v0.7c0,0.2,0,0.3,0.1,0.4l3.4,6.8c0,0,0,0,0,0.1c0,0.1-0.1,0.1-0.2,0.1h-2.7c-0.2,0-0.3,0.1-0.3,0.3v0.9
			c0,0.2,0.1,0.3,0.3,0.3h4.5c0.2,0,0.3-0.1,0.3-0.3v-0.7c0-0.2,0-0.3-0.1-0.4l-3.4-6.8c-0.1-0.1,0-0.2,0.1-0.2h3
			c0.2,0,0.3-0.1,0.3-0.3L727.1,319.2L727.1,319.2z"/>
		<path id="path42" inkscape:connector-curvature="0" class="st0" d="M732.3,321.8v4.1c0,0.4-0.1,0.7-0.4,1c-0.3,0.3-0.6,0.4-1,0.4
			h-0.4c-0.2,0-0.4-0.1-0.4-0.3v-6.2c0-0.1,0-0.2,0.1-0.3c0.1-0.1,0.2-0.1,0.3-0.1h0.4c0.4,0,0.7,0.1,1,0.4
			C732.2,321.1,732.3,321.4,732.3,321.8 M734.1,321.7c0-0.8-0.3-1.4-0.8-2c-0.5-0.5-1.2-0.8-2-0.8h-2.5c-0.1,0-0.2,0-0.2,0.1
			c-0.1,0.1-0.1,0.2-0.1,0.3v9.3c0,0.2,0.1,0.4,0.3,0.4h2.5c0.8,0,1.4-0.3,2-0.8c0.5-0.5,0.8-1.2,0.8-2V321.7L734.1,321.7z"/>
		<path id="path44" inkscape:connector-curvature="0" class="st0" d="M740.3,327.6c0-0.1,0-0.2-0.1-0.3c-0.1-0.1-0.2-0.1-0.3-0.1
			h-2.4c-0.1,0-0.2,0-0.2-0.1c-0.1-0.1-0.1-0.2-0.1-0.2v-1.7c0-0.2,0.1-0.3,0.4-0.3h1.8c0.1,0,0.2,0,0.3-0.1
			c0.1-0.1,0.1-0.2,0.1-0.2v-0.8c0-0.1,0-0.2-0.1-0.3c-0.1-0.1-0.2-0.1-0.3-0.1h-1.8c-0.2,0-0.3-0.1-0.3-0.3v-3.7
			c0-0.2-0.1-0.4-0.3-0.4h-1c-0.1,0-0.2,0-0.3,0.1c-0.1,0.1-0.1,0.2-0.1,0.3v9.3c0,0.1,0,0.2,0.1,0.2c0.1,0.1,0.2,0.1,0.3,0.1h4.1
			c0.2,0,0.4-0.1,0.4-0.3V327.6z"/>
	</g>
</g>
</svg>
