<?xml version="1.0" encoding="utf-8"?>
<!-- Generator: Adobe Illustrator 21.1.0, SVG Export Plug-In . SVG Version: 6.00 Build 0)  -->
<svg version="1.1"
	 id="svg2" inkscape:version="0.91 r13725" sodipodi:docname="one_logo_rot.svg" xmlns:cc="http://creativecommons.org/ns#" xmlns:dc="http://purl.org/dc/elements/1.1/" xmlns:inkscape="http://www.inkscape.org/namespaces/inkscape" xmlns:rdf="http://www.w3.org/1999/02/22-rdf-syntax-ns#" xmlns:sodipodi="http://sodipodi.sourceforge.net/DTD/sodipodi-0.dtd" xmlns:svg="http://www.w3.org/2000/svg"
	 xmlns="http://www.w3.org/2000/svg" xmlns:xlink="http://www.w3.org/1999/xlink" x="0px" y="0px" viewBox="0 0 512 156.6"
	 style="enable-background:new 0 0 512 156.6;" xml:space="preserve">
<style type="text/css">
	.st0{fill:#D20046;}
</style>
<sodipodi:namedview  bordercolor="#666666" borderopacity="1" gridtolerance="10" guidetolerance="10" id="namedview4" inkscape:current-layer="g10" inkscape:cx="266.85862" inkscape:cy="163.81085" inkscape:pageopacity="0" inkscape:pageshadow="2" inkscape:window-height="825" inkscape:window-maximized="0" inkscape:window-width="1604" inkscape:window-x="20" inkscape:window-y="43" inkscape:zoom="1.5954864" objecttolerance="10" pagecolor="#ffffff" showgrid="false">
	</sodipodi:namedview>
<g id="g16">
	<g id="g22" transform="translate(683.5082,647.0432)">
		<path id="path24" inkscape:connector-curvature="0" class="st0" d="M-616.9-583.6c-9.2,0-18.4,7.4-18.4,25.3
			c0,19.7,4.9,27.6,17.4,27.6c12,0,18.4-10.5,18.4-26.3C-599.5-575.2-604.1-583.6-616.9-583.6 M-620.5-490.4c-38,0-63-17.1-63-62.8
			c0-43.1,30.4-70.2,69.4-70.2c41.6,0,62.8,23.2,62.8,63.6C-551.3-517.5-582.2-490.4-620.5-490.4"/>
	</g>
	<g id="g26" transform="translate(852.5558,544.161)">
		<path id="path28" inkscape:connector-curvature="0" class="st0" d="M-637.9-390.6v-80.1c0-6.4-1.8-10.5-7.1-10.5
			c-10.2,0-19.9,14.8-19.9,28.8v61.8h-46.5v-126.9h42.9c0,3.3-0.3,11.2-1.3,16.8h0.3c7.9-11.2,21.2-19.9,40.6-19.9
			c28.1,0,37.5,18.4,37.5,40.1v89.8H-637.9z"/>
	</g>
	<g id="g30" transform="translate(987.7898,654.3292)">
		<path id="path32" inkscape:connector-curvature="0" class="st0" d="M-654.7-597.3c-8.9,0-15.1,7.1-15.6,17.6h28.6
			C-641.1-591.9-646.5-597.3-654.7-597.3 M-598-549.5h-72c0.8,8.9,9.2,16.1,27.3,16.1c12,0,24.8-2.3,37.5-7.9l4.1,34.7
			c-15.3,6.1-33.4,8.9-49,8.9c-42.6,0-66.9-19.9-66.9-64.8c0-39.3,22.2-68.4,63.3-68.4c39.3,0,57.2,26.3,57.2,61.5
			C-596.5-563.1-597-556.4-598-549.5"/>
	</g>
	<g id="g34" transform="translate(1131.8658,710.648)">
		<path id="path36" inkscape:connector-curvature="0" class="st0" d="M-672.6-702.9c-24.8,0-45,20.1-45,45c0,24.8,20.1,45,45,45
			c24.8,0,45-20.1,45-45C-627.6-682.8-647.7-702.9-672.6-702.9 M-651.4-636.6v-52.8l-53.1,19v13.1l17.6-6.3v39.7
			C-686.9-623.9-651.4-636.6-651.4-636.6z M-672.6-710.6c29.1,0,52.7,23.6,52.7,52.7s-23.6,52.7-52.7,52.7
			c-29.1,0-52.7-23.6-52.7-52.7S-701.7-710.6-672.6-710.6"/>
	</g>
</g>
</svg>
