<?xml version="1.0" encoding="utf-8"?>
<!-- Generator: Adobe Illustrator 21.1.0, SVG Export Plug-In . SVG Version: 6.00 Build 0)  -->
<svg version="1.1"
	 id="svg2" inkscape:version="0.91 r13725" sodipodi:docname="ORF_Sport+.svg" xmlns:cc="http://creativecommons.org/ns#" xmlns:dc="http://purl.org/dc/elements/1.1/" xmlns:inkscape="http://www.inkscape.org/namespaces/inkscape" xmlns:rdf="http://www.w3.org/1999/02/22-rdf-syntax-ns#" xmlns:sodipodi="http://sodipodi.sourceforge.net/DTD/sodipodi-0.dtd" xmlns:svg="http://www.w3.org/2000/svg"
	 xmlns="http://www.w3.org/2000/svg" xmlns:xlink="http://www.w3.org/1999/xlink" x="0px" y="0px" viewBox="0 0 512 79.8"
	 style="enable-background:new 0 0 512 79.8;" xml:space="preserve">
<style type="text/css">
	.st0{fill:url(#rect3872_1_);stroke:#000000;stroke-width:0.3817;stroke-opacity:0;}
	.st1{stroke:#000000;stroke-width:0.6722;stroke-opacity:0;}
	.st2{fill:#EC1B24;}
	.st3{fill:#FFFFFF;}
</style>
<sodipodi:namedview  bordercolor="#666666" borderopacity="1" gridtolerance="10" guidetolerance="10" id="namedview29" inkscape:current-layer="layer1" inkscape:cx="-26.283384" inkscape:cy="219.46469" inkscape:pageopacity="0" inkscape:pageshadow="2" inkscape:window-height="984" inkscape:window-maximized="1" inkscape:window-width="1920" inkscape:window-x="0" inkscape:window-y="0" inkscape:zoom="0.5" objecttolerance="10" pagecolor="#ffffff" showgrid="false">
	</sodipodi:namedview>
<g id="layer1" transform="translate(0,-764.36126)">
	
		<linearGradient id="rect3872_1_" gradientUnits="userSpaceOnUse" x1="-224.7116" y1="1236.0273" x2="-110.5644" y2="1349.1644" gradientTransform="matrix(-0.4858 0 0 -0.4858 390.6728 1432.2876)">
		<stop  offset="0" style="stop-color:#FBA10D"/>
		<stop  offset="1" style="stop-color:#FFCE08"/>
	</linearGradient>
	<rect id="rect3872" x="432.2" y="764.4" class="st0" width="79.6" height="79.7"/>
	<rect id="rect3067" x="185.3" y="764.4" class="st1" width="246.9" height="79.7"/>
	<g id="g15458" transform="matrix(0.39063237,0,0,0.39063237,-18.853404,717.57357)">
		<path id="path1264" inkscape:connector-curvature="0" class="st2" d="M48.3,323.9H525V119.8H48.3
			C48.3,119.8,48.3,323.9,48.3,323.9z"/>
		<path id="path1266" inkscape:connector-curvature="0" class="st3" d="M207.5,221.8c0-33.2-26.9-58.9-60.7-58.9
			c-33.6,0-60.7,25.7-60.7,58.9c0,33.4,27.1,59,60.7,59C180.6,280.8,207.5,255.1,207.5,221.8 M178.7,221.8c0,18-15.4,32.4-32,32.4
			S115,239.8,115,221.8c0-17.9,15.2-32.2,31.8-32.2S178.7,203.9,178.7,221.8"/>
		<path id="path1268" inkscape:connector-curvature="0" class="st3" d="M247.7,278.7h28.1v-33.2h20.8l21.9,33.2h34.7l-28.1-39.9
			c13.3-5.7,22.5-18.3,22.5-33.6c0-22.6-16.6-40.2-42-40.2h-57.9C247.7,165,247.7,278.7,247.7,278.7z M303.9,218.7h-28.2v-26.9h28.2
			c12.1,0,15.8,6,15.8,13.4C319.7,212.9,316.1,218.7,303.9,218.7"/>
		<path id="path1270" inkscape:connector-curvature="0" class="st3" d="M394.5,278.6h27.9v-38.2h52.8v-26.8h-52.8v-21.8h64.8V165
			h-92.7V278.6z"/>
	</g>
	<g id="text3912" transform="matrix(0.50597426,-0.00494939,0.00422104,0.46640864,-0.38017375,437.48124)">
		<path id="path3141" inkscape:connector-curvature="0" class="st3" d="M463.4,763.5c-4.9-3.6-9.8-5.3-14.8-5.3
			c-10.1,0-15.1,3.8-15.1,11.4c0,3.2,2.7,7.1,8,11.5l9.5,8c2.9,2.5,5,4.3,6.1,5.5c1.1,1.2,2.3,2.7,3.6,4.8c1.3,2,2.2,4.1,2.8,6.2
			c0.6,2.1,0.9,4.2,0.9,6.4c0,8.4-3.1,15-9.4,19.7c-6.3,4.7-14.5,7.1-24.5,7.1c-8.2,0-16-1.8-23.3-5.3l5.3-16.1
			c5.6,4.2,12.1,6.3,19.5,6.3c4.5,0,8.2-1,11.1-2.9c2.9-1.9,4.4-4.6,4.4-8.1c0-3.5-2.7-7.3-8-11.5l-9.8-7.8c-3-2.4-5-4.2-6.1-5.3
			c-1.1-1.1-2.2-2.6-3.4-4.5c-1.2-1.9-2-3.9-2.6-6c-0.6-2-0.9-4.2-0.9-6.3c0-8.4,2.8-15.1,8.4-20.1c5.6-4.9,12.9-7.4,22-7.4
			c3,0,6.9,0.3,11.5,1c4.7,0.7,8,1.5,9.8,2.4L463.4,763.5z"/>
		<path id="path3143" inkscape:connector-curvature="0" class="st3" d="M494.9,803.5l-6.2,33.7H472l17.3-91.8
			c8.7-0.9,15.4-1.4,20-1.4c24.3,0,36.4,9.1,36.4,27.4c0,10.3-3.7,18.4-11.1,24.2c-7.4,5.9-16.9,8.8-28.7,8.8
			C502.2,804.6,498.5,804.3,494.9,803.5L494.9,803.5z M502.9,759.3l-5.5,30.3c2.1,0.6,4.9,0.9,8.2,0.9c7.1,0,12.8-1.5,16.9-4.6
			c4.2-3.1,6.3-7.4,6.3-13.2c0-9.7-5.5-14.5-16.4-14.5C509.4,758.3,506.3,758.6,502.9,759.3L502.9,759.3z"/>
		<path id="path3145" inkscape:connector-curvature="0" class="st3" d="M550.1,803.1c0-16.4,4.5-30.3,13.4-41.9
			c8.9-11.6,20.5-17.4,34.8-17.4c11,0,19.5,2.9,25.4,8.8c5.9,5.8,8.9,14.3,8.9,25.3c0,18.1-4.6,32.8-13.7,44.1
			c-9.1,11.3-21.6,16.9-37.4,16.9c-9.7,0-17.4-3.3-23-9.8C552.9,822.5,550.1,813.9,550.1,803.1L550.1,803.1z M567.1,801.4
			c0,7.1,1.4,12.7,4.2,16.9c2.8,4.2,6.9,6.3,12.3,6.3c10,0,17.8-4.5,23.6-13.4c5.8-8.9,8.7-19.6,8.7-32.1c0-14.1-6.2-21.1-18.6-21.1
			c-8.7,0-15.9,4.6-21.6,13.8C569.9,781,567.1,790.9,567.1,801.4L567.1,801.4z"/>
		<path id="path3147" inkscape:connector-curvature="0" class="st3" d="M687.2,796.6l20.5,40.7l-18.4,0l-17.6-38
			c-2.8,0-6.3-0.2-10.5-0.5l-7.1,38.5h-16.8l16.8-91.9c12.2-0.6,20.2-0.9,24-0.9c9.9,0,17.7,1.9,23.5,5.7c5.8,3.8,8.6,9.4,8.6,16.6
			c0,7.4-2.1,13.7-6.3,19.2C699.9,791.4,694.3,794.9,687.2,796.6L687.2,796.6z M668.5,759.5l-4.7,25.7c2.5,0.3,4.7,0.4,6.6,0.4
			c15.8,0,23.7-5,23.7-15.1c0-4.2-1.5-7.2-4.5-9c-3-1.8-8.1-2.7-15.1-2.7C673.9,758.9,671.9,759.1,668.5,759.5L668.5,759.5z"/>
		<path id="path3149" inkscape:connector-curvature="0" class="st3" d="M801.5,759.7h-29l-14.2,77.6h-16.5l14.2-77.6h-29.2l2.6-14.3
			l74.8,0L801.5,759.7z"/>
	</g>
	<g id="text3924" transform="matrix(0.48767645,-0.00513509,0.00406839,0.48390847,-0.38017375,437.48124)">
		<path id="path3152" inkscape:connector-curvature="0" class="st3" d="M969.7,776.6v36.1h-20.5v-36.1h-35.4v-20.5l35.4,0v-34.9
			h20.5l0,34.9h35.5v20.5L969.7,776.6z"/>
	</g>
</g>
</svg>
