<?xml version="1.0" encoding="utf-8"?>
<!-- Generator: Adobe Illustrator 21.1.0, SVG Export Plug-In . SVG Version: 6.00 Build 0)  -->
<svg version="1.1"
	 id="svg20546" inkscape:version="0.91 r13725" sodipodi:docname="SWR_Dachmarke_SW_logo.svg" xmlns:cc="http://creativecommons.org/ns#" xmlns:dc="http://purl.org/dc/elements/1.1/" xmlns:inkscape="http://www.inkscape.org/namespaces/inkscape" xmlns:rdf="http://www.w3.org/1999/02/22-rdf-syntax-ns#" xmlns:sodipodi="http://sodipodi.sourceforge.net/DTD/sodipodi-0.dtd" xmlns:svg="http://www.w3.org/2000/svg"
	 xmlns="http://www.w3.org/2000/svg" xmlns:xlink="http://www.w3.org/1999/xlink" x="0px" y="0px" viewBox="0 0 512 150.9"
	 style="enable-background:new 0 0 512 150.9;" xml:space="preserve">
<style type="text/css">
	.st0{fill:#1A171B;}
</style>
<sodipodi:namedview  bordercolor="#666666" borderopacity="1" gridtolerance="10" guidetolerance="10" id="namedview5" inkscape:current-layer="svg20546" inkscape:cx="512" inkscape:cy="157" inkscape:pageopacity="0" inkscape:pageshadow="2" inkscape:window-height="751" inkscape:window-maximized="0" inkscape:window-width="1269" inkscape:window-x="0" inkscape:window-y="0" inkscape:zoom="0.35351562" objecttolerance="10" pagecolor="#ffffff" showgrid="false">
	</sodipodi:namedview>
<path id="path20530" inkscape:connector-curvature="0" class="st0" d="M437.2,0v49.1l26.4,26.4l-26.4,26.4v49.1L512,75.4L437.2,0
	 M370,0v49.1l26.4,26.4L370,101.8v49.1l74.8-75.4L370,0 M204.6,7.5l-13.7,84.1L177.2,7.5h-31.6l-13.7,84.1L118.2,7.5H86.6l24,135.8
	H146l15.4-87.2l15.4,87.2h35.4l24-135.8H204.6 M32.2,145.3c-9.4,0-19.3-1-28-3l1.4-29.7c7.6,2.8,19.1,5.7,29,5.7
	c11.5,0,19.8-4.8,19.8-14.5C54.4,80.7,1,92.1,0,47.1C-0.6,21.6,20.1,4.7,54.2,4.7c7.2,0,16.3,0.8,24.7,2.4l-0.1,27.7
	c-7.6-2.2-17.8-4.2-25.9-4.2c-13.1,0-19.4,5.6-19.4,13.3c0,21.1,54.3,13.1,54.3,55.5C87.9,125.8,66.8,145.3,32.2,145.3 M304.9,49.4
	c0-10.7-6.3-17.1-21-17.1c-3.2,0-6.9,0.2-8.7,0.4v34.8c1.6,0.2,4.8,0.4,7.9,0.4C296.4,67.9,304.9,60.9,304.9,49.4 M346.9,143.3
	h-38.2l-32.3-53h-1.2v53h-31.4V7.5c11.5-0.8,26.2-1,42.5-1c32.1,0,50.8,11.5,50.8,40.3c0,18.3-11.3,33.2-29.4,37.6
	c3.6,5.2,7,10.2,10.5,15.3L346.9,143.3"/>
</svg>
