<?xml version="1.0" encoding="utf-8"?>
<!-- Generator: Adobe Illustrator 21.1.0, SVG Export Plug-In . SVG Version: 6.00 Build 0)  -->
<svg version="1.1"
	 id="svg2016" inkscape:version="0.91 r13725" sodipodi:docname="Mdr-fernsehen-logo.svg" xmlns:cc="http://creativecommons.org/ns#" xmlns:dc="http://purl.org/dc/elements/1.1/" xmlns:inkscape="http://www.inkscape.org/namespaces/inkscape" xmlns:rdf="http://www.w3.org/1999/02/22-rdf-syntax-ns#" xmlns:sodipodi="http://sodipodi.sourceforge.net/DTD/sodipodi-0.dtd" xmlns:svg="http://www.w3.org/2000/svg"
	 xmlns="http://www.w3.org/2000/svg" xmlns:xlink="http://www.w3.org/1999/xlink" x="0px" y="0px" viewBox="0 0 512 102.3"
	 style="enable-background:new 0 0 512 102.3;" xml:space="preserve">
<style type="text/css">
	.st0{fill:#E64414;}
	.st1{fill:#6F9ACC;}
	.st2{fill:#0063AC;}
	.st3{fill:#FFFFFF;}
</style>
<sodipodi:namedview  bordercolor="#666666" borderopacity="1" gridtolerance="10" guidetolerance="10" id="namedview21" inkscape:current-layer="svg2016" inkscape:cx="442.91336" inkscape:cy="102.75591" inkscape:pageopacity="0" inkscape:pageshadow="2" inkscape:window-height="856" inkscape:window-maximized="0" inkscape:window-width="1433" inkscape:window-x="0" inkscape:window-y="0" inkscape:zoom="0.4086578" objecttolerance="10" pagecolor="#ffffff" showgrid="false">
	</sodipodi:namedview>
<g id="layer1" transform="matrix(0.60230925,0,0,0.60207407,-2018.7391,1935.7635)">
	<g id="g4581" transform="translate(17.71641,17.76431)">
		<path id="path3053" inkscape:connector-curvature="0" class="st0" d="M3869.7-3232.9h314.6v170h-314.6V-3232.9z"/>
		<path id="path3055" inkscape:connector-curvature="0" class="st1" d="M3793.3-3232.9h68.1v170h-68.1V-3232.9z"/>
		<path id="path3057" inkscape:connector-curvature="0" class="st2" d="M3334-3232.9h450.8v170H3334V-3232.9z"/>
		<path id="path3059" inkscape:connector-curvature="0" class="st3" d="M3436.5-3176.6c-4-10-15.5-18.5-30.3-17.9
			c-15,0.6-24.7,10.8-31.1,21.1v-17.7H3334v10.3h14.7c7.3,0,8.1,3.2,8.1,10.2v42.7c0,0,16-25.6,20.3-32.3
			c5.3-8.2,13.1-23.4,28.9-23.9c24-1,26.3,25.3,26.8,30.2l0.3,0.2c0,0,11-29.4,32.3-30.3c21.3-1.1,25.6,19.8,26.4,27.9
			c0.3,3.2,0.2,10.6,0.2,10.6h9v-3.1c0-25.2-6.8-46.8-35.3-46C3452.2-3194.1,3442.8-3185.7,3436.5-3176.6"/>
		<path id="path3061" inkscape:connector-curvature="0" class="st3" d="M3528.9-3129.2c0-0.3-0.6-3.9-1-6.5c-0.5-4.4-0.2-9.8,0-11.1
			c1.3-19.2,10.5-36.1,31-36c16.4,0.2,25.5,11.8,29.8,16.1l19.2,21.6v-87.9h-40v10h11.5c7.1,0,10,5,10,12.1v30.2
			c-9.4-10.2-21.3-14-35.3-14c-30.6,0-45.2,23.7-46.9,48.1c-0.2,1.6-0.5,7.7,0.8,17.4L3528.9-3129.2"/>
		<path id="path3063" inkscape:connector-curvature="0" class="st3" d="M3689.4-3184.1c4.7-0.2,11.1,1.1,12.3,6.1
			c-7.6,0-12.7,3.5-12.7,11.6c0,6.3,6.1,10.2,11.9,10.2c8.4,0,11.8-6.5,11.8-14.8c0-15.3-9.5-24-23.9-23.5
			c-15,0.6-23.9,11-30.3,21.3v-17.9h-41v10.3h14.7c7.1,0,8.1,3.4,8.1,10.2v42.7c0,0,16-25.5,20.2-32.1
			C3665.9-3168.3,3673.6-3183.4,3689.4-3184.1"/>
		<path id="path3065" inkscape:connector-curvature="0" class="st3" d="M3894.4-3106.2v7.3h9.8v5.6h-9.8v13.4h-7.6v-32.1h17.9v5.8
			H3894.4L3894.4-3106.2z"/>
		<path id="path3067" inkscape:connector-curvature="0" class="st3" d="M3910.3-3079.9v-32.1h18.4v5.8h-11v6.9h10.2v5.6h-10.2v7.9
			h11.3v5.8L3910.3-3079.9L3910.3-3079.9z"/>
		<path id="path3069" inkscape:connector-curvature="0" class="st3" d="M3950-3079.9l-2.6-9.4c-0.8-2.6-1.8-3.5-3.4-3.5h-1.5v12.9
			h-7.6v-32.1h11.8c5.2,0,10,2.6,10,8.2c0,4.2-2.4,7.1-6.5,7.9c2.3,0.6,3.4,1.9,4.4,5l3.4,11H3950z M3944.7-3106.3h-2.1v7.9h2.1
			c2.7,0,4.2-1.5,4.2-4C3948.9-3105.2,3947.3-3106.3,3944.7-3106.3"/>
		<path id="path3071" inkscape:connector-curvature="0" class="st3" d="M3977.4-3079.9l-7.9-23.4v23.4h-6.5v-32.1h9.8l7.9,23.4
			v-23.4h6.5v32.1H3977.4L3977.4-3079.9z"/>
		<path id="path3073" inkscape:connector-curvature="0" class="st3" d="M4001.9-3079.4c-2.7,0-6.3-0.5-8.5-1.3l0.3-6.1
			c2.4,1.3,5.2,1.9,7.1,1.9c3.4,0,4.5-2.1,4.5-3.9c0-2.3-1.6-3.2-3.7-4.2l-2.9-1.5c-4-1.9-5.5-4.8-5.5-8.9c0-6,5.3-9.2,11.3-9.2
			c2.9,0,4.8,0.6,7.4,1.1l-0.3,6.1c-1.8-1-4.4-1.8-6.3-1.8c-2.3,0-4.4,1.1-4.4,3.4c0,1.9,1.1,2.7,3.2,3.7l2.7,1.3
			c3.9,1.8,6.1,3.9,6.1,9.2C4013.1-3083.4,4008.4-3079.4,4001.9-3079.4"/>
		<path id="path3075" inkscape:connector-curvature="0" class="st3" d="M4018.9-3079.9v-32.1h18.4v5.8h-10.8v6.9h10.2v5.6h-10.2v7.9
			h11.3v5.8L4018.9-3079.9L4018.9-3079.9z"/>
		<path id="path3077" inkscape:connector-curvature="0" class="st3" d="M4058.6-3079.9v-13.5h-7.3v13.5h-7.6v-32.1h7.6v12.6h7.3
			v-12.6h7.7v32.1H4058.6z"/>
		<path id="path3079" inkscape:connector-curvature="0" class="st3" d="M4073.5-3079.9v-32.1h18.2v5.8H4081v6.9h10.2v5.6H4081v7.9
			h11.3v5.8L4073.5-3079.9L4073.5-3079.9z"/>
		<path id="path3081" inkscape:connector-curvature="0" class="st3" d="M4112.6-3079.9l-7.9-23.4v23.4h-6.5v-32.1h9.8l7.9,23.4
			v-23.4h6.5v32.1H4112.6L4112.6-3079.9z"/>
	</g>
</g>
</svg>
