<?xml version="1.0" encoding="utf-8"?>
<!-- Generator: Adobe Illustrator 21.1.0, SVG Export Plug-In . SVG Version: 6.00 Build 0)  -->
<svg version="1.1"
	 id="Layer_1" inkscape:version="0.91 r13725" sodipodi:docname="MTV_Logo_2010.svg" xmlns:cc="http://creativecommons.org/ns#" xmlns:dc="http://purl.org/dc/elements/1.1/" xmlns:inkscape="http://www.inkscape.org/namespaces/inkscape" xmlns:rdf="http://www.w3.org/1999/02/22-rdf-syntax-ns#" xmlns:sodipodi="http://sodipodi.sourceforge.net/DTD/sodipodi-0.dtd" xmlns:svg="http://www.w3.org/2000/svg"
	 xmlns="http://www.w3.org/2000/svg" xmlns:xlink="http://www.w3.org/1999/xlink" x="0px" y="0px" viewBox="0 0 465.4 288"
	 style="enable-background:new 0 0 465.4 288;" xml:space="preserve">
<sodipodi:namedview  bordercolor="#666666" borderopacity="1" fit-margin-bottom="0" fit-margin-left="0" fit-margin-right="0" fit-margin-top="0" gridtolerance="10" guidetolerance="10" id="namedview17" inkscape:current-layer="g3" inkscape:cx="180.14991" inkscape:cy="159.5122" inkscape:pageopacity="0" inkscape:pageshadow="2" inkscape:window-height="984" inkscape:window-maximized="1" inkscape:window-width="1920" inkscape:window-x="0" inkscape:window-y="0" inkscape:zoom="1.1849519" objecttolerance="10" pagecolor="#ffffff" showgrid="false">
	</sodipodi:namedview>
<g id="g3" transform="translate(-12.75,267.064)">
	<path id="path5" inkscape:connector-curvature="0" d="M12.8-266.9c53,0,106.1,0,159.1,0c18.1,19.2,36.3,38.3,54.5,57.4
		c18.1-19.3,36.4-38.3,54.5-57.5c53.3,0,106.7,0,160,0c0,39.5,0,78.9,0,118.4c-0.1,1.8,0.4,3.8-0.5,5.5
		c-13.2,21.6-24.7,44.4-33.3,68.2c-1.1,2.6-2.1,5.5-4.6,7.1c-2.1,0.9-5.2,0.5-6.4-1.7c-1.5-2.8-1.4-6.1-1.9-9.2
		c-1.4-12-2.7-24.1-4.6-36.1c-1.2-6.1-2.5-12.7-7.1-17.3c-4.3-4.2-10.8-4.6-16.4-3.2c-5.1,1.1-9.9,4.2-12.5,8.8
		c-3.3,5.7-3.3,12.7-2.1,19.1c2.1,11.1,5.9,21.8,9.7,32.5c7.6,20.1,15.3,40.1,22.9,60.1c1.9,5.1,4.9,10.4,10.1,12.7
		c4.5,1.9,9.6,1.9,14.4,1.2c4.1-0.6,7.7-3.4,9.8-7c3.8-6.5,5.3-14.1,7.6-21.2c4.5-14.6,8.9-29.4,14.7-43.5c0.1,31.2,0,62.4,0,93.6
		c-33.3,0-66.6,0-99.9,0c-1.3-11.6-2.3-23.3-1.7-35c0.1-11.4,0.6-22.7,0.5-34.1c0.3-16.5-1.8-32.9-2.7-49.4
		c-1.1-12.8,0.3-25.6-0.8-38.4c9.5-5.9,19.3-11.1,28.8-16.9c6.4-4,13.3-7.4,18.7-12.6c3-2.9,5.4-7.4,3.6-11.6
		c-3.8-7.8-13.9-12-22.1-8.6c-6.7,3.1-10.6,9.7-16.7,13.6c-7.6,4.7-15.3,9.3-23.1,13.7c-5.9-3.1-13-4.1-19.4-2.1
		c-3.5,1.1-6.7,3.5-8.1,6.9c-1.6,3.8-0.3,8-1,11.9c-0.5,2.4-2.3,4.1-4.4,5.3c-8.6,5.1-17.3,10.1-25.9,15.2
		c-8.8,5.2-17.4,11.1-27.4,14c-6,1.8-13.1,3.8-16,10c-2.8,6,0.5,12.9,5.2,16.9c4,3.8,10.2,4.7,15.3,2.8c6.7-2.2,12.3-6.9,17.8-11
		c6.9-5.3,14-10.4,21.2-15.5c3.8-2.6,7.7-5.5,12.2-6.9c3.1-1.1,6.9,0.2,8.2,3.3c3,6.8,2.1,14.5,2.2,21.8c0.2,24.3-2,48.4-2.9,72.7
		c-0.1,11.4-0.2,22.7,0.4,34.1c-8.8,0-17.6,0.1-26.4-0.1c0.1-26.8,0.1-53.7,0-80.5c-16.7,14.1-33.5,28.2-50.2,42.3
		c-16.8-14-33.5-28.2-50.2-42.2c0,26.8,0,53.7,0,80.5c-54.5,0-109,0-163.4,0C12.8-75,12.8-171,12.8-266.9L12.8-266.9L12.8-266.9z"/>
	<path id="path7" inkscape:connector-curvature="0" d="M186.9-266.9c16.2,7,32.2,14.2,48.3,21.2c2.5,1,4,3.2,5.9,5
		c-4.8,5.3-9.9,10.3-14.7,15.6C213.3-239,200-252.8,186.9-266.9z"/>
	<path id="path9" inkscape:connector-curvature="0" d="M451.7-267.1c8.8,5.3,17.7,10.6,26.5,15.9c-0.1,19.5,0,39.1,0,58.7
		c-9.4,10.4-18.2,21.3-26.4,32.6C451.7-195.6,451.7-231.3,451.7-267.1L451.7-267.1z"/>
	<path id="path11" inkscape:connector-curvature="0" d="M453.7-100.1c7.2-13.5,15.3-26.6,24.4-38.9c0,53.3,0,106.6,0,159.9
		c-8.8,0-17.6,0-26.5,0c0-38.2,0-76.5,0-114.8C451.5-96.2,452.7-98.2,453.7-100.1L453.7-100.1L453.7-100.1z"/>
	<path id="path13" inkscape:connector-curvature="0" d="M187-36.4c7.3,6.1,14.5,12.3,21.9,18.3c0.1,13,0,26,0.1,39
		c-7.3,0-14.6,0-22,0C187,1.8,187-17.3,187-36.4L187-36.4z"/>
	<path id="path15" inkscape:connector-curvature="0" d="M242.3-16.6c7.8-6.6,15.6-13.1,23.4-19.7c-0.1,5.3,0.1,10.6-0.1,15.8
		c-1.6,1.3-3.2,2.6-4.8,3.9C254.6-16.5,248.5-16.5,242.3-16.6L242.3-16.6z"/>
</g>
</svg>
