<?xml version="1.0" encoding="utf-8"?>
<!-- Generator: Adobe Illustrator 16.0.0, SVG Export Plug-In . SVG Version: 6.00 Build 0)  -->
<!DOCTYPE svg PUBLIC "-//W3C//DTD SVG 1.1//EN" "http://www.w3.org/Graphics/SVG/1.1/DTD/svg11.dtd">
<svg version="1.1" id="Layer_1" xmlns="http://www.w3.org/2000/svg" xmlns:xlink="http://www.w3.org/1999/xlink" x="0px" y="0px"
	 width="918.645px" height="1000.003px" viewBox="0 0 918.645 1000.003" enable-background="new 0 0 918.645 1000.003"
	 xml:space="preserve">
<g>
	<path fill="#CE4C4D" d="M629.59,491.303l-8.404-6.237l-5.256-4.33l-4.729,5.438c-8.42,9.557-18.404,14.158-29.947,14.158
		c-11.045,0-19.971-3.311-27.33-10.222c-6.848-6.976-10.518-15.424-10.518-25.71c0-6.68,1.57-12.833,4.729-18.375
		c3.158-5.32,7.355-9.587,13.66-12.912c5.783-3.177,11.557-4.842,18.404-4.842c6.297,0,12.07,1.305,17.342,3.734
		c5.24,2.498,9.457,6.119,13.133,10.917l4.729,6.034l5.783-4.699l8.404-6.099l5.271-4.468l-4.217-5.902
		c-5.256-7.586-12.615-13.803-21.035-18.188c-8.926-4.281-18.385-6.385-29.41-6.385c-17.861,0-32.592,5.789-44.666,17.296
		c-11.572,11.724-17.887,26.144-17.887,43.061c0,16.04,5.271,29.912,15.242,41.171c11.043,13.508,27.33,20.355,47.311,20.355
		c10.514,0,19.973-2.03,28.883-6.139c8.434-3.931,15.779-9.665,21.563-17.077l4.73-5.97"/>
	<path fill="#CE4C4D" d="M379.951,504.183c9.469-11.047,15.262-25.23,15.262-39.984c0-33.563-27.33-60.982-60.973-60.982
		c-33.627,0-60.957,27.42-60.957,60.982c0,33.651,27.33,60.97,60.957,60.97c8.938,0,17.865-2.099,25.756-6l8.936,11.055h31.533
		 M334.24,428.552c19.438,0,35.203,15.971,35.203,35.646c0,19.646-15.766,35.587-35.203,35.587
		c-19.439,0-35.742-15.941-35.742-35.587C298.498,444.522,314.801,428.552,334.24,428.552"/>
	<polyline fill="#CE4C4D" points="487.168,405.763 457.223,479.263 427.27,405.763 399.936,405.763 450.904,527.7 463.521,527.7 
		514.504,405.763 	"/>
	<path fill="#E75458" d="M805.113,761.157l-267.496-43.5c-24.701,7.508-50.963,11.637-78.311,11.637
		c-147.67,0-268.006-120.428-268.006-268.731c0-148.389,120.336-269.083,268.006-269.083c147.691,0,268.041,120.694,268.041,269.083
		c0,58.764-18.936,113.021-50.982,157.299l168.695,89.993c47.309-73.126,73.584-158.725,73.584-247.292
		C918.645,206.825,712.629,0,459.307,0C206.016,0,0,206.825,0,460.563c0,253.834,206.016,460.196,459.307,460.196
		c67.813,0,137.707-17.025,199.188-46.583l146.088-112.221L805.113,761.157"/>
	<g>
		<defs>
			<path id="SVGID_1_" d="M562.85,908.206v0.02c4.201-1.074,8.945-2.177,13.133-3.369
				C571.795,906.028,567.051,907.132,562.85,908.206"/>
		</defs>
		<clipPath id="SVGID_2_">
			<use xlink:href="#SVGID_1_"  overflow="visible"/>
		</clipPath>
		
			<linearGradient id="SVGID_3_" gradientUnits="userSpaceOnUse" x1="226.5078" y1="788.1143" x2="243.4919" y2="788.1143" gradientTransform="matrix(-1.5884 -6.0897 -6.0901 1.5885 5726.563 1025.0078)">
			<stop  offset="0" style="stop-color:#FFFFFF"/>
			<stop  offset="0.4037" style="stop-color:#CCCBCD"/>
			<stop  offset="1" style="stop-color:#939599"/>
		</linearGradient>
		<polygon clip-path="url(#SVGID_2_)" fill="url(#SVGID_3_)" points="563.697,911.418 562.021,905.063 575.135,901.645 
			576.791,908.009 		"/>
	</g>
	<g>
		<defs>
			<path id="SVGID_4_" d="M537.602,717.757l25.248,190.449c4.201-1.074,8.945-2.178,13.133-3.35
				c28.387-7.676,55.721-17.883,81.984-30.316L537.602,717.757z"/>
		</defs>
		<clipPath id="SVGID_5_">
			<use xlink:href="#SVGID_4_"  overflow="visible"/>
		</clipPath>
		
			<linearGradient id="SVGID_6_" gradientUnits="userSpaceOnUse" x1="261.4365" y1="790.1514" x2="278.3706" y2="790.1514" gradientTransform="matrix(7.1079 0 0 -7.1079 -1320.6714 6429.3174)">
			<stop  offset="0" style="stop-color:#E75458"/>
			<stop  offset="0.5412" style="stop-color:#B04243"/>
			<stop  offset="1" style="stop-color:#853231"/>
		</linearGradient>
		<rect x="537.602" y="717.757" clip-path="url(#SVGID_5_)" fill="url(#SVGID_6_)" width="120.365" height="190.449"/>
	</g>
	<g>
		<defs>
			<path id="SVGID_7_" d="M562.85,908.206c4.201-1.074,8.945-2.178,13.133-3.35c28.387-7.676,55.721-17.883,81.984-30.316
				L537.602,717.757L562.85,908.206z"/>
		</defs>
		<clipPath id="SVGID_8_">
			<use xlink:href="#SVGID_7_"  overflow="visible"/>
		</clipPath>
		
			<linearGradient id="SVGID_9_" gradientUnits="userSpaceOnUse" x1="225.0239" y1="786.7061" x2="241.9579" y2="786.7061" gradientTransform="matrix(-3.6833 -6.3796 -6.3801 3.6833 6489.0264 -574.4476)">
			<stop  offset="0" style="stop-color:#E75458"/>
			<stop  offset="0.3761" style="stop-color:#CB5551"/>
			<stop  offset="1" style="stop-color:#9B5545"/>
		</linearGradient>
		<polygon clip-path="url(#SVGID_8_)" fill="url(#SVGID_9_)" points="567.697,960.316 455.139,765.364 627.867,665.636 
			740.422,860.589 		"/>
	</g>
	<g>
		<defs>
			<path id="SVGID_10_" d="M562.85,908.206c4.201-1.074,8.945-2.178,13.133-3.35c28.387-7.676,55.721-17.883,81.984-30.316
				L537.602,717.757L562.85,908.206z"/>
		</defs>
		<clipPath id="SVGID_11_">
			<use xlink:href="#SVGID_10_"  overflow="visible"/>
		</clipPath>
		
			<linearGradient id="SVGID_12_" gradientUnits="userSpaceOnUse" x1="225.4263" y1="786.6934" x2="242.3619" y2="786.6934" gradientTransform="matrix(-3.6829 -6.3789 -6.3794 3.6829 6488.2119 -574.4305)">
			<stop  offset="0" style="stop-color:#E75458"/>
			<stop  offset="0.3761" style="stop-color:#CB5551"/>
			<stop  offset="1" style="stop-color:#9B5545"/>
		</linearGradient>
		<polygon clip-path="url(#SVGID_11_)" fill="url(#SVGID_12_)" points="567.697,960.316 455.139,765.364 627.867,665.636 
			740.422,860.589 		"/>
	</g>
	<g>
		<defs>
			<path id="SVGID_13_" d="M562.85,908.206c4.201-1.074,8.945-2.178,13.133-3.35c28.387-7.676,55.721-17.883,81.984-30.316
				L537.602,717.757L562.85,908.206z"/>
		</defs>
		<clipPath id="SVGID_14_">
			<use xlink:href="#SVGID_13_"  overflow="visible"/>
		</clipPath>
		
			<linearGradient id="SVGID_15_" gradientUnits="userSpaceOnUse" x1="225.4897" y1="786.6963" x2="242.4245" y2="786.6963" gradientTransform="matrix(-3.6831 -6.3792 -6.3798 3.6831 6488.5371 -574.5458)">
			<stop  offset="0" style="stop-color:#E75458"/>
			<stop  offset="1" style="stop-color:#AE5F4E"/>
		</linearGradient>
		<polygon clip-path="url(#SVGID_14_)" fill="url(#SVGID_15_)" points="567.697,960.316 455.139,765.364 627.867,665.636 
			740.422,860.589 		"/>
	</g>
	<g>
		<defs>
			<path id="SVGID_16_" d="M562.85,908.206c4.201-1.074,8.945-2.178,13.133-3.35c28.387-7.676,55.721-17.883,81.984-30.316
				L537.602,717.757L562.85,908.206z"/>
		</defs>
		<clipPath id="SVGID_17_">
			<use xlink:href="#SVGID_16_"  overflow="visible"/>
		</clipPath>
		
			<linearGradient id="SVGID_18_" gradientUnits="userSpaceOnUse" x1="225.3818" y1="786.6934" x2="242.3158" y2="786.6934" gradientTransform="matrix(-3.6833 -6.3796 -6.3801 3.6833 6488.8623 -574.5453)">
			<stop  offset="0" style="stop-color:#E75458"/>
			<stop  offset="1" style="stop-color:#AE5F4E"/>
		</linearGradient>
		<polygon clip-path="url(#SVGID_17_)" fill="url(#SVGID_18_)" points="567.697,960.316 455.139,765.364 627.867,665.636 
			740.422,860.589 		"/>
	</g>
	<polyline fill="#F3A197" points="537.617,717.56 750.975,1000.003 904.969,882.776 809.33,761.886 	"/>
</g>
</svg>
