<?xml version="1.0" encoding="utf-8"?>
<!-- Generator: Adobe Illustrator 21.1.0, SVG Export Plug-In . SVG Version: 6.00 Build 0)  -->
<svg version="1.1"
	 id="Ebene_1" inkscape:version="0.91 r13725" sodipodi:docname="ORFeins.svg" xmlns:cc="http://creativecommons.org/ns#" xmlns:dc="http://purl.org/dc/elements/1.1/" xmlns:inkscape="http://www.inkscape.org/namespaces/inkscape" xmlns:rdf="http://www.w3.org/1999/02/22-rdf-syntax-ns#" xmlns:sodipodi="http://sodipodi.sourceforge.net/DTD/sodipodi-0.dtd" xmlns:svg="http://www.w3.org/2000/svg"
	 xmlns="http://www.w3.org/2000/svg" xmlns:xlink="http://www.w3.org/1999/xlink" x="0px" y="0px" viewBox="0 0 512 109.2"
	 style="enable-background:new 0 0 512 109.2;" xml:space="preserve">
<style type="text/css">
	.st0{fill:#E2001A;}
	.st1{fill:#FFFFFF;}
	.st2{fill:#007787;}
</style>
<defs>
	
	
		<inkscape:perspective  id="perspective23" inkscape:persp3d-origin="401.539 : 44.625 : 1" inkscape:vp_x="0 : 66.9375 : 1" inkscape:vp_y="0 : 1000 : 0" inkscape:vp_z="803.07801 : 66.9375 : 1" sodipodi:type="inkscape:persp3d">
		</inkscape:perspective>
</defs>
<sodipodi:namedview  bordercolor="#666666" borderopacity="1" gridtolerance="10" guidetolerance="10" id="namedview17" inkscape:current-layer="g3" inkscape:cx="260.70433" inkscape:cy="68.601507" inkscape:pageopacity="0" inkscape:pageshadow="2" inkscape:window-height="984" inkscape:window-maximized="1" inkscape:window-width="1920" inkscape:window-x="0" inkscape:window-y="0" inkscape:zoom="1.3448258" objecttolerance="10" pagecolor="#ffffff" showgrid="false">
	</sodipodi:namedview>
<g id="g3" transform="translate(-1.4648438e-6,154.125)">
	<rect id="rect5" x="0" y="-154.1" class="st0" width="256" height="109.2"/>
	<path id="path7" inkscape:connector-curvature="0" class="st1" d="M186-69.1h15v-20.5h28.3v-14.3h-28.3v-11.7h34.7v-14.3H186
		L186-69.1L186-69.1z M70.1-99.5c0,9.6-8.3,17.3-17.1,17.3c-9,0-17.1-7.7-17.1-17.3c0-9.6,8.2-17.3,17.1-17.3
		C61.8-116.8,70.1-109.1,70.1-99.5 M85.5-99.5c0-17.8-14.5-31.6-32.6-31.6s-32.6,13.8-32.6,31.6s14.5,31.6,32.6,31.6
		S85.5-81.7,85.5-99.5 M107.1-69.1h15v-17.7h11.2l11.8,17.7h18.7l-15.1-21.3c7.1-3.1,12.1-9.8,12.1-18c0-12.1-9-21.5-22.6-21.5
		h-31.1L107.1-69.1L107.1-69.1z M137.3-101.2h-15.2v-14.4h15.2c6.5,0,8.5,3.2,8.5,7.2C145.8-104.3,143.8-101.2,137.3-101.2"/>
	<rect id="rect9" x="256" y="-154.1" class="st2" width="256" height="109.2"/>
	<path id="path11" inkscape:connector-curvature="0" class="st1" d="M471.4-68c12.1,0,21.6-6.7,21.6-18.2v-0.2
		c0-10.9-10.1-14.6-19.5-17.4c-8.1-2.5-15.6-4.7-15.6-10.4v-0.2c0-5.1,4.6-8.8,11.8-8.8c5.9,0,12.3,2.2,17.9,5.9l4.1-6.8
		c-6.2-4.1-14.4-6.7-21.8-6.7c-12,0-20.7,6.9-20.7,17.4v0.2c0,11.2,10.6,14.4,20.1,17.1c8,2.2,15.1,4.6,15.1,10.7v0.2
		c0,5.9-5.3,9.6-12.6,9.6c-7.2,0-14.4-2.8-21-7.7l-4.6,6.5C453.1-71.4,462.8-68,471.4-68 M379.1-69.2h9V-104c0-11.4,7.8-19,18.2-19
		c10.7,0,16.8,7,16.8,18.3v35.4h9v-37.7c0-14.4-8.6-24.3-23.2-24.3c-10.4,0-16.8,5.3-20.8,11.9v-10.6h-9
		C379.1-129.9,379.1-69.2,379.1-69.2z M349-69.2h9v-60.7h-9C349-129.9,349-69.2,349-69.2z M284.1-103.1c1.3-11.7,9.3-20.4,19.7-20.4
		c12,0,18.3,9.4,19.4,20.4H284.1L284.1-103.1z M284.1-95.9h48.1c0.1-1.4,0.1-2.3,0.1-3.2c0-17.9-10.3-32.2-28.3-32.2
		c-16.8,0-29.1,14.1-29.1,31.7c0,18.9,13.6,31.7,30.3,31.7c11.5,0,18.9-4.6,25-11.4l-5.6-5c-4.9,5.2-10.8,8.6-19.1,8.6
		C294.8-75.7,285.4-83.1,284.1-95.9"/>
</g>
</svg>
