<?xml version="1.0" encoding="utf-8"?>
<!-- Generator: Adobe Illustrator 22.1.0, SVG Export Plug-In . SVG Version: 6.00 Build 0)  -->
<svg version="1.1" id="Layer_1" xmlns="http://www.w3.org/2000/svg" xmlns:xlink="http://www.w3.org/1999/xlink" x="0px" y="0px"
	 viewBox="0 0 583 125.8" style="enable-background:new 0 0 583 125.8;" xml:space="preserve">
<style type="text/css">
	.st0{fill:#CF0338;}
</style>
<g>
	<path class="st0" d="M577.3,22.7c-3.8-6.9-9.1-12.5-15.7-16.6c-6.7-4-14.2-6.1-22.3-6.1c-6.6,0-13,1.6-18.8,4.7
		c-5.5,2.9-9.9,6.6-13.1,11v-14h-12.8v124h12.8V75.6c3.2,4.4,7.6,8.1,13.1,11c5.8,3.1,12.2,4.7,18.8,4.7c8.2,0,15.7-2.1,22.3-6.1
		c6.6-4.1,11.9-9.7,15.7-16.6S583,54,583,45.7S581.1,29.7,577.3,22.7z M569.8,45.7c0,6.2-1.4,11.9-4.1,17
		c-2.7,5.1-6.5,9.2-11.3,12.2s-10.3,4.5-16.4,4.5c-6.1,0-11.6-1.5-16.4-4.5c-4.8-3-8.6-7.1-11.3-12.2s-4.1-10.8-4.1-17
		s1.4-11.9,4.1-17s6.5-9.2,11.3-12.2S531.9,12,538,12s11.6,1.5,16.4,4.5c4.8,3,8.6,7.1,11.3,12.2S569.8,39.5,569.8,45.7z"/>
	<path d="M88.7,54.2L61,1.8H0l68.3,124h39.9L133,81.2l0,0c-1.6-5.8-2.4-11.9-2.4-18.2c0-26.1,14.1-48.7,35.9-61.1H116L88.7,54.2z"/>
	<path d="M384.7,1.8h-68.2l-15.4,20.3C296,15.6,291.4,8.9,286,1.8h-52.1C255.5,13.6,270,36.6,270,63c0,27.7-16.1,51.5-39.5,62.7
		h-0.1h45.2L301,97.2c8,9.8,15.5,19.2,23.1,28.6h67.4L334.3,60L384.7,1.8z"/>
	<path class="st0" d="M463.2,45.5c0,6.8-1.1,12.8-3.4,17.9c-2.2,5.1-5.4,9.1-9.3,11.8c-3.9,2.7-8.4,4.1-13.2,4.1
		c-6.2,0-11.2-2.2-15.1-6.7c-3.9-4.4-5.8-10.4-5.8-17.7V1.7h-12.9v54.9c0,6.9,1.4,13,4.1,18.2s6.6,9.3,11.5,12.2
		c4.8,2.9,10.4,4.3,16.6,4.3c5.7,0,11.1-1.4,16.1-4.2c4.6-2.6,8.4-6.4,11.3-11.3v13.7H476V1.7h-12.8V45.5z"/>
	<path class="st0" d="M199.8,30.9c-17.1,0-30.9,13.9-30.9,30.9c0,17.1,13.9,30.9,30.9,30.9c17.1,0,30.9-13.9,30.9-30.9
		C230.8,44.8,216.9,30.9,199.8,30.9z"/>
</g>
</svg>
