<?xml version="1.0" encoding="utf-8"?>
<!-- Generator: Adobe Illustrator 21.1.0, SVG Export Plug-In . SVG Version: 6.00 Build 0)  -->
<svg version="1.1"
	 id="svg2" inkscape:version="0.91 r13725" sodipodi:docname="Anixe.svg" xmlns:cc="http://creativecommons.org/ns#" xmlns:dc="http://purl.org/dc/elements/1.1/" xmlns:inkscape="http://www.inkscape.org/namespaces/inkscape" xmlns:rdf="http://www.w3.org/1999/02/22-rdf-syntax-ns#" xmlns:sodipodi="http://sodipodi.sourceforge.net/DTD/sodipodi-0.dtd" xmlns:svg="http://www.w3.org/2000/svg"
	 xmlns="http://www.w3.org/2000/svg" xmlns:xlink="http://www.w3.org/1999/xlink" x="0px" y="0px" viewBox="0 0 512 137.8"
	 style="enable-background:new 0 0 512 137.8;" xml:space="preserve">
<style type="text/css">
	.st0{fill:url(#path7954_1_);}
</style>
<sodipodi:namedview  bordercolor="#666666" borderopacity="1" gridtolerance="10" guidetolerance="10" id="namedview8944" inkscape:current-layer="svg2" inkscape:cx="13.747358" inkscape:cy="121.72829" inkscape:pageopacity="0" inkscape:pageshadow="2" inkscape:window-height="885" inkscape:window-maximized="0" inkscape:window-width="1310" inkscape:window-x="0" inkscape:window-y="0" inkscape:zoom="0.40007687" objecttolerance="10" pagecolor="#ffffff" showgrid="false">
	</sodipodi:namedview>
<g id="layer1" transform="matrix(0.56585459,0,0,0.56585459,-75.349402,-215.75436)">
	<g id="g8744">
		<path id="path5365" inkscape:connector-curvature="0" d="M1038,441l-0.9,0.7C921.3,547.5,706.1,618.6,459.5,618.6
			c-28.9,0-57.6-1.1-85.6-3c31.1,4.2,63,7,95.8,8.3c14,0.5,28.7,0.8,43.3,0.8c14.5,0,29.1-0.3,43.7-0.8
			c215.5-8.7,398-81,480.5-181.9L1038,441z M552,556l11.2-89.7h-31.9l-5.1,46.3c-6.1-16.2-13.3-31.7-21.8-46.3h-32.2L460.6,556h32.2
			l4.8-46.7L520,556H552z M595.4,556l10.9-89.7h-32.6L562.1,556H595.4L595.4,556z M760.2,531.5h-27.6l1.4-9.9h24.2l2.7-22.2h-24.2
			l1.4-10h26.5l3-23.2H709L697.7,556h59.1L760.2,531.5L760.2,531.5z M695.3,556l-26.2-46.7l33-43.1h-37l-11.2,17.4l-9.2-17.4h-35.3
			l23.8,41.5l-36,48.3h37l14.9-22.2l12.6,22.2H695.3z M442.9,466.2h-40.4L361.1,556h34.6l4.8-11.9h22l1.1,11.9h31.9L442.9,466.2
			L442.9,466.2z M421.2,523.7h-12.9c0.7-2.7,2.8-9.3,6.8-19.6c1.7-4.6,2.7-8.5,3.7-11.8L421.2,523.7L421.2,523.7z M696.5,389.7
			c28,0,55.8,0.9,83,2.8c-14.9-2-29.9-3.6-45.1-4.9c-29.3-2.5-59.2-3.9-89.7-3.9c-30.7,0-60.6,1.3-89.9,3.9
			C366.1,404,209.2,471.1,135.5,561.8C247.6,458.9,456.8,389.7,696.5,389.7"/>
		
			<linearGradient id="path7954_1_" gradientUnits="userSpaceOnUse" x1="357.8758" y1="-4.6357" x2="887.0166" y2="-4.6357" gradientTransform="matrix(0.9651 0 0 -0.9651 -212.2092 497.3497)">
			<stop  offset="0" style="stop-color:#E99A07"/>
			<stop  offset="0.5" style="stop-color:#FFD89C"/>
			<stop  offset="1" style="stop-color:#E99A07"/>
		</linearGradient>
		<path id="path7954" inkscape:connector-curvature="0" class="st0" d="M1035.6,438.6l-0.9,0.7C918.9,545.1,703.7,616.2,457.1,616.2
			c-28.9,0-57.6-1.1-85.6-3c31.1,4.2,63,7,95.8,8.3c14,0.5,28.7,0.8,43.3,0.8c14.5,0,29.1-0.3,43.7-0.8
			c215.5-8.7,398-81,480.5-181.9L1035.6,438.6z M549.6,553.6l11.2-89.7h-31.9l-5.1,46.3c-6.1-16.2-13.3-31.7-21.8-46.3h-32.2
			l-11.5,89.7h32.2l4.8-46.7l22.4,46.7H549.6z M593.1,553.6l10.9-89.7h-32.6l-11.6,89.7H593.1L593.1,553.6z M757.8,529.1h-27.6
			l1.4-9.9h24.2l2.7-22.2h-24.2l1.4-10h26.5l3-23.2h-58.7l-11.2,89.7h59.1L757.8,529.1L757.8,529.1z M692.9,553.6l-26.2-46.7
			l33-43.1h-37l-11.2,17.4l-9.2-17.4H607l23.8,41.5l-36,48.3h37l14.9-22.2l12.6,22.2H692.9z M440.5,463.8h-40.4l-41.4,89.7h34.6
			l4.8-11.9h22l1.1,11.9h31.9L440.5,463.8L440.5,463.8z M418.8,521.3h-12.9c0.7-2.7,2.8-9.3,6.8-19.6c1.7-4.6,2.7-8.5,3.7-11.8
			L418.8,521.3z M694.1,387.4c28,0,55.8,0.9,83,2.8c-14.9-2-29.9-3.6-45.1-4.9c-29.3-2.5-59.2-3.9-89.7-3.9
			c-30.7,0-60.6,1.3-89.9,3.9c-188.6,16.4-345.6,83.6-419.2,174.3C245.3,456.5,454.4,387.4,694.1,387.4"/>
	</g>
</g>
</svg>
