<svg id="svg2682" xmlns="http://www.w3.org/2000/svg" viewBox="0 0 526.56 258.02"><defs><style>.cls-1{fill:#aac951;}</style></defs><title>anipla</title><g id="g4239"><path id="path4196" class="cls-1" d="M201.86,258h50.63v-21.7H228.86V157.57h-27Z"/><path id="path4194" class="cls-1" d="M330,258h24V210.87L380.5,258h22.14V157.65H378.79v48.08l-25.54-48.08H330Z"/><path id="path4192" class="cls-1" d="M408.39,258h53.74V237H435.28V216.15h25.56V197.07H435.28V177.78h26.17V157.65H408.39V258h0Z"/><path id="path4190" class="cls-1" d="M484,258h26.85V177.78h15.67V157.65H466.26v20.13H484V258Z"/><path id="path4188" class="cls-1" d="M526.56,150.48V120.94H500.5V0H466.59V150.48Z"/><path id="path4186" class="cls-1" d="M274.29,157.57,255.9,258h25.63l1.72-13.84H296.9L298.69,258H326L307.48,157.57H274.29Zm11.39,67.2,4.29-34.4,4.44,34.4Z"/><path id="path4184" class="cls-1" d="M171.43,198.82c0,2.89-1.74,4-4.62,4H162.5V178h4.32c2.87,0,4.62,1.14,4.62,4ZM135.64,258H162.5V223.18h9.06c12.86,0,25-8,25-20.85V178.48c0-12.68-12.12-20.83-25-20.83H135.64Z"/><path id="path4182" class="cls-1" d="M219,150.5,219,0H178.62V150.5H219Z"/><path id="path4180" class="cls-1" d="M54.83,172l9.66-84.82L70.95,172H54.83ZM0,258H45.79l4.82-40.24H73.85L77.07,258H130.6L95.76,0H34.16L0,258Z"/><path id="path4178" class="cls-1" d="M136.37,150.5V68.21l18.08,82.29h14.68V0h-14.5V83.46L139.56,0h-17.9l0,150.5h14.69Z"/><path id="path4174" class="cls-1" d="M431.21,123.2h11.23l1.67,27.3h17.72L447.64,0h-20.1L413.19,150.5h16Zm6-82.82,3.9,63.78h-8.42l4.52-63.78h0Z"/><path id="path4172" class="cls-1" d="M519.26,115.66v-6.42h0l-2.53,6.42h-.79l-2.53-6.42h0v6.42h-1.27V108h2l2.29,5.84,2.25-5.84h1.95v7.69h-1.27Z"/><path id="path295" class="cls-1" d="M508.1,109v6.66h-1.27V109h-2.4v-1h6.08v1Z"/><path id="polygon297" class="cls-1" d="M326.07,76.27l82.31-14.8h0V0H228V36.4H343L228,59V85.29l114.79,25.08H228V150.5H408.39V92.06Z"/></g></svg>