<?xml version="1.0" encoding="utf-8"?>
<!-- Generator: Adobe Illustrator 21.1.0, SVG Export Plug-In . SVG Version: 6.00 Build 0)  -->
<svg version="1.1"
	 id="svg2" inkscape:version="0.91 r13725" sodipodi:docname="ProSieben_MAXX_Logo.svg" xmlns:cc="http://creativecommons.org/ns#" xmlns:dc="http://purl.org/dc/elements/1.1/" xmlns:inkscape="http://www.inkscape.org/namespaces/inkscape" xmlns:rdf="http://www.w3.org/1999/02/22-rdf-syntax-ns#" xmlns:sodipodi="http://sodipodi.sourceforge.net/DTD/sodipodi-0.dtd" xmlns:svg="http://www.w3.org/2000/svg"
	 xmlns="http://www.w3.org/2000/svg" xmlns:xlink="http://www.w3.org/1999/xlink" x="0px" y="0px" viewBox="0 0 512 95.9"
	 style="enable-background:new 0 0 512 95.9;" xml:space="preserve">
<sodipodi:namedview  bordercolor="#666666" borderopacity="1" gridtolerance="10" guidetolerance="10" id="namedview6" inkscape:current-layer="svg2" inkscape:cx="325.70001" inkscape:cy="61" inkscape:pageopacity="0" inkscape:pageshadow="2" inkscape:window-height="850" inkscape:window-maximized="0" inkscape:window-width="1530" inkscape:window-x="0" inkscape:window-y="0" inkscape:zoom="0.55572611" objecttolerance="10" pagecolor="#ffffff" showgrid="false">
	</sodipodi:namedview>
<path id="path3801" inkscape:connector-curvature="0" d="M0,0v26.9h96.7V0H0z M105.4,0v12l57.4,83.9h54.9L152.1,0H105.4L105.4,0z
	 M184.7,0l-14.9,21.7l50.8,74.1h5.3V0H184.7z M234.6,0l66,95.9h54.7L289.6,0H234.6z M308.8,0l65.7,95.9h55.2L363.9,0H308.8z
	 M381.6,0l-7.8,12l24.9,36l32.6-48C431.3,0,381.6,0,381.6,0z M443.4,0l-27.5,39.8l38.4,56.1h54.9L443.4,0z M462.2,0l-8.1,11.8
	L479,47.9L512,0H462.2z M234.6,4.2v91.7h32.9l15-21.7L234.6,4.2L234.6,4.2z M105.4,16.2v79.6h54.4L105.4,16.2z M94.2,32.3
	c-1.4,0-3,0-4.1,0.1c-22,1.6-44.9,10.3-62.3,24C15.3,66.4,5.2,80.6,0.7,95.9h96V32.3C96.7,32.3,95.6,32.3,94.2,32.3L94.2,32.3z
	 M344.3,55.7l-6.9,9.9l20.4,30.2h13.7L344.3,55.7z M424,55.8L414.6,70l17.6,25.9h19.6L424,55.8L424,55.8z"/>
</svg>
