<?xml version="1.0" encoding="utf-8"?>
<!-- Generator: Adobe Illustrator 21.1.0, SVG Export Plug-In . SVG Version: 6.00 Build 0)  -->
<svg version="1.1"
	 id="svg2816" inkscape:version="0.47 r22583" sodipodi:docname="sixx.svg" xmlns:cc="http://creativecommons.org/ns#" xmlns:dc="http://purl.org/dc/elements/1.1/" xmlns:inkscape="http://www.inkscape.org/namespaces/inkscape" xmlns:rdf="http://www.w3.org/1999/02/22-rdf-syntax-ns#" xmlns:sodipodi="http://sodipodi.sourceforge.net/DTD/sodipodi-0.dtd" xmlns:svg="http://www.w3.org/2000/svg"
	 xmlns="http://www.w3.org/2000/svg" xmlns:xlink="http://www.w3.org/1999/xlink" x="0px" y="0px" viewBox="0 0 136.6 131.1"
	 style="enable-background:new 0 0 136.6 131.1;" xml:space="preserve">
<style type="text/css">
	.st0{fill:url(#path3675_1_);}
	.st1{fill:#FFFFFF;}
</style>
<defs>
	
	
		<inkscape:perspective  id="perspective2824" inkscape:persp3d-origin="0.5 : 0.33333333 : 1" inkscape:vp_x="0 : 0.5 : 1" inkscape:vp_y="0 : 1000 : 0" inkscape:vp_z="1 : 0.5 : 1" sodipodi:type="inkscape:persp3d">
		</inkscape:perspective>
	
		<inkscape:perspective  id="perspective3669" inkscape:persp3d-origin="0.5 : 0.33333333 : 1" inkscape:vp_x="0 : 0.5 : 1" inkscape:vp_y="0 : 1000 : 0" inkscape:vp_z="1 : 0.5 : 1" sodipodi:type="inkscape:persp3d">
		</inkscape:perspective>
	
		<inkscape:perspective  id="perspective3745" inkscape:persp3d-origin="0.5 : 0.33333333 : 1" inkscape:vp_x="0 : 0.5 : 1" inkscape:vp_y="0 : 1000 : 0" inkscape:vp_z="1 : 0.5 : 1" sodipodi:type="inkscape:persp3d">
		</inkscape:perspective>
</defs>
<sodipodi:namedview  bordercolor="#666666" borderopacity="1" gridtolerance="10" guidetolerance="10" id="namedview2818" inkscape:current-layer="svg2816" inkscape:cx="55.400064" inkscape:cy="53.193316" inkscape:guide-bbox="true" inkscape:object-paths="false" inkscape:pageopacity="0" inkscape:pageshadow="2" inkscape:snap-intersection-paths="true" inkscape:snap-object-midpoints="true" inkscape:window-height="998" inkscape:window-maximized="1" inkscape:window-width="1280" inkscape:window-x="-4" inkscape:window-y="-4" inkscape:zoom="4.705" objecttolerance="10" pagecolor="#ffffff" showgrid="false" showguides="true">
	</sodipodi:namedview>
<g id="g3751" transform="matrix(0.28474174,0,0,0.28474174,-13.8545,37.959598)">
	
		<radialGradient id="path3675_1_" cx="459.073" cy="319.3927" r="194.5625" gradientTransform="matrix(0.3841 0.2911 0.2873 -0.379 -102.4197 -6.9447)" gradientUnits="userSpaceOnUse">
		<stop  offset="0" style="stop-color:#A7F702"/>
		<stop  offset="1" style="stop-color:#74DE0A"/>
	</radialGradient>
	<path id="path3675" class="st0" d="M288.4-133.3C156-133.3,48.7-30.2,48.7,96.9S156,327.2,288.4,327.2h239.8V96.9
		C528.2-30.2,420.9-133.3,288.4-133.3z"/>
	<path id="path3630" class="st1" d="M381.2,57.8c-4.4,0.3-7.8,4.1-7.5,8.5c0.1,2.2,1.2,4.2,2.8,5.6l28.6,25l-28.6,25
		c-3.4,2.9-3.8,7.9-0.9,11.3c2.9,3.4,7.9,3.8,11.3,0.9c0.1-0.1,0.1-0.1,0.2-0.2l30.2-26.5l30.2,26.5c3.3,3,8.3,2.7,11.3-0.6
		c3-3.3,2.7-8.3-0.6-11.3c-0.1-0.1-0.1-0.1-0.2-0.2l-28.6-25l28.6-25c3.4-2.9,3.8-7.9,0.9-11.3c-1.6-1.9-4.1-3-6.6-2.8
		c-1.8,0.1-3.5,0.8-4.9,2l-30.2,26.5l-30.2-26.5C385.5,58.4,383.4,57.6,381.2,57.8z M278.7,57.8c-4.4,0.3-7.8,4.1-7.5,8.5
		c0.1,2.2,1.2,4.2,2.8,5.6l28.6,25l-28.6,25c-3.4,2.9-3.8,7.9-0.9,11.3c2.9,3.4,7.9,3.8,11.3,0.9c0.1-0.1,0.1-0.1,0.2-0.2l30.2-26.5
		l30.2,26.5c3.3,3,8.3,2.7,11.3-0.6c3-3.3,2.7-8.3-0.6-11.3c-0.1-0.1-0.1-0.1-0.2-0.2l-28.6-25l28.6-25c3.4-2.9,3.8-7.9,0.9-11.3
		c-1.6-1.9-4.1-3-6.6-2.8c-1.8,0.1-3.5,0.8-4.9,2l-30.2,26.5l-30.2-26.5C283,58.4,280.9,57.6,278.7,57.8z M245.8,57.8
		c-4.4,0.1-8,3.7-7.9,8.1c0,0,0,0,0,0V128c-0.1,4.4,3.5,8.1,7.9,8.1c4.4,0.1,8.1-3.5,8.1-7.9c0-0.1,0-0.2,0-0.2V65.9
		c0.1-4.4-3.5-8.1-7.9-8.1C245.9,57.8,245.8,57.8,245.8,57.8z M197.9,57.9c-14.5,0-25.3,12.8-25.3,27.4v22.6c0,4.2-1.3,6.8-3.5,8.7
		s-5.6,3.4-10.7,3.4H124c-4.4-0.1-8.1,3.5-8.1,7.9c-0.1,4.4,3.5,8.1,7.9,8.1c0.1,0,0.2,0,0.2,0h34.3c8.3,0,15.9-2.5,21.5-7.6
		c5.6-5.1,8.7-12.6,8.7-20.6V85.3c0-5.6,6-11.4,9.3-11.4h16.9c4.4,0.1,8.1-3.5,8.1-7.9c0.1-4.4-3.5-8.1-7.9-8.1c-0.1,0-0.2,0-0.2,0
		H197.9z"/>
</g>
</svg>
