<?xml version="1.0" encoding="utf-8"?>
<!-- Generator: Adobe Illustrator 21.1.0, SVG Export Plug-In . SVG Version: 6.00 Build 0)  -->
<svg version="1.1"
	 id="svg2" inkscape:version="0.91 r13725" sodipodi:docname="Okto.svg" xmlns:cc="http://creativecommons.org/ns#" xmlns:dc="http://purl.org/dc/elements/1.1/" xmlns:inkscape="http://www.inkscape.org/namespaces/inkscape" xmlns:rdf="http://www.w3.org/1999/02/22-rdf-syntax-ns#" xmlns:sodipodi="http://sodipodi.sourceforge.net/DTD/sodipodi-0.dtd" xmlns:svg="http://www.w3.org/2000/svg"
	 xmlns="http://www.w3.org/2000/svg" xmlns:xlink="http://www.w3.org/1999/xlink" x="0px" y="0px" viewBox="0 0 175.8 288"
	 style="enable-background:new 0 0 175.8 288;" xml:space="preserve">
<sodipodi:namedview  bordercolor="#666666" borderopacity="1" gridtolerance="10" guidetolerance="10" id="namedview54" inkscape:current-layer="svg2" inkscape:cx="219.49216" inkscape:cy="359.5665" inkscape:pageopacity="0" inkscape:pageshadow="2" inkscape:window-height="812" inkscape:window-maximized="0" inkscape:window-width="1409" inkscape:window-x="0" inkscape:window-y="0" inkscape:zoom="0.32817295" objecttolerance="10" pagecolor="#ffffff" showgrid="false">
	</sodipodi:namedview>
<g id="layer1" transform="matrix(0.40048224,0,0,0.40048224,146.79307,78.723168)">
	<g id="g34866">
		<path id="path28656" inkscape:connector-curvature="0" d="M-59.3-43c0-48.4-39.3-65.9-87.8-65.9c-48.4,0-87.8,17.4-87.8,65.9
			c0,48.5,39.3,65.9,87.8,65.9C-98.6,22.9-59.3,5.5-59.3-43z M-15.3,198.5c0-72.7-59-109.7-131.8-109.7
			c-72.7,0-131.6,37-131.6,109.7s59,109.8,131.6,109.8C-74.3,308.3-15.3,271.2-15.3,198.5z M17.1,16.6C12.5,27.7,6.5,37.9-0.6,47.2
			c44.8,34.3,73,86.4,73,151.3C72.4,319.7-25.8,396-147.1,396c-121.2,0-219.5-76.3-219.5-197.6c0-64.9,28.2-117,73-151.3
			c-18.4-24-29.2-54.3-29.2-90.1c0-96.9,78.6-153.6,175.6-153.6c32.7,0,63.3,6.4,89.5,18.7L17.1,16.6L17.1,16.6z"/>
		<path id="path28646" inkscape:connector-curvature="0" d="M-75.6,454.5V521h-19.4v-66.5h-37.4v-17.9h94.1v17.9H-75.6L-75.6,454.5z
			"/>
		<path id="path15608" inkscape:connector-curvature="0" d="M-246.9,436.6h19.4v30.9l66.4-31l8.2,17.6l-52.9,24.7l52.9,24.7
			l-8.2,17.6l-66.4-30.9V521h-19.4L-246.9,436.6"/>
	</g>
</g>
<g>
	<path d="M19.5,252.9C8.7,252.9,0,259.7,0,270.5C0,281.2,8.7,288,19.5,288c10.7,0,19.5-6.8,19.5-17.5
		C39,259.7,30.2,252.9,19.5,252.9z M19.5,280.2c-6.5,0-11.7-3.3-11.7-9.7c0-6.5,5.2-9.7,11.7-9.7c6.4,0,11.7,3.3,11.7,9.7
		C31.2,276.9,25.9,280.2,19.5,280.2z"/>
</g>
<g>
	<path d="M156.3,252.9c-10.7,0-19.5,6.8-19.5,17.5c0,10.8,8.7,17.5,19.5,17.5c10.8,0,19.5-6.8,19.5-17.5
		C175.8,259.7,167.1,252.9,156.3,252.9z M156.3,280.2c-6.4,0-11.7-3.3-11.7-9.7c0-6.5,5.2-9.7,11.7-9.7c6.5,0,11.7,3.3,11.7,9.7
		C168,276.9,162.8,280.2,156.3,280.2z"/>
</g>
</svg>
