<?xml version="1.0" encoding="utf-8"?>
<!-- Generator: Adobe Illustrator 21.1.0, SVG Export Plug-In . SVG Version: 6.00 Build 0)  -->
<svg version="1.1"
	 id="svg4636" inkscape:version="0.91 r13725" sodipodi:docname="RTS_deux.svg" xmlns:cc="http://creativecommons.org/ns#" xmlns:dc="http://purl.org/dc/elements/1.1/" xmlns:inkscape="http://www.inkscape.org/namespaces/inkscape" xmlns:rdf="http://www.w3.org/1999/02/22-rdf-syntax-ns#" xmlns:sodipodi="http://sodipodi.sourceforge.net/DTD/sodipodi-0.dtd" xmlns:svg="http://www.w3.org/2000/svg"
	 xmlns="http://www.w3.org/2000/svg" xmlns:xlink="http://www.w3.org/1999/xlink" x="0px" y="0px" viewBox="0 0 512 174.5"
	 style="enable-background:new 0 0 512 174.5;" xml:space="preserve">
<style type="text/css">
	.st0{fill:url(#rect3981_1_);}
	.st1{fill:url(#path3955_1_);}
	.st2{fill:url(#path3949_1_);}
	.st3{fill:url(#rect3896_1_);}
	.st4{fill:url(#path3913_1_);}
	.st5{fill:url(#rect3085_1_);}
	.st6{fill:url(#path4937_1_);}
	.st7{fill:url(#path5471_1_);}
	.st8{fill:url(#path5469_1_);}
	.st9{fill:url(#path3931_1_);}
	.st10{fill:url(#path3959_1_);}
	.st11{fill:url(#path3971_1_);}
	.st12{fill:url(#path4016_1_);}
	.st13{fill:url(#path4026_1_);}
	.st14{fill:url(#path4006_1_);}
</style>
<sodipodi:namedview  bordercolor="#666666" borderopacity="1" gridtolerance="10" guidetolerance="10" id="namedview61" inkscape:current-layer="svg4636" inkscape:cx="225" inkscape:cy="80" inkscape:pageopacity="0" inkscape:pageshadow="2" inkscape:window-height="716" inkscape:window-maximized="0" inkscape:window-width="1259" inkscape:window-x="0" inkscape:window-y="0" inkscape:zoom="0.80444444" objecttolerance="10" pagecolor="#ffffff" showgrid="false">
	</sodipodi:namedview>
<linearGradient id="rect3981_1_" gradientUnits="userSpaceOnUse" x1="815.8381" y1="211.8944" x2="1032.2994" y2="211.8421" gradientTransform="matrix(0.3408 0 0 -0.3408 121.1796 183.659)">
	<stop  offset="0" style="stop-color:#E88A05"/>
	<stop  offset="0.4411" style="stop-color:#A54316"/>
	<stop  offset="0.694" style="stop-color:#A54316"/>
	<stop  offset="1" style="stop-color:#E88A05"/>
</linearGradient>
<path id="rect3981" inkscape:connector-curvature="0" class="st0" d="M477.6,50.8H512l-60.1,81.4l-2.7,0.2l-26.8,39.8H388l55.5-75.2
	l5.8-4.6L477.6,50.8z"/>
<linearGradient id="path3955_1_" gradientUnits="userSpaceOnUse" x1="201.3009" y1="-353.3984" x2="519.81" y2="-353.3984" gradientTransform="matrix(0.3408 0 0 0.3408 221.5095 262.5748)">
	<stop  offset="0" style="stop-color:#FF9300"/>
	<stop  offset="1" style="stop-color:#852510"/>
</linearGradient>
<path id="path3955" inkscape:connector-curvature="0" class="st1" d="M340.7,174.2c-28.4,0-50.5-24.2-50.5-54.1
	c0-3.4,0.3-6.7,0.9-9.9h17.5c0.2,22,15.6,34.2,32,34.2c19.8,0,31.5-17.8,31.7-30.5c0,0,20.5,6.4,20.5,6.2
	C393,149.9,369.1,174.2,340.7,174.2z"/>
<linearGradient id="path3949_1_" gradientUnits="userSpaceOnUse" x1="601.1876" y1="382.7203" x2="687.6409" y2="463.8862" gradientTransform="matrix(0 0.3408 -0.3408 0 438.7935 -132.3607)">
	<stop  offset="0" style="stop-color:#FF9300"/>
	<stop  offset="1" style="stop-color:#852510"/>
</linearGradient>
<path id="path3949" inkscape:connector-curvature="0" class="st2" d="M288,50.6l-9.3,63l30,2V50.6L288,50.6z"/>
<linearGradient id="rect3896_1_" gradientUnits="userSpaceOnUse" x1="321.9217" y1="195.5684" x2="495.8285" y2="209.2865" gradientTransform="matrix(0.3408 0 0 -0.3408 121.1796 183.659)">
	<stop  offset="0" style="stop-color:#FF9300"/>
	<stop  offset="1" style="stop-color:#852510"/>
</linearGradient>
<path id="rect3896" inkscape:connector-curvature="0" class="st3" d="M230.7,106.4l63-9.3l2,29.8h-65.1V106.4z"/>
<linearGradient id="path3913_1_" gradientUnits="userSpaceOnUse" x1="201.3009" y1="279.6381" x2="519.81" y2="279.6381" gradientTransform="matrix(0.3408 0 0 -0.3408 121.1796 183.659)">
	<stop  offset="0" style="stop-color:#FF9300"/>
	<stop  offset="1" style="stop-color:#852510"/>
</linearGradient>
<path id="path3913" inkscape:connector-curvature="0" class="st4" d="M242.2,49.1c-28.4,0-52.2,24.2-52.2,54.1
	c0,3.4,0.3,6.7,0.9,9.9h17c0.2-22,15.6-34.9,32-34.9c13.5,0,25.5,8.9,30.7,21.6c1.7,4.1,10.1,27.8,10.1,27.8l11.2-14.5
	c0.6-3.2,0.9-6.5,0.9-9.9C292.6,73.3,270.6,49.1,242.2,49.1L242.2,49.1z"/>
<linearGradient id="rect3085_1_" gradientUnits="userSpaceOnUse" x1="193.8654" y1="352.4511" x2="371.4711" y2="180.0834" gradientTransform="matrix(0.3408 0 0 -0.3408 121.1796 183.659)">
	<stop  offset="0" style="stop-color:#E88A05"/>
	<stop  offset="0.3271" style="stop-color:#A54316"/>
	<stop  offset="0.6864" style="stop-color:#A54316"/>
	<stop  offset="1" style="stop-color:#E88A05"/>
</linearGradient>
<path id="rect3085" inkscape:connector-curvature="0" class="st5" d="M178.2,0v113.1h0c0.8,33.8,28.2,61,61.9,61
	c11.4,0,21.8-2.4,31.3-4.8v-20.6c0,0-13.1,2.2-31.1,0.2c-17.9-2-32.1-16.8-32.6-35.8V0L178.2,0L178.2,0z"/>
<linearGradient id="path4937_1_" gradientUnits="userSpaceOnUse" x1="-34.0367" y1="272.2835" x2="143.8219" y2="114.0058" gradientTransform="matrix(0.3408 0 0 -0.3408 121.1796 183.659)">
	<stop  offset="0" style="stop-color:#B35313"/>
	<stop  offset="0.573" style="stop-color:#E88A05"/>
	<stop  offset="1" style="stop-color:#A54316"/>
</linearGradient>
<path id="path4937" inkscape:connector-curvature="0" class="st6" d="M158.4,71.3c-21.2,0.8-29.5,4.6-42,13.2
	c-12,8.3-25,24.6-25.2,45.4c-0.1,10.5,4.6,20.4,11.8,27.2c7.6,7.2,18.7,11.8,27.9,11.8c9.8,0,20.2-3,32.3-14.4
	c13.1-12.3,14.9-31.1,15-41.4c-0.4,17.5-14.8,31.5-32.4,31.5c-17.9,0-32.4-14.5-32.4-32.4c0-20.8,11.6-32.5,25.4-37.2
	c8.3-2.8,19.6-2.8,30.8-2.8v0C166.2,72.2,162.4,71.3,158.4,71.3L158.4,71.3z"/>
<linearGradient id="path5471_1_" gradientUnits="userSpaceOnUse" x1="-80.6443" y1="226.4771" x2="155.0728" y2="260.3631" gradientTransform="matrix(0.3408 0 0 -0.3408 121.1796 183.659)">
	<stop  offset="0" style="stop-color:#FF9300"/>
	<stop  offset="1" style="stop-color:#FFC28D"/>
</linearGradient>
<path id="path5471" inkscape:connector-curvature="0" class="st7" d="M145.8,48.4c-23.1,0-43.2,12.8-53.9,31.8H0v62h91.7
	c2.9,5.2,6.5,10,10.7,14.2c-6.8-6.8-10.5-16.4-10.4-26.6c0.2-20.8,13.4-36.9,25.4-45.2c4.7-3.3,13.4-8.8,25.5-11.3
	c9.4-1.9,19.1-1.2,26.8-1.1V51.9C169.6,51.9,159.4,48.4,145.8,48.4L145.8,48.4z M73,96.3c3.7,0,6.6,0.2,8,0.4
	c0.6,0.1,0.9,0.4,0.8,1.1l-0.5,3.4c-0.2,1-0.5,1.2-1.7,1.1c-1.1-0.1-4-0.3-6.9-0.3c-2.1,0-4.3,0.5-4.3,2.8c0,1.7,1.1,2.4,3.3,3
	l3.4,0.9c6,1.6,7.8,4.5,7.8,8.5c0,6.8-5.3,9.2-12.6,9.2c-3.3,0-6.6-0.2-7.9-0.4c-0.6-0.1-0.9-0.4-0.8-1.1l0.6-3.5
	c0.2-1,0.5-1.1,1.7-1c1.1,0.1,4.5,0.4,6.4,0.4c4.2,0,5.9-0.5,5.9-3c0-1.7-1.2-2.6-4-3.3l-3.4-0.9c-4.4-1.1-7-3.9-7-8.6
	C61.8,99.5,65.5,96.3,73,96.3L73,96.3z M12.1,96.6h10.2c7.1,0,10.3,3.2,10.3,8.9c0,4.4-2.5,6.5-4.8,7.9l6.7,11.1
	c0.7,1.1-0.1,1.6-0.7,1.6h-5c-1.1,0-1.5-0.3-1.9-1.1l-5.4-9.8c-0.3-0.6-0.5-0.9-0.5-1.4c0-0.2,0-0.5,0.2-1l0.5-1.9
	c0.4-1.7,0.9-1.2,2.2-1.7c1.1-0.5,2.1-1.2,2.1-3.5c0-2.6-1.3-3.6-4.1-3.6h-4.3v22.8c0,0.9-0.3,1.2-1.2,1.2h-4.2
	c-0.9,0-1.2-0.3-1.2-1.2v-27C10.9,96.9,11.2,96.6,12.1,96.6z M36.1,96.6h22.2c0.9,0,1.2,0.3,1.2,1.2v3.1c0,0.9-0.3,1.2-1.2,1.2h-7.8
	v22.6c0,0.9-0.3,1.2-1.2,1.2h-4.2c-0.9,0-1.2-0.3-1.2-1.2v-22.6h-7.8c-0.9,0-1.2-0.3-1.2-1.2v-3.1C34.9,96.9,35.2,96.6,36.1,96.6z"
	/>
<linearGradient id="path5469_1_" gradientUnits="userSpaceOnUse" x1="143.8744" y1="207.4112" x2="366.8283" y2="218.5636" gradientTransform="matrix(0.3408 0 0 -0.3408 121.1796 183.659)">
	<stop  offset="0" style="stop-color:#FF9300"/>
	<stop  offset="1" style="stop-color:#FFC28D"/>
</linearGradient>
<path id="path5469" inkscape:connector-curvature="0" class="st8" d="M102.4,156.4c11.2,11.2,26.5,18.1,43.4,18.1
	c34.3,0,62-28.2,62-63.1c0-22.8,5.3-62.4,34.4-62.4c-48.4,0-63.7,40.1-64,63.4v0.7c0,0.1,0,0.3,0,0.4c-0.2,10.4-2.8,28.8-15.7,40.9
	c-12.1,11.4-21.8,13.7-31.6,13.7c-9.2,0-20.3-3.9-27.9-11.1C102.8,156.9,102.6,156.7,102.4,156.4L102.4,156.4z"/>
<linearGradient id="path3931_1_" gradientUnits="userSpaceOnUse" x1="444.7924" y1="211.3584" x2="644.7072" y2="211.3584" gradientTransform="matrix(0.3408 0 0 -0.3408 121.1796 183.659)">
	<stop  offset="0" style="stop-color:#FF9300"/>
	<stop  offset="1" style="stop-color:#FFC28D"/>
</linearGradient>
<path id="path3931" inkscape:connector-curvature="0" class="st9" d="M242.6,49.1c14.5,0,36.2,9.4,36.2,63.7
	c0.1,42.4,38.7,61.4,62,61.4c-16.2,0-26-9.2-30.1-26.5c-2.4-9.9-1.8-22.9-1.9-35.5C308.6,93.4,280.6,49.1,242.6,49.1L242.6,49.1z"/>
<linearGradient id="path3959_1_" gradientUnits="userSpaceOnUse" x1="737.203" y1="209.2956" x2="857.8552" y2="210.4388" gradientTransform="matrix(0.3408 0 0 -0.3408 121.1796 183.659)">
	<stop  offset="0" style="stop-color:#FF9300"/>
	<stop  offset="1" style="stop-color:#FFC28D"/>
</linearGradient>
<path id="path3959" inkscape:connector-curvature="0" class="st10" d="M340.7,174.2c28,0,61.3-23,61.3-61v-60
	c-9.9-1.2-19.8-2.3-29.7-2.3v62.4c0,17.1,0.2,27.9-2.9,38.2C364.8,167.5,353.1,174.2,340.7,174.2L340.7,174.2z"/>
<linearGradient id="path3971_1_" gradientUnits="userSpaceOnUse" x1="804.6431" y1="286.1678" x2="858.9908" y2="340.7019" gradientTransform="matrix(0.3408 0 0 -0.3408 121.1796 183.659)">
	<stop  offset="0" style="stop-color:#852510;stop-opacity:0"/>
	<stop  offset="1" style="stop-color:#852510;stop-opacity:0.7712"/>
</linearGradient>
<path id="path3971" inkscape:connector-curvature="0" class="st11" d="M340.7,174.2c28,0,61.3-23,61.3-61v-60l-29.7-2.3v62.4
	c0,17.1,0.2,27.9-2.9,38.2C364.8,167.5,353.1,174.2,340.7,174.2L340.7,174.2z"/>
<linearGradient id="path4016_1_" gradientUnits="userSpaceOnUse" x1="964.0287" y1="102.6611" x2="1098.3527" y2="200.4031" gradientTransform="matrix(0.3408 0 0 -0.3408 121.1796 183.659)">
	<stop  offset="0" style="stop-color:#FF9300"/>
	<stop  offset="1" style="stop-color:#FFC28D"/>
</linearGradient>
<path id="path4016" inkscape:connector-curvature="0" class="st12" d="M474.4,172.1h36.4l-43.4-61.3c-7.7-10.8-9.9-26.7-2.9-40.7
	l-31.8,45.6L474.4,172.1z"/>
<radialGradient id="path4026_1_" cx="1040.743" cy="-706.1017" r="114.604" gradientTransform="matrix(0.1208 0.3551 0.223 -7.588933e-02 472.7219 -314.6642)" gradientUnits="userSpaceOnUse">
	<stop  offset="0" style="stop-color:#852510;stop-opacity:0.7725"/>
	<stop  offset="1" style="stop-color:#852510;stop-opacity:0"/>
</radialGradient>
<path id="path4026" inkscape:connector-curvature="0" class="st13" d="M474.4,172.1h36.4l-43.4-61.3c-7.7-10.8-9.9-26.7-2.9-40.7
	l-31.8,45.6L474.4,172.1z"/>
<linearGradient id="path4006_1_" gradientUnits="userSpaceOnUse" x1="832.2441" y1="242.0986" x2="993.229" y2="351.2724" gradientTransform="matrix(0.3408 0 0 -0.3408 121.1796 183.659)">
	<stop  offset="0" style="stop-color:#FF9300"/>
	<stop  offset="1" style="stop-color:#FFC28D"/>
</linearGradient>
<path id="path4006" inkscape:connector-curvature="0" class="st14" d="M372.4,50.8H421l29.2,39.4c16.4,22.1-2.7,44.3-14.7,62.5
	c3.8-9.1,3.4-25.7-5.3-37.8l-36.8-51.4C387.5,55.4,380.4,50.8,372.4,50.8z"/>
</svg>
