<?xml version="1.0" encoding="utf-8"?>
<!-- Generator: Adobe Illustrator 21.1.0, SVG Export Plug-In . SVG Version: 6.00 Build 0)  -->
<svg version="1.1"
	 id="Logo_sonnenklar.TV" inkscape:version="0.91 r13725" sodipodi:docname="Logo_sonnenklar.TV.svg" xmlns:cc="http://creativecommons.org/ns#" xmlns:dc="http://purl.org/dc/elements/1.1/" xmlns:inkscape="http://www.inkscape.org/namespaces/inkscape" xmlns:rdf="http://www.w3.org/1999/02/22-rdf-syntax-ns#" xmlns:sodipodi="http://sodipodi.sourceforge.net/DTD/sodipodi-0.dtd" xmlns:svg="http://www.w3.org/2000/svg"
	 xmlns="http://www.w3.org/2000/svg" xmlns:xlink="http://www.w3.org/1999/xlink" x="0px" y="0px" viewBox="0 0 512 114.4"
	 style="enable-background:new 0 0 512 114.4;" xml:space="preserve">
<style type="text/css">
	.st0{fill:#F1461C;}
	.st1{fill:#CE1F26;}
	.st2{fill:#F67C13;}
	.st3{fill:#FAB20A;}
	.st4{fill:#FFF200;}
</style>
<sodipodi:namedview  bordercolor="#666666" borderopacity="1" gridtolerance="10" guidetolerance="10" id="namedview11" inkscape:current-layer="Logo_sonnenklar.TV" inkscape:cx="518.66345" inkscape:cy="115.854" inkscape:pageopacity="0" inkscape:pageshadow="2" inkscape:window-height="826" inkscape:window-maximized="0" inkscape:window-width="1506" inkscape:window-x="0" inkscape:window-y="0" inkscape:zoom="0.5" objecttolerance="10" pagecolor="#ffffff" showgrid="false">
	</sodipodi:namedview>
<path id="sonnenklar.tv" inkscape:connector-curvature="0" class="st0" d="M425.5,107.1c0,3.4-2.8,6.2-6.2,6.2
	c-3.4,0-6.2-2.8-6.2-6.2c0-3.4,2.8-6.2,6.2-6.2C422.8,100.9,425.5,103.7,425.5,107.1 M207.9,78.1c1.3-1.4,3.6-3,6.8-3
	c2.4,0,4.9,0.9,6.6,2.5c1.9,2,2.3,4.6,2.5,6.5h-18.6C205.6,82.3,206,80.2,207.9,78.1L207.9,78.1z M226.1,97.7
	c-1.7,3-4.5,6.3-10.6,6.3c-7.3,0-10.5-5.7-10.4-11.4h32.6c-0.2-5.2-0.5-14.1-6.5-20.5c-5.9-6.3-13.7-6.6-16.4-6.6
	c-18,0-23.5,14.2-23.5,25.2c0,15,9.5,23.6,23.1,23.6c7.3,0,13.3-2.8,17.2-6.5c1.7-1.6,3-3.3,4.2-4.9L226.1,97.7 M465.2,65.8h15.1
	l5.5,18.5c1.7,5.9,2,7.3,2.7,12.4c0.9-5.2,1.1-6.1,2.4-10.9l5.9-20H512l-15.8,46.7h-15.4L465.2,65.8 M424.6,65.8H463v11.6h-11.8
	v35.2h-14.7V77.3h-11.8L424.6,65.8 M402.8,66.3v8.4c4.4-8.7,12.7-8.9,15.9-9v8.4c-1-0.1-2-0.2-3.2-0.2c-4.5,0-8.4,1.8-10.7,5.5
	c-2.1,3.4-2,7.5-2,11.7v21.4H395V66.3L402.8,66.3 M364,92c-8.6,1.9-10.1,5.1-10.1,8.3c0,3.7,2.9,6.9,8.7,6.9c5.4,0,10-2.2,12.3-6.9
	c1.2-2.6,1.3-3.6,1.3-10.4C373.1,90.3,369,90.9,364,92L364,92z M376,84.9v-1.2c0-4.8,0-12.8-10.4-12.8c-9.9,0-9.9,7.3-9.9,9.7
	l-8.2-0.5c0.2-1.7,0.4-4.2,1.9-7c2.7-5.1,8.1-8.2,16-8.2c4.3,0,9.9,1.1,13.5,3.9c5.1,4.1,5.1,9.4,5,15.6v15c0.1,4.4,0.1,6.7,3.3,6.7
	c1,0,1.9-0.2,2.5-0.5v6.8c-1.3,0.3-2.6,0.8-4.9,0.8c-3.6,0-7.3-1.2-8-6.9c-2.4,2.5-7.1,7.5-15.9,7.5c-9,0-15.7-5.4-15.7-13.2
	c0-2.5,0.7-4.9,2.1-7c2.6-3.9,7.5-7.1,21.4-8.1L376,84.9 M332.2,52.9v59.6h7.6V52.9H332.2z M307.7,84.6l21.1,27.9H319l-16.6-22.2
	l-5.6,5.9v16.3h-8V52.9h8v33l18.4-19.6h9.6L307.7,84.6 M255.5,71.1c1.3-1.4,2.2-2.5,4.5-3.6c2.1-0.9,5.1-1.7,8.3-1.7
	c2.7,0,5.8,0.5,8.1,1.8c4.8,2.5,6,6.6,6,13.7v31.2h-13.4V87c0-4.1-0.1-5.6-0.6-6.8c-1-2.5-3.4-3.5-6-3.5c-7.1,0-7.1,5.7-7.1,11.4
	v24.7h-13.5V67.1h13.6L255.5,71.1 M160.3,71.1c1.3-1.4,2.2-2.5,4.5-3.6c2.1-0.9,5.1-1.7,8.3-1.7c2.7,0,5.8,0.5,8.1,1.8
	c4.8,2.5,6,6.6,6,13.7v31.2h-13.4V87c0-4.1-0.1-5.6-0.6-6.8c-1.1-2.5-3.4-3.5-6-3.5c-7.1,0-7.1,5.7-7.1,11.4v24.7h-13.5V67.1h13.6
	V71.1 M112.3,71.1c1.3-1.4,2.2-2.5,4.6-3.6c2.1-0.9,5.1-1.7,8.3-1.7c2.7,0,5.8,0.5,8.1,1.8c4.8,2.5,6,6.6,6,13.7v31.2H126V87
	c0-4.1-0.1-5.6-0.6-6.8c-1-2.5-3.4-3.5-6-3.5c-7.1,0-7.1,5.7-7.1,11.4v24.7H98.7V67.1h13.6V71.1 M61.5,80.8
	c-1.7,2.6-2.3,5.8-2.3,8.9c0,7.3,3.5,13.6,11,13.6c7.3,0,10.9-5.9,10.9-13c0-5.1-1.2-9-3.8-11.5c-2.8-2.6-5.9-2.7-7.9-2.5
	C65.6,76.5,63.3,77.9,61.5,80.8L61.5,80.8z M94.7,89.8c0,11.6-6.6,24.2-24.5,24.2c-12.9,0-24.6-7.4-24.6-24.2
	c0-14,8.8-25.1,26.3-24.2C90.6,66.7,94.7,81.5,94.7,89.8 M8.5,97.3c3.7,3.6,8.2,6.3,13.3,6.3c3.2,0,8.1-1,8.1-4.5
	c0-1.6-1-2.2-1.8-2.6c-2-1-5.2-1.3-7.8-1.8c-2-0.3-4.1-0.8-6.1-1.4c-2.8-0.8-5.6-1.9-7.6-3.9c-2-2-3.4-5.2-3.4-8.6
	c0-7.5,6.5-15.3,19.3-15.3c10.8,0,17.2,4.6,20.4,6.8l-8.3,7.7c-4.3-3.3-8.3-4.5-11.5-4.5c-5.3,0-6.5,2.1-6.5,3.4
	c0,2.6,2.9,3.1,7.3,3.9c9.2,1.7,19.9,4.1,19.9,15c0,10.8-10.8,16-21.6,16c-12.7,0-19.3-6.1-22.1-8.8L8.5,97.3"/>
<g id="sonne" transform="matrix(0.51122697,0,0,0.51122697,-9.15479,85.58946)">
	<path id="path2478" inkscape:connector-curvature="0" class="st1" d="M263.9-88.9l-29.2-1.3l-1.6,15l28.7,3.7
		C260.7-77.4,261.4-83.5,263.9-88.9"/>
	<path id="path2470" inkscape:connector-curvature="0" class="st0" d="M279.7-104l-27.2-24.2l-13.3,13.3L264-88.8
		C267.6-95.3,273.1-100.6,279.7-104"/>
	<path id="path2474" inkscape:connector-curvature="0" class="st2" d="M296.2-107.9c4.5,0,8.8,0.8,12.8,2.3l4.6-59.7h-37.4l4.5,60.8
		C285.5-106.7,290.7-107.9,296.2-107.9"/>
	<path id="path2476" inkscape:connector-curvature="0" class="st3" d="M330.7-83.6l62.5-55.2l-28.7-28.7l-55.3,61.9
		C319.2-101.7,327.1-93.6,330.7-83.6"/>
	<path id="path2472" inkscape:connector-curvature="0" class="st4" d="M332.8-71.2c0,5.2-1.1,10.1-3,14.6H421l-0.6-40.9l-89.6,14.4
		C332.1-79.4,332.8-75.4,332.8-71.2"/>
</g>
</svg>
