<?xml version="1.0" encoding="utf-8"?>
<!-- Generator: Adobe Illustrator 21.1.0, SVG Export Plug-In . SVG Version: 6.00 Build 0)  -->
<svg version="1.1"
	 id="svg2" inkscape:version="0.48.3.1 r9886" sodipodi:docname="Logo_SRF_1.svg" xmlns:cc="http://creativecommons.org/ns#" xmlns:dc="http://purl.org/dc/elements/1.1/" xmlns:inkscape="http://www.inkscape.org/namespaces/inkscape" xmlns:rdf="http://www.w3.org/1999/02/22-rdf-syntax-ns#" xmlns:sodipodi="http://sodipodi.sourceforge.net/DTD/sodipodi-0.dtd" xmlns:svg="http://www.w3.org/2000/svg"
	 xmlns="http://www.w3.org/2000/svg" xmlns:xlink="http://www.w3.org/1999/xlink" x="0px" y="0px" viewBox="0 0 241.9 140.8"
	 style="enable-background:new 0 0 241.9 140.8;" xml:space="preserve">
<style type="text/css">
	.st0{fill:#AF001E;}
	.st1{fill:#FFFFFF;}
</style>
<path id="path688" inkscape:connector-curvature="0" sodipodi:nodetypes="ccccc" class="st0" d="M103.9,0.6v140h138V0.6L103.9,0.6z"
	/>
<path id="path688-1" inkscape:connector-curvature="0" class="st0" d="M93.8,140.8V0H0v140.8H93.8z"/>
<path id="path692" inkscape:connector-curvature="0" class="st1" d="M24.2,107c0,11.4,5,16.9,12.8,16.9c7.1,0,11.4-3.9,13.1-10.6
	l1.3-5.1c1.1-4.2,2.3-6,5-6c3.9,0,4.6,2.6,4.6,9c0,2.9-0.4,8-0.6,9.7c-0.1,1.8,0.1,2.3,1.6,2.6l5.3,0.8c1,0.1,1.4-0.3,1.6-1.3
	c0.3-2,0.6-7,0.6-11.9c0-11-3.6-19-13.8-19c-6,0-10.5,2.6-12.9,11.8l-1.3,5.1c-0.9,3.5-2,5-4.6,5c-3.6,0-4.3-3.3-4.3-6.5
	c0-4.3,0.4-8.6,0.5-10.4c0.1-1.8-0.1-2.3-1.6-2.6l-5.2-0.8c-1-0.1-1.4,0.4-1.6,1.3C24.6,97,24.2,101.4,24.2,107z M24.7,84.4
	c0,1.4,0.5,1.8,1.9,1.8h40.7c1.4,0,1.9-0.4,1.9-1.8V78c0-1.4-0.5-1.8-1.9-1.8H32.9v-6.6c0-4.1,1.5-6.1,5.4-6.1
	c3.5,0,4.6,1.6,5.3,3.2c0.8,2-0.1,2.7,2.6,3.3l2.9,0.7c0.8,0.2,1.2,0.3,1.5,0.3c0.7,0,1.2-0.2,2.1-0.7L67.5,62
	c1.2-0.7,1.7-1.2,1.7-2.9v-7.5c0-1-0.6-2.1-2.3-1L50.1,60.7c-2.1-3.4-5.2-7.2-11.9-7.2c-8.6,0-13.5,4.8-13.5,15.5
	C24.7,69,24.7,84.4,24.7,84.4z M24.7,42.5c0,1.4,0.5,1.8,1.9,1.8h40.7c1.4,0,1.9-0.4,1.9-1.8v-6.4c0-1.4-0.5-1.8-1.9-1.8H51.3V17.8
	c0-1.4-0.5-1.8-1.9-1.8h-4.8c-1.4,0-1.9,0.4-1.9,1.8v16.5h-9.4V16.2c0-1.4-0.5-1.8-1.9-1.8h-4.8c-1.4,0-1.9,0.4-1.9,1.8
	C24.7,16.2,24.7,42.5,24.7,42.5z"/>
<g id="layer1" transform="matrix(0.29536298,0,0,0.29536298,43.026916,10.190019)">
	<g id="Ebene_x0020_1" transform="matrix(3.543307,0,0,3.543307,0.00106713,-5.761719e-6)">
		<g id="_72243192">
			<path id="_47445264" inkscape:connector-curvature="0" sodipodi:nodetypes="ccccccccc" class="st1" d="M111.3,24.3v84.4H111h29
				h0.1V4c-1,0.3-12.5,8.7-14.5,10.1C124.2,15,111.3,23.8,111.3,24.3z"/>
		</g>
	</g>
</g>
</svg>
