<?xml version="1.0" encoding="UTF-8" standalone="no"?>
<svg
   xmlns:dc="http://purl.org/dc/elements/1.1/"
   xmlns:cc="http://creativecommons.org/ns#"
   xmlns:rdf="http://www.w3.org/1999/02/22-rdf-syntax-ns#"
   xmlns:svg="http://www.w3.org/2000/svg"
   xmlns="http://www.w3.org/2000/svg"
   viewBox="0 0 766.68933 159.99867"
   height="159.99867"
   width="766.68933"
   xml:space="preserve"
   id="svg2"
   version="1.1"><metadata
     id="metadata8"><rdf:RDF><cc:Work
         rdf:about=""><dc:format>image/svg+xml</dc:format><dc:type
           rdf:resource="http://purl.org/dc/dcmitype/StillImage" /></cc:Work></rdf:RDF></metadata><defs
     id="defs6"><clipPath
       id="clipPath18"
       clipPathUnits="userSpaceOnUse"><path
         id="path16"
         d="M 0,119.999 H 575.017 V 0 H 0 Z" /></clipPath><clipPath
       id="clipPath70"
       clipPathUnits="userSpaceOnUse"><path
         id="path68"
         d="M 0.00300598,119.999 H 575.02 V 39.5539 H 0.00300598 Z" /></clipPath></defs><g
     transform="matrix(1.3333333,0,0,-1.3333333,0,159.99867)"
     id="g10"><g
       id="g12"><g
         clip-path="url(#clipPath18)"
         id="g14"><g
           transform="translate(6.7021,118.7315)"
           id="g20"><path
             id="path22"
             style="fill:#ffffff;fill-opacity:1;fill-rule:nonzero;stroke:none"
             d="m 0,0 c -3.047,0 -5.526,-2.52 -5.526,-5.618 v -106.229 c 0,-3.098 2.479,-5.618 5.526,-5.618 l 195.113,-0.015 V -0.016 Z" /></g><g
           transform="translate(8.0029,-9e-4)"
           id="g24"><path
             id="path26"
             style="fill:#9e9e9e;fill-opacity:1;fill-rule:nonzero;stroke:none"
             d="M 0,0 H 193.812 V 2.5 H 0 c -3.038,0 -5.5,2.462 -5.5,5.5 v 104 c 0,3.038 2.462,5.5 5.5,5.5 H 193.812 V 120 H 0 c -4.418,0 -8,-3.582 -8,-8 V 8 C -8,3.582 -4.418,0 0,0" /></g><g
           transform="translate(568.3213,1.2666)"
           id="g28"><path
             id="path30"
             style="fill:#ffffff;fill-opacity:1;fill-rule:nonzero;stroke:none"
             d="m 0,0 c 3.047,0 5.526,2.52 5.526,5.618 v 106.229 c 0,3.098 -2.479,5.618 -5.526,5.618 l -137.003,0.015 V 0.016 Z" /></g><g
           transform="translate(567.02,119.9991)"
           id="g32"><path
             id="path34"
             style="fill:#9e9e9e;fill-opacity:1;fill-rule:nonzero;stroke:none"
             d="M 0,0 H -135.702 V -2.5 H 0 c 3.038,0 5.5,-2.462 5.5,-5.5 v -104 c 0,-3.038 -2.462,-5.5 -5.5,-5.5 H -135.702 V -120 H 0 c 4.418,0 8,3.582 8,8 V -8 C 8,-3.582 4.418,0 0,0" /></g><g
           transform="translate(495.5937,88.2325)"
           id="g36"><path
             id="path38"
             style="fill:#0078bd;fill-opacity:1;fill-rule:nonzero;stroke:none"
             d="m 0,0 c -0.549,0.059 -1.095,0.089 -1.642,0.089 -1.434,0 -2.474,-0.302 -3.171,-0.922 -0.728,-0.64 -1.113,-1.512 -1.113,-2.52 V -24.747 H -33.897 V -0.62 l -0.741,0.291 c -0.386,0.152 -0.869,0.26 -1.481,0.329 -0.548,0.059 -1.095,0.089 -1.642,0.089 -1.434,0 -2.473,-0.302 -3.171,-0.922 -0.728,-0.64 -1.113,-1.512 -1.113,-2.52 v -53.585 l 0.738,-0.292 c 0.381,-0.151 0.866,-0.257 1.48,-0.326 0.549,-0.061 1.097,-0.093 1.644,-0.093 1.43,0 2.469,0.303 3.174,0.924 0.728,0.642 1.112,1.513 1.112,2.519 v 21.985 h 27.971 v -24.717 l 0.739,-0.292 c 0.38,-0.151 0.864,-0.257 1.479,-0.326 0.549,-0.061 1.097,-0.093 1.645,-0.093 1.429,0 2.467,0.303 3.172,0.924 0.729,0.642 1.113,1.513 1.113,2.519 V -0.62 L 1.481,-0.329 C 1.095,-0.177 0.612,-0.069 0,0" /></g><g
           transform="translate(546.0615,50.6924)"
           id="g40"><path
             id="path42"
             style="fill:#0078bd;fill-opacity:1;fill-rule:nonzero;stroke:none"
             d="m 0,0 c -1.137,-2.67 -2.686,-4.932 -4.603,-6.717 -1.922,-1.791 -4.193,-3.152 -6.747,-4.046 -2.585,-0.906 -5.357,-1.366 -8.243,-1.366 h -8.428 v 42.115 h 8.344 c 2.941,0 5.742,-0.46 8.327,-1.365 2.563,-0.899 4.836,-2.236 6.759,-3.972 1.917,-1.735 3.466,-3.899 4.601,-6.431 1.134,-2.533 1.708,-5.46 1.708,-8.7 C 1.718,5.879 1.141,2.677 0,0 m 7.927,20.988 c -1.404,3.453 -3.442,6.439 -6.052,8.876 -2.605,2.429 -5.788,4.324 -9.456,5.634 -3.644,1.302 -7.77,1.962 -12.265,1.962 H -32.39 c -1.55,0 -2.567,-0.386 -3.111,-1.179 -0.442,-0.644 -0.668,-1.435 -0.668,-2.347 v -50.011 c 0,-0.912 0.226,-1.702 0.667,-2.345 0.545,-0.794 1.562,-1.181 3.112,-1.181 h 12.544 c 4.512,0 8.657,0.766 12.319,2.278 3.662,1.51 6.836,3.61 9.435,6.236 2.598,2.627 4.622,5.731 6.022,9.229 1.396,3.489 2.104,7.29 2.104,11.294 0,4.23 -0.71,8.117 -2.107,11.554" /></g><g
           transform="translate(199.7041,119.9991)"
           id="g44"><path
             id="path46"
             style="fill:#0078bd;fill-opacity:1;fill-rule:nonzero;stroke:none"
             d="m 0,0 v -120 l 232.817,0.001 V 0 Z" /></g><g
           transform="translate(359.5103,63.8545)"
           id="g48"><path
             id="path50"
             style="fill:#ffffff;fill-opacity:1;fill-rule:nonzero;stroke:none"
             d="M 0,0 H 34.897 C 34.547,9.57 28.361,17.157 18.324,17.157 9.454,17.157 1.517,11.204 0,0 M 43.417,-7.587 H 0 c 1.4,-10.854 8.987,-17.04 20.191,-17.04 4.786,0 8.52,1.05 12.021,2.218 2.335,0.816 3.619,1.283 4.552,1.283 2.335,0 4.086,-2.217 3.502,-7.236 -4.902,-2.218 -12.489,-4.552 -20.425,-4.552 -17.39,0 -29.295,11.788 -29.295,29.178 0,16.691 12.489,28.829 27.778,28.829 17.156,0 25.56,-13.655 25.56,-26.961 0,-1.751 -0.117,-3.618 -0.467,-5.719" /></g><g
           transform="translate(340.3564,65.1377)"
           id="g52"><path
             id="path54"
             style="fill:#ffffff;fill-opacity:1;fill-rule:nonzero;stroke:none"
             d="m 0,0 v -29.995 c 0,-2.217 -1.166,-3.502 -4.785,-3.502 -1.517,0 -3.268,0.234 -4.202,0.467 v 31.863 c 0,11.438 -5.718,16.923 -14.006,16.923 -6.652,0 -13.772,-4.668 -16.689,-10.037 v -35.714 c 0,-2.217 -1.168,-3.502 -4.785,-3.502 -1.634,0 -3.386,0.234 -4.202,0.467 v 55.556 c 0.816,0.233 2.568,0.584 4.202,0.584 3.617,0 4.785,-1.402 4.785,-3.502 v -4.785 c 4.085,4.902 10.27,8.987 18.673,8.987 C -9.571,23.81 0,16.457 0,0" /></g><g
           transform="translate(271.8892,60.0025)"
           id="g56"><path
             id="path58"
             style="fill:#ffffff;fill-opacity:1;fill-rule:nonzero;stroke:none"
             d="m 0,0 c 0,12.838 -8.754,20.892 -19.491,20.892 -10.739,0 -19.492,-8.054 -19.492,-20.892 0,-12.955 8.753,-21.125 19.492,-21.125 C -8.754,-21.125 0,-12.955 0,0 m -48.204,0 c 0,16.573 12.256,28.945 28.713,28.945 C -3.035,28.945 9.22,16.573 9.22,0 c 0,-16.69 -12.255,-29.062 -28.711,-29.062 -16.457,0 -28.713,12.372 -28.713,29.062" /></g><g
           transform="translate(74.6382,49.1138)"
           id="g60"><path
             id="path62"
             style="fill:#0078bd;fill-opacity:1;fill-rule:nonzero;stroke:none"
             d="m 0,0 c 0,-9.372 -6.129,-16.219 -18.57,-17.575 -9.018,-0.964 -22.073,0.175 -28.269,0.887 -0.231,1.012 -0.411,2.27 -0.411,3.261 0,8.2 4.437,10.072 8.585,10.072 4.313,0 11.107,-0.748 16.165,-0.748 5.551,0 7.248,1.89 7.248,3.682 0,2.352 -2.246,3.331 -6.559,4.156 l -11.802,2.271 c -9.826,1.882 -15.07,8.681 -15.07,15.891 0,8.767 6.205,16.107 18.411,17.458 9.226,0.999 20.455,-0.127 26.617,-0.884 0.229,-1.059 0.347,-2.059 0.347,-3.16 0,-8.174 -4.313,-9.938 -8.467,-9.938 -3.195,0 -8.147,0.596 -13.8,0.596 -5.757,0 -8.145,-1.591 -8.145,-3.532 0,-2.044 2.274,-2.891 5.88,-3.52 l 11.283,-2.094 C -4.966,14.687 0,8.102 0,0 m 20.251,-10.063 c 0,-5.029 -1.974,-7.927 -11.784,-7.927 -1.301,0 -2.438,0.095 -3.529,0.252 v 66.691 c 0,5.064 1.724,10.348 11.637,10.348 1.246,0 2.506,-0.129 3.676,-0.374 z m 40.115,-25.799 c 1.283,-0.659 3.929,-1.454 7.255,-1.546 5.692,-0.124 8.804,2.062 11.107,7.165 l 30.575,68.201 c -1.26,0.678 -4.051,1.431 -6.342,1.485 -3.928,0.07 -9.203,-0.733 -12.579,-8.779 L 80.482,7.295 61.064,38.924 c -1.252,0.384 -4.309,0.934 -6.555,0.934 -6.842,0 -10.68,-2.528 -14.655,-6.84 L 20.976,12.371 36.16,-11.529 c 2.805,-4.355 6.505,-6.574 12.511,-6.574 3.928,0 7.199,0.893 8.712,1.617 L 39.102,11.085 52.057,24.814 73.313,-8.544 Z" /></g><g
           id="g64"><g
             id="g66" /><g
             id="g78"><g
               style="opacity:0.19999701"
               id="g76"
               clip-path="url(#clipPath70)"><g
                 id="g74"
                 transform="translate(8.0029,119.9991)"><path
                   id="path72"
                   style="fill:#ffffff;fill-opacity:1;fill-rule:nonzero;stroke:none"
                   d="m 0,0 h 559.017 c 4.419,0 8,-3.582 8,-8 V -46 L 3.523,-68.455 C -2.914,-68.71 -8,-74.003 -8,-80.445 V -8 c 0,4.418 3.582,8 8,8" /></g></g></g></g></g></g></g></svg>
