<?xml version="1.0" encoding="utf-8"?>
<!-- Generator: Adobe Illustrator 21.1.0, SVG Export Plug-In . SVG Version: 6.00 Build 0)  -->
<svg version="1.1" xmlns="http://www.w3.org/2000/svg" xmlns:xlink="http://www.w3.org/1999/xlink" x="0px" y="0px"
	 viewBox="0 0 569.5 174.1" style="enable-background:new 0 0 569.5 174.1;" xml:space="preserve">
<style type="text/css">
	.st0{fill:url(#SVGID_1_);}
	.st1{fill:#A1A2A2;}
	.st2{fill:url(#SVGID_2_);}
	.st3{fill:#FFFFFF;}
	.st4{fill:#AE2C3F;}
	.st5{display:none;}
	.st6{display:inline;}
	.st7{opacity:0.8;fill:#FFFFFF;}
	.st8{opacity:0.4;}
</style>
<g id="Art">
	<g>
		
			<linearGradient id="SVGID_1_" gradientUnits="userSpaceOnUse" x1="-3666.3789" y1="2.8792" x2="-3666.3789" y2="106.8949" gradientTransform="matrix(-1 0 0 1 -3381.6521 0)">
			<stop  offset="0" style="stop-color:#868685"/>
			<stop  offset="2.044802e-02" style="stop-color:#D8D9D9"/>
			<stop  offset="5.240445e-02" style="stop-color:#F5F5F5"/>
			<stop  offset="0.4877" style="stop-color:#EDEEEE"/>
			<stop  offset="0.8955" style="stop-color:#F5F5F5"/>
			<stop  offset="0.9294" style="stop-color:#EBEBEC"/>
			<stop  offset="0.9643" style="stop-color:#D8D9D9"/>
			<stop  offset="1" style="stop-color:#868685"/>
		</linearGradient>
		<path class="st0" d="M15,106.1C6.9,106.1,4,101.3,4,93.4V16.4C4,8.5,6.9,3.8,15,3.8h539.5c8.1,0,10.9,4.8,10.9,12.7v76.9
			c0,7.9-2.9,12.7-10.9,12.7H15z"/>
		<path class="st1" d="M16.2,108.3c-8.1,0-13.5-4.8-13.5-12.7V14.2c0-7.9,5.5-12.7,13.5-12.7h537.1c8.1,0,13.5,4.8,13.5,12.7v81.4
			c0,7.9-5.5,12.7-13.5,12.7H16.2z M553.8,109.3c12,0,15.6-7.4,15.6-14.9v-79c0-7.4-3.6-14.9-15.6-14.9H15.6C3.6,0.6,0,8,0,15.4
			l0,79c0,7.4,3.6,14.9,15.6,14.9H553.8z"/>
		<linearGradient id="SVGID_2_" gradientUnits="userSpaceOnUse" x1="378.8721" y1="106.0689" x2="378.8721" y2="3.7692">
			<stop  offset="0" style="stop-color:#820021"/>
			<stop  offset="0.1044" style="stop-color:#AE2C3F"/>
			<stop  offset="0.9017" style="stop-color:#AE2C3F"/>
			<stop  offset="1" style="stop-color:#BA3C4C"/>
		</linearGradient>
		<path class="st2" d="M554.5,3.8H192.3v102.3h362.2c8.1,0,10.9-4.8,10.9-12.7V16.4C565.4,8.5,562.6,3.8,554.5,3.8z"/>
		<g>
			<path class="st3" d="M242.8,87.2c-4.5,0-8.7-0.8-12.6-2.4c-3.8-1.6-7.2-3.9-10-6.8c-2.8-2.9-5-6.3-6.6-10.3
				c-1.6-4-2.4-8.3-2.4-12.9c0-4.5,0.8-8.7,2.4-12.6c1.6-3.9,3.8-7.3,6.6-10.2c2.8-2.9,6.1-5.1,10-6.8c3.8-1.6,8-2.4,12.6-2.4
				c3.3,0,6.4,0.4,9.5,1.1c3.1,0.7,5.9,1.6,8.5,2.7c0.6,8.5-1.5,12.8-6.2,12.8c-0.8,0-1.6-0.1-2.3-0.3c-0.7-0.2-1.5-0.4-2.3-0.6
				c-0.8-0.2-1.8-0.4-2.8-0.6c-1-0.2-2.2-0.3-3.6-0.3c-2.2,0-4.3,0.4-6.3,1.2c-2,0.8-3.7,2-5.1,3.5c-1.4,1.5-2.6,3.3-3.4,5.4
				c-0.8,2.1-1.2,4.5-1.2,7.1c0,2.8,0.4,5.2,1.2,7.4c0.8,2.2,2,4,3.4,5.5c1.4,1.5,3.1,2.7,5.1,3.5c2,0.8,4.1,1.2,6.3,1.2
				c1.4,0,2.6-0.1,3.7-0.3c1.1-0.2,2.1-0.4,2.9-0.6c0.9-0.2,1.7-0.4,2.4-0.6c0.8-0.2,1.6-0.3,2.4-0.3c4.7,0,6.7,4.3,6.2,12.8
				c-2.6,1.1-5.5,2-8.8,2.7C249.3,86.8,246.1,87.2,242.8,87.2z"/>
			<path class="st3" d="M275.9,86.4c-1.3,0-2.7-0.1-4-0.2c-1.3-0.1-2.4-0.3-3.3-0.5V30.1c0-1.9,0.6-3.4,1.7-4.8c1.1-1.3,3.3-2,6.5-2
				c1.3,0,2.7,0.1,4,0.2c1.3,0.1,2.4,0.3,3.3,0.5v55.6c0,1.9-0.6,3.4-1.7,4.8C281.2,85.8,279.1,86.4,275.9,86.4z"/>
			<path class="st3" d="M302.1,86.4c-1.3,0-2.5-0.1-3.7-0.2c-1.2-0.1-2.2-0.3-3.1-0.5V24.6c1-0.3,2.2-0.6,3.7-0.8
				c1.5-0.2,2.8-0.3,3.9-0.3c3.5,0,6.1,0.4,7.7,1.3c1.6,0.9,2.9,2.2,4,3.9L336.4,63V29.5c0-0.8,0.1-1.6,0.3-2.4
				c0.2-0.7,0.6-1.4,1.1-2c0.5-0.6,1.3-1,2.3-1.3c1-0.3,2.2-0.5,3.6-0.5c1.3,0,2.5,0.1,3.7,0.2c1.2,0.1,2.2,0.3,3,0.4v61.3
				c-0.9,0.4-2,0.8-3.3,0.9c-1.3,0.2-2.5,0.2-3.7,0.2c-3,0-5.2-0.4-6.7-1.2c-1.5-0.8-2.7-2-3.6-3.5l-23.3-37.3v35.6
				c0,1.8-0.5,3.3-1.6,4.5C307.1,85.8,305.1,86.4,302.1,86.4z"/>
			<path class="st3" d="M370.1,86c-1.8,0-3.2-0.2-4.4-0.6c-1.1-0.4-2-0.9-2.6-1.6c-0.6-0.7-1-1.5-1.2-2.4c-0.2-1-0.3-2-0.3-3.1V31.3
				c0-1.1,0.1-2.1,0.3-3.1c0.2-1,0.6-1.8,1.2-2.4c0.6-0.7,1.5-1.2,2.6-1.6c1.1-0.4,2.6-0.6,4.4-0.6h31.7c0.1,0.7,0.3,1.7,0.4,2.9
				c0.1,1.2,0.2,2.5,0.2,3.7c0,2.7-0.5,4.6-1.6,5.7c-1.1,1.1-2.5,1.7-4.1,1.7h-19.5v10.9h22.5c0.1,0.6,0.3,1.5,0.4,2.5
				c0.1,1.1,0.2,2.2,0.2,3.4c0,2.6-0.5,4.3-1.5,5.2c-1,0.9-2.3,1.4-3.8,1.4h-17.7V72h25.7c0.1,0.7,0.3,1.7,0.4,2.9
				c0.1,1.2,0.2,2.5,0.2,3.7c0,2.8-0.5,4.7-1.6,5.8c-1.1,1.1-2.5,1.6-4.1,1.6H370.1z"/>
			<path class="st3" d="M416.2,86.4c-1.5,0-2.8-0.1-3.9-0.4c-1.1-0.3-2.1-0.6-2.9-1l5.9-59.8c1.2-0.5,2.8-0.9,4.8-1.2
				c2-0.3,3.7-0.5,5.1-0.5c2,0,3.7,0.1,5.1,0.4c1.4,0.3,2.7,0.7,3.7,1.3c1,0.6,1.8,1.5,2.4,2.5c0.6,1.1,1.1,2.4,1.4,4l2.5,11.6
				c0.7,3.2,1.5,6.7,2.3,10.6c0.8,3.9,1.5,7.9,2.2,12h0.4c0.7-4.1,1.4-8.1,2.2-11.9c0.8-3.8,1.6-7.4,2.4-10.6l3.1-12.2
				c0.8-3,2-5.1,3.7-6.1c1.7-1.1,4.3-1.6,7.9-1.6c1.8,0,3.6,0.1,5.4,0.4s3.3,0.6,4.5,0.9l5.6,60.2c-0.9,0.3-2,0.6-3.2,1
				c-1.2,0.3-2.6,0.5-4.1,0.5c-2,0-3.8-0.4-5.2-1.1c-1.4-0.7-2.2-2-2.3-3.9l-1.4-20.7c-0.3-3.6-0.6-7.5-0.8-11.5
				c-0.2-4-0.4-7.8-0.4-11.4h-0.2c-0.8,3.3-1.7,6.9-2.5,10.8c-0.9,3.9-1.7,7.4-2.6,10.7l-3.9,16.3c-1,3.8-4,5.8-9.1,5.8
				c-1.3,0-2.6-0.1-3.9-0.4c-1.3-0.3-2.5-0.5-3.4-0.9l-4.9-20.4c-1-3.8-1.9-7.5-2.7-11.1c-0.8-3.6-1.6-7.3-2.3-10.9h-0.3
				c-0.2,5.1-0.4,9.8-0.8,14.1c-0.3,4.3-0.6,7.9-0.9,11l-1.5,18.7c-0.1,1.9-0.8,3.1-2.1,3.8C419.9,86.1,418.2,86.4,416.2,86.4z"/>
			<path class="st3" d="M491.6,86.6c-1.2,0-2.6-0.1-4.2-0.3c-1.6-0.2-2.9-0.5-3.9-0.9l19.9-60.9c1.7-0.4,3.5-0.8,5.2-1
				c1.8-0.2,3.4-0.3,4.9-0.3c2.1,0,3.9,0.2,5.4,0.5c1.5,0.3,2.8,0.8,3.8,1.4c1,0.6,1.9,1.5,2.5,2.5c0.7,1.1,1.2,2.3,1.7,3.7l17,53.9
				c-1.1,0.4-2.4,0.8-3.9,1c-1.5,0.2-3,0.3-4.5,0.3c-1.7,0-3.3-0.3-4.8-0.8c-1.6-0.5-2.7-1.8-3.4-3.7l-3.3-9.9h-20.9l-2.8,9.3
				c-0.7,2.2-1.9,3.6-3.5,4.2C495.2,86.3,493.5,86.6,491.6,86.6z M506.6,60.2h14.3l-7.1-23.5L506.6,60.2z"/>
		</g>
		<path class="st4" d="M125.5,98.2c1.2,0.6,3.7,1.4,6.8,1.4c5.3,0.1,8.2-1.9,10.4-6.7l28.6-63.7c-1.2-0.6-3.8-1.3-5.9-1.4
			c-3.7-0.1-8.6,0.7-11.8,8.2l-9.3,21.8l-18.1-29.6c-1.2-0.4-4-0.9-6.1-0.9c-6.4,0-10,2.4-13.7,6.4L88.7,53.2l14.2,22.3
			c2.6,4.1,6.1,6.1,11.7,6.1c3.7,0,6.7-0.8,8.1-1.5l-17.1-25.8l12.1-12.8l19.9,31.2L125.5,98.2z M88,74.1c0,4.7-1.8,7.4-11,7.4
			c-1.2,0-2.3-0.1-3.3-0.2V19c0-4.7,1.6-9.7,10.9-9.7c1.2,0,2.3,0.1,3.4,0.3V74.1z M69.1,64.7c0,8.8-5.7,15.2-17.4,16.4
			C43.3,82,31.1,81,25.4,80.3c-0.2-0.9-0.4-2.1-0.4-3c0-7.7,4.1-9.4,8-9.4c4,0,10.4,0.7,15.1,0.7c5.2,0,6.8-1.8,6.8-3.4
			c0-2.2-2.1-3.1-6.1-3.9l-11-2.1c-9.2-1.8-14.1-8.1-14.1-14.8c0-8.2,5.8-15.1,17.2-16.3c8.6-0.9,19.1,0.1,24.9,0.8
			c0.2,1,0.3,1.9,0.3,3c0,7.6-4,9.3-7.9,9.3c-3,0-7.6-0.6-12.9-0.6c-5.4,0-7.6,1.5-7.6,3.3c0,1.9,2.1,2.7,5.5,3.3l10.5,2
			C64.5,51,69.1,57.1,69.1,64.7z"/>
		<g class="st5">
			<path class="st6" d="M194.1,175.3c-10.8,0-18.8-8.2-18.8-19.7c0-11.1,8.1-19.8,18.8-19.8c4,0,7.8,0.8,11.1,2.2
				c0.5,3.4-0.8,5.5-2.8,5.5c-1.6,0-3.6-1.5-8-1.5c-6.8,0-12.1,5.4-12.1,13.7c0,8.6,5.3,13.6,12.1,13.6c4.5,0,6.2-1.5,7.8-1.5
				c2.3,0,3.7,1.9,3.2,5.5C202,174.5,198.5,175.3,194.1,175.3z"/>
			<path class="st6" d="M208.2,155.3c0-11.2,7.7-19.9,19-19.9c11.3-0.1,19,8.7,19,19.9c0,11.2-7.7,20.2-19,20.2
				C215.9,175.5,208.2,166.5,208.2,155.3z M239.3,155.3c0-8-5.3-14-12.1-14c-6.7,0-12.1,5.9-12.1,14c0,8.3,5.3,14.3,12,14.3
				C233.8,169.6,239.3,163.3,239.3,155.3z"/>
			<path class="st6" d="M282.6,142.3h-0.1l-7.1,26.9c-0.6,2.2-2.2,2.9-4.6,2.9c-1.2,0-2.6-0.2-3.5-0.5l-8.1-29.4h-0.1l-2.7,30.6
				c-0.2,1.7-1.4,2.2-3.2,2.2c-1.3,0-2.3-0.4-3-0.7l3.9-37.6c1.1-0.5,3.2-0.8,4.5-0.8c3.6,0,5.2,1,5.9,3.6l6.5,25.8h0.1l6.5-25.6
				c0.7-2.7,2.6-3.8,5.8-3.8c1.6,0,3.4,0.3,4.5,0.6l3.7,37.8c-0.8,0.3-1.9,0.7-3.2,0.7c-1.8,0-3.1-0.5-3.3-2.3L282.6,142.3z"/>
			<path class="st6" d="M301.1,174.7c-2.9,0-3.4-1.3-3.4-3.1v-32.5c0-1.8,0.5-3.1,3.4-3.1h20c0.1,0.6,0.3,1.8,0.3,3
				c0,2.3-1.1,3.1-2.6,3.1h-14.5v10.3h15.3c0.1,0.6,0.2,1.7,0.2,2.8c0,2.2-1,3-2.4,3h-13.2v10.4h17.3c0.1,0.7,0.2,1.7,0.2,2.8
				c0,2.4-1.1,3.3-2.5,3.3H301.1z"/>
			<path class="st6" d="M331,174.7c-2.9,0-3.4-1.3-3.4-3.1v-32.5c0-1.8,0.5-3.1,3.4-3.1h8.1c12.9,0,20.9,7.4,20.9,19
				c0,10.9-7.9,19.6-21,19.6H331z M339.6,168.7c7.5,0,13.6-4.5,13.6-13.7c0-8.3-6.1-12.8-13.7-12.8h-5.2v26.5H339.6z"/>
			<path class="st6" d="M377.4,152.8l9.2-14.9c0.9-1.5,2-2,3.9-2c1.1,0,2.9,0.3,3.8,0.9l-13.8,21.5v14c0,1.5-0.8,2.8-3.4,2.8
				c-1.2,0-2.6-0.2-3.3-0.3v-16.4l-14-21.5c1.1-0.6,2.8-1,4-1c2.1,0,3.4,0.4,4.3,1.9L377.4,152.8z"/>
		</g>
		<g>
			<g class="st8">
				<g>
					<path class="st3" d="M555.2,82.1c6.9,6.9,7.9,13.3,8.1,14.8c0.7,0,0.9-3,0.9-7.6l0-72.6c0-8.4-2.7-11.3-9.9-11.3
						c-2.4,0-4.8,1.3-8,1.3H22.7c-3.2,0-5.6-1.3-8-1.3c-7.1,0-9.9,2.8-9.9,11.3l0,72.6c0,4.5,0.3,7.6,0.9,7.6
						c0.2-1.4,0.5-8.4,8.1-14.8C75.1,34.8,489.2,20.3,555.2,82.1z"/>
				</g>
			</g>
		</g>
	</g>
</g>
<g id="ACTION">
	<g>
		<path d="M191.1,173.6c-0.6,0-1.2-0.1-1.9-0.2c-0.7-0.1-1.2-0.3-1.6-0.5l13.2-38c0.8-0.2,1.5-0.3,2.2-0.4c0.7-0.1,1.4-0.1,2.1-0.1
			c1,0,1.7,0.1,2.4,0.2c0.6,0.1,1.1,0.4,1.5,0.7c0.4,0.3,0.8,0.7,1,1.1c0.3,0.5,0.5,1,0.8,1.7l11.9,34.8c-0.5,0.2-1,0.4-1.6,0.5
			s-1.2,0.2-1.7,0.2c-0.9,0-1.7-0.1-2.4-0.3c-0.7-0.2-1.2-0.8-1.5-1.7l-2.9-8.5h-15.2l-2.8,8.5c-0.3,0.9-0.8,1.4-1.4,1.7
			C192.7,173.5,192,173.6,191.1,173.6z M199.4,157.4h11.4l-5.7-17.3L199.4,157.4z"/>
		<path d="M241.8,173.8c-2.7,0-5.2-0.5-7.5-1.5c-2.3-1-4.3-2.3-6-4.1c-1.7-1.7-3-3.8-4-6.2c-1-2.4-1.4-5.1-1.4-7.9
			c0-2.8,0.5-5.4,1.4-7.8c1-2.4,2.3-4.5,4-6.3c1.7-1.8,3.7-3.2,6-4.2s4.8-1.5,7.5-1.5c2,0,4,0.2,5.8,0.6c1.8,0.4,3.6,0.9,5.3,1.6
			c0,0.3,0.1,0.5,0.1,0.7c0,0.2,0,0.4,0,0.7c0,1.3-0.3,2.3-0.8,3c-0.6,0.7-1.3,1.1-2.1,1.1c-0.4,0-0.8-0.1-1.3-0.2
			c-0.5-0.2-1-0.3-1.6-0.5c-0.6-0.2-1.3-0.4-2.2-0.5c-0.8-0.2-1.8-0.2-2.9-0.2c-1.7,0-3.3,0.3-4.8,1c-1.5,0.7-2.7,1.6-3.8,2.8
			c-1.1,1.2-1.9,2.6-2.6,4.3c-0.6,1.7-0.9,3.6-0.9,5.6c0,2.1,0.3,4.1,0.9,5.7c0.6,1.7,1.5,3.1,2.6,4.3c1.1,1.2,2.4,2.1,3.8,2.6
			c1.5,0.6,3.1,0.9,4.8,0.9c1.1,0,2.1-0.1,2.9-0.2c0.8-0.2,1.5-0.3,2.1-0.5s1.1-0.4,1.5-0.5c0.4-0.2,0.9-0.2,1.3-0.2
			c1,0,1.8,0.3,2.4,1c0.6,0.7,0.9,1.6,0.9,2.9c0,0.3,0,0.5,0,0.8s0,0.5-0.1,0.8c-1.7,0.7-3.4,1.3-5.2,1.6
			C246.1,173.6,244,173.8,241.8,173.8z"/>
		<path d="M273.4,173.6c-0.6,0-1.3,0-1.9-0.1c-0.6-0.1-1.1-0.1-1.4-0.2v-32.7h-11.9c-0.1-0.3-0.1-0.7-0.2-1.3c0-0.5-0.1-1.1-0.1-1.7
			c0-1.3,0.3-2.1,0.8-2.5c0.5-0.4,1.2-0.6,2-0.6h27.8c0.2,0.6,0.2,1.5,0.2,2.7c0,2.2-0.9,3.3-2.7,3.3h-9.3v30.2c0,0.8-0.2,1.5-0.7,2
			S274.7,173.6,273.4,173.6z"/>
		<path d="M296.2,173.6c-0.6,0-1.3,0-1.9-0.1c-0.6-0.1-1.1-0.1-1.4-0.2v-36.1c0-0.8,0.2-1.5,0.7-2c0.5-0.5,1.4-0.8,2.6-0.8
			c0.6,0,1.3,0,1.9,0.1s1.1,0.1,1.4,0.2v36.1c0,0.8-0.2,1.5-0.7,2C298.4,173.4,297.5,173.6,296.2,173.6z"/>
		<path d="M324.2,174.1c-2.8,0-5.4-0.5-7.7-1.6c-2.3-1-4.3-2.5-6-4.3c-1.7-1.8-3-4-3.9-6.4c-0.9-2.4-1.4-5.1-1.4-7.9
			c0-2.8,0.5-5.4,1.4-7.8c0.9-2.4,2.2-4.6,3.9-6.3s3.7-3.2,6-4.2c2.3-1,4.9-1.5,7.7-1.5c2.8,0,5.4,0.5,7.7,1.5c2.3,1,4.3,2.4,6,4.2
			s3,3.9,3.9,6.3c0.9,2.4,1.4,5,1.4,7.9s-0.5,5.4-1.4,7.9c-0.9,2.4-2.2,4.6-3.9,6.4c-1.7,1.8-3.7,3.3-6,4.3
			C329.6,173.5,327,174.1,324.2,174.1z M324.1,168.1c1.7,0,3.2-0.4,4.7-1.1c1.5-0.7,2.8-1.7,3.9-3c1.1-1.3,2-2.8,2.6-4.5
			c0.6-1.7,1-3.6,1-5.6c0-2-0.3-3.8-0.9-5.6c-0.6-1.7-1.5-3.2-2.6-4.5c-1.1-1.2-2.4-2.2-3.8-2.9s-3.1-1.1-4.8-1.1
			c-1.7,0-3.2,0.3-4.7,1c-1.5,0.7-2.7,1.7-3.8,2.9c-1.1,1.3-2,2.7-2.6,4.4c-0.6,1.7-1,3.6-1,5.6c0,2.1,0.3,4,0.9,5.7
			c0.6,1.7,1.5,3.3,2.6,4.5c1.1,1.3,2.4,2.3,3.8,3C320.9,167.7,322.5,168.1,324.1,168.1z"/>
		<path d="M351.8,173.6c-0.6,0-1.2,0-1.8-0.1c-0.6,0-1-0.1-1.3-0.2v-38.3c0.4-0.2,1-0.3,1.7-0.4c0.7-0.1,1.3-0.1,1.8-0.1
			c1.6,0,2.7,0.2,3.4,0.6c0.7,0.4,1.3,1,1.8,1.8l17.3,26.8l-0.4-26.6c0-0.7,0.2-1.3,0.7-1.8c0.5-0.5,1.3-0.8,2.5-0.8
			c0.6,0,1.1,0,1.7,0.1c0.6,0.1,1,0.1,1.3,0.2v38.3c-0.9,0.4-2,0.5-3.2,0.5c-1.4,0-2.5-0.2-3.2-0.6c-0.7-0.4-1.2-1-1.7-1.6
			l-17.9-27.9l0.4,27.5c0,0.8-0.2,1.4-0.7,1.9C353.9,173.4,353.1,173.6,351.8,173.6z"/>
	</g>
</g>
</svg>
