<?xml version="1.0" encoding="utf-8"?>
<!-- Generator: Adobe Illustrator 21.1.0, SVG Export Plug-In . SVG Version: 6.00 Build 0)  -->
<svg version="1.1"
	 id="svg2" inkscape:version="0.91 r13725" sodipodi:docname="ARD_alpha.svg" xmlns:cc="http://creativecommons.org/ns#" xmlns:dc="http://purl.org/dc/elements/1.1/" xmlns:inkscape="http://www.inkscape.org/namespaces/inkscape" xmlns:rdf="http://www.w3.org/1999/02/22-rdf-syntax-ns#" xmlns:sodipodi="http://sodipodi.sourceforge.net/DTD/sodipodi-0.dtd" xmlns:svg="http://www.w3.org/2000/svg"
	 xmlns="http://www.w3.org/2000/svg" xmlns:xlink="http://www.w3.org/1999/xlink" x="0px" y="0px" viewBox="0 0 512 202.7"
	 style="enable-background:new 0 0 512 202.7;" xml:space="preserve">
<style type="text/css">
	.st0{fill:#001A4B;}
	.st1{fill:#DB502B;}
</style>
<sodipodi:namedview  bordercolor="#666666" borderopacity="1" gridtolerance="10" guidetolerance="10" id="namedview8760" inkscape:current-layer="svg2" inkscape:cx="234.10822" inkscape:cy="54.544998" inkscape:pageopacity="0" inkscape:pageshadow="2" inkscape:window-height="897" inkscape:window-maximized="0" inkscape:window-width="1417" inkscape:window-x="0" inkscape:window-y="0" inkscape:zoom="1.3903826" objecttolerance="10" pagecolor="#ffffff" showgrid="false">
	</sodipodi:namedview>
<path id="text2987" inkscape:connector-curvature="0" class="st0" d="M260.5,154v35.9h3.6V154H260.5z M285.1,154v11.4
	c-1.7-0.1-3-0.2-4.5-0.2c-7.6,0-12.6,4.9-12.6,13.5c0,7.1,3,11.6,9,11.6c3.9,0,7.1-2.3,8.4-5.8l0.1,0.1c-0.3,1.5-0.4,3.8-0.4,5.3
	h3.6V154L285.1,154L285.1,154z M388.6,154v35.9h3.6V177l9.7,12.8h4.8l-10.5-13.3l9.7-11.1h-4.5l-9.2,11V154L388.6,154L388.6,154z
	 M479.4,154v35.9h3.6V154H479.4z M252,156c-1.2,0.2-2,1.3-2,2.5c0,1.4,1.1,2.5,2.6,2.5c1.4,0,2.6-1.1,2.6-2.5c0-1.4-1.2-2.5-2.6-2.5
	C252.4,156,252.2,156,252,156z M115.2,156.5c-3.8,0-6.9,0-9.5,0.2v33.2h6.4v-13.7h0.2l9.3,13.7h7.9l-8-11.1
	c-0.8-1.1-1.8-2.4-2.7-3.6c5-0.8,8.4-4.4,8.4-9.3C127.3,159,122.6,156.5,115.2,156.5L115.2,156.5z M144.6,156.5
	c-4.1,0-8.1,0.2-10.7,0.3v33c2.8,0.1,5.8,0.3,9.3,0.3c10.8,0,18.3-5.9,18.3-17.3C161.4,161,154.9,156.5,144.6,156.5L144.6,156.5z
	 M234.9,156.5c-4,0-7,0.1-9.3,0.1v33.2c2.9,0,6,0.2,8,0.2c10.5,0,12.7-6.4,12.7-10c0-3.5-2.1-6.9-7-7.7v-0.1
	c3.7-1.1,6.3-4.2,6.3-7.9C245.5,159.6,242.1,156.5,234.9,156.5L234.9,156.5z M83.1,156.6l-11.6,33.2h6.5l2.3-6.8h12.5l2.4,6.8h7
	l-11.8-33.2C90.3,156.6,83.1,156.6,83.1,156.6z M234.2,159.6c5.8,0,7.3,2.3,7.3,5.4c0,3.9-3.1,6.3-8.9,6.3c-1.3,0-2.2,0-3.2-0.1
	v-11.6C230.8,159.6,232.6,159.6,234.2,159.6L234.2,159.6z M114.6,161.7c4,0,6,1.5,6,4.7c0,3.1-2.4,5-6.2,5c-1,0-1.9,0-2.3-0.1v-9.6
	C112.7,161.7,113.6,161.7,114.6,161.7L114.6,161.7z M144.2,161.8c7.6,0,10.4,4.3,10.4,11.4c0,7.9-4.5,11.4-10.7,11.4
	c-1.3,0-2.6-0.1-3.5-0.3v-22.4C141.3,161.8,142.7,161.8,144.2,161.8L144.2,161.8z M86.4,164L86.4,164c0.5,1.9,1,3.5,1.6,5.3l3.1,8.7
	h-9.2l3-8.4C85.5,167.6,86,165.7,86.4,164L86.4,164z M332.4,164.9c-4.3,0-7.3,2.4-8.7,5.9h-0.1c0.2-1.5,0.4-3.9,0.4-5.4h-3.6v24.4
	h3.7v-11.8c0-5.8,3.1-10.1,7.5-10.1c3.5,0,4.5,2.2,4.5,6.1v15.8h3.7v-17.1C339.7,168.4,338,164.9,332.4,164.9L332.4,164.9z
	 M443.3,164.9c-4.3,0-7.4,2.4-8.8,5.9h-0.1c0.2-1.5,0.4-3.9,0.4-5.4h-3.6v24.4h3.6v-11.8c0-5.8,3.1-10.1,7.5-10.1
	c3.5,0,4.6,2.2,4.6,6.1v15.8h3.6v-17.1C450.6,168.4,448.9,164.9,443.3,164.9L443.3,164.9z M354.9,165c-6.6,0-10.6,4.3-10.6,9.5
	c0,3.1,1.2,5.7,3.6,7.1c-1.7,0.8-2.7,2.3-2.7,4c0,1.6,0.9,2.8,2.4,3.5c-2.3,1.2-4.2,3.5-4.2,6.5c0,4.7,4,7.2,10.2,7.2
	c7.5,0,12.8-3.9,12.8-9c0-4.3-2.9-6.8-8.2-6.8h-4.8c-3,0-4.4-0.7-4.4-2.1c0-0.9,0.6-1.7,1.8-2.2c0.9,0.2,2.3,0.3,3.4,0.3
	c7,0,10.6-4,10.6-9.2c0-2.3-0.9-4.2-2.4-5.4h4.4v-2.9h-8.3C357.3,165.1,356.3,165,354.9,165L354.9,165z M378.1,165
	c-6.2,0-9.6,3.1-9.6,7.2c0,8.7,12,5,12,10.9c0,2.6-2.5,4.2-6,4.2c-1.9,0-3.9-0.4-5.5-0.8l-0.1,3.4c1.5,0.3,3.4,0.5,5.2,0.5
	c6.4,0,10.2-3.4,10.2-7.7c0-8.3-11.9-5-11.9-10.8c0-2.4,1.7-3.8,5.3-3.8c1.7,0,3.5,0.3,5.1,0.8l0.1-3.2
	C381.3,165.2,379.6,165,378.1,165L378.1,165z M416.4,165c-3.3,0-6.1,0.8-8.4,1.9l0.3,3.2c2.2-1.4,5.1-2.1,7.5-2.1
	c4.2,0,5.6,2.1,5.6,5.8v2c-9.5,0-14.8,3.5-14.8,8.6c0,3.9,2.8,5.9,6.6,5.9c4.2,0,7.3-2.5,8.5-5.6h0.1c-0.2,1.4-0.3,3.2-0.3,5.1h3.6
	c-0.1-2.2-0.1-4.9-0.1-7.3v-9.6C425,168.3,423.1,165,416.4,165L416.4,165z M464.5,165c-3.3,0-6.1,0.8-8.4,1.9l0.3,3.2
	c2.2-1.4,5.1-2.1,7.5-2.1c4.2,0,5.6,2.1,5.6,5.8v2c-9.5,0-14.8,3.5-14.8,8.6c0,3.9,2.8,5.9,6.7,5.9c4.2,0,7.3-2.5,8.5-5.6h0.1
	c-0.2,1.4-0.3,3.2-0.3,5.1h3.6c-0.1-2.2-0.1-4.9-0.1-7.3v-9.6C473.2,168.3,471.3,165,464.5,165L464.5,165z M250.6,165.4v24.4h3.7
	v-24.4H250.6z M294.8,165.4v17.1c0,4.3,1.7,7.9,7.3,7.9c4.3,0,7.4-2.4,8.8-5.9l0.1,0.1c-0.2,1.5-0.4,3.8-0.4,5.4h3.6v-24.4h-3.7
	v11.8c0,5.8-3,10.1-7.4,10.1c-3.5,0-4.6-2.2-4.6-6v-15.8L294.8,165.4L294.8,165.4z M354.7,167.8c4,0,6.5,2.3,6.5,6.2
	c0,3.9-2.6,6.1-6.6,6.1c-4.1,0-6.5-2.1-6.5-6.1C348,170.4,350.5,167.8,354.7,167.8L354.7,167.8z M280.2,168c1.6,0,3.1,0.2,4.8,0.6
	v8.6c0,4.3-2.4,10-7.3,10c-4,0-5.9-3.3-5.9-8.8C271.9,171.1,275.2,168,280.2,168L280.2,168z M232.6,174.1c5.5,0,9.8,1.4,9.8,6.1
	c0,3.9-2.6,6.8-8.4,6.8c-2.2,0-3.7-0.2-4.5-0.3v-12.5C230.2,174.1,232,174.1,232.6,174.1L232.6,174.1z M421.3,178.4v0.4
	c0,4.2-2.8,8.5-7.2,8.5c-2.4,0-4-1.4-4-3.6C410.1,181.3,412.1,178.4,421.3,178.4L421.3,178.4z M469.5,178.4v0.4
	c0,4.2-2.8,8.5-7.2,8.5c-2.4,0-4-1.4-4-3.6C458.4,181.3,460.3,178.4,469.5,178.4z M350.6,189.9c0.4,0,1.1,0.1,1.6,0.1h5
	c3.7,0,5.6,1.5,5.6,4.2c0,3.2-3.1,5.5-8.5,5.5c-4.1,0-7.1-1.6-7.1-4.8C347.2,192.8,348.5,191,350.6,189.9L350.6,189.9z"/>
<path id="_46617464" inkscape:connector-curvature="0" class="st1" d="M481.8,0c-16.7,0-30.2,13.6-30.2,30.2
	c0,16.8,13.5,30.4,30.2,30.4c16.7,0,30.2-13.6,30.2-30.4C512,13.6,498.5,0,481.8,0L481.8,0z M481.8,4.5c14.2,0,25.8,11.5,25.8,25.8
	c0,14.3-11.6,25.9-25.8,25.9S456,44.5,456,30.2C456,16,467.6,4.5,481.8,4.5z M138.6,12c-1.1,0-2,0.9-2,2v128.5c0,1.1,0.9,2,2,2h18.2
	c1.1,0,2-0.9,2-2V14c0-1.1-0.9-2-2-2C156.7,12,138.6,12,138.6,12z M276.9,12c-1.1,0-2,0.9-2,2v128.4c0,1.1,0.9,2,2,2h18.2
	c1.1,0,2-0.9,2-2v-39.7c0-15.2,8.9-28.1,20.2-28.1c8.2,0,10.6,5.4,10.6,14.4l-0.1,53.3c0,1.1,0.9,2,2,2h18.1c1.1,0,2-0.9,2-2V83.8
	c0-15.1-6.3-27.7-25.8-27.7c-13.4,0-23.3,6.4-28.4,16.2l-0.4-0.2c1.2-5.1,1.6-12.3,1.6-17.6V14.1c0-1.1-0.9-2-2-2L276.9,12L276.9,12
	z M494.1,12.2l-30.5,11v7.5l10.1-3.6v22.8l20.5-7.3L494.1,12.2L494.1,12.2z M52.6,53c-16.7,0-32.8,16.5-41.4,30.3
	c-4,7-9.3,18.1-10.8,29.1c-1.5,11,0.3,22.9,11.2,29.1c16.6,9.5,34.4,1.3,46.8-8.2c1.1-0.8,2.2-1.8,3.5-2.9c3.2-2.7,5.9-5.4,8-7.7
	c0.1-0.1,0.2-0.2,0.3-0.3c2.6-2.7,5.3-5.7,8-8.8l0.3,0.6c9,16.1,20.9,31.7,39,30.3c2.2-0.4,2.1-2.3,2.2-4.6c0-4.6-0.1-14.8-0.1-14.8
	c0.1-1.6-1.2-2.5-3.3-2.7c-1-0.1-2.9-0.1-4-0.6c-4.8-2.4-7.1-6.7-11.1-13.1c-2.6-4.2-5-8.8-7.5-13.5c5.1-6.3,25.2-31.6,25.2-31.6
	c5.6-7.7,2.5-8.2-2.6-8.2L100,55.2c-2.4,0.1-4,1-4.5,1.7c-1.4,1.7-3.6,4.7-5.9,7.7c-2.5,3.3-4.9,6.5-7.3,9.6
	C75.1,62.5,66.7,53,52.6,53L52.6,53z M416.2,53.9c-16.8,0-32.7,16.5-41.3,30.3c-4,7-9.3,18.1-10.8,29.1c-1.5,11,0.3,22.8,11.2,29
	c23,13.1,48-7.5,58.3-18.8c0.7-0.8,1.1-2.7,0.3-4l-9.7-12.4c-1.8-2.1-3.6-2.3-6,0c-6.1,6-9.4,10.9-19.2,15.1
	c-7.2,3.1-11.2,1.5-12.7-0.9c-3.7-6.1,6.7-23,7.9-25.2c8-12.8,16.4-19,21.8-19.2c1.1-0.1,3.2,0.6,5.2,2.6c2,2,4.1,5,6.3,8.7
	c4.6,7.6,9.3,17.5,14.6,26.9c9,16.1,20.5,30.8,38.7,29.4c2.2-0.3,2.1-2.2,2.1-4.5c0-4.6-0.1-14.9-0.1-14.9c0.1-1.6-1.2-2.4-3.3-2.6
	c-1-0.1-2.9-0.1-4-0.6c-4.8-2.4-6.5-5.9-10.5-12.3c-4.2-6.8-7.5-14.9-12-22.9C444,70.2,435,53.9,416.2,53.9L416.2,53.9z M227.5,55.3
	c-13.1,0-22.3,6.1-27.2,16.2H200c0.5-3.3,0.8-7.4,0.8-10.9c0-0.1,0-1.9,0-1.9c0-1.1-0.9-2-2-2h-16.6c-1.1,0-2,0.9-2,2v129.5
	c0,1.1,0.9,2,2,2h18.2c1.1,0,2.1-0.9,2.1-2V186v-41.9c3.7,0.5,6.9,0.7,11.1,0.7c29.9,0,45.6-19,45.6-49.1
	C259.2,70.1,248.1,55.3,227.5,55.3L227.5,55.3z M221.1,73.6c10.1,0,14.8,8.3,14.8,24.5c0,21.4-9.3,29.4-21.8,29.4
	c-4.5,0-8.1-0.5-11.6-1.5v-24C202.5,87.1,209.4,73.6,221.1,73.6L221.1,73.6z M52.5,76c1.1-0.1,3.2,0.6,5.2,2.6c2,2,4.3,4.9,6.5,8.7
	c1.1,1.8,2.2,3.6,3.3,5.6c-4.1,4.9-8.1,9.5-12,13.6c-6,5.9-10.3,10.6-20,14.8c-7.2,3.1-11.2,1.4-12.6-0.9
	c-3.7-6.1,6.7-23.1,7.9-25.3C38.8,82.4,47.2,76.3,52.5,76L52.5,76z"/>
</svg>
