<?xml version="1.0" encoding="utf-8"?>
<!-- Generator: Adobe Illustrator 21.1.0, SVG Export Plug-In . SVG Version: 6.00 Build 0)  -->
<svg version="1.1"
	 id="svg2" xmlns:cc="http://creativecommons.org/ns#" xmlns:dc="http://purl.org/dc/elements/1.1/" xmlns:rdf="http://www.w3.org/1999/02/22-rdf-syntax-ns#" xmlns:svg="http://www.w3.org/2000/svg"
	 xmlns="http://www.w3.org/2000/svg" xmlns:xlink="http://www.w3.org/1999/xlink" x="0px" y="0px" viewBox="0 0 299.2 70"
	 style="enable-background:new 0 0 299.2 70;" xml:space="preserve">
<style type="text/css">
	.st0{fill:url(#path3078_1_);}
	.st1{fill:#001A4B;}
</style>
<g id="layer1" transform="translate(-46.5,-318.96875)">
	
		<linearGradient id="path3078_1_" gradientUnits="userSpaceOnUse" x1="358.3203" y1="-2.1372" x2="386.4844" y2="26.0269" gradientTransform="matrix(1 0 0 -1 -66.5 370.6988)">
		<stop  offset="0" style="stop-color:#001A4B"/>
		<stop  offset="1" style="stop-color:#001A4B;stop-opacity:0"/>
	</linearGradient>
	<path id="path3078" class="st0" d="M310.7,319c-19.3,0-35,15.7-35,35s15.7,35,35,35s35-15.7,35-35S330,319,310.7,319z M310.7,326
		c15.5,0,28,12.5,28,28s-12.5,28-28,28s-28-12.5-28-28S295.2,326,310.7,326z"/>
	<path id="path1910" class="st1" d="M259.8,335.9c-6.1,0-11,4.9-11,11c0,6.1,4.9,11.1,11,11.1c6.1,0,11-5,11-11.1
		C270.8,340.9,265.9,335.9,259.8,335.9z M181.9,337.5v30h5.3v-9.9c0-3.6,2.1-6.6,4.8-6.6c1.9,0,2.5,1.3,2.5,3.4v13.1h5.3v-14.3
		c0-3.6-1.5-6.5-6.1-6.5c-3.2,0-5.5,1.5-6.7,3.8l-0.1,0c0.3-1.2,0.4-2.9,0.4-4.2v-8.8L181.9,337.5L181.9,337.5z M259.8,337.6
		c5.2,0,9.4,4.2,9.4,9.4c0,5.2-4.2,9.4-9.4,9.4c-5.2,0-9.4-4.2-9.4-9.4C250.4,341.8,254.6,337.6,259.8,337.6z M54,339.4l-3.1,0.9
		v6.8h-4.4v2.4h4.4v12.3c0,4.2,1.2,6.1,5.3,6.1c1.3,0,2.7-0.2,3.8-0.4v-2.7c-0.8,0.2-1.9,0.4-2.9,0.4c-2.4,0-3.1-0.9-3.1-4.6v-11h6
		v-2.4h-6V339.4z M264.3,340.4l-11.1,4v2.7l3.7-1.3v8.3l7.4-2.6V340.4z M300,341.3c-1.4,0-2.8,0.1-4.3,0.4c-1.5,0.3-3,0.6-4.5,1.1
		v5.7c1.4-0.9,2.7-1.5,4-2c1.2-0.4,2.4-0.7,3.4-0.7c1.3,0,2.4,0.4,3.3,1.1c0.8,0.7,1.2,1.7,1.2,2.9c0,0.8-0.2,1.6-0.6,2.3
		c-0.4,0.7-1,1.5-1.9,2.2l-9.4,8.3v4.9h18.8v-4.9h-11.4l5.5-4.8c2.3-2,3.8-3.7,4.6-4.9c0.7-1.2,1.1-2.6,1.1-4c0-2.4-0.8-4.3-2.6-5.7
		C305.5,341.9,303.1,341.3,300,341.3z M322.1,341.7l-10.3,15.4v5.7h11.4v4.7h6.3v-4.7h3.7V358h-3.7v-16.3H322.1z M154.7,346.7
		c-5.8,0-8.7,3-8.7,6.5c0,7,8.3,4.9,8.3,8.5c0,1.4-1.3,2.2-3.3,2.2c-1.6,0-3.1-0.3-4.4-0.6l-0.1,4.3c1.3,0.2,2.8,0.4,4.3,0.4
		c5.6,0,9.1-2.7,9.1-6.8c0-6.6-8.4-5.2-8.4-8.5c0-1.3,1-2.1,3-2.1c1.3,0,2.6,0.2,3.8,0.5l0.2-4.2
		C157.2,346.8,155.9,346.7,154.7,346.7z M212.7,346.7c-2.6,0-5.3,0.5-7.3,1.3l0.5,4.4c1.7-1,4.2-1.6,6-1.6c3,0,4,1.1,4,3.3v1.1
		c-7,0-11.8,2.6-11.8,7.5c0,3.3,2.1,5.4,5.8,5.4c3,0,5.5-1.6,6.5-3.9l0.1,0c-0.2,1.1-0.2,2.2-0.2,3.4h5c-0.1-1.7-0.1-3.6-0.1-5.3
		v-8.5C221.1,349.3,219.3,346.7,212.7,346.7L212.7,346.7z M72,346.7c-2.8,0-5.1,0.7-7.1,1.5l0.3,2.7c1.8-1.2,4.3-1.8,6.3-1.8
		c3.5,0,4.7,1.7,4.7,4.8v1.7c-8,0-12.4,3-12.4,7.3c0,3.3,2.3,5,5.6,5c3.5,0,6.1-2.1,7.1-4.7h0.1c-0.2,1.2-0.2,2.7-0.2,4.3h3
		c-0.1-1.8-0.1-4.1-0.1-6.1v-8C79.2,349.5,77.6,346.7,72,346.7z M94.3,346.7c-5.6,0-8.9,3.6-8.9,7.9c0,2.6,1,4.7,3.1,5.9
		c-1.4,0.7-2.3,1.9-2.3,3.3c0,1.3,0.8,2.4,2.1,3c-1.9,1-3.5,2.9-3.5,5.4c0,3.9,3.3,6,8.5,6c6.3,0,10.7-3.2,10.7-7.5
		c0-3.6-2.4-5.8-6.9-5.8h-4c-2.6,0-3.7-0.5-3.7-1.7c0-0.7,0.5-1.5,1.5-1.9c0.7,0.2,1.8,0.3,2.8,0.3c5.9,0,8.9-3.3,8.9-7.7
		c0-1.9-0.8-3.5-2-4.5h3.7v-2.4h-6.9C96.4,346.8,95.5,346.7,94.3,346.7z M116.7,346.7c-5.7,0-9,4.6-9,10.7c0,7.2,3.3,10.5,9.5,10.5
		c2.6,0,4.9-0.4,6.8-1.2l-0.3-2.6c-1.5,0.8-3.8,1.3-5.9,1.3c-4.6,0-7-2.6-6.8-8.7h13.7c0.1-0.6,0.1-1.2,0.1-1.5
		C124.7,350.6,122.3,346.7,116.7,346.7L116.7,346.7z M136.9,346.7c-5.2,0-8,2.6-8,6c0,7.3,9.9,4.2,9.9,9.2c0,2.1-2,3.4-5,3.4
		c-1.6,0-3.3-0.3-4.6-0.7l-0.1,2.8c1.2,0.2,2.8,0.4,4.3,0.4c5.3,0,8.6-2.8,8.6-6.4c0-7-10-4.2-10-9.1c0-2,1.5-3.3,4.5-3.3
		c1.4,0,2.9,0.2,4.2,0.7l0.1-2.7C139.6,346.9,138.2,346.7,136.9,346.7L136.9,346.7z M173.5,346.7c-7.2,0-10.6,4.9-10.6,11.3
		c0,7,3.5,9.9,9.2,9.9c2.2,0,4.2-0.4,5.6-0.9l-0.4-4.5c-1.1,0.6-2.6,0.9-4,0.9c-3.5,0-4.9-2.4-4.9-5.9c0-3.9,1.7-6.3,5-6.3
		c1.3,0,2.6,0.3,3.7,0.8l0.5-4.6C176.4,346.9,174.9,346.7,173.5,346.7z M226.9,347.1v14.4c0,3.6,1.5,6.5,6.1,6.5
		c3.4,0,5.7-1.7,6.9-4.1l0.1,0.1c-0.2,1.1-0.3,2.6-0.3,3.6h4.9v-20.4h-5.3v9.9c0,3.6-2,6.6-4.7,6.6c-2,0-2.6-1.3-2.6-3.4v-13.1
		H226.9z M323.2,347.2V358h-7.3L323.2,347.2z M116.5,349.1c3.1,0,5,2.1,4.9,5.3h-10.4C111.6,351.2,113.6,349.1,116.5,349.1z
		 M93.5,349.1c0.2,0,0.4,0,0.7,0c3.4,0,5.4,1.9,5.4,5.2s-2.2,5.1-5.6,5.1c-3.5,0-5.5-1.8-5.5-5.1C88.5,351.5,90.4,349.4,93.5,349.1z
		 M76.1,358v0.3c0,3.5-2.4,7.1-6,7.1c-2,0-3.3-1.2-3.3-3C66.8,360.4,68.4,358,76.1,358z M215.9,358.5v0.5c0,2.5-1.8,4.9-4.4,4.9
		c-1.5,0-2.4-0.9-2.4-2.2C209.1,360.1,210.3,358.5,215.9,358.5z M90.8,367.6c0.4,0,0.9,0,1.3,0h4.2c3.1,0,4.7,1.3,4.7,3.5
		c0,2.7-2.6,4.6-7.1,4.6c-3.4,0-6-1.4-6-4C87.8,370,89,368.5,90.8,367.6L90.8,367.6z"/>
</g>
</svg>
