<?xml version="1.0" encoding="UTF-8" standalone="no"?>
<!-- Created with Inkscape (http://www.inkscape.org/) -->

<svg
   xmlns:dc="http://purl.org/dc/elements/1.1/"
   xmlns:cc="http://creativecommons.org/ns#"
   xmlns:rdf="http://www.w3.org/1999/02/22-rdf-syntax-ns#"
   xmlns:svg="http://www.w3.org/2000/svg"
   xmlns="http://www.w3.org/2000/svg"
   xmlns:sodipodi="http://sodipodi.sourceforge.net/DTD/sodipodi-0.dtd"
   xmlns:inkscape="http://www.inkscape.org/namespaces/inkscape"
   version="1.0"
   width="512"
   height="288"
   id="svg63728"
   inkscape:version="0.91 r13725"
   sodipodi:docname="Junior-Logo.svg">
  <metadata
     id="metadata41">
    <rdf:RDF>
      <cc:Work
         rdf:about="">
        <dc:format>image/svg+xml</dc:format>
        <dc:type
           rdf:resource="http://purl.org/dc/dcmitype/StillImage" />
        <dc:title></dc:title>
      </cc:Work>
    </rdf:RDF>
  </metadata>
  <sodipodi:namedview
     pagecolor="#ffffff"
     bordercolor="#666666"
     borderopacity="1"
     objecttolerance="10"
     gridtolerance="10"
     guidetolerance="10"
     inkscape:pageopacity="0"
     inkscape:pageshadow="2"
     inkscape:window-width="1498"
     inkscape:window-height="918"
     id="namedview39"
     showgrid="false"
     inkscape:zoom="0.50802809"
     inkscape:cx="356.27951"
     inkscape:cy="297.00352"
     inkscape:window-x="0"
     inkscape:window-y="0"
     inkscape:window-maximized="0"
     inkscape:current-layer="svg63728" />
  <defs
     id="defs63730">
    <clipPath
       id="clp10">
      <path
         d="m 0.5,842.5 595,0 0,-842 -595,0 0,842 z"
         id="path66372"
         inkscape:connector-curvature="0" />
    </clipPath>
    <clipPath
       id="clp9">
      <path
         d="m -1,843 597,0 0,-844 -597,0 0,844 z"
         id="path66366"
         inkscape:connector-curvature="0" />
    </clipPath>
    <clipPath
       id="clp11">
      <path
         d="m 473.94,501.28 59.25,0 0,-50.06 -59.25,0 0,50.06 z"
         id="path66380"
         inkscape:connector-curvature="0" />
    </clipPath>
    <clipPath
       id="clp3">
      <path
         d="m 0.5,842.5 595,0 0,-842 -595,0 0,842 z"
         id="path66260"
         inkscape:connector-curvature="0" />
    </clipPath>
    <clipPath
       id="clp2">
      <path
         d="m -1,843 597,0 0,-844 -597,0 0,844 z"
         id="path66254"
         inkscape:connector-curvature="0" />
    </clipPath>
    <clipPath
       id="clp4">
      <path
         d="m 210.04,244.79 62.96,0 0,-62.96 -62.96,0 0,62.96 z"
         id="path66268"
         inkscape:connector-curvature="0" />
    </clipPath>
    <clipPath
       id="clp5">
      <path
         d="m 210.04,244.79 62.96,0 0,-51.54 -62.96,0 0,51.54 z"
         id="path66276"
         inkscape:connector-curvature="0" />
    </clipPath>
    <clipPath
       id="clp6">
      <path
         d="m 232.71,228.15 c 0,2.97 2.41,5.38 5.39,5.38 2.97,0 5.38,-2.41 5.38,-5.38 0,-2.98 -2.41,-5.39 -5.38,-5.39 -2.98,0 -5.39,2.41 -5.39,5.39"
         id="path66288"
         inkscape:connector-curvature="0" />
    </clipPath>
    <clipPath
       id="clp7">
      <path
         d="m 210.04,244.79 62.96,0 0,-51.54 -62.96,0 0,51.54 z"
         id="path66306"
         inkscape:connector-curvature="0" />
    </clipPath>
    <clipPath
       id="clp8">
      <path
         d="m 210.04,244.79 62.96,0 0,-51.54 -62.96,0 0,51.54 z"
         id="path66356"
         inkscape:connector-curvature="0" />
    </clipPath>
    <clipPath
       id="clp13">
      <path
         d="m 0.5,842.5 595,0 0,-842 -595,0 0,842 z"
         id="path66514"
         inkscape:connector-curvature="0" />
    </clipPath>
    <clipPath
       id="clp12">
      <path
         d="m -1,843 597,0 0,-844 -597,0 0,844 z"
         id="path66508"
         inkscape:connector-curvature="0" />
    </clipPath>
  </defs>
  <g
     transform="matrix(0.71783988,0,0,0.71783988,-3797.0908,893.44872)"
     id="layer1">
    <g
       transform="translate(17.75324,17.66548)"
       id="g74300">
      <path
         d="m 5291.3566,-958.79372 0,-206.64788 c 0,0 1.5562,-96.859 101.4081,-96.859 99.7324,0 473.1595,0 473.1595,0 0,0 102.4857,0.4789 102.4857,96.859 0,96.3798 0,206.64788 0,206.64788 0,0 0.4789,97.6968 -102.4857,97.6968 -102.8453,0 -473.2791,-0.1197 -473.2791,-0.1197 0,0 -101.2885,0.71834 -101.2885,-97.5771"
         style="fill:#fed800;fill-rule:nonzero;stroke:none"
         id="path73193"
         inkscape:connector-curvature="0" />
      <path
         d="m 5660.3536,-1010.9944 c -0.7184,2.7537 -0.2396,3.1129 1.796,3.3522 l 14.2475,1.4368 c 2.0353,0.3592 3.2325,-0.4788 4.789,-3.8313 6.8243,-14.6067 19.8745,-59.2646 -31.8474,-64.6524 -9.0992,-0.9577 -60.3422,-6.5848 -56.5108,68.3641 0.1196,2.5141 1.0776,3.2325 3.3522,2.993 4.4301,-0.3592 25.6215,-2.155 25.6215,-2.155 2.1552,-0.2395 2.8736,-1.796 2.8736,-3.5917 0,-3.2329 -2.7537,-37.5944 25.2623,-36.3971 18.1984,0.838 14.4867,17.3603 10.4161,34.4814"
         style="fill:#304698;fill-rule:nonzero;stroke:none"
         id="path73195"
         inkscape:connector-curvature="0" />
      <path
         d="m 5705.0116,-1003.8109 c -1.9157,0.1197 -2.7537,-1.1972 -2.8734,-2.5141 -0.2395,-6.7047 0.9577,-32.2066 -8.5007,-59.145 -0.838,-2.0353 -0.3592,-3.4721 1.6764,-3.951 l 39.1505,-9.2191 c 1.9157,-0.3592 3.113,0.4791 3.5918,1.0776 3.7114,4.0706 3.1129,40.1085 -12.0925,69.681 -1.0776,2.155 -2.1549,2.2746 -4.1902,2.5142 -0.4792,0 -16.6423,1.5564 -16.7619,1.5564"
         style="fill:#f1661f;fill-rule:nonzero;stroke:none"
         id="path73197"
         inkscape:connector-curvature="0" />
      <path
         d="m 5447.8391,-1120.5443 c 4.5494,-2.155 33.2839,-5.0283 44.2987,-0.9577 1.0777,0.4788 1.1973,1.6761 1.1973,2.1549 -2.6341,36.9956 -27.2976,117.9307 -101.7676,120.80408 -42.2635,1.5565 -59.7435,-17.47998 -59.983,-17.83918 -0.4789,-0.4788 -1.6761,-1.7957 -0.1197,-3.1129 0,0 33.2839,-27.2976 33.2839,-27.2976 0.8381,-0.7185 1.9157,-1.7961 3.3525,-0.5985 0.838,0.5985 22.1494,20.2337 40.9466,17.2404 10.8949,-1.5565 17.9588,-7.4231 24.7831,-21.5506 8.86,-18.0788 12.691,-62.6171 13.1701,-67.2865 0,-0.7184 0.1197,-1.3169 0.8381,-1.5564"
         style="fill:#ea1b22;fill-rule:nonzero;stroke:none"
         id="path73199"
         inkscape:connector-curvature="0" />
      <path
         d="m 5847.127,-1058.1668 c 12.4514,-20.4733 49.2077,-22.3887 60.2223,-19.9942 2.0356,0.5985 2.0356,1.9154 1.6764,3.4719 -0.1199,0 -5.1482,21.6705 -6.5851,26.3399 -0.4788,1.3169 -1.1972,1.9157 -2.0353,1.796 -7.4231,-0.4791 -38.3125,-4.6694 -31.8473,34.96 0.2395,1.9157 -0.1197,2.3945 -1.4366,2.9933 0,0 -16.0434,5.7467 -16.0434,5.7467 -0.7184,0.2396 -1.9157,0.1199 -2.155,-0.7184 -0.1199,0 -14.3673,-34.1219 -1.796,-54.5952"
         style="fill:#015dab;fill-rule:nonzero;stroke:none"
         id="path73201"
         inkscape:connector-curvature="0" />
      <path
         d="m 5835.6333,-1056.73 c -5.0286,-19.7549 -29.2133,-28.2556 -53.9968,-18.9168 -24.9031,9.3388 -40.9465,33.0446 -35.9179,52.7995 5.0286,19.7548 29.3329,28.25528 54.1164,18.9168 24.903,-9.3388 40.9465,-32.925 35.7983,-52.7995 z m -31.0093,26.8188 c -10.1766,5.9863 -21.431,4.0706 -25.2623,-4.1906 -3.951,-8.2611 1.1972,-19.8745 11.374,-25.8608 10.0572,-5.9862 21.431,-4.0709 25.2624,4.1903 3.8313,8.3811 -1.3169,19.9944 -11.3741,25.8611"
         style="fill:#ea368c;fill-rule:evenodd;stroke:none"
         id="path73203"
         inkscape:connector-curvature="0" />
      <path
         d="m 5714.47,-1142.8134 c -8.5007,-10.1768 -28.4949,-8.2611 -44.658,4.5495 -16.1631,12.5713 -22.3889,31.1289 -13.8882,41.3058 8.5004,10.2964 28.3752,8.2611 44.658,-4.4299 16.1631,-12.6909 22.3889,-31.2485 13.8882,-41.4254 z m -15.9235,27.6569 c -7.6627,6.2258 -17.2408,7.4231 -21.4313,2.634 -4.0706,-4.7893 -1.3169,-13.7686 6.2258,-19.9944 7.6627,-6.2259 17.2408,-7.4231 21.431,-2.6341 4.1906,4.789 1.4368,13.7686 -6.2255,19.9945"
         style="fill:#018fd2;fill-rule:evenodd;stroke:none"
         id="path73205"
         inkscape:connector-curvature="0" />
      <path
         d="m 5785.8271,-1183.6403 c -22.9874,-12.571 -48.8485,-11.2541 -57.7082,2.8737 -8.8599,14.2474 2.6338,36.0376 25.7412,48.6089 23.1071,12.5713 48.9681,11.1345 57.8278,-2.9933 8.74,-14.2474 -2.7537,-35.918 -25.8608,-48.4893 z m -6.1062,32.5658 c -4.3102,6.8243 -16.7616,7.4231 -27.7765,1.4368 -11.0148,-6.1062 -16.5223,-16.5223 -12.3317,-23.3469 4.3101,-6.8244 16.7615,-7.4228 27.7764,-1.3169 11.1345,6.1062 16.5223,16.5223 12.3318,23.227"
         style="fill:#018fd2;fill-rule:evenodd;stroke:none"
         id="path73207"
         inkscape:connector-curvature="0" />
      <path
         d="m 5588.6373,-1067.266 c 2.5145,-0.1197 3.1129,0.3592 2.1553,7.1835 -11.853,89.19628 -161.2719,73.15308 -94.3446,-10.1765 2.2749,-2.8737 1.6761,-2.8737 6.1059,-3.1129 7.5428,-0.3592 26.6992,-1.7961 28.8541,-2.0353 1.796,-0.12 2.0356,1.1972 1.6764,1.9153 -36.756,58.0674 30.0513,53.2784 33.7627,9.698 0.2396,-1.796 0.3592,-2.3945 2.6341,-2.3945 0,0 19.1561,-1.0776 19.1561,-1.0776"
         style="fill:#32ad42;fill-rule:nonzero;stroke:none"
         id="path73209"
         inkscape:connector-curvature="0" />
    </g>
  </g>
</svg>
