<?xml version="1.0" encoding="utf-8"?>
<!-- Generator: Adobe Illustrator 21.1.0, SVG Export Plug-In . SVG Version: 6.00 Build 0)  -->
<svg version="1.1"
	 id="svg2985" inkscape:version="0.91 r13725" sodipodi:docname="ZDFinfo_2011.svg" xmlns:cc="http://creativecommons.org/ns#" xmlns:dc="http://purl.org/dc/elements/1.1/" xmlns:inkscape="http://www.inkscape.org/namespaces/inkscape" xmlns:rdf="http://www.w3.org/1999/02/22-rdf-syntax-ns#" xmlns:sodipodi="http://sodipodi.sourceforge.net/DTD/sodipodi-0.dtd" xmlns:svg="http://www.w3.org/2000/svg"
	 xmlns="http://www.w3.org/2000/svg" xmlns:xlink="http://www.w3.org/1999/xlink" x="0px" y="0px" viewBox="0 0 512 149.9"
	 style="enable-background:new 0 0 512 149.9;" xml:space="preserve">
<style type="text/css">
	.st0{fill:#FF7E09;}
	.st1{fill:#FFFFFF;}
</style>
<sodipodi:namedview  bordercolor="#666666" borderopacity="1" gridtolerance="10" guidetolerance="10" id="namedview21" inkscape:current-layer="g4366" inkscape:cx="192.45816" inkscape:cy="72.542285" inkscape:pageopacity="0" inkscape:pageshadow="2" inkscape:window-height="984" inkscape:window-maximized="1" inkscape:window-width="1920" inkscape:window-x="0" inkscape:window-y="0" inkscape:zoom="1.8214286" objecttolerance="10" pagecolor="#ffffff" showgrid="false">
	</sodipodi:namedview>
<g id="g4366" transform="translate(0,124)">
	<g id="g4360" transform="matrix(0.91428571,0,0,0.91428571,0,-53.94286)">
		<path id="path2995" inkscape:connector-curvature="0" class="st0" d="M2.5-24.6h81v17.5L31,48.4h31.5v-18h21v36H0v-17L52.6-6.2H24
			v16.6H2.5"/>
		<path id="path3015" inkscape:connector-curvature="0" class="st0" d="M197,66.4h49v-19h-13v-52h17v-20h-17v-4c0-7.3,0.8-8,7-8
			h11.5v-19H228c-12.5,0-19,7.7-19,19v12h-12.5v20H209v52h-12"/>
		<g id="text3011" transform="matrix(10.418802,0,0,4.5468231,1319.3233,438.74774)">
			<path id="path3042" inkscape:connector-curvature="0" class="st0" d="M-109.8-108.7v22.5h1.2v4.3h-3.6v-2.5
				c-1.2,2.5-1.5,2.5-2.6,2.5c-1.4,0-2.8,0.5-2.8-7.8v-3.9c0-8,1.2-8.3,2.8-8.3c1.5,0,1.7,0.4,2.6,2.2l0-4.7h-1.2l0-4.3H-109.8z
				 M-114.6-97.5c-0.8,0-0.8,1.6-0.8,3.1l0,5.8c0,1.7,0.4,2.3,0.6,2.3l1.3,0c0.4,0,1.2-0.7,1.2-0.7v-9.9c0,0-0.5-0.9-1.3-0.8
				L-114.6-97.5z"/>
		</g>
	</g>
	<g id="g3057" transform="matrix(0.91428571,0,0,0.91428571,0,-53.94286)">
		<path id="rect2997" inkscape:connector-curvature="0" d="M297.7-76.6h241.6c11.5,0,20.7,9.2,20.7,20.7V66.7
			c0,11.5-9.2,20.7-20.7,20.7H297.7c-11.5,0-20.7-9.2-20.7-20.7V43.4l-29-29h29v-70.3C277-67.4,286.2-76.6,297.7-76.6z"/>
		<g id="g3048">
			<g id="g3005">
				<path id="path3000" inkscape:connector-curvature="0" class="st1" d="M303.5-0.1h28v52h9v15h-37l0-15.1l9.5,0.1v-37h-9.5"/>
				<path id="rect3002" inkscape:connector-curvature="0" class="st1" d="M312-24.6h19v16h-19V-24.6z"/>
			</g>
			<path id="path3009" inkscape:connector-curvature="0" class="st1" d="M347.5-0.1h27v8.5c10.9-9.3,13-8.5,20.3-8.5
				c14.9,0,19.2,3.3,19.2,17.5v34.5h9v15h-34.5v-15h7V20.4c0-4.9-1.5-5.9-9-6c-4.1,0-7.5,0.6-12,3v34.5h7v15H347v-15h9V14.4h-8.5"/>
			<path id="rect3017" inkscape:connector-curvature="0" class="st1" d="M489.4-0.1h29.6c8.6,0,15.4,9.7,15.4,21.7v23.6
				c0,12-6.9,21.7-15.4,21.7h-29.6c-8.6,0-15.4-9.7-15.4-21.7V21.6C474,9.6,480.9-0.1,489.4-0.1z"/>
			<path id="rect3020" inkscape:connector-curvature="0" d="M495.8,14.4h16.9c1.8,0,3.3,4.7,3.3,10.4v16.6c0,5.8-1.5,10.4-3.3,10.4
				h-16.9c-1.8,0-3.3-4.7-3.3-10.4V24.8C492.5,19,494,14.4,495.8,14.4z"/>
			<path id="path3015-8" inkscape:connector-curvature="0" class="st1" d="M429.4,66.9H466v-15h-9.5V14.6H469V-0.1h-12.5v-2.9
				c0-5.4,0.5-5.9,5-5.9l8.5,0v-14l-17.8,0c-9.2,0-14,5.6-14,14v8.8H429v14.7h9.2v37.3h-8.8"/>
		</g>
	</g>
</g>
</svg>
