<?xml version="1.0" encoding="utf-8"?>
<!-- Generator: Adobe Illustrator 21.1.0, SVG Export Plug-In . SVG Version: 6.00 Build 0)  -->
<svg version="1.1"
	 id="svg2" inkscape:version="0.91 r13725" sodipodi:docname="Tv.berlin_2009.svg" xmlns:cc="http://creativecommons.org/ns#" xmlns:dc="http://purl.org/dc/elements/1.1/" xmlns:inkscape="http://www.inkscape.org/namespaces/inkscape" xmlns:rdf="http://www.w3.org/1999/02/22-rdf-syntax-ns#" xmlns:sodipodi="http://sodipodi.sourceforge.net/DTD/sodipodi-0.dtd" xmlns:svg="http://www.w3.org/2000/svg"
	 xmlns="http://www.w3.org/2000/svg" xmlns:xlink="http://www.w3.org/1999/xlink" x="0px" y="0px" viewBox="0 0 512 120.5"
	 style="enable-background:new 0 0 512 120.5;" xml:space="preserve">
<style type="text/css">
	.st0{fill:#1A1A1A;}
	.st1{fill:#BA302D;}
</style>
<sodipodi:namedview  bordercolor="#666666" borderopacity="1" gridtolerance="10" guidetolerance="10" id="namedview78" inkscape:current-layer="svg2" inkscape:cx="285.46869" inkscape:cy="67.212624" inkscape:pageopacity="0" inkscape:pageshadow="2" inkscape:window-height="858" inkscape:window-maximized="0" inkscape:window-width="1587" inkscape:window-x="0" inkscape:window-y="0" inkscape:zoom="0.63404502" objecttolerance="10" pagecolor="#ffffff" showgrid="false">
	</sodipodi:namedview>
<g id="layer1" transform="matrix(0.89676609,0,0,0.89676609,410.57956,-14.725572)">
	<g id="g35813">
		<path id="path30909" inkscape:connector-curvature="0" class="st0" d="M-420.1,135.6c-19.9,0-28-14.2-28-26.6V66.6h-9.8V45.6h9.8
			V23.3h27.5v22.3h10.4l6.8,21.1h-17.2V107c0,3.5,1.8,5.5,5.5,5.5h11.9v23.1H-420.1z"/>
		<path id="path30913" inkscape:connector-curvature="0" class="st0" d="M-348.9,135.6h-20.9L-403,45.6h28.8l14.9,46.7l14.7-46.7
			h28.8L-348.9,135.6L-348.9,135.6z"/>
		<path id="path30917" inkscape:connector-curvature="0" class="st1" d="M-256.5,69.3c-10.2,0-11.4,8.2-11.4,21.3
			c0,13.1,1.2,21.3,11.4,21.3c10.2,0,11.4-8.2,11.4-21.3C-245.1,77.5-246.3,69.3-256.5,69.3 M-226,128.4c-5.2,5.2-13.2,8.2-21.9,8.2
			c-9.4,0-15.2-2.8-20.8-8.4v7.4h-26.6V16.4h27.5v35.7c5-5,11.2-7.5,20.1-7.5c8.7,0,16.6,3,21.8,8.2c8.9,8.9,8.4,24.6,8.4,37.8
			C-217.7,103.8-217.2,119.6-226,128.4"/>
		<path id="path30921" inkscape:connector-curvature="0" class="st1" d="M-159.3,74.2c-1.7-3.9-5.4-7-11.9-7c-6.5,0-10.2,3.2-11.9,7
			c-1.2,2.3-1.5,4.9-1.5,7h26.8C-157.8,79-158.1,76.5-159.3,74.2 M-184.6,99.5c0,7.4,5.7,14.1,15.9,14.1c9.5,0,13.7-2.7,18.6-7.5
			l16.4,16.4c-9.2,9.2-18.2,14.2-35,14.2c-19.9,0-42.9-7.2-42.9-46c0-29.5,16.7-46,40.4-46c26.1,0,40.5,19.1,40.5,42.7v12.2
			L-184.6,99.5L-184.6,99.5z"/>
		<path id="path30925" inkscape:connector-curvature="0" class="st1" d="M-75.6,74c-2.7-2.7-5.2-4.7-9.9-4.7
			c-3.7,0-11.1,2.2-11.1,12.4v53.9h-27.5V45.6h26.8v7.4c4-4,11.9-8.4,21.3-8.4c8.9,0,14.9,2.2,21.1,8.4L-75.6,74z"/>
		<path id="path30929" inkscape:connector-curvature="0" class="st1" d="M-24,135.6c-19.9,0-28-14.2-28-26.6V16.4h27.4V107
			c0,3.5,1.9,5.5,5.5,5.5h9.5v23.1H-24z"/>
		<path id="path30931" inkscape:connector-curvature="0" class="st1" d="M-1.4,45.6h27.5v90.1H-1.4C-1.4,135.6-1.4,45.6-1.4,45.6z
			 M-1.4,37.3l-0.1-20.9H26l0.1,20.9C26.1,37.3-1.4,37.3-1.4,37.3z"/>
		<path id="path30935" inkscape:connector-curvature="0" class="st1" d="M85.6,135.6V81.7c0-10.4-7.4-12.4-11.1-12.4
			c-3.7,0-11.1,2-11.1,12.4v53.9H36.1V45.6h26.8v7.4c5.5-5.5,13.7-8.4,20.9-8.4c8.5,0,15.4,2.8,20.3,7.7c7.7,7.7,9,16.2,9,25.8v57.6
			H85.6z"/>
		<path id="path30937" inkscape:connector-curvature="0" class="st1" d="M-335.3,120.7h30.1v30.1h-30.1V120.7z"/>
	</g>
</g>
</svg>
