<svg id="Ebene_1" data-name="Ebene 1" xmlns="http://www.w3.org/2000/svg" viewBox="0 0 418.05 323.63"><defs><style>.cls-1{fill:#00bcf6;}</style></defs><title>Icon_RTLZWEI_azur_rgb</title><path class="cls-1" d="M121.24,392.75c11.8,0,20.43,6.52,20.43,17.94,0,8.63-3.93,15.06-11.89,17.36v.2c4.5,1,7.58,3,9.21,8.25a43,43,0,0,1,1.34,10.07c.38,8.06,1.34,11.61,3.74,14.68H133.9c-1.15-1.24-1.53-3.74-1.63-5.27l-.38-8.16a41.27,41.27,0,0,0-2.11-10.17c-1.44-3.65-4.71-5.66-9.5-5.66H97.73v29.26H88.61v-68.5Zm-4.13,31.56c10.07,0,15.45-3.64,15.45-12.18,0-7.49-4.51-11.71-12-11.71H97.73v23.89Z" transform="translate(-88.61 -137.63)"/><path class="cls-1" d="M198.09,392.75v7.67H175.25v60.83h-9.11V400.42H143.3v-7.67Z" transform="translate(-88.61 -137.63)"/><path class="cls-1" d="M211.93,392.75v60.83H248.2v7.67H202.82v-68.5Z" transform="translate(-88.61 -137.63)"/><path class="cls-1" d="M314.74,392.75V408.1L282.6,443.7h33.68v17.55H255.06v-16.5l31.85-34.45h-30V392.75Z" transform="translate(-88.61 -137.63)"/><path class="cls-1" d="M340.69,392.75,349,435.06h.19l8.26-42.31H376.1l8.06,42.89h.19l8.54-42.89h20.82l-19.19,68.5H374l-7.39-41.73h-.19l-7.2,41.73H338.58L320,392.75Z" transform="translate(-88.61 -137.63)"/><path class="cls-1" d="M475.82,392.75V410.3h-35.6v8.54h32.33v16.32H440.22v8.54h36.65v17.55H419.11v-68.5Z" transform="translate(-88.61 -137.63)"/><path class="cls-1" d="M506.66,392.75v68.5H485.55v-68.5Z" transform="translate(-88.61 -137.63)"/><polygon class="cls-1" points="200.52 69.69 166.51 76.3 166.51 161.34 200.52 154.72 200.52 69.69"/><polygon class="cls-1" points="217.53 66.38 217.53 151.42 251.55 144.81 251.55 59.77 217.53 66.38"/><polygon class="cls-1" points="132.49 34.02 217.53 34.02 217.53 0 98.47 0 98.47 221.1 166.51 221.1 166.51 187.09 132.49 187.09 132.49 34.02"/><polygon class="cls-1" points="251.55 0 251.55 34.02 285.56 34.02 285.56 187.09 200.52 187.09 200.52 221.1 319.58 221.1 319.58 0 251.55 0"/></svg>