<?xml version="1.0" encoding="utf-8"?>
<!-- Generator: Adobe Illustrator 21.1.0, SVG Export Plug-In . SVG Version: 6.00 Build 0)  -->
<svg version="1.1" id="Ebene_1" xmlns="http://www.w3.org/2000/svg" xmlns:xlink="http://www.w3.org/1999/xlink" x="0px" y="0px"
	 viewBox="0 0 1439 346" style="enable-background:new 0 0 1439 346;" xml:space="preserve">
<style type="text/css">
	.st0{fill:#D6153E;}
	.st1{fill:#FFFFFF;}
</style>
<g id="_x23_d6153eff">
	<path class="st0" d="M0,0h1439v346H0V200.1c15.9,34.6,40.4,65.2,70.8,88.1c42.6,32.2,96.9,48.3,150.2,44.7
		c30.9-1.8,61.3-10,88.8-24.1c28.2-14.5,53.3-35,72.9-59.9c35.3-44.1,53.2-101.6,49.8-158c-1.4-16.7-4.4-33.2-9-49.3
		c-2.8-9.5-6-18.9-10.7-27.6c-34.7,7.2-69.9,12.6-105.2,15.4c-4.5,20.1-15.6,38.7-31.5,51.8c-16.5,13.9-37,22.2-58.1,26.2
		c-3,23.8-6.1,47.6-11.3,71c23.5-2.1,46.8-7.2,68.8-15.9c-5.6,16.6-14.6,31.9-25.5,45.6c-6.3,7.7-13.4,14.8-21.5,20.6
		c-24.8,19.4-56.2,30.5-87.7,29.9c-20.2,0.3-40.4-4.5-58.8-12.8c-27.6-12.4-50.8-34.3-65.2-60.9C7,166.6,1.5,146.1,0,125.3V0
		 M518,31.6c0,94.7,0,189.5,0,284.2c296.8,0,593.6,0,890.4,0c0-94.7,0-189.5,0-284.2C1111.6,31.6,814.8,31.6,518,31.6z"/>
	<path class="st0" d="M868.1,90.2c14.8-1.4,30,0.1,43.8,6c17.9,7.3,32.6,21.9,40.1,39.7c7,15.7,8.4,33.3,6.7,50.2
		c-1.9,16.8-8.5,33.3-19.8,46c-12.1,13.6-29.4,22.3-47.4,24.7c-16.5,2.1-33.8,0.6-49-6.4c-14.9-6.6-27.6-18.3-35.2-32.7
		c-9.4-17.5-12.1-38-9.6-57.6c2.1-16.6,8.8-32.8,20.1-45.2C830.7,100.6,849.2,92.1,868.1,90.2 M871.4,130.6
		c-8.2,1.7-15.2,7.5-18.9,14.9c-6,10.7-6.7,23.5-5.9,35.5c0.8,11.8,5.2,24.2,15,31.4c7,4.8,16.2,6.6,24.4,4.1
		c8.3-1.9,15-8.3,18.6-15.9c5.8-10.9,5.9-23.7,5.1-35.7c-1.1-11.9-6-24.6-16.5-31.1C886.6,130.1,878.7,128.7,871.4,130.6z"/>
	<path class="st0" d="M625.8,93.6c28.7,0,57.5,0,86.2,0c17.7,0.5,35.7,7.1,47.7,20.5c11.9,13.1,17.4,30.6,19,47.9
		c1.4,17.4,0,35.5-7.2,51.7c-5.5,12.6-15.2,23.3-27.3,29.8c-14.7,8.2-31.8,10.3-48.3,10.5c-23.4,0-46.8,0-70.2,0
		C625.8,200.5,625.8,147.1,625.8,93.6 M675.4,212.8c11.8-0.5,24.2,1.6,35.3-3.1c8.3-3.4,14.2-11.1,16.8-19.6
		c3.1-10.6,3.4-22.1,0-32.6c-2.8-8.5-9.1-15.9-17.5-19.4c-10.9-4.8-23-3.3-34.5-3.5C675.3,160.7,675.4,186.8,675.4,212.8z"/>
	<path class="st0" d="M982.8,93.6c16.4,0,32.9,0,49.3,0c0,18.5,0,37,0,55.5c14.8-18.5,29.5-36.9,44.2-55.5c20.4-0.1,40.8,0,61.2-0.1
		c-19.5,20.7-38.7,41.8-58.2,62.5c22.6,32.6,45.1,65.2,67.7,97.8c-20.6,0.1-41.1,0.1-61.7,0c-13-20.8-26.2-41.5-39.3-62.2
		c-4.9,4.6-9.2,9.9-13.8,14.8c-0.1,15.8,0,31.6,0,47.4c-16.4,0-32.9,0-49.3,0C982.8,200.5,982.8,147.1,982.8,93.6z"/>
	<path class="st0" d="M1154.4,196.1c0-34.2,0-68.3,0-102.4c16.4,0,32.8,0,49.2,0c0,25.8,0,51.6,0,77.4c0,6.7-0.2,13.4,0.4,20.1
		c0,7.4,1.6,15.5,7,20.8c5.7,5.8,14.5,6.5,22.1,5.4c7.2-0.9,13.1-6.6,15.4-13.3c3-8,2-16.6,2.4-25c0-28.4,0-56.9,0-85.3
		c16.5,0,32.9,0,49.4,0c0,29.5,0,58.9,0,88.3c-0.1,8.6,0.4,17.4-1.1,25.9c-1.8,12.3-6.9,24.7-16.3,33.2c-11.3,10.6-27,14.5-41.9,16
		c-16.3,1.1-33.1,0.8-48.8-4.4c-11.3-3.6-21.6-10.7-28.1-20.7C1157.3,221.4,1154.6,208.6,1154.4,196.1z"/>
</g>
<g id="_x23_ffffffff">
	<path class="st1" d="M307.6,29.5c35.4-2.9,70.5-8.2,105.2-15.4c4.7,8.7,8,18.1,10.7,27.6c4.6,16.1,7.6,32.7,9,49.3
		c3.4,56.3-14.5,113.8-49.8,158c-19.7,24.9-44.7,45.4-72.9,59.9c-27.5,14.1-58,22.4-88.8,24.1c-53.3,3.6-107.6-12.5-150.2-44.7
		c-30.5-22.8-55-53.5-70.8-88.1v-74.8c1.5,20.8,7,41.3,17.1,59.6c14.3,26.7,37.5,48.5,65.2,60.9c18.4,8.2,38.5,13,58.8,12.8
		c31.5,0.6,62.9-10.5,87.7-29.9c8.1-5.8,15.2-12.9,21.5-20.6c10.9-13.7,19.9-29,25.5-45.6c-22,8.7-45.3,13.8-68.8,15.9
		c5.1-23.4,8.2-47.2,11.3-71c21-4,41.6-12.3,58.1-26.2C292.1,68.1,303.2,49.5,307.6,29.5z"/>
	<path class="st1" d="M518,31.6c296.8,0,593.6,0,890.4,0c0,94.7,0,189.5,0,284.2c-296.8,0-593.6,0-890.4,0
		C518,221.1,518,126.4,518,31.6 M868.1,90.2c-19,1.9-37.4,10.5-50.3,24.7c-11.2,12.5-18,28.7-20.1,45.2c-2.6,19.5,0.2,40.1,9.6,57.6
		c7.7,14.4,20.3,26.1,35.2,32.7c15.2,7,32.5,8.5,49,6.4c18-2.4,35.3-11.1,47.4-24.7c11.4-12.7,17.9-29.2,19.8-46
		c1.7-16.9,0.2-34.5-6.7-50.2c-7.5-17.8-22.2-32.4-40.1-39.7C898.2,90.3,882.9,88.8,868.1,90.2 M625.8,93.6c0,53.4,0,106.9,0,160.4
		c23.4,0,46.8,0,70.2,0c16.5-0.2,33.6-2.4,48.3-10.5c12.1-6.5,21.8-17.2,27.3-29.8c7.2-16.1,8.6-34.2,7.2-51.7
		c-1.6-17.3-7.2-34.9-19-47.9c-12-13.4-30.1-20-47.7-20.5C683.3,93.6,654.6,93.6,625.8,93.6 M982.8,93.6c0,53.4,0,106.9,0,160.4
		c16.4,0,32.9,0,49.3,0c0-15.8,0-31.6,0-47.4c4.6-4.9,8.9-10.2,13.8-14.8c13.1,20.7,26.3,41.4,39.3,62.2c20.6,0.1,41.1,0.1,61.7,0
		c-22.5-32.6-45.1-65.2-67.7-97.8c19.5-20.8,38.7-41.8,58.2-62.5c-20.4,0.1-40.8,0-61.2,0.1c-14.7,18.6-29.4,37-44.2,55.5
		c0-18.5,0-37,0-55.5C1015.7,93.6,999.3,93.6,982.8,93.6 M1154.4,196.1c0.2,12.5,2.9,25.3,9.8,36c6.5,10,16.8,17.1,28.1,20.7
		c15.7,5.2,32.4,5.5,48.8,4.4c15-1.5,30.7-5.5,41.9-16c9.4-8.5,14.5-20.8,16.3-33.2c1.6-8.6,1.1-17.3,1.1-25.9c0-29.4,0-58.9,0-88.3
		c-16.5,0-32.9,0-49.4,0c0,28.4,0,56.9,0,85.3c-0.4,8.3,0.6,17-2.4,25c-2.3,6.8-8.2,12.4-15.4,13.3c-7.6,1.1-16.5,0.4-22.1-5.4
		c-5.5-5.4-7-13.4-7-20.8c-0.6-6.7-0.3-13.4-0.4-20.1c0-25.8,0-51.6,0-77.4c-16.4,0-32.8,0-49.2,0
		C1154.4,127.8,1154.4,161.9,1154.4,196.1z"/>
	<path class="st1" d="M871.4,130.6c7.3-1.9,15.2-0.5,21.7,3.2c10.6,6.5,15.4,19.2,16.5,31.1c0.8,12,0.7,24.8-5.1,35.7
		c-3.6,7.5-10.3,13.9-18.6,15.9c-8.2,2.5-17.4,0.7-24.4-4.1c-9.8-7.2-14.1-19.7-15-31.4c-0.8-12-0.2-24.8,5.9-35.5
		C856.2,138.1,863.2,132.3,871.4,130.6z"/>
	<path class="st1" d="M675.4,212.8c0-26.1,0-52.1,0-78.2c11.5,0.3,23.7-1.3,34.5,3.5c8.4,3.5,14.7,10.9,17.5,19.4
		c3.5,10.5,3.1,22.1,0,32.6c-2.5,8.5-8.4,16.2-16.8,19.6C699.5,214.4,687.1,212.4,675.4,212.8z"/>
</g>
</svg>
