<?xml version="1.0" encoding="utf-8"?>
<!-- Generator: Adobe Illustrator 21.1.0, SVG Export Plug-In . SVG Version: 6.00 Build 0)  -->
<svg version="1.1"
	 id="svg2" inkscape:output_extension="org.inkscape.output.svg.inkscape" inkscape:version="0.91 r13725" sodipodi:docname="Eurosport2.svg" sodipodi:version="0.32" xmlns:cc="http://creativecommons.org/ns#" xmlns:dc="http://purl.org/dc/elements/1.1/" xmlns:inkscape="http://www.inkscape.org/namespaces/inkscape" xmlns:rdf="http://www.w3.org/1999/02/22-rdf-syntax-ns#" xmlns:sodipodi="http://sodipodi.sourceforge.net/DTD/sodipodi-0.dtd" xmlns:svg="http://www.w3.org/2000/svg"
	 xmlns="http://www.w3.org/2000/svg" xmlns:xlink="http://www.w3.org/1999/xlink" x="0px" y="0px" viewBox="0 0 512 266.3"
	 style="enable-background:new 0 0 512 266.3;" xml:space="preserve">
<style type="text/css">
	.st0{fill:#ED174C;}
	.st1{fill:#0060AF;}
	.st2{fill:#FFFFFF;}
</style>
<sodipodi:namedview  bordercolor="#666666" borderopacity="1.0" id="base" inkscape:current-layer="layer1" inkscape:cx="118.63675" inkscape:cy="568.30377" inkscape:document-units="px" inkscape:pageopacity="0.0" inkscape:pageshadow="2" inkscape:window-height="950" inkscape:window-maximized="0" inkscape:window-width="1749" inkscape:window-x="-8" inkscape:window-y="0" inkscape:zoom="0.54115914" pagecolor="#ffffff" showgrid="false">
	</sodipodi:namedview>
<g id="layer1" transform="translate(0,-247)" inkscape:groupmode="layer" inkscape:label="Ebene 1">
	<g id="g17656" transform="matrix(0.60723163,0,0,0.60723163,3.1639555,245.14984)">
		<path id="path4490" inkscape:connector-curvature="0" class="st0" d="M717.4,162.7H838l-34.9,120.2H682.5"/>
		<path id="path4492" inkscape:connector-curvature="0" class="st1" d="M241.8,80.8v23.1H271c0,0,0,0,0,0l-29.2,13V140c0,0,0,0,0,0
			l-20.3-14.1L189.8,140c0,0,0,0,0,0v0l19.7-22.4l-19.7-13.6c0,0,0,0,0,0h31.7L241.8,80.8"/>
		<path id="path4494" inkscape:connector-curvature="0" class="st1" d="M154.3,302.8C154.3,302.8,154.3,302.8,154.3,302.8l0.1,23.1
			h29.1c0,0.1,0,0.1,0,0.1l-29.1,12.9V362h-0.1l-20.3-14.1L102.3,362l19.7-22.5L102.3,326c0-0.1,0-0.1,0-0.1c0,0,0,0,0,0h31.7
			L154.3,302.8"/>
		<path id="path4504" inkscape:connector-curvature="0" class="st1" d="M207.6,361.1C207.6,361.1,207.6,361.1,207.6,361.1l0.1,23.1
			h29.2c0,0,0,0,0,0l-29.1,13v23.1h0l-20.3-14.2l-31.7,14.2c0,0,0,0,0,0s0-0.1,0-0.1l19.7-22.3l-19.7-13.7h31.7L207.6,361.1"/>
		<path id="path4506" inkscape:connector-curvature="0" class="st1" d="M302.6,382.4v23.1h29.1c0,0,0,0,0,0c0,0,0,0,0,0l-29.1,13
			v23.1c0,0,0,0,0,0l-20.3-14.1l-31.7,14.1c0,0,0,0,0,0l0-0.1l19.7-22.5l-19.7-13.6c0,0,0,0,0,0c0,0,0,0,0,0h31.7L302.6,382.4"/>
		<path id="path4510" inkscape:connector-curvature="0" class="st1" d="M343.8,26.4C343.8,26.4,343.8,26.4,343.8,26.4
			C343.8,26.4,343.8,26.5,343.8,26.4l0,23.1H373l-29.2,13v23.1c0,0,0,0,0,0l-20.3-14.1l-31.7,14.1c0,0,0,0,0,0l19.8-22.5l-19.8-13.6
			c0,0,0,0,0,0h31.7L343.8,26.4"/>
		<path id="path4512" inkscape:connector-curvature="0" class="st1" d="M450.2,3C450.2,3,450.2,3,450.2,3l0.1,23.1h29.2c0,0,0,0,0,0
			l-29.1,13v23.1c0,0.1,0,0.1-0.1,0.1l-20.3-14.1l-31.7,14.1c0,0.1,0,0,0,0l19.8-22.5l-19.8-13.6c0,0,0,0,0,0h31.7L450.2,3"/>
		<path id="path4514" inkscape:connector-curvature="0" class="st1" d="M543,26.4C543,26.4,543,26.4,543,26.4
			C543,26.4,543,26.5,543,26.4v23.1h29.2l-29.2,13v23.1c0,0,0,0,0,0l-20.3-14.1L491,85.6c0,0,0,0,0,0c0,0,0,0,0,0l19.7-22.5
			L491,49.5c0,0,0,0,0,0s0,0,0,0h31.7L543,26.4"/>
		<path id="path4516" inkscape:connector-curvature="0" class="st1" d="M603.4,80.8C603.4,80.8,603.4,80.8,603.4,80.8l0,23.1h29.1
			c0,0,0,0,0,0l-29.1,13V140c0,0,0,0,0,0l-20.3-14.1L551.4,140c0,0,0,0,0,0v0l19.7-22.4l-19.7-13.6c0,0,0,0,0,0h31.8L603.4,80.8"/>
		<path id="path4518" inkscape:connector-curvature="0" class="st2" d="M345,162.7h372.5l-34.9,120.2H310.1"/>
		<path id="path4520" inkscape:connector-curvature="0" class="st1" d="M29.7,162.7H345l-34.9,120.2H-5.2"/>
		<path id="path4522" inkscape:connector-curvature="0" class="st0" d="M582.9,193.5h12.2c9.8,0,9.5,5.6,7.6,12.1
			c-1.9,6.5-4.8,12.1-14.6,12.1h-12.2L582.9,193.5L582.9,193.5z M605.1,267.7l-5.4-37.5c10.7-4.1,16-13.1,19.3-24.6
			c4.7-15.9,2.8-27.1-19-27.1h-28.9L545,267.7h17.6l10.2-35h8.8l4.6,34.9"/>
		<path id="path4524" inkscape:connector-curvature="0" class="st0" d="M439.9,217.7h-12.2l7.1-24.2H447c9.8,0,9.5,5.6,7.6,12.1
			C452.6,212.2,449.7,217.7,439.9,217.7L439.9,217.7z M452,178.5H423l-26.1,89.2h17.6l10.3-35h11.3c21.8,0,30.1-11.2,34.8-27.1
			C475.6,189.7,473.8,178.5,452,178.5"/>
		<path id="path4526" inkscape:connector-curvature="0" class="st2" d="M273.5,203.6c2.9-9.8,7.7-11.2,14.7-11.2s11.1,1.4,8.2,11.2
			L285,242.6c-2.9,9.9-7.7,11.2-14.7,11.2c-7,0-11.1-1.3-8.2-11.2L273.5,203.6L273.5,203.6z M244.8,241.8
			c-6.4,22,4.1,27.1,21.1,27.1c17,0,30.5-5.1,36.9-27.1l10.9-37.4c6.4-22-4-27.1-21.1-27.1s-30.5,5.1-36.9,27.1"/>
		<path id="path4528" inkscape:connector-curvature="0" class="st2" d="M19.7,267.7l26-89.1h48.1l-4.4,15.1H58.9l-6,20.5h23.3
			l-4.4,15.1H48.5l-6.8,23.4h31.8L69,267.7"/>
		<path id="path4530" inkscape:connector-curvature="0" class="st2" d="M127.6,178.5l-18.6,63.7c-2.5,8.5,0.4,11.5,9,11.5
			c8.5,0,13.4-3.1,15.9-11.5l18.6-63.7h17.5l-19,65.2c-5.7,19.6-19.3,25.1-37.4,25.1s-28.3-5.5-22.6-25.1l19.1-65.2"/>
		<path id="path4532" inkscape:connector-curvature="0" class="st0" d="M386.5,202c-0.5-8.4-3.7-10.6-9.8-10.6
			c-6.2,0-10.4,2.3-12.1,8.4c-4,13.4,33.8,18.6,25.6,46.5c-4.5,15.3-17.4,22.6-35.9,22.6c-14.2,0-23.5-6.1-23.1-23.7l18.4-3.6
			c-1.1,10.8,4.5,13.2,9.7,13.2c6.2,0,11.6-2.6,13.5-9.3c4.9-16.8-33-21.2-25.7-46.1c4.5-15.3,15.9-22.1,34.1-22.1
			c15.7,0,23,7.6,22.4,20.2"/>
		<path id="path4534" inkscape:connector-curvature="0" class="st0" d="M502,203.6c2.9-9.8,7.7-11.2,14.7-11.2c7,0,11,1.4,8.2,11.2
			l-11.4,39.1c-2.9,9.9-7.7,11.2-14.7,11.2s-11.1-1.3-8.2-11.2L502,203.6L502,203.6z M473.3,241.8c-6.4,22,4.1,27.1,21.1,27.1
			c17,0,30.5-5.1,36.9-27.1l10.9-37.4c6.4-22-4.1-27.1-21.1-27.1c-17,0-30.5,5.1-36.9,27.1"/>
		<path id="path4536" inkscape:connector-curvature="0" class="st0" d="M697.1,178.5l-4.4,15.1h-20.5l-21.6,74.1H633l21.6-74.1
			h-20.5l4.4-15.1"/>
		<path id="path4538" inkscape:connector-curvature="0" class="st2" d="M200.8,193.5H213c9.8,0,9.5,5.6,7.6,12.1
			c-1.9,6.5-4.8,12.1-14.6,12.1h-12.2L200.8,193.5z M223,267.7l-5.4-37.5c10.8-4.1,16-13.1,19.4-24.6c4.7-15.9,2.9-27.1-19-27.1h-29
			l-26.1,89.2h17.6l10.3-35h8.8l4.6,34.9"/>
		<path id="path4540" inkscape:connector-curvature="0" class="st2" d="M790.4,244.4l-4,14h-73.9c14.2-43,62.9-32.3,67.9-50
			c1.7-6-2.2-10.1-10.9-10.1c-8.1,0-17.1,3.3-21.1,13.5h-20.7c6.8-20.6,25.3-27,45-27c26.1,0,31.7,12.3,28.4,23.9
			c-4.1,14.2-16.6,18.8-38.1,24.9l-9.1,2.6c-4.9,1.6-11.1,3.9-15.5,8.2"/>
		<path id="path4542" inkscape:connector-curvature="0" class="st1" d="M408.9,366.5L408.9,366.5C409,366.5,409,366.6,408.9,366.5
			l0,23.1h29.2c0,0,0,0,0,0l-29.1,13v23.1c0,0.1,0,0.1,0,0.1l-20.3-14.1l-31.7,14.1c0,0,0,0,0-0.1c0,0,0,0,0,0l19.7-22.4l-19.7-13.6
			h0c0,0,0,0,0,0h31.7L408.9,366.5"/>
		<path id="path4544" inkscape:connector-curvature="0" class="st1" d="M514.5,309.5C514.5,309.5,514.5,309.5,514.5,309.5l0,23.1
			h29.2c0,0.1,0,0.1,0,0.1l-29.2,12.9v23.1h0l-20.3-14.1l-31.7,14.1h-0.1c0,0,0,0,0.1,0l19.7-22.5l-19.8-13.6c0-0.1,0-0.1,0-0.1
			c0,0,0,0,0.1,0h31.7L514.5,309.5"/>
	</g>
</g>
</svg>
