<?xml version="1.0" encoding="utf-8"?>
<!-- Generator: Adobe Illustrator 21.1.0, SVG Export Plug-In . SVG Version: 6.00 Build 0)  -->
<svg version="1.1" id="svg6280" xmlns:svg="http://www.w3.org/2000/svg"
	 xmlns="http://www.w3.org/2000/svg" xmlns:xlink="http://www.w3.org/1999/xlink" x="0px" y="0px" viewBox="0 0 207.6 56.6"
	 style="enable-background:new 0 0 207.6 56.6;" xml:space="preserve">
<style type="text/css">
	.st0{fill:#191A21;}
	.st1{fill:url(#path1680_1_);}
	.st2{fill:url(#path1708_1_);}
	.st3{fill:url(#path1736_1_);}
</style>
<g id="layer1" transform="translate(-451.50862,-183.07993)">
	<g id="g6194" transform="matrix(1.25,0,0,-1.25,-50.386472,288.24343)">
		<path id="path1564" class="st0" d="M404.1,45h0.2c1,0,1.7,0.3,1.7,1.4c0,1.2-0.7,1.4-1.7,1.4h-0.2V45z M408.7,39.9h-2.2l-2.3,3.8
			h0v-3.8h-1.8v9.4h2.5c1.9,0,3.1-0.8,3.1-2.8c0-1.2-0.7-2.4-1.9-2.6L408.7,39.9L408.7,39.9z"/>
		<path id="path1568" class="st0" d="M415.1,45.6v3.7h1.8v-9.4h-1.8v4.2h-3.4v-4.2h-1.8v9.4h1.8v-3.7H415.1z"/>
		<path id="path1572" class="st0" d="M420.7,47.7v-2.1h2.9v-1.6h-2.9v-2.5h3v-1.6h-4.9v9.4h4.9v-1.6
			C423.8,47.7,420.7,47.7,420.7,47.7z"/>
		<path id="path1574" class="st0" d="M427.4,39.9h-1.8v9.4h1.8V39.9z"/>
		<path id="path1578" class="st0" d="M429.4,49.6h1.3l4.9-6.6h0v6.3h1.8v-9.6h-1.3l-4.9,6.6h0v-6.4h-1.8
			C429.4,39.9,429.4,49.6,429.4,49.6z"/>
		<path id="path1580" class="st0" d="M442.4,43.2h-3v1.4h3V43.2z"/>
		<path id="path1584" class="st0" d="M444.2,49.6h1.3l4.9-6.6h0v6.3h1.8v-9.6H451l-4.9,6.6h0v-6.4h-1.8
			C444.2,39.9,444.2,49.6,444.2,49.6z"/>
		<path id="path1588" class="st0" d="M456.1,47.7v-2.1h2.9v-1.6h-2.9v-2.5h3v-1.6h-4.9v9.4h4.9v-1.6
			C459.1,47.7,456.1,47.7,456.1,47.7z"/>
		<path id="path1592" class="st0" d="M467.3,46.8c-0.5,0.6-1.3,1-2.1,1c-1.8,0-2.8-1.6-2.8-3.2c0-1.6,1-3.2,2.8-3.2
			c0.8,0,1.6,0.4,2.1,1v-2.2c-0.7-0.3-1.4-0.6-2.1-0.6c-2.6,0-4.6,2.3-4.6,4.9c0,2.7,1.9,5,4.6,5c0.7,0,1.5-0.2,2.1-0.5
			C467.3,49,467.3,46.8,467.3,46.8z"/>
		<path id="path1596" class="st0" d="M473.9,49.3h2.3l-3.6-4.3l3.8-5.1H474l-3,4.2h0v-4.2h-1.8v9.4h1.8v-4h0L473.9,49.3L473.9,49.3z
			"/>
		<path id="path1600" class="st0" d="M480.9,46.8L480.9,46.8l-1.1-3.4h2.2L480.9,46.8L480.9,46.8z M479.4,41.9l-0.8-2h-1.9l3.7,9.6
			h1.4l3.6-9.6h-2l-0.7,2H479.4z"/>
		<path id="path1604" class="st0" d="M488.3,45h0.2c1,0,1.7,0.3,1.7,1.4c0,1.2-0.7,1.4-1.7,1.4h-0.2V45z M492.8,39.9h-2.2l-2.3,3.8
			h0v-3.8h-1.8v9.4h2.5c1.9,0,3.1-0.8,3.1-2.8c0-1.2-0.7-2.4-1.9-2.6L492.8,39.9L492.8,39.9z"/>
		<path id="path1608" class="st0" d="M500.1,47.7v-2.1h2.7v-1.6h-2.7v-4.1h-1.8v9.4h4.7v-1.6C502.9,47.7,500.1,47.7,500.1,47.7z"/>
		<path id="path1612" class="st0" d="M506.5,47.7v-2.1h2.9v-1.6h-2.9v-2.5h3v-1.6h-4.9v9.4h4.9v-1.6
			C509.5,47.7,506.5,47.7,506.5,47.7z"/>
		<path id="path1616" class="st0" d="M513.2,45h0.2c1,0,1.7,0.3,1.7,1.4c0,1.2-0.7,1.4-1.7,1.4h-0.2V45z M517.7,39.9h-2.2l-2.3,3.8
			h0v-3.8h-1.8v9.4h2.5c1.9,0,3.1-0.8,3.1-2.8c0-1.2-0.7-2.4-1.9-2.6L517.7,39.9L517.7,39.9z"/>
		<path id="path1620" class="st0" d="M519,49.6h1.3l4.9-6.6h0v6.3h1.8v-9.6h-1.3l-4.9,6.6h0v-6.4H519C519,39.9,519,49.6,519,49.6z"
			/>
		<path id="path1624" class="st0" d="M533.5,47.3c-0.3,0.5-0.8,0.8-1.4,0.8c-0.6,0-1.1-0.4-1.1-1.1c0-1.6,3.7-0.9,3.7-4.1
			c0-1.9-1.2-3.2-3.1-3.2c-1.3,0-2.2,0.7-2.9,1.8l1.2,1.2c0.2-0.7,0.9-1.4,1.7-1.4c0.7,0,1.2,0.6,1.2,1.4c0,1-0.9,1.2-1.6,1.5
			c-1.2,0.5-2.1,1.1-2.1,2.6c0,1.6,1.2,2.8,2.7,2.8c0.8,0,2-0.4,2.6-1L533.5,47.3L533.5,47.3z"/>
		<path id="path1628" class="st0" d="M538,47.7v-2.1h2.9v-1.6H538v-2.5h3v-1.6h-4.9v9.4h4.9v-1.6C541.1,47.7,538,47.7,538,47.7z"/>
		<path id="path1632" class="st0" d="M548.1,45.6v3.7h1.8v-9.4h-1.8v4.2h-3.4v-4.2h-1.8v9.4h1.8v-3.7H548.1z"/>
		<path id="path1636" class="st0" d="M553.8,47.7v-2.1h2.9v-1.6h-2.9v-2.5h3v-1.6h-4.9v9.4h4.9v-1.6
			C556.8,47.7,553.8,47.7,553.8,47.7z"/>
		<path id="path1640" class="st0" d="M558.6,49.6h1.3l4.9-6.6h0v6.3h1.8v-9.6h-1.3l-4.9,6.6h0v-6.4h-1.8
			C558.6,39.9,558.6,49.6,558.6,49.6z"/>
		<path id="path1644" class="st0" d="M467.6,77v-4.8h12.8v-6.4h-12.8V54.5h-7.5v28.8h21.3V77L467.6,77L467.6,77z"/>
		<path id="path1648" class="st0" d="M428.5,83.3h7.5l11.2-17.7h0.1v17.7h7.5V54.5h-7.5l-11.2,17.7H436V54.5h-7.5V83.3z"/>
		<path id="path1652" class="st0" d="M409.8,70.4h0.7c2.4,0,5.2,0.5,5.2,3.6s-2.8,3.6-5.2,3.6h-0.7V70.4z M426.3,54.5H417l-7.1,11.1
			h-0.1V54.5h-7.5v28.8h11.2c5.7,0,10-2.7,10-8.9c0-4-2.2-7.4-6.3-8.2L426.3,54.5L426.3,54.5z"/>
		
			<radialGradient id="path1680_1_" cx="428.3715" cy="4.7046" r="1" gradientTransform="matrix(0 -73.7762 -73.7762 0 919.1781 31693.7461)" gradientUnits="userSpaceOnUse">
			<stop  offset="0" style="stop-color:#FFFFFF"/>
			<stop  offset="0.6" style="stop-color:#191A21"/>
			<stop  offset="1" style="stop-color:#191A21"/>
		</radialGradient>
		<path id="path1680" class="st1" d="M541.2,81V56.8c0-2.1,1.5-3,3.3-1.9l0,0L565.4,67c1.8,1.1,1.8,2.8,0,3.8l0,0l-20.9,12.1
			c-0.5,0.3-1,0.4-1.5,0.4l0,0C541.9,83.3,541.2,82.5,541.2,81"/>
		
			<radialGradient id="path1708_1_" cx="428.3715" cy="4.7046" r="1" gradientTransform="matrix(0 -73.7769 -73.7769 0 891.8483 31694.0156)" gradientUnits="userSpaceOnUse">
			<stop  offset="0" style="stop-color:#FFFFFF"/>
			<stop  offset="0.6" style="stop-color:#355AB1"/>
			<stop  offset="1" style="stop-color:#355AB1"/>
		</radialGradient>
		<path id="path1708" class="st2" d="M513.8,81V56.8c0-2.1,1.5-3,3.3-1.9l0,0L538.1,67c1.8,1.1,1.8,2.8,0,3.8l0,0l-20.9,12.1
			c-0.5,0.3-1,0.4-1.5,0.4l0,0C514.6,83.3,513.8,82.5,513.8,81"/>
		
			<radialGradient id="path1736_1_" cx="428.3715" cy="4.7046" r="1" gradientTransform="matrix(0 -73.7764 -73.7764 0 864.5145 31693.8047)" gradientUnits="userSpaceOnUse">
			<stop  offset="0" style="stop-color:#FFFFFF"/>
			<stop  offset="0.6" style="stop-color:#EE262C"/>
			<stop  offset="1" style="stop-color:#EE262C"/>
		</radialGradient>
		<path id="path1736" class="st3" d="M486.5,81V56.8c0-2.1,1.5-3,3.3-1.9l0,0L510.7,67c1.8,1.1,1.8,2.8,0,3.8l0,0l-20.9,12.1
			c-0.5,0.3-1,0.4-1.5,0.4l0,0C487.3,83.3,486.5,82.5,486.5,81"/>
	</g>
</g>
</svg>
