<?xml version="1.0" encoding="utf-8"?>
<!-- Generator: Adobe Illustrator 21.1.0, SVG Export Plug-In . SVG Version: 6.00 Build 0)  -->
<svg version="1.1"
	 id="svg2" inkscape:output_extension="org.inkscape.output.svg.inkscape" inkscape:version="0.91 r13725" sodipodi:docname="ATV.svg" sodipodi:version="0.32" xmlns:cc="http://creativecommons.org/ns#" xmlns:dc="http://purl.org/dc/elements/1.1/" xmlns:inkscape="http://www.inkscape.org/namespaces/inkscape" xmlns:rdf="http://www.w3.org/1999/02/22-rdf-syntax-ns#" xmlns:sodipodi="http://sodipodi.sourceforge.net/DTD/sodipodi-0.dtd" xmlns:svg="http://www.w3.org/2000/svg"
	 xmlns="http://www.w3.org/2000/svg" xmlns:xlink="http://www.w3.org/1999/xlink" x="0px" y="0px" viewBox="0 0 512 191.6"
	 style="enable-background:new 0 0 512 191.6;" xml:space="preserve">
<style type="text/css">
	.st0{fill:#DC181D;}
</style>
<sodipodi:namedview  bordercolor="#666666" borderopacity="1.0" id="base" inkscape:current-layer="layer1" inkscape:cx="304.14283" inkscape:cy="398.56246" inkscape:document-units="px" inkscape:pageopacity="0.0" inkscape:pageshadow="2" inkscape:window-height="946" inkscape:window-maximized="0" inkscape:window-width="1413" inkscape:window-x="-8" inkscape:window-y="0" inkscape:zoom="0.5" pagecolor="#ffffff" showgrid="false">
	</sodipodi:namedview>
<g id="layer1" transform="translate(0,-97)" inkscape:groupmode="layer" inkscape:label="Ebene 1">
	<g id="g3761" transform="matrix(3.8876235,0,0,3.8876235,-2003.5599,-279.20888)">
		<path id="path2982" inkscape:connector-curvature="0" class="st0" d="M532.8,101.2l-16.6,33.4c-1.9,3.9-0.3,8.7,3.6,10.6
			c3.9,1.9,8.7,0.3,10.6-3.6c0,0,4.8-10.7,9.4-20c4.6,9.3,9.4,20,9.4,20c1.9,3.9,6.7,5.5,10.6,3.6c3.9-1.9,5.5-6.7,3.6-10.6
			L547,101.2c-1.3-2.7-4.1-4.4-7.1-4.4C536.8,96.8,534.1,98.5,532.8,101.2"/>
		<path id="path2984" inkscape:connector-curvature="0" d="M642.7,97.6c-3.9-1.9-8.7-0.3-10.6,3.6c0,0-4.8,10.7-9.5,20
			c-4.6-9.3-9.4-20-9.4-20c-1.4-2.8-4.3-4.5-7.3-4.4c0,0,0,0,0,0h-43.1c-4.3,0-7.9,3.5-7.9,7.9s3.5,7.9,7.9,7.9h12.1v25.6
			c0,4.4,3.5,7.9,7.9,7.9c4.4,0,7.9-3.5,7.9-7.9v-25.6h10.4l14.4,29.1c1.3,2.7,4.1,4.4,7.1,4.4c3,0,5.8-1.7,7.1-4.4l16.6-33.4
			C648.2,104.3,646.6,99.5,642.7,97.6"/>
	</g>
</g>
</svg>
