<?xml version="1.0" encoding="utf-8"?>
<!-- Generator: Adobe Illustrator 21.1.0, SVG Export Plug-In . SVG Version: 6.00 Build 0)  -->
<svg version="1.1" id="Ebene_1" xmlns="http://www.w3.org/2000/svg" xmlns:xlink="http://www.w3.org/1999/xlink" x="0px" y="0px"
	 viewBox="0 0 512 179.3" style="enable-background:new 0 0 512 179.3;" xml:space="preserve">
<style type="text/css">
	.st0{fill:#003A5A;}
	.st1{fill:#FFFFFF;}
</style>
<g>
	<rect class="st0" width="512" height="179.3"/>
	<g>
		<polygon class="st1" points="396.9,137.9 396.9,63.3 369,63.3 369,41.4 449.2,41.4 449.2,63.3 421.4,63.3 421.4,137.9 		"/>
		<polygon class="st1" points="317.2,137.9 317.2,41.4 341.8,41.4 341.8,116 382.3,116 382.3,137.9 		"/>
		<g>
			<path class="st1" d="M237.9,79.7c2.6-12.2,9.7-18.3,21-18.3c10.7,0,17.7,6.3,20.3,18.3l0.1,0.6h-41.5L237.9,79.7z M285,109.5
				c-6.7,5.7-14.7,8.7-23.2,8.7c-12.9,0-21.2-6.6-24-19l-0.1-0.6h66.8c0-0.1,0-0.2,0.1-0.4c0.3-2.2,0.5-5.7,0.5-8.7
				c-0.1-30-18.6-50.2-46-50.2c-28.6,0-47.8,20.3-47.8,50.6c0,29.9,19.7,50,49.1,50c16.7,0,29.3-4.4,39.7-14l0.3-0.3l-15-16.5
				L285,109.5z"/>
		</g>
		<polygon class="st1" points="154.8,137.9 137,76.9 119.1,137.9 89.9,137.9 62.8,41.4 88.1,41.4 105.6,109.2 124,41.4 150.2,41.4 
			168.6,109.3 186.2,41.4 211.1,41.4 184,137.9 		"/>
	</g>
</g>
</svg>
