<?xml version="1.0" encoding="utf-8"?>
<!-- Generator: Adobe Illustrator 21.1.0, SVG Export Plug-In . SVG Version: 6.00 Build 0)  -->
<svg version="1.1" id="Layer_1" xmlns="http://www.w3.org/2000/svg" xmlns:xlink="http://www.w3.org/1999/xlink" x="0px" y="0px"
	 viewBox="0 0 771.5 273.9" style="enable-background:new 0 0 771.5 273.9;" xml:space="preserve">
<style type="text/css">
	.st0{fill:#E73636;}
	.st1{fill:#2A2A2A;}
	.st2{fill:#FDE84D;}
</style>
<g>
	<path class="st0" d="M382.7,150.7c2.2-1.1,4.4-2.4,6.7-3.3c4.4-1.7,9-2.7,13.7-3c3-0.2,6-0.1,9,0.2c9,1,17.3,4.1,23.9,10.6
		c4.2,4.2,7.2,9.2,9.4,14.8c1.9,5,3,10.3,3.6,15.6c0.4,3.3,0.5,6.6,0.5,9.9c0,24.2,0,48.5,0,72.7c0,3.2,0.3,2.8-2.8,2.8
		c-18.2,0-36.4,0-54.7,0c-3,0-2.7,0.3-2.7-2.7c0-15.8,0-31.6,0-47.4c0-2.6-0.1-5.3-0.4-7.9c-0.2-1.5-0.5-3-1.1-4.5
		c-1.3-3.4-3.8-5.3-7.4-5.7c-1.6-0.2-3.2-0.1-4.8,0.5c-2,0.7-3.4,1.9-4.5,3.7c-0.9,1.6-1.4,3.3-1.6,5c-0.3,2-0.5,3.9-0.5,5.9
		c0,16.8,0,33.6,0,50.5c0,3,0.3,2.6-2.5,2.6c-18.4,0-36.7,0-55.1,0c-2.7,0-2.5,0.3-2.5-2.5c0-39.6,0-79.2,0-118.8c0-0.5,0-1,0-1.5
		c0-0.8,0.2-1,1.1-1c0.4,0,0.7,0,1.1,0c17.4,0,34.8,0,52.2,0c0.4,0,0.9,0,1.3,0c0,0.9-0.2,1.7-0.3,2.6c-0.7,3.9-1.2,7.8-1.1,11.8
		c0,1,0.1,2,0.4,3c0.9,3.5,2.8,6.3,5.4,8.6c1.1,0.9,2.3,1.6,3.6,2.1c0.6,0.2,1.3,0.4,1.9,0.4c0.7,0,1.3-0.3,1.6-1
		c0.3-0.8,0.6-1.7,0.8-2.5c0.4-2,0.8-4,1.1-6.1c0.9-5.2,2.8-10.2,4.3-15.2C382.4,150.9,382.6,150.8,382.7,150.7z"/>
	<path class="st0" d="M304.7,185.3c0,11.3,0.1,22.6,0,33.9c-0.1,11.4-3.6,21.8-10.7,30.8c-4.8,6-10.7,10.7-17.5,14.2
		c-7.8,4.1-16.1,6.7-24.8,8.1c-7.5,1.2-15,1.6-22.6,1.2c-10.5-0.5-20.7-2.5-30.4-6.7c-7.7-3.3-14.7-7.7-20.4-13.9
		c-6.7-7.2-10.8-15.7-12.5-25.3c-0.7-3.9-0.9-7.9-0.9-11.8c0-22.1,0-44.2,0-66.3c0-2.6-0.2-2.4,2.4-2.4c18.3,0,36.6,0,54.9,0
		c2.6,0,2.4-0.3,2.4,2.5c0,17.8,0,35.6,0,53.3c0,2.6,0.2,5.1,0.3,7.7c0.1,1.3,0.4,2.6,0.8,3.9c1,3,3,4.8,6.1,5.5
		c2.2,0.5,4.4,0.5,6.5-0.1c2.7-0.7,4.5-2.4,5.5-4.9c0.9-2.2,1-4.6,1.2-6.9c0-0.6,0-1.2,0-1.8c0-18.8,0-37.6,0-56.4
		c0-3.1-0.3-2.7,2.7-2.7c18.1,0,36.3,0,54.4,0c0.5,0,1,0,1.5,0c0.9,0,1,0.2,1,1.1c0,0.6,0,1.2,0,1.8
		C304.7,161.8,304.7,173.6,304.7,185.3z"/>
	<path class="st0" d="M593.3,273.8c-14.7,0-26.9-2.2-38.4-7.1c-7.6-3.2-14.5-7.5-20.5-13.1c-8.6-8-14.2-17.7-16.7-29.1
		c-1.2-5.4-1.6-10.9-1.4-16.4c0.2-7,1.3-13.7,3.6-20.3c2.6-7.6,6.6-14.4,12-20.3c7.1-7.8,15.8-13.3,25.6-17.1c6.4-2.5,13-4,19.8-5
		c4.6-0.7,9.2-1,13.8-1c4.6,0,9.2,0.3,13.8,1c5.5,0.8,10.8,1.9,16.1,3.6c9.5,3.1,18.2,7.8,25.7,14.6c9.7,8.9,15.7,19.8,18.3,32.7
		c1.3,6.4,1.7,12.8,1.2,19.3c-1,14.1-6.3,26.3-16.3,36.4c-7,7.1-15.3,12.1-24.4,15.7c-5.8,2.3-11.8,3.9-18,4.9
		C602,273.4,596.6,273.9,593.3,273.8z M591.1,191.6c-6.5,0.1-11.4,3.1-14.5,9.1c-1.7,3.3-2.4,6.8-2.1,10.4c0.5,5.4,2.9,9.8,7.5,12.8
		c3,2,6.3,2.8,9.8,2.7c5.8-0.3,10.5-2.8,13.5-7.8c3.9-6.5,3.4-13.2-0.4-19.6C601.9,194.2,597.2,191.7,591.1,191.6z"/>
	<path class="st0" d="M160.9,115c0,0.7,0.1,1.5,0.1,2.2c0,32.5,0,65.1,0,97.6c0,10.8-2.6,21-8,30.3c-6.5,11.1-15.9,18.9-27.8,23.7
		c-6,2.4-12.3,4-18.8,4.6c-18,1.7-35.1-1.3-51.3-9.4c-6-3-11.5-6.8-16.4-11.4c-2-1.9-1.9-1.4-0.6-3.6c8.7-15.7,17.3-31.3,26-47
		c0.3-0.6,0.7-1.1,1-1.7c0.8,0.3,0.9,1,1.1,1.6c1,2,2.2,3.8,3.8,5.4c2.4,2.4,5.4,3.8,8.7,4.4c3.2,0.6,6.4,0.3,9.6-0.5
		c1.1-0.3,2.2-0.7,3.3-1.2c4.4-2.2,6.7-5.8,6.8-10.7c0-0.7,0-1.5,0-2.2c0-21.7,0-43.5,0-65.2c2-0.1,3.9,0.2,5.9,0.3
		c4.8,0.3,9.7,0.1,14.5-0.4c5.3-0.5,10.6-1.5,15.7-3c7-2,13.7-4.9,19.8-8.8C156.6,118.4,158.7,116.7,160.9,115z"/>
	<path class="st0" d="M728.6,162.7c1-1.3,1.9-2.6,2.9-3.8c6-7.5,13.8-11.9,23.2-13.6c4.9-0.8,9.9-1.1,14.9-1.1c0.4,0,0.7,0,1.1,0
		c0.4,0,0.7,0.3,0.7,0.7c0,0.4,0,0.9,0,1.3c0,17.9,0,35.8,0,53.8c0,0.5,0,1,0,1.5c-0.6,0.4-1.1,0-1.5-0.2c-3.1-1.4-6.3-2.4-9.7-2.8
		c-4.8-0.5-9.5-0.5-14.2,1c-8.1,2.6-13.3,8.1-15.5,16.3c-0.7,2.6-1,5.2-1,7.8c0,14.8,0,29.7,0,44.5c0,3.2,0.4,2.9-2.8,2.9
		c-18.3,0-36.6,0-54.9,0c-2.9,0-2.6,0.3-2.6-2.6c0-39.5,0-79,0-118.6c0-3-0.3-2.7,2.8-2.7c17.9,0,35.7,0,53.6,0
		c2.7,0,2.5-0.3,2.5,2.4c0,3.6,0,7.2,0,10.8c0,0.7,0,1.4,0,2.2C728.4,162.7,728.5,162.7,728.6,162.7z"/>
	<path class="st1" d="M160.9,115c-2.2,1.6-4.2,3.4-6.5,4.8c-6.1,4-12.8,6.8-19.8,8.8c-5.2,1.5-10.4,2.4-15.7,3
		c-4.8,0.5-9.6,0.8-14.5,0.4c-2-0.1-3.9-0.4-5.9-0.3c-1.4-0.5-2.9-0.4-4.3-0.6c-3.4-0.5-6.8-1.1-10.2-2c-0.8-0.2-1.1-0.1-1.2,0.8
		c-0.2,1-0.5,2-0.9,2.9c-1.2,2.5-3.2,3.8-5.9,3.8c-0.7,0-1.3,0-2,0c-2.4-0.2-4.3-1.3-5.6-3.5c-0.9-1.5-1.3-3.1-1.6-4.8
		c-0.2-1.4-0.4-2.9-0.5-4.4c0-0.6-0.3-0.9-0.8-1.2c-2.6-1.3-5.3-2.5-7.9-3.9c-7.2-3.9-13.9-8.5-19.9-14.1c-2.8-2.6-5.5-5.3-7.8-8.4
		c-1-1.4-2-2.8-2.7-4.3c-0.4-0.8-0.8-1.6-1.1-2.4c-0.9-2.5-0.6-4.9,1-7.1c1-1.4,2.2-2.6,3.5-3.6c2.7-2.2,5.8-3.8,8.9-5.2
		c6.6-3,13.5-5,20.5-6.5c1.9-0.4,3.8-0.7,5.6-1c0.6-0.1,0.9-0.4,1-1c0-0.7,0.1-1.5,0.1-2.2c0.3-6.2,0.8-12.3,2.2-18.3
		c0.3-1.4,0.8-2.8,1.3-4.2c0.3-0.8,0.8-1.6,1.4-2.2c1.1-1.2,2.4-1.3,3.8-0.5c0.8,0.5,1.4,1.3,1.9,2.1c0.8,1.4,1.4,2.9,1.8,4.5
		c0.9,3,1.4,6.2,1.7,9.3c0.3,3.3,0.5,6.6,0.8,9.9c0.1,1.1,0.1,1.1,1.1,1.1c3.9,0.1,7.8,0.1,11.7,0.4c7.7,0.5,15.3,1.5,22.7,3.9
		c3.1,1,6,2.3,8.8,4.1c2.2,1.4,4.1,3.1,5.6,5.2c1.2,1.6,2,3.4,2.3,5.4c0.4,3.1-0.3,5.8-2.1,8.3c-1.4,1.9-3.2,3.4-5.2,4.6
		c-0.7,0.4-1.3,0.6-2.1,0.5c-1.9-0.1-3.8-0.2-5.7-0.4c-2.5-0.3-3.1-1.8-1.4-3.8c0.7-0.8,1.5-1.6,2.3-2.4c0.7-0.7,1.3-1.4,1.6-2.3
		c0.2-0.6,0.1-1.1-0.3-1.6c-0.5-0.6-1.2-1-1.9-1.4c-1.7-0.9-3.5-1.6-5.3-2.1c-6.3-1.9-12.7-3.1-19.2-3.7c-3.6-0.3-7.2-0.3-10.8-0.3
		c-0.4,0-0.7,0-1.1,0c-0.3,0-0.6,0.2-0.6,0.6c0,0.7-0.1,1.5,0,2.2c0.1,3.7,0.2,7.5,0.3,11.2c0.1,5,0.3,10,0.4,15
		c0.1,2.8,0.2,5.6,0.3,8.4c0,0.6,0.2,0.9,0.9,1c2.7,0.5,5.5,0.9,8.3,1.2c5.1,0.6,10.3,0.7,15.4,0.4c9.4-0.5,18.5-2,27.3-5.3
		c3.8-1.4,7.4-3.2,10.7-5.6c3.6-2.6,6.7-5.7,8.9-9.6c3.1-5.8,3.8-12,2.5-18.4c-0.9-4.7-2.9-8.9-5.3-13c-2.7-4.4-5.9-8.4-9.5-12.1
		c-7.8-8-16.7-14.6-26.2-20.3c-11.4-6.8-23.4-12.3-36-16.4c-9.2-3-18.6-5.3-28.2-6.8c-5.5-0.8-11.1-1.5-16.7-1.6
		c-1.2,0-2.3-0.2-3.5-0.2c-5.2,0-10.4,0.2-15.6,0.8c-1.6,0.2-3.2,0.4-4.8,0.9c-0.6,0.2-1.1,0.4-1.6,0.7c-0.8,0.5-0.9,1.4-0.1,2
		c0.5,0.4,1,0.6,1.5,0.9c1.2,0.7,1.7,1.4,1.4,2.2c-0.3,1-1.2,1.2-2.1,1.4c-2.3,0.4-4.7,0.4-7-0.2c-0.6-0.1-1.1-0.4-1.6-0.7
		c-1-0.5-1.4-1.4-1.5-2.5c-0.1-1.2,0.1-2.3,0.6-3.4c0.4-0.9,0.9-1.7,1.6-2.4C3,9,3.9,8.2,4.6,7.3C6.6,5,9.1,3.8,12,3.1
		c3.1-0.8,6.2-1.4,9.3-1.7C28.5,0.5,35.7,0,43,0c5.4,0,10.8,0.5,16.2,1.2C69.5,2.5,79.4,5,89.2,8.3c14.5,5,28.2,11.6,41,20.1
		c9.3,6.1,18,13,25.7,21c5.5,5.7,10.4,11.8,14,18.8c2,3.9,3.6,7.9,4.4,12.2c1,5.5,0.5,11-1.2,16.3c-1.9,5.8-5.1,10.9-9.3,15.3
		C162.8,113.1,161.8,114,160.9,115z M65.6,112.7c0.3-0.4,0.2-0.8,0.2-1.3c0-7,0-14.1,0.2-21.1c0.1-2.5,0.1-5,0.1-7.5
		c0-0.6,0-1.2,0-1.8c0-1.1-0.1-1.1-1.1-1.1c-4.4,0.3-8.8,0.6-13.1,1.1c-3.9,0.4-7.9,1-11.7,1.9c-2.2,0.5-4.4,1.2-6.5,2.1
		c-1,0.5-2,1-2.7,1.8c-1.4,1.4-1.5,2.7-0.6,4.2c0.6,1,1.4,1.9,2.2,2.8c2.3,2.4,5,4.5,7.8,6.4c7.4,5.1,15.4,9,23.8,12.2
		C64.6,112.5,65.1,112.9,65.6,112.7z"/>
	<path class="st0" d="M513.5,179.5c0,0.7,0.1,1.5,0.1,2.2c0,28.9,0,57.9,0,86.8c0,0.2,0,0.4,0,0.7c0,2,0,1.9-1.9,1.9
		c-18.8,0-37.6,0-56.4,0c-0.1,0-0.3,0-0.4,0c-1.4,0-1.5,0-1.5-1.5c0-0.4,0-0.9,0-1.3c0-28.8,0-57.6,0-86.3c0-0.8,0.1-1.6,0.1-2.4
		c1.2,0,2.3,0,3.5,0C475.8,179.5,494.7,179.5,513.5,179.5z M491.1,194.6c-0.3,2.9,1.9,5.6,5.5,5.8c3.1,0.2,6-2.8,5.9-5.9
		c-0.1-3.1-2.8-5.9-5.9-5.7C493,189,490.8,191.7,491.1,194.6z M476.3,194.7c0.3-2.9-1.7-5.6-5.5-5.9c-3.1-0.2-6,2.7-6,5.8
		c0,3.1,2.6,5.8,5.8,5.8C474.2,200.3,476.5,197.6,476.3,194.7z"/>
	<path class="st1" d="M509.2,101.1c2.8,7.7,2.8,15-0.6,22.1c-2.6,5.4-6.6,9.5-12,12.2c-10.4,5.3-23.4,3.2-31.7-5.7
		c-7.5-8.1-10.8-22.8-0.7-35.7c-0.2-0.5-0.6-0.2-0.9-0.3c-0.3,0-0.6,0-0.9,0c-4.1-0.1-7.8-1.3-10.9-4c-5.1-4.5-7.2-10.1-5.8-16.8
		c1.5-6.8,5.7-11.3,12.4-13c11.7-3,22.2,6,21.5,17.7c-0.1,2.2-0.7,4.3-1.7,6.3c-0.3,0.5-0.5,1-0.9,1.7c2.1-0.2,4-0.8,5.9-0.8
		c2-0.1,4,0,5.9,0.3c2,0.3,3.9,0.9,5.7,1.6c1.8,0.7,3.5,1.9,5.4,2.8c-1.1-6.4,0.3-11.9,4.8-16.3c3.6-3.5,8-5.2,13-4.8
		c10.1,0.6,17.1,9.4,16,19.1c-0.2,2.2-0.9,4.3-2,6.3c-1,1.9-2.4,3.5-4,4.9c-1.7,1.4-3.6,2.5-5.7,3.2c-2.1,0.7-4.2,0.9-6.3,0.8
		C513.6,102.7,511.5,102,509.2,101.1z"/>
	<path class="st1" d="M382.7,150.7c-0.1,0.1-0.2,0.2-0.3,0.3c-1.5,5.1-3.5,10-4.3,15.2c-0.3,2-0.7,4-1.1,6.1
		c-0.2,0.9-0.5,1.7-0.8,2.5c-0.3,0.7-0.8,1-1.6,1c-0.7,0-1.3-0.1-1.9-0.4c-1.3-0.5-2.5-1.2-3.6-2.1c-2.7-2.3-4.5-5.1-5.4-8.6
		c-0.3-1-0.3-2-0.4-3c-0.1-4,0.5-7.9,1.1-11.8c0.1-0.9,0.3-1.7,0.3-2.6c0.6-1.3,0.7-2.8,1-4.3c2-8.5,4.5-16.9,7.1-25.2
		c0-0.1,0.1-0.1,0.1-0.2c0.4-1.3,0.9-2.5,1.1-3.8c0.2-1.4-0.8-2.5-1.2-3.7c-2-5.6-2-11.2-0.5-16.9c1.4-5.4,3.9-10.3,6.8-15
		c2.6-4.2,5.6-8.1,9.1-11.6c0.7-0.7,1.4-1.3,2.1-1.9c0.9-0.7,1.8-0.5,2.5,0.4c0.2,0.4,0.4,0.8,0.6,1.2c0.7,2,0.6,4.1-0.4,6
		c-0.7,1.4-1.4,2.7-2.2,4.1c-2.5,4.4-5,8.8-7.1,13.4c-0.8,1.7-1.5,3.4-1.9,5.1c-0.4,1.7-0.2,3.2,0.6,4.7c0.7-0.1,0.9-0.7,1.3-1.1
		c4.8-6,9.9-11.8,15.4-17.2c3.4-3.3,6.8-6.4,10.8-9c1.4-0.9,2.9-1.7,4.5-2.3c2-0.7,4-0.6,6,0.3c2.3,1,4,2.7,5.5,4.7
		c1.8,2.5,2.8,5.4,3.4,8.5c0.9,5.1,0.7,10.1-1.1,14.9c-0.8,2.1-1.8,4.2-3,6.1c-5.9,9.1-13.8,15.7-24.2,19.2
		c-3.2,1.1-6.4,1.5-9.8,1.4c-1.4,0-1.4,0-1.7,1.3c-0.6,2.1-1.1,4.3-1.7,6.4c-1.5,5.4-3.1,10.9-4.7,16.3
		C382.9,149.6,382.6,150.1,382.7,150.7z M396.7,109.6c1.2,0.2,2.1,0.1,3.1-0.1c6.8-1.3,12.4-4.7,17-9.9c1.8-2.1,3.2-4.5,4-7.3
		c0.8-2.6,0.9-5.2,0.3-7.8c-0.2-0.8-0.5-1.6-1-2.2c-1-1.3-2.3-1.5-3.7-0.6c-0.7,0.4-1.3,1-1.9,1.5c-2.2,2.1-4,4.5-5.7,7
		c-4.2,5.9-8,12.1-11.6,18.4C397.1,108.9,397,109.2,396.7,109.6z"/>
	<path class="st1" d="M240.4,64.7c4.1,0,7.9,0,11.7,0.4c1.7,0.2,3.3,0.5,5,1c1.1,0.3,2.1,0.7,3,1.4c2.2,1.4,2.3,4.2,0.1,5.6
		c-0.9,0.6-1.8,1-2.8,1.3c-2.6,0.9-5.4,1.4-8.2,1.7c-3.9,0.5-7.9,0.8-11.8,1c-5.1,0.3-10.1,0.6-15.1,1.3c-1.9,0.3-3.8,0.6-5.6,1.3
		c-0.7,0.3-1.4,0.6-1.9,1.1c-0.6,0.7-0.6,1.4,0.2,1.8c0.6,0.3,1.2,0.5,1.8,0.7c1.4,0.3,2.9,0.6,4.3,0.8c3.6,0.4,7.2,0.7,10.7,0.9
		c4,0.3,8,0.6,12,1.4c3.3,0.6,6.4,1.4,9.4,3c5.2,2.7,7.9,7.1,8.1,12.9c0.3,6.4-2.6,11.2-7.5,14.8c-3.2,2.4-7,3.8-10.9,4.5
		c-7.9,1.4-15.8,1.1-23.5-1.3c-4-1.2-7.6-3.1-10.7-6c-1.1-1.1-2.1-2.3-3-3.5c-2.8-4.1-1.5-10,2.2-12.9c2.1-1.7,4.6-2.6,7.2-3.1
		c1.9-0.3,3.8-0.5,5.7-0.4c5.5,0.4,11,1,16.3,2.5c1.6,0.4,3.1,0.9,4.5,1.7c0.5,0.3,1,0.6,1.5,1c1.3,1.1,1.3,2.4,0.3,3.7
		c-0.5,0.6-1.2,1.1-1.9,1.5c-3,1.5-6.2,2.2-9.6,1.7c-2.1-0.3-4.1-1-6.1-1.7c-1.9-0.7-3.8-1.4-5.8-2.2c-1.2-0.5-2.4-0.9-3.6-1
		c-2.4-0.2-4.6,0.3-6,2.5c-1.1,1.6-0.6,3.5,1,4.6c0.7,0.5,1.6,0.8,2.4,1c1.3,0.3,2.6,0.5,3.9,0.6c3.5,0.2,7-0.1,10.5-0.6
		c4.5-0.6,9-1.4,13.4-2.6c2.2-0.6,4.3-1.4,6.3-2.5c1-0.6,1.9-1.2,2.5-2.1c1-1.4,0.9-2.5-0.5-3.6c-1.1-0.8-2.3-1.4-3.5-1.8
		c-3.2-1.2-6.6-2-10-2.7c-5.6-1.1-11.4-1.3-17.1-1.4c-3.2,0-6.5-0.3-9.6-0.8c-1.7-0.3-3.4-0.8-5-1.7c-2.7-1.4-4.1-3.7-4.2-6.8
		c-0.2-4.9,1.9-8.6,5.7-11.5c2.6-2,5.6-3.3,8.7-4.3c4.5-1.4,9.1-2.2,13.8-2.7C232.8,64.8,236.7,64.7,240.4,64.7z"/>
	<path class="st1" d="M513.5,179.5c-18.8,0-37.7,0-56.5,0c-1.2,0-2.3,0-3.5,0c0-0.6-0.1-1.2-0.1-1.8c0-9.5,0-18.9,0-28.4
		c0-0.4,0-0.7,0-1.1c0-0.8,0.2-1,1.1-1c0.5,0,1,0,1.5,0c18.3,0,36.7,0,55,0c3,0,2.6-0.3,2.6,2.6c0,9.2,0,18.3,0,27.5
		C513.6,178,513.6,178.8,513.5,179.5z"/>
	<path class="st1" d="M264.4,108.2c0.1-4.1,0.6-8.2,1.1-12.3c0.7-5.1,1.6-10.1,3-15.1c0.6-2.2,1.3-4.4,2.3-6.4
		c0.6-1.2,1.2-2.4,2.1-3.4c1.6-1.8,3.1-2,5.1-0.8c1.1,0.6,2,1.5,2.9,2.3c2.1,2.1,4,4.5,5.8,6.9c3.5,4.6,6.6,9.3,9.8,14.1
		c1,1.5,2.1,3,3.1,4.5c0.4,0.6,0.9,1.2,1.3,1.8c0.5,0.6,0.9,1.5,1.6,1.3c1-0.2,1-1.3,1.2-2.2c0.3-2.1,0.2-4.2-0.2-6.4
		c-1-5.1-2.5-10.1-4-15.1c-1.2-4.1-2.5-8.3-3.5-12.5c-0.2-1.1-0.4-2.2-0.5-3.3c-0.1-1,0-2.1,0.3-3c0.3-1.1,1-1.5,2.2-1.4
		c1.1,0.1,2.1,0.6,3,1.3c1.6,1.1,2.9,2.5,4,4c2.1,2.7,3.8,5.6,5.3,8.6c3.2,6.6,5.4,13.6,6.5,20.9c0.9,6,0.5,11.9-2,17.5
		c-0.9,2.1-2.1,4.1-3.6,5.8c-1.5,1.6-3.2,2.8-5.3,3.4c-2,0.5-3.8,0.3-5.4-0.9c-1.6-1.1-2.9-2.5-4.1-3.9c-2.5-2.8-4.6-5.9-6.7-9
		c-2.2-3.3-4.3-6.7-6.5-10c-0.6-1-1.3-2-2-2.9c-0.4-0.5-0.8-1-1.3-1.5c-0.5-0.5-1.1-0.4-1.3,0.3c-0.2,0.6-0.3,1.3-0.4,1.9
		c-0.5,2.8-0.4,5.7-0.5,8.6c-0.2,3.8-0.2,7.6-0.8,11.4c-0.2,1.5-0.6,3-0.9,4.5c-0.1,0.6-0.4,1.1-0.6,1.6c-1.5,3.3-5,4-7.8,1.6
		c-1-0.8-1.6-1.9-2-3.1c-0.5-1.5-0.8-3-0.9-4.5C264.5,111.3,264.4,109.8,264.4,108.2z"/>
	<path class="st1" d="M348.4,97.3c-2.5,0.1-5,0.2-7.5,0.2c-2.3,0-3.7,1.1-4.4,3.2c-0.6,1.8-1.1,3.5-1.3,5.3
		c-0.1,0.8-0.1,1.6-0.1,2.4c0,0.5,0.4,0.8,0.9,0.8c0.9,0,1.8,0,2.6-0.1c2-0.3,4.1-0.6,6.1-0.9c2.8-0.5,5.6-1,8.5-1.5
		c0.7-0.1,1.5-0.2,2.2-0.2c3.1-0.3,5.4,1.1,7.1,3.5c0.3,0.4,0.5,0.9,0.7,1.4c0.3,0.9,0.2,1.7-0.5,2.4c-1,1-2,1.9-3.2,2.7
		c-4.4,3.2-9.3,5.7-14.5,7.4c-3.6,1.2-7.2,1.9-11,2.1c-4.9,0.3-8.5-1.7-11.2-5.7c-1.4-2.2-2.3-4.6-2.8-7.1c-0.3-1.9-0.2-3.8,0.3-5.7
		c0.7-2.8,1.7-5.5,2.5-8.2c0.2-0.8,0.5-1.5,0.7-2.3c0.3-0.7,0.2-1.4-0.1-2.1c-0.1-0.3-0.3-0.5-0.4-0.8c-0.8-1.7-0.5-3,0.8-4.4
		c0.9-0.8,1.9-1.4,3-1.9c3-1.4,2.7-1,3.7-4.4c0.4-1.3,0.6-2.6,0.9-3.9c0.1-0.6-0.1-1-0.6-1.3c-0.8-0.4-1.6-0.8-2.4-1.2
		c-1.3-0.6-2.7-1.2-3.8-2.2c-0.9-0.7-1.7-1.4-2-2.5c-0.4-1.2-0.2-2.2,0.9-2.9c0.6-0.4,1.3-0.7,2-1c1.8-0.7,3.7-1,5.6-1.3
		c3.9-0.6,7.9-0.9,11.8-1.2c4.3-0.4,8.6-0.7,12.9-1.1c5.6-0.5,10,1.8,13.6,5.9c0.2,0.2,0.4,0.5,0.5,0.7c1.3,1.9,1.1,3.2-0.6,4.6
		c-1.1,1-2.5,1.5-4,1.6c-2.2,0.1-4.4,0.3-6.6,0.4c-4,0.2-8.1,0.4-12.1,0.9c-3.1,0.4-3.3,0.5-4.1,3.9c-0.2,0.9-0.3,1.7-0.3,2.6
		c0,0.9,0.3,1.4,1.3,1.5c0.9,0.1,1.9,0.3,2.8,0.4c3,0.2,6,0.3,9,0.4c0.2,0,0.4,0,0.7,0c2.5,0.1,3.9,1.5,4.1,4c0.2,2.6-1,4.4-3.3,5
		c-1.3,0.3-2.6,0.2-3.9,0.3C351.4,97.4,349.9,97.4,348.4,97.3C348.4,97.3,348.4,97.3,348.4,97.3z"/>
	<path class="st1" d="M188.9,56.5c-2,0-4.9-0.3-7.7-1c-0.8-0.2-1.4-0.2-1.8,0.6c-0.9,1.4-2.2,2.1-3.8,2.4c-1.9,0.3-3.2-0.4-4.1-2.2
		c-0.8-1.6-0.8-3.3-1.1-4.9c0-0.2,0-0.4,0-0.7c0-1-0.3-1.8-0.9-2.6c-1.4-1.9-2.4-4-2.9-6.4c-0.7-3.1-0.5-6.1,0.8-9.1
		c1.8-4.1,4.4-7.6,7.6-10.6c6.3-5.7,13.6-9.1,22.1-10.1c2.9-0.3,5.9-0.4,8.8,0.3c3.4,0.8,6.4,2.5,9,4.9c0.7,0.7,1.5,1.1,2.5,1.2
		c1.5,0.2,2.9,0.7,4.2,1.3c2.8,1.3,4.4,3.5,4.7,6.6c0.4,3.3-0.4,6.4-2,9.3c-1.5,2.7-3.4,5.2-5.6,7.3c-5.7,5.6-12.4,9.9-20.1,12.3
		C195.5,56.3,192.9,56.6,188.9,56.5z M184.7,44.9c2.9,1,5.6,1.2,8.3,1c4.8-0.3,9.2-1.8,13.5-3.8c2.7-1.3,5.3-2.8,7.5-4.9
		c1-0.9,1.8-1.9,2.5-3c0.7-1.2,1.1-2.4,1.1-3.8c-0.1-3.4-2.6-5.6-6-5.1c-3.1,0.4-5.9,1.9-8.4,3.6c-4.3,2.9-8.4,6.1-12.3,9.7
		C188.8,40.6,186.7,42.5,184.7,44.9z M175.7,37.4c0.5-0.4,0.7-0.6,0.9-0.8c4.3-4.7,9.2-8.8,14.6-12.3c0.3-0.2,0.7-0.3,0.7-0.9
		c-4,0.8-7.8,2.2-11.1,4.5c-1.8,1.3-3.3,2.8-4.5,4.8C175.5,34.1,175.2,35.6,175.7,37.4z"/>
	<path class="st1" d="M195.8,108.5c0,2.9-0.1,5.7-0.4,8.6c-0.1,1.2-0.4,2.3-0.8,3.4c-0.6,1.5-1.7,2.4-3.3,2.4c-1,0.1-2.1,0.1-3.1,0
		c-2.2-0.1-3.7-1.1-4.8-3c-1-1.8-1.4-3.9-1.7-5.9c-0.4-2.8-0.6-5.7-0.5-8.6c0.1-4.7,0-9.4,0.2-14.1c0.2-5.7,0.5-11.4,1.6-17.1
		c0.3-1.7,0.7-3.3,1.3-4.9c0.3-0.7,0.6-1.5,1.1-2.1c1.2-1.8,3.3-2,5-0.6c0.9,0.7,1.4,1.7,1.8,2.7c0.7,1.7,1.1,3.5,1.4,5.3
		c0.6,3.3,0.9,6.7,1.2,10c0.4,5,0.6,10.1,0.7,15.2C195.6,102.8,195.7,105.7,195.8,108.5z"/>
	<path class="st2" d="M491.1,194.6c-0.3-2.8,1.9-5.6,5.6-5.8c3-0.1,5.8,2.6,5.9,5.7c0.1,3.1-2.8,6.1-5.9,5.9
		C493,200.2,490.8,197.5,491.1,194.6z"/>
	<path class="st2" d="M476.3,194.7c0.3,2.9-2.1,5.6-5.7,5.7c-3.1,0.1-5.8-2.7-5.8-5.8c0-3.1,2.9-6,6-5.8
		C474.5,189.1,476.6,191.8,476.3,194.7z"/>
</g>
</svg>
