<?xml version="1.0" encoding="utf-8"?>
<!-- Generator: Adobe Illustrator 21.1.0, SVG Export Plug-In . SVG Version: 6.00 Build 0)  -->
<svg version="1.1"
	 id="svg2" inkscape:version="0.91 r13725" sodipodi:docname="Npo1.svg" xmlns:cc="http://creativecommons.org/ns#" xmlns:dc="http://purl.org/dc/elements/1.1/" xmlns:inkscape="http://www.inkscape.org/namespaces/inkscape" xmlns:rdf="http://www.w3.org/1999/02/22-rdf-syntax-ns#" xmlns:sodipodi="http://sodipodi.sourceforge.net/DTD/sodipodi-0.dtd" xmlns:svg="http://www.w3.org/2000/svg"
	 xmlns="http://www.w3.org/2000/svg" xmlns:xlink="http://www.w3.org/1999/xlink" x="0px" y="0px" viewBox="0 0 429.9 289"
	 style="enable-background:new 0 0 429.9 289;" xml:space="preserve">
<style type="text/css">
	.st0{clip-path:url(#SVGID_2_);}
	.st1{fill:#E4E4E5;}
	.st2{fill:#E4312C;}
	.st3{fill:#FFFFFF;}
</style>
<sodipodi:namedview  bordercolor="#666666" borderopacity="1.0" fit-margin-bottom="5" fit-margin-left="5" fit-margin-right="5" fit-margin-top="5" id="base" inkscape:current-layer="layer1" inkscape:cx="-419.33176" inkscape:cy="56.650784" inkscape:document-units="px" inkscape:pageopacity="0.0" inkscape:pageshadow="2" inkscape:window-height="984" inkscape:window-maximized="1" inkscape:window-width="1920" inkscape:window-x="0" inkscape:window-y="0" inkscape:zoom="0.35" pagecolor="#ffffff" showgrid="false">
	</sodipodi:namedview>
<g id="layer1" transform="translate(-267.90319,-301.01296)" inkscape:groupmode="layer" inkscape:label="Ebene 1">
	<g id="g2993" transform="matrix(3.4849447,0,0,-3.4849447,196.85456,662.3423)" inkscape:label="NPO_TV1_Logo_CMYK">
		<g id="g2995">
			<g>
				<defs>
					<rect id="SVGID_1_" x="-233" y="-155" width="652" height="434.7"/>
				</defs>
				<clipPath id="SVGID_2_">
					<use xlink:href="#SVGID_1_"  style="overflow:visible;"/>
				</clipPath>
				<g id="g2997" class="st0">
					<g id="g3003" transform="translate(79.707,92.4277)">
						<path id="path3005" inkscape:connector-curvature="0" class="st1" d="M-11.5-0.1L-14,2.5C-16.5,5-19.6,5-22.4,2.2l-2-2
							c-2.8-2.8-2.8-5.9-0.3-8.4l2.5-2.5c2.5-2.5,5.6-2.6,8.4,0.3l2,2C-8.9-5.6-9-2.6-11.5-0.1 M-24.2-12.8l-2.5,2.5
							c-2.5,2.5-5.5,2.6-8.4-0.3l-2-2c-2.8-2.8-2.8-5.9-0.3-8.4l8.2-8.1c0.9-0.9,2-0.8,2.7-0.1c0.7,0.7,0.8,1.8-0.1,2.7l-1.9,1.9
							c0.5,0.1,1.1,0.5,1.9,1.2l2.2,2.2C-21.6-18.4-21.7-15.3-24.2-12.8 M-34.3-28.6l-5.4,5.4c-2.5,2.5-5.5,2.6-8.4-0.3l-2-2
							c-2.8-2.8-2.8-5.9-0.3-8.4l5.4-5.4c0.9-0.9,2-0.8,2.7-0.1c0.7,0.7,0.8,1.8-0.1,2.7l-5.3,5.4c-1,1-1,2,0.2,3.1l2.1,2.1
							c1.1,1.1,2.1,1.2,3.1,0.2l5.4-5.3c0.9-0.9,2-0.8,2.7-0.1C-33.5-30.6-33.4-29.6-34.3-28.6 M20.8-35.4l-33.5-33.5
							c-3.4-3.4-7.2-3.4-10.6,0l-33.5,33.5c-3.4,3.4-3.4,7.2,0,10.6l33.5,33.5c3.4,3.4,7.2,3.4,10.6,0l33.5-33.5
							C24.2-28.2,24.2-32.1,20.8-35.4 M-16.6-0.2c-1,1-2,1-3.1-0.2l-2.1-2.1C-23-3.6-23-4.6-22-5.6l2.4-2.4c1-1,2-1,3.1,0.2l2.1,2.1
							c1.1,1.1,1.2,2.1,0.2,3.1L-16.6-0.2z M-26.9-15.4c1-1,1-2-0.2-3.1l-2.1-2.1c-1.1-1.1-2.1-1.2-3.1-0.2l-2.4,2.4
							c-1,1-1,2,0.2,3.1l2.1,2.1c1.1,1.1,2.1,1.2,3.1,0.2C-29.3-13-26.9-15.4-26.9-15.4z"/>
					</g>
					<g id="g3007" transform="translate(64.2949,77.1055)">
						<path id="path3009" inkscape:connector-curvature="0" class="st2" d="M-11.5-0.1l-2.4,2.4c-1,1-2,1-3.1-0.2l-2.1-2.1
							C-20.3-1.1-20.3-2-19.3-3l2.4-2.4c1-1,2-1,3.1,0.2l2.1,2.1C-10.5-2-10.5-1.1-11.5-0.1 M-8.8,2.5C-6.3,0-6.2-3-9.1-5.9L-11.2-8
							c-0.7-0.7-1.4-1.1-1.9-1.2l1.9-1.9c0.9-0.9,0.8-2,0.1-2.7c-0.7-0.7-1.8-0.9-2.7,0.1L-22-5.6c-2.5,2.5-2.6,5.6,0.3,8.4l2,2
							c2.8,2.8,5.9,2.8,8.4,0.3L-8.8,2.5z M1.3,12.7l-2.4,2.4c-1,1-2,1-3.1-0.2l-2.1-2.1c-1.1-1.1-1.2-2.1-0.2-3.1l2.4-2.4
							c1-1,2-1,3.1,0.2l2.1,2.1C2.2,10.7,2.3,11.6,1.3,12.7 M3.9,15.2c2.5-2.5,2.6-5.6-0.3-8.4l-2-2C-1.2,2-4.2,2.1-6.7,4.6
							l-2.5,2.5c-2.5,2.5-2.6,5.6,0.3,8.4l2,2c2.8,2.8,5.9,2.8,8.4,0.3C1.4,17.8,3.9,15.2,3.9,15.2z M-18.9-13.3
							c0.9-0.9,0.8-2,0.1-2.7c-0.7-0.7-1.8-0.8-2.7,0.1l-5.4,5.3c-1,1-2,1-3.1-0.2l-2.1-2.1c-1.1-1.1-1.2-2.1-0.2-3.1l5.3-5.4
							c0.9-0.9,0.8-2,0.1-2.7c-0.7-0.7-1.8-0.9-2.7,0.1l-5.4,5.4c-2.5,2.5-2.6,5.6,0.3,8.4l2,2c2.8,2.8,5.9,2.8,8.4,0.3
							C-24.3-7.9-18.9-13.3-18.9-13.3z"/>
					</g>
					<g id="g3011" transform="translate(75.1074,67.6675)">
						<path id="path3013" inkscape:connector-curvature="0" class="st2" d="M-11.5-0.1c-3.4-3.4-3.4-7.2,0-10.6L22-44.2
							c3.4-3.4,7.2-3.4,10.6,0l33.5,33.5c3.4,3.4,3.4,7.2,0,10.6L32.6,33.4c-3.4,3.4-7.2,3.4-10.6,0L-11.5-0.1z"/>
					</g>
					<g id="g3015" transform="translate(119.4316,77.561)">
						<path id="path3017" inkscape:connector-curvature="0" class="st3" d="M-11.5-0.1c0,4-2.5,5.9-5.5,5.9c-3,0-5.5-2-5.5-5.9
							v-30.4c0-4,2.5-5.9,5.5-5.9c3,0,5.5,2,5.5,5.9V-0.1z"/>
					</g>
				</g>
			</g>
		</g>
	</g>
</g>
</svg>
