<svg id="Ebene_1" data-name="Ebene 1" xmlns="http://www.w3.org/2000/svg" viewBox="0 0 199 59"><defs><style>.cls-1{fill:#fbd42c;}</style></defs><title>ng</title><path class="cls-1" d="M0,0V59H40.63V0ZM34.75,53.05H5.86V5.94h28.9Z"/><path d="M64.84,20.57h-.06C61.54,15.29,58.27,10.63,55,5.93H52.45V26.47h2.78V11.74h0c3.27,5.31,6.54,10,9.84,14.73h2.52V5.93H64.84Zm20.06,5.9L78.44,5.93H75.55l-7,20.53h3l1.77-5.6h6.11L81,26.47ZM74.22,18.34c.81-2.7,1.62-5.19,2.35-8.36h.06c.81,3.17,1.53,5.66,2.29,8.36Zm14,8.13h3.47V8.69H97V5.93H82.84V8.69h5.33V26.47ZM101.54,5.93H98.1V26.47h3.44Zm10.71,20.88c5.3,0,8.6-4.78,8.6-10.91,0-5.75-3.65-10.33-8.6-10.33s-8.6,4.58-8.6,10.33C103.65,22,107,26.82,112.25,26.82Zm0-18.3c3.44,0,4.89,3.61,4.89,7.39s-1.27,8-4.89,8-4.89-4-4.89-8S108.81,8.51,112.25,8.51Zm13.49,3.23h0c3.27,5.31,6.54,10,9.84,14.73h2.52V5.93h-2.78V20.57h-.06c-3.24-5.28-6.51-9.94-9.81-14.64H123V26.47h2.78Zm18.09,9.12h6.11l1.59,5.6h3.88L149,5.93h-2.9l-7,20.53h3ZM147.08,10h.06c.81,3.17,1.53,5.66,2.29,8.36h-4.69C145.54,15.64,146.35,13.15,147.08,10Zm19.65,13.73h-6.86V5.93h-3.45V26.47h10.31V23.71ZM62,49.95a5,5,0,0,1-2.43.5c-3,0-5.88-2.88-5.88-7.74,0-4.66,2.52-7.63,6.22-7.63a7.46,7.46,0,0,1,3.7,1.08l1.13-2.43a8.56,8.56,0,0,0-4.92-1.58C53.76,32.14,50,37,50,42.65c0,6,3.76,10.74,9.72,10.74a15.72,15.72,0,0,0,5.76-1.26V43.64H62Zm10.1-6.31h5.68V40.89H72.11V35.26H77.9V32.5H68.64V53H78.94V50.27H72.11Zm16.5-11.5c-5,0-8.6,4.58-8.6,10.33,0,6.13,3.3,10.91,8.6,10.91s8.6-4.78,8.6-10.91C97.21,36.72,93.56,32.15,88.61,32.15Zm0,18.3c-3.62,0-4.89-4-4.89-8s1.45-7.39,4.89-7.39,4.89,3.61,4.89,7.39S92.23,50.45,88.61,50.45Zm21.8-.5a5,5,0,0,1-2.43.5c-3,0-5.88-2.88-5.88-7.74,0-4.66,2.52-7.63,6.23-7.63a7.44,7.44,0,0,1,3.7,1.08l1.13-2.43a8.56,8.56,0,0,0-4.92-1.58c-6.08,0-9.84,4.9-9.84,10.5,0,6,3.76,10.74,9.73,10.74a15.72,15.72,0,0,0,5.76-1.26V43.64h-3.47Zm18.35-11.53c0-4-2.4-5.93-6.28-5.93h-5.41V53h3.47V45.29h1.56L125.37,53h4l-4.08-8.51A6.92,6.92,0,0,0,128.76,38.42ZM122,42.65c-.35,0-1.16.06-1.45.09V35.26h1.54a3,3,0,0,1,3.21,3.31C125.28,41.33,123.64,42.56,122,42.65ZM136.4,32.5l-7,20.53h3l1.77-5.6h6.11l1.6,5.6h3.88L139.29,32.5Zm-1.33,12.41c.81-2.7,1.62-5.19,2.34-8.36h.06c.81,3.17,1.53,5.66,2.29,8.36Zm36.1-4.52H164V32.5h-3.45V53H164V43.14h7.21V53h3.47V32.55h-3.47ZM178,53h3.44V32.5H178Zm15.6-2.58c-3.36,0-6.2-2.88-6.2-7.74,0-4.66,2.58-7.63,6.11-7.63A7.24,7.24,0,0,1,197,36.22l1.1-2.49a8.45,8.45,0,0,0-4.66-1.58c-6.05,0-9.79,4.9-9.79,10.5,0,6,3.76,10.74,9.73,10.74A8.74,8.74,0,0,0,198,52l-1-2.55A6.5,6.5,0,0,1,193.57,50.45Zm-41.31-18h-5.41V53h3.47V45.29h1.56a6.67,6.67,0,0,0,6.66-6.86C158.54,34.43,156.14,32.5,152.26,32.5Zm-.49,10.15c-.35,0-1.18.06-1.45.08V35.26h1.56c2,0,3.19,1.2,3.19,3.31C155.07,41.33,153.42,42.56,151.77,42.65Z"/></svg>