<?xml version="1.0" encoding="utf-8"?>
<!-- Generator: Adobe Illustrator 21.1.0, SVG Export Plug-In . SVG Version: 6.00 Build 0)  -->
<svg version="1.1"
	 id="svg2" inkscape:version="0.91 r13725" sodipodi:docname="BR_Fernsehen_160401_rgb.svg" xmlns:cc="http://creativecommons.org/ns#" xmlns:dc="http://purl.org/dc/elements/1.1/" xmlns:inkscape="http://www.inkscape.org/namespaces/inkscape" xmlns:rdf="http://www.w3.org/1999/02/22-rdf-syntax-ns#" xmlns:sodipodi="http://sodipodi.sourceforge.net/DTD/sodipodi-0.dtd" xmlns:svg="http://www.w3.org/2000/svg"
	 xmlns="http://www.w3.org/2000/svg" xmlns:xlink="http://www.w3.org/1999/xlink" x="0px" y="0px" viewBox="0 0 288 288"
	 style="enable-background:new 0 0 288 288;" xml:space="preserve">
<style type="text/css">
	.st0{fill:#0B9FD8;}
	.st1{fill:#FFFFFF;}
</style>
<sodipodi:namedview  bordercolor="#666666" borderopacity="0.61176471" gridtolerance="10" guidetolerance="10" id="namedview35" inkscape:current-layer="svg2" inkscape:cx="297.63751" inkscape:cy="209.7635" inkscape:pageopacity="0" inkscape:pageshadow="2" inkscape:window-height="899" inkscape:window-maximized="0" inkscape:window-width="1419" inkscape:window-x="20" inkscape:window-y="43" inkscape:zoom="0.56253828" objecttolerance="10" pagecolor="#ffffff" showgrid="false">
	</sodipodi:namedview>
<g id="Hilfslinien" transform="matrix(0.94074302,0,0,0.94074302,-136.00041,-53.333545)">
</g>
<g id="Logo" transform="matrix(0.94074302,0,0,0.94074302,-26.00041,-53.333545)">
	<g id="g9">
		<rect id="rect11" x="27.6" y="56.7" class="st0" width="306.1" height="306.1"/>
		<path id="path13" inkscape:connector-curvature="0" class="st1" d="M222.3,194.3c15.7-5.4,26.9-17.9,26.9-36.5
			c0-4.6-2.4-15.9-10.9-23.2c-5.6-4.8-13.8-10.5-40.1-11.1c-5.4-0.1-21.9,0.5-21.9,0.5s0,0.9,0,1c4.7,3.6,9.6,9.4,12,16.3
			c2.5-0.1,6.3-0.3,10.1-0.1c10.6,0.6,15.2,2.5,19.9,6.3c4.8,3.8,7.3,10.2,7.3,16c0,8-3.8,16.2-15.3,20.9
			c-9.3,3.8-20.6,4.6-20.6,4.6l0,2.9c0,0,6.8,3.2,13.5,12.2c5.8,7.7,39.5,57.3,39.5,57.3h27.9C270.6,261.4,225.6,198.6,222.3,194.3"
			/>
		<path id="path15" inkscape:connector-curvature="0" class="st1" d="M161,187.3c10.7-6.3,17.6-15.6,17.6-29.5
			c0-14.8-8.8-34.5-45.7-34.5c-17.9,0-37.7,0.7-37.7,0.7v137.5h31.5c40.1,0,61.2-14.8,61.2-42.7C187.9,202.1,177.5,191.1,161,187.3
			 M133.1,242.3h-15.6V141c0.2,0,7-0.1,11.2-0.1c17.4,0,27.1,9,27.4,21.4c0.2,7.5-2.1,14.7-9.7,20c-6.2,4.3-15,5.6-15,5.6v3.3
			c0,0,12.2,1.6,18.2,4.7c11.3,5.8,14.9,13.6,14.9,24.3C164.5,236.4,148.3,242.3,133.1,242.3"/>
		<path id="path17" inkscape:connector-curvature="0" class="st1" d="M88.5,300.7v-14.6c0-1.4,0.3-2.5,0.8-3.3s1.2-1.5,2.1-2
			c0.9-0.5,1.8-0.8,2.9-1c1.1-0.2,2.1-0.3,3.2-0.3h6.6v3.1h-6.6c-2,0-3.4,0.3-4.2,0.8c-0.9,0.5-1.3,1.4-1.3,2.8v2.2h10.9v1.9
			c0,0.4-0.1,0.6-0.3,0.9c-0.2,0.2-0.6,0.3-1.3,0.3h-9.3v9.3L88.5,300.7L88.5,300.7z"/>
		<path id="path19" inkscape:connector-curvature="0" class="st1" d="M110.8,288.2h11.5v1.9c0,0.4-0.1,0.7-0.3,0.9
			c-0.2,0.2-0.6,0.4-1.2,0.4h-9.9v2.6c0,1.3,0.4,2.2,1.3,2.7c0.9,0.5,2.3,0.8,4.3,0.8h7.1v3.2h-7.1c-1.1,0-2.1-0.1-3.2-0.3
			c-1.1-0.2-2.1-0.5-2.9-1c-0.9-0.5-1.5-1.2-2.1-2.1c-0.5-0.9-0.8-2-0.8-3.4v-14.6h16.2v3.1h-12.7L110.8,288.2L110.8,288.2z"/>
		<path id="path21" inkscape:connector-curvature="0" class="st1" d="M136.3,290.6c1.8,0,3.1-0.2,3.9-0.7c0.8-0.5,1.2-1.3,1.2-2.5
			v-1.7c0-1.2-0.4-2-1.2-2.5c-0.8-0.5-2.1-0.7-3.9-0.7h-4.9v18.2H128v-21.3h8.3c1,0,2,0.1,3,0.3c1,0.2,1.9,0.5,2.7,0.9
			c0.8,0.5,1.5,1.1,2,1.9c0.5,0.8,0.8,1.9,0.8,3.2v1.7c0,1.3-0.3,2.4-0.8,3.2c-0.5,0.8-1.2,1.4-2.1,1.9l0.1,0.1
			c0.3,0.4,0.7,0.8,1,1.1c0.3,0.4,0.5,0.9,0.8,1.5c0.2,0.5,0.4,1.1,0.6,1.7c0.2,0.6,0.5,1.2,0.7,1.8c0.2,0.5,0.5,1.2,0.8,2h-3.7
			l-1.7-4.4c-0.2-0.5-0.4-0.9-0.6-1.2c-0.2-0.3-0.5-0.6-0.7-0.8c-0.3-0.2-0.6-0.3-0.9-0.4c-0.3-0.1-0.7-0.1-1.2-0.1h-2.9v-1.9
			c0-0.4,0.1-0.6,0.3-0.9c0.2-0.2,0.7-0.3,1.3-0.3L136.3,290.6L136.3,290.6z"/>
		<path id="path23" inkscape:connector-curvature="0" class="st1" d="M168.2,279.4v21.3h-2.4c-0.5,0-0.8-0.1-1-0.3
			c-0.2-0.2-0.5-0.6-0.9-1.2c-0.4-0.6-0.8-1.4-1.3-2.2c-0.5-0.8-1-1.7-1.5-2.6c-0.5-0.9-1.1-1.9-1.6-2.8c-0.5-1-1.1-1.9-1.6-2.8
			c-0.5-0.9-1-1.7-1.4-2.5c-0.4-0.8-0.8-1.4-1.1-2c-0.2-0.3-0.3-0.6-0.5-0.8c-0.1-0.2-0.3-0.4-0.5-0.5c-0.2-0.1-0.5-0.2-0.7-0.3
			c-0.3-0.1-0.6-0.1-1.1-0.1v18.1h-3.4v-21.3h1.7c0.9,0,1.7,0,2.5,0.1c0.7,0.1,1.4,0.2,2,0.5c0.6,0.2,1.2,0.6,1.7,1.1
			c0.5,0.5,1,1.1,1.4,1.9c0.3,0.5,0.7,1.3,1.2,2.1c0.5,0.9,1,1.8,1.6,2.8c0.6,1,1.2,2.1,1.8,3.2c0.6,1.1,1.2,2.1,1.8,3.1v-14.9
			H168.2z"/>
		<path id="path25" inkscape:connector-curvature="0" class="st1" d="M185.4,283.1v-0.5c-0.8-0.2-1.6-0.3-2.4-0.4
			c-0.8-0.1-1.6-0.1-2.5-0.1c-1,0-1.8,0.1-2.5,0.3c-0.6,0.2-1.1,0.4-1.5,0.7c-0.4,0.3-0.6,0.6-0.8,1c-0.1,0.3-0.2,0.7-0.2,1
			c0,0.4,0.1,0.7,0.2,1c0.1,0.3,0.2,0.4,0.2,0.4c0.5,0.2,1,0.4,1.6,0.6c0.6,0.2,1.3,0.4,1.9,0.7c0.7,0.2,1.3,0.5,2,0.7
			c0.7,0.2,1.4,0.5,2,0.7c1.5,0.5,3.1,1,4.7,1.5c0.2,0.3,0.4,0.6,0.5,1c0.1,0.3,0.2,0.8,0.3,1.2c0.1,0.5,0.2,1.1,0.2,1.7
			c0,0.7-0.1,1.5-0.4,2.2c-0.3,0.8-0.7,1.5-1.4,2.1c-0.6,0.6-1.5,1.1-2.6,1.5c-1.1,0.4-2.5,0.6-4.3,0.6c-1.3,0-2.6-0.1-3.8-0.2
			c-1.3-0.1-2.6-0.3-3.9-0.6v-1.9c0-0.4,0.1-0.6,0.3-0.8c0.2-0.1,0.5-0.2,0.8-0.2c0.2,0,0.4,0,0.6,0.1c0.2,0,0.5,0.1,0.8,0.1
			c0.7,0.1,1.5,0.2,2.4,0.3c0.9,0.1,1.8,0.1,2.7,0.1c1.1,0,2-0.1,2.7-0.3c0.7-0.2,1.2-0.5,1.6-0.9c0.4-0.3,0.6-0.7,0.8-1.1
			c0.1-0.4,0.2-0.8,0.2-1.1c0-0.2,0-0.3,0-0.5c0-0.1,0-0.3-0.1-0.4c0-0.1-0.1-0.2-0.1-0.3l-12.2-4c-0.2-0.3-0.4-0.7-0.6-1.1
			c-0.2-0.4-0.3-0.8-0.4-1.4c-0.1-0.5-0.2-1.2-0.2-1.9c0-0.7,0.1-1.4,0.4-2.1c0.2-0.7,0.7-1.3,1.3-1.9c0.6-0.6,1.5-1,2.5-1.4
			c1.1-0.4,2.4-0.5,4.1-0.5c1.5,0,2.9,0.1,4.2,0.3c1.3,0.2,2.7,0.6,4,1.2v4.1h-2c-0.4,0-0.7-0.1-1-0.3
			C185.5,284.1,185.4,283.7,185.4,283.1"/>
		<path id="path27" inkscape:connector-curvature="0" class="st1" d="M196.8,288.2h11.5v1.9c0,0.4-0.1,0.7-0.3,0.9
			c-0.2,0.2-0.6,0.4-1.2,0.4h-9.9v2.6c0,1.3,0.4,2.2,1.3,2.7c0.9,0.5,2.3,0.8,4.3,0.8h7.1v3.2h-7.1c-1.1,0-2.1-0.1-3.2-0.3
			c-1.1-0.2-2.1-0.5-2.9-1c-0.9-0.5-1.6-1.2-2.1-2.1c-0.5-0.9-0.8-2-0.8-3.4v-14.6h16.2v3.1h-12.7L196.8,288.2L196.8,288.2z"/>
		<polygon id="polygon29" class="st1" points="214,300.7 214,279.4 217.4,279.4 217.4,288.2 228.3,288.2 228.3,279.4 231.7,279.4 
			231.7,300.7 228.3,300.7 228.3,291.3 217.4,291.3 217.4,300.7 		"/>
		<path id="path31" inkscape:connector-curvature="0" class="st1" d="M239.6,288.2H251v1.9c0,0.4-0.1,0.7-0.3,0.9
			c-0.2,0.2-0.6,0.4-1.2,0.4h-9.9v2.6c0,1.3,0.4,2.2,1.3,2.7c0.9,0.5,2.3,0.8,4.3,0.8h7.1v3.2h-7.1c-1.1,0-2.1-0.1-3.2-0.3
			c-1.1-0.2-2.1-0.5-2.9-1c-0.9-0.5-1.6-1.2-2.1-2.1c-0.5-0.9-0.8-2-0.8-3.4v-14.6h16.2v3.1h-12.7V288.2L239.6,288.2z"/>
		<path id="path33" inkscape:connector-curvature="0" class="st1" d="M275.7,279.4v21.3h-2.4c-0.5,0-0.8-0.1-1-0.3
			c-0.2-0.2-0.5-0.6-0.9-1.2c-0.4-0.6-0.8-1.4-1.3-2.2c-0.5-0.8-1-1.7-1.5-2.6c-0.5-0.9-1.1-1.9-1.6-2.8c-0.5-1-1.1-1.9-1.6-2.8
			c-0.5-0.9-1-1.7-1.4-2.5c-0.4-0.8-0.8-1.4-1.1-2c-0.2-0.3-0.4-0.6-0.5-0.8c-0.2-0.2-0.3-0.4-0.5-0.5c-0.2-0.1-0.5-0.2-0.7-0.3
			c-0.3-0.1-0.6-0.1-1.1-0.1v18.1h-3.4v-21.3h1.7c0.9,0,1.7,0,2.5,0.1c0.7,0.1,1.4,0.2,2,0.5c0.6,0.2,1.2,0.6,1.7,1.1
			c0.5,0.5,1,1.1,1.4,1.9c0.3,0.5,0.7,1.3,1.2,2.1c0.5,0.9,1,1.8,1.6,2.8c0.6,1,1.2,2.1,1.8,3.2c0.6,1.1,1.2,2.1,1.8,3.1v-14.9
			H275.7L275.7,279.4z"/>
	</g>
</g>
</svg>
