<?xml version="1.0" encoding="utf-8"?>
<!-- Generator: Adobe Illustrator 21.1.0, SVG Export Plug-In . SVG Version: 6.00 Build 0)  -->
<svg version="1.1"
	 id="svg2" inkscape:version="0.91 r13725" sodipodi:docname="NWIL.svg" xmlns:cc="http://creativecommons.org/ns#" xmlns:dc="http://purl.org/dc/elements/1.1/" xmlns:inkscape="http://www.inkscape.org/namespaces/inkscape" xmlns:rdf="http://www.w3.org/1999/02/22-rdf-syntax-ns#" xmlns:sodipodi="http://sodipodi.sourceforge.net/DTD/sodipodi-0.dtd" xmlns:svg="http://www.w3.org/2000/svg"
	 xmlns="http://www.w3.org/2000/svg" xmlns:xlink="http://www.w3.org/1999/xlink" x="0px" y="0px" viewBox="0 0 507 182.1"
	 style="enable-background:new 0 0 507 182.1;" xml:space="preserve">
<style type="text/css">
	.st0{fill:#1C1C19;}
	.st1{fill:#FFD900;}
</style>
<sodipodi:namedview  bordercolor="#666666" borderopacity="1" gridtolerance="10" guidetolerance="10" id="namedview27" inkscape:current-layer="svg2" inkscape:cx="465.49724" inkscape:cy="96.25" inkscape:pageopacity="0" inkscape:pageshadow="2" inkscape:window-height="907" inkscape:window-maximized="0" inkscape:window-width="1658" inkscape:window-x="0" inkscape:window-y="0" inkscape:zoom="1" objecttolerance="10" pagecolor="#ffffff" showgrid="false" units="px">
	</sodipodi:namedview>
<g id="surface966" transform="matrix(0.67692106,0,0,0.67692106,-348.24013,-288.26222)">
	<path id="path5" inkscape:connector-curvature="0" class="st0" d="M780.6,522c6.4,38.1,12.9,75.9,19.1,121.2h0.4
		c10.2-44.4,20.7-81.7,31.1-118.8h35.2c10.8,37.1,21.9,74.4,32.5,118.8h0.4c5.8-45.3,11.7-83.2,17.7-121.2l37.2,4.8l-33.5,167.3
		h-47.2c-9.2-31.5-18.7-63-27.7-101.8h-0.4c-8.2,38.8-16.7,70.3-25.1,101.8h-47.4l-35.2-167.3L780.6,522z"/>
	<path id="path7" inkscape:connector-curvature="0" class="st0" d="M962.8,524.4h42.4v169.7h-42.4V524.4z"/>
	<path id="path9" inkscape:connector-curvature="0" class="st0" d="M1024.2,524.4h42.4v138h51.4v31.8h-93.8V524.4z"/>
	<path id="path11" inkscape:connector-curvature="0" class="st0" d="M1185.6,524.4c56.3,0,77.9,39,77.9,80
		c0,62.1-37.4,89.7-79.5,89.7h-53V524.4H1185.6z M1173.3,662.4h10.9c24.3,0,35.8-23.5,35.8-57.7c0-30.8-15.9-48.5-34.4-48.5h-12.3
		V662.4z"/>
	<path id="path13" inkscape:connector-curvature="0" class="st0" d="M808.5,507.3h-9.8c-12.9-18.7-25.8-37.3-38.5-58.4h-0.2v58.4
		H749v-81.4h9.9c12.9,18.6,25.7,37.1,38.5,58h0.2v-58h10.9V507.3z"/>
	<path id="path15" inkscape:connector-curvature="0" class="st0" d="M852.9,425.8l25.3,81.4H863l-6.3-22.2h-23.9l-6.9,22.2h-11.7
		l27.5-81.4H852.9z M854.8,475c-2.9-10.7-5.8-20.6-9-33.2h-0.2c-2.8,12.6-6,22.5-9.2,33.2H854.8z"/>
	<path id="path17" inkscape:connector-curvature="0" class="st0" d="M892.4,507.3v-70.5h-20.8v-10.9h55.2v10.9H906v70.5H892.4z"/>
	<path id="path19" inkscape:connector-curvature="0" class="st0" d="M1012.8,471.6v32.2c-6.9,2.8-14.2,4.8-21.6,4.8
		c-22.3,0-36.4-17.8-36.4-40.8c0-21.3,14-39.8,36.8-39.8c7.1,0,14.2,2.7,18.4,6l-4.1,9.2c-3.5-2.2-9-4.1-13.9-4.1
		c-13.8,0-23.3,11.2-23.3,28.9c0,18.5,10.9,29.4,22.1,29.4c3.5,0,6.4-0.4,9.1-1.9v-23.9H1012.8z"/>
	<path id="path21" inkscape:connector-curvature="0" class="st0" d="M1061.1,439.8h-21.7v21.4h21.2v10.5h-21.2v25.2h25.6v10.5h-38.6
		v-77.9h34.7V439.8z"/>
	<path id="path23" inkscape:connector-curvature="0" class="st0" d="M1070.6,467.2c0-21.8,13.7-39.2,32.2-39.2
		c18.5,0,32.2,17.4,32.2,39.2c0,23.3-12.4,41.4-32.2,41.4C1083,508.6,1070.6,490.5,1070.6,467.2 M1121.2,467.2
		c0-14.4-5.4-28.1-18.3-28.1c-12.9,0-18.4,13.7-18.4,28.1c0,14.9,4.8,30.3,18.4,30.3C1116.4,497.5,1121.2,482.1,1121.2,467.2"/>
	<path id="path25" inkscape:connector-curvature="0" class="st1" d="M514.4,427.5H701v267.3H514.4V427.5z M674,454.4H541.3v213.5
		H674V454.4z"/>
</g>
</svg>
