<?xml version="1.0" encoding="utf-8"?>
<!-- Generator: Adobe Illustrator 21.1.0, SVG Export Plug-In . SVG Version: 6.00 Build 0)  -->
<svg version="1.1"
	 id="svg15018" inkscape:version="0.91 r13725" sodipodi:docname="BBC_Entertainment_Logo.svg" xmlns:cc="http://creativecommons.org/ns#" xmlns:dc="http://purl.org/dc/elements/1.1/" xmlns:inkscape="http://www.inkscape.org/namespaces/inkscape" xmlns:rdf="http://www.w3.org/1999/02/22-rdf-syntax-ns#" xmlns:sodipodi="http://sodipodi.sourceforge.net/DTD/sodipodi-0.dtd" xmlns:svg="http://www.w3.org/2000/svg"
	 xmlns="http://www.w3.org/2000/svg" xmlns:xlink="http://www.w3.org/1999/xlink" x="0px" y="0px" viewBox="0 0 512 130.7"
	 style="enable-background:new 0 0 512 130.7;" xml:space="preserve">
<style type="text/css">
	.st0{fill:#231F20;}
</style>
<sodipodi:namedview  bordercolor="#666666" borderopacity="1" gridtolerance="10" guidetolerance="10" id="namedview9126" inkscape:current-layer="svg15018" inkscape:cx="8.8525121" inkscape:cy="75.102097" inkscape:pageopacity="0" inkscape:pageshadow="2" inkscape:window-height="864" inkscape:window-maximized="0" inkscape:window-width="1248" inkscape:window-x="0" inkscape:window-y="0" inkscape:zoom="0.5" objecttolerance="10" pagecolor="#ffffff" showgrid="false">
	</sodipodi:namedview>
<g id="layer1" transform="matrix(0.88176319,0,0,0.88176319,-72.703242,-332.59677)">
	<path id="path10516" inkscape:connector-curvature="0" class="st0" d="M293.1,392.1v11h4.2c0.9-0.1,1.8-0.1,2.7-0.3
		c0.9-0.1,1.8-0.5,2.6-0.9c0.7-0.5,1.4-1,1.8-1.8c0.5-0.8,0.7-1.8,0.7-2.7c0.1-1.3-0.3-2.6-1.2-3.5c-0.6-0.6-1.4-1.1-2.2-1.3
		c-1.3-0.4-2.6-0.6-3.9-0.5C296.3,392.1,294.7,392.1,293.1,392.1L293.1,392.1z M365.4,392.1v11h4.2c1.1-0.1,2.2-0.1,3.3-0.4
		c1-0.2,2-0.6,2.8-1.2c0.7-0.5,1.2-1.4,1.5-2.2c0.4-1.1,0.4-2.3,0.2-3.4c-0.2-0.9-0.7-1.7-1.4-2.3c-0.7-0.6-1.7-0.9-2.6-1.1
		c-1.1-0.3-2.2-0.4-3.3-0.3C368.5,392.1,367,392.1,365.4,392.1L365.4,392.1z M293.1,409.8v11.6h8.3c1-0.1,2.1-0.2,3.1-0.5
		c1.1-0.3,2.1-0.8,3-1.6c0.7-0.7,1.2-1.7,1.4-2.6c0.2-1,0.1-2.1-0.3-3.1c-0.5-1-1.2-1.8-2.2-2.3c-1-0.6-2.1-1-3.3-1.1
		c-1-0.2-2-0.3-3-0.3C297.8,409.8,295.5,409.8,293.1,409.8z M365.4,409.8v11.6h8.4c1.1-0.1,2.2-0.3,3.3-0.6c1.1-0.4,2.2-0.9,3-1.8
		c1-1,1.4-2.5,1.3-3.9c0-0.9-0.4-1.8-0.9-2.5c-0.7-0.9-1.7-1.6-2.8-2c-0.9-0.4-1.9-0.5-2.9-0.7c-1.2-0.2-2.4-0.1-3.6-0.1
		C369.3,409.8,367.3,409.8,365.4,409.8L365.4,409.8z M268.9,377.2v59.1h62.8v-59.1H268.9L268.9,377.2z M341.3,377.2v59.1h62.8v-59.1
		H341.3L341.3,377.2z M413.7,377.2v59.1h62.8v-59.1H413.7L413.7,377.2z M447.1,384.9c2.1,0,4.2,0.2,6.2,0.5c1.8,0.4,3.6,0.8,5.4,1.4
		c1.6,0.5,3.3,1.1,4.9,1.8c0.1,2.6,0,5.3,0,7.9c-0.8-0.5-1.7-0.9-2.5-1.3c-1.9-0.9-3.8-1.7-5.7-2.3c-2.1-0.6-4.1-1-6.3-1.1
		c-2.7-0.1-5.1,0.2-7.5,1c-2,0.7-4.2,1.8-5.9,3.5c-1.1,1-2,2.1-2.8,3.5c-0.6,1.1-1.1,2.4-1.4,3.6c-0.5,2.6-0.5,5.4,0.2,7.9
		c0.4,1.3,0.9,2.5,1.7,3.6c1,1.6,2.6,3,4.1,4c0.8,0.6,2,1.1,2.9,1.6c2.8,1.1,6.1,1.6,9.2,1.3c3.6-0.2,7.2-1.3,10.5-2.8
		c1.4-0.6,2.9-1.5,4.1-2.3v8.1c-0.7,0.3-1.4,0.6-2.2,1c-1.3,0.5-2.4,1-3.6,1.3c-1.8,0.6-3.7,0.9-5.6,1.2c-2.5,0.2-5.1,0.4-7.7,0.2
		c-3.1-0.2-6.1-0.9-8.8-2.1c-2.3-1-4.3-2.3-6-3.8c-1.7-1.6-3.2-3.4-4.3-5.5c-1.2-2.1-2-4.3-2.4-6.5c-0.7-4.6,0-9.5,2.3-13.6
		c0.8-1.7,2-3.1,3.1-4.3c1-1.1,2.2-2.2,3.5-3.1c2-1.3,4.2-2.5,6.6-3.3c2-0.7,4-1,6-1.2C445.7,384.9,446.4,384.9,447.1,384.9
		L447.1,384.9z M285.4,385.5c3.6,0,7.3,0,10.9,0c3.6-0.1,7.3,0,10.6,1.7c4,1.9,6.7,6.4,6,10.9c-0.2,3.2-2.5,6-5.3,7.2
		c1.6,0.5,3.2,1.1,4.6,2.1c4.5,2.8,6.1,9.3,3.5,13.9c-2.3,4.5-7.7,6.4-12.5,6.7c-5.9,0.2-11.8,0-17.6,0.1L285.4,385.5L285.4,385.5z
		 M357.8,385.5c2.3,0,4.6,0,6.8,0c4.6,0.2,9.3-0.7,13.6,1.2c4.6,1.5,7.8,6.5,7,11.3c-0.2,3.2-2.5,6-5.3,7.2c1.8,0.5,3.6,1.4,5.1,2.5
		c4.1,3,5.5,9,2.9,13.5c-2.4,4.5-7.7,6.4-12.5,6.7c-5.9,0.2-11.8,0-17.7,0.1v-42.5H357.8z"/>
	<path id="path10544" inkscape:connector-curvature="0" class="st0" d="M198.6,454.9v16.5H189v5.3h9.6v47.5h5.3v-47.5h9.6v-5.3h-9.6
		v-16.5L198.6,454.9L198.6,454.9z M305.6,454.9v16.5H296v5.3h9.6v47.5h5.3v-47.5h9.6v-5.3h-9.6v-16.5L305.6,454.9L305.6,454.9z
		 M384.5,454.9v10.2h5.2v-10.2H384.5z M648.3,454.9v16.5h-9.7v5.3h9.7v47.5h5.3v-47.5h9.6v-5.3h-9.6v-16.5L648.3,454.9L648.3,454.9z
		 M109.2,469.8c-14.8,0-26.8,12.5-26.8,27.9c0,15.5,11.9,27.7,27.2,27.7c11.5,0,20.5-6.4,25.4-18l0.6-1.3h-5.5l-0.3,0.6
		c-4,9-11.2,14-20.3,14c-12.2,0-20.8-8.3-21.9-20.8h49.2v-1C136.4,481.5,125.3,469.8,109.2,469.8L109.2,469.8z M241.2,469.8
		c-14.8,0-26.8,12.5-26.8,27.9c0,15.5,11.9,27.7,27.2,27.7c11.5,0,20.5-6.4,25.4-18l0.6-1.3h-5.5l-0.3,0.6c-4,9-11.2,14-20.3,14
		c-12.2,0-20.8-8.3-21.9-20.8h49.2v-1C268.4,481.5,257.3,469.8,241.2,469.8L241.2,469.8z M558.4,469.8c-14.8,0-26.8,12.5-26.8,27.9
		c0,15.5,12,27.7,27.3,27.7c11.5,0,20.6-6.4,25.4-18l0.6-1.3h-5.5l-0.3,0.6c-4,9-11.2,14-20.3,14c-12.2,0-20.8-8.3-21.9-20.8H586v-1
		C585.6,481.5,574.5,469.8,558.4,469.8L558.4,469.8z M347.8,470c-15.4,0-27.1,11.8-27.1,27.5c0,15.7,11.9,27.9,27.1,27.9
		c8.8,0,15.8-3.7,21.8-11.4v10.1h5v-52.7h-5v10C364.3,473.8,357,470,347.8,470L347.8,470z M164.2,470.3c-6.8,0-12.2,2.5-16.4,7.6
		v-6.6h-5.2V524h5v-27.2c0-5.9,0-10.5,2.8-14.5c3.4-4.8,7.9-7.1,13.9-7.1c11.3,0,16.8,6.8,16.8,20.8v28h5v-28.6
		c0-6.3-0.3-11.9-4-16.8C177.9,473,172.2,470.3,164.2,470.3L164.2,470.3z M420.4,470.4c-6.8,0-12.1,2.5-16.4,7.5v-6.6h-5.2V524h5
		v-27.2c0-5.9,0-10.5,2.8-14.5c3.4-4.8,7.9-7.1,13.8-7.1c11.3,0,16.8,6.8,16.8,20.8v28h5v-28.6c0-6.3-0.3-11.9-4-16.8
		C434.1,473,428.4,470.4,420.4,470.4L420.4,470.4z M470.8,470.4c-6.1,0-10.9,2.4-14.6,7.2v-6.3H451V524h5v-27.2
		c0-5.9,0-10.5,2.6-14.7c3-4.7,7-7,12.3-7c9.9,0,15,7,15,20.8v28h5v-27.2c0-5.9,0-10.5,2.6-14.7c3-4.7,7-7,12.3-7
		c9.9,0,15,7,15,20.8v28h5v-30.1c0-14.5-7.7-23.5-20.1-23.5c-7.5,0-13.4,3.9-17,11.3C485.3,474.4,479.1,470.4,470.8,470.4z
		 M613.4,470.4c-6.8,0-12.2,2.5-16.4,7.5v-6.6h-5.2V524h5v-27.2c0-5.9,0-10.5,2.8-14.5c3.4-4.8,7.9-7.1,13.9-7.1
		c11.3,0,16.8,6.8,16.8,20.8v28h5v-28.6c0-6.3-0.3-11.9-4-16.8C627.1,473,621.4,470.4,613.4,470.4z M291.3,470.5l-1,0.1
		c-4.2,0.2-7.3,1.7-10.3,4.9v-4.1h-5.3v52.7h5.3v-34.9c0-8.8,2.8-12.1,10.5-12.8l0.9-0.1v-5.8H291.3z M384,471.3V524h5.2v-52.7H384z
		 M109.8,474.3c11.4,0,19.6,7.8,21.5,20.4H87.7C89.7,482.3,98.2,474.3,109.8,474.3z M241.8,474.3c11.4,0,19.6,7.8,21.5,20.4h-43.6
		C221.6,482.3,230.2,474.3,241.8,474.3L241.8,474.3z M559,474.3c11.4,0,19.6,7.8,21.5,20.4h-43.6C538.8,482.3,547.4,474.3,559,474.3
		z M347.6,474.5c12.3,0,21.9,10.4,21.9,23.6c0,12.1-10,22.6-21.4,22.6c-12.2,0-22.1-10.3-22.1-23.1
		C325.9,484.7,335.5,474.5,347.6,474.5z"/>
</g>
</svg>
