<?xml version="1.0" encoding="utf-8"?>
<!-- Generator: Adobe Illustrator 21.1.0, SVG Export Plug-In . SVG Version: 6.00 Build 0)  -->
<svg version="1.1"
	 id="svg2" inkscape:version="0.48.1 " sodipodi:docname="RTL_NITRO.svg" xmlns:cc="http://creativecommons.org/ns#" xmlns:dc="http://purl.org/dc/elements/1.1/" xmlns:inkscape="http://www.inkscape.org/namespaces/inkscape" xmlns:rdf="http://www.w3.org/1999/02/22-rdf-syntax-ns#" xmlns:sodipodi="http://sodipodi.sourceforge.net/DTD/sodipodi-0.dtd" xmlns:svg="http://www.w3.org/2000/svg"
	 xmlns="http://www.w3.org/2000/svg" xmlns:xlink="http://www.w3.org/1999/xlink" x="0px" y="0px" viewBox="0 0 340 80.8"
	 style="enable-background:new 0 0 340 80.8;" xml:space="preserve">
<style type="text/css">
	.st0{fill:#BFBDC2;}
	.st1{fill:#BAE637;}
</style>
<sodipodi:namedview  bordercolor="#666666" borderopacity="1.0" fit-margin-bottom="5" fit-margin-left="5" fit-margin-right="5" fit-margin-top="5" id="base" inkscape:current-layer="layer1" inkscape:cx="202.59146" inkscape:cy="-52.704879" inkscape:document-units="px" inkscape:pageopacity="0.0" inkscape:pageshadow="2" inkscape:window-height="1028" inkscape:window-maximized="1" inkscape:window-width="1618" inkscape:window-x="-8" inkscape:window-y="-8" inkscape:zoom="1.1548016" pagecolor="#ffffff" showgrid="false">
	</sodipodi:namedview>
<path id="path3843" inkscape:connector-curvature="0" class="st0" d="M0,0v80.7h18.5V28.8l31.2,51.8h17.5V0H48.7v51.8L17.5,0H0z
	 M78,0v80.7h20.5V0H78z M106.3,0v17.4h16.1v63.2h20.5V17.4H159V0H106.3z M165.7,0v80.7l20.5,0.1V17.9h20.6c6.2,0,11.2,5.1,11.2,11.5
	s-5,11.4-11.2,11.4h-18.7l28.3,39.8h23.4l-21.2-26.7c11.6-3,20.2-13.7,20.2-26.5c0-15.2-12-27.4-26.8-27.4C212,0,165.7,0,165.7,0z
	 M282.7,0c-22.6,0-40.9,18.1-40.9,40.3s18.3,40.3,40.9,40.3s40.9-18.1,40.9-40.3S305.3,0,282.7,0z M282.7,17.8
	c11.8,0,21.4,10.1,21.4,22.5s-9.6,22.4-21.4,22.4s-21.4-10-21.4-22.4S270.9,17.8,282.7,17.8z"/>
<rect x="322.5" y="62.2" class="st1" width="17.5" height="17.5"/>
</svg>
