<?xml version="1.0" encoding="utf-8"?>
<!-- Generator: Adobe Illustrator 21.1.0, SVG Export Plug-In . SVG Version: 6.00 Build 0)  -->
<svg version="1.1"
	 id="svg2" inkscape:output_extension="org.inkscape.output.svg.inkscape" inkscape:version="0.91 r13725" sodipodi:docname="BBC_World_News-white.svg" sodipodi:version="0.32" xmlns:cc="http://creativecommons.org/ns#" xmlns:dc="http://purl.org/dc/elements/1.1/" xmlns:inkscape="http://www.inkscape.org/namespaces/inkscape" xmlns:rdf="http://www.w3.org/1999/02/22-rdf-syntax-ns#" xmlns:sodipodi="http://sodipodi.sourceforge.net/DTD/sodipodi-0.dtd" xmlns:svg="http://www.w3.org/2000/svg"
	 xmlns="http://www.w3.org/2000/svg" xmlns:xlink="http://www.w3.org/1999/xlink" x="0px" y="0px" viewBox="0 0 512 46.4"
	 style="enable-background:new 0 0 512 46.4;" xml:space="preserve">
<style type="text/css">
	.st0{clip-path:url(#SVGID_2_);}
	.st1{fill:#231F20;}
</style>
<defs>
	
	
		<inkscape:perspective  id="perspective10" inkscape:persp3d-origin="372.04724 : 350.78739 : 1" inkscape:vp_x="0 : 526.18109 : 1" inkscape:vp_y="0 : 1000 : 0" inkscape:vp_z="744.09448 : 526.18109 : 1" sodipodi:type="inkscape:persp3d">
		</inkscape:perspective>
	
		<inkscape:perspective  id="perspective2390" inkscape:persp3d-origin="372.04724 : 350.78739 : 1" inkscape:vp_x="0 : 526.18109 : 1" inkscape:vp_y="0 : 1000 : 0" inkscape:vp_z="744.09448 : 526.18109 : 1" sodipodi:type="inkscape:persp3d">
		</inkscape:perspective>
</defs>
<sodipodi:namedview  bordercolor="#666666" borderopacity="1.0" id="base" inkscape:current-layer="layer1" inkscape:cx="473.86011" inkscape:cy="113.81905" inkscape:document-units="px" inkscape:pageopacity="0.0" inkscape:pageshadow="2" inkscape:window-height="1023" inkscape:window-maximized="0" inkscape:window-width="1335" inkscape:window-x="142" inkscape:window-y="15" inkscape:zoom="0.5" pagecolor="#ffffff" showgrid="false">
	</sodipodi:namedview>
<g id="layer1" transform="translate(0,192)" inkscape:groupmode="layer" inkscape:label="Ebene 1">
	<g id="g2502" transform="matrix(1.9190039,0,0,-1.9190039,-231.58155,261.72433)">
		<g>
			<defs>
				<polygon id="SVGID_1_" points="95,199.7 430.3,199.7 430.3,248.6 95,248.6 95,199.7 				"/>
			</defs>
			<clipPath id="SVGID_2_">
				<use xlink:href="#SVGID_1_"  style="overflow:visible;"/>
			</clipPath>
			<g id="g2504" class="st0">
				<path id="path2510" inkscape:connector-curvature="0" class="st1" d="M330.5,233h2.4v-17.4h-2.1L319.1,229v-13.4h-2.3V233h2
					l11.7-13.5L330.5,233L330.5,233z"/>
				<path id="path2512" inkscape:connector-curvature="0" class="st1" d="M337.3,233h9.8v-2.2h-7.4v-5.3h7.1v-2.2h-7.1v-5.4h7.6
					v-2.2h-10.1V233z"/>
				<path id="path2514" inkscape:connector-curvature="0" class="st1" d="M373.7,233h2.5l-7-17.4h-0.5l-5.7,14.1l-5.7-14.1h-0.5
					l-7,17.4h2.5l4.8-12l4.8,12h2.3l4.8-12L373.7,233L373.7,233z"/>
				<path id="path2516" inkscape:connector-curvature="0" class="st1" d="M382.9,223l-1.9,1.1c-1.2,0.7-2,1.4-2.5,2.1
					c-0.5,0.7-0.8,1.5-0.8,2.4c0,1.4,0.5,2.5,1.4,3.3c0.9,0.9,2.2,1.3,3.7,1.3c1.4,0,2.8-0.4,4-1.2v-2.8c-1.3,1.2-2.6,1.8-4,1.8
					c-0.8,0-1.5-0.2-2-0.6s-0.8-0.9-0.8-1.4c0-0.5,0.2-1,0.6-1.5c0.4-0.5,1-0.9,1.9-1.4l1.9-1.1c2.1-1.3,3.2-2.9,3.2-4.8
					c0-1.4-0.5-2.5-1.4-3.4c-0.9-0.9-2.1-1.3-3.6-1.3c-1.7,0-3.3,0.5-4.7,1.6v3.2c1.3-1.7,2.9-2.6,4.7-2.6c0.8,0,1.4,0.2,1.9,0.6
					c0.5,0.4,0.8,1,0.8,1.6C385.1,221,384.4,222,382.9,223"/>
				<path id="path2518" inkscape:connector-curvature="0" class="st1" d="M236.4,233h2.5l-7-17.4h-0.5l-5.7,14.1l-5.7-14.1h-0.5
					l-7,17.4h2.5l4.8-12l4.8,12h2.3l4.8-12L236.4,233L236.4,233z"/>
				<path id="path2520" inkscape:connector-curvature="0" class="st1" d="M248.6,230.9c-2,0-3.6-0.6-4.9-1.9
					c-1.3-1.2-1.9-2.8-1.9-4.8c0-1.9,0.6-3.4,1.9-4.7s2.9-1.9,4.8-1.9c1.9,0,3.6,0.6,4.8,1.9c1.3,1.3,1.9,2.8,1.9,4.7
					c0,1.8-0.6,3.4-1.9,4.6C252.1,230.3,250.5,230.9,248.6,230.9 M248.5,233.3c2.7,0,4.9-0.8,6.7-2.5c1.8-1.7,2.7-3.8,2.7-6.4
					c0-2.6-0.9-4.7-2.7-6.4c-1.8-1.7-4.1-2.5-6.8-2.5c-2.6,0-4.8,0.8-6.5,2.5c-1.7,1.7-2.6,3.8-2.6,6.3c0,2.6,0.9,4.7,2.6,6.4
					C243.6,232.4,245.8,233.3,248.5,233.3"/>
				<path id="path2522" inkscape:connector-curvature="0" class="st1" d="M264,230.9h-0.7v-5.5h0.9c1.3,0,2.1,0.1,2.6,0.3
					c0.5,0.2,0.8,0.5,1.1,1c0.3,0.4,0.4,0.9,0.4,1.5c0,0.5-0.1,1-0.4,1.5c-0.3,0.4-0.7,0.8-1.2,0.9
					C266.1,230.8,265.2,230.9,264,230.9 M260.8,215.7V233h4.3c1.8,0,3.1-0.4,4.2-1.3c1-0.9,1.5-2,1.5-3.5c0-1-0.3-1.9-0.8-2.6
					c-0.5-0.7-1.2-1.3-2.2-1.7c0.6-0.4,1.1-0.9,1.6-1.5s1.3-1.7,2.2-3.3c0.6-1,1.1-1.7,1.5-2.2l0.9-1.2h-3l-0.8,1.1
					c0,0-0.1,0.1-0.1,0.2l-0.5,0.7L269,219l-0.8,1.4c-0.5,0.7-1,1.3-1.4,1.7c-0.4,0.4-0.8,0.7-1.2,0.9c-0.3,0.2-0.9,0.3-1.7,0.3
					h-0.6v-7.6L260.8,215.7L260.8,215.7z"/>
				<path id="path2524" inkscape:connector-curvature="0" class="st1" d="M276.6,233h2.5v-15.1h7.8v-2.3h-10.3V233z"/>
				<path id="path2526" inkscape:connector-curvature="0" class="st1" d="M295.4,230.8h-3.1v-12.9h3.2c1.2,0,2.2,0.1,2.9,0.3
					c0.7,0.2,1.3,0.4,1.7,0.6c0.5,0.3,0.9,0.6,1.3,1c1.2,1.2,1.8,2.8,1.8,4.7c0,1.9-0.6,3.4-1.9,4.6c-0.5,0.4-1,0.8-1.6,1.1
					c-0.6,0.3-1.2,0.5-1.7,0.6C297.5,230.8,296.6,230.8,295.4,230.8 M289.8,215.7V233h5.9c2.4,0,4.2-0.4,5.6-1.1
					c1.4-0.7,2.5-1.8,3.3-3.1c0.8-1.4,1.2-2.9,1.2-4.5c0-1.2-0.2-2.3-0.7-3.3c-0.4-1.1-1.1-2-1.9-2.8c-0.8-0.8-1.8-1.5-2.9-1.9
					c-0.7-0.3-1.3-0.4-1.8-0.5c-0.5-0.1-1.6-0.1-3.1-0.1L289.8,215.7L289.8,215.7z"/>
				<path id="path2528" inkscape:connector-curvature="0" class="st1" d="M200.3,220.3l-0.4-0.3c-2-1.2-4.1-1.9-6.1-1.9
					c-4.2,0-7,2.5-7,6.1c0,3.5,2.9,6.2,6.9,6.2c2,0,3.9-0.5,6-1.7l0.4-0.2v3.2l-0.2,0.1c-2.5,1-4.4,1.4-6.2,1.4
					c-2.9,0-5.4-1-7.2-2.6s-2.9-3.9-2.9-6.6c0-1.8,0.8-4,2.4-5.7s4.1-3,7.5-3h0c2.8,0,4.8,0.6,6.6,1.5l0.2,0.1L200.3,220.3
					L200.3,220.3z M205.4,212.3h-25.6v24.1h25.6V212.3z M140.2,220.4c0,2.2-1.5,3.9-3.8,4.5c0.6,0.3,1.1,0.7,1.5,1.2
					c0.5,0.6,0.7,1.4,0.7,2.4c0,1.1-0.4,2.3-1.4,3.1c-1,0.9-2.4,1.4-4.4,1.4h-5.5v-17.4h6.4h0c2.3,0,3.9,0.6,4.9,1.5
					C139.8,218.1,140.2,219.3,140.2,220.4 M146.3,212.3h-25.6v24.1h25.6V212.3z M136.2,222.4c-0.6,0.4-1.5,0.7-2.8,0.7h-2.8v-4.7h3
					c1.5,0,2.4,0.3,2.9,0.8s0.7,1,0.7,1.6C137,221.5,136.8,222,136.2,222.4 M134.6,226.4c0.5,0.4,0.8,1,0.8,1.8
					c0,0.6-0.2,1.1-0.6,1.4c-0.4,0.4-1.1,0.6-2.3,0.6h-2.1v-4.5h1.4C133.2,225.8,134.1,226,134.6,226.4 M169.8,220.4
					c0,2.2-1.5,3.9-3.8,4.5c0.6,0.3,1.1,0.7,1.5,1.2c0.5,0.6,0.7,1.4,0.7,2.4c0,1.1-0.4,2.3-1.4,3.1c-1,0.9-2.4,1.4-4.4,1.4H157
					v-17.4h6.4h0c2.3,0,3.9,0.6,4.9,1.5S169.8,219.3,169.8,220.4 M175.9,212.3h-25.6v24.1h25.6V212.3z M164.2,226.4
					c0.6,0.4,0.8,1,0.8,1.8c0,0.6-0.2,1.1-0.6,1.4s-1.1,0.6-2.3,0.6h-2.1v-4.5h1.4C162.7,225.8,163.6,226,164.2,226.4 M166.6,220.8
					c0-0.6-0.2-1.2-0.7-1.6s-1.4-0.8-2.9-0.8h-3v4.7h2.8c1.3,0,2.3-0.3,2.8-0.7C166.3,222,166.6,221.5,166.6,220.8"/>
			</g>
		</g>
	</g>
</g>
</svg>
