<?xml version="1.0" encoding="utf-8"?>
<!-- Generator: Adobe Illustrator 22.1.0, SVG Export Plug-In . SVG Version: 6.00 Build 0)  -->
<svg version="1.1" id="Ebene_1" xmlns="http://www.w3.org/2000/svg" xmlns:xlink="http://www.w3.org/1999/xlink" x="0px" y="0px"
	 viewBox="0 0 661.3 624.7" style="enable-background:new 0 0 661.3 624.7;" xml:space="preserve">
<style type="text/css">
	.st0{fill:#FF3F30;}
</style>
<g>
	<polyline class="st0" points="0,621.4 75.3,621.4 75.3,580.2 150.3,580.2 150.3,505.8 75.3,505.8 75.3,463.4 0,463.4 	"/>
	<polyline class="st0" points="0,294.5 150.3,294.5 150.3,157.8 75.1,157.8 75.1,219.4 0,219.4 	"/>
	<polyline class="st0" points="0,451.2 150.3,451.2 150.3,307.4 99.3,307.4 99.3,375.9 87.2,375.9 87.2,307.4 63,307.4 63,375.9 
		50.8,375.9 50.8,307.4 0,307.4 	"/>
	<polyline class="st0" points="63,69.5 50.8,69.5 50.8,1 0,1 0,144.8 150.3,144.8 150.3,1 99.3,1 99.3,69.5 87.2,69.5 87.2,1 63,1 	
		"/>
	<g>
		<polyline class="st0" points="177.5,0.9 177.5,356.2 427.7,356.2 427.7,210.6 634.3,210.6 634.3,0.9 		"/>
		<path class="st0" d="M506,603.1C636.9,546,696.7,393.7,639.6,262.8l-474,206.7C222.8,600.4,375.1,660.2,506,603.1"/>
	</g>
</g>
</svg>
