<?xml version="1.0" encoding="utf-8"?>
<!-- Generator: Adobe Illustrator 21.1.0, SVG Export Plug-In . SVG Version: 6.00 Build 0)  -->
<svg version="1.1"
	 id="svg3457" inkscape:version="0.91 r13725" sodipodi:docname="Arte_Logo_2011.svg" xmlns:cc="http://creativecommons.org/ns#" xmlns:dc="http://purl.org/dc/elements/1.1/" xmlns:inkscape="http://www.inkscape.org/namespaces/inkscape" xmlns:rdf="http://www.w3.org/1999/02/22-rdf-syntax-ns#" xmlns:sodipodi="http://sodipodi.sourceforge.net/DTD/sodipodi-0.dtd" xmlns:svg="http://www.w3.org/2000/svg"
	 xmlns="http://www.w3.org/2000/svg" xmlns:xlink="http://www.w3.org/1999/xlink" x="0px" y="0px" viewBox="0 0 512 124.4"
	 style="enable-background:new 0 0 512 124.4;" xml:space="preserve">
<style type="text/css">
	.st0{fill:#FA481C;}
</style>
<sodipodi:namedview  bordercolor="#666666" borderopacity="1" gridtolerance="10" guidetolerance="10" id="namedview3469" inkscape:current-layer="svg3457" inkscape:cx="171.27899" inkscape:cy="52.5" inkscape:pageopacity="0" inkscape:pageshadow="2" inkscape:window-height="851" inkscape:window-maximized="0" inkscape:window-width="1331" inkscape:window-x="0" inkscape:window-y="0" inkscape:zoom="0.5" objecttolerance="10" pagecolor="#ffffff" showgrid="false">
	</sodipodi:namedview>
<g id="_x23_ffffffff" transform="matrix(1.2047708,0,0,1.2047708,51.452809,102.73982)">
</g>
<g id="_x23_fa481cff" transform="matrix(1.5059635,0,0,1.5059635,0.041139,82.29469)">
	<path id="path3461" inkscape:connector-curvature="0" class="st0" d="M186.9-54.6h33.7c0,5,0,10,0,15c6.7,0.1,13.4,0,20,0
		c0,7.1,0,14.1,0,21.2c-6.7,0-13.3,0-20,0c-0.1,15.3,0.1,30.5,0.2,45.8c-7.8,0.4-15.7,1.3-23.4-0.3c-5.4-1-9.8-6-9.8-11.5
		c-0.7-11.3-0.6-22.6-0.6-33.9c-4.6,0-9.2,0-13.8,0c0-7.1,0-14.1,0-21.2c4.6,0,9.2,0.1,13.9-0.1C186.8-44.7,186.9-49.7,186.9-54.6z"
		/>
	<path id="path3463" inkscape:connector-curvature="0" class="st0" d="M39.2-40.8c13.3-1.5,27.5-0.9,39.5,5.6
		c6.6,3.3,12,9.9,11.6,17.5c-0.2,15.1,0.3,30.2,0.2,45.3c-11.2,0-22.4,0-33.6,0c0-6.3,0-12.7,0-19c-5.2,1.4-10.4,2.8-15.3,5.1
		c-2.9,1.5-6.1,4.1-5.7,7.8c0.6,2.4,2.3,4.2,3.8,6.1c-10.5,0.1-21,0-31.5,0.1c-3.9,0.5-6.7-3.2-7.8-6.5c-1-5-0.7-10.8,2.6-15
		c5.2-7,14.3-9,22.3-10.6C31.3-4.9,37-6.3,42.8-7c3.8-0.5,7.7-1.2,11.3-2.5c2.7-1.1,3.3-4.6,2-6.9c-1.1-2.2-3.7-3-5.9-3.4
		c-4.1-0.6-8.7-0.5-12.1,2c-1.9,1.4-2.4,3.9-2.8,6.1c-10.8,0-21.5,0-32.2,0c1-7.6,4.5-15,10.5-19.8C20.7-37.5,30.2-39.6,39.2-40.8z"
		/>
	<path id="path3465" inkscape:connector-curvature="0" class="st0" d="M139.5-31.7c5-8.9,16.9-11.3,26-7.9c0.1,7.1,0,14.1,0,21.2
		c-5.6,0.2-11.4-0.6-16.8,1.4c-4.4,1.8-6.9,6.6-6.9,11.2c-0.1,11.1,0,22.2-0.1,33.3c-11.4-0.1-22.8,0.2-34.1-0.2
		c0.1-22.3,0.1-44.5,0-66.8c10.5,0,20.9,0,31.4,0C138.9-36.8,138.7-34.2,139.5-31.7L139.5-31.7z"/>
	<path id="path3467" inkscape:connector-curvature="0" class="st0" d="M272.7-38c13.2-4.1,27.8-4.5,40.9,0.2c7.6,2.5,14.4,7.4,19,14
		c7,9.9,8.2,22.7,6.9,34.4c-19.7,0-39.5,0-59.2,0c-0.1,5.6,0,11.2,0,16.8c-8.4-0.1-16.7,0.2-25.1-0.1c-2.2-1.6-3.3-4.2-4.5-6.5
		c-5.6-10.2-6.4-22.8-3.1-33.9C250.9-25.1,261-34.5,272.7-38 M286.9-19.1c-5.1,1.7-7.9,7.1-7.7,12.3c9.2,0.1,18.5-0.2,27.7-0.2
		c-0.7-3-1.2-6.3-3.4-8.7C299.6-20.6,292.4-20.7,286.9-19.1z"/>
</g>
</svg>
