<?xml version="1.0" encoding="utf-8"?>
<!-- Generator: Adobe Illustrator 21.1.0, SVG Export Plug-In . SVG Version: 6.00 Build 0)  -->
<svg version="1.1"
	 id="Layer_1" inkscape:version="0.91 r13725" sodipodi:docname="CNBC_logo.svg" xmlns:cc="http://creativecommons.org/ns#" xmlns:dc="http://purl.org/dc/elements/1.1/" xmlns:inkscape="http://www.inkscape.org/namespaces/inkscape" xmlns:rdf="http://www.w3.org/1999/02/22-rdf-syntax-ns#" xmlns:sodipodi="http://sodipodi.sourceforge.net/DTD/sodipodi-0.dtd" xmlns:svg="http://www.w3.org/2000/svg"
	 xmlns="http://www.w3.org/2000/svg" xmlns:xlink="http://www.w3.org/1999/xlink" x="0px" y="0px" viewBox="0 0 386.4 288"
	 style="enable-background:new 0 0 386.4 288;" xml:space="preserve">
<style type="text/css">
	.st0{fill:#FFFFFF;}
	.st1{fill:#0089D0;}
	.st2{fill:#6460AA;}
	.st3{fill:#CE1141;}
	.st4{fill:#F37021;}
	.st5{fill:#FDB913;}
	.st6{fill:#0DB14B;}
</style>
<sodipodi:namedview  bordercolor="#666666" borderopacity="1" gridtolerance="10" guidetolerance="10" id="namedview6092" inkscape:current-layer="Layer_1" inkscape:cx="136.2095" inkscape:cy="101.5355" inkscape:pageopacity="0" inkscape:pageshadow="2" inkscape:window-height="852" inkscape:window-maximized="0" inkscape:window-width="1322" inkscape:window-x="0" inkscape:window-y="0" inkscape:zoom="1" objecttolerance="10" pagecolor="#ffffff" showgrid="false">
	</sodipodi:namedview>
<g id="g6066" transform="matrix(1.4182252,0,0,1.4182252,62.00051,-4.095892e-4)">
	<g id="g6068">
		<path id="path6070" inkscape:connector-curvature="0" d="M4,172.3c-1-4.9-5-6.2-9.5-6.6c-14.4-1.3-17,9.5-17,14
			c0,7.8,2.3,14.3,16.5,14.3c2.6,0,9.8-2.7,9.8-7.1h20.4c-0.8,13-22.6,16.1-32.1,16.1c-19.7,0-36.6-3.7-35.7-23.1
			c0.6-13.9,13.7-23.6,39.7-23c14.5,0.3,28.5,4.9,28.5,15.4L4,172.3L4,172.3z"/>
		<path id="path6072" inkscape:connector-curvature="0" d="M208.2,172.3c-1-4.9-5-6.2-9.5-6.6c-14.4-1.3-17,9.5-17,14
			c0,7.8,2.3,14.3,16.5,14.3c2.6,0,9.8-2.7,9.8-7.1h20.4c-0.8,13-22.6,16.1-32.1,16.1c-19.7,0-36.6-3.7-35.7-23.1
			c0.6-13.9,13.7-23.6,39.7-23c14.5,0.3,28.5,4.9,28.5,15.4L208.2,172.3L208.2,172.3z"/>
		<path id="path6074" inkscape:connector-curvature="0" d="M28.2,157.9h26.5l22.6,31.7h0.2v-31.7h17v44.1H69l-23.7-31.7h-0.2v31.7
			h-17L28.2,157.9L28.2,157.9z"/>
		<path id="path6076" inkscape:connector-curvature="0" d="M99.6,157.9h32.1c15.4,0,24.5,4.3,24.5,10.9c0,3.9-3.8,8.6-12.3,10v0.1
			c10.2,0.6,14,7.1,14,11c0,7.8-8.9,12.1-26.1,12.1H99.6V157.9L99.6,157.9z M118.2,175h5.3c8.2,0,12.6-0.6,12.6-4.1
			c0-3.7-3.6-4.9-11-4.9h-6.9L118.2,175L118.2,175z M118.2,192.7h5.3c9.9,0,13.5-1,13.5-4.5c0-3.7-4.6-4.9-12-4.9h-6.9L118.2,192.7
			L118.2,192.7z"/>
	</g>
	<path id="path6078" inkscape:connector-curvature="0" class="st0" d="M205.7,150.7c-4.3,1.9-9.1,2.8-14.2,2.8l-204.9-0.2
		c-11.6-0.9-23-10.5-26.2-21.9c-3.4-11.4-0.1-23.2,7.5-31.6c7.3-7.5,16.7-10.7,27.1-9.5c-9.8-6.7-13.9-17.7-12.5-29.6
		c1.3-10.3,8.8-20.3,18.3-24.5c10.9-4.9,24.7-2.2,33.2,6c-1.8-6-2.7-14.7-0.3-20.9C36.6,11.7,46.1,3,55.8,0.9
		C68.7-1.8,80.9,3,88.4,14.1c1.4,2.1,2.2,4.4,3.3,6.6c3.7-10.6,14.4-19.3,25.3-20.5c11.2-1.4,21.8,3.4,28.9,12.8
		c5.5,7.9,7.4,19.5,3.8,29h0.4c8.1-7.3,20.5-10,30.9-5.9c10,3.3,18.5,14,19.9,24.5c1.5,11.6-2.5,21.8-11.3,29.4
		c13.4-0.8,26,6.3,31.5,18.7c4.8,10.8,3.4,25.4-4.7,34.2C213.1,146.2,209.6,149,205.7,150.7L205.7,150.7z"/>
	<path id="path6080" inkscape:connector-curvature="0" class="st1" d="M183.9,90.3L108.2,141l25.5-60.7l12.1-28.2
		C150.7,43,159.9,37.1,170,37c9.6,0,18.2,4.6,23.6,13c5.6,8.3,5.9,21.9,0.3,30.4C191.5,84.3,187.8,87.8,183.9,90.3z"/>
	<path id="path6082" inkscape:connector-curvature="0" class="st2" d="M146.2,42.5l-37.5,88.6l-1.7-9.7L95.8,48.8
		c-0.5-4.4,1.4-8.2,4.9-10.6l5.4-3.2c0.3-1.1-1.3-1.5-2-1.9L93.6,33c-0.7-10.5,3.9-20,12.8-25.7c6.9-4.5,17.4-5.7,25-2
		c10,4.1,16.9,14.7,17.1,25.5C148.4,34.8,147.7,38.9,146.2,42.5z"/>
	<path id="path6084" inkscape:connector-curvature="0" class="st3" d="M74.3,131.4L37.4,42.6c-4-9.5-2.3-22,4.5-29.7
		c7.3-8.1,17.5-11.5,28-8.8C78.8,6.3,87.2,14.9,89.3,24c1,3.4,0.9,7.5,0.7,11.3L74.3,131.4L74.3,131.4z"/>
	<path id="path6086" inkscape:connector-curvature="0" class="st4" d="M-4.6,87.1c-7.6-6.6-11-15.3-9.9-25.5
		c1.1-10.3,9.2-20.3,18.8-23.4c9.9-3.1,20.7-0.6,27.9,6.8c3,2.9,4.9,6.3,6.5,9.8l35.6,86.3L-4.6,87.1z"/>
	<path id="path6088" inkscape:connector-curvature="0" class="st5" d="M-12.7,150.1c-9.9-1.1-17.5-6.4-22.1-15.5
		c-4.7-9.1-3.5-22.1,2.8-30.2c6.9-8.2,16.8-12.4,26.8-10.3c4.1,0.7,7.5,2.4,10.7,4.4l76.7,51.6C82.3,150.2-12.7,150.1-12.7,150.1z"
		/>
	<path id="path6090" inkscape:connector-curvature="0" class="st6" d="M195.6,150.1c9.9-1.1,17.5-6.4,22.1-15.5
		c4.7-9.1,3.5-22.1-2.8-30.2c-6.9-8.2-16.8-12.4-26.9-10.3c-4.1,0.7-7.5,2.4-10.7,4.4l-76.7,51.6L195.6,150.1z"/>
</g>
</svg>
