<?xml version="1.0" encoding="utf-8"?>
<!-- Generator: Adobe Illustrator 21.1.0, SVG Export Plug-In . SVG Version: 6.00 Build 0)  -->
<svg version="1.1"
	 id="svg8081" inkscape:version="0.91 r13725" sodipodi:docname="disney_channel.svg" xmlns:cc="http://creativecommons.org/ns#" xmlns:dc="http://purl.org/dc/elements/1.1/" xmlns:inkscape="http://www.inkscape.org/namespaces/inkscape" xmlns:rdf="http://www.w3.org/1999/02/22-rdf-syntax-ns#" xmlns:sodipodi="http://sodipodi.sourceforge.net/DTD/sodipodi-0.dtd" xmlns:svg="http://www.w3.org/2000/svg"
	 xmlns="http://www.w3.org/2000/svg" xmlns:xlink="http://www.w3.org/1999/xlink" x="0px" y="0px" viewBox="0 0 512 223"
	 style="enable-background:new 0 0 512 223;" xml:space="preserve">
<style type="text/css">
	.st0{fill:#459ADB;}
</style>
<sodipodi:namedview  bordercolor="#666666" borderopacity="1" gridtolerance="10" guidetolerance="10" id="namedview8083" inkscape:current-layer="g8089" inkscape:cx="12.925764" inkscape:cy="185.26875" inkscape:pageopacity="0" inkscape:pageshadow="2" inkscape:window-height="719" inkscape:window-maximized="0" inkscape:window-width="1386" inkscape:window-x="0" inkscape:window-y="0" inkscape:zoom="0.42550691" objecttolerance="10" pagecolor="#ffffff" showgrid="false">
	</sodipodi:namedview>
<g id="g8089" transform="matrix(1.25,0,0,-1.25,0,287.99999)" inkscape:groupmode="layer" inkscape:label="ink_ext_XXXXXX">
	<g id="g8091" transform="matrix(0.06018265,0,0,0.06018265,0.1295542,27.05338)">
		<path id="path8093" inkscape:connector-curvature="0" class="st0" d="M3064.5,2792.8c-143.9-24-234.8-108.2-212.4-174.9
			C2905.9,2682.2,2986.1,2746.9,3064.5,2792.8"/>
		<path id="path8095" inkscape:connector-curvature="0" class="st0" d="M584.5,1861.6c0.3-62.6,228.7-251.2,565-369.8
			c-0.4,146.5,1.4,365.1,3.3,517.4C879.5,1995.6,584.1,1958.8,584.5,1861.6"/>
		<path id="path8097" inkscape:connector-curvature="0" class="st0" d="M3242.9,962.2c28.9,10.5,58.7,21,86.5,30.3
			c-19.1,34.3-36.5,64.3-50.7,87C3268.4,1049.5,3256,1008.6,3242.9,962.2"/>
		<path id="path8099" inkscape:connector-curvature="0" class="st0" d="M2956.2,2531c26.7-8.2,58.6-13,96.4-13
			c91.4,0.2,303.2,84.8,303.1,187.8c-0.1,17.1-9.7,61.7-66.1,61.5C3203.6,2766.9,3028.7,2612.8,2956.2,2531"/>
		<path id="path8101" inkscape:connector-curvature="0" class="st0" d="M6495.4,2008.5c-59.8,1.2-222.3-255.2-333.5-448.3
			c163.2-2.8,392,154,391.3,342.9C6553,1966.1,6537.1,2007.9,6495.4,2008.5"/>
		<path id="path8103" inkscape:connector-curvature="0" class="st0" d="M6057.8,1327.9c-27.3-114.8-105.8-383.5-154.9-530.7
			c-35-102.5-40.8-253.3-67.4-259.1C5765.6,522.8,5649.1,636,5647,751c-4.1,222.9,119.9,589.9,170.8,755
			c-31.7,62.8-46.7,131.8-46.7,188.3c-0.8,246.2,226.1,510.2,297.2,568.4c36.9,29.8,70.1-52.9,40.6-115.8
			c-28.2-60.1-179.5-300.3-179.3-380.6c0.3-17.4,6-36.1,15.3-55.4c148.8,189.8,403.8,471.1,536,479.1
			c47.8,2.7,198.8-58.6,199.5-313.3C6681.1,1622.1,6365.7,1306.3,6057.8,1327.9z M5242.6,1296.5c-154.1-4.9-209.7,162.4-210.2,238
			c0,49,46.8,166.2,62.5,223.4c5,19.2-21,43.5-19.5,59.2c6.5,67.9,104.5,75.3,112.9,99.7c7.9,22.2,29.3,94.1,25.8,113.5
			c-3.5,18.9-141.2,46.7-141.3,116.3c-0.4,74,294,72.7,520.5,97.3c132.1,14.6,239.2-109,230.5-138.8c-8.7-30-34.6-48.6-69.7-57.6
			c-21.3-5.3-304.1-13.1-346.4-30.7c-21-8.7-34.2-94.9-24.2-111.8c10.6-17.2,197-17.6,226.6-20.2c59.2-4.8,77.3-133.9-18.5-139.2
			c-33.7-2.1-238.9,1.2-272-9.4c-33.2-10.7-65.7-162.6-48.5-178.3c17.5-15.5,280.7,43,327.6,43c46.9,0,113.5-52.3,108.3-97.3
			C5704.1,1473.7,5486,1304.7,5242.6,1296.5z M5477.6,774.3c-2.7-25.1-25.1-43.5-50.1-40.7c-126.1,13.1-253.6-6.4-304.3-15.5
			c-57.6-10.3-111.5,14.5-111.5,83.9c0,16.8-3.7,226.3-5.7,334.7c-0.4,25.2,20.2,46.5,45.3,46.5c24.8,0,45.6-19.9,46-44.8
			c0.2-12.2,5.2-284.5,5.6-331c1.5,0.2,3.1,0.4,5,0.8c55.5,9.4,193.2,30.5,329.1,16.2C5462,821.8,5480.2,799.4,5477.6,774.3
			L5477.6,774.3z M4915.9,770.6c-45.6-30.6-143.9-21.2-242.2-30.6c-47.2-4.5-83.2,4.3-98.1,21.6c-13.1,15.3-23.9,76.6-32,141.9
			c-1,3.7-1.8,7.6-1.8,11.6c0,0.7,0.1,1.3,0.2,2c-9.7,82.8-15,167.1-15,168.6c0,21.6,9.6,35.6,17.8,43.5
			c22.4,22.1,54.6,22.5,109.8,21.5c55.9-1.1,186,6.8,202.7,8.5c21.7,3.7,43.2-8.7,50.6-29.9c8.3-23.8-4.2-49.8-28-58.2
			c-17.4-6.1-190.3-12.2-227.1-11.7c-6.4,0.1-20.3,0.4-32.7,0.1c2-23.7,2.8-34,6.8-71.4c74.3,2.7,168.1,9.5,209.8,16.6
			c20.2,3.4,43.3-16.7,44-41.9c0.6-19.5-13.3-39.5-38-44.3c-62.8-12.2-138.5-16-205.2-18.6c2.3-17.3,7.5-61,9.5-72
			c41.2-3.9,117,5.7,224.8,26.2c24.7,4.7,45.8,5.5,58.2-16.4C4942.5,815.7,4936.6,784.5,4915.9,770.6L4915.9,770.6z M4440.5,737.7
			c-44.5-20.1-89.4,20-165.2,92.5l-6.7,6.4c-19.8,19-50.1,51.1-82.2,85.1c-11.7,12.4-25.3,26.8-38.9,41
			c2.8-58.5,7.8-135.6,13.3-207.2c2-25.1-16.9-47.1-42-49c-1.2-0.1-2.4-0.1-3.5-0.1c-23.6,0-43.6,18.2-45.5,42.2
			c0,0-6.1,78.3-10.6,157c-9.5,163.2-11.3,192.6,30.4,205.2c34.3,10.3,46.5-2.7,163.2-126.4c29.9-31.7,60.8-64.5,78.9-81.8l6.7-6.4
			c9.8-9.4,24.2-23.2,38.7-36.3c-7.4,80.4-20.8,208.1-28.8,282.1c-2.7,25.1,15.4,47.6,40.5,50.3c25,2.6,47.6-15.4,50.3-40.5
			c1.3-12.2,32.2-298.8,34.4-353.3C4475.3,757.9,4451,742.4,4440.5,737.7L4440.5,737.7z M3986.2,1170.9
			c-1.9-15.8-12.4-195.8-13.5-272.6c-0.7-78.3-1.2-142.7-38.2-165.3c-17.2-10.5-38.1-11-57.4-1.4c-21.8,10.9-48.4,42.9-158.2,190.6
			c-13.6,18.2-28.9,38.8-43.6,58.4c-0.8-95.6,1.5-225.7,2.9-248.8c2.3-20.9-12.1-47-38.1-49.5c-26-2.6-44.1,10.8-50.5,29.9
			c-1.2,3.6-4.8,14.3-5.7,198.4c-0.9,201,3.2,214.5,36.1,228.1c36.4,15.2,59-13.8,93.3-57.6c21.9-28,49.6-65.1,78.8-104.5
			c26.7-35.9,61.7-82.2,89.2-117.2c1.1,75.8,11.8,301.2,14.4,322.4c3,25,25.7,42.7,50.8,39.8
			C3971.4,1218.7,3989.3,1195.9,3986.2,1170.9L3986.2,1170.9z M3522.1,722.4c-22.6-11.3-50-2.1-61.2,20.4
			c-27.7,55.4-58,114-87.1,168.3c-50-16.3-111.3-38.7-160.1-57c-10.6-41-21.1-82.9-30.6-123.1c-5-21-25.3-37.5-49.7-34.5
			c-28.3,3.5-45,31-39.2,55.6c5.6,23.8,11,46.1,16.3,67.5c-17.1,1.2-32.8,11.6-39.5,28.6c-9.2,23.5,2.4,50,25.9,59.1
			c2.3,0.9,17.2,6.7,39.6,15.3c74.1,282.2,101.1,283.5,131.7,284.5c24.1,0.6,47.4,1.3,152.6-189.6c19.3-1.1,36.6-14.3,41.6-34.1
			c3.1-12.1,1.1-24.3-4.8-34.3c24.5-46.4,52.5-100.9,84.7-165.4C3553.8,761.1,3544.7,733.7,3522.1,722.4L3522.1,722.4z
			 M2927.5,1720.9c3.1,141.1,5.5,527.8,101.5,528.2c74.9,0.2,109.7-98.5,121.7-609.5c6.6-269.7-19.7-278.8-96.6-279
			C2968.6,1360.1,2920.6,1398.6,2927.5,1720.9z M2988.4,947.6l8.7-194.5c1.1-25.2-18.4-46.5-43.6-47.6c-0.7,0-1.4,0-2.1,0
			c-24.3,0-44.5,19.1-45.6,43.6l-7.7,173.5c-39.9-11.5-86.6-25.2-132.7-38.9v-112c0-25.3-20.4-45.7-45.6-45.7
			c-25.2,0-45.6,20.4-45.6,45.7v84.6c-4.3-1.3-8.8-2.7-13-3.9c-4.4-1.4-8.9-2-13.2-2c-19.6,0-37.7,12.7-43.7,32.4
			c-7.3,24.1,6.3,49.6,30.4,56.9c8.4,2.5,22.2,6.7,39.5,11.9v168.1c0,25.2,20.4,45.7,45.6,45.7c25.2,0,45.6-20.4,45.6-45.7V978.9
			c42.7,12.7,88.8,26.2,128.6,37.4l-6.4,143.6c-1.1,25.2,18.4,46.5,43.6,47.6c25,0.9,46.5-18.4,47.6-43.6l5.5-123.7
			c2.8,0.6,5.3,1.1,7.1,1.4c24.8,3.8,50.1-13.2,51.9-38.3C3045.4,974,3028.9,953.9,2988.4,947.6z M2564.3,777.5
			c-66.3-22.5-311.3-34.6-402.6-34.6c-59.9,0-145.6,30.9-167.8,97.2c-18.1,54.1,8.1,111.2,77.9,169.6
			c157.9,132.2,250.4,155,313.2,160c76.9,6.1,107.7-42.6,113.3-69.1c5.2-24.7-10.5-48.9-35.2-54.1c-23.1-4.8-45.7,8.6-52.8,30.4
			c-1.8,1-7.3,2.7-18,1.8c-49.4-4-123.8-23.3-261.9-139c-45.3-38-52.7-62.3-49.9-70.7c5.2-15.6,42.1-33.1,73.2-34.7
			c66.3-3.4,327.7,11.5,381.2,29.6c23.9,8,49.8-4.7,57.9-28.6C2601,811.5,2588.2,785.6,2564.3,777.5L2564.3,777.5z M1820.6,1196.1
			c-145.6-0.3-282.8,18.5-409.5,50.7c-8.4-62.4-36-121.9-116.9-121.9c-111.3-0.7-135.4,85.5-142,210.9
			c-391.6,170.1-633.5,449.5-633.5,560.2c-0.4,135.5,300.5,273.3,638.8,324.2c6.6,159.5,29.4,448.4,107.9,448.6
			c94.4,0.4,119.5-261.9,125.3-428.3c627.2,0,813.9-173.6,814.4-321.7c0.3-111.7-126.7-182.5-137.7-181.4
			c-62.8,4.3-135.2-1.4-135.5,30.8c-0.1,42.8,78.2,73.5,78.2,118.5c-0.5,52.5-295,132-519.9,131.1c-28.1,0-60.7-0.3-95.8-0.8
			c3.5-178.5,11.5-461,15.9-595.8c99.5-19,204.1-30.3,311.9-30.1c303.4,0.9,853.8,95.7,852.5,518.4
			c-1.6,544-1068.1,1185.4-1994,1182.8c-107.9-0.6-323.9-9.9-323.9-50.1c0-34.7,55.8-27.7,55.8-62.5c0.3-24.4-38-27.9-80.2-27.9
			c-41.7-0.3-111.2,4.8-109.8,64c0,62,66.1,138,137.4,169.3l0,0c84.3,35.7,263.9,58.5,477.2,64.4
			c979.1,27.3,2104.3-774.5,2105.9-1332.1C2844.4,1501.3,2388.5,1197.9,1820.6,1196.1L1820.6,1196.1z M3158.8,2928.5
			c82.4,0.1,138-40.2,175.3-76.3c89.6-12.7,125.6-48.2,125.6-117.6c0.5-154.5-260.2-340.7-424.2-341
			c-237.9,4.2-297,141.3-297.2,220.5C2738,2724.4,2903.7,2927.6,3158.8,2928.5L3158.8,2928.5z M3791.5,2245.8
			c129.7,0.6,359,1.6,359.5-87.8c0.2-149.8-737.3-68.6-738.6-178.2c-0.6-33.3,159.8-40.8,308.7-53c198.6-17,426.6-44.1,427.4-284.8
			c0.2-99.1-85.1-291.1-423.1-291.9c-342.7-1.2-465,174.8-465.2,249.5c-0.7,143.9,137.2,183.2,233,183.7
			c91,0,385.9-35.4,386.3-108.1c0.2-39.8-73.9-79.2-162.9-79.6c-88.7-0.5-218,79.4-280.8,79.4c-62.6-0.4-90.3-42.2-90.3-66.5
			c0-24.4,3.7-73.3,171-72.9c81.2,0.4,475.6,44.4,475.3,153.3c-0.1,48.7-181.1,97-330,112.2c-182.8,18.5-457.9-26.9-458.4,158.8
			C3202.5,2234,3694.4,2245.5,3791.5,2245.8z M4361.3,2174.4c113.4-8.3,385-504.4,416.5-495.4c20.2,5.5,22.3,52.2,22.3,78.1
			c-0.5,125.6-130.3,453-130.7,547.1c0,31.2,5.1,61,33,61c111.3,0.3,302.4-352.2,303.5-640.4c0.1-125.3-77.4-319-210-319.3
			c-121.9-0.7-341.3,451.7-381.3,451.7c-53.9,0,15.6-494.9-118.9-495.3c-90.6-0.2-111.9,81.5-112.1,203.5
			C4183.3,1687.5,4245,2182.6,4361.3,2174.4L4361.3,2174.4z M6789.7,2012.5c-47.1,243.1-279.9,358.7-385.5,386.1
			c-116.9,30.3-243.3,21.1-354.3-26.5c-53.9-23.1-125.7-63.8-169.4-103c-46.4,44.4-149.7,105.4-267.5,105.4
			c-103.1-4.9-525.1-53.9-633.6-111.4c-59.4,105.1-152.5,222.2-265.4,230.8c-52.9,4-104.8-17.5-136.5-60.6
			c-44.2-60.1-40.8-142.1-26.9-231.5c-161.2,161.3-522.8,171.8-753.3,173.4c-218.8,1.6-504.5-54.9-585.1-99.1l-0.5-0.1
			c50.8,30.2,278.2,162.3,353.5,349.4c16,39.8,19.6,82,19.5,109.8c-0.4,121.7-69,204.7-193.7,233.7
			c-69.2,56.3-147.5,84.8-232.5,84.8c-121.5-0.4-243.6-36.9-340.9-109.7c-154.1-115.2-209.2-260.5-203.5-349.9l-0.1,0.4
			c-203.7,201.9-443.6,363-666.5,477.9c-226.4,116.8-658.5,296-1104.1,306.1c-131.2,3-423-9.2-555.8-49
			c-283-84.9-310.6-290.7-280.2-380C41.6,2849.3,158.7,2810.1,309,2836c55.6,9.6,113.6,56,126.7,128.4
			c218.8,12.8,470.8-5.2,712.2-70.5c-55.7-148.6-91.6-342.4-111.3-563.5c-122.2-26.4-269.2-68.6-381.8-123.6
			c-100.6-49.2-211.1-120.2-250.1-231.1c-41.9-118.9,27.4-235.2,101.1-324.7c77.7-94.5,267.9-271.5,526-395.9
			c10.6-64.1,39.7-196.8,175.8-240.8c93.6-30.3,213.3-8.9,281.4,89.9c85.9-19.8,244.9-30.1,341.4-31.1l0.4-134.8
			c0-166.8,135.7-303.5,302.6-303.5h3412c42.7-89.5,129.8-195.7,229.8-215.4c179.3-35.3,200.6,131.2,210.1,183.8
			c10,55.2,18.3,110.2,36,163.6l131.2,439.8c114.5,17.4,244.6,71.3,337.7,139.3c90.8,66.3,169.8,149.9,227.3,246.7
			C6792.3,1718.8,6824.6,1868.2,6789.7,2012.5"/>
	</g>
</g>
</svg>
