<?xml version="1.0" encoding="utf-8"?>
<!-- Generator: Adobe Illustrator 21.1.0, SVG Export Plug-In . SVG Version: 6.00 Build 0)  -->
<svg version="1.1"
	 id="svg13526" inkscape:version="0.91 r13725" sodipodi:docname="Kabel_eins_classics_2011.svg" xmlns:cc="http://creativecommons.org/ns#" xmlns:dc="http://purl.org/dc/elements/1.1/" xmlns:inkscape="http://www.inkscape.org/namespaces/inkscape" xmlns:rdf="http://www.w3.org/1999/02/22-rdf-syntax-ns#" xmlns:sodipodi="http://sodipodi.sourceforge.net/DTD/sodipodi-0.dtd" xmlns:svg="http://www.w3.org/2000/svg"
	 xmlns="http://www.w3.org/2000/svg" xmlns:xlink="http://www.w3.org/1999/xlink" x="0px" y="0px" viewBox="0 0 512 66.6"
	 style="enable-background:new 0 0 512 66.6;" xml:space="preserve">
<style type="text/css">
	.st0{fill:#F25323;}
	.st1{fill:#FFFFFF;}
	.st2{fill:#231F20;}
</style>
<sodipodi:namedview  bordercolor="#666666" borderopacity="1.0" fit-margin-bottom="0" fit-margin-left="0" fit-margin-right="0" fit-margin-top="0" id="base" inkscape:current-layer="layer1" inkscape:cx="384.26025" inkscape:cy="75.202626" inkscape:document-units="px" inkscape:pageopacity="0.0" inkscape:pageshadow="2" inkscape:window-height="984" inkscape:window-maximized="1" inkscape:window-width="1920" inkscape:window-x="0" inkscape:window-y="0" inkscape:zoom="0.7" pagecolor="#ffffff" showgrid="false">
	</sodipodi:namedview>
<g id="layer1" transform="translate(241.25938,-172.84022)" inkscape:groupmode="layer" inkscape:label="Ebene 1">
	<path id="path4427" inkscape:connector-curvature="0" class="st0" d="M-142.3,176.8c0-2.2-1.8-4-4-4h-91c-2.2,0-4,1.8-4,4v58
		c0,2.2,1.8,4,4,4h91c2.2,0,4-1.8,4-4V176.8"/>
	<path id="path4431" inkscape:connector-curvature="0" class="st1" d="M-241.2,209.7c3,8.2,8.8,14.5,16.4,19.6
		c6.3,3.6,13.4,6.3,21.2,6.3c26.4-0.1,43.2-19.4,43-43c0-6-1.8-11.7-4-16.8c-4.5,1.5-13.9,3.4-18.8,4c-0.9,7.4-7.5,12.5-16.6,14.5
		c0,1.3-0.3,9.5-0.4,10.8c3.7-0.6,8.3-1.4,12.1-2.5c-4.4,16.8-21.4,24.1-36.4,18.2c-9.9-3.9-16.5-12.1-16.5-28L-241.2,209.7"/>
	<path id="path4435" inkscape:connector-curvature="0" class="st2" d="M246.6,239.4c-9.9,0-17.4-2.1-23.8-8.6l8.2-8.2
		c4.1,4.1,9.7,5.5,15.8,5.5c7.5,0,11.5-2.8,11.5-8.1c0-2.3-0.6-4.2-2-5.5c-1.3-1.2-2.7-1.8-5.8-2.3l-7.9-1.1
		c-5.6-0.8-9.7-2.6-12.6-5.4c-3.1-3.1-4.7-7.3-4.7-12.8c0-11.6,8.6-19.8,22.7-19.8c9,0,15.5,2.2,21.1,7.6l-8.1,8
		c-4.1-3.9-9.1-4.5-13.4-4.5c-6.8,0-10.1,3.8-10.1,8.2c0,1.7,0.6,3.4,1.9,4.7c1.3,1.2,3.4,2.2,6.1,2.6l7.7,1.1
		c5.9,0.8,9.7,2.5,12.5,5c3.5,3.3,5,8.1,5,13.8C270.7,232.3,260.2,239.4,246.6,239.4L246.6,239.4z M194,239.4
		c-7,0-12.8-2.4-17.6-7.1c-2.8-2.8-4.6-6.1-5.3-9.8c-0.7-3.7-1.1-9.1-1.1-16.2s0.4-12.6,1.1-16.2c0.7-3.8,2.5-7,5.3-9.8
		c4.8-4.8,10.6-7.1,17.6-7.1c12.6,0,21.8,7.3,24,20.6h-12.9c-1.4-5.6-4.8-9.3-11-9.3c-3.5,0-6.2,1.1-8.2,3.4
		c-2.7,2.8-3.2,5.8-3.2,18.4s0.5,15.6,3.2,18.4c1.9,2.3,4.7,3.4,8.2,3.4c6.1,0,9.6-3.7,11-9.3H218
		C215.8,232.1,206.4,239.4,194,239.4L194,239.4z M159.2,238.8h-12.7v-65.3h12.7V238.8z M113,239.4c-9.9,0-17.4-2.1-23.8-8.6l8.2-8.2
		c4.1,4.1,9.7,5.5,15.8,5.5c7.5,0,11.5-2.8,11.5-8.1c0-2.3-0.6-4.2-2-5.5c-1.3-1.2-2.7-1.8-5.8-2.3l-7.9-1.1
		c-5.6-0.8-9.7-2.6-12.6-5.4c-3.1-3.1-4.7-7.3-4.7-12.8c0-11.6,8.6-19.8,22.7-19.8c9,0,15.5,2.2,21.1,7.6l-8.1,8
		c-4.1-3.9-9.1-4.5-13.4-4.5c-6.8,0-10.1,3.8-10.1,8.2c0,1.7,0.6,3.4,1.9,4.7c1.3,1.2,3.4,2.2,6.1,2.6l7.7,1.1c6,0.8,9.7,2.5,12.5,5
		c3.5,3.3,5,8.1,5,13.8C137.2,232.3,126.7,239.4,113,239.4L113,239.4z M59.8,239.4c-9.9,0-17.4-2.1-23.8-8.6l8.3-8.2
		c4.1,4.1,9.7,5.5,15.8,5.5c7.5,0,11.5-2.8,11.5-8.1c0-2.3-0.6-4.2-2-5.5c-1.3-1.2-2.8-1.8-5.8-2.3l-7.9-1.1
		c-5.6-0.8-9.7-2.6-12.7-5.4c-3.1-3.1-4.7-7.3-4.7-12.8c0-11.6,8.6-19.8,22.7-19.8c9,0,15.5,2.2,21.1,7.6l-8.1,8
		c-4.1-3.9-9.1-4.5-13.4-4.5c-6.8,0-10.1,3.8-10.1,8.2c0,1.7,0.5,3.4,1.9,4.7c1.3,1.2,3.4,2.2,6.1,2.6l7.7,1.1c6,0.8,9.7,2.5,12.5,5
		c3.5,3.3,5,8.1,5,13.8C84,232.3,73.4,239.4,59.8,239.4L59.8,239.4z M3.9,192.8l-8.2,23.7h16.2C11.9,216.6,3.9,192.8,3.9,192.8z
		 M19.1,238.8l-3.9-11.5H-7.9l-3.9,11.5h-13.3l23.7-65.3h10l23.8,65.3H19.1z M-72.7,238.8v-65.3H-60v53.9h29.6v11.4
		C-30.4,238.8-72.7,238.8-72.7,238.8z M-105.5,239.4c-7,0-12.8-2.4-17.6-7.1c-2.8-2.8-4.6-6.1-5.3-9.8c-0.7-3.7-1.1-9.1-1.1-16.2
		c0-7.1,0.4-12.6,1.1-16.2c0.7-3.8,2.5-7,5.3-9.8c4.8-4.8,10.6-7.1,17.6-7.1c12.6,0,21.8,7.3,24,20.6h-12.9c-1.4-5.6-4.9-9.3-11-9.3
		c-3.5,0-6.2,1.1-8.2,3.4c-2.7,2.8-3.2,5.8-3.2,18.4s0.5,15.6,3.2,18.4c1.9,2.3,4.7,3.4,8.2,3.4c6.1,0,9.6-3.7,11-9.3h12.9
		C-83.7,232.1-93.1,239.4-105.5,239.4"/>
</g>
</svg>
