<?xml version="1.0" encoding="utf-8"?>
<!-- Generator: Adobe Illustrator 21.1.0, SVG Export Plug-In . SVG Version: 6.00 Build 0)  -->
<svg version="1.1"
	 id="svg2" inkscape:version="0.91 r13725" sodipodi:docname="2007-gotv.svg" xmlns:cc="http://creativecommons.org/ns#" xmlns:dc="http://purl.org/dc/elements/1.1/" xmlns:inkscape="http://www.inkscape.org/namespaces/inkscape" xmlns:rdf="http://www.w3.org/1999/02/22-rdf-syntax-ns#" xmlns:sodipodi="http://sodipodi.sourceforge.net/DTD/sodipodi-0.dtd" xmlns:svg="http://www.w3.org/2000/svg"
	 xmlns="http://www.w3.org/2000/svg" xmlns:xlink="http://www.w3.org/1999/xlink" x="0px" y="0px" viewBox="0 0 512 238.2"
	 style="enable-background:new 0 0 512 238.2;" xml:space="preserve">
<style type="text/css">
	.st0{fill:#666666;}
	.st1{fill:#E7E7E8;}
	.st2{fill:#0397D7;}
</style>
<sodipodi:namedview  bordercolor="#666666" borderopacity="1" fit-margin-bottom="0" fit-margin-left="0" fit-margin-right="0" fit-margin-top="0" gridtolerance="10" guidetolerance="10" id="namedview8716" inkscape:current-layer="svg2" inkscape:cx="8.4729588" inkscape:cy="129.71275" inkscape:pageopacity="0" inkscape:pageshadow="2" inkscape:window-height="831" inkscape:window-maximized="0" inkscape:window-width="1574" inkscape:window-x="0" inkscape:window-y="0" inkscape:zoom="0.64912389" objecttolerance="10" pagecolor="#ffffff" showgrid="false">
	</sodipodi:namedview>
<g id="g3210" transform="matrix(0.91809787,0,0,0.91809787,0.837373,25.198243)">
	<path id="path4210" inkscape:connector-curvature="0" class="st0" d="M30.5,44.3c-6.1,0-11.1,5.1-11.1,11.3v37.2
		c0,6.2,5,11.3,11.1,11.3h13.6c6.1,0,11.1-5.1,11.1-11.3V55.6c0-6.2-5-11.3-11.1-11.3C44.1,44.3,30.5,44.3,30.5,44.3z M75.6,92.3
		c0,8.8-3.2,15.1-9.2,21c5.2,5.8,7,9.7,7,19.1c0,16-12.2,27.4-28.2,27.4H30.1c-12.6,0-23-8.6-27.1-19c-0.7-1.8,0.2-3.6,2.3-3.6H21
		l2.9,1.5l1.3,1.3c1.4,1.5,2.9,2.2,6.1,2.2h11.7c6.3,0,10.4-3.5,10.4-9.7v-0.5c0-6.2-4.1-10-10.2-10H28c-16,0-28.9-13.3-28.9-29.5
		V56.2C-0.9,39.9,12,26.6,28,26.6h18.5c16,0,29.1,13.3,29.1,29.5"/>
	<path id="path4212" inkscape:connector-curvature="0" class="st0" d="M129.5,44.3c-6.1,0-11.3,5.1-11.3,11.3v37.2
		c0,6.2,5.2,11.3,11.3,11.3h13.3c6.3,0,11.3-5.1,11.3-11.3V55.6c0-6.2-5-11.3-11.3-11.3C142.7,44.3,129.5,44.3,129.5,44.3z
		 M174.4,92.3c0,16.2-13.1,29.5-28.9,29.5h-18.5c-16,0-29.1-13.3-29.1-29.5V56.2c0-16.2,13.1-29.5,29.1-29.5h18.5
		c15.8,0,28.9,13.3,28.9,29.5"/>
	<path id="path4214" inkscape:connector-curvature="0" class="st1" d="M218,28.4h21c2.3,0,4.1,1.8,4.1,4.2v9.3
		c0,2.4-1.8,4.2-4.1,4.2h-21V91c0,6.2,5,11.3,11.1,11.3h9.9c2.3,0,4.1,1.8,4.1,4.2v9.3c0,2.4-1.8,4.2-4.1,4.2h-12.2
		c-16,0-28.9-13.1-29.1-29.4v-89c0-2.2,2-4,4.1-4h12c2.3,0,4.1,1.8,4.1,4"/>
	<path id="path4216" inkscape:connector-curvature="0" class="st1" d="M309.2,116.1c-0.9,2.6-2.5,3.8-5.2,3.8h-13.1
		c-2.7,0-4.7-1.3-5.4-3.8l-27.1-82.2c-1.1-3.1,1.4-5.5,4.3-5.5h10.1c2.7,0,4.5,1.3,5.2,3.8l19.4,62.2l19.4-62.2
		c0.7-2.6,2.7-3.8,5.4-3.8h9.9c2.7,0,5.4,2.2,4.3,5.5"/>
	<path id="path4218" inkscape:connector-curvature="0" class="st2" d="M555.6-27.4H355.5v147.9h200.1V-27.4z M376,101.7l0-109.9
		h159.2v109.9"/>
	<path id="path4220" inkscape:connector-curvature="0" class="st1" d="M376-8.5v109.9h159.2V-8.5C535.2-8.5,376-8.5,376-8.5z"/>
	<path id="path4222" inkscape:connector-curvature="0" class="st2" d="M516.4,48.7l7.7-16.8l-37.2-17.6l-7.7,16.7"/>
	<path id="path4224" inkscape:connector-curvature="0" class="st2" d="M431.1,31.1l-7.7-16.8L386.1,32l7.7,16.7"/>
	<path id="path4226" inkscape:connector-curvature="0" class="st2" d="M456,106.1l37.3-17.6l-7.7-16.7l-29.7,14v0h0 M455.9,106.1
		l-37.2-17.6l7.7-16.7l29.5,14"/>
	<path id="path4228" inkscape:connector-curvature="0" class="st1" d="M106.4,174.4c-3.1,0-6.1,2.5-6.6,5.6l-3.2,18.5
		c-0.5,3.1,1.5,5.6,4.6,5.6h6.7c3,0,6-2.5,6.5-5.6l3.2-18.5c0.5-3.1-1.5-5.6-4.6-5.6C113.1,174.4,106.4,174.4,106.4,174.4z
		 M102,167.8c2.8-1.9,5-2.2,8.3-2.2h5.6c8,0,13.3,6.6,11.8,14.7l-3.1,18c-1.4,8.1-9,14.7-17,14.7h-9.2c-8.5,0-13.5-5.8-12-14.5
		l8.5-49l2.4-2.1h6l1.7,2.1"/>
	<path id="path4230" inkscape:connector-curvature="0" class="st1" d="M155.8,174.4c-3.1,0-6.1,2.5-6.6,5.6l-0.9,5.4h17.9l1-5.4
		c0.5-3.1-1.5-5.6-4.7-5.6H155.8z M175.1,192.2l-2.2,2h-26.1l-0.7,4.4c-0.5,3.1,1.5,5.6,4.6,5.6h6.4l3.3-1.1l0.8-0.7l1.5-0.6h7.9
		l0.8,1.8c-2.8,5.3-8.9,9.5-15.2,9.5h-8.1c-8,0-13.3-6.6-11.9-14.7l3.1-18c1.4-8.1,9.1-14.7,17-14.7h9.1c8,0,13.3,6.6,11.9,14.7"/>
	<path id="path4232" inkscape:connector-curvature="0" class="st1" d="M229.3,174.4c-3.1,0-6.1,2.5-6.6,5.7l-3.2,18.4
		c-0.5,3.1,1.5,5.6,4.6,5.6h6.7c3,0,6-2.5,6.5-5.6l3.2-18.4c0.6-3.2-1.5-5.7-4.6-5.7H229.3L229.3,174.4z M247.5,198.4
		c-1.4,8-9.1,14.6-16.9,14.6h-5.6c-3.4,0-5.5-0.3-7.6-2.2l-3.3,19.1l-2.4,2.1h-6l-1.7-2.1l8.6-49.6c1.4-8.3,8.8-14.7,17-14.7h9.2
		c7.9,0,13.2,6.6,11.8,14.7"/>
	<path id="path4234" inkscape:connector-curvature="0" class="st1" d="M274.6,191.6c-3.5,0-6.1,3-6.6,6.3l-0.1,0.5
		c-0.6,3.4,1.5,5.9,4.5,5.9h6.4c3,0,6-2.5,6.5-5.6l1.2-7L274.6,191.6L274.6,191.6z M295.2,199.6l1,4.1l0.6,0.3l0.4,1.5l-0.9,5.4
		l-1.7,1.3h-1.5c-2.3,0-5.2-1.3-5.9-3.2c-3.8,3.7-7.8,4.1-11.5,4.1h-6c-8,0-13.2-6.7-11.8-15.2c1.4-8,8.9-14.2,16.9-14.2h13l0.6-3.6
		c0.5-3.1-1.5-5.6-4.6-5.6h-5l-3.3,1.1l-0.8,0.7l-1.5,0.6h-7.7l-1-1.8c2.9-5.3,9-9.5,15.2-9.5h6.7c8,0,13.3,6.6,11.9,14.7"/>
	<path id="path4236" inkscape:connector-curvature="0" class="st1" d="M339.2,172.3l-2.4,2.1h-8.4c-2.7,0-5.9,2.8-6.5,6.1l-5.1,29.1
		L314,212h-5.3l-2-2.4l5.1-29.2c1.7-9.9,8.7-14.9,18.1-14.9h8.4l1.7,2.1"/>
	<path id="path4238" inkscape:connector-curvature="0" class="st1" d="M358.5,166.5H369l1.7,2.1l-0.8,4.6l-2.4,2.1H357l-3.9,22.3
		c-0.5,3.1,1.5,5.6,4.6,5.6h4.9l1.7,2.1l-0.8,4.6l-2.4,2.1H355c-8,0-13.3-6.5-11.9-14.6l7.7-44.3l2.4-2h6l1.7,2"/>
	<path id="path4240" inkscape:connector-curvature="0" class="st1" d="M418.5,174.4c-3,0-6.1,2.5-6.6,5.6l-3.2,18.5
		c-0.5,3.1,1.6,5.6,4.7,5.6h6.6c3.1,0,6.1-2.5,6.6-5.6l3.2-18.5c0.5-3.1-1.5-5.6-4.7-5.6H418.5z M436.7,198.3
		c-1.4,8.1-9.1,14.7-17,14.7h-9.2c-8,0-13.3-6.6-11.9-14.7l3.1-18c1.4-8.1,9.1-14.7,17-14.7h9.2c7.9,0,13.2,6.6,11.8,14.7"/>
	<path id="path4242" inkscape:connector-curvature="0" class="st1" d="M478.6,154.2l-2.3,2.1h-5.1c-3.1,0-6,2.5-6.5,5.6l-0.8,4.5
		h9.9l1.6,2.1l-0.8,4.6l-2.3,2.1h-9.9l-6,34.7l-2.4,2.1h-6.1l-1.6-2.1l8.3-47.9c1.4-8.1,9-14.6,16.9-14.6h6.4l1.6,2.1"/>
	<path id="path4244" inkscape:connector-curvature="0" class="st1" d="M524.3,155.6l-2.3,2h-9.3l-1.7-2l0.9-5.4l2.4-2.1h9.3l1.6,2.1
		L524.3,155.6z M513.3,210l-2.3,2.1h-6.1l-1.7-2.1l7.2-41.4l2.4-2.1h6.1l1.6,2.1"/>
	<path id="path4246" inkscape:connector-curvature="0" class="st1" d="M544.6,166.5h10.5l1.7,2.1l-0.8,4.6l-2.4,2.1h-10.5l-3.9,22.3
		c-0.5,3.1,1.5,5.6,4.6,5.6h4.9l1.7,2.1l-0.8,4.6l-2.4,2.1h-6.1c-8,0-13.3-6.5-11.9-14.6l7.7-44.3l2.4-2h6l1.7,2"/>
</g>
</svg>
