<?xml version="1.0" encoding="utf-8"?>
<!-- Generator: Adobe Illustrator 21.1.0, SVG Export Plug-In . SVG Version: 6.00 Build 0)  -->
<svg version="1.1"
	 id="svg26043" inkscape:version="0.91 r13725" sodipodi:docname="3sat-Logo.svg" xmlns:cc="http://creativecommons.org/ns#" xmlns:dc="http://purl.org/dc/elements/1.1/" xmlns:inkscape="http://www.inkscape.org/namespaces/inkscape" xmlns:rdf="http://www.w3.org/1999/02/22-rdf-syntax-ns#" xmlns:sodipodi="http://sodipodi.sourceforge.net/DTD/sodipodi-0.dtd" xmlns:svg="http://www.w3.org/2000/svg"
	 xmlns="http://www.w3.org/2000/svg" xmlns:xlink="http://www.w3.org/1999/xlink" x="0px" y="0px" viewBox="0 0 512 187.2"
	 style="enable-background:new 0 0 512 187.2;" xml:space="preserve">
<style type="text/css">
	.st0{fill:#D2002E;}
	.st1{fill:#FFFFFF;}
	.st2{fill:#CFD0D1;}
</style>
<sodipodi:namedview  bordercolor="#666666" borderlayer="true" borderopacity="1" gridtolerance="10" guidetolerance="10" id="namedview3448" inkscape:current-layer="svg26043" inkscape:cx="245.46105" inkscape:cy="142" inkscape:pageopacity="0" inkscape:pageshadow="2" inkscape:window-height="939" inkscape:window-maximized="0" inkscape:window-width="1605" inkscape:window-x="0" inkscape:window-y="0" inkscape:zoom="2.2529032" objecttolerance="10" pagecolor="#ffffff" showgrid="false">
	</sodipodi:namedview>
<g>
	<path id="path8693" inkscape:connector-curvature="0" class="st0" d="M0,0v186.1h186.1V0C186.1,0,0,0,0,0z"/>
	<path id="path8701" inkscape:connector-curvature="0" class="st1" d="M136.3,87.3c18.6-8.5,26.9-20.1,26.9-38.9
		c0-24.6-18.4-43.3-44.8-47.8c-4-0.6-7.9-0.6-12-0.6c-5.8,0-10.7,0-15.6,0.6c-8.1,1.1-16.4,3.6-28,7.7v31.6
		c13.4-6.6,23.3-9.6,33.5-9.6c14.9,0,26.2,9,26.2,21.3c0,13.7-11.3,22.2-28.8,22.2h-2.1V105H96c17.9,0,29.5,9.6,29.5,24.6
		c0,15.2-12,25-30.9,25c-9.6,0-19.6-3.2-34.6-10.3V177c12,4.5,21.6,7.1,30.7,8.5c4.5,0.6,9,0.6,13.5,0.6c4.5,0,8.7,0,12.8-0.6
		c30.5-4.7,50.2-25.6,50.2-54.7C167.3,110.4,156.4,95.4,136.3,87.3"/>
	<path id="path8703" inkscape:connector-curvature="0" class="st2" d="M207.6,149.6c14.9,8.5,26.7,12.4,38,12.4
		c8.3,0,13.7-4,13.7-9.8c0-5.6-3.6-8.5-19.6-14.7c-17.7-6.8-25-11.7-29.9-20.3c-2.6-5.3-4.1-10.9-4.1-16.4
		c0-22.6,17.5-37.2,44.4-37.2c11.9,0,24.5,3.6,37.6,10.7v24.5c-16-8.5-27.3-11.9-38.9-11.9c-9.2,0-14.5,3.2-14.5,8.7
		c0,4.9,3.6,7.3,16.6,12.2c23.9,8.8,33.1,15.4,38.6,26.9c1.9,4.1,2.8,8.7,2.8,13.9c0,22.4-18.2,38.6-43.5,38.6
		c-12.4,0-23-2.6-38.9-9l-2.3-0.9L207.6,149.6L207.6,149.6z"/>
	<path id="path8705" inkscape:connector-curvature="0" class="st2" d="M368.8,154.3c-8.3,6.4-11.3,7.9-16.9,7.9
		c-8.1,0-13-4.9-13-12.8c0-9.6,5.6-13.9,29.9-23.7V154.3L368.8,154.3z M420.4,154.3c-4.9,3.4-8.5,4.9-10.9,4.9c-3,0-3.6-1.5-3.6-13
		v-42c0-10.7-0.2-14.1-1.9-19c-4.3-14.1-18.8-21.6-42.1-21.6c-18.2,0-32.2,4.5-48.5,16.2v27.1c15.8-13,27.7-18.1,40.3-18.1
		c10.9,0,15.2,4.9,15.2,16.2v4.1c-11.1,3.6-15.1,5.1-22.8,8.1c-28.8,11.3-40.6,23.1-40.6,40.6c0,16.2,13.4,29.3,30.5,29.3
		c12.6,0,21.8-4.7,34.4-16.7c1.9,11.3,8.1,16.6,19.6,16.6c8.5,0,17.3-3.4,30.5-11.1L420.4,154.3L420.4,154.3z"/>
	<path id="path8707" inkscape:connector-curvature="0" class="st2" d="M512,177.2c-12.8,7-22.6,10-33.5,10
		c-17.7,0-32.7-9.8-37.1-24.3c-2.1-6.6-2.1-7.9-2.1-25.8V89.4h-16.9v-4.7L470,29h6.4v36.9h34.1v23.5h-34.1v41.2
		c0,23.1,2.3,28,13.7,28c5.6,0,12.6-2.8,21.8-8.8V177.2L512,177.2z"/>
</g>
</svg>
