<svg id="svg2" xmlns="http://www.w3.org/2000/svg" viewBox="0 0 288 288"><defs><style>.cls-1{fill:#b3b3b3;}.cls-2{fill:#fff;}</style></defs><title>Zeichenfläche 1</title><g id="layer1"><g id="g3208"><path id="path17042" class="cls-1" d="M0,0H288V288H0Z"/><g id="g17052"><path id="path17054" class="cls-2" d="M144,66.09a55.82,55.82,0,1,0,55.81,55.83A55.81,55.81,0,0,0,144,66.09"/></g><g id="g17056"><path id="path17058" class="cls-2" d="M94.65,200.3h-.08v12.34a5.5,5.5,0,0,1-1.52,3.9,4.85,4.85,0,0,1-7,0,5.48,5.48,0,0,1-1.5-3.9V200.3h-4v12.34a9.25,9.25,0,0,0,2.58,6.72,9.51,9.51,0,0,0,12.94,0,9.26,9.26,0,0,0,2.59-6.72V200.3h-.08"/></g><g id="g17060"><path id="path17062" class="cls-2" d="M128.78,216.06a6.95,6.95,0,0,1-9.73,0,8,8,0,0,1,0-10.35,6.95,6.95,0,0,1,9.73,0,8,8,0,0,1,0,10.35m2.82-13.14a11.17,11.17,0,0,0-15.37,0,11,11,0,1,0,15.37,0"/></g><g id="g17064"><path id="path17066" class="cls-2" d="M147,199.86a9,9,0,0,0-6.47,2.56,9.33,9.33,0,0,0-2.59,6.72v12.34h4V209.14a5.62,5.62,0,0,1,1.5-3.91,4.87,4.87,0,0,1,3.54-1.5,4.81,4.81,0,0,1,3.52,1.5,5.56,5.56,0,0,1,1.52,3.91v12.34h4V209.14a9.26,9.26,0,0,0-2.59-6.72,9,9,0,0,0-6.47-2.56"/></g><g id="g17068"><path id="path17070" class="cls-2" d="M207.36,200.3h-.08v13.48c0,2.59-1.45,4.27-3.68,4.27-2.67,0-4-1.65-4-4.89V200.3h-4v12.86c0,3.24-1.35,4.89-4,4.89-2.23,0-3.67-1.68-3.67-4.27V200.3h-4v14.34A7.72,7.72,0,0,0,197.56,219a7.72,7.72,0,0,0,13.74-4.35V200.3h-.08"/></g><g id="g17072"><path id="path17074" class="cls-2" d="M223.59,208.66c-2.58-.72-4.79-1.34-4.79-2.75.08-1.19.47-1.76,2.41-1.76H231v-3.85h-9.14c-4.68,0-7.27,2.05-7.27,5.79a5.09,5.09,0,0,0,2.74,4.52,23.12,23.12,0,0,0,5.51,2.12c2.69.77,5,1.43,5,3,0,1.34-.75,1.92-2.41,1.92H214.59v3.86h10.86a7.26,7.26,0,0,0,4.71-1.47,5.62,5.62,0,0,0,1.91-4.48c0-4.52-4.69-5.82-8.48-6.88"/></g><g id="g17076"><path id="path17078" class="cls-2" d="M102.09,208.33v13h3.75v-13c0-2.4.73-5.13,6.47-5.13h.1v-3.75h-.1c-8.88,0-10.22,5.57-10.22,8.88"/></g><g id="g17080"><path id="path17082" class="cls-2" d="M73.44,214.07l-.08,0,0,.08a7.28,7.28,0,0,1-12.58.47,7.12,7.12,0,0,1-.95-5.48,7.25,7.25,0,0,1,11.08-4.48l-6.42,5.28-.08,0,.07.07,2.2,2.74,0,.08.07-.07L76.2,205l0,0,0-.07-.07-.08a11,11,0,0,0-18.52,11.72,11,11,0,0,0,18.94-.73l0-.08-.08,0"/></g><g id="g17084"><path id="path17086" class="cls-2" d="M176.52,214.07l-.08,0,0,.08a7.28,7.28,0,0,1-13.53-5,7.27,7.27,0,0,1,11.1-4.47l-6.44,5.28-.07,0,.07.07,2.2,2.74,0,.08.08-.07,9.4-7.74.08,0-.07-.07,0-.08h0a11,11,0,0,0-15.11-3.39,10.75,10.75,0,0,0-4.82,6.83,11,11,0,0,0,20.36,7.55l0-.08-.08,0"/></g></g></g></svg>