<?xml version="1.0" encoding="utf-8"?>
<!-- Generator: Adobe Illustrator 21.1.0, SVG Export Plug-In . SVG Version: 6.00 Build 0)  -->
<svg version="1.1"
	 id="svg2" inkscape:version="0.91 r13725" sodipodi:docname="NDR_Fernsehen_Logo.svg" xmlns:cc="http://creativecommons.org/ns#" xmlns:dc="http://purl.org/dc/elements/1.1/" xmlns:inkscape="http://www.inkscape.org/namespaces/inkscape" xmlns:rdf="http://www.w3.org/1999/02/22-rdf-syntax-ns#" xmlns:sodipodi="http://sodipodi.sourceforge.net/DTD/sodipodi-0.dtd" xmlns:svg="http://www.w3.org/2000/svg"
	 xmlns="http://www.w3.org/2000/svg" xmlns:xlink="http://www.w3.org/1999/xlink" x="0px" y="0px" viewBox="0 0 512 161"
	 style="enable-background:new 0 0 512 161;" xml:space="preserve">
<style type="text/css">
	.st0{clip-path:url(#SVGID_2_);}
	.st1{fill:#14295E;}
	.st2{fill:#FBBE5E;}
</style>
<sodipodi:namedview  bordercolor="#666666" borderopacity="1" gridtolerance="10" guidetolerance="10" id="namedview68" inkscape:current-layer="svg2" inkscape:cx="566.92914" inkscape:cy="202.5" inkscape:pageopacity="0" inkscape:pageshadow="2" inkscape:window-height="895" inkscape:window-maximized="0" inkscape:window-width="1569" inkscape:window-x="0" inkscape:window-y="0" inkscape:zoom="0.31926389" objecttolerance="10" pagecolor="#ffffff" showgrid="false">
	</sodipodi:namedview>
<g id="layer1" transform="matrix(0.48165964,0,0,0.48165964,-107.79128,-22.635225)">
	<g id="g4115" transform="translate(35.432458,35.37572)">
		<g id="g3089" transform="matrix(1.25,0,0,-1.25,442.39795,359.14547)">
			<g>
				<defs>
					<rect id="SVGID_1_" x="32.6" y="159.9" width="32.3" height="7.9"/>
				</defs>
				<clipPath id="SVGID_2_">
					<use xlink:href="#SVGID_1_"  style="overflow:visible;"/>
				</clipPath>
				<g id="g3091" class="st0">
				</g>
			</g>
		</g>
		<path id="path3293" inkscape:connector-curvature="0" class="st1" d="M538.3,285.5h-33.7l-25.2-54.2h-16.9v54.2h-31.3V144.3h49.3
			c30.9,0,51.2,10.2,51.2,44c0,17.2-6.8,30.9-23.3,37.3L538.3,285.5z M501.6,186.7c0-13.8-7.4-17.4-19.9-17.4h-19.9v36.4h19.9
			C493.6,205.7,501.6,199,501.6,186.7"/>
		<path id="path3295" inkscape:connector-curvature="0" class="st1" d="M313.9,11.6h-16.7v132.7h16.7V11.6z"/>
		<path id="path3299" inkscape:connector-curvature="0" class="st1" d="M416.8,236c0,35.8-18.6,49.5-52.9,49.5h-50V144.3h50
			c33,0,52.9,14.6,52.9,49.1V236z M386.3,233v-36.4c0-17.2-7.8-25.6-25.2-25.6h-15v87.9h15C378.4,258.9,386.3,250.2,386.3,233"/>
		<path id="path3303" inkscape:connector-curvature="0" class="st1" d="M297.2,285.5V144.3h-29.9v87.9l-47.6-87.9h-31.3v141.2h29.8
			v-82.3l45.7,82.3H297.2z"/>
		<path id="path3305" inkscape:connector-curvature="0" class="st1" d="M313.9,285.5h-16.7v60.3h16.7V285.5z"/>
		<path id="path3309" inkscape:connector-curvature="0" class="st2" d="M620.9,163.5c-5.6-1-7.8-1.2-11.4-1.2
			c-9.6,0-12.3,3.4-12.3,15.1v5h19.1V200h-19.1v85.6h-22.5V200h-14.3v-17.5h14.3v-5.4c0-22.7,10.6-33.9,31.9-33.9
			c6,0,10,0.4,15.7,1.6L620.9,163.5z"/>
		<path id="path3313" inkscape:connector-curvature="0" class="st2" d="M672.3,211.9c0-8.6-4.6-13.5-12.7-13.5
			c-8,0-12.5,5-12.5,13.5v10.6h25.3V211.9z M694.4,254.5c0,21.5-12.1,33.3-34.6,33.3c-22.3,0-34.8-12.5-34.8-35v-36.6
			c0-23.9,11.7-35.9,35.1-35.9c23.7,0,34.4,10.9,34.4,34.8v25.1H647v16.1c0,8,4.6,12.3,13,12.3c8.6,0,12.1-4.2,12.1-14.1v-1.6h22.3
			V254.5L694.4,254.5z"/>
		<path id="path3317" inkscape:connector-curvature="0" class="st2" d="M759.5,205.7c-14.5,0.8-20.5,4.2-25.7,14.9
			c-1.2,2.4-1.8,4.2-1.8,4.8v60.1h-22.5V182.4H731V199c8.4-13.3,14.5-17.3,28.5-18.7L759.5,205.7L759.5,205.7z"/>
		<path id="path3321" inkscape:connector-curvature="0" class="st2" d="M816,285.6v-72.9c0-8-2.6-11.5-8.8-11.5
			c-5.2,0-9.8,2.4-14.9,7.6v76.9h-22.5V182.4h20.3l1,9.6c9-8.8,15.1-11.7,23.5-11.7c15.3,0,23.9,9.6,23.9,26.7v78.7L816,285.6
			L816,285.6z"/>
		<path id="path3325" inkscape:connector-curvature="0" class="st2" d="M896.9,208.5c0-7.6-3.6-10.9-12-10.9c-7.2,0-11,3.2-11,9.1
			c0,6.4,4.6,10.8,18.3,17.7c20.3,10.4,28.1,19.5,28.1,33v2.8c0,16.7-13.5,27.5-35.1,27.5c-22.1,0-35.6-11-35.6-28.9v-4.2h22.5v2.8
			c0,9.2,4,13.1,13.3,13.1c8,0,11.9-3.2,11.9-9.8c0-6.8-4.4-11.2-17.9-18.1c-19.9-10.2-27.3-19.1-27.3-33.5v-2.4
			c0-16.9,12-26.5,33.3-26.5c20.9,0,33.1,10,33.1,26.9v4.2h-21.7V208.5L896.9,208.5z"/>
		<path id="path3329" inkscape:connector-curvature="0" class="st2" d="M978.3,211.9c0-8.6-4.6-13.5-12.7-13.5
			c-8,0-12.5,5-12.5,13.5v10.6h25.3V211.9z M1000.4,254.5c0,21.5-12.2,33.3-34.7,33.3c-22.3,0-34.8-12.5-34.8-35v-36.6
			c0-23.9,11.8-35.9,35.1-35.9c23.7,0,34.5,10.9,34.5,34.8v25.1H953v16.1c0,8,4.6,12.3,12.9,12.3c8.6,0,12.2-4.2,12.2-14.1v-1.6
			h22.3L1000.4,254.5L1000.4,254.5z"/>
		<path id="path3333" inkscape:connector-curvature="0" class="st2" d="M1062.6,285.6v-73.7c0-7-3-10.5-8.8-10.5
			c-5,0-9.6,2.2-15.9,7.4v76.9h-22.5V147.2h22.5v42.4c9.8-6.6,16.5-9.2,24.9-9.2c14.9,0,22.3,9.2,22.3,27.7v77.5L1062.6,285.6
			L1062.6,285.6z"/>
		<path id="path3337" inkscape:connector-curvature="0" class="st2" d="M1147.1,211.9c0-8.6-4.6-13.5-12.7-13.5
			c-8,0-12.5,5-12.5,13.5v10.6h25.3L1147.1,211.9L1147.1,211.9z M1169.2,254.5c0,21.5-12.1,33.3-34.6,33.3
			c-22.3,0-34.8-12.5-34.8-35v-36.6c0-23.9,11.7-35.9,35.1-35.9c23.7,0,34.4,10.9,34.4,34.8v25.1h-47.4v16.1c0,8,4.6,12.3,13,12.3
			c8.6,0,12.2-4.2,12.2-14.1v-1.6h22.3V254.5L1169.2,254.5z"/>
		<path id="path3341" inkscape:connector-curvature="0" class="st2" d="M1228.8,285.6v-72.9c0-8-2.6-11.5-8.8-11.5
			c-5.2,0-9.8,2.4-14.9,7.6v76.9h-22.5V182.4h20.3l1,9.6c9-8.8,15.1-11.7,23.5-11.7c15.3,0,23.9,9.6,23.9,26.7v78.7L1228.8,285.6
			L1228.8,285.6z"/>
	</g>
</g>
</svg>
