<?xml version="1.0" encoding="utf-8"?>
<!-- Generator: Adobe Illustrator 24.0.0, SVG Export Plug-In . SVG Version: 6.00 Build 0)  -->
<svg version="1.1" id="Ebene_1" xmlns="http://www.w3.org/2000/svg" xmlns:xlink="http://www.w3.org/1999/xlink" x="0px" y="0px"
	 viewBox="0 0 785.63 181.42" style="enable-background:new 0 0 785.63 181.42;" xml:space="preserve">
<style type="text/css">
	.st0{fill:#020203;}
	.st1{clip-path:url(#SVGID_2_);fill:url(#SVGID_3_);}
	.st2{filter:url(#Adobe_OpacityMaskFilter);}
	.st3{clip-path:url(#SVGID_5_);fill:url(#SVGID_7_);}
	.st4{clip-path:url(#SVGID_5_);mask:url(#SVGID_6_);fill:url(#SVGID_8_);}
	.st5{fill:#A1A2A2;}
	.st6{fill:#AE2D40;}
	.st7{fill:#FFFFFF;}
	.st8{opacity:0.8;}
	.st9{opacity:0.4;}
	.st10{clip-path:url(#SVGID_12_);fill:#FFFFFF;}
</style>
<g>
	<g>
		<path class="st0" d="M255.89,177.39c-0.63,0-1.26-0.03-1.87-0.09c-0.62-0.06-1.08-0.13-1.4-0.21v-35.57
			c0-0.91,0.21-1.65,0.62-2.23c0.41-0.57,1.36-0.86,2.82-0.86h8.73c2.53,0,4.76,0.34,6.68,1.01c1.92,0.67,3.51,1.6,4.78,2.79
			s2.22,2.58,2.85,4.19c0.63,1.6,0.95,3.32,0.95,5.14c0,1.94-0.35,3.72-1.04,5.34c-0.69,1.62-1.68,3.02-2.97,4.19
			c-1.29,1.17-2.83,2.08-4.63,2.73c-1.8,0.65-3.81,0.98-6.03,0.98h-6.12v9.8c0,0.79-0.25,1.46-0.74,1.99
			C258.04,177.12,257.16,177.39,255.89,177.39 M259.28,158.92h5.05c3.09,0,5.34-0.65,6.77-1.96c1.42-1.31,2.14-3.09,2.14-5.35
			c0-2.3-0.71-4.06-2.14-5.29c-1.43-1.23-3.5-1.84-6.24-1.84h-5.58V158.92z"/>
		<path class="st0" d="M288.38,177.39c-0.63,0-1.26-0.03-1.87-0.09c-0.62-0.06-1.08-0.13-1.4-0.21v-35.57
			c0-0.91,0.21-1.65,0.62-2.23c0.42-0.57,1.36-0.86,2.82-0.86h9.68c4.43,0,7.88,1.06,10.33,3.18c2.45,2.12,3.68,5.04,3.68,8.76
			c0,1.54-0.25,2.98-0.74,4.31c-0.5,1.33-1.2,2.5-2.11,3.53c-0.91,1.03-2.02,1.88-3.33,2.55c-1.31,0.67-2.79,1.11-4.45,1.31
			l12,14.25c-0.63,0.36-1.33,0.62-2.08,0.8c-0.75,0.18-1.46,0.27-2.14,0.27c-1.27,0-2.27-0.19-3-0.56
			c-0.73-0.38-1.49-1.06-2.29-2.05l-9.67-12.41h-2.68v12.23c0,0.79-0.25,1.46-0.74,1.99C290.52,177.12,289.64,177.39,288.38,177.39
			 M291.76,156.66h5.46c3.01,0,5.16-0.56,6.44-1.69c1.29-1.13,1.93-2.66,1.93-4.6c0-1.9-0.58-3.35-1.75-4.36
			c-1.17-1.01-3.02-1.51-5.55-1.51h-6.53V156.66z"/>
		<path class="st0" d="M321.75,177.03c-1.46,0-2.41-0.29-2.82-0.86c-0.42-0.57-0.62-1.32-0.62-2.23v-32.43
			c0-0.91,0.21-1.65,0.62-2.23c0.41-0.57,1.36-0.86,2.82-0.86h19.95c0.08,0.32,0.15,0.75,0.21,1.31c0.06,0.55,0.09,1.11,0.09,1.66
			c0,1.15-0.25,1.95-0.74,2.4c-0.49,0.46-1.1,0.68-1.81,0.68h-14.49v10.33h15.32c0.04,0.32,0.09,0.72,0.15,1.22
			c0.06,0.5,0.09,1.02,0.09,1.57c0,1.11-0.23,1.88-0.68,2.32c-0.46,0.44-1.02,0.65-1.69,0.65h-13.18v10.39h17.28
			c0.04,0.32,0.09,0.72,0.15,1.22c0.06,0.49,0.09,1.02,0.09,1.57c0,1.19-0.24,2.03-0.71,2.52c-0.48,0.5-1.07,0.74-1.78,0.74H321.75z
			"/>
		<path class="st0" d="M349.84,177.33c-0.67,0-1.26-0.07-1.75-0.21c-0.49-0.14-0.92-0.29-1.28-0.45l3.93-37.59
			c0.55-0.24,1.27-0.43,2.16-0.57c0.89-0.14,1.65-0.21,2.28-0.21c1.77,0,3.13,0.27,4.05,0.8c0.93,0.53,1.55,1.48,1.86,2.82
			l6.53,25.83l6.59-25.65c0.32-1.35,0.95-2.32,1.9-2.91c0.95-0.59,2.26-0.89,3.92-0.89c0.79,0,1.6,0.06,2.43,0.18
			c0.83,0.12,1.52,0.26,2.08,0.42l3.72,37.77c-0.39,0.16-0.86,0.31-1.39,0.45c-0.53,0.14-1.14,0.21-1.81,0.21
			c-0.91,0-1.66-0.16-2.26-0.48c-0.59-0.32-0.93-0.91-1.01-1.78l-2.52-30.52l-7.25,27.02c-0.32,1.11-0.86,1.87-1.63,2.29
			c-0.77,0.42-1.75,0.62-2.94,0.62c-0.6,0-1.22-0.04-1.87-0.12c-0.65-0.08-1.2-0.2-1.63-0.35l-8.18-29.46l-2.76,30.58
			c-0.08,0.83-0.42,1.4-1.01,1.72C351.38,177.17,350.67,177.33,349.84,177.33"/>
		<path class="st0" d="M397.65,177.39c-0.63,0-1.26-0.03-1.87-0.09c-0.61-0.06-1.08-0.13-1.4-0.21V141.1c0-0.79,0.25-1.45,0.74-1.99
			c0.49-0.54,1.38-0.8,2.64-0.8c0.63,0,1.26,0.03,1.87,0.09c0.61,0.06,1.08,0.13,1.4,0.21v35.99c0,0.79-0.25,1.46-0.74,1.99
			C399.79,177.12,398.91,177.39,397.65,177.39"/>
		<path class="st0" d="M412.02,177.03c-1.47,0-2.41-0.29-2.82-0.86c-0.42-0.57-0.62-1.32-0.62-2.23v-32.43
			c0-0.91,0.21-1.65,0.62-2.23c0.42-0.57,1.36-0.86,2.82-0.86h19.95c0.08,0.32,0.15,0.75,0.21,1.31c0.06,0.55,0.09,1.11,0.09,1.66
			c0,1.15-0.25,1.95-0.74,2.4c-0.49,0.46-1.1,0.68-1.81,0.68h-14.49v10.33h15.32c0.04,0.32,0.09,0.72,0.15,1.22
			c0.06,0.5,0.09,1.02,0.09,1.57c0,1.11-0.23,1.88-0.68,2.32c-0.46,0.44-1.02,0.65-1.69,0.65h-13.18v10.39h17.28
			c0.04,0.32,0.09,0.72,0.15,1.22c0.06,0.49,0.09,1.02,0.09,1.57c0,1.19-0.24,2.03-0.71,2.52c-0.48,0.5-1.07,0.74-1.78,0.74H412.02z
			"/>
		<path class="st0" d="M442.07,177.39c-0.63,0-1.26-0.03-1.87-0.09c-0.62-0.06-1.08-0.13-1.4-0.21v-35.57
			c0-0.91,0.21-1.65,0.62-2.23c0.42-0.57,1.36-0.86,2.82-0.86h9.68c4.43,0,7.88,1.06,10.33,3.18c2.45,2.12,3.68,5.04,3.68,8.76
			c0,1.54-0.25,2.98-0.74,4.31c-0.5,1.33-1.2,2.5-2.11,3.53c-0.91,1.03-2.02,1.88-3.33,2.55c-1.31,0.67-2.79,1.11-4.46,1.31
			l12,14.25c-0.63,0.36-1.33,0.62-2.08,0.8c-0.75,0.18-1.46,0.27-2.14,0.27c-1.27,0-2.27-0.19-3-0.56
			c-0.73-0.38-1.49-1.06-2.29-2.05l-9.67-12.41h-2.68v12.23c0,0.79-0.25,1.46-0.74,1.99C444.22,177.12,443.34,177.39,442.07,177.39
			 M445.45,156.66h5.46c3.01,0,5.16-0.56,6.44-1.69c1.29-1.13,1.93-2.66,1.93-4.6c0-1.9-0.58-3.35-1.75-4.36
			c-1.17-1.01-3.02-1.51-5.55-1.51h-6.53V156.66z"/>
		<path class="st0" d="M475.44,177.03c-1.46,0-2.4-0.29-2.82-0.86c-0.42-0.57-0.62-1.32-0.62-2.23v-32.43
			c0-0.91,0.21-1.65,0.62-2.23c0.42-0.57,1.36-0.86,2.82-0.86h19.95c0.08,0.32,0.15,0.75,0.21,1.31c0.06,0.55,0.09,1.11,0.09,1.66
			c0,1.15-0.25,1.95-0.74,2.4c-0.49,0.46-1.1,0.68-1.81,0.68h-14.49v10.33h15.32c0.04,0.32,0.09,0.72,0.15,1.22
			c0.06,0.5,0.09,1.02,0.09,1.57c0,1.11-0.23,1.88-0.68,2.32c-0.46,0.44-1.02,0.65-1.69,0.65h-13.19v10.39h17.28
			c0.04,0.32,0.09,0.72,0.15,1.22c0.06,0.49,0.09,1.02,0.09,1.57c0,1.19-0.24,2.03-0.71,2.52c-0.48,0.5-1.07,0.74-1.78,0.74H475.44z
			"/>
		<path class="st0" d="M505.32,177.39c-0.59,0-1.18-0.02-1.75-0.06c-0.57-0.04-1.02-0.1-1.34-0.18V138.9
			c0.43-0.2,0.99-0.35,1.66-0.45c0.67-0.1,1.29-0.15,1.84-0.15c1.58,0,2.72,0.21,3.41,0.62c0.69,0.42,1.3,1.02,1.81,1.81
			l17.29,26.72l-0.36-26.55c0-0.71,0.23-1.32,0.68-1.84c0.45-0.51,1.28-0.77,2.46-0.77c0.55,0,1.12,0.03,1.69,0.09
			c0.57,0.06,1.02,0.13,1.34,0.21v38.25c-0.91,0.36-1.98,0.53-3.21,0.53c-1.42,0-2.47-0.21-3.15-0.62
			c-0.67-0.42-1.23-0.96-1.66-1.63l-17.88-27.85l0.36,27.49c0,0.75-0.23,1.38-0.68,1.87C507.38,177.14,506.54,177.39,505.32,177.39"
			/>
	</g>
	<g>
		<defs>
			<path id="SVGID_1_" d="M19.21,6.56c-8.06,0-10.93,4.76-10.93,12.68v76.94c0,7.92,2.87,12.68,10.93,12.68h748.48
				c8.06,0,10.93-4.76,10.93-12.68V19.24c0-7.92-2.87-12.68-10.93-12.68H19.21z"/>
		</defs>
		<clipPath id="SVGID_2_">
			<use xlink:href="#SVGID_1_"  style="overflow:visible;"/>
		</clipPath>
		
			<linearGradient id="SVGID_3_" gradientUnits="userSpaceOnUse" x1="0" y1="181.417" x2="1" y2="181.417" gradientTransform="matrix(0 104.0158 -104.0158 0 19263.6758 5.6655)">
			<stop  offset="0" style="stop-color:#868584"/>
			<stop  offset="0.0204" style="stop-color:#D8D9DA"/>
			<stop  offset="0.0524" style="stop-color:#F4F3F4"/>
			<stop  offset="0.4877" style="stop-color:#EDEEEE"/>
			<stop  offset="0.8955" style="stop-color:#F4F3F4"/>
			<stop  offset="0.9294" style="stop-color:#EAEAEB"/>
			<stop  offset="0.9643" style="stop-color:#D8D9DA"/>
			<stop  offset="1" style="stop-color:#868584"/>
		</linearGradient>
		<rect x="8.27" y="6.56" class="st1" width="770.34" height="102.3"/>
	</g>
	<g>
		<defs>
			<rect id="SVGID_4_" x="196.2" y="6.55" width="372.06" height="102.3"/>
		</defs>
		<clipPath id="SVGID_5_">
			<use xlink:href="#SVGID_4_"  style="overflow:visible;"/>
		</clipPath>
		<defs>
			<filter id="Adobe_OpacityMaskFilter" filterUnits="userSpaceOnUse" x="196.2" y="6.55" width="372.06" height="102.3">
				<feColorMatrix  type="matrix" values="1 0 0 0 0  0 1 0 0 0  0 0 1 0 0  0 0 0 1 0"/>
			</filter>
		</defs>
		<mask maskUnits="userSpaceOnUse" x="196.2" y="6.55" width="372.06" height="102.3" id="SVGID_6_">
			<g class="st2">
				
					<linearGradient id="SVGID_7_" gradientUnits="userSpaceOnUse" x1="-3.579790e-06" y1="181.417" x2="1" y2="181.417" gradientTransform="matrix(0 -102.2995 -102.2995 0 18941.1113 108.8526)">
					<stop  offset="0" style="stop-color:#FFFFFF"/>
					<stop  offset="3.723490e-03" style="stop-color:#FFFFFF"/>
					<stop  offset="0.1044" style="stop-color:#FFFFFF"/>
					<stop  offset="0.8981" style="stop-color:#FFFFFF"/>
					<stop  offset="0.9997" style="stop-color:#CCCCCC"/>
					<stop  offset="1" style="stop-color:#CCCCCC"/>
				</linearGradient>
				<rect x="196.2" y="6.55" class="st3" width="372.06" height="102.3"/>
			</g>
		</mask>
		
			<linearGradient id="SVGID_8_" gradientUnits="userSpaceOnUse" x1="-3.579791e-06" y1="181.417" x2="1" y2="181.417" gradientTransform="matrix(0 -102.2995 -102.2995 0 18941.1074 108.8526)">
			<stop  offset="0" style="stop-color:#821626"/>
			<stop  offset="3.723490e-03" style="stop-color:#821626"/>
			<stop  offset="0.1044" style="stop-color:#AE2D40"/>
			<stop  offset="0.8981" style="stop-color:#AE2D40"/>
			<stop  offset="0.9997" style="stop-color:#BA3D4D"/>
			<stop  offset="1" style="stop-color:#BA3D4D"/>
		</linearGradient>
		<rect x="196.2" y="6.55" class="st4" width="372.06" height="102.3"/>
	</g>
	<g>
		<path class="st5" d="M20.43,111.07c-8.06,0-13.52-4.76-13.52-12.68V17.02c0-7.92,5.45-12.68,13.52-12.68h746.04
			c8.07,0,13.52,4.76,13.52,12.68v81.37c0,7.92-5.45,12.68-13.52,12.68H20.43z M767.02,112.07c11.97,0,15.62-7.44,15.62-14.89V18.22
			c0-7.44-3.65-14.88-15.62-14.88H19.87C7.9,3.34,4.25,10.78,4.25,18.22v78.96c0,7.44,3.65,14.89,15.62,14.89H767.02z"/>
		<path class="st6" d="M129.78,101.01c1.2,0.61,3.67,1.36,6.78,1.44c5.32,0.12,8.23-1.93,10.38-6.69l28.57-63.73
			c-1.18-0.63-3.79-1.34-5.93-1.39c-3.67-0.07-8.6,0.68-11.75,8.2l-9.25,21.84l-18.14-29.56c-1.17-0.36-4.03-0.87-6.13-0.87
			c-6.39,0-9.98,2.36-13.69,6.39L92.98,55.94l14.19,22.33c2.62,4.07,6.08,6.14,11.69,6.14c3.67,0,6.73-0.83,8.14-1.51l-17.08-25.76
			l12.11-12.83l19.86,31.17L129.78,101.01z M92.3,76.9c0,4.7-1.85,7.41-11.01,7.41c-1.22,0-2.28-0.09-3.3-0.24V21.76
			c0-4.73,1.61-9.67,10.87-9.67c1.17,0,2.34,0.12,3.44,0.35V76.9z M73.38,67.5c0,8.76-5.73,15.16-17.35,16.42
			c-8.43,0.9-20.62-0.16-26.42-0.83c-0.22-0.94-0.38-2.12-0.38-3.04c0-7.67,4.15-9.41,8.02-9.41c4.03,0,10.38,0.7,15.1,0.7
			c5.19,0,6.77-1.76,6.77-3.44c0-2.2-2.1-3.11-6.13-3.89l-11.03-2.12c-9.18-1.76-14.08-8.11-14.08-14.85
			c0-8.19,5.8-15.05,17.2-16.31c8.62-0.93,19.11,0.12,24.87,0.83c0.21,0.99,0.32,1.92,0.32,2.95c0,7.64-4.03,9.29-7.91,9.29
			c-2.98,0-7.61-0.56-12.89-0.56c-5.38,0-7.61,1.49-7.61,3.3c0,1.91,2.13,2.7,5.49,3.29l10.54,1.96
			C68.73,53.78,73.38,59.93,73.38,67.5"/>
		<path class="st7" d="M247.06,89.96c-4.54,0-8.72-0.82-12.55-2.45c-3.83-1.63-7.15-3.89-9.96-6.77c-2.81-2.88-5.01-6.31-6.61-10.28
			c-1.6-3.97-2.4-8.26-2.4-12.87c0-4.48,0.8-8.68,2.4-12.58c1.6-3.9,3.8-7.3,6.61-10.18c2.81-2.88,6.13-5.14,9.96-6.77
			c3.83-1.63,8.02-2.45,12.55-2.45c3.26,0,6.42,0.35,9.48,1.06c3.07,0.71,5.91,1.6,8.53,2.69c0.58,8.52-1.5,12.77-6.23,12.77
			c-0.83,0-1.6-0.1-2.3-0.29c-0.7-0.19-1.47-0.38-2.3-0.58c-0.83-0.19-1.76-0.38-2.78-0.58c-1.02-0.19-2.24-0.29-3.64-0.29
			c-2.24,0-4.34,0.4-6.32,1.2c-1.98,0.8-3.69,1.95-5.13,3.46c-1.44,1.51-2.57,3.31-3.4,5.43c-0.83,2.11-1.25,4.48-1.25,7.11
			c0,2.75,0.42,5.22,1.25,7.4c0.83,2.18,1.96,4.02,3.4,5.52c1.44,1.5,3.15,2.66,5.13,3.46c1.98,0.8,4.09,1.2,6.32,1.2
			c1.4,0,2.65-0.1,3.74-0.29c1.09-0.19,2.06-0.38,2.92-0.58c0.86-0.19,1.68-0.38,2.44-0.58c0.77-0.19,1.57-0.29,2.4-0.29
			c4.66,0,6.74,4.26,6.23,12.77c-2.62,1.09-5.54,1.99-8.77,2.69C253.55,89.61,250.31,89.96,247.06,89.96"/>
		<path class="st7" d="M280.12,89.19c-1.34,0-2.67-0.06-3.98-0.19c-1.31-0.13-2.41-0.29-3.3-0.48V32.91c0-1.86,0.57-3.44,1.72-4.76
			c1.15-1.31,3.32-1.97,6.51-1.97c1.34,0,2.67,0.06,3.98,0.19c1.31,0.13,2.41,0.29,3.3,0.48v55.61c0,1.86-0.57,3.44-1.72,4.76
			C285.48,88.54,283.31,89.19,280.12,89.19"/>
		<path class="st7" d="M306.32,89.19c-1.28,0-2.52-0.06-3.74-0.19c-1.21-0.13-2.24-0.29-3.07-0.48V27.34
			c0.96-0.32,2.2-0.59,3.74-0.82c1.53-0.22,2.84-0.34,3.93-0.34c3.51,0,6.07,0.45,7.66,1.34c1.6,0.9,2.94,2.21,4.02,3.94
			l21.75,34.29V32.33c0-0.83,0.11-1.62,0.34-2.35c0.22-0.74,0.61-1.39,1.15-1.97c0.54-0.58,1.29-1.02,2.25-1.34
			c0.96-0.32,2.17-0.48,3.64-0.48c1.28,0,2.51,0.06,3.69,0.19c1.18,0.13,2.19,0.26,3.02,0.38v61.28c-0.9,0.45-1.98,0.75-3.26,0.91
			c-1.28,0.16-2.52,0.24-3.74,0.24c-3,0-5.24-0.42-6.71-1.25c-1.47-0.83-2.68-1.98-3.64-3.46l-23.28-37.27v35.63
			c0,1.79-0.54,3.3-1.63,4.51C311.37,88.58,309.32,89.19,306.32,89.19"/>
		<path class="st7" d="M374.38,88.81c-1.79,0-3.24-0.19-4.36-0.58c-1.12-0.38-1.98-0.91-2.59-1.58c-0.61-0.67-1.02-1.49-1.24-2.45
			c-0.23-0.96-0.34-1.98-0.34-3.07V34.06c0-1.09,0.11-2.11,0.34-3.07c0.22-0.96,0.64-1.78,1.24-2.45c0.61-0.67,1.47-1.2,2.59-1.59
			c1.12-0.38,2.57-0.58,4.36-0.58h31.71c0.13,0.71,0.25,1.67,0.38,2.88c0.13,1.22,0.19,2.47,0.19,3.75c0,2.69-0.54,4.6-1.63,5.72
			c-1.09,1.12-2.46,1.68-4.12,1.68h-19.55v10.95h22.52c0.13,0.64,0.26,1.49,0.38,2.54c0.13,1.06,0.19,2.19,0.19,3.41
			c0,2.56-0.51,4.31-1.53,5.24c-1.02,0.93-2.3,1.39-3.83,1.39h-17.73v10.85h25.68c0.13,0.71,0.26,1.68,0.38,2.93
			c0.13,1.25,0.19,2.48,0.19,3.7c0,2.75-0.54,4.68-1.63,5.76c-1.09,1.09-2.46,1.63-4.12,1.63H374.38z"/>
		<path class="st7" d="M420.43,89.19c-1.47,0-2.76-0.14-3.88-0.43c-1.12-0.29-2.09-0.63-2.92-1.01l5.86-59.84
			c1.21-0.51,2.81-0.93,4.79-1.25c1.98-0.32,3.67-0.48,5.08-0.48c1.98,0,3.68,0.13,5.12,0.38c1.44,0.26,2.67,0.69,3.69,1.3
			c1.02,0.61,1.83,1.46,2.44,2.55c0.61,1.09,1.07,2.43,1.39,4.03l2.49,11.62c0.7,3.2,1.45,6.74,2.25,10.61
			c0.8,3.88,1.52,7.86,2.15,11.96h0.38c0.7-4.1,1.43-8.07,2.2-11.91c0.76-3.84,1.56-7.36,2.39-10.57l3.06-12.2
			c0.76-3.01,1.99-5.06,3.68-6.15c1.69-1.09,4.32-1.63,7.89-1.63c1.79,0,3.59,0.14,5.41,0.43c1.82,0.29,3.33,0.59,4.54,0.91
			l5.6,60.22c-0.89,0.32-1.96,0.64-3.21,0.96c-1.25,0.32-2.6,0.48-4.07,0.48c-2.04,0-3.77-0.35-5.17-1.06
			c-1.41-0.7-2.17-2.02-2.3-3.94l-1.44-20.75c-0.32-3.65-0.59-7.47-0.82-11.48c-0.22-4-0.37-7.79-0.43-11.38h-0.19
			c-0.83,3.33-1.68,6.93-2.54,10.81c-0.86,3.87-1.74,7.44-2.63,10.71l-3.93,16.33c-0.96,3.84-3.99,5.76-9.1,5.76
			c-1.28,0-2.59-0.13-3.93-0.38c-1.34-0.25-2.49-0.54-3.45-0.86l-4.88-20.36c-0.96-3.78-1.85-7.49-2.68-11.14
			c-0.83-3.65-1.6-7.3-2.3-10.95h-0.29c-0.19,5.12-0.45,9.81-0.77,14.07c-0.32,4.26-0.61,7.92-0.86,11l-1.53,18.73
			c-0.13,1.86-0.83,3.14-2.11,3.84C424.14,88.84,422.48,89.19,420.43,89.19"/>
		<path class="st7" d="M495.89,89.38c-1.21,0-2.6-0.11-4.17-0.34c-1.57-0.22-2.86-0.53-3.88-0.91l19.88-60.89
			c1.73-0.45,3.47-0.77,5.24-0.96c1.76-0.19,3.38-0.29,4.85-0.29c2.11,0,3.92,0.16,5.43,0.48c1.51,0.32,2.77,0.8,3.79,1.44
			c1.03,0.64,1.87,1.49,2.55,2.55c0.67,1.06,1.23,2.29,1.68,3.7l17.04,53.88c-1.09,0.45-2.4,0.78-3.93,1.01
			c-1.53,0.22-3.04,0.34-4.5,0.34c-1.66,0-3.27-0.27-4.84-0.82s-2.7-1.78-3.4-3.7l-3.26-9.89h-20.89l-2.77,9.32
			c-0.7,2.24-1.89,3.65-3.55,4.23C499.5,89.1,497.74,89.38,495.89,89.38 M510.83,62.97h14.33l-7.15-23.53L510.83,62.97z"/>
		<path class="st6" d="M613.76,82.29c-1.1,0-2.15-0.05-3.15-0.15c-1-0.1-1.86-0.21-2.57-0.34V62.93h-17.52
			c-0.13-0.65-0.26-1.41-0.39-2.28c-0.13-0.87-0.19-1.89-0.19-3.05c0-2.45,0.52-4.16,1.55-5.13c1.03-0.97,2.29-1.45,3.77-1.45h12.78
			V37.57c0-1.48,0.45-2.73,1.36-3.73c0.9-1,2.58-1.5,5.03-1.5c1.1,0,2.14,0.05,3.15,0.15c1,0.1,1.85,0.21,2.56,0.34v18.2h17.71
			c0.13,0.65,0.26,1.4,0.39,2.28c0.13,0.87,0.19,1.89,0.19,3.05c0,2.45-0.52,4.16-1.55,5.13c-1.03,0.97-2.29,1.45-3.78,1.45h-12.97
			v14.13c0,1.49-0.45,2.73-1.35,3.73C617.89,81.79,616.22,82.29,613.76,82.29"/>
		<path class="st6" d="M649.13,88.97c-0.27-0.8-0.49-1.75-0.65-2.85c-0.17-1.1-0.25-2.22-0.25-3.35c0-0.8,0.08-1.7,0.25-2.7
			c0.17-1,0.45-2.04,0.85-3.11c0.4-1.07,0.97-2.14,1.71-3.21c0.74-1.07,1.67-2.07,2.82-3l12.47-10.83c2.21-1.81,4.07-3.38,5.58-4.72
			c1.51-1.34,2.75-2.6,3.72-3.77c0.97-1.17,1.66-2.31,2.06-3.42c0.4-1.11,0.6-2.3,0.6-3.57c0-1.74-0.6-3.35-1.81-4.82
			c-1.21-1.47-3.22-2.21-6.03-2.21c-1.74,0-3.3,0.22-4.67,0.65c-1.38,0.44-2.63,0.9-3.77,1.41c-1.14,0.5-2.21,0.96-3.22,1.36
			c-1,0.4-2.05,0.6-3.12,0.6c-1.01,0-1.98-0.27-2.92-0.8c-0.94-0.54-1.74-1.31-2.41-2.31c-0.67-1.01-1.17-2.23-1.51-3.67
			c-0.34-1.44-0.44-3.07-0.3-4.88c2.75-2.01,5.96-3.72,9.65-5.13c3.68-1.41,8.04-2.11,13.07-2.11c3.62,0,6.89,0.5,9.8,1.51
			c2.92,1.01,5.38,2.43,7.39,4.27c2.01,1.84,3.57,4.07,4.67,6.68c1.11,2.61,1.66,5.5,1.66,8.65c0,4.76-1.21,8.92-3.62,12.47
			c-2.41,3.55-5.8,6.74-10.15,9.55l-11.56,8.65h25.54c0.13,0.74,0.3,1.71,0.5,2.92c0.2,1.21,0.3,2.48,0.3,3.82
			c0,3.02-0.64,5.09-1.91,6.23c-1.27,1.14-2.78,1.71-4.52,1.71H649.13z"/>
		<path class="st6" d="M736.09,89.47c-1.21,0-2.45-0.08-3.72-0.25c-1.27-0.17-2.25-0.32-2.92-0.45V75.6h-29.3
			c-0.13-0.74-0.29-1.69-0.45-2.86c-0.17-1.17-0.25-2.43-0.25-3.77c0-1.67,0.28-3.32,0.86-4.93c0.57-1.61,1.49-3.28,2.76-5.03
			l24.28-35.39h17.49v38.2h9.45c0.13,0.74,0.28,1.69,0.45,2.87c0.17,1.17,0.25,2.4,0.25,3.67c0,2.82-0.57,4.74-1.71,5.78
			c-1.14,1.04-2.58,1.56-4.32,1.56h-4.12v8.75c0,1.74-0.6,3.02-1.81,3.82C741.82,89.07,739.51,89.47,736.09,89.47 M716.29,61.82
			h13.17v-19.1L716.29,61.82z"/>
		<g class="st8">
			<g>
				<defs>
					<path id="SVGID_9_" d="M778.43,19.98L778.43,19.98z"/>
				</defs>
				<clipPath id="SVGID_10_">
					<use xlink:href="#SVGID_9_"  style="overflow:visible;"/>
				</clipPath>
			</g>
		</g>
		<g class="st9">
			<g>
				<defs>
					<rect id="SVGID_11_" x="9.06" y="8.2" width="768.41" height="91.43"/>
				</defs>
				<clipPath id="SVGID_12_">
					<use xlink:href="#SVGID_11_"  style="overflow:visible;"/>
				</clipPath>
				<path class="st10" d="M768.41,84.87c6.94,6.87,7.88,13.35,8.12,14.77c0.68,0,0.93-3.04,0.93-7.56l-0.03-72.62
					c0-8.41-2.73-11.25-9.85-11.25c-2.41,0-8.11,1.29-11.32,1.29H26.97c-3.21,0-5.62-1.29-8.04-1.29c-7.12,0-9.85,2.84-9.85,11.25
					L9.06,92.07c0,4.53,0.25,7.56,0.93,7.56c0.25-1.42,0.46-8.4,8.12-14.77C79.33,37.62,702.4,23.12,768.41,84.87"/>
			</g>
		</g>
	</g>
</g>
</svg>
