<?xml version="1.0" encoding="utf-8"?>
<!-- Generator: Adobe Illustrator 21.1.0, SVG Export Plug-In . SVG Version: 6.00 Build 0)  -->
<svg version="1.1"
	 id="svg26043" inkscape:version="0.91 r13725" sodipodi:docname="RBB_Fernsehen-Logo.svg" xmlns:cc="http://creativecommons.org/ns#" xmlns:dc="http://purl.org/dc/elements/1.1/" xmlns:inkscape="http://www.inkscape.org/namespaces/inkscape" xmlns:rdf="http://www.w3.org/1999/02/22-rdf-syntax-ns#" xmlns:sodipodi="http://sodipodi.sourceforge.net/DTD/sodipodi-0.dtd" xmlns:svg="http://www.w3.org/2000/svg"
	 xmlns="http://www.w3.org/2000/svg" xmlns:xlink="http://www.w3.org/1999/xlink" x="0px" y="0px" viewBox="0 0 512 242.4"
	 style="enable-background:new 0 0 512 242.4;" xml:space="preserve">
<style type="text/css">
	.st0{fill:#53483C;}
	.st1{fill:#A71330;}
</style>
<sodipodi:namedview  bordercolor="#666666" borderopacity="1" gridtolerance="10" guidetolerance="10" id="namedview22" inkscape:current-layer="svg26043" inkscape:cx="407.48032" inkscape:cy="202.32283" inkscape:pageopacity="0" inkscape:pageshadow="2" inkscape:window-height="784" inkscape:window-maximized="0" inkscape:window-width="1379" inkscape:window-x="0" inkscape:window-y="0" inkscape:zoom="0.44419324" objecttolerance="10" pagecolor="#ffffff" showgrid="false">
	</sodipodi:namedview>
<g id="g6856" transform="matrix(0.65680808,0,0,0.65680808,18.544708,262.12282)">
	<path id="path8911" inkscape:connector-curvature="0" class="st0" d="M83.7-85.1v12.6h20v13.1h-20v28.3H70.1v-67.1h48.1v13.1
		C118.2-85.1,83.7-85.1,83.7-85.1z"/>
	<path id="path8913" inkscape:connector-curvature="0" class="st0" d="M127.3-31.1v-67.1h46.5v13.1h-33.1v11.5h19.2v13.1h-19.2v16
		h34.5v13.4C175.1-31.1,127.3-31.1,127.3-31.1z"/>
	<path id="path8915" inkscape:connector-curvature="0" class="st0" d="M227.5-31.1l-12-24.3h-13.6v24.3h-13.4v-67.1h31.3
		c12.6,0,23,6.9,23,21.1c0,10.2-4.3,16.6-12.8,19.8l12.8,26.2C242.7-31.1,227.5-31.1,227.5-31.1z M219.5-85.4h-17.6V-68h17.6
		c6.1,0,9.6-2.9,9.6-8.8C229.1-82.7,225.4-85.4,219.5-85.4"/>
	<path id="path8917" inkscape:connector-curvature="0" class="st0" d="M298.3-31.1l-24.6-36.6c-1.6-2.7-4-5.9-4.8-7.7
		c0,2.7,0.3,11,0.3,14.7v29.7h-13.4v-67.1h12.8l23.8,35.3c1.6,2.7,4,5.9,4.8,7.7c0-2.7-0.3-11-0.3-14.7v-28.3h13.4v67.1
		C310.4-31.1,298.3-31.1,298.3-31.1z"/>
	<path id="path8919" inkscape:connector-curvature="0" class="st0" d="M345.6-30c-11.2,0-21.1-4.8-26.2-12.3l9.6-8.6
		c4.8,5.3,10.7,7.5,17.1,7.5c8,0,11.8-2.1,11.8-7.2c0-4.3-2.4-6.1-15-9.1c-12.3-2.9-20.8-6.7-20.8-20c0-12,10.7-19.5,23.8-19.5
		c10.4,0,18.2,4,24.6,10.4l-9.9,9.4c-4.3-4.3-9.1-6.9-15-6.9c-7.2,0-9.6,3.2-9.6,6.1c0,4.3,2.7,5.6,13.4,8
		c10.7,2.4,22.4,6.1,22.4,20.8C371.8-38.9,363.8-30,345.6-30"/>
	<path id="path8921" inkscape:connector-curvature="0" class="st0" d="M383-31.1v-67.1h46.8v13.1h-33.4v11.5h19.5v13.1h-19.5v16
		h34.7v13.4C431.1-31.1,383-31.1,383-31.1z"/>
	<path id="path8923" inkscape:connector-curvature="0" class="st0" d="M483.5-31.1v-28.3H456v28.3h-13.4v-67.1H456v25.7h27.5v-25.7
		h13.4v67.1C496.9-31.1,483.5-31.1,483.5-31.1z"/>
	<path id="path8925" inkscape:connector-curvature="0" class="st0" d="M511.3-31.1v-67.1h46.5v13.1h-33.1v11.5h19.2v13.1h-19.2v16
		h34.5v13.4C559.2-31.1,511.3-31.1,511.3-31.1z"/>
	<path id="path8927" inkscape:connector-curvature="0" class="st0" d="M612.9-31.1l-24.6-36.6c-1.6-2.7-3.7-5.9-4.8-7.7
		c0,2.7,0.3,11,0.3,14.7v29.7h-13.1v-67.1h12.8l23.8,35.3c1.6,2.7,3.7,5.9,4.5,7.7c0-2.7-0.3-11-0.3-14.7v-28.3h13.4v67.1
		L612.9-31.1L612.9-31.1z"/>
	<path id="path8929" inkscape:connector-curvature="0" class="st1" d="M397.7-231.3c0-46.2-8.3-56.7-8.3-56.7s-39-21.4-118.4-21.4
		c-17.1,0-36.9,1.3-57.2,4v-73h-34.5v217c0,0,55.1,6.9,102.1,6.9c85.8,0,108.2-17.9,108.2-17.9S397.7-183.7,397.7-231.3 M363-229.7
		c0,12.6-1.1,25.1-1.9,32.6c-11,2.9-35.5,8-79.1,8.3c-19,0-41.7-1.3-68.1-3.7v-77.8c73.5-11,126.4,1.3,146.7,7.7
		C361.4-255,363-242.5,363-229.7"/>
	<path id="path8931" inkscape:connector-curvature="0" class="st1" d="M636.6-231.3c0-46.2-8.3-56.7-8.3-56.7s-39-21.4-118.1-21.4
		c-17.1,0-37.1,1.3-57.5,4v-73h-34.5v217c0,0,55.1,6.9,102.1,6.9c86,0,108.2-17.9,108.2-17.9S636.6-183.7,636.6-231.3 M601.9-229.7
		c0,12.6-1.1,25.1-1.9,32.6c-11,2.9-35.5,8-79.1,8.3c-19,0-41.7-1.3-68.1-3.7v-77.8c73.5-11,126.4,1.3,146.7,7.7
		C600.3-255,601.9-242.5,601.9-229.7"/>
	<path id="path8933" inkscape:connector-curvature="0" class="st1" d="M157-308.5C24.4-308-28.2-276.7-28.2-276.7v120h35V-254
		c16.6-5.6,63.3-19,150.2-20.3V-308.5z"/>
	<path id="path8935" inkscape:connector-curvature="0" class="st1" d="M700-399.1c28.3,0,51.3,23,51.3,51.6
		c0,28.3-23,51.3-51.3,51.3c-28.6,0-51.6-23-51.6-51.3C648.4-376.1,671.4-399.1,700-399.1 M720.6-326.7v-51.6l-51.8,18.4v12.8
		l17.1-6.1v38.7L720.6-326.7z M700-391.6c-24.3,0-44.1,19.8-44.1,44.1c0,24.3,19.8,43.8,44.1,43.8c24.1,0,43.8-19.5,43.8-43.8
		C743.8-371.8,724-391.6,700-391.6"/>
</g>
</svg>
