<?xml version="1.0" encoding="utf-8"?>
<!-- Generator: Adobe Illustrator 21.1.0, SVG Export Plug-In . SVG Version: 6.00 Build 0)  -->
<svg version="1.1"
	 id="svg4348" inkscape:version="0.48.5 r10040" sodipodi:docname="France_2_2018.svg" xmlns:cc="http://creativecommons.org/ns#" xmlns:dc="http://purl.org/dc/elements/1.1/" xmlns:inkscape="http://www.inkscape.org/namespaces/inkscape" xmlns:rdf="http://www.w3.org/1999/02/22-rdf-syntax-ns#" xmlns:sodipodi="http://sodipodi.sourceforge.net/DTD/sodipodi-0.dtd" xmlns:svg="http://www.w3.org/2000/svg"
	 xmlns="http://www.w3.org/2000/svg" xmlns:xlink="http://www.w3.org/1999/xlink" x="0px" y="0px" viewBox="0 0 1000 190.4"
	 style="enable-background:new 0 0 1000 190.4;" xml:space="preserve">
<style type="text/css">
	.st0{fill:#232323;}
	.st1{fill:#DE0038;}
</style>
<g id="layer1" transform="translate(-277.27079,-360.53783)" inkscape:groupmode="layer" inkscape:label="Layer 1">
	<g id="g5" transform="matrix(1.8633606,0,0,1.8633606,275.7801,358.11546)">
		<g id="g15">
			<path id="path17" inkscape:connector-curvature="0" class="st0" d="M54.7,18.1c-1.5-0.4-3.8-0.7-5.5-0.7c-4.5,0-8,1.3-10.2,3.9
				c-1.5,2-2.5,4.5-2.5,10.8v2.1h21v15.4h-21v52.5H18.3V49.6H0.8V34.2h17.5v-2.8c0-10.9,2.5-17.5,7.3-22.1s11.9-8,21.1-8
				c3.6,0,7,0.3,10.8,1.3C57.5,2.6,54.7,18.1,54.7,18.1z"/>
			<path id="path19" inkscape:connector-curvature="0" class="st0" d="M107.2,50.3c-1.3-0.4-3.9-0.7-6.6-0.7c-8,0-14.3,5.7-16.5,9.8
				v42.7H65.9V34.2h17.5V41c4.1-5,11.5-8.3,19.7-8.3c2.7,0,4.2,0.3,6.2,0.6L107.2,50.3L107.2,50.3z"/>
			<path id="path21" inkscape:connector-curvature="0" class="st0" d="M180.7,102.1h-17.5v-5.5c-5.6,4.8-12,6.9-18.9,6.9
				c-10.1,0-19.6-4.5-25.6-11.5c-5.3-6.2-8.7-14.6-8.7-23.8c0-20,14.8-35.4,33.3-35.4c7.7,0,14.6,2.5,19.9,6.9v-5.5h17.5V102.1z
				 M162.5,58c-3.8-5-9.8-8.4-16.8-8.4c-10.6,0-17.5,8.8-17.5,18.6c0,10.6,7.7,18.5,17.9,18.5c6.9,0,12.9-3.4,16.4-8.4L162.5,58
				L162.5,58z"/>
			<path id="path23" inkscape:connector-curvature="0" class="st0" d="M196.1,102.1V34.2h17.5v5.5c5.2-4.2,11.6-6.9,19.2-6.9
				c9.4,0,17.9,4.2,23.5,10.9c4.5,5.3,7,12.2,7,23.8v34.6h-18.2v-36c0-6.7-1.5-10.2-4.1-12.7c-2.4-2.4-6-3.8-10.2-3.8
				c-7.7,0-14,4.9-16.5,8.4v44.1H196.1L196.1,102.1z"/>
			<path id="path25" inkscape:connector-curvature="0" class="st0" d="M338.9,88.2c-8,10.6-18.1,15.3-30.8,15.3
				c-21,0-36.4-15.7-36.4-35.3c0-19.7,15.8-35.4,36.5-35.4c11.8,0,22.3,5.5,28.6,13.6L324,57.7c-3.6-4.8-9.1-8.1-15.7-8.1
				c-10.5,0-18.3,8.3-18.3,18.6c0,10.6,7.7,18.5,18.8,18.5c7.4,0,13.3-4.5,16.2-9L338.9,88.2z"/>
			<path id="path27" inkscape:connector-curvature="0" class="st0" d="M405.2,91.3c-6.6,7.8-17.4,12.2-27.9,12.2
				c-20.3,0-35.6-14-35.6-35.3c0-18.9,12.9-35.4,33-35.4c18.8,0,32.1,15.8,32.1,34.7c0,1.8-0.1,3.6-0.4,5.2h-47
				c1,9.5,8.7,16.1,18.3,16.1c7.7,0,13.9-4.3,17.1-7.8L405.2,91.3L405.2,91.3z M388.2,59.4c-0.6-6-6-11.9-13.4-11.9
				c-7.6,0-13.7,5.7-14.6,11.9H388.2z"/>
		</g>
	</g>
	<g id="text4318" transform="matrix(5.1161776,0,0,5.1161776,-1130.2624,-3360.7211)">
		<path id="path4323" inkscape:connector-curvature="0" sodipodi:nodetypes="ccccccccccccccccccccsccccc" class="st0" d="M447,764
			v-5l12.5-13.1c1.4-1.5,2.3-2.9,2.8-4c0.5-1.1,0.7-2.1,0.7-3c0-0.6-0.1-1.2-0.4-1.8c-0.2-0.6-0.6-1.1-1-1.5
			c-0.4-0.4-0.9-0.8-1.4-1.1c-0.6-0.3-1.2-0.4-1.8-0.4c-1.2,0-2.2,0.4-3,1.1c-0.8,0.7-1.5,2-1.5,4.2H447c0-3.1,1.2-5.5,1.9-6.5
			s1.6-1.9,2.6-2.6c1-0.7,2.1-1.3,3.2-1.7c1.2-0.4,2.4-0.6,3.7-0.6c1.5,0,3,0.3,4.3,0.8c1.4,0.5,2.6,1.3,3.6,2.3
			c1,1,1.9,2.1,2.5,3.5c0.6,1.4,0.9,2.8,0.9,4.4c0,2.2-0.5,4.1-1.4,5.7c-0.9,1.6-2,3.1-3.2,4.5l-8.5,8.8h13.8v6.1L447,764z"/>
	</g>
	
		<path id="path4325" sodipodi:cx="436.63754" sodipodi:cy="751.52789" sodipodi:end="6.2831852" sodipodi:open="true" sodipodi:rx="6.8521008" sodipodi:ry="6.8521008" sodipodi:start="0" sodipodi:type="arc" class="st1" d="
		M1135.1,484.8c0,19.4-15.7,35.1-35.1,35.1c-19.4,0-35.1-15.7-35.1-35.1c0-19.4,15.7-35.1,35.1-35.1
		C1119.4,449.8,1135.1,465.5,1135.1,484.8"/>
</g>
</svg>
