<svg id="RTL_PLUS_LOGO" data-name="RTL PLUS LOGO" xmlns="http://www.w3.org/2000/svg" xmlns:xlink="http://www.w3.org/1999/xlink" viewBox="0 0 708.1 113.65"><defs><style>.cls-1{fill:url(#New_Gradient_Swatch_2);}.cls-2{fill:url(#New_Gradient_Swatch_2-2);}.cls-3{fill:url(#New_Gradient_Swatch_2-4);}.cls-4{fill:url(#New_Gradient_Swatch_2-5);}.cls-5{fill:url(#New_Gradient_Swatch_2-6);}.cls-6{fill:url(#New_Gradient_Swatch_2-7);}.cls-7{fill:#fff;}</style><linearGradient id="New_Gradient_Swatch_2" y1="56.18" x2="704.14" y2="56.18" gradientUnits="userSpaceOnUse"><stop offset="0" stop-color="#b43796"/><stop offset="0.5" stop-color="#e61969"/><stop offset="1" stop-color="#f0375a"/></linearGradient><linearGradient id="New_Gradient_Swatch_2-2" x1="-0.07" y1="56.2" x2="704.06" y2="56.2" xlink:href="#New_Gradient_Swatch_2"/><linearGradient id="New_Gradient_Swatch_2-4" x1="-0.07" y1="68.63" x2="704.06" y2="68.63" xlink:href="#New_Gradient_Swatch_2"/><linearGradient id="New_Gradient_Swatch_2-5" x1="-0.07" y1="44.46" x2="704.06" y2="44.46" xlink:href="#New_Gradient_Swatch_2"/><linearGradient id="New_Gradient_Swatch_2-6" x1="-0.07" y1="56.27" x2="704.06" y2="56.27" xlink:href="#New_Gradient_Swatch_2"/><linearGradient id="New_Gradient_Swatch_2-7" x1="-0.07" y1="56.34" x2="704.06" y2="56.34" xlink:href="#New_Gradient_Swatch_2"/></defs><title>RTLplus_Logo_color_gradient_RGB</title><rect class="cls-1" y="23.46" width="124.86" height="65.43" rx="10.15" ry="10.15"/><rect class="cls-2" x="134.54" y="23.48" width="124.86" height="65.43" rx="10.15" ry="10.15"/><rect class="cls-2" x="268.65" y="23.48" width="124.86" height="65.43" rx="10.15" ry="10.15"/><path class="cls-3" d="M472.34,23.62H405.1v90h14.73V88.92h52.51c15,0,20.56-8.34,20.56-20.29V43.9C492.9,32,487.35,23.62,472.34,23.62Zm5.84,47.51c0,3.62-1.39,5-4.59,5H424.41c-3.2,0-4.58-1.39-4.58-5V41.4c0-3.61,1.38-5,4.58-5h49.18c3.2,0,4.59,1.39,4.59,5Z"/><rect class="cls-4" x="503.6" width="14.73" height="88.92"/><path class="cls-5" d="M602.65,38.62v32.1c0,4-1.39,5.42-5.41,5.42H549.16c-4,0-5.41-1.39-5.41-5.42V23.62H529V65.16c0,14.59,6.39,23.76,21.81,23.76h66.55V23.62H602.65Z"/><path class="cls-6" d="M688.79,49.32H646a6.17,6.17,0,0,1-6.11-6.11c0-3.48,2.78-6.67,6.11-6.67H702.4V23.76H645.3c-10.56,0-18.76,8.75-18.76,19.45a19.45,19.45,0,0,0,19.32,19.31l42.23.14c3.75,0,6.81,2.64,6.81,6.39a6.86,6.86,0,0,1-6.81,7H630.71V88.92l57.8-.14A19.52,19.52,0,0,0,708.1,69.05C708.1,57.52,699.76,49.32,688.79,49.32Z"/><path class="cls-7" d="M89.2,63.16c7.23.17,14.17-6.25,14.16-14.5,0-11.1-8.22-15.66-15.73-15.66H16.38l0,46.26H50.42V64.13l7,0L75,79.28h35.65l-22.44-16ZM66.66,54.51h-16l0-10.31,15.64,0a5,5,0,0,1,4.91,5A5.08,5.08,0,0,1,66.66,54.51Z"/><polygon class="cls-7" points="325.54 33.02 286.55 33.02 286.55 79.26 375.62 79.26 375.62 68.59 325.54 68.59 325.54 33.02"/><polygon class="cls-7" points="154.07 43.92 179.7 43.92 179.69 79.2 215.84 79.2 215.86 43.92 241.15 43.92 241.15 33.08 154.07 33.08 154.07 43.92"/></svg>