<?xml version="1.0" encoding="utf-8"?>
<!-- Generator: Adobe Illustrator 21.1.0, SVG Export Plug-In . SVG Version: 6.00 Build 0)  -->
<svg version="1.1"
	 id="svg2" inkscape:version="0.91 r13725" sodipodi:docname="EUR.svg" xmlns:cc="http://creativecommons.org/ns#" xmlns:dc="http://purl.org/dc/elements/1.1/" xmlns:inkscape="http://www.inkscape.org/namespaces/inkscape" xmlns:rdf="http://www.w3.org/1999/02/22-rdf-syntax-ns#" xmlns:sodipodi="http://sodipodi.sourceforge.net/DTD/sodipodi-0.dtd" xmlns:svg="http://www.w3.org/2000/svg"
	 xmlns="http://www.w3.org/2000/svg" xmlns:xlink="http://www.w3.org/1999/xlink" x="0px" y="0px" viewBox="0 0 512 51.6"
	 style="enable-background:new 0 0 512 51.6;" xml:space="preserve">
<style type="text/css">
	.st0{fill:#D8183E;}
	.st1{fill:#1D2448;}
</style>
<sodipodi:namedview  bordercolor="#666666" borderopacity="1" gridtolerance="10" guidetolerance="10" id="namedview3438" inkscape:current-layer="g12" inkscape:cx="397.53125" inkscape:cy="110.9875" inkscape:pageopacity="0" inkscape:pageshadow="2" inkscape:window-height="887" inkscape:window-maximized="0" inkscape:window-width="1740" inkscape:window-x="37" inkscape:window-y="0" inkscape:zoom="1" objecttolerance="10" pagecolor="#ffffff" showgrid="false">
	</sodipodi:namedview>
<g id="g12" transform="matrix(0.11007314,0,0,-0.11007314,-37.277483,207.52214)">
	<path id="path16" inkscape:connector-curvature="0" class="st0" d="M4815.8,1651c0,48.8,0,97.5,0.1,146.3c0,9.2-2.2,15.7-13.1,15.7
		c-34-0.1-68-0.1-101.9,0c-8.6,0-12.3-4.1-12.2-12.5c0.2-14.4,0.1-28.8,0-43.2c0-8,3.9-11.7,11.8-11.6c10,0.1,20.1-0.7,30,0.2
		c10.9,1.1,13.8-2.5,13.7-13.6c-0.5-75.1-0.3-150.3-0.3-225.5c0-16.3,1.3-17.6,17.9-17.6c12,0,24,0,36,0c15.9,0,18.1,2.1,18.1,17.7
		C4815.8,1555,4815.8,1603,4815.8,1651L4815.8,1651z M4537.4,1652.1c0,70.8,0,141.6,0,212.3c0,16.7,3.8,20.5,20.2,20.5
		c137.6,0,275.1,0,412.7,0c15.6,0,19.8-4.1,19.8-19.9c0-142.4,0-284.7,0-427.1c0-16.6-4.5-21-21.6-21c-136.4,0-272.7,0-409.1,0
		c-17.9,0-22,4.1-22,21.6C4537.4,1509.7,4537.4,1580.9,4537.4,1652.1"/>
	<path id="path18" inkscape:connector-curvature="0" class="st1" d="M2263.7,1637.3c0.4,96.7-45.8,150.2-129.9,155.3
		c-53.1,3.2-102.2-21.5-125.8-72.5c-16.4-35.5-17.9-72.4-9.9-110.1c6.5-30.3,20.6-56.8,46.1-74.7c46.9-33,97.9-35.7,148.7-11.7
		C2243.6,1547.5,2262.2,1592.6,2263.7,1637.3L2263.7,1637.3z M2359.8,1647.6c-0.4-119.8-76.7-211.1-192-227.1
		c-92.7-12.9-172.9,12.6-229.5,91.9c-32.6,45.7-43,98.2-40,153.4c3.9,73.4,32.6,134.6,93.6,177.7c101.3,71.6,274.8,55.1,342.3-78.4
		C2353.4,1727.1,2360.9,1686.7,2359.8,1647.6"/>
	<path id="path20" inkscape:connector-curvature="0" class="st1" d="M3256.6,1651.1c0-4.4-0.2-8.8,0.1-13.2
		c0.3-4.8,0.9-9.5,1.7-14.3c8.3-52.8,34.3-92.4,87.3-107.8c55.1-16,106.8-8.2,147.3,35.9c30.7,33.4,37,74.9,32.6,118.7
		c-12,118.6-130.6,146.1-204.1,104.6C3273.5,1748,3257.6,1703.1,3256.6,1651.1z M3623.4,1651.2c-3.2-88.2-34.6-160.3-113.7-204.9
		c-88.4-49.8-208.8-35.4-280.9,33.1c-36.5,34.7-57.5,78.1-64.8,127.9c-8.1,55.9-2.9,110,24.1,160.6c34.4,64.3,89,101.2,160.1,113.2
		c71.9,12.1,138.6-1.4,195.6-48.9c46.1-38.3,70.1-89.1,77.1-148.1C3622.2,1672.9,3622.6,1661.7,3623.4,1651.2"/>
	<path id="path22" inkscape:connector-curvature="0" class="st1" d="M1779.2,1577.1c31.4-38.9,62.2-77.2,93-115.4
		c4.3-5.3,9-10.4,12.3-16.2c6.2-10.8,1-20.7-11.4-21c-27.2-0.6-54.4-0.3-81.6-0.2c-6.7,0-10.9,4.2-14.7,9.1
		c-47.6,62.7-95.2,125.4-142.8,188.1c-3.2,4.2-6.6,8.6-4.2,14.1c2.7,6.1,8.5,6.6,14.3,6.6c18.8,0.1,37.6,0.1,56.4,0.2
		c54.9,0.3,72.5,47.5,66.8,84c-5.9,37.5-30.9,58.1-68.7,58.2c-26.8,0-53.6-0.4-80.4,0.3c-9.1,0.2-11.1-2.3-11.1-11.2
		c0.3-109.2,0.2-218.4,0.2-327.6c0-17.9-3.9-21.8-21.7-21.9c-17.6-0.1-35.2-0.2-52.8,0c-13.7,0.2-18.7,5.3-18.7,19
		c-0.1,138.8-0.1,277.6,0,416.3c0,14.1,4.5,18.6,18.6,18.6c57.6,0.1,115.2,0.4,172.8-0.1c87.3-0.8,155.6-70.6,156.5-158.1
		c0.5-50-14-92.7-53.7-125C1799.6,1588,1789.8,1582.6,1779.2,1577.1"/>
	<path id="path24" inkscape:connector-curvature="0" class="st1" d="M3666.2,1651.7c0,68.4,0,136.8,0,205.1
		c0,17.8,3.3,21.3,20.6,21.3c56,0,112,0.1,168,0c84.5-0.1,165.9-64.6,158.7-176.9c-3.5-53.8-27.8-95.1-76.2-120.6
		c-7.6-4-3.7-6.6-0.7-10.3c31.1-38.6,62.2-77.1,93.3-115.7c2.2-2.8,4.6-5.5,6.4-8.6c6.3-10.9,1.8-21.1-10.5-21.4
		c-27.6-0.7-55.2-0.3-82.8-0.2c-6.1,0-10.2,3.8-13.7,8.4c-47.6,62.7-95.2,125.4-142.9,188c-3.5,4.6-6.7,9.5-4.2,15.3
		c2.7,6.2,8.8,6.1,14.5,6.1c20,0.2,40-0.4,60,0.5c38.5,1.7,64.4,30.9,64,71c-0.5,41.7-27.5,70.5-66.8,70.8
		c-26.8,0.2-53.6-0.4-80.4,0.3c-10.5,0.3-13.9-2-13.8-13.4c0.5-107.2,0.3-214.3,0.3-321.5c0-22.1-3.6-25.8-25.6-25.8
		c-16,0-32-0.1-48,0c-15.3,0.1-20,4.8-20,20C3666.1,1513.3,3666.2,1582.5,3666.2,1651.7"/>
	<path id="path26" inkscape:connector-curvature="0" class="st1" d="M2553.7,1885.1c69.2-0.2,123.6-23.6,164.6-75.7
		c11-14,10.9-17.9-1.5-30.7c-12.5-12.9-25.4-25.5-38.4-38c-9.3-8.9-17-8.1-24.8,2.7c-31.4,43.7-74.5,56.3-125.6,47.5
		c-8.3-1.4-16.1-4.5-23.3-9c-26.6-16.9-25.7-52.2,1.8-67.3c19.3-10.6,40.9-13,62.1-16.9c29.1-5.3,58.4-9.5,86.3-19.6
		c45.3-16.4,78.6-44.6,85.5-95.3c10.3-75.7-24.9-134-98.6-155.4c-90.2-26.1-171.3-6-240.5,58.5c-0.3,0.3-0.6,0.6-0.8,0.8
		c-20.5,21.5-20.6,24-0.3,45.5c11.5,12.2,23.4,24.1,35.2,36c8.5,8.5,14.6,7.4,23.4-3.6c26.2-32.7,59.7-52.6,101.9-55.8
		c21-1.6,41.4,1.7,60.5,11.1c16.7,8.2,24.9,22,25.2,40.4c0.3,17.2-9.5,28.2-23.4,36.3c-19.9,11.6-42.5,13.4-64.5,16.8
		c-34,5.3-67.5,11.3-99.1,26c-97.4,45.4-82.5,164.7-17.2,211.4C2476.8,1875.8,2515.9,1884.6,2553.7,1885.1"/>
	<path id="path28" inkscape:connector-curvature="0" class="st1" d="M2875,1714.6c0-21.2,0.2-42.4-0.1-63.5c-0.1-6.5,1.4-9.1,8.5-9
		c28.4,0.5,56.8-0.3,85.1,0.6c38,1.2,60.5,22,66.2,59.5c6.6,43.7-21.7,81.4-62.5,82.3c-29.6,0.7-59.1-0.1-88.7,0.3
		c-7.1,0.1-8.7-2.4-8.6-9C2875.2,1755.3,2875,1734.9,2875,1714.6L2875,1714.6z M2781.4,1651.3c0,68.8,0,137.5,0,206.3
		c0,16.5,4,20.6,20.3,20.6c54.8,0,109.6,0,164.3,0c97.2,0,166.5-71.7,163.4-169.1c-2.5-79.9-48.5-139.2-121.4-156.6
		c-22.4-5.4-45.2-4.8-68-4.7c-18.4,0-36.8-0.4-55.2,0.2c-8.1,0.3-10.1-2.5-10-10.2c0.4-30.8,0.2-61.6,0.1-92.4
		c0-16.6-4.5-21.1-21.5-21.1c-17.6-0.1-35.2-0.2-52.8,0c-14.6,0.1-19.3,5-19.3,19.6C2781.3,1512.9,2781.4,1582.1,2781.4,1651.3"/>
	<path id="path30" inkscape:connector-curvature="0" class="st1" d="M1449,1713.6c0-44,0-88,0-132c0-82.1-52.5-145.1-133.7-159.6
		c-55.3-9.9-108.5-4.8-156.7,26.3c-44.8,29-68.7,71.3-69.3,124.4c-1.2,96-0.4,191.9-0.3,287.9c0,12.5,4.9,17.4,17.3,17.5
		c18.8,0.1,37.6,0.1,56.4,0c15.9,0,19.8-3.9,19.8-19.7c0-90,0-180,0-269.9c0-46.1,22.8-71,68.4-76.1c16.1-1.8,31.9-1.6,47.7,1.6
		c36.2,7.2,56.6,32.2,56.7,69.4c0.2,67.2,0.1,134.4,0.1,201.6c0,25.2-0.1,50.4,0,75.6c0.1,12.8,4.6,17.5,17.1,17.6
		c19.6,0.2,39.2,0.1,58.8,0c13.3-0.1,17.7-4.6,17.7-18.2C1449,1811.2,1449,1762.4,1449,1713.6"/>
	<path id="path32" inkscape:connector-curvature="0" class="st1" d="M356.8,1429c42.1,49.7,84,99.5,126.4,148.9
		c6.7,7.8,6.4,11-2.2,16.6c-46.9,30.2-93.4,61-142.4,93c6.2,0.3,9.9,0.6,13.6,0.6c70.8,0,141.6,0.2,212.4-0.2
		c8.8,0,14.5,2.3,20.2,9.2c48.2,57.1,96.8,113.9,145.3,170.7c2.3,2.7,4.7,5.3,7.6,8.4c3.4-4.5,1.9-8.9,1.9-12.9
		c0.1-54.8,0.3-109.6-0.2-164.4c-0.1-9.2,2.5-11.1,11.3-11c72,0.4,143.9,0.2,216.5-1.6c-15.4-6.6-30.8-13.3-46.2-19.9
		c-57.2-24.4-114.4-48.9-171.7-72.9c-7.6-3.2-9.8-7.1-9.7-15.1c0.4-46.4,0.2-92.8,0.2-139.2c0-3.9,0-7.8,0-11.6
		c-4.6-1.6-6.6,1.6-9,3.1c-44.8,29.3-89.5,58.6-134.1,88.3c-6.4,4.2-11.4,4.6-18.4,1.6c-69.2-29.7-138.6-59-208.1-88.2
		c-4.2-1.8-8.2-6.3-13.7-3.2L356.8,1429"/>
	<path id="path34" inkscape:connector-curvature="0" class="st1" d="M4244.6,1608.3c0-54,0-108,0-161.9c0-18.4-3.9-22.2-22.6-22.2
		c-16.4,0-32.8,0-49.2,0c-18.4,0-21.8,3.3-21.8,21.5c0,108.4-0.2,216.7,0.3,325.1c0.1,11.9-3.3,14.4-14.5,14.1
		c-29.6-0.8-59.2-0.3-88.8-0.3c-15.3,0.1-20.1,4.7-20.2,20c-0.1,18.4-0.2,36.8,0,55.2c0.1,14.3,4.5,18.4,18.9,18.4
		c100.4,0,200.7,0,301.1,0c15.6,0,19.6-4.1,19.6-20c0-17.6,0-35.2,0-52.8c0-16-4.7-20.8-20.5-20.9c-30-0.1-60-0.4-90,0.2
		c-9.7,0.2-12.7-1.8-12.6-12.2C4244.9,1717.8,4244.6,1663,4244.6,1608.3"/>
	<path id="path36" inkscape:connector-curvature="0" class="st1" d="M905.5,1424.5c-38.8,0-77.6,0.3-116.4-0.2
		c-9.3-0.1-11.4,2.7-11.2,11.5c0.6,24,0.4,48,0.1,72c-0.1,7.4,1.3,10.3,9.7,10.2c78.8-0.4,157.6-0.2,236.4-0.3
		c12.3,0,17.1-4.9,17.3-17.6c0.2-19.2,0.2-38.4,0-57.6c-0.2-13.3-4.9-17.9-18.3-18C983.9,1424.5,944.7,1424.5,905.5,1424.5"/>
	<path id="path38" inkscape:connector-curvature="0" class="st1" d="M906.4,1878.1c38.3,0,76.7,0,115,0c15.7,0,19.9-4.1,20-19.7
		c0.1-18.4,0.2-36.7,0-55.1c-0.2-13.5-5.3-18.7-19.1-18.7c-78.3-0.1-156.6,0-234.9-0.2c-7.5,0-9.6,2.2-9.4,9.4
		c0.4,25.2,0.5,50.3,0,75.5c-0.2,8,2.9,9.1,9.8,9C827.3,1878,866.8,1878.1,906.4,1878.1"/>
	<path id="path40" inkscape:connector-curvature="0" class="st1" d="M356.5,1429.2c0.2-0.5,0.4-1.1,0.6-1.7c-0.5,0-1.1,0-1.6,0
		c0.4,0.5,0.9,1,1.3,1.5C356.8,1429,356.5,1429.2,356.5,1429.2"/>
</g>
</svg>
