<?xml version="1.0" encoding="utf-8"?>
<!-- Generator: Adobe Illustrator 21.1.0, SVG Export Plug-In . SVG Version: 6.00 Build 0)  -->
<svg version="1.1"
	 id="svg2" inkscape:version="0.91 r13725" sodipodi:docname="Logo_SRF_2.svg" xmlns:cc="http://creativecommons.org/ns#" xmlns:dc="http://purl.org/dc/elements/1.1/" xmlns:inkscape="http://www.inkscape.org/namespaces/inkscape" xmlns:rdf="http://www.w3.org/1999/02/22-rdf-syntax-ns#" xmlns:sodipodi="http://sodipodi.sourceforge.net/DTD/sodipodi-0.dtd" xmlns:svg="http://www.w3.org/2000/svg"
	 xmlns="http://www.w3.org/2000/svg" xmlns:xlink="http://www.w3.org/1999/xlink" x="0px" y="0px" viewBox="0 0 512 193.3"
	 style="enable-background:new 0 0 512 193.3;" xml:space="preserve">
<style type="text/css">
	.st0{fill:#FFB300;}
	.st1{fill:#FFFFFF;}
</style>
<sodipodi:namedview  bordercolor="#666666" borderopacity="1" fit-margin-bottom="0" fit-margin-left="0" fit-margin-right="0" fit-margin-top="0" gridtolerance="10" guidetolerance="10" id="namedview3021" inkscape:current-layer="svg2" inkscape:cx="55.325279" inkscape:cy="32.951607" inkscape:guide-bbox="true" inkscape:pageopacity="0" inkscape:pageshadow="2" inkscape:window-height="855" inkscape:window-maximized="0" inkscape:window-width="1576" inkscape:window-x="81" inkscape:window-y="39" inkscape:zoom="0.98268024" objecttolerance="10" pagecolor="#ffffff" showgrid="false" showguides="true">
	</sodipodi:namedview>
<g id="g4323" transform="matrix(1.3645971,0,0,1.3645971,0,48.721005)">
	<path id="path688-1" inkscape:connector-curvature="0" class="st0" d="M93.8,105.1V-35.7H0v140.8H93.8z"/>
	<path id="path692" inkscape:connector-curvature="0" class="st1" d="M24.2,71.3c0,11.4,5,16.9,12.8,16.9c7.1,0,11.4-3.9,13.1-10.6
		l1.3-5.1c1.1-4.2,2.3-6,5-6c3.9,0,4.6,2.6,4.6,9c0,2.9-0.4,8-0.6,9.7c-0.1,1.8,0.1,2.3,1.6,2.6l5.3,0.8c1,0.1,1.4-0.3,1.6-1.3
		c0.3-2,0.6-7,0.6-11.9c0-11-3.6-19-13.8-19c-6,0-10.5,2.6-12.9,11.8l-1.3,5.1c-0.9,3.5-2,5-4.6,5c-3.6,0-4.3-3.3-4.3-6.5
		c0-4.3,0.4-8.6,0.5-10.4c0.1-1.8-0.1-2.3-1.6-2.6L26.5,58c-1-0.1-1.4,0.4-1.6,1.3C24.6,61.3,24.2,65.7,24.2,71.3L24.2,71.3z
		 M24.7,48.7c0,1.4,0.5,1.8,1.9,1.8h40.7c1.4,0,1.9-0.4,1.9-1.8v-6.4c0-1.4-0.5-1.8-1.9-1.8H32.9v-6.6c0-4.1,1.5-6.1,5.4-6.1
		c3.5,0,4.6,1.6,5.3,3.2c0.8,2-0.1,2.7,2.6,3.3l2.9,0.7c0.8,0.2,1.2,0.3,1.5,0.3c0.7,0,1.2-0.2,2.1-0.7l14.8-8.2
		c1.2-0.7,1.7-1.2,1.7-2.9v-7.5c0-1-0.6-2.1-2.3-1L50.1,25c-2.1-3.4-5.2-7.2-11.9-7.2c-8.6,0-13.5,4.8-13.5,15.5
		C24.7,33.3,24.7,48.7,24.7,48.7z M24.7,6.8c0,1.4,0.5,1.8,1.9,1.8h40.7c1.4,0,1.9-0.4,1.9-1.8V0.4c0-1.4-0.5-1.8-1.9-1.8H51.3
		v-16.5c0-1.4-0.5-1.8-1.9-1.8h-4.8c-1.4,0-1.9,0.4-1.9,1.8v16.5h-9.4v-18.1c0-1.4-0.5-1.8-1.9-1.8h-4.8c-1.4,0-1.9,0.4-1.9,1.8
		C24.7-19.5,24.7,6.8,24.7,6.8z"/>
	<path id="path688" inkscape:connector-curvature="0" sodipodi:nodetypes="ccccc" class="st0" d="M102.9-35.1v141.1h272.3V-35.1
		H102.9z"/>
	
		<path id="path3006" inkscape:connector-curvature="0" sodipodi:nodetypes="ccsssccsccsccccccccccccccccccccccccccccccssscc" class="st1" d="
		M302.1,2.9c-22-0.1-32.4,12.2-32.5,34.2s9.8,33.9,34.2,33.8c18.5,0,23.8-3.1,23.8-3.1l1.2-14.8c0,0-6.4,1.9-20.5,2
		c-18.7,0.2-16.5-12.1-16.5-12.1h38.7C330.4,9.2,321.3,3,302.1,2.9z M115.6,3.9v21h24l-25,31v14h58v-21h-26l25-31l-1-14L115.6,3.9z
		 M176.6,3.9l16,66h20l10-34l10,34h21l15-66h-23l-5.5,32l-7.5-32h-19l-7.5,32l-4.5-32L176.6,3.9z M338.6,3.9v66h23v-66L338.6,3.9z
		 M299.5,17h3.2c4.3,0,7.8,4.3,7.8,9.6v2.9h-18.8v-2.9C291.7,21.3,295.2,17,299.5,17z"/>
</g>
</svg>
