<?xml version="1.0" encoding="utf-8"?>
<!-- Generator: Adobe Illustrator 21.1.0, SVG Export Plug-In . SVG Version: 6.00 Build 0)  -->
<svg version="1.1"
	 id="Layer_1" inkscape:version="0.91 r13725" sodipodi:docname="Logo_Disney_XD.svg" xmlns:cc="http://creativecommons.org/ns#" xmlns:dc="http://purl.org/dc/elements/1.1/" xmlns:inkscape="http://www.inkscape.org/namespaces/inkscape" xmlns:rdf="http://www.w3.org/1999/02/22-rdf-syntax-ns#" xmlns:sodipodi="http://sodipodi.sourceforge.net/DTD/sodipodi-0.dtd" xmlns:svg="http://www.w3.org/2000/svg"
	 xmlns="http://www.w3.org/2000/svg" xmlns:xlink="http://www.w3.org/1999/xlink" x="0px" y="0px" viewBox="0 0 512 288"
	 style="enable-background:new 0 0 512 288;" xml:space="preserve">
<style type="text/css">
	.st0{fill:#243F65;}
	.st1{fill:#B5DC17;}
</style>
<g id="g3" transform="matrix(0.49655188,0,0,0.49655188,-0.08012602,-9.04e-5)">
	<g id="g5">
		<path id="path7" inkscape:connector-curvature="0" class="st0" d="M56.3,0h8.2c38.4,2,75.4,17.6,105.7,41
			c7.1-12.4,19.2-22.1,33.1-25.8c11-3.1,23.6-3.4,33.6,2.9c5.3,3.6,12.1,4.8,16.5,9.7c6.1,6,7.9,15.1,6.6,23.3
			c-0.7,4.8-2.8,9.2-5,13.4c7.3,0,14.7,0.1,21.9,1.7c3.3,0.7,6.1,2.6,9.3,3.6c3.5,0.1,7.1-0.4,10.6-0.2c3-6.8,9.5-12.3,17.1-12.4
			c9.2-0.6,16.7,5.8,22.2,12.4c9.8-2.4,19.8-3.2,29.8-4.1c5.3-0.4,10.8-1,16,0.5c4,1.1,7.7,3,11.3,5.2c4.2-3.6,9-7,14.7-6.9
			c6-0.3,11.4,3,15.3,7.3c4.8-1.5,9.9-3.1,14.9-1.7c5.2,1.4,9.6,4.8,13.3,8.6c19.6,19.7,39.4,39.4,59,59c1.1,1.3,2.8,1.7,4.5,1.6
			c130.7,0,261.3,0,392,0c6,0,12-0.4,17.8,1.3c5.7,1.5,10.5,5.1,14.6,9.1c24.3,24.3,48.7,48.7,73,73c6.4,5.9,11.3,13.9,11.5,22.8
			v230.3c-0.6,3.9-1.4,7.8-3.3,11.3c-3.1,5.9-8.3,10.2-12.8,14.9c-22.8,22.8-45.6,45.8-68.5,68.5c-4.5,4.7-10.3,8.2-16.7,9.7h-427
			c-5.7-1.4-11.1-4.1-15.2-8.3c-21-21-41.8-42-62.9-62.8c-21.2,20.8-41.9,41.9-62.9,62.8c-4.1,4.2-9.5,6.9-15.1,8.3H215.6
			c-7-1.9-13.3-6.6-16.3-13.3c-2.9-5.8-2.4-12.4-2.4-18.7c0-31.3,0-62.7,0-94c0-7-0.6-14.3,2.1-20.9c2.5-6.6,7.9-11.5,12.8-16.4
			c19-18.9,37.9-38,56.9-56.8c-74-74.1-148.1-148.2-222.2-222.2c-4.5-4.5-9.3-8.8-13-14c-4.3-6-8.2-12.9-7.8-20.6
			c0-6.7,3.3-12.8,8.1-17.2c9.1-9.2,21.7-13.3,33.8-16.8c0.8-7.5,2.3-15,5.8-21.7C63.7,45.6,53.8,44,44,44.7c-2.5,1.9-4.4,4.6-7.3,6
			C31,53.6,24.2,53.8,18,52.9c-6.8-1.1-13-5.6-16-11.8c-2.7-5.9-2.1-12.9,0.3-18.8C6.9,13.4,15.1,6.2,24.9,3.7
			C35.1,1,45.8,0.5,56.3,0z M30.1,18.7c-5.3,0.8-9.5,4.8-12.1,9.3c-1,2-1.3,4.9,1.1,6c3.2,1.4,7,1.5,10.2,0.1
			c0.3-2.1-2.2-2.9-3.3-4.3c0.1-2.5,3.3-2.3,5-2.8c27.8-3.3,56,2.7,81.6,13.5c15.5,6.8,30.4,15.5,42.8,27
			c7.7,7.3,14.8,15.9,17.8,26.3c2.4,7.4,1.4,16-3,22.5c-4.2,6.3-10.9,10.6-18,13.1c-16.6,6.1-35,7-52.3,3.6
			c-0.9-12.7-0.8-25.4-1.2-38.1c11.9-0.4,24,0.9,35.1,5.1c1.6,0.8,4.4,1.5,4.3,3.8c-1.6,2.7-4,4.7-5.5,7.5c1.7,0.6,3.4,1.2,5.1,1.3
			c8.1,1.6,15.4-8.4,12-15.7c-2.4-6-8.5-9.4-14.3-11.6c-11.9-4.3-24.6-4.7-37.1-4.8c-0.3-6.5-0.7-13.1-2.3-19.5
			c-0.8-2.9-1.8-6.2-4.6-7.8c-2.4-1-3.9,1.9-4.6,3.7c-2.8,8-3,16.5-3.4,24.8c-10.7,1.8-21.4,4.4-31,9.7c-3.4,2.1-7.1,4.3-9.1,7.9
			c-2.2,3.9,0.5,8.2,2.7,11.4c9.3,12.7,23,21.3,37,27.9c0.4,3.3,0.4,6.9,2.2,9.9c2.4,4.3,9.2,4.8,12.4,1.2c1.1-1.6,1.5-3.5,2.2-5.3
			c22.1,5.4,46.5,4.3,66.9-6.5c12.2-6.5,22.7-17.8,24.5-31.9c1.5-10.1-2.7-20-8.3-28.2c-9-13.2-21.4-23.7-34.5-32.6
			c-12.4-8.3-25.8-15.1-39.8-20.2C83.8,15.9,56.3,13.2,30.1,18.7z M203.1,32c-8.1,3.6-15.5,9.8-18.8,18.2c-1.8,4.5-0.9,9.7,1.8,13.7
			c2.5,3.2,0.5,8.4,4.1,10.9c2.8,1.4,5.2-0.9,6.9-2.9c6.2,1.3,12.7,1.9,18.8-0.2c9.1-3.1,17.5-8.8,23.4-16.5
			c3.3-4.2,5.5-10.2,2.9-15.3c-1.2-2.6-3.9-3.7-6.5-4.3c-4.1-0.8-6.7-4.5-10.6-5.7C217.8,27.5,209.9,29.2,203.1,32L203.1,32z
			 M313.1,74.1c-1,2.8-0.1,5.7,0.5,8.4c2.3,8.4,5.2,16.7,6.9,25.2c0.7,3.2,0.6,6.5-0.6,9.6c-3.7-3.3-6-7.6-8.8-11.6
			c-4.3-6.2-8.5-12.7-13.9-18c-1.6-1.4-3.6-3.3-5.9-2.3c-2.6,1.8-3.7,5-4.8,7.8c-2.7,8.6-4.1,17.6-4.9,26.6
			c-0.2,4.9-0.5,10.2,1.8,14.6c1.6,3,6.9,3.8,8.5,0.3c3.9-9.5,1.3-20.1,3.9-29.9c3.8,3.3,6,8,8.8,12.1c3.7,5.5,7.2,11.4,12.4,15.7
			c2.8,2.7,7.2,1.4,9.8-1c5.1-4.7,7.4-12,7.3-18.8c-0.4-10.4-3.6-20.5-8.6-29.5c-2.3-3.8-4.8-8-8.9-10.1
			C315.5,72.9,313.5,72.5,313.1,74.1L313.1,74.1z M247.5,80.7c-8,0.9-16.3,2.2-23.1,6.6c-4.6,2.8-7.5,8.6-6.2,13.9
			c1.1,3.6,4.7,5.6,8.2,6.3c7.8,1.6,15.9,0.6,23.7,1.8c5.9,0.9,12.3,1.8,17.3,5.2c2.6,2.1-0.7,5.1-2.8,5.9
			c-8.6,3.9-18.3,5.1-27.6,5.4c-3.3-0.3-7.7,0.1-9.7-3c-1.2-3.4,2.7-6.1,5.8-5.7c7.2,0.9,13.6,6.3,21.1,4.6c2.8-0.6,6.4-1.7,7.3-4.8
			c-1.4-3.1-5.3-3.7-8.2-4.7c-7.5-1.6-15.6-3.2-23.2-1.2c-5.1,1.3-9.2,6.4-8.3,11.8c1.2,4.9,5.4,8.4,9.7,10.7
			c6.9,3.6,14.9,4.4,22.6,4.2c7.6-0.5,15.9-2.7,20.9-8.9c4.7-5.7,4.8-14.9-0.2-20.5c-3.3-3.6-8.1-5.2-12.8-6.1
			c-7.9-1.3-16-1.6-24-2.5c-2.3-0.3-4.7-0.6-6.7-1.9c0.3-2.2,2.9-2.8,4.7-3.3c11.2-2.1,22.8-1.4,34-3.5c2.6-0.5,5.3-1.1,7.4-2.7
			c1.6-1,1.6-3.6,0.1-4.8c-3-2.3-7-2.5-10.6-2.9C260.4,80.2,253.9,80.2,247.5,80.7L247.5,80.7z M401.1,87
			c-5.7,7.4-10.8,15.7-12.3,25c-1.3,5.8,0.1,11.7,2.4,17c-4.2,13.6-8.7,27.2-10.5,41.3c-0.4,4.3-0.9,8.8,1.1,12.7
			c2.1,4.2,6,8.3,11.1,7.9c3-17.3,9.5-33.6,13.7-50.6c14.7,0.6,28.1-9.2,35.6-21.3c5-7.7,5.6-17.9,1.8-26.2
			c-1.9-3.9-5.5-7.6-10.1-7.9c-3.3,0.3-6.2,2.2-8.9,4.1c-10.1,7.4-17.9,17.4-26.1,26.7c-0.2-1.9-0.8-3.9-0.2-5.8
			c2.5-7.9,7.3-14.8,10.9-22.2c1.5-2.8,0.6-5.9-0.8-8.4C405.8,81.4,403.3,84.2,401.1,87L401.1,87z M344.9,83.7
			c-1.9,0.6-4.6,0.9-5.4,3.1c0.7,4.4,5.7,5.6,9,7.3c-0.2,1.8-0.4,3.6-0.9,5.4c-0.8,4.4-6.6,4.2-8.2,8.2c3,4.7-0.7,9.6-1.8,14.2
			c-2.6,7.9,2.4,18.8,11.3,19.5c8.5,0.2,16.8-2.9,24.1-7.2c2.6-1.7,5.5-3.4,7.2-6.1c-0.7-3.7-4.7-6.4-8.4-5.8
			c-6.7,0.7-13.3,2.5-20,2.8c0.4-4.2,0.1-12.1,6-12c5.3-0.5,10.7,0.1,16-0.6c3.8-0.8,4.3-6.5,1.1-8.4c-5.2-0.9-10.6-0.2-15.9-1.4
			c0.2-2.4,0.1-5,1.4-7.2c5.3-1.5,11-1.2,16.5-1.7c3.6-0.2,8,0.1,10.3-3.3c1.1-2.4-1.6-4.4-3.1-5.9c-4.4-4.1-10.7-4.2-16.3-3.4
			C360.3,82,352.5,82.2,344.9,83.7L344.9,83.7z M203.3,82.2c-1.8,1.6-2.3,4.1-2.9,6.4c-1.9,8.7-1.9,17.5-2.1,26.4
			c-0.1,5.8-0.2,11.7,1.1,17.4c0.6,2.5,1.9,5.3,4.7,5.9c2.5,0.4,6.3,0.7,7.4-2.2c1.8-5.2,1-10.7,1.1-16.1c-0.5-11-0.3-22.2-2.8-32.9
			C209.2,84.3,206.5,79.8,203.3,82.2z M218.5,157.5c-2.5,1.1-3.9,3.8-3.8,6.5c0,37,0,74,0,110.9c-0.2,3.8,1.7,7.4,4.4,10
			c23.3,23.4,46.7,46.6,70,70c3.1,2.8,2.4,7.7-0.6,10.3c-21.8,21.9-43.7,43.6-65.5,65.5c-3.7,3.6-8.3,7.5-8.2,13.2
			c-0.1,36.7,0,73.3-0.1,110c0,2.3,0,4.9,1.8,6.7c1.6,2,4.3,2.1,6.7,2.1c34.3,0,68.6,0,102.9,0c4.2-0.1,8.7,0.5,12.6-1.3
			c3.4-1.7,5.8-4.7,8.5-7.4c21.5-21.5,43-43,64.4-64.5c1.7-1.7,3.9-3.6,6.5-3.2c3,0.3,5,2.8,7,4.7c22.4,22.6,45,45,67.5,67.5
			c2.7,2.8,6.6,4.3,10.5,4.2c36.7,0,73.3,0,110,0c3.8,0.4,7.6-2.8,7.3-6.8c0.1-37,0-74,0-111c0.3-4.2-1.8-8-4.7-10.8
			c-21.5-21.5-43-43-64.5-64.4c-2.3-2.3-4.9-4.4-6.5-7.3c-1.5-2.8-0.3-6.1,1.9-8c21.6-21.7,43.3-43.3,64.9-65
			c3.8-3.9,8.9-7.7,8.8-13.7c0.1-37.3,0-74.6,0-111.9c0.5-4.1-3.4-7.4-7.3-7c-35.4-0.1-70.7,0-106.1,0c-4-0.3-7.7,1.7-10.5,4.5
			c-24.5,24.5-49,49-73.5,73.5c-1.9,2-4.7,3.6-7.5,2.5c-2.6-1.2-4.5-3.5-6.5-5.5c-22.3-22.4-44.7-44.6-66.9-67
			c-3.6-3.6-7.5-8.1-13-8c-35-0.1-70,0-105-0.1C222.1,157,220.2,156.9,218.5,157.5L218.5,157.5z M642.4,157.4
			c-3.2,1-4.4,4.5-4.2,7.6c0,130,0,260,0,390.1c-0.2,3,1.3,6.5,4.5,7.3c3.4,0.6,6.8,0.2,10.3,0.3c85.3,0,170.7,0,256,0
			c3.5-0.1,7,0.3,10.5-0.3c4.2-1.2,7.1-4.7,10.1-7.7c24.3-24.3,48.7-48.6,72.9-73c3.5-3.3,3.9-8.2,3.6-12.7
			c-0.1-71.3,0-142.6,0-213.9c-0.1-4,0.4-8.1-0.6-12.1c-1.6-4.2-5.1-7.2-8.2-10.3c-22.2-22.1-44.3-44.3-66.5-66.4
			c-3.2-3.1-6.2-6.7-10.3-8.5c-3.4-1.1-7.1-0.6-10.6-0.7c-85.7,0-171.3,0-256.9,0C649.5,157.1,645.9,156.7,642.4,157.4z"/>
	</g>
	<path id="path9" inkscape:connector-curvature="0" class="st0" d="M195.1,47.1c3.9-4,9.5-6.1,15-7c-6.4,4-12.2,8.8-17.4,14.3
		C192.1,51.8,193.2,49,195.1,47.1z"/>
	<path id="path11" inkscape:connector-curvature="0" class="st0" d="M220.6,45.5c3.6-2.2,8.8-5.1,12.7-1.7c3.2,3.4,0.3,8.3-2.8,10.7
		c-8,6.4-18.9,10.2-29,7.4C207,55.5,213.6,50.1,220.6,45.5z"/>
	<path id="path13" inkscape:connector-curvature="0" class="st0" d="M52.8,99.8c9.8-3.2,20.2-3.6,30.4-4.3c0.1,11-0.2,22.1-0.3,33.1
		c-10.5-3.9-20.8-8.9-29.7-15.8c-2.5-2.2-5.4-4.4-6.4-7.8C46.9,101.9,50.5,100.8,52.8,99.8z"/>
	<path id="path15" inkscape:connector-curvature="0" class="st0" d="M428.3,102.3c1.6-2,3.4-4.1,5.7-5.4c2-0.6,3.8,1.2,4,3.1
		c1.2,5.5-1,11.3-4.6,15.4c-5.1,5.8-12.4,9.7-20.1,10C418,117.5,422.7,109.5,428.3,102.3z"/>
	<path id="path17" inkscape:connector-curvature="0" class="st0" d="M1000.3,555.3c1.8-2.6,2.2-6.8,5.3-8.1c1.1,4.9,0.2,10,0.5,15
		c-0.5,0-1.5,0-2,0c0.1-3.1,0-6.3-0.4-9.4c-1.1,2.2-2.3,4.5-3.4,6.8c-1.4-2.3-2.9-4.6-4-7.1c-0.1,3.2-0.1,6.5-0.1,9.7
		c-0.5,0-1.6,0-2.1,0c0.1-4.6-0.3-9.2,0.2-13.7c0.4-0.3,1.2-1,1.6-1.3C997.3,549.9,998.7,552.6,1000.3,555.3L1000.3,555.3z"/>
	<path id="path19" inkscape:connector-curvature="0" class="st0" d="M982.3,553.3c0.6-2.7,2-6.6,5.6-5.8c1.2,0.7,4.8,0.4,3.3,2.8
		c-1.6-0.1-3.1-0.4-4.6-1c-0.6,1-1.2,2-1.7,3c2.7,1.4,7.1,2,7.3,5.7c0.3,3.9-5,5.6-7.8,3.5c-0.9-0.7-1.7-1.4-2.5-2.1
		c2.2-2.6,4.5,2.3,7,0.5c1.2-0.5,1.6-1.4,1.2-2.7C987.6,555.6,984.9,554.5,982.3,553.3L982.3,553.3z"/>
</g>
<g id="g21" transform="matrix(0.49655188,0,0,0.49655188,-0.08012602,-9.04e-5)">
	<g id="g23">
		<path id="path25" inkscape:connector-curvature="0" class="st1" d="M30.1,18.7c26.2-5.6,53.7-2.8,78.8,6.4
			c14.1,5,27.4,11.9,39.8,20.2c13.1,8.9,25.5,19.4,34.5,32.6c5.6,8.2,9.8,18.1,8.3,28.2c-1.8,14.1-12.4,25.4-24.5,31.9
			c-20.4,10.8-44.8,11.9-66.9,6.5c-0.7,1.8-1.1,3.7-2.2,5.3c-3.2,3.6-10,3.1-12.4-1.2c-1.7-3-1.7-6.6-2.2-9.9
			c-14-6.6-27.8-15.2-37-27.9c-2.2-3.2-4.8-7.5-2.7-11.4c2-3.6,5.6-5.8,9.1-7.9c9.6-5.2,20.4-7.8,31-9.7c0.5-8.3,0.7-16.9,3.4-24.8
			c0.7-1.8,2.2-4.7,4.6-3.7c2.8,1.6,3.7,4.9,4.6,7.8c1.6,6.4,2,13,2.3,19.5c12.5,0.1,25.2,0.6,37.1,4.8c5.8,2.2,11.9,5.6,14.3,11.6
			c3.4,7.4-4,17.3-12,15.7c-1.8-0.1-3.5-0.7-5.1-1.3c1.5-2.8,3.9-4.8,5.5-7.5c0.1-2.3-2.7-3-4.3-3.8c-11.2-4.2-23.3-5.6-35.1-5.1
			c0.4,12.7,0.3,25.4,1.2,38.1c17.3,3.4,35.7,2.5,52.3-3.6c7-2.6,13.7-6.8,18-13.1c4.3-6.6,5.3-15.1,3-22.5
			c-3-10.4-10.1-19-17.8-26.3c-12.5-11.5-27.3-20.2-42.8-27C87,29.7,58.8,23.6,31,27c-1.7,0.5-4.9,0.3-5,2.8
			c1.1,1.4,3.6,2.3,3.3,4.3c-3.2,1.4-7,1.3-10.2-0.1c-2.3-1.1-2.1-4-1.1-6C20.6,23.5,24.8,19.6,30.1,18.7z M52.8,99.8
			c-2.4,1-5.9,2.1-5.9,5.2c1,3.3,3.8,5.6,6.4,7.8c8.9,7,19.1,12,29.7,15.8c0.1-11,0.3-22.1,0.3-33.1C73,96.2,62.6,96.6,52.8,99.8z"
			/>
	</g>
	<g id="g27">
		<path id="path29" inkscape:connector-curvature="0" class="st1" d="M203.1,32c6.9-2.8,14.7-4.5,22-2c3.9,1.2,6.5,4.9,10.6,5.7
			c2.6,0.6,5.3,1.8,6.5,4.3c2.6,5.1,0.4,11.1-2.9,15.3c-5.9,7.7-14.2,13.4-23.4,16.5c-6.1,2.1-12.6,1.5-18.8,0.2
			c-1.7,1.9-4.1,4.3-6.9,2.9c-3.6-2.5-1.6-7.7-4.1-10.9c-2.7-4-3.6-9.2-1.8-13.7C187.6,41.8,195,35.6,203.1,32z M195.1,47.1
			c-1.9,1.8-3,4.6-2.5,7.3c5.2-5.4,11-10.2,17.4-14.3C204.6,41.1,199.1,43.1,195.1,47.1z M220.6,45.5c-7,4.6-13.6,10-19.1,16.4
			c10.2,2.8,21-1.1,29-7.4c3-2.4,5.9-7.3,2.8-10.7C229.4,40.4,224.2,43.3,220.6,45.5z"/>
	</g>
	<path id="path31" inkscape:connector-curvature="0" class="st1" d="M313.1,74.1c0.3-1.6,2.4-1.2,3.5-0.7c4.1,2.1,6.6,6.3,8.9,10.1
		c5,9,8.2,19.2,8.6,29.5c0.1,6.8-2.1,14.1-7.3,18.8c-2.6,2.4-7,3.7-9.8,1c-5.2-4.3-8.6-10.2-12.4-15.7c-2.9-4.1-5-8.8-8.8-12.1
		c-2.6,9.8,0,20.4-3.9,29.9c-1.6,3.5-6.9,2.7-8.5-0.3c-2.3-4.5-2-9.7-1.8-14.6c0.8-9,2.2-18,4.9-26.6c1-2.8,2.1-6.1,4.8-7.8
		c2.2-1,4.3,0.9,5.9,2.3c5.4,5.3,9.6,11.8,13.9,18c2.8,3.9,5.1,8.3,8.8,11.6c1.2-3.1,1.3-6.4,0.6-9.6c-1.7-8.6-4.6-16.8-6.9-25.2
		C313.1,79.8,312.1,76.9,313.1,74.1L313.1,74.1z"/>
	<path id="path33" inkscape:connector-curvature="0" class="st1" d="M247.5,80.7c6.4-0.5,12.9-0.5,19.3-0.1
		c3.6,0.4,7.6,0.6,10.6,2.9c1.5,1.1,1.5,3.7-0.1,4.8c-2.1,1.6-4.8,2.2-7.4,2.7c-11.2,2-22.8,1.4-34,3.5c-1.8,0.5-4.5,1.1-4.7,3.3
		c2,1.3,4.4,1.6,6.7,1.9c8,0.9,16,1.2,24,2.5c4.6,1,9.5,2.5,12.8,6.1c5.1,5.6,5,14.7,0.2,20.5c-5,6.2-13.3,8.4-20.9,8.9
		c-7.7,0.2-15.7-0.6-22.6-4.2c-4.3-2.2-8.6-5.7-9.7-10.7c-0.9-5.4,3.2-10.5,8.3-11.8c7.6-2,15.6-0.4,23.2,1.2
		c2.9,0.9,6.8,1.6,8.2,4.7c-0.8,3.1-4.4,4.2-7.3,4.8c-7.5,1.6-13.9-3.8-21.1-4.6c-3.1-0.4-7,2.3-5.8,5.7c2,3.2,6.5,2.8,9.7,3
		c9.4-0.4,19-1.5,27.6-5.4c2.1-0.9,5.4-3.8,2.8-5.9c-5.1-3.4-11.4-4.3-17.4-5.2c-7.9-1.3-15.9-0.3-23.7-1.8
		c-3.5-0.7-7.1-2.7-8.2-6.3c-1.3-5.4,1.6-11.1,6.2-13.9C231.3,82.9,239.5,81.6,247.5,80.7z"/>
	<g id="g35">
		<path id="path37" inkscape:connector-curvature="0" class="st1" d="M401.1,87c2.2-2.9,4.7-5.6,7.9-7.5c1.4,2.6,2.3,5.7,0.8,8.4
			c-3.6,7.4-8.5,14.3-10.9,22.2c-0.7,1.9,0,3.9,0.2,5.8c8.2-9.4,16-19.3,26.1-26.7c2.7-1.8,5.5-3.8,8.9-4.1c4.5,0.3,8.1,4,10.1,7.9
			c3.9,8.3,3.3,18.5-1.8,26.2c-7.5,12.1-20.9,21.9-35.6,21.3c-4.1,17-10.6,33.4-13.7,50.6c-5.1,0.4-9-3.7-11.1-7.9
			c-2-3.9-1.5-8.5-1.1-12.7c1.8-14.2,6.3-27.8,10.5-41.3c-2.3-5.3-3.7-11.2-2.4-17C390.4,102.7,395.4,94.4,401.1,87L401.1,87z
			 M428.3,102.3c-5.7,7.3-10.3,15.2-14.9,23.2c7.8-0.3,15-4.3,20.1-10c3.6-4.2,5.8-9.9,4.6-15.4c-0.3-1.9-2.1-3.7-4-3.1
			C431.7,98.2,430,100.3,428.3,102.3z"/>
	</g>
	<path id="path39" inkscape:connector-curvature="0" class="st1" d="M344.9,83.7c7.6-1.5,15.4-1.7,23.1-2.5
		c5.6-0.8,11.9-0.7,16.3,3.4c1.5,1.6,4.2,3.5,3.1,5.9c-2.3,3.4-6.7,3-10.3,3.3c-5.5,0.5-11.1,0.2-16.5,1.7c-1.3,2.2-1.2,4.7-1.4,7.2
		c5.2,1.2,10.6,0.5,15.9,1.4c3.2,1.9,2.7,7.6-1.1,8.4c-5.3,0.7-10.7,0.1-16,0.6c-5.8-0.1-5.6,7.8-6,12c6.8-0.3,13.3-2.1,20-2.8
		c3.7-0.6,7.7,2.2,8.4,5.8c-1.7,2.8-4.5,4.5-7.2,6.1c-7.3,4.3-15.6,7.4-24.1,7.2c-8.9-0.7-13.9-11.6-11.3-19.5
		c1-4.7,4.7-9.5,1.8-14.2c1.6-4,7.4-3.8,8.2-8.2c0.5-1.8,0.6-3.6,0.9-5.4c-3.4-1.8-8.4-2.9-9-7.3C340.3,84.6,342.9,84.3,344.9,83.7z
		"/>
	<path id="path41" inkscape:connector-curvature="0" class="st1" d="M203.3,82.2c3.2-2.4,5.9,2.1,6.5,4.8
		c2.6,10.8,2.4,21.9,2.8,32.9c-0.1,5.3,0.7,10.9-1.1,16.1c-1.1,2.9-4.9,2.6-7.4,2.2c-2.8-0.6-4.2-3.4-4.7-5.9
		c-1.3-5.7-1.1-11.6-1.1-17.4c0.2-8.8,0.3-17.7,2.1-26.4C201,86.4,201.4,83.8,203.3,82.2z"/>
	<path id="path43" inkscape:connector-curvature="0" class="st1" d="M218.5,157.5c1.8-0.6,3.7-0.5,5.5-0.6c35,0.1,70,0,105,0.1
		c5.5-0.2,9.5,4.4,13,8c22.3,22.3,44.7,44.6,67,67c2,2,3.9,4.3,6.5,5.5c2.8,1.1,5.6-0.4,7.5-2.5c24.5-24.5,49-49,73.5-73.5
		c2.8-2.8,6.4-4.8,10.5-4.5c35.4,0,70.7,0,106.1,0c3.9-0.5,7.8,2.9,7.3,7c0,37.3,0,74.6,0,111.9c0,6-5.1,9.8-8.8,13.7
		c-21.7,21.7-43.3,43.3-64.9,65c-2.2,2-3.4,5.3-1.9,8c1.7,2.8,4.3,4.9,6.5,7.3c21.5,21.5,43,43,64.5,64.4c3,2.8,5,6.6,4.7,10.8
		c0,37,0,74,0,111c0.3,4-3.5,7.2-7.3,6.8c-36.7,0-73.4,0-110,0c-3.9,0.1-7.8-1.4-10.5-4.2c-22.5-22.5-45-45-67.5-67.5
		c-2-1.9-4-4.4-7-4.7c-2.6-0.3-4.8,1.5-6.5,3.2c-21.4,21.5-42.9,43-64.4,64.5c-2.7,2.6-5.1,5.6-8.5,7.4c-4,1.8-8.4,1.3-12.6,1.3
		c-34.3,0-68.6,0-102.9,0c-2.4,0-5.1-0.1-6.7-2.1c-1.8-1.8-1.8-4.4-1.8-6.7c0.1-36.7,0-73.3,0.1-110c-0.1-5.7,4.5-9.6,8.2-13.2
		c21.9-21.8,43.7-43.6,65.5-65.5c3-2.5,3.8-7.5,0.6-10.3c-23.3-23.4-46.7-46.6-70-70c-2.6-2.7-4.6-6.2-4.4-10c0-37,0-74,0-110.9
		C214.5,161.4,215.9,158.6,218.5,157.5L218.5,157.5z"/>
	<path id="path45" inkscape:connector-curvature="0" class="st1" d="M642.4,157.4c3.5-0.8,7.1-0.4,10.7-0.4c85.6,0,171.3,0,256.9,0
		c3.5,0.1,7.1-0.4,10.6,0.7c4.2,1.9,7.2,5.4,10.3,8.5c22.2,22.1,44.3,44.3,66.5,66.4c3.1,3.1,6.7,6.1,8.2,10.3
		c0.9,4,0.5,8.1,0.6,12.1c0,71.3,0,142.6,0,213.9c0.2,4.5-0.1,9.4-3.6,12.7c-24.3,24.4-48.7,48.6-72.9,73c-3,3-5.9,6.5-10.1,7.7
		c-3.5,0.6-7,0.3-10.5,0.3c-85.3,0-170.7,0-256,0c-3.4-0.1-6.9,0.3-10.3-0.3c-3.2-0.8-4.7-4.2-4.5-7.3c0-130,0-260,0-390.1
		C638,162,639.2,158.4,642.4,157.4L642.4,157.4z"/>
</g>
</svg>
