<?xml version="1.0" encoding="utf-8"?>
<!-- Generator: Adobe Illustrator 21.1.0, SVG Export Plug-In . SVG Version: 6.00 Build 0)  -->
<svg version="1.1"
	 id="svg2" inkscape:version="0.91 r13725" sodipodi:docname="Comedy_Central_2011_Logo.svg" xmlns:cc="http://creativecommons.org/ns#" xmlns:dc="http://purl.org/dc/elements/1.1/" xmlns:inkscape="http://www.inkscape.org/namespaces/inkscape" xmlns:rdf="http://www.w3.org/1999/02/22-rdf-syntax-ns#" xmlns:sodipodi="http://sodipodi.sourceforge.net/DTD/sodipodi-0.dtd" xmlns:svg="http://www.w3.org/2000/svg"
	 xmlns="http://www.w3.org/2000/svg" xmlns:xlink="http://www.w3.org/1999/xlink" x="0px" y="0px" viewBox="0 0 365 290.9"
	 style="enable-background:new 0 0 365 290.9;" xml:space="preserve">
<style type="text/css">
	.st0{fill:none;stroke:#000000;stroke-width:34;}
</style>
<sodipodi:namedview  bordercolor="#666666" borderopacity="1" gridtolerance="10" guidetolerance="10" id="namedview14" inkscape:current-layer="svg2" inkscape:cx="301.5" inkscape:cy="317.33898" inkscape:pageopacity="0" inkscape:pageshadow="2" inkscape:window-height="991" inkscape:window-maximized="0" inkscape:window-width="1624" inkscape:window-x="0" inkscape:window-y="0" inkscape:zoom="0.4978903" objecttolerance="10" pagecolor="#ffffff" showgrid="false">
	</sodipodi:namedview>
<g>
	<g id="g6" transform="matrix(0.74460237,0,0,0.74460237,253.28707,116.08366)">
		<path id="path8" inkscape:connector-curvature="0" class="st0" d="M-57.2,30.9c-15.6,27-50.2,36.3-77.2,20.7S-170.6,1.5-155-25.6
			s50.2-36.3,77.2-20.7c8.6,5,15.7,12.1,20.7,20.7"/>
		<path id="path10" inkscape:connector-curvature="0" class="st0" d="M-225.7,66.3c35.1,66.1,117.2,91.2,183.3,56
			S48.7,5.1,13.5-60.9s-117.2-91.2-183.3-56c-23.8,12.7-43.3,32.2-56,56"/>
	</g>
	<path id="path12" inkscape:connector-curvature="0" d="M60.4,289.3c-0.1,0.6,0.2,1.2,0.7,1.2h4c0.5,0,0.8-0.5,0.9-1.2l1.4-10.5
		l6,11.4c0.3,0.6,1.5,0.6,1.8,0l6-11.2l1.4,10.3c0.1,0.6,0.1,1.2,0.8,1.2h4.3c0.4,0,0.6-0.5,0.5-1.2l-4-23c-0.2-0.9-1.3-0.9-1.6-0.5
		l-8.3,15.2l-8.3-15.2c-0.3-0.6-1.5-0.4-1.6,0.5L60.4,289.3z M0,278.2c0.1,7,5.7,12.6,12.5,12.5c2.9,0,6.1-1,8.6-3.4
		c0.2-0.2,0.2-0.4,0-0.7l-3.2-3.2c-0.2-0.2-0.4-0.2-0.7,0c-1.1,1-2.9,1.8-4.7,1.8c-3.8,0.1-6.9-3.1-7-7c0.1-3.9,3.2-7.1,7-7
		c1.8,0.1,3.6,0.8,4.7,1.8c0.2,0.2,0.5,0.2,0.7,0l3.2-3.2c0.2-0.2,0.2-0.5,0-0.7c-2.5-2.5-5.8-3.4-8.6-3.4
		C5.7,265.6,0.1,271.2,0,278.2L0,278.2z M28,278.2c0,6.9,5.6,12.5,12.5,12.5c6.9,0,12.5-5.6,12.5-12.5c0-6.9-5.6-12.5-12.5-12.5
		C33.6,265.7,28,271.3,28,278.2z M97.2,266.7v23c0,0.4,0.3,0.8,0.8,0.8h14.3c0.4,0,0.8-0.3,0.8-0.8V286c0-0.4-0.3-0.8-0.8-0.8h-9.6
		v-4.6h8c0.4,0,0.8-0.3,0.8-0.8v-3.7c0-0.4-0.3-0.8-0.8-0.8h-8v-4.1h9.6c0.4,0,0.8-0.3,0.8-0.8v-3.7c0-0.4-0.3-0.8-0.8-0.8H98
		C97.5,265.9,97.2,266.3,97.2,266.7L97.2,266.7z M122.3,266.9v22.7c0,0.5,0.4,0.9,0.9,0.9h8.9c0.1,0,0.2,0,0.3-0.1
		c6.3-0.5,11.2-5.8,11.2-12.2s-4.9-11.7-11.2-12.2c-0.1,0-0.2,0-0.3,0h-8.9C122.7,265.9,122.3,266.3,122.3,266.9z M148.7,266.9
		l7.8,11.7v10.8c0,0.6,0.5,1.1,1.1,1.1h3.5c0.6,0,1.1-0.5,1.1-1.1v-10.8l7.8-11.7c0.3-0.5,0.1-0.9-0.5-0.9h-4
		c-0.6,0-1.4,0.4-1.8,0.9l-4.4,6.6l-4.4-6.6c-0.3-0.5-1.1-0.9-1.8-0.9h-4C148.6,265.9,148.4,266.3,148.7,266.9L148.7,266.9z
		 M33.5,278.2c0-3.9,3.1-7,7-7c3.9,0,7,3.1,7,7c0,3.9-3.1,7-7,7C36.7,285.2,33.5,282.1,33.5,278.2z M127.7,271.2h3.1
		c3.9,0,7,3.1,7,7c0,3.9-3.1,7-7,7h-3.1V271.2z M289,266.4v22.9c0,0.6,0.5,1.1,1.1,1.1h3.5c0.6,0,1.1-0.5,1.1-1.1v-12l13.6,13.3
		c0.4,0.4,2.1,0,2.1-0.7V267c0-0.6-0.5-1.1-1.1-1.1h-3.5c-0.6,0-1.1,0.5-1.1,1.1v12.5L291,265.7c-0.1-0.1-0.3-0.2-0.5-0.2
		C289.9,265.6,289,265.9,289,266.4L289,266.4z M343.8,269.1c-0.2,0.2-0.2,0.4,0,0.7l3.2,3.2c0.2,0.2,0.4,0.2,0.7,0
		c1.2-1,2.9-1.8,4.7-1.8c3.8-0.1,6.9,3.1,7,7c-0.1,3.9-3.2,7.1-7,7c-1.8-0.1-3.6-0.8-4.7-1.8c-0.2-0.2-0.5-0.2-0.7,0l-3.2,3.2
		c-0.2,0.2-0.2,0.5,0,0.7c2.5,2.5,5.8,3.4,8.6,3.4c6.9,0,12.4-5.5,12.5-12.5c-0.1-7-5.7-12.6-12.5-12.5
		C349.6,265.7,346.3,266.7,343.8,269.1L343.8,269.1z M185.8,266.7v3.8c0,0.4,0.3,0.8,0.8,0.8h8.2v18.5c0,0.4,0.3,0.8,0.8,0.8h4.2
		c0.4,0,0.8-0.3,0.8-0.8c0-5.6,0-15.6,0-23.1c0-0.4-0.3-0.8-0.8-0.8h-13.2C186.2,265.9,185.8,266.2,185.8,266.7z M207.7,266.7
		l11.1,23.8c0.3,0.6,1.3,0.6,1.5,0l11.1-23.8c0.2-0.4,0-0.8-0.5-0.8H227c-0.5,0-1,0.3-1.2,0.8l-1.4,2.9h-9.7l-1.4-2.9
		c-0.2-0.4-0.7-0.8-1.2-0.8h-4C207.7,265.9,207.5,266.2,207.7,266.7L207.7,266.7z M237.3,283c0,4.1,3.3,7.5,7.5,7.5
		c3.8,0,6.7,0,10.4,0c0.5,0,0.9-0.4,0.9-0.9v-22.7c0-0.5-0.4-0.9-0.9-0.9h-3.6c-0.5,0-0.9,0.4-0.9,0.9v8.7h-2.1l-4.8-8.8
		c-0.2-0.5-0.9-0.8-1.4-0.8H238c-0.5,0-0.7,0.4-0.5,0.8l4.9,9.2C239.5,276.9,237.3,279.7,237.3,283L237.3,283z M264.2,286v3.8
		c0,0.4,0.3,0.8,0.8,0.8h15.5c0.4,0,0.8-0.3,0.8-0.8V286c0-0.4-0.3-0.8-0.8-0.8h-5v-18.5c0-0.4-0.3-0.8-0.8-0.8h-4
		c-0.4,0-0.8,0.3-0.8,0.8v18.5h-5C264.5,285.2,264.2,285.5,264.2,286L264.2,286z M319.5,266.7v3.7c0,0.4,0.3,0.8,0.8,0.8h9.6v4.6h-8
		c-0.4,0-0.8,0.3-0.8,0.8v3.7c0,0.4,0.3,0.8,0.8,0.8h8v4.1h-9.6c-0.4,0-0.8,0.3-0.8,0.8v3.7c0,0.4,0.3,0.8,0.8,0.8h14.3
		c0.4,0,0.8-0.3,0.8-0.8v-23c0-0.4-0.3-0.8-0.8-0.8h-14.3C319.9,265.9,319.5,266.2,319.5,266.7z M217,274.4h5.2l-2.6,5.6L217,274.4z
		 M242.8,282.7c0-1.5,1.2-2.8,2.8-2.8h5.1v5.5h-5.1C244,285.4,242.8,284.2,242.8,282.7L242.8,282.7z"/>
</g>
</svg>
