<?xml version="1.0" encoding="utf-8"?>
<!-- Generator: Adobe Illustrator 21.1.0, SVG Export Plug-In . SVG Version: 6.00 Build 0)  -->
<svg version="1.1"
	 id="svg2" inkscape:export-filename="/home/infanf/Downloads/ATV2.png" inkscape:export-xdpi="5.2397532" inkscape:export-ydpi="5.2397532" inkscape:output_extension="org.inkscape.output.svg.inkscape" inkscape:version="0.91 r13725" sodipodi:docname="Logo_ATV2.svg" sodipodi:version="0.32" xmlns:cc="http://creativecommons.org/ns#" xmlns:dc="http://purl.org/dc/elements/1.1/" xmlns:inkscape="http://www.inkscape.org/namespaces/inkscape" xmlns:rdf="http://www.w3.org/1999/02/22-rdf-syntax-ns#" xmlns:sodipodi="http://sodipodi.sourceforge.net/DTD/sodipodi-0.dtd" xmlns:svg="http://www.w3.org/2000/svg"
	 xmlns="http://www.w3.org/2000/svg" xmlns:xlink="http://www.w3.org/1999/xlink" x="0px" y="0px" viewBox="0 0 512 140.8"
	 style="enable-background:new 0 0 512 140.8;" xml:space="preserve">
<style type="text/css">
	.st0{fill:#FF0000;}
</style>
<sodipodi:namedview  bordercolor="#666666" borderopacity="1.0" fit-margin-bottom="0" fit-margin-left="0" fit-margin-right="0" fit-margin-top="0" id="base" inkscape:current-layer="layer1" inkscape:cx="281.48798" inkscape:cy="210.4528" inkscape:document-units="px" inkscape:pageopacity="0.0" inkscape:pageshadow="2" inkscape:window-height="984" inkscape:window-maximized="1" inkscape:window-width="1920" inkscape:window-x="0" inkscape:window-y="0" inkscape:zoom="0.29796541" pagecolor="#ffffff" showgrid="false">
	</sodipodi:namedview>
<g id="layer1" transform="translate(-7.4445887,-94.753863)" inkscape:groupmode="layer" inkscape:label="Ebene 1">
	<path id="path2982" inkscape:connector-curvature="0" d="M77.4,94.8c-8.6,0-16.5,4.9-20.3,12.6L9.8,202.9
		c-5.5,11.2-1,24.8,10.2,30.3c11.2,5.5,24.8,1,30.3-10.2c0,0,13.8-30.5,27-57.2c13.2,26.7,26.8,57.1,26.8,57.1
		c5.5,11.2,19.1,15.8,30.3,10.3c11.2-5.5,15.8-19.1,10.3-30.3l-47.1-95.5C93.9,99.7,86,94.8,77.4,94.8z M361.2,94.8
		c-8.4-0.1-16.5,4.5-20.5,12.6c0,0-13.8,30.5-27,57.2c-13.2-26.7-26.8-57.2-26.8-57.2c-4-8.1-12.2-12.8-20.7-12.6c0,0-0.1,0-0.1,0
		H143c-12.4,0-22.4,10.1-22.4,22.4s10.1,22.4,22.4,22.4h34.4v73.1c0,12.5,10.1,22.6,22.6,22.6c12.5,0,22.6-10.1,22.6-22.6v-73.1
		h29.7l41,83.2c3.8,7.7,11.7,12.6,20.3,12.6c8.6,0,16.5-4.9,20.3-12.6l47.3-95.5c5.5-11.2,1-24.8-10.2-30.3
		C367.9,95.5,364.5,94.8,361.2,94.8L361.2,94.8z"/>
	<path id="rect2991" inkscape:connector-curvature="0" class="st0" d="M430.1,95c-8.4-0.1-16.5,4.5-20.5,12.5l-47.4,95.4
		c-5.6,11.2-1,24.7,10.2,30.2s24.7,1,30.2-10.2l47.4-95.4c5.6-11.2,1-24.7-10.2-30.2C436.7,95.8,433.4,95,430.1,95z M497.2,95
		c-8.4-0.1-16.5,4.5-20.5,12.5l-47.4,95.4c-5.6,11.2-1,24.7,10.2,30.2s24.7,1,30.2-10.2l47.4-95.4c5.6-11.2,1-24.7-10.2-30.2
		C503.8,95.8,500.4,95,497.2,95L497.2,95z"/>
</g>
</svg>
