<svg id="Ebene_1" data-name="Ebene 1" xmlns="http://www.w3.org/2000/svg" viewBox="0 0 139.15 75"><defs><style>.cls-1{fill:#371a5b;}</style></defs><title>syfy</title><path class="cls-1" d="M101.48,20.42h-12V19.11a13.45,13.45,0,0,1,.18-2.42,5.43,5.43,0,0,1,.44-1.45A2.65,2.65,0,0,1,91.3,14a9.33,9.33,0,0,1,4.66-.9h8.15V0H96A22.86,22.86,0,0,0,85.79,2.1a16.09,16.09,0,0,0-5.33,4.15A17.14,17.14,0,0,0,77,13.66a25.39,25.39,0,0,0-.52,5.45V54.48H89.53V32.8h12V20.42"/><path class="cls-1" d="M121.54,75c11.51,0,17.59-8.43,17.61-16.33V20.42H126.85v19a4.36,4.36,0,0,1-1,3.09,5.1,5.1,0,0,1-4.08,1.77,5,5,0,0,1-4.25-1.79,5.22,5.22,0,0,1-.88-3.07v-19H104.11V39.73c0,8.05,6,16.32,16,16.34a15.57,15.57,0,0,0,5.77-1.15l.91-.36v3.78a4.51,4.51,0,0,1-.63,2.49A4.55,4.55,0,0,1,121.9,63a4.87,4.87,0,0,1-4.06-1.82,4.7,4.7,0,0,1-.89-2l-12.62-.05.25,2a17.46,17.46,0,0,0,17,13.84"/><path class="cls-1" d="M56.18,75c11.51,0,17.59-8.43,17.61-16.33V20.42H61.49v19a4.15,4.15,0,0,1-1,3.09,5.15,5.15,0,0,1-4.08,1.77,5,5,0,0,1-4.25-1.79,5.23,5.23,0,0,1-.89-3.07v-19H38.75V39.73c0,8.05,6,16.32,16,16.34a15.58,15.58,0,0,0,5.78-1.15l.91-.36v3.78A4.47,4.47,0,0,1,56.54,63a4.86,4.86,0,0,1-4.06-1.82,4.6,4.6,0,0,1-.89-2L39,59.15l.25,2A17.46,17.46,0,0,0,56.18,75"/><path class="cls-1" d="M0,38.47s0-1.07.05-1.71l12.36,0,0,.75a6.92,6.92,0,0,0,2.51,5.18,7,7,0,0,0,3.89,1.16c2.64,0,5.06-1.62,5.09-4.11v-.23c-.08-1.94-1.31-3-3.07-3.82-1.58-.74-4.27-1.88-7.19-3.33A50.24,50.24,0,0,1,5,27.23c-3.6-2.85-5.22-6.53-5-11.64a15.33,15.33,0,0,1,5.6-11.2A18.4,18.4,0,0,1,18.13.05a17.9,17.9,0,0,1,14,6.23A17.46,17.46,0,0,1,36.2,17l0,.54H23.4a7.45,7.45,0,0,0-1.5-3.76A5.05,5.05,0,0,0,18,12.07a6.06,6.06,0,0,0-3.1.91,3.44,3.44,0,0,0-1.74,2.9c0,1.41.64,2.52,2.47,3.45s7.17,3.31,7.93,3.6c7.68,3,12.54,7.84,13.1,15.16,0,.16,0,.32,0,.5a18,18,0,0,1-3.57,10.49,17.75,17.75,0,0,1-14.21,7C6.11,56,0,46.78,0,38.47"/></svg>