<?xml version="1.0" encoding="utf-8"?>
<!-- Generator: Adobe Illustrator 21.1.0, SVG Export Plug-In . SVG Version: 6.00 Build 0)  -->
<svg version="1.1"
	 id="svg3078" inkscape:version="0.91 r13725" sodipodi:docname="Kinowelt_TV_Logo.svg" xmlns:cc="http://creativecommons.org/ns#" xmlns:dc="http://purl.org/dc/elements/1.1/" xmlns:inkscape="http://www.inkscape.org/namespaces/inkscape" xmlns:rdf="http://www.w3.org/1999/02/22-rdf-syntax-ns#" xmlns:sodipodi="http://sodipodi.sourceforge.net/DTD/sodipodi-0.dtd" xmlns:svg="http://www.w3.org/2000/svg"
	 xmlns="http://www.w3.org/2000/svg" xmlns:xlink="http://www.w3.org/1999/xlink" x="0px" y="0px" viewBox="0 0 512 288"
	 style="enable-background:new 0 0 512 288;" xml:space="preserve">
<style type="text/css">
	.st0{fill:#19171C;}
	.st1{fill:#FFFFFF;}
</style>
<g id="layer1" transform="matrix(0.90312009,0,0,0.90312009,-60.09203,-336.79016)">
	<path id="path22" inkscape:connector-curvature="0" class="st0" d="M66.5,691.8h566.9V372.9H66.5L66.5,691.8L66.5,691.8z"/>
	<path id="path46" inkscape:connector-curvature="0" class="st1" d="M425.4,569.3h17.4v54.2h6.4v-54.2H474l19.4,54.2h5.7l21.4-60
		h-7.3l-17,48.5l-17-48.5h-6.1l0,0h-47.7L425.4,569.3 M410.8,623.6h7.9v-7.9h-7.9V623.6z M386.6,623.6v-54.2H404v-5.7h-41.1v5.7
		h17.4v54.2H386.6 M329.6,563.6v60h34.7v-5.7H336v-54.2H329.6 M275.9,623.6h37.2v-5.7h-30.8v-21.7h26.3v-5.7h-26.3v-21.1h30.8v-5.7
		h-37.2V623.6 M204.3,623.6h6l13.3-48l13.3,48h6l15.3-60h-6.8l-11.7,48.4l-13.2-48.4h-5.7l-13.2,48.4l-11.7-48.4H189L204.3,623.6
		 M467.1,463.7c2.9-3.4,7.6-5.6,13.2-5.6c5.6,0,10.1,2.2,13,5.6c4,4.4,5.1,9.2,5.1,29.3c0,20.1-1.2,24.9-5.1,29.3
		c-2.9,3.4-7.5,5.6-13,5.6c-5.6,0-10.3-2.2-13.2-5.6c-4-4.4-5-9.2-5-29.3C462.1,472.9,463.1,468.1,467.1,463.7L467.1,463.7z
		 M452,534.6c7.3,7.3,16.4,11.4,28.3,11.4c11.9,0,20.8-4.1,28.1-11.4c10.6-10.5,10.4-23.6,10.4-41.6c0-18,0.2-31.1-10.4-41.6
		c-7.3-7.3-16.2-11.4-28.1-11.4c-11.9,0-21,4.1-28.3,11.4c-10.5,10.5-10.3,23.6-10.3,41.6C441.7,511,441.4,524,452,534.6
		 M421.2,440.8h-20.4v63.9l-41.3-63.9h-18.2v104.3h20.4v-64l41.3,64h18.2L421.2,440.8 M292.8,545.1h20.4V440.8h-20.4V545.1z
		 M191.2,440.8v104.3h20.4v-31.4l13.5-16.1l26.8,47.5h23.7l-37.1-62.9l34.6-41.5h-24.8l-36.8,45.4v-45.4H191.2 M113.2,665.6h473.6
		v-21.9H113.2C113.2,643.7,113.2,665.6,113.2,665.6z M113.2,421h473.6v-21.9H113.2C113.2,399.2,113.2,421,113.2,421z"/>
</g>
</svg>
