<?xml version="1.0" encoding="utf-8"?>
<!-- Generator: Adobe Illustrator 21.1.0, SVG Export Plug-In . SVG Version: 6.00 Build 0)  -->
<svg version="1.1"
	 id="svg2" inkscape:version="0.91 r13725" sodipodi:docname="Hr-fernsehen_Logo_2015.svg" xmlns:cc="http://creativecommons.org/ns#" xmlns:dc="http://purl.org/dc/elements/1.1/" xmlns:inkscape="http://www.inkscape.org/namespaces/inkscape" xmlns:rdf="http://www.w3.org/1999/02/22-rdf-syntax-ns#" xmlns:sodipodi="http://sodipodi.sourceforge.net/DTD/sodipodi-0.dtd" xmlns:svg="http://www.w3.org/2000/svg"
	 xmlns="http://www.w3.org/2000/svg" xmlns:xlink="http://www.w3.org/1999/xlink" x="0px" y="0px" viewBox="0 0 510.2 116.5"
	 style="enable-background:new 0 0 510.2 116.5;" xml:space="preserve">
<style type="text/css">
	.st0{fill:#610439;}
</style>
<sodipodi:namedview  bordercolor="#666666" borderopacity="1" gridtolerance="10" guidetolerance="10" id="namedview31" inkscape:current-layer="svg2" inkscape:cx="648.89503" inkscape:cy="120" inkscape:pageopacity="0" inkscape:pageshadow="2" inkscape:window-height="825" inkscape:window-maximized="0" inkscape:window-width="1366" inkscape:window-x="0" inkscape:window-y="0" inkscape:zoom="0.40222222" objecttolerance="10" pagecolor="#ffffff" showgrid="false">
	</sodipodi:namedview>
<title  id="title4">hr-fernsehen Logo</title>
<g id="g11" transform="matrix(0.58249484,0,0,0.58249484,-5.7584269,76.00141)">
	<title  id="title13">Ebene 1</title>
	<g id="g10">
		<g id="g12">
			<g id="g14">
				<g>
					<g>
						<g id="g16">
							<path id="path22" inkscape:connector-curvature="0" class="st0" d="M141.6,69.5c-44,0.7-97.3-7.3-131.7-22.2V33.9
								c36.2,15.4,85.4,23.5,129.4,22.8c47.5-0.8,96.9-8.8,131.1-22.2v13C232.1,61.1,188.8,68.7,141.6,69.5"/>
							<path id="path24" inkscape:connector-curvature="0" class="st0" d="M32.8-130.5v49.6c0,0,15.6-3.2,29.3-3.1
								c22.8,0.2,34.2,12.5,35,28.4c0.2,4.1,0.2,6.3,0.2,10.7v64.6h-24v-65.9c0-8.1,0.5-18.1-17.6-18c-12.9,0.1-22,2.5-22,2.5v81.4
								H10.1V-129L32.8-130.5"/>
							<path id="path26" inkscape:connector-curvature="0" class="st0" d="M178.5-84.1c-0.3-0.1-21.4,0.5-33.9,3.4
								c-14.6,3.3-23.9,12.1-25.2,25.6c-0.3,2.6-0.4,4.2-0.4,10.1v64.7h24v-66.2c0-5.8,0.5-9.5,4.2-12.9c4.3-3.9,14.1-4.4,19.7-4.9
								c3.9-0.3,11.5-0.7,11.5-0.7L178.5-84.1"/>
							<path id="path28" inkscape:connector-curvature="0" class="st0" d="M321.2-39.9v-7.2c0-23-12.9-38.9-35-38.9
								c-21.2,0-35,15.2-35,41.3c0,30.8,16.4,41.5,37.1,41.5c14.5,0,22.5-4.3,30.9-12.6l-10.6-9.7c-5.9,5.7-10.7,8.3-20,8.3
								c-13.5,0-21-8.8-21-22.7H321.2z M304.8-51.2h-37.1c0.2-4.9,0.5-7.3,2.1-11c2.6-6.1,8.6-10.2,16.4-10.2s13.7,4.1,16.3,10.2
								C304.1-58.6,304.6-56.2,304.8-51.2"/>
							<path id="path30" inkscape:connector-curvature="0" class="st0" d="M510.7-2.3c-13.5,0-24.9-2.2-34.7-11.6l10.9-10.7
								c6.7,6.7,15.6,8.5,23.8,8.5c10.1,0,18.1-3.5,18.1-11.2c0-5.4-3.1-8.9-11.1-9.6L504.5-38c-15.5-1.3-24.4-8.1-24.4-22.3
								c0-15.8,13.8-24.7,31.1-24.7c12.4,0,22.9,2.6,30.6,9.1l-10.4,10.4c-5.2-4.3-12.5-5.9-20.3-5.9c-9.9,0-15,4.3-15,10.4
								c0,4.8,2.6,8.5,11.4,9.3l13,1.1c15.5,1.3,24.6,8.5,24.6,22.8C545.1-11.1,530.4-2.3,510.7-2.3"/>
							<path id="path32" inkscape:connector-curvature="0" class="st0" d="M627.8-39v-7.2c0-23-12.9-38.9-35-38.9
								c-21.2,0-35,15.2-35,41.3c0,30.8,16.4,41.5,37.1,41.5c14.5,0,22.5-4.3,30.9-12.6l-10.6-9.7c-5.9,5.7-10.7,8.3-20,8.3
								c-13.5,0-21-8.8-21-22.7C574.2-39,627.8-39,627.8-39z M611.3-50.4h-37.1c0.2-4.9,0.5-7.3,2.1-11c2.6-6.1,8.6-10.2,16.4-10.2
								c7.8,0,13.7,4.1,16.3,10.2C610.7-57.7,611.2-55.3,611.3-50.4"/>
							<path id="path34" inkscape:connector-curvature="0" class="st0" d="M801.1-39v-7.2c0-23-12.9-38.9-35-38.9
								c-21.2,0-35,15.2-35,41.3c0,30.8,16.4,41.5,37.1,41.5c14.5,0,22.5-4.3,30.9-12.6l-10.6-9.7c-5.9,5.7-10.7,8.3-20,8.3
								c-13.5,0-21-8.8-21-22.7C747.5-39,801.1-39,801.1-39z M784.6-50.4h-37.1c0.2-4.9,0.5-7.3,2.1-11c2.6-6.1,8.6-10.2,16.4-10.2
								c7.8,0,13.7,4.1,16.3,10.2C784-57.7,784.5-55.3,784.6-50.4"/>
							<path id="path36" inkscape:connector-curvature="0" class="st0" d="M233.1-104.7h7.3v-13.9H230c-14.6,0-21.8,9.6-22.5,20.5
								v93.9H224v-64.5h16.4v-14.9H224v-11.6C224-101.2,226.9-104.7,233.1-104.7"/>
							<path id="path38" inkscape:connector-curvature="0" class="st0" d="M663.6-120.3v36.6c0,0,11.7-2.4,22-2.3
								c17.1,0.2,25.7,9.2,26.3,21c0.2,3,0.1,4.7,0.1,7.9v52.9h-18.1v-53.9c0-6,0.4-13.4-13.3-13.3c-9.7,0-16.6,1.9-16.6,1.9v65.3
								h-17.6v-115L663.6-120.3"/>
							<path id="path40" inkscape:connector-curvature="0" class="st0" d="M393-3.9v-51.8c0-9.1-0.8-16,7.3-23.7
								c4.8-4.6,16.6-6.7,25.6-6.6c8.2,0,20.8,2,25.6,6.6c7.9,7.7,7.3,14.6,7.3,23.7v51.8h-16.3v-49.4c0-12.4-5.3-17.9-16.6-18
								c-12.1,0.3-16.6,5.7-16.6,18v49.4L393-3.9"/>
							<path id="path42" inkscape:connector-curvature="0" class="st0" d="M819.9-3.9v-51.8c0-9.1-0.8-16,7.3-23.7
								c4.8-4.6,16.6-6.7,25.6-6.6c8.2,0,20.8,2,25.6,6.6c7.9,7.7,7.3,14.6,7.3,23.7v51.8h-16.4v-49.4c0-12.4-5.4-17.9-16.6-18
								c-12.1,0.3-16.6,5.7-16.6,18v49.4L819.9-3.9"/>
							<path id="path44" inkscape:connector-curvature="0" class="st0" d="M379.6-86c-3.2,0.1-14.4,0.3-22,2.1
								c-10.2,2.4-16.7,8.7-17.6,18.4c-0.2,1.9-0.3,3-0.3,7.3v54.4h16.8v-55.4c0-4.2,0.3-6.8,3-9.3c3-2.8,9.9-3.2,13.8-3.5
								c2.1-0.2,4.7,0,6.3-0.1L379.6-86"/>
						</g>
					</g>
				</g>
			</g>
		</g>
	</g>
</g>
</svg>
