<?xml version="1.0" encoding="utf-8"?>
<!-- Generator: Adobe Illustrator 21.1.0, SVG Export Plug-In . SVG Version: 6.00 Build 0)  -->
<svg version="1.1"
	 id="svg63728" inkscape:version="0.91 r13725" sodipodi:docname="CNN-International-Logo.svg" xmlns:cc="http://creativecommons.org/ns#" xmlns:dc="http://purl.org/dc/elements/1.1/" xmlns:inkscape="http://www.inkscape.org/namespaces/inkscape" xmlns:rdf="http://www.w3.org/1999/02/22-rdf-syntax-ns#" xmlns:sodipodi="http://sodipodi.sourceforge.net/DTD/sodipodi-0.dtd" xmlns:svg="http://www.w3.org/2000/svg"
	 xmlns="http://www.w3.org/2000/svg" xmlns:xlink="http://www.w3.org/1999/xlink" x="0px" y="0px" viewBox="0 0 479.3 288"
	 style="enable-background:new 0 0 479.3 288;" xml:space="preserve">
<style type="text/css">
	.st0{fill:#EA1B22;}
</style>
<sodipodi:namedview  bordercolor="#666666" borderopacity="1" gridtolerance="10" guidetolerance="10" id="namedview9374" inkscape:current-layer="svg63728" inkscape:cx="165.57665" inkscape:cy="230.66928" inkscape:pageopacity="0" inkscape:pageshadow="2" inkscape:window-height="976" inkscape:window-maximized="0" inkscape:window-width="1662" inkscape:window-x="0" inkscape:window-y="0" inkscape:zoom="0.85" objecttolerance="10" pagecolor="#ffffff" showgrid="false">
	</sodipodi:namedview>
<g id="layer1" transform="matrix(0.67633452,0,0,0.67633452,-240.3186,-102.85619)">
	<g id="g65692" transform="translate(17.71656,17.75693)">
		<path id="path65361" inkscape:connector-curvature="0" class="st0" d="M565.4,137.9h-71.9c-88.2,0-155.6,75.7-155.9,163.8
			c-0.4,94.1,81.7,165.3,175.7,165.3h100.7c16.7,0,26.8-7.2,38.2-19.3c13.7-14.7,16.9-28.6,16.9-48.7v-79.4l76.9,124.1
			c11.7,18.8,28,27,50.2,26.8c32.3-0.3,58.6-26.2,58.6-58.6v-92.3l76.9,125.1c14.1,22.9,38.5,31,64.6,24.3
			c30.4-7.8,44.2-36.1,44.2-67.5V139.9h-40.2v265.6c0,8.5-2.4,15.4-9.9,19.4c-10.5,5.5-21.7-2.2-27.7-12.4L831.6,196
			c-2.2-3.7-6.3-5.3-10.4-3.9c-4.3,1.5-5.5,5.8-5.5,10.4V407c0,10.2-6.2,19.1-16.4,20.3c-8.7,1.2-15.2-2.9-19.8-10.4l-137-223.3
			c-1.9-3.2-4.8-4.3-8.4-4c-5.5,0.5-7.5,6.4-7.5,11.9v201.1c0,6.1-1.7,10-5.9,14.3c-5.2,5.6-10.7,7-18.4,7h-99.2
			c-67.4,0-122.3-52.8-124.1-120.2C377,236.5,428.7,177.2,496,177.2h69.9L565.4,137.9"/>
		<path id="path65363" inkscape:connector-curvature="0" class="st0" d="M565.4,187.6h-64.5c-61.2,0-109.8,49.5-111.2,110.7
			c-1.5,62.9,49.2,116.2,112.2,116.2h99.7c4.5,0,7.7-0.4,11-3.5c3.4-3.4,3.4-7.1,3.4-11.9V196.5c0-8.3,4.2-14.7,11.9-17.8
			c9.1-3.6,18.2,0.7,23.3,8.9l137.5,222.9c1.9,3,5,4.1,8.5,3.5c4.2-0.7,6.9-4.2,6.9-8.5v-207c0-8.8,4.9-15.8,13.4-18.3
			c9.8-2.9,18,3.2,23.3,11.9l134.5,218.4c1.7,2.8,4.2,4.2,7.5,4c4.1-0.4,6.9-3.8,6.9-8V139.9h-41.7v150.4l-72.5-127.6
			c-11.9-21-31-29.7-55.1-28.2c-33,1.9-56.6,30-56.6,63v90.4l-73.5-122.2c-12.7-21-30.1-31.4-54.7-31.2c-33.1,0.2-61,25.9-61,59.1
			v167.7c0,3.2-1.3,5.2-3.5,7.5c-2.7,2.7-5.5,3.4-9.4,3.4h-60.6c-39.3,0-70.2-34.2-69-73.5c1.2-36.1,26.8-68,63.1-68h69.9
			L565.4,187.6"/>
		<path id="path65365" inkscape:connector-curvature="0" class="st0" d="M343.4,488.1v65.3c0,3.4,2.5,6.5,5.9,6.4
			c3.4,0,5.7-3.2,5.7-6.7v-65.6c0-3.1-2.3-5.6-5.4-5.7C346.1,481.7,343.4,484.7,343.4,488.1"/>
		<path id="path65373" inkscape:connector-curvature="0" class="st0" d="M384.5,492.6c-1.2-2.8-6.7-11.7-14.7-9.2
			c-4.9,1.5-8.4,5-8.4,10.2V553c0,3.6,1.7,6.9,6,6.9c3.4,0,5.7-3.2,5.7-6.7v-54.7l21.6,52.2c2.3,5.7,6.6,9.2,12.7,9.2
			c6.7-0.1,12.4-5.2,12.4-11.9v-49.2c0-0.8-0.3-1.5,0.3-2.2c0.7-0.8,1.4-1,2.5-1h16.1c0.8,0,1.2,0.4,1.7,1c0.8,0.7,1,1.4,1,2.4V548
			c0,6.9,6.2,12.1,13.2,11.9c6.7-0.1,12.7-4.7,12.7-11.4v-48.7c0-1,0.3-1.7,1-2.4c0.9-1.2,2-1.5,3.5-1.5h12.6c3.2,0,5.9-2.2,6.2-5.5
			c0.4-3.7-2.5-7.2-6.2-7.2h-16.3c-3.4,0-5.5,1.2-7.9,3.4c-3.8,3.6-3.7,7.7-3.7,12.9v47.2c0,1.3-0.2,3.1-1.5,3
			c-1.4-0.1-1.7-1.7-1.7-3.2v-47.2c0-4.7,0.9-8.3-2.2-11.9c-2.3-2.6-4.6-3.9-8.2-3.9h-23.8c-2.7,0-4.3,0.7-6.4,2.5
			c-3.7,3-4,6.8-4,11.7l-0.3,51.1L384.5,492.6"/>
		<path id="path65375" inkscape:connector-curvature="0" class="st0" d="M529.3,558.1h-22.4c-9.2,0-16.4-7.6-16.8-16.8
			c-0.4-9.6,6.5-18.7,16.2-18.7h11.7c2.2,0,5.7,0.8,5.7-1.3c0-1.3-3.4-1.2-5.7-1.2h-12.7c-9,0-15.1-7.7-15.9-16.7
			c-1.1-11.4,9.7-20.3,21.1-20.3h32.7c1.1,0,1.6,0.5,2.5,1c1.1,0.5,1.6,1,2.5,1.7c0.9-0.7,1.5-1.1,2.5-1.5c2.3-1.1,3.8-1.2,6.4-1.2
			h21.3c9,0,15.6,7.2,16.4,16.1c0.9,9.9-6,19.9-15.9,19.9h-4.9c-1.9,0-5-0.7-4.7,1.3c0.3,1.5,2.2,1.2,3.7,1.2h5.9
			c4.7,0,7.6,1.7,10.9,5c4.7,4.5,6,9.2,5.2,15.7c-0.4,1.3,0,2.2,0.8,3.4c0.5,0.8,1,1.5,2,1.5h4.7c0.8,0,1.1-0.6,1.5-1.3
			c0.9-1.3,0.5-2.4,0.5-3.9v-50.4c0-5.9,5.7-9.5,11.7-9.7c6.5-0.2,10.7,4.4,12.9,10.5l18.6,49.2c0.4,1.1,1.5,2.7,1.7,2.4
			c0.8-0.7,1.5-1.2,1.5-2.2v-54.9c0-2.7,2.2-4.5,5-5c3.5-0.6,7.2,2.2,7.2,5.7v57.6c0,7.3-4.3,14.4-11.7,14.7
			c-5.9,0.3-10.2-3.2-12.4-8.7l-20.3-53.1c-0.3-0.7-0.5-1.2-1.3-1.5c-1.3-0.5-1.3,1.8-1.3,3.2l-0.3,44.9c0,2-0.2,6.9-3,9.7
			c-2.8,2.9-5.2,3.7-8.9,3.7H593c-2.7,0-4.6-0.8-6.2-2.7c-2.2-2.7-3-3.2-3.2-9.2l-0.3-5.7c-0.1-2.7-0.4-4.5-2.2-6.5
			c-1.5-1.6-2.7-2.7-4.9-2.7h-9.2c-6.1,0-11.2-4.8-11.2-10.9c0.1-5.7,4.1-10.4,9.7-10.7l10.2-0.5c4.2-0.3,7.7-3.3,7.7-7.5
			c-0.1-4.2-3.9-7.2-8.2-7.2h-13.7c-1.7,0-2.8,0.3-4.2,1.2c-1.7,1.2-2.7,2.6-2.7,4.7v53.7c0,3.1-2.5,5.5-5.7,5.7
			c-3.4,0.3-6.4-2.5-6.4-5.9v-54.7c0-1.6,0-2.7-1-3.9c-1.2-1.2-2.6-1-4.2-1h-26.1c-5,0-10.2,4-9.2,8.9c0.8,4.1,4.7,6,8.9,6h13.9
			c6.6,0,11.5,6.3,10.9,12.8c-0.5,5.7-4.7,10.5-10.4,10.5h-16.9c-3.4,0-6.2,2.5-6.4,5.9c-0.3,4,3.5,6.9,7.4,6.9h19.4
			c3.7,0,7.5,1.7,7.9,5.5C537.1,555,533.2,558.1,529.3,558.1"/>
		<path id="path65377" inkscape:connector-curvature="0" class="st0" d="M664,550.5c-1.1,3-0.1,6.2,2.7,7.7c3.5,1.7,7.3-1.3,8.7-4.9
			l21.1-58.6c0.4-1,0.6-1.8,1.5-2.2c1.7-0.8,3.2,1,3.7,2.7l4.9,15.1c0.3,0.9,0.4,1.6,0,2.5c-0.4,1.2-1.3,2-2.4,2h-4.7
			c-6.7,0-11.7,6.7-10.9,13.4c0.7,6.6,6.3,10.9,12.9,10.9h11.4c1.6,0,2.6-0.3,4,0.5c1.5,0.8,1.9,2.1,2.4,3.7l3.5,11.4
			c0.9,2.8,4,4.2,7,3.4c3.4-0.8,4.3-5,3.4-8.4l-3.4-13.4c-0.8-2.9-2-4.7-4.5-6.4c-2.9-2.2-5.4-2-8.9-2h-13.2c-1.5,0-3.5-0.6-3.2-2
			c0.3-1.2,1.7-1,3-1h10.9c2.9,0,4.3-2.2,5.7-4.7c1.7-3.2,1.5-5.8,0.3-9.2l-7.9-22.6c-1.9-5.5-6.8-7.8-12.7-7.9
			c-6.5-0.1-11.7,3.1-13.9,9.2L664,550.5"/>
		<path id="path65379" inkscape:connector-curvature="0" class="st0" d="M723.4,481.9c-3.3,0-6.2,2-6.7,5.2c-0.5,4,3.7,6.7,7.7,6.7
			h7.9c1.4,0,2.5-0.3,3.5,0.7c0.7,0.7,1,1.2,1,2.2v48.8c0,7,5.9,12.4,12.9,12.4c6.9,0.1,12.7-5.7,12.7-12.7v-46.7
			c0-1.5-0.6-2.7,0.5-3.9c0.9-1,1.8-1.2,3.2-1.2h12.4c3,0,4.7-3,4.7-6c0-3.2-2.6-5.7-5.7-5.7h-17.8c-2.4,0-3.8,1.2-5.5,3.1
			c-2.2,2.4-2.4,4.8-2.4,8.2v50.2c0,1.5,0.2,3.2-1.3,3.7c-1.6,0.5-2.2-1.8-2.2-3.4v-50.2c0-3.6-0.2-6.2-2.7-8.7
			c-2-1.9-3.7-2.8-6.4-2.8L723.4,481.9"/>
		<path id="path65381" inkscape:connector-curvature="0" class="st0" d="M784.4,487.1v65.3c0,3.4,2.5,6.4,5.9,6.4
			c3.4,0.1,5.7-3.2,5.7-6.7v-65.6c0-3.1-2.4-5.5-5.5-5.7C787.2,480.7,784.4,483.7,784.4,487.1"/>
		<path id="path65391" inkscape:connector-curvature="0" class="st0" d="M878.3,551.2v-59.6c0-5.9,5.7-9.5,11.7-9.7
			c6.4-0.3,10.6,4.4,12.9,10.5l19.6,50.8c0.3,0.8,0.9,1.8,1.3,1.7c1.5-0.3,1-1.9,1-3.2v-54.7c0-3.2,2.7-5.4,5.9-5.4
			c3.4-0.1,6.2,2.6,6.2,5.9v57.6c0,0-0.3,12.9-11.7,14.7c-5,0.8-10.3-3.2-12.4-8.7l-20.3-53.2c-0.3-0.7-0.6-1.2-1.3-1.5
			c-1.3-0.4-1.3,1.9-1.3,3.2V551c0,1.9-0.3,7.2-6,7.2C877.3,558.1,878.3,550.7,878.3,551.2"/>
		<path id="path65393" inkscape:connector-curvature="0" class="st0" d="M936.6,551.9c-1.1,3-0.1,6.2,2.7,7.7c3.5,1.7,7.4-1.3,8.7-5
			l21.1-58.6c0.3-1,0.5-1.8,1.5-2.2c1.7-0.6,3.2,1.1,3.7,2.7l5,15.2c0.3,0.9,0.4,1.6,0,2.5c-0.5,1.1-1.3,2-2.5,2h-4.7
			c-6.7,0-11.6,6.7-10.9,13.3c0.6,6.6,6.2,10.9,12.9,10.9h11.4c1.5,0,2.6-0.3,3.9,0.5c1.5,0.9,2,2.1,2.5,3.7l3.5,11.4
			c0.8,2.9,4,4.2,6.9,3.5c3.5-0.9,4.3-5,3.5-8.4l-3.5-13.4c-0.8-3-2-4.7-4.5-6.5c-2.8-2.1-5.3-2-8.9-2h-13.2c-1.4,0-3.6-0.5-3.2-2
			c0.3-1.2,1.7-0.9,2.9-0.9h8.5c3.2,0,5.2-1.7,6.9-4.5c2.6-3.8,1.7-7.5,0.3-11.9l-6.7-20.1c-1.8-5.6-6.8-7.8-12.7-8
			c-6.5-0.1-11.7,3.1-13.9,9.2L936.6,551.9"/>
		<path id="path65395" inkscape:connector-curvature="0" class="st0" d="M1004.8,487.4v45.5c0,0-1.2,14.3,4.4,19.3
			c5.7,4.9,9.3,5.9,15.9,5.9h13.2c3.4,0,8.2-1.7,7.9-5.9c-0.3-5.7-4.2-7-7.7-7h-12.9c-2.9,0-4.8-0.9-6.7-3.2c-2.2-2.7-2-5.1-2-8.5
			v-45.9c0-3.1-2.4-5.5-5.5-5.7C1008.1,481.6,1004.8,484,1004.8,487.4"/>
	</g>
</g>
<path class="st0" d="M337.6,233.6c-14.5,0-26.3,11.6-26.5,26c-0.3,14.7,11.5,26.8,26.2,27c14.9,0.2,27.2-12.2,26.9-27
	C363.9,245.2,352.1,233.6,337.6,233.6z M338.6,279.3c-10.3,0.5-18.9-7.8-19.3-18.1c-0.5-10.5,7.8-19.8,18.3-19.8h0h0l0,0
	c10,0,17.9,7.7,18.7,17.6C357,269.4,349.1,278.8,338.6,279.3z"/>
</svg>
