<?xml version="1.0" encoding="utf-8"?>
<!-- Generator: Adobe Illustrator 21.1.0, SVG Export Plug-In . SVG Version: 6.00 Build 0)  -->
<svg version="1.1"
	 id="svg13519" inkscape:version="0.91 r13725" sodipodi:docname="ORF_III_Logo_Monochrom.svg" xmlns:cc="http://creativecommons.org/ns#" xmlns:dc="http://purl.org/dc/elements/1.1/" xmlns:inkscape="http://www.inkscape.org/namespaces/inkscape" xmlns:rdf="http://www.w3.org/1999/02/22-rdf-syntax-ns#" xmlns:sodipodi="http://sodipodi.sourceforge.net/DTD/sodipodi-0.dtd" xmlns:svg="http://www.w3.org/2000/svg"
	 xmlns="http://www.w3.org/2000/svg" xmlns:xlink="http://www.w3.org/1999/xlink" x="0px" y="0px" viewBox="0 0 512 197.8"
	 style="enable-background:new 0 0 512 197.8;" xml:space="preserve">
<style type="text/css">
	.st0{fill:#EC1B24;}
	.st1{fill:#FFFFFF;}
	.st2{fill:#E2001A;}
	.st3{fill:#565656;}
</style>
<sodipodi:namedview  bordercolor="#666666" borderopacity="1" gridtolerance="10" guidetolerance="10" id="namedview14" inkscape:current-layer="svg13519" inkscape:cx="182.14545" inkscape:cy="176.8794" inkscape:pageopacity="0" inkscape:pageshadow="2" inkscape:window-height="984" inkscape:window-maximized="1" inkscape:window-width="1920" inkscape:window-x="0" inkscape:window-y="0" inkscape:zoom="0.5" objecttolerance="10" pagecolor="#ffffff" showgrid="false">
	</sodipodi:namedview>
<g id="layer1" transform="matrix(0.49931463,0,0,0.49931463,250.25542,183.40493)">
	<g id="g13535" transform="matrix(1.4866562,0,0,1.4866562,243.91105,-13.962026)">
		<path id="path3591" inkscape:connector-curvature="0" class="st0" d="M-501.2-237.7h476.7v204.1h-476.7V-237.7z"/>
		<path id="path3593" inkscape:connector-curvature="0" class="st1" d="M-341.9-135.6c0-33.3-27-59-60.7-59
			c-33.7,0-60.7,25.7-60.7,59c0,33.3,27,59,60.7,59C-368.9-76.6-341.9-102.3-341.9-135.6 M-370.7-135.6c0,17.9-15.4,32.2-31.9,32.2
			c-16.7,0-31.9-14.3-31.9-32.2c0-17.9,15.2-32.2,31.9-32.2C-386.1-167.9-370.7-153.6-370.7-135.6"/>
		<path id="path3595" inkscape:connector-curvature="0" class="st1" d="M-301.7-78.8h27.9v-33.1h20.8l21.9,33.1h34.8l-28.1-39.8
			c13.2-5.8,22.5-18.3,22.5-33.7c0-22.6-16.7-40.2-42-40.2h-57.8C-301.7-192.5-301.7-78.8-301.7-78.8z M-245.5-138.7h-28.3v-27h28.3
			c12.1,0,15.8,6,15.8,13.4C-229.8-144.7-233.4-138.7-245.5-138.7"/>
		<path id="path3597" inkscape:connector-curvature="0" class="st1" d="M-154.9-78.8h27.9v-38.3h52.7v-26.8H-127v-21.8h64.7v-26.8
			h-92.5C-154.9-192.5-154.9-78.8-154.9-78.8z"/>
		<path id="path3603" inkscape:connector-curvature="0" class="st2" d="M-501.2-237.7h476.7v204.1h-476.7V-237.7z"/>
		<path id="path3605" inkscape:connector-curvature="0" class="st1" d="M-341.9-135.6c0-33.3-27-59-60.7-59
			c-33.7,0-60.7,25.7-60.7,59c0,33.3,27,59,60.7,59C-368.9-76.6-341.9-102.3-341.9-135.6 M-370.7-135.6c0,17.9-15.4,32.2-31.9,32.2
			c-16.7,0-31.9-14.3-31.9-32.2c0-17.9,15.2-32.2,31.9-32.2C-386.1-167.9-370.7-153.6-370.7-135.6"/>
		<path id="path3607" inkscape:connector-curvature="0" class="st1" d="M-301.7-78.8h27.9v-33.1h20.8l21.9,33.1h34.8l-28.1-39.8
			c13.2-5.8,22.5-18.3,22.5-33.7c0-22.6-16.7-40.2-42-40.2h-57.8C-301.7-192.5-301.7-78.8-301.7-78.8z M-245.5-138.7h-28.3v-27h28.3
			c12.1,0,15.8,6,15.8,13.4C-229.8-144.7-233.4-138.7-245.5-138.7"/>
		<path id="path3609" inkscape:connector-curvature="0" class="st1" d="M-154.9-78.8h27.9v-38.3h52.7v-26.8H-127v-21.8h64.7v-26.8
			h-92.5C-154.9-192.5-154.9-78.8-154.9-78.8z"/>
	</g>
</g>
<path id="path3000" inkscape:connector-curvature="0" sodipodi:nodetypes="csssccscscscscssscscccscscsssccscsssscscscccccscscscscscscsccsccccscccc" class="st3" d="
	M407.8,151.4c-0.3-0.1-4.8-2.1-10-4.4c-5.2-2.3-9.9-4.3-10.3-4.5c-0.4-0.2-0.8-0.4-0.9-0.4s-0.5-0.2-1-0.4c-0.5-0.2-1.4-0.6-2-0.9
	c-0.6-0.3-1.1-0.5-1.2-0.5c-0.2,0-4.2-1.9-4.5-2.1c-0.2-0.2-0.2-3.4-0.2-62.4c0-53.5,0-62.2,0.2-62.4c0.1-0.1,1.3-0.7,2.6-1.2
	c1.3-0.6,2.4-1.1,2.5-1.1c0.1-0.1,0.3-0.2,0.5-0.2c0.2-0.1,0.7-0.3,1.2-0.5c0.5-0.2,1.3-0.6,1.9-0.9c0.6-0.3,1.1-0.5,1.2-0.5
	c0.1,0,1-0.4,2-0.8c2.5-1.2,18.4-8.1,18.6-8.1c0.3,0,0.3,0.1,0.3,75.8c0,72.2,0,75.9-0.2,75.8C408.4,151.7,408.1,151.6,407.8,151.4
	L407.8,151.4z M459.8,151.6c-0.1-0.1-1.1-0.6-2.3-1.1c-1.2-0.5-2.5-1.1-2.9-1.3c-0.4-0.2-0.8-0.3-0.8-0.3c0,0-0.5-0.2-1-0.4
	c-2-0.9-3.1-1.4-3.2-1.4c0,0-0.4-0.2-0.8-0.3c-0.4-0.2-4.9-2.2-10.1-4.4c-5.1-2.2-9.4-4.1-9.5-4.2c-0.2-0.2-0.2-124.4,0-124.6
	c0.1-0.1,0.2-0.2,0.3-0.2c0.1,0,0.6-0.2,1.2-0.5c0.6-0.3,1.1-0.5,1.1-0.5c0,0,0.4-0.2,0.8-0.3c0.4-0.2,4.8-2.1,9.7-4.3
	c8.9-3.9,9.9-4.3,11.5-5.1c0.5-0.2,1-0.4,1.2-0.5c0.2-0.1,1-0.4,1.8-0.8c2.7-1.3,3.3-1.5,3.5-1.3c0.1,0.1,0.7,30.8,0.1,75.9l0,75.7
	l-0.3,0C460.1,151.7,459.9,151.7,459.8,151.6L459.8,151.6z M511.2,151.6c-0.1-0.1-1.1-0.5-2.2-1c-1.1-0.5-2.4-1.1-2.9-1.3
	c-0.5-0.2-0.9-0.4-0.9-0.4c0,0-0.5-0.2-1-0.4c-0.5-0.2-1.5-0.7-2.2-1c-1.9-0.8-3.5-1.5-4.5-2c-0.5-0.2-0.9-0.4-1-0.4
	c0,0-0.4-0.1-0.7-0.3c-0.3-0.2-3.8-1.7-7.8-3.4c-4-1.7-7.3-3.2-7.4-3.3c-0.1-0.1-0.1-27.9-0.1-62.3c0-49.6,0-62.2,0.2-62.3
	c0.1-0.1,4.3-2,9.4-4.2c5.1-2.2,9.7-4.2,10.2-4.5c0.5-0.2,1.2-0.5,1.5-0.7c0.3-0.1,0.6-0.3,0.7-0.3c0,0,0.6-0.3,1.3-0.6
	c0.7-0.3,1.6-0.7,2.1-0.9c0.5-0.2,1.1-0.5,1.5-0.6c2.5-1.2,4.2-1.8,4.3-1.7c0.2,0.1,0.2,12.3,0.2,75.9l0,75.8l-0.3,0
	C511.5,151.7,511.3,151.7,511.2,151.6L511.2,151.6z"/>
<g id="text3009" transform="matrix(0.4809719,0,0,0.51835689,2.0233022e-6,45.938331)">
	<path id="path2996" inkscape:connector-curvature="0" d="M72.9,291.8l-27.1-36.7l26-27H54.8l-25.9,27.9v-27.9h-14v63.8h14v-19.5
		l7.4-7.7l19.8,27.1H72.9z"/>
	<path id="path2998" inkscape:connector-curvature="0" d="M124.3,291.8V243h-13.8v27.2c0,3.3-0.8,5.8-2.3,7.4
		c-1.5,1.7-3.6,2.5-6.3,2.5c-2.7,0-4.7-0.8-6.2-2.5c-1.5-1.7-2.2-4.1-2.2-7.4V243H79.6v31.6c0,5.7,1.5,10.1,4.4,13.3
		c2.9,3.2,6.9,4.8,12.2,4.9c3.5-0.1,6.3-0.9,8.6-2.4c2.3-1.5,4.2-3.3,5.7-5.5v6.9L124.3,291.8z"/>
	<path id="path3001" inkscape:connector-curvature="0" d="M151.2,291.8v-66.5h-13.8v66.5H151.2z"/>
	<path id="path3003" inkscape:connector-curvature="0" d="M191.7,289.8v-11.1c-1,0.6-2.1,1-3.2,1.3c-1.1,0.3-2.3,0.5-3.6,0.5
		c-1.5,0-2.7-0.4-3.4-1.2c-0.7-0.8-1.1-2-1.1-3.6v-20.9h11.5V243h-11.5v-12.5h-13.8V243h-5.8v11.8h5.8V278c0.1,5.6,1.4,9.4,3.9,11.6
		c2.6,2.2,6,3.2,10.3,3.1c2.3,0,4.3-0.3,6.1-0.8C188.6,291.4,190.3,290.7,191.7,289.8L191.7,289.8z"/>
	<path id="path3005" inkscape:connector-curvature="0" d="M246.3,291.8V243h-13.8v27.2c0,3.3-0.8,5.8-2.3,7.4
		c-1.5,1.7-3.6,2.5-6.3,2.5c-2.7,0-4.7-0.8-6.2-2.5c-1.5-1.7-2.2-4.1-2.2-7.4V243h-13.8v31.6c0,5.7,1.5,10.1,4.4,13.3
		c2.9,3.2,6.9,4.8,12.2,4.9c3.5-0.1,6.3-0.9,8.6-2.4c2.3-1.5,4.2-3.3,5.7-5.5v6.9L246.3,291.8z"/>
	<path id="path3007" inkscape:connector-curvature="0" d="M288.2,256.6v-14.5c-4.1-0.1-7.3,0.8-9.8,2.7c-2.5,1.9-4.4,4.6-5.8,8V243
		h-13.8v48.8h13.8v-18c0-5.8,1.4-10.1,4-13c2.6-2.8,6.2-4.2,10.9-4.2L288.2,256.6z"/>
	<path id="path3009" inkscape:connector-curvature="0" d="M365.4,291.8v-46.4h-4.5v26.9c-0.1,4.9-1.7,8.9-4.6,11.9
		c-3,3-6.8,4.6-11.5,4.7c-4.7-0.1-8.4-1.5-10.9-4.3c-2.5-2.8-3.8-6.7-3.9-11.5v-27.6h-4.5v28.4c0,5.7,1.7,10.2,4.9,13.7
		c3.2,3.5,7.8,5.3,13.7,5.4c4.2-0.1,7.7-1,10.4-2.8c2.7-1.8,4.8-4.1,6.4-6.9v8.7L365.4,291.8z"/>
	<path id="path3011" inkscape:connector-curvature="0" d="M422.1,291.8v-28.4c0-5.7-1.7-10.2-4.9-13.7c-3.2-3.5-7.8-5.3-13.7-5.4
		c-4.2,0.1-7.7,1-10.4,2.8c-2.7,1.8-4.8,4.1-6.4,6.9v-8.7h-4.5v46.4h4.5v-26.9c0.1-4.9,1.7-8.9,4.6-11.9c3-3,6.8-4.6,11.5-4.7
		c4.7,0.1,8.4,1.5,10.9,4.3c2.5,2.8,3.8,6.7,3.9,11.5v27.6L422.1,291.8z"/>
	<path id="path3013" inkscape:connector-curvature="0" d="M481.4,291.8v-66.5h-4.5v30.1c-1.9-3-4.4-5.6-7.5-7.7
		c-3.1-2.1-7-3.3-11.6-3.4c-5.8,0.1-11,2.2-15.5,6.5c-4.5,4.3-6.9,10.2-7.1,17.8v0.2c0.2,7.6,2.6,13.5,7.1,17.7
		c4.5,4.2,9.7,6.3,15.5,6.4c4.6-0.1,8.4-1.2,11.5-3.4c3.1-2.2,5.6-4.9,7.6-8v10.4L481.4,291.8z M477.2,268.7
		c-0.2,6-2.1,10.8-5.9,14.4c-3.7,3.6-8.1,5.4-13.1,5.5c-5-0.1-9.3-1.9-12.8-5.4c-3.5-3.6-5.3-8.4-5.5-14.6v-0.2
		c0.1-6.3,1.9-11.2,5.3-14.6c3.4-3.5,7.7-5.2,12.9-5.2c5,0.1,9.4,1.9,13.1,5.5c3.7,3.6,5.7,8.4,5.9,14.4L477.2,268.7z"/>
	<path id="path3015" inkscape:connector-curvature="0" d="M539.6,291.8v-63.8h-14v63.8H539.6z"/>
	<path id="path3017" inkscape:connector-curvature="0" d="M598.7,291.8v-31.6c0-5.7-1.5-10.1-4.4-13.3c-2.9-3.2-6.9-4.8-12.2-4.9
		c-3.5,0.1-6.3,0.9-8.6,2.4c-2.3,1.5-4.2,3.3-5.7,5.5V243H554v48.8h13.8v-27.2c0-3.3,0.8-5.8,2.3-7.4c1.5-1.7,3.6-2.5,6.3-2.5
		c2.7,0,4.7,0.8,6.2,2.5c1.5,1.7,2.2,4.1,2.2,7.4v27.2L598.7,291.8z"/>
	<path id="path3019" inkscape:connector-curvature="0" d="M638.1,237.5v-11.5c-1.3-0.4-2.7-0.7-4.2-1c-1.6-0.2-3.4-0.4-5.6-0.4
		c-4.9,0-8.6,1.2-11.2,3.8c-2.6,2.6-3.9,6.5-3.9,11.9v3.1h-5.7v11.4h5.7v37H627v-37h11v-11.3h-11.2v-1.9c0-1.8,0.4-3.1,1.3-4
		c0.9-0.9,2.1-1.3,3.7-1.3c1.2,0,2.3,0.1,3.3,0.3C636.1,236.9,637.1,237.2,638.1,237.5L638.1,237.5z"/>
	<path id="path3021" inkscape:connector-curvature="0" d="M696.1,267.5v-0.2c-0.2-7.2-2.6-13.1-7.5-17.9c-4.8-4.7-11.1-7.2-18.8-7.4
		c-7.8,0.2-14.1,2.7-19,7.4c-4.9,4.8-7.4,10.8-7.5,18v0.2c0.2,7.2,2.6,13.1,7.5,17.9c4.8,4.7,11.1,7.2,18.8,7.4
		c7.8-0.2,14.1-2.7,19-7.4C693.4,280.7,695.9,274.7,696.1,267.5L696.1,267.5z M682.4,267.7c0,3.7-1.2,6.8-3.4,9.3
		c-2.2,2.5-5.3,3.8-9.3,4c-3.9-0.1-7-1.5-9.3-4c-2.3-2.6-3.5-5.7-3.6-9.4v-0.2c0-3.7,1.2-6.8,3.4-9.3c2.2-2.5,5.3-3.8,9.3-4
		c3.9,0.1,7,1.5,9.3,4c2.3,2.6,3.5,5.7,3.6,9.4L682.4,267.7z"/>
	<path id="path3023" inkscape:connector-curvature="0" d="M735.5,256.6v-14.5c-4.1-0.1-7.3,0.8-9.8,2.7c-2.5,1.9-4.4,4.6-5.8,8V243
		h-13.8v48.8H720v-18c0-5.8,1.4-10.1,4-13c2.6-2.8,6.2-4.2,10.9-4.2L735.5,256.6z"/>
	<path id="path3025" inkscape:connector-curvature="0" d="M818.7,291.8V260c0-5.9-1.5-10.3-4.4-13.4c-2.9-3-6.9-4.6-12.1-4.6
		c-3.3,0-6.3,0.7-8.9,2c-2.6,1.3-5,3.2-7.1,5.7c-1.3-2.5-3.1-4.4-5.4-5.7c-2.3-1.3-5.1-2-8.3-2c-3.5,0.1-6.3,0.9-8.6,2.4
		c-2.3,1.5-4.2,3.3-5.8,5.5V243h-13.8v48.8H758v-27.2c0-3.3,0.8-5.8,2.2-7.4c1.5-1.7,3.5-2.5,6.1-2.5c2.6,0,4.6,0.8,6,2.5
		c1.4,1.7,2.1,4.1,2.1,7.4v27.2h13.8v-27.2c0-3.3,0.8-5.8,2.2-7.4c1.5-1.7,3.5-2.5,6.1-2.5c2.6,0,4.6,0.8,6,2.5
		c1.4,1.7,2.1,4.1,2.1,7.4v27.2H818.7z"/>
	<path id="path3027" inkscape:connector-curvature="0" d="M872.6,291.8v-28.3c0-6.7-1.7-11.8-5.2-15.5c-3.5-3.7-9-5.5-16.6-5.6
		c-4.1,0-7.6,0.4-10.6,1.1c-3,0.7-5.8,1.6-8.4,2.8l3.5,10.6c2.2-0.8,4.3-1.5,6.4-1.9c2.1-0.5,4.5-0.7,7-0.7c3.5,0,6.1,0.8,7.8,2.3
		c1.8,1.5,2.6,3.7,2.6,6.6v0.8c-1.7-0.6-3.5-1.1-5.4-1.4c-1.9-0.4-4.1-0.5-6.5-0.6c-5.9,0-10.6,1.2-14.2,3.8
		c-3.6,2.5-5.4,6.5-5.5,11.8v0.2c0.1,4.8,1.8,8.5,4.9,11.1s7.1,3.8,11.8,3.8c3.4,0,6.2-0.6,8.6-1.7c2.4-1.1,4.4-2.6,6.1-4.5v5.3
		L872.6,291.8z M859.5,274.6c0,2.5-1,4.6-3,6.2c-1.9,1.6-4.6,2.4-7.8,2.4c-2.3,0-4.1-0.5-5.5-1.6s-2.1-2.5-2.1-4.4v-0.2
		c0-2.2,0.9-3.9,2.6-5c1.7-1.1,4-1.7,7-1.7c1.7,0,3.3,0.2,4.8,0.5c1.5,0.3,2.8,0.8,4,1.3V274.6z"/>
	<path id="path3029" inkscape:connector-curvature="0" d="M912,289.8v-11.1c-1,0.6-2.1,1-3.2,1.3c-1.1,0.3-2.3,0.5-3.6,0.5
		c-1.5,0-2.7-0.4-3.4-1.2c-0.7-0.8-1.1-2-1.1-3.6v-20.9h11.5V243h-11.5v-12.5h-13.8V243H881v11.8h5.8V278c0.1,5.6,1.4,9.4,3.9,11.6
		s6,3.2,10.3,3.1c2.3,0,4.3-0.3,6.1-0.8C908.9,291.4,910.5,290.7,912,289.8L912,289.8z"/>
	<path id="path3031" inkscape:connector-curvature="0" d="M937.1,237.6v-12.3h-14.6v12.3H937.1z M936.7,291.8V243h-13.8v48.8H936.7z
		"/>
	<path id="path3033" inkscape:connector-curvature="0" d="M1000.3,267.5v-0.2c-0.2-7.2-2.6-13.1-7.5-17.9
		c-4.8-4.7-11.1-7.2-18.8-7.4c-7.8,0.2-14.1,2.7-19,7.4c-4.9,4.8-7.4,10.8-7.5,18v0.2c0.2,7.2,2.6,13.1,7.5,17.9
		c4.8,4.7,11.1,7.2,18.8,7.4c7.8-0.2,14.1-2.7,19-7.4C997.6,280.7,1000.1,274.7,1000.3,267.5L1000.3,267.5z M986.6,267.7
		c0,3.7-1.2,6.8-3.4,9.3c-2.2,2.5-5.3,3.8-9.3,4c-3.9-0.1-7-1.5-9.3-4c-2.3-2.6-3.5-5.7-3.6-9.4v-0.2c0-3.7,1.2-6.8,3.4-9.3
		c2.2-2.5,5.3-3.8,9.3-4c3.9,0.1,7,1.5,9.3,4c2.3,2.6,3.5,5.7,3.6,9.4V267.7z"/>
	<path id="path3035" inkscape:connector-curvature="0" d="M1055,291.8v-31.6c0-5.7-1.5-10.1-4.4-13.3c-2.9-3.2-6.9-4.8-12.2-4.9
		c-3.5,0.1-6.3,0.9-8.6,2.4c-2.3,1.5-4.2,3.3-5.7,5.5V243h-13.8v48.8h13.8v-27.2c0-3.3,0.8-5.8,2.3-7.4c1.5-1.7,3.6-2.5,6.3-2.5
		c2.7,0,4.7,0.8,6.2,2.5c1.5,1.7,2.2,4.1,2.2,7.4v27.2L1055,291.8z"/>
</g>
</svg>
