<?xml version="1.0" encoding="utf-8"?>
<!-- Generator: Adobe Illustrator 21.1.0, SVG Export Plug-In . SVG Version: 6.00 Build 0)  -->
<svg version="1.1"
	 id="svg3027" inkscape:version="0.91 r13725" sodipodi:docname="Kabel_eins_Logo_2015.svg" xmlns:cc="http://creativecommons.org/ns#" xmlns:dc="http://purl.org/dc/elements/1.1/" xmlns:inkscape="http://www.inkscape.org/namespaces/inkscape" xmlns:rdf="http://www.w3.org/1999/02/22-rdf-syntax-ns#" xmlns:sodipodi="http://sodipodi.sourceforge.net/DTD/sodipodi-0.dtd" xmlns:svg="http://www.w3.org/2000/svg"
	 xmlns="http://www.w3.org/2000/svg" xmlns:xlink="http://www.w3.org/1999/xlink" x="0px" y="0px" viewBox="0 0 429.9 288"
	 style="enable-background:new 0 0 429.9 288;" xml:space="preserve">
<style type="text/css">
	.st0{fill:#FF3801;}
</style>
<sodipodi:namedview  bordercolor="#666666" borderopacity="1" gridtolerance="10" guidetolerance="10" id="namedview5752" inkscape:current-layer="svg3027" inkscape:cx="304.63689" inkscape:cy="214.46415" inkscape:pageopacity="0" inkscape:pageshadow="2" inkscape:window-height="858" inkscape:window-maximized="0" inkscape:window-width="1417" inkscape:window-x="0" inkscape:window-y="0" inkscape:zoom="1.3475445" objecttolerance="10" pagecolor="#ffffff" showgrid="false">
	</sodipodi:namedview>
<path id="path3030" inkscape:connector-curvature="0" class="st0" d="M0,0v81.5c0.6,12.8,1.5,25.7,4,38.3
	c4,20.8,11.7,41.4,25.4,57.8c12.6,15.5,30.2,26.5,49.2,32.7c20.6,7.1,43.1,8.9,64.6,4.9c17.6-3.4,34.5-10.9,48.4-22.2
	c18.6-14.9,31.7-36.2,37.5-59.2l-51.5,10.1c0.6-17.1,1.1-34.7,1.3-51.8c19.3-4.3,38.2-12.4,52.9-25.9c11.1-10.1,19.3-23.8,21.3-38.8
	c5.5-0.9,11-1.5,16.4-2.4c23.8-4,47.5-8.6,70.7-15.4c4.6,11.3,8.8,22.8,12,34.6c3.2,11.7,5.5,23.8,6.4,35.9
	c2.3,45.5-12.3,91.7-40.6,127.3c-13.5,17-29.9,31.6-48.4,42.9c-27.5,16.9-59.4,26.4-91.5,28.2c-14.1,1-28.4,0.3-42.3-2.7
	c-18.9-3.9-37-11.1-54.1-19.9c-6-3.2-12.1-6.3-17.6-10.2c-16.8-11.6-32.6-25.3-44.6-41.9c-7.4-10.1-13.2-21.1-18.2-32.6
	c-0.3-0.7-0.6-1.4-0.9-2V288h429.9V0L0,0L0,0z"/>
</svg>
