<?xml version="1.0" encoding="utf-8"?>
<!-- Generator: Adobe Illustrator 21.1.0, SVG Export Plug-In . SVG Version: 6.00 Build 0)  -->
<svg version="1.1"
	 id="svg2" inkscape:version="0.91 r13725" sodipodi:docname="HSE24.svg" xmlns:cc="http://creativecommons.org/ns#" xmlns:dc="http://purl.org/dc/elements/1.1/" xmlns:inkscape="http://www.inkscape.org/namespaces/inkscape" xmlns:rdf="http://www.w3.org/1999/02/22-rdf-syntax-ns#" xmlns:sodipodi="http://sodipodi.sourceforge.net/DTD/sodipodi-0.dtd" xmlns:svg="http://www.w3.org/2000/svg"
	 xmlns="http://www.w3.org/2000/svg" xmlns:xlink="http://www.w3.org/1999/xlink" x="0px" y="0px" viewBox="0 0 512 141.3"
	 style="enable-background:new 0 0 512 141.3;" xml:space="preserve">
<style type="text/css">
	.st0{fill:#FF640A;}
</style>
<sodipodi:namedview  bordercolor="#666666" borderopacity="1" gridtolerance="10" guidetolerance="10" id="namedview11252" inkscape:current-layer="svg2" inkscape:cx="256" inkscape:cy="144" inkscape:pageopacity="0" inkscape:pageshadow="2" inkscape:window-height="904" inkscape:window-maximized="0" inkscape:window-width="1460" inkscape:window-x="0" inkscape:window-y="0" inkscape:zoom="0.70703125" objecttolerance="10" pagecolor="#ffffff" showgrid="false">
	</sodipodi:namedview>
<g id="layer1" transform="matrix(0.92179052,0,0,0.92179052,-49.507717,-231.24505)">
	<g id="g3191">
		<path id="path2391" inkscape:connector-curvature="0" class="st0" d="M53.7,268.4c0-10.4,6.7-16.2,15.6-16.2
			c9,0,15.6,5.8,15.6,16.2v44.2h44.2v-44.2c0-10.4,6.7-16.2,15.6-16.2c9,0,15.6,5.8,15.6,16.2l0,118.3c0,10.4-6.7,16.3-15.6,16.3
			c-9,0-15.6-5.8-15.6-16.3l0-45.4H85v45.4c0,10.4-6.7,16.3-15.6,16.3c-9,0-15.6-5.8-15.6-16.3L53.7,268.4
			C53.7,268.4,53.7,268.4,53.7,268.4z"/>
		<path id="path2393" inkscape:connector-curvature="0" class="st0" d="M274.6,273.8c0,8.1-5.4,15.4-14,15.4c-8.5,0-21.5-8.3-34-8.3
			c-9,0-17.1,4.8-17.1,13.5c0,21.5,69.6,7.7,69.6,61.5c0,29.8-24.6,48.3-53.3,48.3c-16,0-50.6-3.8-50.6-23.3c0-8.1,5.4-14.8,14-14.8
			c9.8,0,21.5,8.1,35,8.1c13.7,0,21.3-7.7,21.3-17.9c0-24.6-69.6-9.8-69.6-58.1c0-29.2,24-47.3,51.7-47.3
			C239.1,250.9,274.6,257.3,274.6,273.8L274.6,273.8z"/>
		<path id="path2395" inkscape:connector-curvature="0" class="st0" d="M294.6,271.5c0-10.4,5.2-18.1,16.3-18.1l53.5,0.1
			c10,0,14.8,7.1,14.8,14.4c0,7.1-5,14.4-14.8,14.4l-38.5-0.1v30.4H360c10.2,0,15.2,7.1,15.2,14.4c0,7.1-5.2,14.4-15.2,14.4h-34.2
			V373h38.5c10,0,14.8,7.1,14.8,14.4c0,7.1-5,14.4-14.8,14.4h-53.7c-9.2,0-16-6.2-16-15.6V271.5L294.6,271.5L294.6,271.5z"/>
		<path id="path2397" inkscape:connector-curvature="0" class="st0" d="M490.9,372.9c9.2,0,15.2,5.5,15.2,15.1
			c0,9.6-7.1,13.7-15,13.7h-69.6c-9.2,0-16.3-4.2-16.3-13.7c0-4.4,2.7-8.1,4.8-10.6c17.3-20.6,36-39.4,51.9-62.3
			c3.8-5.4,7.3-11.9,7.3-19.4c0-8.5-6.5-16-15-16c-24,0-12.5,33.7-32.5,33.7c-10,0-15.2-7.1-15.2-15.2c0-26.2,23.3-47.3,49-47.3
			c25.6,0,46.3,16.9,46.3,43.3c0,29-31.2,56.4-49,78.7L490.9,372.9L490.9,372.9L490.9,372.9z"/>
		<path id="path2399" inkscape:connector-curvature="0" class="st0" d="M561,284h-0.4l-28.1,58.1H561V284z M510.8,369.7
			c-10.2,0-14.6-6.9-14.6-12.3c0-4.6,1.7-7.1,2.9-9.2l46.7-84.6c4.6-8.3,10.4-12.1,21.2-12.1c12.1,0,24,7.7,24,26.7v64h3.5
			c8.1,0,14.6,5.4,14.6,13.8c0,8.3-6.5,13.7-14.6,13.7H591v17.7c0,11-4.4,16.2-15,16.2c-10.6,0-15-5.2-15-16.2l0-17.7L510.8,369.7
			L510.8,369.7L510.8,369.7z"/>
	</g>
</g>
</svg>
