<?xml version="1.0" encoding="utf-8"?>
<!-- Generator: Adobe Illustrator 21.1.0, SVG Export Plug-In . SVG Version: 6.00 Build 0)  -->
<svg version="1.1"
	 id="svg81437" inkscape:version="0.91 r13725" sodipodi:docname="Sport1.svg" xmlns:cc="http://creativecommons.org/ns#" xmlns:dc="http://purl.org/dc/elements/1.1/" xmlns:inkscape="http://www.inkscape.org/namespaces/inkscape" xmlns:rdf="http://www.w3.org/1999/02/22-rdf-syntax-ns#" xmlns:sodipodi="http://sodipodi.sourceforge.net/DTD/sodipodi-0.dtd" xmlns:svg="http://www.w3.org/2000/svg"
	 xmlns="http://www.w3.org/2000/svg" xmlns:xlink="http://www.w3.org/1999/xlink" x="0px" y="0px" viewBox="0 0 512 130.2"
	 style="enable-background:new 0 0 512 130.2;" xml:space="preserve">
<style type="text/css">
	.st0{fill:#232933;}
	.st1{fill:#F9AE0C;}
</style>
<sodipodi:namedview  bordercolor="#666666" borderopacity="1.0" fit-margin-bottom="0.5" fit-margin-left="0.5" fit-margin-right="0.5" fit-margin-top="0.5" id="base" inkscape:current-layer="layer1" inkscape:cx="282.65361" inkscape:cy="110.76646" inkscape:document-units="mm" inkscape:pageopacity="0.0" inkscape:pageshadow="2" inkscape:window-height="984" inkscape:window-maximized="1" inkscape:window-width="1920" inkscape:window-x="0" inkscape:window-y="0" inkscape:zoom="1.979899" pagecolor="#ffffff" showgrid="false" units="mm">
	</sodipodi:namedview>
<g id="layer1" transform="translate(-186.28041,-94.272921)" inkscape:groupmode="layer" inkscape:label="Layer 1">
	<g id="g81388" transform="matrix(15.42352,0,0,-15.402202,-16745.22,6955.817)">
		<g id="g75807" transform="translate(1097.7715,433.4787)">
			<path id="path75809" inkscape:connector-curvature="0" class="st0" d="M0,5.2l0.3,1.2h4.3c0.2,0,0.4,0.2,0.4,0.4
				c0,0.1,0,0.2-0.1,0.3C4.9,7.1,4.9,7.2,4.8,7.2H2c-0.4,0-0.8,0.2-1,0.5C0.7,7.9,0.6,8.3,0.7,8.7c0.2,1,1,1.6,1.9,1.6h4.5L6.7,9.1
				H2.4C2.2,9.1,2,8.9,1.9,8.7c0-0.1,0-0.2,0.1-0.3C2,8.4,2.1,8.3,2.2,8.3H5c0.4,0,0.8-0.2,1-0.5c0.2-0.3,0.3-0.7,0.3-1.1
				c-0.2-1-0.9-1.6-1.9-1.6H0"/>
		</g>
		<g id="g75811" transform="translate(1121.0475,438.5927)">
			<path id="path75813" inkscape:connector-curvature="0" class="st0" d="M0,5.2c-1.5,0-2.2-0.8-2.6-2.3l-0.7-2.8H-2l0.7,2.8
				C-1.1,3.4-0.7,4,0,4h1.5l0.3,1.2H0"/>
		</g>
		<g id="g75815" transform="translate(1126.7885,438.5927)">
			<path id="path75817" inkscape:connector-curvature="0" class="st0" d="M0,5.2h-2l0.5,1.7h-1.3l-1.8-6.8h1.3l1,3.9h2L0,5.2z"/>
		</g>
		<g id="g75819" transform="translate(1109.7334,436.3537)">
			<path id="path75821" inkscape:connector-curvature="0" class="st0" d="M0,5.2l-0.2-0.7C-0.3,4-0.8,3.5-1.4,3.5h-2.5l0.7,2.7h2.4
				C0.2,6.2,0.1,5.4,0,5.2 M-0.7,7.4h-2.1h-1.3l-1.8-6.7h1.3l0.4,1.6h2.8c1.2,0,2.1,0.8,2.4,1.8l0.2,0.7C1.5,5.9,1.2,7.4-0.7,7.4"/>
		</g>
		<g id="g75823" transform="translate(1116.6484,436.3537)">
			<path id="path75825" inkscape:connector-curvature="0" class="st0" d="M0,5.2l-0.2-0.7C-0.3,4-0.8,3.5-1.4,3.5h-1.9
				c-0.9,0-0.8,0.8-0.7,1l0.2,0.7c0.1,0.5,0.6,0.9,1.2,0.9h1.9C0.2,6.2,0.1,5.4,0,5.2 M-0.7,7.4h-1.9c-1.1,0-2.1-0.8-2.4-1.8
				l-0.2-0.7c-0.3-1.1,0-2.6,1.9-2.6h1.9c1.2,0,2.1,0.8,2.4,1.8l0.2,0.7C1.5,5.9,1.2,7.4-0.7,7.4"/>
		</g>
		<g id="g75827" transform="translate(1129.6785,440.3067)">
			<path id="path75829" inkscape:connector-curvature="0" class="st1" d="M0,5.2c-0.3-1-1.3-1.7-2.4-1.7l-0.3-1.2h1.5l-1-3.9h1.7
				l1.9,6.8H0"/>
		</g>
		<g id="g75831" transform="translate(1135.8824,436.6447)">
		</g>
		<g id="g75835" transform="translate(1141.4495,438.5927)">
		</g>
		<g id="g75839" transform="translate(1147.5775,436.3537)">
		</g>
	</g>
</g>
</svg>
